<?xml version="1.0" standalone="no"?>
<!DOCTYPE svg PUBLIC "-//W3C//DTD SVG 1.1//EN" "http://www.w3.org/Graphics/SVG/1.1/DTD/svg11.dtd" >
<svg xmlns="http://www.w3.org/2000/svg">
<metadata></metadata>
<defs>
<font id="verblight_italic" horiz-adv-x="1210" >
<font-face units-per-em="2048" ascent="1638" descent="-410" />
<missing-glyph horiz-adv-x="589" />
<glyph unicode="ff" horiz-adv-x="1404" d="M-180 -322q66 19 107 34t73.5 38t48.5 39.5t31 57t21 70t18 97.5l168 959h-146l21 102h143l33 180q22 129 77.5 183.5t164.5 54.5q64 0 156.5 -24t148.5 -46l-60 -90q-41 13 -118 30t-115 17q-58 0 -86.5 -33t-40.5 -92l-33 -180h291l-16 -102h-293l-166 -955 q-31 -173 -53 -228q-34 -85 -111 -132q-74 -43 -234 -84zM520 -322q66 19 107 34t73.5 38t48.5 39.5t31 57t21 70t18 97.5l168 959h-145l20 102h144l32 180q22 129 77.5 183.5t164.5 54.5q64 0 156.5 -24t148.5 -46l-59 -90q-38 13 -116.5 30t-117.5 17q-58 0 -86.5 -33 t-38.5 -92l-32 -180h292l-16 -102h-295l-168 -955q-32 -173 -53 -228q-33 -85 -110 -132q-72 -43 -234 -84z" />
<glyph unicode="fi" horiz-adv-x="1185" d="M-180 -322q66 19 107 34t73.5 38t48.5 39.5t31 57t21 70t18 97.5l168 959h-146l21 102h143l33 180q22 128 76.5 183t156.5 55q90 0 252 -55l-53 -92q-35 11 -92 22.5t-86 11.5q-58 0 -86.5 -33t-40.5 -92l-33 -180h295l-16 -102h-297l-166 -955q-31 -173 -53 -228 q-34 -85 -111 -132q-74 -43 -234 -84zM760 0l190 1075h129l-190 -1075h-129zM983 1309l33 178h145l-33 -178h-145z" />
<glyph unicode="fl" horiz-adv-x="1208" d="M-180 -322q66 19 107 34t73.5 38t48.5 39.5t31 57t21 70t18 97.5l168 959h-146l21 102h143l33 180q22 128 76.5 183t156.5 55q90 0 252 -55l-53 -92q-35 11 -92 22.5t-86 11.5q-58 0 -86.5 -33t-40.5 -92l-33 -180h295l-16 -102h-297l-166 -955q-31 -173 -53 -228 q-34 -85 -111 -132q-74 -43 -234 -84zM772 0l264 1493h127l-264 -1493h-127z" />
<glyph unicode="ffi" horiz-adv-x="1886" d="M-180 -322q66 19 107 34t73.5 38t48.5 39.5t31 57t21 70t18 97.5l168 959h-146l21 102h143l33 180q22 129 77.5 183.5t164.5 54.5q64 0 156.5 -24t148.5 -46l-60 -90q-41 13 -118 30t-115 17q-58 0 -86.5 -33t-40.5 -92l-33 -180h291l-16 -102h-293l-166 -955 q-31 -173 -53 -228q-34 -85 -111 -132q-74 -43 -234 -84zM520 -322q66 19 107 34t73.5 38t48.5 39.5t31 57t21 70t18 97.5l168 959h-145l20 102h144l32 180q22 128 77 183t157 55q97 0 252 -55l-54 -92q-35 11 -92 22.5t-86 11.5q-58 0 -86.5 -33t-38.5 -92l-32 -180h292 l-16 -102h-295l-168 -955q-32 -173 -53 -228q-33 -85 -110 -132q-72 -43 -234 -84zM1462 0l191 1075h127l-191 -1075h-127zM1683 1309l33 178h146l-33 -178h-146z" />
<glyph unicode="ffl" horiz-adv-x="1908" d="M-180 -322q66 19 107 34t73.5 38t48.5 39.5t31 57t21 70t18 97.5l168 959h-146l21 102h143l33 180q22 129 77.5 183.5t164.5 54.5q64 0 156.5 -24t148.5 -46l-60 -90q-41 13 -118 30t-115 17q-58 0 -86.5 -33t-40.5 -92l-33 -180h291l-16 -102h-293l-166 -955 q-31 -173 -53 -228q-34 -85 -111 -132q-74 -43 -234 -84zM520 -322q66 19 107 34t73.5 38t48.5 39.5t31 57t21 70t18 97.5l168 959h-145l20 102h144l32 180q22 128 77 183t157 55q97 0 252 -55l-54 -92q-35 11 -92 22.5t-86 11.5q-58 0 -86.5 -33t-38.5 -92l-32 -180h292 l-16 -102h-295l-168 -955q-32 -173 -53 -228q-33 -85 -110 -132q-72 -43 -234 -84zM1473 0l264 1493h127l-265 -1493h-126z" />
<glyph unicode="ffb" horiz-adv-x="2617" d="M-180 -322q66 19 107 34t73.5 38t48.5 39.5t31 57t21 70t18 97.5l168 959h-146l21 102h143l33 180q22 129 77.5 183.5t164.5 54.5q64 0 156.5 -24t148.5 -46l-60 -90q-41 13 -118 30t-115 17q-58 0 -86.5 -33t-40.5 -92l-33 -180h291l-16 -102h-293l-166 -955 q-31 -173 -53 -228q-34 -85 -111 -132q-74 -43 -234 -84zM520 -322q66 19 107 34t73.5 38t48.5 39.5t31 57t21 70t18 97.5l168 959h-145l20 102h144l32 180q22 128 77 183t157 55q97 0 252 -55l-54 -92q-35 11 -92 22.5t-86 11.5q-58 0 -86.5 -33t-38.5 -92l-32 -180h292 l-16 -102h-295l-168 -955q-32 -173 -53 -228q-33 -85 -110 -132q-72 -43 -234 -84zM1462 0l264 1493h127l-100 -563q203 168 387 168q68 0 127.5 -20.5t109.5 -63t79.5 -118t29.5 -175.5q0 -212 -59.5 -381t-170.5 -266t-255 -97q-63 0 -122 16t-108.5 46t-83 56t-71.5 61 l-27 -156h-127zM1636 268q169 -180 346 -180q84 0 156 53.5t118.5 141.5t72.5 198.5t26 227.5q0 133 -59 205.5t-176 72.5q-99 0 -189.5 -48t-199.5 -136z" />
<glyph unicode="ffh" horiz-adv-x="2615" d="M-180 -322q66 19 107 34t73.5 38t48.5 39.5t31 57t21 70t18 97.5l168 959h-146l21 102h143l33 180q22 129 77.5 183.5t164.5 54.5q64 0 156.5 -24t148.5 -46l-60 -90q-41 13 -118 30t-115 17q-58 0 -86.5 -33t-40.5 -92l-33 -180h291l-16 -102h-293l-166 -955 q-31 -173 -53 -228q-34 -85 -111 -132q-74 -43 -234 -84zM520 -322q66 19 107 34t73.5 38t48.5 39.5t31 57t21 70t18 97.5l168 959h-145l20 102h144l32 180q22 128 77 183t157 55q97 0 252 -55l-54 -92q-35 11 -92 22.5t-86 11.5q-58 0 -86.5 -33t-38.5 -92l-32 -180h292 l-16 -102h-295l-168 -955q-32 -173 -53 -228q-33 -85 -110 -132q-72 -43 -234 -84zM1462 0l264 1493h127l-100 -571q56 38 118.5 72.5t161.5 69t181 34.5q156 0 219 -92.5t37 -243.5l-137 -762h-127l133 750q41 239 -154 239q-107 0 -238.5 -63t-215.5 -129l-142 -797h-127z " />
<glyph unicode="fb" horiz-adv-x="1916" d="M-180 -322q66 19 107 34t73.5 38t48.5 39.5t31 57t21 70t18 97.5l168 959h-146l21 102h143l33 180q22 128 76.5 183t156.5 55q90 0 252 -55l-53 -92q-35 11 -92 22.5t-86 11.5q-58 0 -86.5 -33t-40.5 -92l-33 -180h295l-16 -102h-297l-166 -955q-31 -173 -53 -228 q-34 -85 -111 -132q-74 -43 -234 -84zM760 0l264 1493h129l-100 -563q203 168 387 168q68 0 127.5 -20.5t109.5 -63t79.5 -118t29.5 -175.5q0 -212 -60 -381t-171 -266t-255 -97q-63 0 -122 16t-108.5 46t-83 56t-71.5 61l-26 -156h-129zM936 268q169 -180 346 -180 q84 0 155.5 53.5t118 141.5t72 198.5t25.5 227.5q0 133 -59 205.5t-175 72.5q-99 0 -189.5 -48t-199.5 -136z" />
<glyph unicode="ffj" horiz-adv-x="1892" d="M-180 -322q66 19 107 34t73.5 38t48.5 39.5t31 57t21 70t18 97.5l168 959h-146l21 102h143l33 180q22 129 77.5 183.5t164.5 54.5q64 0 156.5 -24t148.5 -46l-60 -90q-41 13 -118 30t-115 17q-58 0 -86.5 -33t-40.5 -92l-33 -180h291l-16 -102h-293l-166 -955 q-31 -173 -53 -228q-34 -85 -111 -132q-74 -43 -234 -84zM520 -322q66 19 107 34t73.5 38t48.5 39.5t31 57t21 70t18 97.5l168 959h-145l20 102h144l32 180q22 128 77 183t157 55q97 0 252 -55l-54 -92q-35 11 -92 22.5t-86 11.5q-58 0 -86.5 -33t-38.5 -92l-32 -180h292 l-16 -102h-295l-168 -955q-32 -173 -53 -228q-33 -85 -110 -132q-72 -43 -234 -84zM1186 -322q64 19 107 34t74.5 34t48 33.5t28.5 41.5t17 48t12 63l204 1143h127l-202 -1138q-23 -128 -43 -173q-34 -72 -123 -117q-74 -36 -219 -73zM1708 1309l33 178h145l-33 -178h-145z " />
<glyph unicode="ffk" horiz-adv-x="2437" d="M-180 -322q66 19 107 34t73.5 38t48.5 39.5t31 57t21 70t18 97.5l168 959h-146l21 102h143l33 180q22 129 77.5 183.5t164.5 54.5q64 0 156.5 -24t148.5 -46l-60 -90q-41 13 -118 30t-115 17q-58 0 -86.5 -33t-40.5 -92l-33 -180h291l-16 -102h-293l-166 -955 q-31 -173 -53 -228q-34 -85 -111 -132q-74 -43 -234 -84zM520 -322q66 19 107 34t73.5 38t48.5 39.5t31 57t21 70t18 97.5l168 959h-145l20 102h144l32 180q22 128 77 183t157 55q97 0 252 -55l-54 -92q-35 11 -92 22.5t-86 11.5q-58 0 -86.5 -33t-38.5 -92l-32 -180h292 l-16 -102h-295l-168 -955q-32 -173 -53 -228q-33 -85 -110 -132q-72 -43 -234 -84zM1460 0l264 1493h129l-178 -1010l576 592h157l-442 -438l318 -637h-132l-274 549l-233 -232l-56 -317h-129z" />
<glyph unicode="fft" horiz-adv-x="2142" d="M-180 -322q66 19 107 34t73.5 38t48.5 39.5t31 57t21 70t18 97.5l168 959h-146l21 102h143l33 180q22 129 77.5 183.5t164.5 54.5q64 0 156.5 -24t148.5 -46l-60 -90q-41 13 -118 30t-115 17q-58 0 -86.5 -33t-40.5 -92l-33 -180h291l-16 -102h-293l-166 -955 q-31 -173 -53 -228q-34 -85 -111 -132q-74 -43 -234 -84zM520 -322q66 19 107 34t73.5 38t48.5 39.5t31 57t21 70t18 97.5l168 959h-145l20 102h144l32 180q22 129 77.5 183.5t164.5 54.5q64 0 156.5 -24t148.5 -46l-59 -90q-38 13 -116.5 30t-117.5 17q-58 0 -86.5 -33 t-38.5 -92l-32 -180h288l-18 -102h-289l-168 -955q-32 -173 -53 -228q-33 -85 -110 -132q-72 -43 -234 -84zM1524 973l18 102h148l47 271l135 40l-55 -311h297l-21 -102h-295l-135 -764q-11 -65 11 -92t71 -27q66 0 221 62l37 -105q-49 -20 -136 -45t-141 -25 q-46 0 -82 11.5t-66.5 40.5t-39 77.5t1.5 122.5l131 744h-147z" />
<glyph unicode="fh" horiz-adv-x="1914" d="M-180 -322q66 19 107 34t73.5 38t48.5 39.5t31 57t21 70t18 97.5l168 959h-146l21 102h143l33 180q22 128 76.5 183t156.5 55q90 0 252 -55l-53 -92q-35 11 -92 22.5t-86 11.5q-58 0 -86.5 -33t-40.5 -92l-33 -180h295l-16 -102h-297l-166 -955q-31 -173 -53 -228 q-34 -85 -111 -132q-74 -43 -234 -84zM760 0l264 1493h129l-102 -569q93 63 219 118.5t243 55.5q155 0 218.5 -93t35.5 -243l-135 -762h-127l133 750q41 239 -153 239q-106 0 -236 -61.5t-219 -128.5l-141 -799h-129z" />
<glyph unicode="fj" horiz-adv-x="1191" d="M-180 -322q66 19 107 34t73.5 38t48.5 39.5t31 57t21 70t18 97.5l168 959h-146l21 102h143l33 180q22 128 76.5 183t156.5 55q90 0 252 -55l-53 -92q-35 11 -92 22.5t-86 11.5q-58 0 -86.5 -33t-40.5 -92l-33 -180h295l-16 -102h-297l-166 -955q-31 -173 -53 -228 q-34 -85 -111 -132q-74 -43 -234 -84zM485 -322q64 19 107 34t74 34t47.5 33t29 41.5t17 48t12.5 63.5l205 1143h127l-203 -1138q-23 -128 -43 -173q-34 -72 -123 -117q-74 -36 -219 -73zM1008 1309l32 178h146l-33 -178h-145z" />
<glyph unicode="fk" horiz-adv-x="1736" d="M-180 -322q66 19 107 34t73.5 38t48.5 39.5t31 57t21 70t18 97.5l168 959h-146l21 102h143l33 180q22 128 76.5 183t156.5 55q90 0 252 -55l-53 -92q-35 11 -92 22.5t-86 11.5q-58 0 -86.5 -33t-40.5 -92l-33 -180h295l-16 -102h-297l-166 -955q-31 -173 -53 -228 q-34 -85 -111 -132q-74 -43 -234 -84zM760 0l264 1493h129l-178 -1010l575 592h158l-442 -438l317 -637h-131l-274 549l-234 -232l-55 -317h-129z" />
<glyph unicode="ft" horiz-adv-x="1441" d="M-180 -322q66 19 107 34t73.5 38t48.5 39.5t31 57t21 70t18 97.5l168 959h-146l21 102h143l33 180q22 129 77.5 183.5t164.5 54.5q64 0 156.5 -24t148.5 -46l-60 -90q-41 13 -118 30t-115 17q-58 0 -86.5 -33t-40.5 -92l-33 -180h291l-16 -102h-293l-166 -955 q-31 -173 -53 -228q-34 -85 -111 -132q-74 -43 -234 -84zM823 973l19 102h147l47 271l135 40l-55 -311h295l-18 -102h-295l-135 -764q-11 -65 10.5 -92t70.5 -27q67 0 222 62l37 -105q-54 -21 -138.5 -45.5t-138.5 -24.5q-99 0 -155 58.5t-31 193.5l131 744h-148z" />
<glyph unicode=" "  horiz-adv-x="589" />
<glyph unicode="&#x09;" horiz-adv-x="589" />
<glyph unicode="&#xa0;" horiz-adv-x="589" />
<glyph unicode="!" horiz-adv-x="524" d="M63 0l37 211h160l-37 -211h-160zM176 418l141 1016h154l-213 -1016h-82z" />
<glyph unicode="&#x22;" horiz-adv-x="808" d="M215 911l66 523h145l-117 -523h-94zM586 911l65 523h146l-117 -523h-94z" />
<glyph unicode="#" horiz-adv-x="1503" d="M53 381l21 106h297l151 457h-282l18 107h301l127 383h113l-127 -383h420l127 383h110l-127 -383h289l-21 -107h-303l-151 -457h287l-19 -106h-305l-125 -381h-111l125 381h-417l-125 -381h-115l125 381h-283zM485 487h418l152 457h-418z" />
<glyph unicode="$" horiz-adv-x="1212" d="M10 154l78 98q198 -122 369 -150l104 588q-60 24 -95.5 40.5t-83 42.5t-75 52t-54 61t-38.5 79.5t-12 97.5q0 120 65.5 211t174.5 136.5t243 45.5h10l33 184h105l-35 -192q200 -31 381 -135l-78 -92q-155 83 -324 110l-94 -540q59 -24 98.5 -42t88.5 -45.5t81 -56.5 t60.5 -67t42.5 -85.5t14 -103.5q0 -99 -43 -179t-116 -130.5t-164 -77.5t-191 -27h-16l-31 -182h-105l33 193q-222 32 -426 166zM342 1071q0 -91 56 -140t188 -102l90 510q-140 -2 -237 -72.5t-97 -195.5zM559 94q159 2 267 78.5t108 204.5q0 43 -14.5 79.5t-37 63t-60 51.5 t-74.5 43t-89 39z" />
<glyph unicode="%" horiz-adv-x="1988" d="M160 1006q0 196 112 323t285 127q162 0 253 -85t91 -232q0 -197 -110.5 -324t-284.5 -127q-162 0 -254 85.5t-92 232.5zM279 1010q0 -228 233 -228q119 0 195.5 105.5t76.5 247.5q0 227 -227 227q-123 0 -200.5 -105t-77.5 -247zM453 0l999 1434h125l-1004 -1434h-120z M1126 295q0 196 112 323t284 127q162 0 253 -85t91 -232q0 -197 -109.5 -324t-283.5 -127q-162 0 -254.5 85.5t-92.5 232.5zM1243 299q0 -227 234 -227q120 0 197 105t77 247q0 227 -229 227q-122 0 -200.5 -105t-78.5 -247z" />
<glyph unicode="&#x26;" horiz-adv-x="1378" d="M92 307q0 66 22.5 126.5t55.5 106t88 92t102.5 78.5t116.5 72q-69 89 -103 165t-34 169q0 86 32 153t85.5 106.5t116 60t128.5 20.5q81 0 148.5 -27.5t113.5 -90.5t46 -152q0 -56 -21 -108.5t-51 -92t-82.5 -83.5t-95 -73t-109.5 -71l310 -383q129 169 198 381h135 q-34 -112 -99 -241t-157 -239l226 -276h-156l-152 186q-219 -209 -481 -209q-170 0 -276.5 86.5t-106.5 243.5zM225 313q0 -42 12.5 -79.5t40 -71.5t79.5 -54t122 -20q216 0 402 193l-334 413q-59 -37 -100 -65t-86 -67t-72.5 -75t-45.5 -81t-18 -93zM467 1114 q0 -77 31.5 -141t83.5 -129q71 42 117.5 74.5t93 75t69.5 90t23 100.5q0 74 -47.5 119t-137.5 45q-112 0 -172.5 -66t-60.5 -168z" />
<glyph unicode="'" horiz-adv-x="438" d="M215 911l66 523h145l-117 -523h-94z" />
<glyph unicode="(" horiz-adv-x="595" d="M41.5 -101q-5.5 62 13.5 154l234 1317q10 56 18 88t24.5 69t40.5 59.5t64.5 47t97.5 44t138 40.5l30 -100q-90 -26 -139 -46.5t-79.5 -51t-41 -61t-20.5 -89.5l-236 -1315q-7 -39 -9.5 -57.5t-3.5 -44t1.5 -35.5t12 -27t21.5 -24t35.5 -20t49 -22.5t67.5 -23.5l-41 -94 q-146 41 -209 85.5t-68.5 106.5z" />
<glyph unicode=")" horiz-adv-x="595" d="M-86 -193q60 18 100 32t71 31.5t48.5 33t30 40t19 48.5t12.5 63l235 1315q7 39 9.5 57.5t3.5 44t-1.5 35.5t-12 27t-21.5 24t-35.5 20t-49 22.5t-67.5 23.5l41 94q146 -41 209 -85.5t68.5 -106.5t-13.5 -154l-233 -1317q-10 -56 -18 -88t-24.5 -69t-40.5 -59.5t-64.5 -47 t-97.5 -44t-138 -40.5z" />
<glyph unicode="*" horiz-adv-x="1024" d="M182 991l316 80l-267 186l82 95l226 -236l24 318l121 -21l-84 -307l291 139l41 -117l-314 -79l267 -187l-78 -92l-225 231l-27 -315l-121 19l86 309l-295 -137z" />
<glyph unicode="+" horiz-adv-x="1294" d="M141 629l19 106h446l72 406h113l-72 -406h450l-18 -106h-453l-71 -404h-111l72 404h-447z" />
<glyph unicode="," horiz-adv-x="487" d="M-6 -207l125 207h-76l39 217h158l-19 -225l-186 -250z" />
<glyph unicode="-" horiz-adv-x="970" d="M141 524l19 117h555l-19 -117h-555z" />
<glyph unicode="." horiz-adv-x="483" d="M43 0l39 217h160l-37 -217h-162z" />
<glyph unicode="/" horiz-adv-x="921" d="M-78 -184l993 1802h119l-995 -1802h-117z" />
<glyph unicode="0" horiz-adv-x="1314" d="M125 520q0 80 10.5 166t33.5 178t57 176.5t84.5 161t112 132.5t143.5 89t175 33q103 0 186 -32t136 -84t88.5 -123.5t50.5 -147t15 -156.5q0 -114 -20.5 -236.5t-68.5 -249t-117 -225.5t-176.5 -162t-236.5 -63q-103 0 -185.5 32t-135 84t-88 123.5t-50 146.5t-14.5 157z M260 506q0 -59 8.5 -113.5t31.5 -111t59 -97.5t97 -67.5t140 -26.5q88 0 163 43t126 115t90.5 160t61.5 184t32.5 180.5t9.5 155.5q0 59 -8.5 113.5t-31.5 111t-59 97.5t-97 67t-140 26q-76 0 -142 -32.5t-114.5 -86.5t-87.5 -126.5t-64.5 -149.5t-42.5 -159t-24.5 -152 t-7.5 -131z" />
<glyph unicode="1" horiz-adv-x="708" d="M162 1253l360 181h119l-254 -1434h-133l229 1286l-274 -137z" />
<glyph unicode="2" horiz-adv-x="1146" d="M-6 0l18 104q11 62 32 117t45 97.5t63.5 85t73.5 72.5t88 67.5t93.5 62t104.5 63.5q12 7 18.5 11t17 10.5t19.5 11.5q64 39 106.5 67t95 65.5t85.5 70t63.5 71t44 79t13.5 82.5q-2 92 -70.5 147t-193.5 55q-107 0 -216 -40t-180 -87l-55 99q222 145 455 145 q181 0 288 -85t107 -238q0 -41 -10 -80.5t-24 -72.5t-41.5 -69t-51 -62.5t-65.5 -60.5t-70.5 -55.5t-80.5 -55t-82 -51.5t-88.5 -53.5t-86.5 -52.5q-85 -52 -138 -90t-100 -86t-73 -102.5t-39 -124.5h770l-21 -117h-915z" />
<glyph unicode="3" horiz-adv-x="1173" d="M-8 127l76 96q176 -129 391 -129q185 0 301.5 93.5t116.5 236.5q0 99 -60 170t-151 103t-201 32h-64l21 119h74q106 0 207.5 40t167 112t65.5 155q0 85 -67.5 134.5t-182.5 49.5q-183 0 -371 -118l-47 98q35 24 86 50.5t151.5 56.5t196.5 30q170 0 270.5 -83.5 t100.5 -207.5q0 -114 -88.5 -218.5t-267.5 -162.5q124 -26 210.5 -126.5t86.5 -235.5q0 -86 -36.5 -165.5t-103.5 -142t-174.5 -100t-238.5 -37.5q-243 0 -469 150z" />
<glyph unicode="4" horiz-adv-x="1234" d="M16 330l19 106l868 998h174l-176 -988h219l-20 -116h-219l-58 -330h-135l57 330h-729zM188 446h578l149 844z" />
<glyph unicode="5" horiz-adv-x="1157" d="M14 127l76 92q19 -14 46 -30.5t74 -39.5t108 -38t122 -15q78 0 153.5 26.5t138.5 74.5t101.5 124.5t38.5 167.5q0 134 -78.5 215.5t-222.5 81.5t-317 -96l-72 41l199 703h739l-20 -117h-631l-125 -475q125 59 256 59q189 0 300.5 -116.5t111.5 -295.5q0 -104 -40 -197.5 t-112 -163t-178.5 -110.5t-232.5 -41q-76 0 -145 14t-127 42t-88.5 46t-74.5 48z" />
<glyph unicode="6" horiz-adv-x="1241" d="M119 467q0 199 68 382t182.5 316t274.5 212t335 79q52 0 101.5 -7t73.5 -15l24 -7l-52 -104q-59 18 -143 18q-119 0 -230.5 -46t-200.5 -126.5t-156.5 -189.5t-104.5 -234q26 27 59 52t83.5 53.5t117.5 45.5t139 17q101 0 182.5 -34.5t131.5 -91.5t76 -127t26 -146 q0 -103 -35.5 -198.5t-100.5 -171.5t-167 -121.5t-225 -45.5q-114 0 -204.5 42.5t-144.5 113t-82 156t-28 178.5zM250 467q0 -56 12.5 -109t38.5 -101.5t63.5 -85t91 -58t117.5 -21.5q90 0 166.5 35t126 93.5t77.5 134t28 157.5q0 54 -18 104.5t-52.5 93t-93.5 68t-133 25.5 q-73 0 -145 -24.5t-126 -62.5t-92.5 -79t-56.5 -78q-4 -31 -4 -92z" />
<glyph unicode="7" horiz-adv-x="999" d="M158 0q31 175 114.5 370t173.5 343t196 292.5t161 209.5t90 102h-727l20 117h893l-14 -101q-13 -14 -36.5 -39t-93 -107t-134 -167t-147.5 -212t-148.5 -249.5t-122 -271.5t-80.5 -287h-145z" />
<glyph unicode="8" horiz-adv-x="1253" d="M66 330q0 299 430 448q-209 104 -209 303q0 168 134.5 271.5t334.5 103.5q178 0 286.5 -85.5t108.5 -227.5q0 -248 -354 -377q60 -28 106.5 -58.5t93 -75t72 -104.5t25.5 -131q0 -93 -47.5 -173t-127 -133.5t-183.5 -83.5t-218 -30q-202 0 -327 92.5t-125 260.5zM203 334 q0 -117 85 -180.5t226 -63.5q113 0 212.5 37.5t163.5 109.5t64 162q0 193 -313 318q-69 -22 -124 -43.5t-116.5 -56t-102.5 -73t-68 -93t-27 -117.5zM418 1073q0 -158 229 -246q76 24 134.5 48.5t116 61t89 85.5t31.5 108q0 90 -72.5 153t-189.5 63q-137 0 -237.5 -80.5 t-100.5 -192.5z" />
<glyph unicode="9" horiz-adv-x="1239" d="M82 6l51 105q59 -19 143 -19q119 0 231 46t201 126t156.5 189t104.5 235q-26 -27 -59.5 -52t-83.5 -53.5t-117.5 -45.5t-139.5 -17q-101 0 -182.5 34.5t-131 92t-75.5 127.5t-26 146q0 103 35.5 198t100.5 171t167 121.5t225 45.5q114 0 204.5 -42t144.5 -113t82 -156 t28 -178q0 -200 -68 -382.5t-182.5 -316t-274.5 -212.5t-335 -79q-52 0 -101.5 7.5t-73.5 14.5zM289 922q0 -54 18 -104.5t52.5 -93t93.5 -68t133 -25.5q95 0 187 42t149.5 96t83.5 105q4 62 4 93q0 70 -20.5 135.5t-59 119.5t-102 86.5t-142.5 32.5q-120 0 -212 -60 t-138.5 -154.5t-46.5 -204.5z" />
<glyph unicode=":" horiz-adv-x="495" d="M45 0l39 217h160l-37 -217h-162zM172 715l39 217h160l-37 -217h-162z" />
<glyph unicode=";" horiz-adv-x="522" d="M10 -207l125 207h-76l39 217h158l-18 -225l-187 -250zM184 715l39 217h160l-37 -217h-162z" />
<glyph unicode="&#x3c;" horiz-adv-x="1292" d="M115 633l18 102l1081 432l-22 -137l-924 -354l797 -357l-21 -120z" />
<glyph unicode="=" horiz-adv-x="1292" d="M104 449l19 108h1012l-21 -108h-1010zM168 813l20 107h1010l-18 -107h-1012z" />
<glyph unicode="&#x3e;" horiz-adv-x="1290" d="M92 201l23 137l923 354l-796 357l20 120l930 -434l-18 -102z" />
<glyph unicode="?" horiz-adv-x="1005" d="M186 1311q238 145 449 145q72 0 136 -17.5t117 -52.5t84.5 -95t31.5 -138q0 -90 -41.5 -165t-115 -128.5t-161.5 -91t-194 -61.5l-64 -289h-100l49 368q493 104 493 359q0 99 -67.5 146.5t-175.5 47.5q-95 0 -182 -32.5t-201 -94.5zM223 0l37 211h160l-39 -211h-158z" />
<glyph unicode="@" horiz-adv-x="1953" d="M88 381q0 156 45 305.5t135.5 279t215 228t294.5 155t363 56.5q135 0 248 -29.5t195.5 -84t143.5 -132t91.5 -173t39 -206.5t-13.5 -233q-22 -123 -60 -225t-95 -185.5t-140 -130.5t-184 -47q-56 0 -97 15.5t-61 41t-33 57.5t-12.5 64t0.5 62q-186 -150 -368 -150 q-104 0 -178 70t-74 176q0 92 29.5 163.5t80 113.5t111.5 63.5t129 21.5q54 0 117 -10t138 -27.5t85 -19.5q7 49 22 123q20 114 -14.5 163.5t-148.5 49.5q-124 0 -342 -90l-35 96q98 40 204.5 65t184.5 25q148 0 218.5 -72.5t43.5 -226.5l-78 -436q-7 -38 -9.5 -59 t-4.5 -55.5t4 -54t18 -40t36.5 -30t60.5 -9.5q33 0 72 16t84 54t84.5 93t74 142t51.5 193q20 107 14 206t-29.5 185t-76 156.5t-125.5 121t-177.5 78t-231.5 27.5q-213 0 -395 -78.5t-302.5 -209t-188 -299.5t-67.5 -351q0 -191 73 -340.5t217 -237.5t339 -88q69 0 136 10 t113 24.5t82 29.5t53 25l17 10l47 -72q-7 -5 -20.5 -12t-58.5 -26.5t-94 -34t-125 -26.5t-154 -12q-164 0 -300 58t-226.5 159t-140.5 237.5t-50 293.5zM659 309q0 -84 45.5 -124t124.5 -40q77 0 172.5 47t180.5 117q5 32 19 112.5t18 106.5q-13 2 -74 14t-114 19.5t-97 7.5 q-75 0 -130.5 -23.5t-86 -63t-44.5 -83t-14 -90.5z" />
<glyph unicode="A" horiz-adv-x="1366" d="M-51 0l805 1434h147l301 -1434h-139l-72 373h-684l-203 -373h-155zM369 487h600l-158 816z" />
<glyph unicode="B" horiz-adv-x="1339" d="M82 0l254 1434h467q200 0 313 -86t113 -230q0 -66 -22 -123.5t-56 -97t-77.5 -70t-85.5 -46.5t-81 -21q33 -5 67 -18t73 -38.5t69 -60t50 -87.5t20 -116q0 -205 -138 -322.5t-386 -117.5h-580zM236 113h423q188 0 292 96t104 240q0 119 -91 184t-239 65h-385zM358 809 h365q48 0 98 11t99.5 35t88.5 58t63 84.5t24 110.5q0 97 -75.5 155t-227.5 58h-342z" />
<glyph unicode="C" horiz-adv-x="1298" d="M135 561q0 202 56.5 372.5t151.5 283.5t220 176t262 63q77 0 148 -18t139 -56.5t108.5 -66.5t106.5 -80l-84 -90q-120 97 -214 143.5t-195 46.5q-113 0 -215.5 -58t-178.5 -158t-121 -244.5t-45 -309.5q0 -237 87.5 -352t228.5 -115q102 0 230.5 54.5t254.5 138.5 l66 -105q-155 -96 -292.5 -152.5t-275.5 -56.5q-75 0 -139 19.5t-119.5 64t-95 111.5t-62 166t-22.5 223z" />
<glyph unicode="D" horiz-adv-x="1419" d="M82 0l254 1434h356q138 0 248.5 -32.5t192 -97t126 -167t44.5 -236.5q0 -262 -101 -466t-289.5 -319.5t-435.5 -115.5h-395zM236 117h225q152 0 281 52.5t223 150.5t147 246.5t53 332.5q0 220 -129.5 319t-371.5 99h-215z" />
<glyph unicode="E" horiz-adv-x="1191" d="M82 0l254 1434h868l-20 -117h-735l-95 -543h609l-21 -115h-608l-98 -542h749l-20 -117h-883z" />
<glyph unicode="F" horiz-adv-x="1138" d="M82 0l254 1434h868l-20 -117h-735l-95 -543h586l-20 -117h-586l-119 -657h-133z" />
<glyph unicode="G" horiz-adv-x="1417" d="M135 541q0 179 38.5 330.5t104.5 257.5t153.5 181t185.5 110.5t202 35.5q79 0 157 -21t146.5 -60t118.5 -75t105 -83l-89 -89q-42 34 -63.5 51.5t-73 52t-91 53t-95 34.5t-107.5 16q-112 0 -213 -57t-175.5 -157t-118.5 -246t-44 -314q0 -220 81 -343.5t231 -123.5 q203 0 497 234l58 327h-410l19 113h538l-135 -768h-127l33 184q-269 -207 -488 -207q-93 0 -171 34t-138.5 101t-94.5 176.5t-34 252.5z" />
<glyph unicode="H" horiz-adv-x="1423" d="M82 0l254 1434h133l-111 -625h756l111 625h133l-254 -1434h-133l123 694h-756l-123 -694h-133z" />
<glyph unicode="I" horiz-adv-x="546" d="M82 0l254 1434h133l-254 -1434h-133z" />
<glyph unicode="J" horiz-adv-x="550" d="M-168 -172q55 16 93.5 30t67.5 26t48.5 28.5t31.5 29.5t20.5 37.5t12.5 42.5t11 54l239 1358h136l-240 -1354q-24 -128 -43 -171q-33 -72 -119 -116q-74 -38 -223 -76z" />
<glyph unicode="K" horiz-adv-x="1292" d="M82 0l254 1434h133l-147 -832l837 832h174l-704 -693l520 -741h-152l-454 655l-256 -249l-72 -406h-133z" />
<glyph unicode="L" horiz-adv-x="1089" d="M82 0l254 1434h133l-233 -1317h712l-20 -117h-846z" />
<glyph unicode="M" horiz-adv-x="1685" d="M82 0l254 1434h141l311 -1045l693 1045h141l-254 -1434h-133l211 1192l-629 -952h-94l-293 981l-215 -1221h-133z" />
<glyph unicode="N" horiz-adv-x="1456" d="M82 0l254 1434h139l561 -1248l221 1248h134l-254 -1434h-138l-563 1253l-221 -1253h-133z" />
<glyph unicode="O" horiz-adv-x="1495" d="M131 575v10q-1 91 17 185q18 100 55 198.5t96.5 186t135.5 155t179.5 107t221.5 39.5q120 0 215 -30.5t159 -83.5t106.5 -129.5t61 -164.5t19.5 -192v-10q1 -89 -17 -183q-18 -99 -55 -198.5t-96.5 -186.5t-135.5 -154.5t-180 -107t-223 -39.5q-149 0 -259 45.5 t-174 128.5t-94.5 188t-31.5 236zM268 573q0 -479 420 -479q97 0 181.5 36t145.5 97t109 138.5t77 164t44 169.5t15 159q0 479 -420 479q-97 0 -181.5 -36t-145.5 -97t-109 -138.5t-77 -164t-44 -169.5t-15 -159z" />
<glyph unicode="P" horiz-adv-x="1288" d="M82 0l254 1434h467q102 0 184.5 -20t147.5 -63t101 -116t36 -172q0 -120 -44.5 -214.5t-124.5 -154t-187 -90.5t-234 -31h-365l-102 -573h-133zM338 690h342q94 0 174 22t143.5 66t99.5 117t36 168q0 132 -88 193t-238 61h-358z" />
<glyph unicode="Q" horiz-adv-x="1495" d="M131 575v10q0 90 17 185q19 99 55.5 198t96 186.5t135.5 155t179.5 107t221.5 39.5q120 0 215 -30.5t159 -83.5t106.5 -129.5t61 -164.5t19.5 -192v-9q0 -100 -21 -204q-21 -109 -68.5 -217.5t-115 -197.5t-167.5 -154t-218 -86l215 -207l-100 -86l-254 282 q-143 4 -248.5 50.5t-167 129t-91 186.5t-30.5 232zM268 573q0 -479 420 -479q97 0 181.5 36t145.5 97t109 138.5t77 164t44 169.5t15 159q0 479 -420 479q-97 0 -181.5 -36t-145.5 -97t-109 -138.5t-77 -164t-44 -169.5t-15 -159z" />
<glyph unicode="R" horiz-adv-x="1363" d="M82 0l254 1434h522q101 0 183.5 -20t146.5 -61t99.5 -110t35.5 -162q0 -101 -37 -183t-103 -137t-151.5 -88.5t-187.5 -43.5l289 -629h-142l-270 625h-393l-113 -625h-133zM348 739h393q203 0 322 87.5t119 252.5q0 124 -88 182t-240 58h-403z" />
<glyph unicode="S" horiz-adv-x="1216" d="M14 154l78 98q255 -158 467 -158q160 0 269.5 77.5t109.5 205.5q0 49 -21.5 91t-42.5 67t-83 57.5t-88 43.5t-114 45q-15 6 -22 9q-51 21 -82 34.5t-74 36t-68.5 41.5t-54.5 47t-44.5 58.5t-26 70t-10.5 85.5q0 120 65.5 211t174.5 136.5t243 45.5q130 0 260 -41.5 t234 -101.5l-78 -92q-92 51 -208 84.5t-212 33.5q-142 0 -241 -71t-99 -197q0 -52 15 -88t64 -68.5t81.5 -47.5t125.5 -52q29 -12 44 -18q53 -21 87 -36t80.5 -38.5t75.5 -45t61.5 -52.5t50.5 -64t30 -76.5t12 -93.5q0 -99 -43 -179t-116 -130.5t-164 -77.5t-191 -27 q-149 0 -292.5 52.5t-252.5 124.5z" />
<glyph unicode="T" horiz-adv-x="1134" d="M170 1317l20 117h1043l-21 -117h-454l-234 -1317h-133l232 1317h-453z" />
<glyph unicode="U" horiz-adv-x="1406" d="M166 514l164 920h133l-164 -928q-13 -72 -15 -130v-14q0 -50 12 -98q14 -54 48 -89.5t96 -57t150 -21.5q395 0 469 410l164 928h133l-166 -936q-93 -521 -600 -521q-438 0 -438 386q0 69 14 151z" />
<glyph unicode="V" horiz-adv-x="1359" d="M195 1434h143l250 -1295l700 1295h160l-805 -1434h-147z" />
<glyph unicode="W" horiz-adv-x="1878" d="M217 1434h143l97 -1268l559 1268h135l100 -1280l547 1280h154l-645 -1434h-150l-104 1249l-547 -1249h-150z" />
<glyph unicode="X" horiz-adv-x="1226" d="M-59 0l620 711l-344 723h143l277 -631l500 631h161l-598 -725l371 -709h-147l-299 621l-514 -621h-170z" />
<glyph unicode="Y" horiz-adv-x="1261" d="M182 1434h142l305 -762l571 762h160l-672 -863l-102 -571h-133l102 567z" />
<glyph unicode="Z" horiz-adv-x="1218" d="M-33 0l21 109l1081 1208h-823l20 117h996l-19 -109l-1087 -1208h882l-18 -117h-1053z" />
<glyph unicode="[" horiz-adv-x="677" d="M14 -293l357 2011h411l-18 -100h-279l-321 -1811h280l-18 -100h-412z" />
<glyph unicode="\" horiz-adv-x="901" d="M231 1618h107l364 -1802h-106z" />
<glyph unicode="]" horiz-adv-x="673" d="M-90 -293l18 100h279l321 1811h-280l18 100h412l-356 -2011h-412z" />
<glyph unicode="^" horiz-adv-x="1300" d="M211 725l512 709h131l268 -709h-137l-209 600l-411 -600h-154z" />
<glyph unicode="_" horiz-adv-x="1427" d="M-4 -279l16 103h1104l-16 -103h-1104z" />
<glyph unicode="`" horiz-adv-x="440" d="M264 1493h187l211 -262h-103z" />
<glyph unicode="a" horiz-adv-x="1214" d="M90 354q0 212 62.5 381t177.5 266t262 97q180 0 369 -180l28 157h129l-190 -1075h-129l30 174q-87 -82 -197.5 -139.5t-228.5 -57.5q-61 0 -114.5 20t-99.5 62.5t-72.5 118t-26.5 176.5zM223 367q0 -131 52.5 -206t150.5 -75q114 0 213 57t213 160l88 502 q-166 182 -330 182q-88 0 -162.5 -53t-123 -141t-75 -198.5t-26.5 -227.5z" />
<glyph unicode="b" horiz-adv-x="1212" d="M55 0l264 1493h130l-101 -563q203 168 387 168q68 0 127.5 -20.5t109.5 -63t79.5 -118t29.5 -175.5q0 -212 -59.5 -381t-170.5 -266t-255 -97q-63 0 -122 16t-108.5 46t-83 56t-71.5 61l-27 -156h-129zM231 268q169 -180 347 -180q112 0 198 91.5t129 231.5t43 298 q0 133 -58.5 205.5t-174.5 72.5q-99 0 -189.5 -48t-199.5 -136z" />
<glyph unicode="c" horiz-adv-x="1071" d="M90 424q0 157 47.5 287.5t124.5 213t172 128t193 45.5q60 0 119 -14t112.5 -41.5t82.5 -45.5t72 -48q9 -6 13 -9l-74 -86q-3 2 -29 20t-42.5 28.5t-48.5 28t-59 28t-62 18.5t-68 8q-79 0 -155 -41.5t-134.5 -113t-94.5 -175t-36 -219.5q0 -164 66.5 -255t191.5 -91 q38 0 80.5 9.5t87.5 29t72 32t69 36t44 24.5l55 -104q-2 -1 -41.5 -21t-54.5 -27t-55 -25.5t-66.5 -26.5t-64.5 -19.5t-73.5 -16t-70.5 -4.5q-167 0 -270 120t-103 327z" />
<glyph unicode="d" horiz-adv-x="1212" d="M90 354q0 212 62.5 381t177.5 266t262 97q180 0 369 -180l102 575h129l-264 -1493h-129l30 174q-87 -82 -197.5 -139.5t-228.5 -57.5q-61 0 -114.5 20t-99.5 62.5t-72.5 118t-26.5 176.5zM223 367q0 -131 52.5 -206t150.5 -75q113 0 213 57.5t213 159.5l88 502 q-166 182 -330 182q-88 0 -162.5 -53t-123 -141t-75 -198.5t-26.5 -227.5z" />
<glyph unicode="e" horiz-adv-x="1134" d="M90 444q0 186 74 335t209.5 234t308.5 85q167 0 259.5 -77.5t92.5 -197.5q0 -172 -171.5 -263t-514.5 -91h-127v-31q0 -169 71.5 -261.5t203.5 -92.5q23 0 48 3.5t46.5 7.5t48 13t44.5 15t45 19t40.5 19t39.5 20.5t33.5 18.5t32 18t25.5 15l55 -96q-152 -84 -243 -117 q-123 -43 -228 -43q-180 0 -286.5 120.5t-106.5 346.5zM231 563h131q272 0 406.5 68.5t134.5 191.5q0 80 -63.5 125t-163.5 45q-165 0 -288 -120t-157 -310z" />
<glyph unicode="f" horiz-adv-x="704" d="M-180 -322q66 19 107 34t73.5 38t48.5 39.5t31 57t21 70t18 97.5l168 959h-146l21 102h143l33 180q22 129 77.5 183.5t164.5 54.5q64 0 156.5 -24t148.5 -46l-60 -90q-41 13 -118 30t-115 17q-58 0 -86.5 -33t-40.5 -92l-33 -180h295l-16 -102h-297l-166 -955 q-31 -173 -53 -228q-34 -85 -111 -132q-74 -43 -234 -84z" />
<glyph unicode="g" horiz-adv-x="1212" d="M-8 -365l45 113q249 -78 422 -78q80 0 141.5 23t97.5 62t55.5 79t26.5 84l45 256q-87 -82 -197.5 -139.5t-228.5 -57.5q-61 0 -114.5 20t-99.5 62.5t-72.5 118t-26.5 176.5q0 212 62.5 381t177.5 266t262 97q183 0 366 -183l29 160h129l-205 -1159q-19 -102 -60.5 -173.5 t-102.5 -109.5t-129.5 -54.5t-155.5 -16.5q-102 0 -229.5 20t-237.5 53zM219 367q0 -131 52.5 -206t150.5 -75q112 0 211 57t215 160l88 504q-172 180 -330 180q-88 0 -162.5 -53t-123 -141t-75 -198.5t-26.5 -227.5z" />
<glyph unicode="h" d="M55 0l264 1493h130l-103 -569q93 63 219.5 118.5t243.5 55.5q155 0 219 -93q44 -65 43 -157q0 -41 -8 -86l-135 -762h-127l133 750q7 42 7 76q0 163 -161 163q-106 0 -235 -61.5t-219 -128.5l-142 -799h-129z" />
<glyph unicode="i" horiz-adv-x="481" d="M55 0l191 1075h129l-191 -1075h-129zM279 1309l32 178h146l-33 -178h-145z" />
<glyph unicode="j" horiz-adv-x="487" d="M-219 -322q64 19 107 34t74 34t47.5 33t29 41.5t17 48t12.5 63.5l204 1143h127l-202 -1138q-23 -128 -43 -173q-34 -72 -123 -117q-74 -36 -219 -73zM303 1309l33 178h145l-32 -178h-146z" />
<glyph unicode="k" horiz-adv-x="1032" d="M55 0l264 1493h130l-179 -1010l576 592h158l-443 -438l318 -637h-131l-275 549l-233 -232l-56 -317h-129z" />
<glyph unicode="l" horiz-adv-x="503" d="M68 0l264 1493h127l-264 -1493h-127z" />
<glyph unicode="m" horiz-adv-x="1843" d="M55 0l191 1075h129l-29 -164q222 187 414 187q121 0 183.5 -57.5t72.5 -149.5q38 33 79 63t100.5 65.5t126.5 57t130 21.5q82 0 139 -27t83 -73t35 -106q4 -24 4 -48q0 -39 -9 -80l-135 -764h-129l133 750q9 38 9 72q0 9 -1 19q-3 43 -17.5 76t-50 52.5t-88.5 19.5 q-69 0 -154 -38.5t-145 -82t-116 -94.5l-138 -774h-127l134 750q8 36 8 70q-1 11 -1 21q-4 43 -17.5 76t-49 52.5t-88.5 19.5q-98 0 -206.5 -63.5t-202.5 -147.5l-138 -778h-129z" />
<glyph unicode="n" d="M55 0l191 1075h129l-27 -151q93 63 219 118.5t242 55.5q155 0 219 -93q44 -65 43 -157q0 -41 -8 -86l-135 -762h-127l133 750q7 42 7 76q0 163 -161 163q-106 0 -235 -61.5t-219 -128.5l-142 -799h-129z" />
<glyph unicode="o" horiz-adv-x="1220" d="M88 438q0 184 67.5 334t192 238t283.5 88q222 0 343.5 -122.5t121.5 -338.5q0 -184 -68 -334t-192.5 -238t-282.5 -88q-222 0 -343.5 122.5t-121.5 338.5zM217 438q0 -162 80.5 -257t253.5 -95q124 0 220.5 80t145 204t48.5 267q0 78 -18.5 140.5t-57 110.5t-104 74.5 t-154.5 26.5q-124 0 -220.5 -80t-145 -204t-48.5 -267z" />
<glyph unicode="p" d="M-18 -418l266 1493h127l-27 -143q201 166 385 166q69 0 128.5 -20.5t109.5 -63t79 -117.5t29 -176q0 -212 -59.5 -381t-170.5 -266t-255 -97q-63 0 -121 16t-107.5 45.5t-82.5 55.5t-72 62l-102 -574h-127zM231 270q163 -182 344 -182q113 0 200 92t130 231.5t43 297.5 q0 133 -59 205.5t-176 72.5q-99 0 -189.5 -48.5t-197.5 -135.5z" />
<glyph unicode="q" horiz-adv-x="1214" d="M90 354q0 212 62.5 381t177.5 266t262 97q180 0 369 -180l28 157h129l-264 -1493h-129l104 592q-87 -82 -197.5 -139.5t-228.5 -57.5q-61 0 -114.5 20t-99.5 62.5t-72.5 118t-26.5 176.5zM223 367q0 -131 52.5 -206t150.5 -75q113 0 213 57.5t213 159.5l88 502 q-166 182 -330 182q-88 0 -162.5 -53t-123 -141t-75 -198.5t-26.5 -227.5z" />
<glyph unicode="r" horiz-adv-x="761" d="M55 0l191 1075h129l-41 -231q9 17 26 40.5t58 64t89 71.5q47 31 121 52q57 16 119 16q17 0 35 -1l-22 -122q-70 0 -133.5 -19t-109 -49t-84.5 -66.5t-63.5 -73t-42 -66.5t-25.5 -49l-7 -19l-111 -623h-129z" />
<glyph unicode="s" horiz-adv-x="1026" d="M8 117l72 88q208 -121 375 -121q113 0 197.5 54t84.5 149q0 25 -7.5 47t-17.5 38t-32 32t-37.5 25t-49.5 22t-51.5 19t-58.5 19q-19 6 -28 9q-45 15 -74 26t-69.5 29.5t-66 39.5t-50 50t-36.5 67t-12 83q0 95 54.5 165.5t142 105t193.5 34.5q110 0 219.5 -35.5 t187.5 -81.5l-67 -88q-177 98 -336 98q-112 0 -188.5 -50.5t-76.5 -137.5q0 -21 4 -39t15 -33t20 -26.5t28.5 -23.5t31.5 -19t37.5 -16.5t37.5 -14t41.5 -14t40.5 -13.5q175 -58 255.5 -124.5t80.5 -184.5q0 -101 -58.5 -175t-150 -108.5t-202.5 -34.5q-125 0 -242 42 t-207 98z" />
<glyph unicode="t" horiz-adv-x="739" d="M121 973l20 102h146l47 271l135 40l-55 -311h297l-21 -102h-295l-135 -764q-4 -22 -3 -39q0 -35 14 -53q22 -27 71 -27q61 0 223 62l35 -105q-49 -20 -135.5 -45t-140.5 -25q-46 0 -82 11.5t-67 40.5t-39 77q-4 22 -4 50q0 33 5 73l131 744h-147z" />
<glyph unicode="u" d="M106 313l136 762h127l-131 -749q-8 -45 -9 -81q0 -159 160 -159q106 0 238 62t215 126l143 801h127l-190 -1075h-127l26 152q-90 -63 -217 -119t-246 -56q-156 0 -218 93q-43 64 -43 156q0 41 9 87z" />
<glyph unicode="v" horiz-adv-x="1112" d="M141 1075h133l185 -940l516 940h149l-620 -1075h-129z" />
<glyph unicode="w" horiz-adv-x="1628" d="M154 1075h133l102 -936l442 936h125l103 -940l436 940h141l-524 -1075h-131l-109 918l-442 -918h-131z" />
<glyph unicode="x" horiz-adv-x="1146" d="M-59 0l546 541l-333 534h143l266 -454l426 454h170l-526 -532l358 -543h-145l-285 463l-444 -463h-176z" />
<glyph unicode="y" horiz-adv-x="1107" d="M-33 -315q173 55 247.5 113.5t156.5 201.5l-238 1075h133l191 -919l516 919h145l-618 -1075q-94 -163 -130 -211q-70 -92 -177 -144q-73 -36 -193 -71z" />
<glyph unicode="z" horiz-adv-x="1007" d="M-25 0l19 104l811 861h-637l18 110h801l-18 -104l-807 -860h655l-20 -111h-822z" />
<glyph unicode="{" horiz-adv-x="788" d="M57 647l23 131q54 -1 97 16.5t69 45t44 63.5t25.5 68.5t8.5 64.5l6 193q4 118 34 206t91 152.5t161.5 97.5t239.5 33h45l-16 -100h-37q-83 0 -147.5 -19t-105.5 -51.5t-68.5 -80t-40.5 -98t-17 -112.5l-8 -198q-7 -155 -71.5 -239.5t-192.5 -110.5q104 -27 148.5 -111.5 t-1.5 -235.5l-57 -188q-16 -54 -24.5 -95t-9.5 -85.5t14 -76t44.5 -58t84 -39.5t130.5 -13h37l-18 -100h-35q-254 0 -343 130t-17 364l59 188q43 141 -0.5 199.5t-151.5 58.5z" />
<glyph unicode="|" horiz-adv-x="485" d="M25 -252l340 1927h106l-340 -1927h-106z" />
<glyph unicode="}" horiz-adv-x="782" d="M-92 -293l16 100h37q83 0 147.5 19t105.5 51.5t68.5 80t40.5 98t17 112.5l8 199q7 155 71.5 239.5t192.5 110.5q-49 13 -85 37.5t-60.5 67t-24 101.5t22.5 140l57 188q16 54 24.5 95t9.5 85.5t-14 76t-44.5 58t-84 39.5t-130.5 13h-37l18 100h35q254 0 343 -129.5 t17 -363.5l-59 -189q-43 -141 0.5 -199.5t151.5 -58.5l-23 -131q-54 1 -97 -16.5t-69 -45t-44 -63.5t-25.5 -68.5t-8.5 -64.5l-6 -192q-4 -118 -34 -206t-91 -153t-161.5 -98t-239.5 -33h-45z" />
<glyph unicode="~" horiz-adv-x="1292" d="M76 475q142 219 332 219q68 0 135.5 -24t113 -52.5t104.5 -52.5t113 -24t106.5 30.5t111.5 112.5l98 -43q-143 -217 -334 -217q-68 0 -135.5 23.5t-113.5 52t-105 52t-113 23.5q-53 0 -104.5 -30t-110.5 -113z" />
<glyph unicode="&#xa1;" horiz-adv-x="524" d="M66 0l213 1016h81l-141 -1016h-153zM276 1223l37 211h160l-37 -211h-160z" />
<glyph unicode="&#xa2;" horiz-adv-x="1120" d="M137 604q0 157 47.5 287.5t124.5 213t172 128t193 45.5l28 156h107l-31 -168q21 -5 42 -11.5t38.5 -12.5t38.5 -16t34.5 -17t34 -19t30.5 -18t29 -19.5t25 -17.5t24 -17t20 -14l-72 -86q-3 2 -21.5 15.5t-29 21t-32.5 22t-40 24.5t-41.5 21.5t-48.5 20t-49 14.5 l-156 -878q116 26 297 133l55 -103q-7 -4 -37.5 -20t-46.5 -24l-48 -24t-56.5 -25.5t-56.5 -21t-64 -19.5t-63 -13l-29 -162h-106l26 158q-153 12 -245.5 130.5t-92.5 315.5zM270 616q0 -154 58.5 -244t167.5 -100l157 891q-100 -13 -187 -84.5t-141.5 -194t-54.5 -268.5z " />
<glyph unicode="&#xa3;" horiz-adv-x="1097" d="M14 0l17 98q11 8 30 22.5t70 61.5t92 95.5t81 120t54 139.5h-227l19 100h215q-4 64 -33 136.5t-55.5 145t-26.5 142.5q0 176 120.5 285.5t317.5 109.5q82 0 168 -26t127 -47t115 -65q11 -6 16 -9l-76 -90q-204 120 -344 120q-142 0 -227.5 -83.5t-85.5 -196.5 q0 -71 27 -140.5t56 -140.5t32 -141h338l-19 -100h-328q-11 -60 -40.5 -122t-56 -101.5t-73.5 -89.5t-60.5 -62.5t-49.5 -44.5h667l-20 -117h-840z" />
<glyph unicode="&#xa5;" horiz-adv-x="1312" d="M135 358l19 99h401l20 110l-22 49h-371l15 99h315l-309 719h141l305 -762l572 762h159l-561 -719h316l-19 -99h-373l-34 -45l-21 -114h402l-19 -99h-401l-64 -358h-133l64 358h-402z" />
<glyph unicode="&#xa6;" horiz-adv-x="487" d="M25 -252l149 846h107l-150 -846h-106zM215 829l150 846h106l-149 -846h-107z" />
<glyph unicode="&#xa7;" horiz-adv-x="1093" d="M43 -31l68 88q181 -98 338 -98q113 0 188.5 50t75.5 138q0 19 -4.5 35.5t-10 30t-18 26t-22 21.5t-28 19t-29.5 15.5t-34.5 14.5t-35 12.5t-38 12.5t-36.5 12q-83 27 -138 52.5t-104 61t-72.5 82.5t-23.5 107q0 108 73 178.5t193 98.5q-137 79 -137 225q0 95 55 165.5 t143 105t195 34.5q110 0 219 -35.5t187 -81.5l-68 -88q-179 99 -338 99q-113 0 -188.5 -50.5t-75.5 -138.5q0 -21 4 -39t15 -33t20 -26.5t29 -23t31.5 -18.5t38 -17t38.5 -14t43 -14t41 -13q81 -27 137.5 -53.5t103 -62t69 -82.5t22.5 -106q0 -109 -73 -178.5t-194 -97.5 q140 -79 140 -223q0 -96 -54.5 -167t-142 -105.5t-194.5 -34.5q-110 0 -219 35t-189 81zM248 664q0 -89 98 -142q45 -24 189 -71l24 -9q119 5 200 58.5t81 144.5q0 36 -15 64.5t-36 47.5t-61.5 37.5t-72.5 29.5t-88 29q-7 2 -10 3l-31 8q-118 -5 -198 -58t-80 -142z" />
<glyph unicode="&#xa8;" horiz-adv-x="473" d="M215 1251l31 179h147l-31 -179h-147zM551 1251l33 179h145l-33 -179h-145z" />
<glyph unicode="&#xa9;" horiz-adv-x="1818" d="M143 641q0 131 32.5 251.5t98.5 223t158.5 178.5t219 119t274.5 43q206 0 360.5 -84.5t235 -234.5t80.5 -344q0 -131 -32.5 -251.5t-98.5 -223.5t-158.5 -179t-220 -119t-275.5 -43q-309 0 -491.5 184t-182.5 480zM221 643q0 -172 70 -305t208.5 -210t325.5 -77 q161 0 294.5 59t221.5 160t136.5 235.5t48.5 285.5q0 128 -41.5 236.5t-117.5 187t-191 123t-256 44.5q-161 0 -294 -58.5t-221 -159.5t-136 -235t-48 -286zM494 618q-5 127 26.5 231t89.5 171.5t134.5 104t162.5 36.5q54 0 104.5 -12.5t94.5 -37t69.5 -42.5t59.5 -45 l-53 -59q-27 23 -48.5 38.5t-58 36.5t-79.5 32t-89 11q-143 0 -236.5 -130.5t-86.5 -329.5q5 -127 58 -200t146 -73q153 0 316 115l45 -68q-53 -35 -95 -58t-115 -46t-144 -23q-126 0 -210.5 91.5t-90.5 256.5z" />
<glyph unicode="&#xaa;" horiz-adv-x="884" d="M197 1010q0 190 88 314t225 124q114 0 231 -107l17 93h104l-112 -646h-107l16 99q-126 -113 -260 -113q-85 0 -143.5 57.5t-58.5 178.5zM305 1018q0 -73 31 -115.5t88 -42.5q69 0 126.5 32t127.5 91l49 274q-101 105 -197 105q-68 0 -120.5 -50.5t-78.5 -128t-26 -165.5z " />
<glyph unicode="&#xab;" horiz-adv-x="1370" d="M59 535l15 88l700 460l-26 -147l-562 -371l432 -366l-22 -123zM621 535l14 88l700 460l-26 -147l-561 -371l432 -366l-23 -123z" />
<glyph unicode="&#xac;" horiz-adv-x="1290" d="M66 629l18 106h1161l-96 -551h-121l78 445h-1040z" />
<glyph unicode="&#xad;" horiz-adv-x="970" d="M141 524l19 117h555l-19 -117h-555z" />
<glyph unicode="&#xae;" horiz-adv-x="1112" d="M195 1024q0 91 29 172t82.5 143.5t137 99t185.5 36.5q171 0 271.5 -102t100.5 -267q0 -122 -48.5 -223t-148.5 -164.5t-235 -63.5q-172 0 -273 102t-101 267zM264 1026q0 -134 82.5 -218.5t226.5 -84.5q165 0 264 109.5t99 271.5q0 134 -84 218.5t-229 84.5 q-165 0 -262 -109t-97 -272zM414 864l71 412h183q57 0 91 -30.5t34 -76.5q0 -50 -35 -85t-92 -44l67 -176h-69l-64 174h-88l-31 -174h-67zM522 1102h107q46 0 71 19t25 48q0 45 -59 45h-123z" />
<glyph unicode="&#xaf;" horiz-adv-x="593" d="M233 1282l17 94h584l-17 -94h-584z" />
<glyph unicode="&#xb0;" horiz-adv-x="933" d="M190 1100q0 138 99 236t237 98q137 0 235.5 -98t98.5 -236t-98.5 -237t-235.5 -99q-138 0 -237 99t-99 237zM283 1100q0 -101 71 -172.5t172 -71.5q100 0 171 71.5t71 172.5q0 100 -71 170.5t-171 70.5q-101 0 -172 -70.5t-71 -170.5z" />
<glyph unicode="&#xb1;" horiz-adv-x="1290" d="M25 0l18 100h1010l-19 -100h-1009zM135 625l19 106h446l62 346h110l-61 -346h452l-20 -106h-451l-61 -351h-111l62 351h-447z" />
<glyph unicode="&#xb2;" horiz-adv-x="755" d="M111 788l10 70q6 33 15 62t26.5 55.5t29.5 45t41 42.5t41.5 35.5t51.5 35.5t50.5 30.5l57.5 32.5q8 5 12 7t11 6t12 7q52 30 80 47.5t66.5 45t57.5 48.5t33 48t13 54q-2 49 -42.5 80t-113.5 31q-67 0 -134 -24t-114 -54l-43 78q148 92 299 92q119 0 188.5 -54.5 t69.5 -148.5q0 -45 -20 -87t-48 -73t-77 -66.5t-87.5 -58t-99.5 -56.5q-25 -14 -38 -21q-105 -61 -150 -104.5t-59 -112.5h477l-16 -93h-600z" />
<glyph unicode="&#xb3;" horiz-adv-x="770" d="M109 872l57 74q127 -80 254 -80q106 0 174 51t68 127q0 82 -74 124t-180 42h-43l16 95h47q102 0 184 47.5t82 115.5q0 47 -39.5 75t-105.5 28q-105 0 -236 -72l-39 78q148 86 291 86q112 0 177 -51t65 -129q0 -69 -54 -130t-159 -96q74 -15 126 -75t52 -140 q0 -110 -90.5 -189t-255.5 -79q-73 0 -144.5 20.5t-100.5 36t-72 41.5z" />
<glyph unicode="&#xb4;" horiz-adv-x="440" d="M215 1231l281 262h211l-375 -262h-117z" />
<glyph unicode="&#xb5;" horiz-adv-x="1204" d="M-6 -418l264 1493h127l-131 -749q-45 -240 152 -240q106 0 237.5 62t214.5 126l143 801h127l-190 -1075h-127l27 152q-90 -63 -217 -119t-246 -56q-110 0 -176 50l-78 -445h-127z" />
<glyph unicode="&#xb6;" horiz-adv-x="1247" d="M135 936q0 229 155 363.5t412 134.5h121l-321 -1813h-119l172 961q-198 0 -309 91.5t-111 262.5zM745 -379l322 1813h119l-322 -1813h-119z" />
<glyph unicode="&#xb7;" horiz-adv-x="495" d="M131 475l39 217h160l-37 -217h-162z" />
<glyph unicode="&#xb8;" horiz-adv-x="342" d="M-55 -307l47 84q55 -27 108 -27q55 0 93 30t38 91q0 28 -8 61.5t-16 52.5l-8 19h67q6 -8 15.5 -22.5t25 -56.5t15.5 -81q0 -85 -59 -136.5t-161 -51.5q-90 0 -157 37z" />
<glyph unicode="&#xb9;" horiz-adv-x="485" d="M209 1534l235 115h99l-152 -861h-110l135 748l-170 -82z" />
<glyph unicode="&#xba;" horiz-adv-x="880" d="M193 1057q0 165 97 278t253 113q144 0 223.5 -75t79.5 -208q0 -165 -97 -278t-253 -113q-144 0 -223.5 75t-79.5 208zM299 1055q0 -89 47.5 -142t149.5 -53q110 0 176.5 91.5t66.5 215.5q0 89 -47 142t-149 53q-110 0 -177 -91.5t-67 -215.5z" />
<glyph unicode="&#xbb;" horiz-adv-x="1372" d="M23 72l26 147l561 371l-432 366l23 123l536 -458l-14 -89zM586 72l26 147l562 371l-433 366l23 123l536 -458l-14 -89z" />
<glyph unicode="&#xbc;" horiz-adv-x="1595" d="M172 1319l236 115h98l-152 -861h-110l135 748l-170 -82zM188 0l928 1434h121l-928 -1434h-121zM719 190l12 80l535 590h145l-102 -579h133l-17 -91h-133l-32 -190h-109l33 190h-465zM858 281h342l84 479z" />
<glyph unicode="&#xbd;" horiz-adv-x="1656" d="M172 1319l236 115h98l-152 -861h-110l135 748l-170 -82zM188 0l928 1434h121l-928 -1434h-121zM829 0l11 70q7 43 21.5 80t40 68.5t47 54t62.5 49.5t65 41.5t75 43.5q25 14 37 21q51 30 80 48t66.5 45t57 48t33.5 48.5t13 54.5q-2 49 -42.5 79.5t-113.5 30.5 q-67 0 -134.5 -23.5t-113.5 -53.5l-43 77q148 92 299 92q119 0 188.5 -54t69.5 -148q0 -38 -12 -72.5t-38.5 -66t-53 -56.5t-71 -53.5t-76.5 -47t-83 -47.5q-24 -13 -36 -20q-105 -61 -150 -104.5t-59 -112.5h477l-16 -92h-601z" />
<glyph unicode="&#xbe;" horiz-adv-x="1835" d="M90 657l57 74q127 -80 254 -80q106 0 174 51t68 127q0 82 -74 124t-180 42h-43l16 95h48q102 0 184 47.5t82 115.5q0 47 -40 75t-106 28q-104 0 -235 -72l-39 78q148 86 291 86q112 0 176.5 -51t64.5 -129q0 -69 -54 -130t-159 -96q74 -16 126.5 -76t52.5 -139 q0 -110 -90.5 -189t-255.5 -79q-73 0 -144.5 20.5t-101.5 36t-72 41.5zM446 0l928 1434h121l-928 -1434h-121zM975 190l12 80l535 590h145l-102 -579h133l-17 -91h-133l-32 -190h-109l33 190h-465zM1114 281h342l84 479z" />
<glyph unicode="&#xbf;" horiz-adv-x="999" d="M31 281q0 90 41.5 165t115 128.5t161.5 91t194 61.5l63 289h101l-50 -369q-493 -104 -493 -358q0 -99 68 -147t176 -48q95 0 182 32.5t201 94.5l57 -98q-239 -146 -449 -146q-72 0 -135.5 17.5t-117 52.5t-84.5 95.5t-31 138.5zM614 1223l39 211h158l-37 -211h-160z" />
<glyph unicode="&#xc0;" horiz-adv-x="1366" d="M-51 0l805 1434h147l301 -1434h-139l-72 373h-684l-203 -373h-155zM369 487h600l-158 816zM594 1802h186l211 -262h-102z" />
<glyph unicode="&#xc1;" horiz-adv-x="1366" d="M-51 0l805 1434h147l301 -1434h-139l-72 373h-684l-203 -373h-155zM369 487h600l-158 816zM707 1540l280 262h211l-375 -262h-116z" />
<glyph unicode="&#xc2;" horiz-adv-x="1366" d="M-51 0l805 1434h147l301 -1434h-139l-72 373h-684l-203 -373h-155zM369 487h600l-158 816zM569 1540l242 262h166l153 -262h-94l-147 184l-211 -184h-109z" />
<glyph unicode="&#xc3;" horiz-adv-x="1366" d="M-51 0l805 1434h147l301 -1434h-139l-72 373h-684l-203 -373h-155zM369 487h600l-158 816zM565 1610q52 78 92.5 111.5t96.5 33.5q36 0 71.5 -15.5t59 -34.5t51.5 -34.5t51 -15.5q24 0 49 18.5t66 75.5l74 -45q-56 -80 -95 -112.5t-96 -32.5q-44 0 -87 25t-79.5 50 t-64.5 25q-25 0 -50 -17.5t-67 -74.5z" />
<glyph unicode="&#xc4;" horiz-adv-x="1366" d="M-51 0l805 1434h147l301 -1434h-139l-72 373h-684l-203 -373h-155zM369 487h600l-158 816zM610 1561l31 178h147l-30 -178h-148zM946 1561l33 178h145l-32 -178h-146z" />
<glyph unicode="&#xc5;" horiz-adv-x="1366" d="M-51 0l805 1434h147l301 -1434h-139l-72 373h-684l-203 -373h-155zM369 487h600l-158 816zM674 1726q0 88 60.5 148.5t146.5 60.5q87 0 148 -61t61 -148q0 -86 -61 -146t-148 -60q-86 0 -146.5 60t-60.5 146zM758 1726q0 -52 35 -87t88 -35t89 35t36 87q0 54 -36 90.5 t-89 36.5q-52 0 -87.5 -36.5t-35.5 -90.5z" />
<glyph unicode="&#xc6;" horiz-adv-x="1986" d="M-119 0l1235 1434h897l-20 -117h-736l-94 -543h609l-21 -115h-608l-99 -542h750l-20 -117h-883l65 373h-585l-314 -373h-176zM467 487h510l135 766z" />
<glyph unicode="&#xc7;" horiz-adv-x="1298" d="M135 561q0 202 56.5 372.5t151.5 283.5t220 176t262 63q77 0 148 -18t139 -56.5t108.5 -66.5t106.5 -80l-84 -90q-120 97 -214 143.5t-195 46.5q-113 0 -215.5 -58t-178.5 -158t-121 -244.5t-45 -309.5q0 -237 87.5 -352t228.5 -115q102 0 230.5 54.5t254.5 138.5 l66 -105q-297 -185 -514 -204q41 -74 41 -138q0 -86 -58.5 -137t-160.5 -51q-91 0 -158 37l47 84q55 -27 108 -27q55 0 93.5 30t38.5 91q0 49 -23 106q-90 3 -164 37t-132.5 102t-91 181t-32.5 264z" />
<glyph unicode="&#xc8;" horiz-adv-x="1191" d="M82 0l254 1434h868l-20 -117h-735l-95 -543h609l-21 -115h-608l-98 -542h749l-20 -117h-883zM541 1802h186l211 -262h-102z" />
<glyph unicode="&#xc9;" horiz-adv-x="1191" d="M82 0l254 1434h868l-20 -117h-735l-95 -543h609l-21 -115h-608l-98 -542h749l-20 -117h-883zM651 1540l281 262h211l-375 -262h-117z" />
<glyph unicode="&#xca;" horiz-adv-x="1191" d="M82 0l254 1434h868l-20 -117h-735l-95 -543h609l-21 -115h-608l-98 -542h749l-20 -117h-883zM514 1540l242 262h166l153 -262h-94l-147 184l-211 -184h-109z" />
<glyph unicode="&#xcb;" horiz-adv-x="1191" d="M82 0l254 1434h868l-20 -117h-735l-95 -543h609l-21 -115h-608l-98 -542h749l-20 -117h-883zM559 1561l31 178h147l-30 -178h-148zM895 1561l33 178h145l-33 -178h-145z" />
<glyph unicode="&#xcc;" horiz-adv-x="544" d="M82 0l254 1434h133l-254 -1434h-133zM170 1802h186l211 -262h-102z" />
<glyph unicode="&#xcd;" horiz-adv-x="552" d="M82 0l254 1434h133l-254 -1434h-133zM279 1540l280 262h211l-375 -262h-116z" />
<glyph unicode="&#xce;" horiz-adv-x="550" d="M82 0l254 1434h133l-254 -1434h-133zM143 1540l242 262h166l154 -262h-95l-147 184l-211 -184h-109z" />
<glyph unicode="&#xcf;" horiz-adv-x="550" d="M82 0l254 1434h133l-254 -1434h-133zM186 1561l31 178h148l-31 -178h-148zM522 1561l33 178h145l-32 -178h-146z" />
<glyph unicode="&#xd0;" horiz-adv-x="1429" d="M66 659l20 115h150l116 660h357q185 0 319.5 -56t212.5 -177.5t78 -299.5q0 -262 -100.5 -466t-289 -319.5t-435.5 -115.5h-396l117 659h-149zM252 117h225q153 0 281.5 52.5t223 150.5t147.5 246.5t53 332.5q0 220 -130 319t-372 99h-215l-96 -543h358l-20 -115h-359z " />
<glyph unicode="&#xd1;" horiz-adv-x="1456" d="M82 0l254 1434h139l561 -1248l221 1248h134l-254 -1434h-138l-563 1253l-221 -1253h-133zM612 1610q52 78 92.5 111.5t96.5 33.5q36 0 71.5 -15.5t59 -34.5t51.5 -34.5t51 -15.5q24 0 49 18.5t66 75.5l74 -45q-56 -80 -95 -112.5t-96 -32.5q-44 0 -87 25t-79.5 50 t-64.5 25q-25 0 -50 -17.5t-67 -74.5z" />
<glyph unicode="&#xd2;" horiz-adv-x="1495" d="M131 575q-1 95 17.5 194.5t55 198.5t96 186.5t135.5 155t179.5 107t221.5 39.5q120 0 215 -30.5t159 -83.5t106.5 -129.5t61 -164.5t19.5 -192q1 -94 -17.5 -193t-55 -198.5t-96 -186.5t-135.5 -154.5t-180 -107t-223 -39.5q-149 0 -259 45.5t-174 128.5t-94.5 188 t-31.5 236zM268 573q0 -479 420 -479q97 0 181.5 36t145.5 97t109 138.5t77 164t44 169.5t15 159q0 479 -420 479q-97 0 -181.5 -36t-145.5 -97t-109 -138.5t-77 -164t-44 -169.5t-15 -159zM655 1802h187l211 -262h-103z" />
<glyph unicode="&#xd3;" horiz-adv-x="1495" d="M131 575q-1 95 17.5 194.5t55 198.5t96 186.5t135.5 155t179.5 107t221.5 39.5q120 0 215 -30.5t159 -83.5t106.5 -129.5t61 -164.5t19.5 -192q1 -94 -17.5 -193t-55 -198.5t-96 -186.5t-135.5 -154.5t-180 -107t-223 -39.5q-149 0 -259 45.5t-174 128.5t-94.5 188 t-31.5 236zM268 573q0 -479 420 -479q97 0 181.5 36t145.5 97t109 138.5t77 164t44 169.5t15 159q0 479 -420 479q-97 0 -181.5 -36t-145.5 -97t-109 -138.5t-77 -164t-44 -169.5t-15 -159zM766 1540l281 262h210l-374 -262h-117z" />
<glyph unicode="&#xd4;" horiz-adv-x="1495" d="M131 575q-1 95 17.5 194.5t55 198.5t96 186.5t135.5 155t179.5 107t221.5 39.5q120 0 215 -30.5t159 -83.5t106.5 -129.5t61 -164.5t19.5 -192q1 -94 -17.5 -193t-55 -198.5t-96 -186.5t-135.5 -154.5t-180 -107t-223 -39.5q-149 0 -259 45.5t-174 128.5t-94.5 188 t-31.5 236zM268 573q0 -479 420 -479q97 0 181.5 36t145.5 97t109 138.5t77 164t44 169.5t15 159q0 479 -420 479q-97 0 -181.5 -36t-145.5 -97t-109 -138.5t-77 -164t-44 -169.5t-15 -159zM631 1540l241 262h166l154 -262h-94l-148 184l-211 -184h-108z" />
<glyph unicode="&#xd5;" horiz-adv-x="1497" d="M131 575q-1 95 17.5 194.5t55 198.5t96 186.5t135.5 155t179.5 107t221.5 39.5q120 0 215 -30.5t159 -83.5t106.5 -129.5t61 -164.5t19.5 -192q1 -94 -17.5 -193t-55 -198.5t-96 -186.5t-135.5 -154.5t-180 -107t-223 -39.5q-149 0 -259 45.5t-174 128.5t-94.5 188 t-31.5 236zM268 573q0 -479 420 -479q97 0 181.5 36t145.5 97t109 138.5t77 164t44 169.5t15 159q0 479 -420 479q-97 0 -181.5 -36t-145.5 -97t-109 -138.5t-77 -164t-44 -169.5t-15 -159zM623 1610q52 78 92 111.5t96 33.5q36 0 71.5 -15.5t59 -34.5t51.5 -34.5t51 -15.5 q24 0 49 18.5t66 75.5l74 -45q-56 -80 -95 -112.5t-96 -32.5q-44 0 -87 25t-79.5 50t-64.5 25q-25 0 -50 -17.5t-67 -74.5z" />
<glyph unicode="&#xd6;" horiz-adv-x="1495" d="M131 575q-1 95 17.5 194.5t55 198.5t96 186.5t135.5 155t179.5 107t221.5 39.5q120 0 215 -30.5t159 -83.5t106.5 -129.5t61 -164.5t19.5 -192q1 -94 -17.5 -193t-55 -198.5t-96 -186.5t-135.5 -154.5t-180 -107t-223 -39.5q-149 0 -259 45.5t-174 128.5t-94.5 188 t-31.5 236zM268 573q0 -479 420 -479q97 0 181.5 36t145.5 97t109 138.5t77 164t44 169.5t15 159q0 479 -420 479q-97 0 -181.5 -36t-145.5 -97t-109 -138.5t-77 -164t-44 -169.5t-15 -159zM672 1561l30 178h148l-31 -178h-147zM1008 1561l32 178h146l-33 -178h-145z" />
<glyph unicode="&#xd7;" horiz-adv-x="1302" d="M205 403l364 285l-264 287l84 69l268 -288l373 291l68 -80l-369 -289l264 -285l-84 -69l-268 286l-367 -286z" />
<glyph unicode="&#xd8;" horiz-adv-x="1484" d="M45 0l174 193q-96 144 -96 382q0 81 12.5 165.5t40.5 171t69 166t99.5 148.5t128.5 120t161 80.5t193 29.5q264 0 404 -143l108 121h125l-174 -193q96 -146 99 -385q1 -94 -17.5 -193t-55 -198.5t-96 -186.5t-135.5 -154.5t-180 -107t-223 -39.5q-261 0 -403 142 l-107 -119h-127zM260 573q0 -171 51 -278l834 924q-103 118 -314 118q-115 0 -212.5 -51.5t-162 -133t-110 -184t-66 -203t-20.5 -192.5zM365 213q104 -119 315 -119q115 0 212.5 51.5t162 133t110 184t66 203t20.5 192.5q0 170 -53 281z" />
<glyph unicode="&#xd9;" horiz-adv-x="1406" d="M166 514l164 920h133l-164 -928q-13 -73 -15 -130.5t12.5 -111.5t48 -89.5t95.5 -57t150 -21.5q395 0 469 410l164 928h133l-166 -936q-93 -521 -600 -521q-517 0 -424 537zM610 1802h187l211 -262h-103z" />
<glyph unicode="&#xda;" horiz-adv-x="1406" d="M166 514l164 920h133l-164 -928q-13 -73 -15 -130.5t12.5 -111.5t48 -89.5t95.5 -57t150 -21.5q395 0 469 410l164 928h133l-166 -936q-93 -521 -600 -521q-517 0 -424 537zM719 1540l280 262h211l-374 -262h-117z" />
<glyph unicode="&#xdb;" horiz-adv-x="1406" d="M166 514l164 920h133l-164 -928q-13 -73 -15 -130.5t12.5 -111.5t48 -89.5t95.5 -57t150 -21.5q395 0 469 410l164 928h133l-166 -936q-93 -521 -600 -521q-517 0 -424 537zM584 1540l241 262h166l154 -262h-94l-148 184l-211 -184h-108z" />
<glyph unicode="&#xdc;" horiz-adv-x="1406" d="M166 514l164 920h133l-164 -928q-13 -73 -15 -130.5t12.5 -111.5t48 -89.5t95.5 -57t150 -21.5q395 0 469 410l164 928h133l-166 -936q-93 -521 -600 -521q-517 0 -424 537zM625 1561l30 178h148l-31 -178h-147zM961 1561l32 178h146l-33 -178h-145z" />
<glyph unicode="&#xdd;" horiz-adv-x="1261" d="M182 1434h142l305 -762l571 762h160l-672 -863l-102 -571h-133l102 567zM647 1540l281 262h211l-375 -262h-117z" />
<glyph unicode="&#xde;" horiz-adv-x="1310" d="M82 0l254 1434h133l-45 -265h334q102 0 184 -20t147 -62.5t100.5 -115.5t35.5 -172q0 -120 -44.5 -214.5t-124.5 -154t-187 -90.5t-234 -31h-363l-57 -309h-133zM293 426h342q93 0 173 22t143.5 66t99.5 117t36 168q0 132 -88 193t-237 61h-359z" />
<glyph unicode="&#xdf;" horiz-adv-x="1263" d="M61 0l181 1016q85 481 503 481q178 0 288 -79.5t110 -215.5q0 -39 -9.5 -75t-22.5 -59t-26 -41t-23 -26l-9 -8q-38 -11 -66 -21t-67.5 -29.5t-65 -41.5t-44.5 -55t-19 -72q0 -14 2 -26.5t8 -25t10.5 -21.5t16 -22t18 -20t23 -21.5t25 -21.5t29.5 -24t31 -25 q45 -37 70 -60.5t53 -59t40.5 -74.5t12.5 -86q0 -95 -53 -167t-135.5 -107.5t-179.5 -35.5q-173 0 -375 117l72 88q65 -40 148.5 -70t154.5 -30q97 0 168 56.5t71 148.5q0 58 -33.5 100t-115.5 105q-89 68 -116 97q-72 76 -72 175q0 55 21 100.5t51 75.5t76 57t82 42t84 33 l9 3q33 64 33 119q0 91 -71.5 143t-194.5 52q-319 0 -385 -379l-179 -1010h-129z" />
<glyph unicode="&#xe0;" horiz-adv-x="1214" d="M90 354q0 212 62.5 381t177.5 266t262 97q180 0 369 -180l28 157h129l-190 -1075h-129l30 174q-87 -82 -197.5 -139.5t-228.5 -57.5q-61 0 -114.5 20t-99.5 62.5t-72.5 118t-26.5 176.5zM223 367q0 -131 52.5 -206t150.5 -75q114 0 213 57t213 160l88 502 q-166 182 -330 182q-88 0 -162.5 -53t-123 -141t-75 -198.5t-26.5 -227.5zM481 1493h187l211 -262h-103z" />
<glyph unicode="&#xe1;" horiz-adv-x="1214" d="M90 354q0 212 62.5 381t177.5 266t262 97q180 0 369 -180l28 157h129l-190 -1075h-129l30 174q-87 -82 -197.5 -139.5t-228.5 -57.5q-61 0 -114.5 20t-99.5 62.5t-72.5 118t-26.5 176.5zM223 367q0 -131 52.5 -206t150.5 -75q114 0 213 57t213 160l88 502 q-166 182 -330 182q-88 0 -162.5 -53t-123 -141t-75 -198.5t-26.5 -227.5zM547 1231l280 262h211l-374 -262h-117z" />
<glyph unicode="&#xe2;" horiz-adv-x="1214" d="M90 354q0 212 62.5 381t177.5 266t262 97q180 0 369 -180l28 157h129l-190 -1075h-129l30 174q-87 -82 -197.5 -139.5t-228.5 -57.5q-61 0 -114.5 20t-99.5 62.5t-72.5 118t-26.5 176.5zM223 367q0 -131 52.5 -206t150.5 -75q114 0 213 57t213 160l88 502 q-166 182 -330 182q-88 0 -162.5 -53t-123 -141t-75 -198.5t-26.5 -227.5zM453 1231l241 262h166l154 -262h-94l-148 184l-211 -184h-108z" />
<glyph unicode="&#xe3;" horiz-adv-x="1214" d="M90 354q0 212 62.5 381t177.5 266t262 97q180 0 369 -180l28 157h129l-190 -1075h-129l30 174q-87 -82 -197.5 -139.5t-228.5 -57.5q-61 0 -114.5 20t-99.5 62.5t-72.5 118t-26.5 176.5zM223 367q0 -131 52.5 -206t150.5 -75q114 0 213 57t213 160l88 502 q-166 182 -330 182q-88 0 -162.5 -53t-123 -141t-75 -198.5t-26.5 -227.5zM451 1300q53 78 92.5 112t95.5 34q36 0 71.5 -15.5t59 -34.5t51.5 -34.5t51 -15.5q24 0 49 18.5t66 75.5l74 -45q-56 -80 -95 -113t-96 -33q-35 0 -70 16t-58.5 34.5t-51.5 34.5t-51 16 q-25 0 -50 -18t-67 -75z" />
<glyph unicode="&#xe4;" horiz-adv-x="1214" d="M90 354q0 212 62.5 381t177.5 266t262 97q180 0 369 -180l28 157h129l-190 -1075h-129l30 174q-87 -82 -197.5 -139.5t-228.5 -57.5q-61 0 -114.5 20t-99.5 62.5t-72.5 118t-26.5 176.5zM223 367q0 -131 52.5 -206t150.5 -75q114 0 213 57t213 160l88 502 q-166 182 -330 182q-88 0 -162.5 -53t-123 -141t-75 -198.5t-26.5 -227.5zM498 1251l30 179h148l-31 -179h-147zM834 1251l32 179h146l-33 -179h-145z" />
<glyph unicode="&#xe5;" horiz-adv-x="1214" d="M90 354q0 212 62.5 381t177.5 266t262 97q180 0 369 -180l28 157h129l-190 -1075h-129l30 174q-87 -82 -197.5 -139.5t-228.5 -57.5q-61 0 -114.5 20t-99.5 62.5t-72.5 118t-26.5 176.5zM223 367q0 -131 52.5 -206t150.5 -75q114 0 213 57t213 160l88 502 q-166 182 -330 182q-88 0 -162.5 -53t-123 -141t-75 -198.5t-26.5 -227.5zM561 1417q0 88 60.5 148.5t146.5 60.5q87 0 148 -61t61 -148q0 -86 -61.5 -146.5t-147.5 -60.5t-146.5 60.5t-60.5 146.5zM645 1417q0 -53 35.5 -88t87.5 -35q53 0 89 35.5t36 87.5q0 54 -36 90.5 t-89 36.5q-52 0 -87.5 -36.5t-35.5 -90.5z" />
<glyph unicode="&#xe6;" horiz-adv-x="1886" d="M90 354q0 212 62.5 381t177.5 266t262 97q180 0 369 -180l28 157h129l-14 -80q144 103 334 103q167 0 259.5 -77.5t92.5 -197.5q0 -172 -171.5 -263t-514.5 -91h-127v-31q0 -169 71 -261.5t203 -92.5q52 0 107.5 13t115 40.5t86.5 42t79 44.5l6 3t5 3t5 3l55 -96 q-152 -84 -243 -117q-123 -43 -228 -43q-190 0 -293 127l-18 -104h-129l30 174q-87 -82 -197.5 -139.5t-228.5 -57.5q-61 0 -114.5 20t-99.5 62.5t-72.5 118t-26.5 176.5zM223 367q0 -131 52.5 -206t150.5 -75q114 0 213 57t213 160l2 19q-8 49 -8 122q0 209 90 365 q-166 178 -326 178q-88 0 -162.5 -53t-123 -141t-75 -198.5t-26.5 -227.5zM987 563h131q272 0 406.5 68.5t134.5 191.5q0 80 -63.5 125t-163.5 45q-165 0 -288 -120t-157 -310z" />
<glyph unicode="&#xe7;" horiz-adv-x="1071" d="M90 424q0 157 47.5 287.5t124.5 213t172 128t193 45.5q60 0 119 -14t112.5 -41.5t82.5 -45.5t72 -48q9 -6 13 -9l-74 -86q-3 2 -29 20t-42.5 28.5t-48.5 28t-59 28t-62 18.5t-68 8q-79 0 -155 -41.5t-134.5 -113t-94.5 -175t-36 -219.5q0 -164 66.5 -255t191.5 -91 q38 0 80.5 9.5t87.5 29t72 32t69 36t44 24.5l55 -104q-5 -3 -34.5 -17.5t-42 -21t-44 -21t-51 -22t-51 -19t-57 -17.5t-56 -11.5t-59.5 -7.5q38 -69 38 -136q0 -86 -58.5 -137t-160.5 -51q-90 0 -157 37l47 84q55 -27 108 -27q55 0 93 30t38 91q0 40 -22 109 q-150 15 -240 133t-90 311z" />
<glyph unicode="&#xe8;" horiz-adv-x="1134" d="M90 444q0 186 74 335t209.5 234t308.5 85q167 0 259.5 -77.5t92.5 -197.5q0 -172 -171.5 -263t-514.5 -91h-127v-31q0 -169 71.5 -261.5t203.5 -92.5q23 0 48 3.5t46.5 7.5t48 13t44.5 15t45 19t40.5 19t39.5 20.5t33.5 18.5t32 18t25.5 15l55 -96q-152 -84 -243 -117 q-123 -43 -228 -43q-180 0 -286.5 120.5t-106.5 346.5zM231 563h131q272 0 406.5 68.5t134.5 191.5q0 80 -63.5 125t-163.5 45q-165 0 -288 -120t-157 -310zM455 1493h186l211 -262h-102z" />
<glyph unicode="&#xe9;" horiz-adv-x="1134" d="M90 444q0 186 74 335t209.5 234t308.5 85q167 0 259.5 -77.5t92.5 -197.5q0 -172 -171.5 -263t-514.5 -91h-127v-31q0 -169 71.5 -261.5t203.5 -92.5q23 0 48 3.5t46.5 7.5t48 13t44.5 15t45 19t40.5 19t39.5 20.5t33.5 18.5t32 18t25.5 15l55 -96q-152 -84 -243 -117 q-123 -43 -228 -43q-180 0 -286.5 120.5t-106.5 346.5zM231 563h131q272 0 406.5 68.5t134.5 191.5q0 80 -63.5 125t-163.5 45q-165 0 -288 -120t-157 -310zM565 1231l281 262h211l-375 -262h-117z" />
<glyph unicode="&#xea;" horiz-adv-x="1134" d="M90 444q0 186 74 335t209.5 234t308.5 85q167 0 259.5 -77.5t92.5 -197.5q0 -172 -171.5 -263t-514.5 -91h-127v-31q0 -169 71.5 -261.5t203.5 -92.5q23 0 48 3.5t46.5 7.5t48 13t44.5 15t45 19t40.5 19t39.5 20.5t33.5 18.5t32 18t25.5 15l55 -96q-152 -84 -243 -117 q-123 -43 -228 -43q-180 0 -286.5 120.5t-106.5 346.5zM231 563h131q272 0 406.5 68.5t134.5 191.5q0 80 -63.5 125t-163.5 45q-165 0 -288 -120t-157 -310zM428 1231l242 262h166l153 -262h-94l-147 184l-211 -184h-109z" />
<glyph unicode="&#xeb;" horiz-adv-x="1134" d="M90 444q0 186 74 335t209.5 234t308.5 85q167 0 259.5 -77.5t92.5 -197.5q0 -172 -171.5 -263t-514.5 -91h-127v-31q0 -169 71.5 -261.5t203.5 -92.5q23 0 48 3.5t46.5 7.5t48 13t44.5 15t45 19t40.5 19t39.5 20.5t33.5 18.5t32 18t25.5 15l55 -96q-152 -84 -243 -117 q-123 -43 -228 -43q-180 0 -286.5 120.5t-106.5 346.5zM231 563h131q272 0 406.5 68.5t134.5 191.5q0 80 -63.5 125t-163.5 45q-165 0 -288 -120t-157 -310zM471 1251l31 179h147l-31 -179h-147zM807 1251l33 179h145l-33 -179h-145z" />
<glyph unicode="&#xec;" horiz-adv-x="481" d="M55 0l191 1075h129l-191 -1075h-129zM86 1493h186l211 -262h-102z" />
<glyph unicode="&#xed;" horiz-adv-x="487" d="M55 0l191 1075h129l-191 -1075h-129zM195 1231l280 262h211l-375 -262h-116z" />
<glyph unicode="&#xee;" horiz-adv-x="485" d="M55 0l191 1075h129l-191 -1075h-129zM59 1231l242 262h166l154 -262h-95l-147 184l-211 -184h-109z" />
<glyph unicode="&#xef;" horiz-adv-x="485" d="M55 0l191 1075h129l-191 -1075h-129zM100 1251l31 179h148l-31 -179h-148zM436 1251l33 179h145l-32 -179h-146z" />
<glyph unicode="&#xf0;" horiz-adv-x="1239" d="M82 408q0 157 71 287t196 205t278 75q56 0 106 -11t85.5 -28t65.5 -38.5t49 -42.5t32 -38t19 -28l5 -11q-2 74 -17.5 145t-44.5 138t-77.5 123t-110.5 90l-157 -107h-162l215 146q-46 12 -103 12q-38 0 -77.5 -4.5t-59.5 -8.5l-20 -5l-8 108q76 19 170 19q116 0 219 -39 l145 98h160l-215 -147q127 -86 195.5 -247t68.5 -386q0 -341 -160.5 -538.5t-427.5 -197.5q-202 0 -321 112t-119 319zM215 399q0 -142 73.5 -227.5t231.5 -85.5q91 0 166 30t124.5 78.5t83.5 111.5t49 126.5t15 126.5q0 143 -80 225t-231 82q-102 0 -185.5 -39 t-136.5 -104.5t-81.5 -149t-28.5 -174.5z" />
<glyph unicode="&#xf1;" d="M55 0l191 1075h129l-27 -151q93 63 219 118.5t242 55.5q155 0 218.5 -93t35.5 -243l-135 -762h-127l133 750q41 239 -154 239q-106 0 -235 -61.5t-219 -128.5l-142 -799h-129zM426 1300q53 78 92.5 112t95.5 34q45 0 88.5 -25t80.5 -50t65 -25q24 0 49 18.5t66 75.5 l73 -45q-57 -81 -95 -113.5t-95 -32.5q-44 0 -87.5 25.5t-80 50.5t-64.5 25q-24 0 -49 -18t-67 -75z" />
<glyph unicode="&#xf2;" horiz-adv-x="1220" d="M88 438q0 184 67.5 334t192 238t283.5 88q222 0 343.5 -122.5t121.5 -338.5q0 -184 -68 -334t-192.5 -238t-282.5 -88q-222 0 -343.5 122.5t-121.5 338.5zM217 438q0 -162 80.5 -257t253.5 -95q124 0 220.5 80t145 204t48.5 267q0 78 -18.5 140.5t-57 110.5t-104 74.5 t-154.5 26.5q-124 0 -220.5 -80t-145 -204t-48.5 -267zM463 1493h186l211 -262h-102z" />
<glyph unicode="&#xf3;" horiz-adv-x="1220" d="M88 438q0 184 67.5 334t192 238t283.5 88q222 0 343.5 -122.5t121.5 -338.5q0 -184 -68 -334t-192.5 -238t-282.5 -88q-222 0 -343.5 122.5t-121.5 338.5zM217 438q0 -162 80.5 -257t253.5 -95q124 0 220.5 80t145 204t48.5 267q0 78 -18.5 140.5t-57 110.5t-104 74.5 t-154.5 26.5q-124 0 -220.5 -80t-145 -204t-48.5 -267zM571 1231l281 262h211l-375 -262h-117z" />
<glyph unicode="&#xf4;" horiz-adv-x="1220" d="M88 438q0 184 67.5 334t192 238t283.5 88q222 0 343.5 -122.5t121.5 -338.5q0 -184 -68 -334t-192.5 -238t-282.5 -88q-222 0 -343.5 122.5t-121.5 338.5zM217 438q0 -162 80.5 -257t253.5 -95q124 0 220.5 80t145 204t48.5 267q0 78 -18.5 140.5t-57 110.5t-104 74.5 t-154.5 26.5q-124 0 -220.5 -80t-145 -204t-48.5 -267zM436 1231l242 262h166l153 -262h-94l-147 184l-211 -184h-109z" />
<glyph unicode="&#xf5;" horiz-adv-x="1220" d="M88 438q0 184 67.5 334t192 238t283.5 88q222 0 343.5 -122.5t121.5 -338.5q0 -184 -68 -334t-192.5 -238t-282.5 -88q-222 0 -343.5 122.5t-121.5 338.5zM217 438q0 -162 80.5 -257t253.5 -95q124 0 220.5 80t145 204t48.5 267q0 78 -18.5 140.5t-57 110.5t-104 74.5 t-154.5 26.5q-124 0 -220.5 -80t-145 -204t-48.5 -267zM428 1300q53 78 92.5 112t95.5 34q45 0 88.5 -25t80.5 -50t65 -25q24 0 49 18.5t66 75.5l73 -45q-57 -81 -95 -113.5t-95 -32.5q-44 0 -87.5 25.5t-80 50.5t-64.5 25q-24 0 -49 -18t-67 -75z" />
<glyph unicode="&#xf6;" horiz-adv-x="1220" d="M88 438q0 184 67.5 334t192 238t283.5 88q222 0 343.5 -122.5t121.5 -338.5q0 -184 -68 -334t-192.5 -238t-282.5 -88q-222 0 -343.5 122.5t-121.5 338.5zM217 438q0 -162 80.5 -257t253.5 -95q124 0 220.5 80t145 204t48.5 267q0 78 -18.5 140.5t-57 110.5t-104 74.5 t-154.5 26.5q-124 0 -220.5 -80t-145 -204t-48.5 -267zM479 1251l31 179h147l-30 -179h-148zM815 1251l33 179h145l-32 -179h-146z" />
<glyph unicode="&#xf7;" horiz-adv-x="1294" d="M141 629l19 106h1009l-18 -106h-1010zM485 334q0 45 32 77.5t77 32.5q46 0 78.5 -33t32.5 -77q0 -46 -32.5 -78.5t-78.5 -32.5t-77.5 32.5t-31.5 78.5zM606 1032q0 44 32.5 77.5t76.5 33.5q45 0 77.5 -33t32.5 -78q0 -46 -32 -78t-78 -32q-45 0 -77 32t-32 78z" />
<glyph unicode="&#xf8;" horiz-adv-x="1216" d="M29 0l135 145q-82 113 -82 293q0 184 67.5 334t192 238t283.5 88q203 0 323 -105l78 82h121l-139 -149q82 -118 82 -289q0 -184 -68 -334t-192.5 -238t-282.5 -88q-202 0 -324 103l-73 -80h-121zM211 438q0 -119 39 -198l616 665q-87 84 -241 84q-124 0 -220.5 -80 t-145 -204t-48.5 -267zM303 168q82 -82 242 -82q124 0 220 80t144.5 204t48.5 267q0 117 -38 194z" />
<glyph unicode="&#xf9;" d="M106 313l136 762h127l-131 -749q-45 -240 151 -240q106 0 238 62t215 126l143 801h127l-190 -1075h-127l26 152q-90 -63 -217 -119t-246 -56q-155 0 -217.5 93t-34.5 243zM451 1493h186l211 -262h-103z" />
<glyph unicode="&#xfa;" d="M106 313l136 762h127l-131 -749q-45 -240 151 -240q106 0 238 62t215 126l143 801h127l-190 -1075h-127l26 152q-90 -63 -217 -119t-246 -56q-155 0 -217.5 93t-34.5 243zM559 1231l281 262h211l-375 -262h-117z" />
<glyph unicode="&#xfb;" d="M106 313l136 762h127l-131 -749q-45 -240 151 -240q106 0 238 62t215 126l143 801h127l-190 -1075h-127l26 152q-90 -63 -217 -119t-246 -56q-155 0 -217.5 93t-34.5 243zM424 1231l242 262h165l154 -262h-94l-148 184l-211 -184h-108z" />
<glyph unicode="&#xfc;" d="M106 313l136 762h127l-131 -749q-45 -240 151 -240q106 0 238 62t215 126l143 801h127l-190 -1075h-127l26 152q-90 -63 -217 -119t-246 -56q-155 0 -217.5 93t-34.5 243zM467 1251l31 179h147l-31 -179h-147zM803 1251l33 179h145l-33 -179h-145z" />
<glyph unicode="&#xfd;" horiz-adv-x="1107" d="M-33 -315q173 55 247.5 113.5t156.5 201.5l-238 1075h133l191 -919l516 919h145l-618 -1075q-94 -163 -130 -211q-70 -92 -177 -144q-73 -36 -193 -71zM512 1231l281 262h211l-375 -262h-117z" />
<glyph unicode="&#xfe;" d="M-18 -418l337 1911h127l-100 -563q203 168 387 168q69 0 128.5 -20.5t109.5 -63t79 -117.5t29 -176q0 -212 -59.5 -381t-170.5 -266t-255 -97q-63 0 -121.5 16t-108.5 46.5t-82.5 55.5t-72.5 61l-100 -574h-127zM229 270q170 -182 346 -182q113 0 200 92t130 231.5 t43 297.5q0 133 -59 205.5t-176 72.5q-101 0 -191.5 -48t-197.5 -136z" />
<glyph unicode="&#xff;" horiz-adv-x="1107" d="M-33 -315q173 55 247.5 113.5t156.5 201.5l-238 1075h133l191 -919l516 919h145l-618 -1075q-94 -163 -130 -211q-70 -92 -177 -144q-73 -36 -193 -71zM418 1251l31 179h147l-31 -179h-147zM754 1251l32 179h146l-33 -179h-145z" />
<glyph unicode="&#x100;" horiz-adv-x="1366" d="M-51 0l805 1434h147l301 -1434h-139l-72 373h-684l-203 -373h-155zM369 487h600l-158 816zM563 1591l17 95h583l-16 -95h-584z" />
<glyph unicode="&#x101;" horiz-adv-x="1214" d="M90 354q0 212 62.5 381t177.5 266t262 97q180 0 369 -180l28 157h129l-190 -1075h-129l30 174q-87 -82 -197.5 -139.5t-228.5 -57.5q-61 0 -114.5 20t-99.5 62.5t-72.5 118t-26.5 176.5zM223 367q0 -131 52.5 -206t150.5 -75q114 0 213 57t213 160l88 502 q-166 182 -330 182q-88 0 -162.5 -53t-123 -141t-75 -198.5t-26.5 -227.5zM449 1282l16 94h584l-17 -94h-583z" />
<glyph unicode="&#x102;" horiz-adv-x="1366" d="M-51 0l805 1434h147l301 -1434h-139l-72 373h-684l-203 -373h-155zM369 487h600l-158 816zM610 1751h101q-7 -62 25.5 -89.5t111.5 -27.5q84 0 140 28.5t67 88.5h104q-17 -98 -99 -154.5t-214 -56.5q-125 0 -189 57.5t-47 153.5z" />
<glyph unicode="&#x103;" horiz-adv-x="1214" d="M90 354q0 212 62.5 381t177.5 266t262 97q180 0 369 -180l28 157h129l-190 -1075h-129l30 174q-87 -82 -197.5 -139.5t-228.5 -57.5q-61 0 -114.5 20t-99.5 62.5t-72.5 118t-26.5 176.5zM223 367q0 -131 52.5 -206t150.5 -75q114 0 213 57t213 160l88 502 q-166 182 -330 182q-88 0 -162.5 -53t-123 -141t-75 -198.5t-26.5 -227.5zM489 1442h101q-7 -62 25.5 -89.5t111.5 -27.5q84 0 140 28.5t67 88.5h104q-17 -98 -99 -154.5t-214 -56.5q-125 0 -189 57.5t-47 153.5z" />
<glyph unicode="&#x104;" horiz-adv-x="1366" d="M-51 0l805 1434h147l301 -1434h-6q-130 -63 -187 -112.5t-57 -102.5q0 -15 5 -26t17.5 -17.5t22.5 -10.5t30.5 -5.5t31 -1.5h34.5h13l-33 -91q-27 0 -45 1t-49.5 4.5t-52 12t-42.5 23t-33 39t-11 56.5q0 69 60 125t173 106h-10l-72 373h-684l-203 -373h-155zM369 487h600 l-158 816z" />
<glyph unicode="&#x105;" horiz-adv-x="1214" d="M90 354q0 212 62.5 381t177.5 266t262 97q180 0 369 -180l28 157h129l-190 -1075h-4q-130 -63 -187 -112.5t-57 -102.5q0 -15 5 -26t17.5 -17.5t22.5 -10.5t30.5 -5.5t31 -1.5h34.5h13l-33 -91q-27 0 -45 1t-49.5 4.5t-52.5 12t-43 23t-33 39t-11 56.5q0 69 60 125 t174 106h-2l30 174q-87 -82 -197.5 -139.5t-228.5 -57.5q-61 0 -114.5 20t-99.5 62.5t-72.5 118t-26.5 176.5zM223 367q0 -131 52.5 -206t150.5 -75q114 0 213 57t213 160l88 502q-166 182 -330 182q-88 0 -162.5 -53t-123 -141t-75 -198.5t-26.5 -227.5z" />
<glyph unicode="&#x106;" horiz-adv-x="1298" d="M135 561q0 202 56.5 372.5t151.5 283.5t220 176t262 63q77 0 148 -18t139 -56.5t108.5 -66.5t106.5 -80l-84 -90q-120 97 -214 143.5t-195 46.5q-113 0 -215.5 -58t-178.5 -158t-121 -244.5t-45 -309.5q0 -237 87.5 -352t228.5 -115q102 0 230.5 54.5t254.5 138.5 l66 -105q-155 -96 -292.5 -152.5t-275.5 -56.5q-75 0 -139 19.5t-119.5 64t-95 111.5t-62 166t-22.5 223zM786 1540l281 262h211l-375 -262h-117z" />
<glyph unicode="&#x107;" horiz-adv-x="1069" d="M90 424q0 157 47.5 287.5t124.5 213t172 128t193 45.5q60 0 119 -14t112.5 -41.5t82.5 -45.5t72 -48q9 -6 13 -9l-74 -86q-3 2 -29 20t-42.5 28.5t-48.5 28t-59 28t-62 18.5t-68 8q-79 0 -155 -41.5t-134.5 -113t-94.5 -175t-36 -219.5q0 -164 66.5 -255t191.5 -91 q38 0 80.5 9.5t87.5 29t72 32t69 36t44 24.5l55 -104q-2 -1 -41.5 -21t-54.5 -27t-55 -25.5t-66.5 -26.5t-64.5 -19.5t-73.5 -16t-70.5 -4.5q-167 0 -270 120t-103 327zM541 1231l280 262h211l-375 -262h-116z" />
<glyph unicode="&#x10a;" horiz-adv-x="1298" d="M135 561q0 202 56.5 372.5t151.5 283.5t220 176t262 63q77 0 148 -18t139 -56.5t108.5 -66.5t106.5 -80l-84 -90q-120 97 -214 143.5t-195 46.5q-113 0 -215.5 -58t-178.5 -158t-121 -244.5t-45 -309.5q0 -237 87.5 -352t228.5 -115q102 0 230.5 54.5t254.5 138.5 l66 -105q-155 -96 -292.5 -152.5t-275.5 -56.5q-75 0 -139 19.5t-119.5 64t-95 111.5t-62 166t-22.5 223zM791 1561l32 178h148l-33 -178h-147z" />
<glyph unicode="&#x10b;" horiz-adv-x="1069" d="M90 424q0 157 47.5 287.5t124.5 213t172 128t193 45.5q60 0 119 -14t112.5 -41.5t82.5 -45.5t72 -48q9 -6 13 -9l-74 -86q-3 2 -29 20t-42.5 28.5t-48.5 28t-59 28t-62 18.5t-68 8q-79 0 -155 -41.5t-134.5 -113t-94.5 -175t-36 -219.5q0 -164 66.5 -255t191.5 -91 q38 0 80.5 9.5t87.5 29t72 32t69 36t44 24.5l55 -104q-2 -1 -41.5 -21t-54.5 -27t-55 -25.5t-66.5 -26.5t-64.5 -19.5t-73.5 -16t-70.5 -4.5q-167 0 -270 120t-103 327zM610 1251l33 179h148l-33 -179h-148z" />
<glyph unicode="&#x10c;" horiz-adv-x="1298" d="M135 561q0 202 56.5 372.5t151.5 283.5t220 176t262 63q77 0 148 -18t139 -56.5t108.5 -66.5t106.5 -80l-84 -90q-120 97 -214 143.5t-195 46.5q-113 0 -215.5 -58t-178.5 -158t-121 -244.5t-45 -309.5q0 -237 87.5 -352t228.5 -115q102 0 230.5 54.5t254.5 138.5 l66 -105q-155 -96 -292.5 -152.5t-275.5 -56.5q-75 0 -139 19.5t-119.5 64t-95 111.5t-62 166t-22.5 223zM649 1802h94l150 -182l209 182h108l-241 -262h-166z" />
<glyph unicode="&#x10d;" horiz-adv-x="1069" d="M90 424q0 157 47.5 287.5t124.5 213t172 128t193 45.5q60 0 119 -14t112.5 -41.5t82.5 -45.5t72 -48q9 -6 13 -9l-74 -86q-3 2 -29 20t-42.5 28.5t-48.5 28t-59 28t-62 18.5t-68 8q-79 0 -155 -41.5t-134.5 -113t-94.5 -175t-36 -219.5q0 -164 66.5 -255t191.5 -91 q38 0 80.5 9.5t87.5 29t72 32t69 36t44 24.5l55 -104q-2 -1 -41.5 -21t-54.5 -27t-55 -25.5t-66.5 -26.5t-64.5 -19.5t-73.5 -16t-70.5 -4.5q-167 0 -270 120t-103 327zM449 1493h94l149 -182l209 182h109l-242 -262h-166z" />
<glyph unicode="&#x10e;" horiz-adv-x="1419" d="M82 0l254 1434h356q138 0 248.5 -32.5t192 -97t126 -167t44.5 -236.5q0 -262 -101 -466t-289.5 -319.5t-435.5 -115.5h-395zM236 117h225q152 0 281 52.5t223 150.5t147 246.5t53 332.5q0 220 -129.5 319t-371.5 99h-215zM655 1802h95l149 -182l209 182h109l-242 -262 h-166z" />
<glyph unicode="&#x10f;" horiz-adv-x="1257" d="M90 354q0 212 62.5 381t177.5 266t262 97q180 0 369 -180l102 575h129l-264 -1493h-129l30 174q-87 -82 -197.5 -139.5t-228.5 -57.5q-61 0 -114.5 20t-99.5 62.5t-72.5 118t-26.5 176.5zM223 367q0 -131 52.5 -206t150.5 -75q113 0 213 57.5t213 159.5l88 502 q-166 182 -330 182q-88 0 -162.5 -53t-123 -141t-75 -198.5t-26.5 -227.5zM1239 1133l115 178h-68l33 182h141l-12 -186l-168 -222z" />
<glyph unicode="&#x110;" horiz-adv-x="1429" d="M66 659l20 115h150l116 660h357q185 0 319.5 -56t212.5 -177.5t78 -299.5q0 -262 -100.5 -466t-289 -319.5t-435.5 -115.5h-396l117 659h-149zM252 117h225q153 0 281.5 52.5t223 150.5t147.5 246.5t53 332.5q0 220 -130 319t-372 99h-215l-96 -543h358l-18 -115h-361z " />
<glyph unicode="&#x111;" horiz-adv-x="1214" d="M90 354q0 212 62.5 381t177.5 266t262 97q180 0 369 -180l55 309h-342l14 94h344l31 172h129l-31 -172h133l-14 -94h-135l-217 -1227h-129l30 174q-87 -82 -197.5 -139.5t-228.5 -57.5q-61 0 -114.5 20t-99.5 62.5t-72.5 118t-26.5 176.5zM223 367q0 -131 52.5 -206 t150.5 -75q113 0 213 57.5t213 159.5l88 502q-166 182 -330 182q-88 0 -162.5 -53t-123 -141t-75 -198.5t-26.5 -227.5z" />
<glyph unicode="&#x112;" horiz-adv-x="1191" d="M82 0l254 1434h868l-20 -117h-735l-95 -543h609l-21 -115h-608l-98 -542h749l-20 -117h-883zM512 1591l16 95h584l-16 -95h-584z" />
<glyph unicode="&#x113;" horiz-adv-x="1134" d="M90 444q0 186 74 335t209.5 234t308.5 85q167 0 259.5 -77.5t92.5 -197.5q0 -172 -171.5 -263t-514.5 -91h-127v-31q0 -169 71.5 -261.5t203.5 -92.5q23 0 48 3.5t46.5 7.5t48 13t44.5 15t45 19t40.5 19t39.5 20.5t33.5 18.5t32 18t25.5 15l55 -96q-152 -84 -243 -117 q-123 -43 -228 -43q-180 0 -286.5 120.5t-106.5 346.5zM231 563h131q272 0 406.5 68.5t134.5 191.5q0 80 -63.5 125t-163.5 45q-165 0 -288 -120t-157 -310zM428 1282l16 94h584l-16 -94h-584z" />
<glyph unicode="&#x116;" horiz-adv-x="1191" d="M82 0l254 1434h868l-20 -117h-735l-95 -543h609l-21 -115h-608l-98 -542h749l-20 -117h-883zM725 1561l33 178h147l-33 -178h-147z" />
<glyph unicode="&#x117;" horiz-adv-x="1134" d="M90 444q0 186 74 335t209.5 234t308.5 85q167 0 259.5 -77.5t92.5 -197.5q0 -172 -171.5 -263t-514.5 -91h-127v-31q0 -169 71.5 -261.5t203.5 -92.5q23 0 48 3.5t46.5 7.5t48 13t44.5 15t45 19t40.5 19t39.5 20.5t33.5 18.5t32 18t25.5 15l55 -96q-152 -84 -243 -117 q-123 -43 -228 -43q-180 0 -286.5 120.5t-106.5 346.5zM231 563h131q272 0 406.5 68.5t134.5 191.5q0 80 -63.5 125t-163.5 45q-165 0 -288 -120t-157 -310zM635 1251l33 179h147l-33 -179h-147z" />
<glyph unicode="&#x118;" horiz-adv-x="1191" d="M82 0l254 1434h868l-20 -117h-735l-95 -543h609l-21 -115h-608l-98 -542h749l-20 -117h-4q-130 -63 -187 -112.5t-57 -102.5q0 -18 9 -30t20 -18t34 -9t36 -3.5t41 -0.5h13l-32 -91q-27 0 -45 1t-49.5 4.5t-52.5 12t-43 23t-33 39t-11 56.5q0 69 60 125t174 106h-756z " />
<glyph unicode="&#x119;" horiz-adv-x="1134" d="M90 444q0 186 74 335t209.5 234t308.5 85q167 0 259.5 -77.5t92.5 -197.5q0 -172 -171.5 -263t-514.5 -91h-127v-31q0 -169 71.5 -261.5t203.5 -92.5q23 0 48 3.5t46.5 7.5t48 13t44.5 15t45 19t40.5 19t39.5 20.5t33.5 18.5t32 18t25.5 15l55 -96q-2 -1 -31 -17t-39 -21 t-39 -20t-48 -23.5t-47 -20t-55 -20t-54 -15.5q-128 -63 -185 -112.5t-57 -102.5q0 -15 5 -26t17.5 -17.5t22.5 -10.5t30.5 -5.5t31 -1.5h34.5h13l-33 -91q-27 0 -45 1t-49.5 4.5t-52 12t-42.5 23t-33 39t-11 56.5q0 116 186 208q-175 3 -279 123.5t-104 343.5zM231 563h131 q272 0 406.5 68.5t134.5 191.5q0 80 -63.5 125t-163.5 45q-165 0 -288 -120t-157 -310z" />
<glyph unicode="&#x11a;" horiz-adv-x="1191" d="M82 0l254 1434h868l-20 -117h-735l-95 -543h609l-21 -115h-608l-98 -542h749l-20 -117h-883zM559 1802h94l150 -182l209 182h108l-241 -262h-166z" />
<glyph unicode="&#x11b;" horiz-adv-x="1134" d="M90 444q0 186 74 335t209.5 234t308.5 85q167 0 259.5 -77.5t92.5 -197.5q0 -172 -171.5 -263t-514.5 -91h-127v-31q0 -169 71.5 -261.5t203.5 -92.5q23 0 48 3.5t46.5 7.5t48 13t44.5 15t45 19t40.5 19t39.5 20.5t33.5 18.5t32 18t25.5 15l55 -96q-152 -84 -243 -117 q-123 -43 -228 -43q-180 0 -286.5 120.5t-106.5 346.5zM231 563h131q272 0 406.5 68.5t134.5 191.5q0 80 -63.5 125t-163.5 45q-165 0 -288 -120t-157 -310zM473 1493h94l150 -182l209 182h108l-241 -262h-166z" />
<glyph unicode="&#x11e;" horiz-adv-x="1417" d="M135 541q0 179 38.5 330.5t104.5 257.5t153.5 181t185.5 110.5t202 35.5q79 0 157 -21t146.5 -60t118.5 -75t105 -83l-89 -89q-42 34 -63.5 51.5t-73 52t-91 53t-95 34.5t-107.5 16q-112 0 -213 -57t-175.5 -157t-118.5 -246t-44 -314q0 -220 81 -343.5t231 -123.5 q203 0 497 234l58 327h-410l19 113h538l-135 -768h-127l33 184q-269 -207 -488 -207q-93 0 -171 34t-138.5 101t-94.5 176.5t-34 252.5zM629 1751h100q-7 -62 25.5 -89.5t111.5 -27.5q84 0 140 28.5t67 88.5h105q-17 -98 -99.5 -154.5t-214.5 -56.5q-125 0 -188.5 57.5 t-46.5 153.5z" />
<glyph unicode="&#x11f;" horiz-adv-x="1212" d="M-8 -365l45 113q249 -78 422 -78q80 0 141.5 23t97.5 62t55.5 79t26.5 84l45 256q-87 -82 -197.5 -139.5t-228.5 -57.5q-61 0 -114.5 20t-99.5 62.5t-72.5 118t-26.5 176.5q0 212 62.5 381t177.5 266t262 97q183 0 366 -183l29 160h129l-205 -1159q-19 -102 -60.5 -173.5 t-102.5 -109.5t-129.5 -54.5t-155.5 -16.5q-102 0 -229.5 20t-237.5 53zM219 367q0 -131 52.5 -206t150.5 -75q112 0 211 57t215 160l88 504q-172 180 -330 180q-88 0 -162.5 -53t-123 -141t-75 -198.5t-26.5 -227.5zM471 1442h100q-7 -62 26 -89.5t112 -27.5q83 0 139 28.5 t67 88.5h105q-17 -98 -99 -154.5t-214 -56.5q-125 0 -189 57.5t-47 153.5z" />
<glyph unicode="&#x120;" horiz-adv-x="1417" d="M135 541q0 179 38.5 330.5t104.5 257.5t153.5 181t185.5 110.5t202 35.5q79 0 157 -21t146.5 -60t118.5 -75t105 -83l-89 -89q-42 34 -63.5 51.5t-73 52t-91 53t-95 34.5t-107.5 16q-112 0 -213 -57t-175.5 -157t-118.5 -246t-44 -314q0 -220 81 -343.5t231 -123.5 q203 0 497 234l58 327h-410l19 113h538l-135 -768h-127l33 184q-269 -207 -488 -207q-93 0 -171 34t-138.5 101t-94.5 176.5t-34 252.5zM793 1561l32 178h148l-33 -178h-147z" />
<glyph unicode="&#x121;" horiz-adv-x="1212" d="M-8 -365l45 113q249 -78 422 -78q80 0 141.5 23t97.5 62t55.5 79t26.5 84l45 256q-87 -82 -197.5 -139.5t-228.5 -57.5q-61 0 -114.5 20t-99.5 62.5t-72.5 118t-26.5 176.5q0 212 62.5 381t177.5 266t262 97q183 0 366 -183l29 160h129l-205 -1159q-19 -102 -60.5 -173.5 t-102.5 -109.5t-129.5 -54.5t-155.5 -16.5q-102 0 -229.5 20t-237.5 53zM219 367q0 -131 52.5 -206t150.5 -75q112 0 211 57t215 160l88 504q-172 180 -330 180q-88 0 -162.5 -53t-123 -141t-75 -198.5t-26.5 -227.5zM635 1251l33 179h147l-33 -179h-147z" />
<glyph unicode="&#x122;" horiz-adv-x="1417" d="M135 541q0 179 38.5 330.5t104.5 257.5t153.5 181t185.5 110.5t202 35.5q79 0 157 -21t146.5 -60t118.5 -75t105 -83l-89 -89q-42 34 -63.5 51.5t-73 52t-91 53t-95 34.5t-107.5 16q-112 0 -213 -57t-175.5 -157t-118.5 -246t-44 -314q0 -220 81 -343.5t231 -123.5 q203 0 497 234l58 327h-410l19 113h538l-135 -768h-127l33 184q-269 -207 -488 -207q-93 0 -171 34t-138.5 101t-94.5 176.5t-34 252.5zM453 -494l114 179h-67l32 182h142l-12 -186l-168 -222z" />
<glyph unicode="&#x123;" horiz-adv-x="1212" d="M-8 -365l45 113q249 -78 422 -78q80 0 141.5 23t97.5 62t55.5 79t26.5 84l45 256q-87 -82 -197.5 -139.5t-228.5 -57.5q-61 0 -114.5 20t-99.5 62.5t-72.5 118t-26.5 176.5q0 212 62.5 381t177.5 266t262 97q183 0 366 -183l29 160h129l-205 -1159q-19 -102 -60.5 -173.5 t-102.5 -109.5t-129.5 -54.5t-155.5 -16.5q-102 0 -229.5 20t-237.5 53zM219 367q0 -131 52.5 -206t150.5 -75q112 0 211 57t215 160l88 504q-172 180 -330 180q-88 0 -162.5 -53t-123 -141t-75 -198.5t-26.5 -227.5zM647 1251l12 187l168 221l41 -47l-114 -178h67l-33 -183 h-141z" />
<glyph unicode="&#x126;" horiz-adv-x="1435" d="M88 0l188 1067h-149l14 94h152l49 273h133l-49 -273h756l49 273h133l-49 -273h155l-18 -94h-154l-188 -1067h-133l123 694h-756l-123 -694h-133zM365 809h755l45 258h-755z" />
<glyph unicode="&#x127;" d="M55 0l217 1227h-133l19 94h131l30 172h130l-31 -172h346l-16 -94h-349l-53 -303q93 63 219.5 118.5t243.5 55.5q155 0 218.5 -93t35.5 -243l-135 -762h-127l133 750q41 239 -154 239q-106 0 -235 -61.5t-219 -128.5l-142 -799h-129z" />
<glyph unicode="&#x128;" horiz-adv-x="552" d="M82 0l254 1434h133l-254 -1434h-133zM139 1610q52 78 92.5 111.5t96.5 33.5q36 0 71.5 -15.5t59 -34.5t51.5 -34.5t51 -15.5q24 0 49 18.5t66 75.5l74 -45q-56 -80 -95 -112.5t-96 -32.5q-44 0 -87 25t-79.5 50t-64.5 25q-25 0 -50 -17.5t-67 -74.5z" />
<glyph unicode="&#x129;" horiz-adv-x="487" d="M59 0l191 1075h129l-191 -1075h-129zM59 1300q52 78 92.5 112t96.5 34q36 0 71.5 -15.5t59 -34.5t51.5 -34.5t51 -15.5q24 0 49 18.5t66 75.5l74 -45q-56 -80 -95 -113t-96 -33q-35 0 -70 16t-58.5 34.5t-51.5 34.5t-51 16q-25 0 -50 -18t-67 -75z" />
<glyph unicode="&#x12a;" horiz-adv-x="552" d="M82 0l254 1434h133l-254 -1434h-133zM139 1591l17 95h583l-16 -95h-584z" />
<glyph unicode="&#x12b;" horiz-adv-x="487" d="M68 1282l16 94h584l-17 -94h-583zM70 0l190 1075h129l-190 -1075h-129z" />
<glyph unicode="&#x12c;" horiz-adv-x="550" d="M82 0l254 1434h133l-254 -1434h-133zM186 1751h101q-7 -62 25.5 -89.5t111.5 -27.5q84 0 140 28.5t67 88.5h104q-17 -98 -99 -154.5t-214 -56.5q-125 0 -189 57.5t-47 153.5z" />
<glyph unicode="&#x12d;" horiz-adv-x="487" d="M55 0l191 1075h129l-191 -1075h-129zM100 1442h101q-7 -62 25.5 -89.5t111.5 -27.5q84 0 140 28.5t67 88.5h104q-17 -98 -99 -154.5t-214 -56.5q-125 0 -189 57.5t-47 153.5z" />
<glyph unicode="&#x12e;" horiz-adv-x="548" d="M-125 -231q0 68 60.5 124t173.5 107h-7l254 1434h133l-253 -1434h-5q-129 -62 -186 -112t-57 -103q0 -18 9 -30t20 -18t34 -9t36 -3.5t41 -0.5h13l-32 -91q-27 0 -45 1t-49.5 4.5t-52.5 12t-43 23t-33 39t-11 56.5z" />
<glyph unicode="&#x12f;" horiz-adv-x="485" d="M-158 -231q0 68 60.5 124t173.5 107l190 1075h129l-190 -1075h-6q-130 -63 -187 -112.5t-57 -102.5q0 -15 5 -26t17.5 -17.5t22.5 -10.5t30.5 -5.5t31 -1.5h34.5h13l-33 -91q-27 0 -45 1t-49.5 4.5t-52.5 12t-43 23t-33 39t-11 56.5zM299 1309l33 178h145l-33 -178h-145z " />
<glyph unicode="&#x130;" horiz-adv-x="544" d="M82 0l254 1434h133l-254 -1434h-133zM352 1561l33 178h147l-32 -178h-148z" />
<glyph unicode="&#x131;" horiz-adv-x="483" d="M55 0l191 1075h129l-191 -1075h-129z" />
<glyph unicode="&#x132;" horiz-adv-x="1095" d="M82 0l254 1434h133l-254 -1434h-133zM358 -172q55 16 93.5 30t67.5 26t48.5 28.5t31.5 29.5t20.5 37.5t12.5 42.5t11 54l240 1358h135l-240 -1354q-24 -128 -43 -171q-33 -72 -119 -116q-74 -38 -223 -76z" />
<glyph unicode="&#x133;" horiz-adv-x="966" d="M55 0l191 1075h129l-191 -1075h-129zM240 -322q48 14 83.5 26t64 25.5t47 23.5t33.5 27t23 28.5t15.5 35t10.5 39.5t9 49l205 1143h127l-203 -1138q-23 -128 -43 -173q-34 -72 -123 -117q-74 -36 -219 -73zM279 1309l32 178h146l-33 -178h-145zM762 1309l33 178h145 l-33 -178h-145z" />
<glyph unicode="&#x134;" horiz-adv-x="555" d="M-168 -172q55 16 93.5 30t67.5 26t48.5 28.5t31.5 29.5t20.5 37.5t12.5 42.5t11 54l239 1358h136l-240 -1354q-24 -128 -43 -171q-33 -72 -119 -116q-74 -38 -223 -76zM164 1540l242 262h165l154 -262h-94l-148 184l-211 -184h-108z" />
<glyph unicode="&#x135;" horiz-adv-x="491" d="M-219 -322q64 19 107 34t74 34t47.5 33t29 41.5t17 48t12.5 63.5l204 1143h127l-202 -1138q-23 -128 -43 -173q-34 -72 -123 -117q-74 -36 -219 -73zM82 1231l242 262h165l154 -262h-94l-148 184l-211 -184h-108z" />
<glyph unicode="&#x136;" horiz-adv-x="1292" d="M82 0l254 1434h133l-147 -832l837 832h174l-704 -693l520 -741h-152l-454 655l-256 -249l-72 -406h-133zM354 -494l115 179h-68l33 182h141l-12 -186l-168 -222z" />
<glyph unicode="&#x137;" horiz-adv-x="1032" d="M55 0l264 1493h130l-179 -1010l576 592h158l-443 -438l318 -637h-131l-275 549l-233 -232l-56 -317h-129zM248 -494l114 179h-67l33 182h141l-12 -186l-168 -222z" />
<glyph unicode="&#x138;" horiz-adv-x="1032" d="M55 0l191 1075h129l-105 -592l576 592h158l-443 -438l318 -637h-131l-275 549l-233 -232l-56 -317h-129z" />
<glyph unicode="&#x139;" horiz-adv-x="1089" d="M82 0l254 1434h133l-233 -1317h712l-20 -117h-846zM279 1540l280 262h211l-375 -262h-116z" />
<glyph unicode="&#x13a;" horiz-adv-x="512" d="M68 0l264 1493h127l-264 -1493h-127zM270 1599l281 263h211l-375 -263h-117z" />
<glyph unicode="&#x13b;" horiz-adv-x="1089" d="M82 0l254 1434h133l-233 -1317h712l-20 -117h-846zM330 -494l114 179h-67l33 182h141l-12 -186l-168 -222z" />
<glyph unicode="&#x13c;" horiz-adv-x="501" d="M-45 -494l115 179h-68l33 182h141l-12 -186l-168 -222zM68 0l264 1493h127l-264 -1493h-127z" />
<glyph unicode="&#x13d;" horiz-adv-x="1089" d="M82 0l254 1434h133l-233 -1317h712l-20 -117h-846zM518 1073l115 178h-68l33 183h141l-12 -187l-168 -221z" />
<glyph unicode="&#x13e;" horiz-adv-x="536" d="M68 0l264 1493h127l-264 -1493h-127zM508 1133l115 178h-68l33 182h141l-12 -186l-168 -222z" />
<glyph unicode="&#x13f;" horiz-adv-x="1093" d="M82 0l254 1434h133l-233 -1317h712l-20 -117h-846zM770 651l33 178h147l-32 -178h-148z" />
<glyph unicode="&#x140;" horiz-adv-x="544" d="M68 0l264 1493h127l-264 -1493h-127zM434 651l33 178h147l-32 -178h-148z" />
<glyph unicode="&#x141;" horiz-adv-x="1095" d="M37 492l24 133l160 80l129 729h133l-116 -654l311 158l-23 -135l-311 -158l-94 -528h713l-21 -117h-846l101 571z" />
<glyph unicode="&#x142;" horiz-adv-x="536" d="M51 565l23 133l153 78l127 717h127l-114 -645l157 80l-22 -135l-160 -80l-125 -713h-127l113 641z" />
<glyph unicode="&#x143;" horiz-adv-x="1456" d="M82 0l254 1434h139l561 -1248l221 1248h134l-254 -1434h-138l-563 1253l-221 -1253h-133zM750 1540l280 262h211l-375 -262h-116z" />
<glyph unicode="&#x144;" d="M55 0l191 1075h129l-27 -151q93 63 219 118.5t242 55.5q155 0 218.5 -93t35.5 -243l-135 -762h-127l133 750q41 239 -154 239q-106 0 -235 -61.5t-219 -128.5l-142 -799h-129zM565 1231l281 262h211l-375 -262h-117z" />
<glyph unicode="&#x145;" horiz-adv-x="1456" d="M82 0l254 1434h139l561 -1248l221 1248h134l-254 -1434h-138l-563 1253l-221 -1253h-133zM449 -494l114 179h-67l32 182h142l-13 -186l-168 -222z" />
<glyph unicode="&#x146;" d="M55 0l191 1075h129l-27 -151q93 63 219 118.5t242 55.5q155 0 218.5 -93t35.5 -243l-135 -762h-127l133 750q41 239 -154 239q-106 0 -235 -61.5t-219 -128.5l-142 -799h-129zM317 -494l115 179h-67l32 182h142l-13 -186l-168 -222z" />
<glyph unicode="&#x147;" horiz-adv-x="1456" d="M82 0l254 1434h139l561 -1248l221 1248h134l-254 -1434h-138l-563 1253l-221 -1253h-133zM659 1802h95l149 -182l209 182h109l-242 -262h-166z" />
<glyph unicode="&#x148;" d="M55 0l191 1075h129l-27 -151q93 63 219 118.5t242 55.5q155 0 218.5 -93t35.5 -243l-135 -762h-127l133 750q41 239 -154 239q-106 0 -235 -61.5t-219 -128.5l-142 -799h-129zM469 1493h94l150 -182l209 182h108l-242 -262h-165z" />
<glyph unicode="&#x149;" d="M55 0l191 1075h129l-27 -151q93 63 219 118.5t242 55.5q155 0 218.5 -93t35.5 -243l-135 -762h-127l133 750q41 239 -154 239q-106 0 -235 -61.5t-219 -128.5l-142 -799h-129zM260 1235l115 178h-68l33 182h141l-12 -186l-168 -221z" />
<glyph unicode="&#x14a;" horiz-adv-x="1456" d="M82 0l254 1434h139l561 -1248l221 1248h134l-242 -1364q-11 -63 -18 -92t-24 -70t-39 -60.5t-63 -45.5t-98 -45t-141 -40l-33 111q142 43 195.5 73.5t72.5 94.5l-565 1257l-221 -1253h-133z" />
<glyph unicode="&#x14b;" d="M55 0l191 1075h129l-27 -151q93 63 219 118.5t242 55.5q155 0 218.5 -93t35.5 -243l-145 -825q-23 -129 -44 -173q-34 -73 -125 -117q-74 -36 -217 -73l-30 104q55 16 94 30.5t68.5 27t49 29.5t31.5 30.5t20.5 38t12.5 43.5t10 55l146 818q41 239 -154 239 q-106 0 -235 -61.5t-219 -128.5l-142 -799h-129z" />
<glyph unicode="&#x14c;" horiz-adv-x="1495" d="M131 575q-1 95 17.5 194.5t55 198.5t96 186.5t135.5 155t179.5 107t221.5 39.5q120 0 215 -30.5t159 -83.5t106.5 -129.5t61 -164.5t19.5 -192q1 -94 -17.5 -193t-55 -198.5t-96 -186.5t-135.5 -154.5t-180 -107t-223 -39.5q-149 0 -259 45.5t-174 128.5t-94.5 188 t-31.5 236zM268 573q0 -479 420 -479q97 0 181.5 36t145.5 97t109 138.5t77 164t44 169.5t15 159q0 479 -420 479q-97 0 -181.5 -36t-145.5 -97t-109 -138.5t-77 -164t-44 -169.5t-15 -159zM625 1591l16 95h584l-17 -95h-583z" />
<glyph unicode="&#x14d;" horiz-adv-x="1220" d="M88 438q0 184 67.5 334t192 238t283.5 88q222 0 343.5 -122.5t121.5 -338.5q0 -184 -68 -334t-192.5 -238t-282.5 -88q-222 0 -343.5 122.5t-121.5 338.5zM217 438q0 -162 80.5 -257t253.5 -95q124 0 220.5 80t145 204t48.5 267q0 78 -18.5 140.5t-57 110.5t-104 74.5 t-154.5 26.5q-124 0 -220.5 -80t-145 -204t-48.5 -267zM430 1282l16 94h584l-16 -94h-584z" />
<glyph unicode="&#x14e;" horiz-adv-x="1495" d="M131 575q-1 95 17.5 194.5t55 198.5t96 186.5t135.5 155t179.5 107t221.5 39.5q120 0 215 -30.5t159 -83.5t106.5 -129.5t61 -164.5t19.5 -192q1 -94 -17.5 -193t-55 -198.5t-96 -186.5t-135.5 -154.5t-180 -107t-223 -39.5q-149 0 -259 45.5t-174 128.5t-94.5 188 t-31.5 236zM268 573q0 -479 420 -479q97 0 181.5 36t145.5 97t109 138.5t77 164t44 169.5t15 159q0 479 -420 479q-97 0 -181.5 -36t-145.5 -97t-109 -138.5t-77 -164t-44 -169.5t-15 -159zM672 1751h100q-7 -62 25.5 -89.5t111.5 -27.5q84 0 140 28.5t67 88.5h105 q-17 -98 -99.5 -154.5t-214.5 -56.5q-125 0 -188.5 57.5t-46.5 153.5z" />
<glyph unicode="&#x14f;" horiz-adv-x="1220" d="M88 438q0 184 67.5 334t192 238t283.5 88q222 0 343.5 -122.5t121.5 -338.5q0 -184 -68 -334t-192.5 -238t-282.5 -88q-222 0 -343.5 122.5t-121.5 338.5zM217 438q0 -162 80.5 -257t253.5 -95q124 0 220.5 80t145 204t48.5 267q0 78 -18.5 140.5t-57 110.5t-104 74.5 t-154.5 26.5q-124 0 -220.5 -80t-145 -204t-48.5 -267zM479 1442h101q-7 -62 25.5 -89.5t111.5 -27.5q84 0 140 28.5t67 88.5h104q-17 -98 -99 -154.5t-214 -56.5q-125 0 -189 57.5t-47 153.5z" />
<glyph unicode="&#x150;" horiz-adv-x="1495" d="M131 575q-1 95 17.5 194.5t55 198.5t96 186.5t135.5 155t179.5 107t221.5 39.5q120 0 215 -30.5t159 -83.5t106.5 -129.5t61 -164.5t19.5 -192q1 -94 -17.5 -193t-55 -198.5t-96 -186.5t-135.5 -154.5t-180 -107t-223 -39.5q-149 0 -259 45.5t-174 128.5t-94.5 188 t-31.5 236zM268 573q0 -479 420 -479q97 0 181.5 36t145.5 97t109 138.5t77 164t44 169.5t15 159q0 479 -420 479q-97 0 -181.5 -36t-145.5 -97t-109 -138.5t-77 -164t-44 -169.5t-15 -159zM686 1540l191 262h182l-285 -262h-88zM977 1540l188 262h183l-283 -262h-88z" />
<glyph unicode="&#x151;" horiz-adv-x="1220" d="M88 438q0 184 67.5 334t192 238t283.5 88q222 0 343.5 -122.5t121.5 -338.5q0 -184 -68 -334t-192.5 -238t-282.5 -88q-222 0 -343.5 122.5t-121.5 338.5zM217 438q0 -162 80.5 -257t253.5 -95q124 0 220.5 80t145 204t48.5 267q0 78 -18.5 140.5t-57 110.5t-104 74.5 t-154.5 26.5q-124 0 -220.5 -80t-145 -204t-48.5 -267zM489 1231l191 262h182l-284 -262h-89zM780 1231l189 262h182l-283 -262h-88z" />
<glyph unicode="&#x152;" horiz-adv-x="2220" d="M131 575q-1 95 17.5 194.5t55 198.5t96 186.5t135.5 155t179.5 107t221.5 39.5q373 0 499 -285l47 263h869l-21 -117h-735l-94 -543h608l-20 -115h-609l-98 -542h750l-21 -117h-883l33 193q-189 -216 -471 -216q-149 0 -259 45.5t-174 128.5t-94.5 188t-31.5 236z M268 573q0 -479 420 -479q97 0 181.5 36t145.5 97t109 138.5t77 164t44 169.5t15 159q0 479 -420 479q-97 0 -181.5 -36t-145.5 -97t-109 -138.5t-77 -164t-44 -169.5t-15 -159z" />
<glyph unicode="&#x153;" horiz-adv-x="1988" d="M88 438q0 184 67.5 334t192 238t283.5 88q163 0 273.5 -68t156.5 -192q78 122 203.5 191t281.5 69q167 0 259.5 -77.5t92.5 -197.5q0 -172 -171.5 -263t-514.5 -91h-127v-31q0 -169 71.5 -261.5t203.5 -92.5q23 0 48 3.5t46.5 7.5t48 13t44.5 15t45 19t40.5 19t39.5 20.5 t33.5 18.5t32 18t25.5 15l56 -96q-152 -84 -243 -117q-123 -43 -228 -43q-131 0 -225 64t-136 188q-74 -118 -186 -185t-248 -67q-222 0 -343.5 122.5t-121.5 338.5zM217 438q0 -162 80.5 -257t253.5 -95q124 0 220.5 80t145 204t48.5 267q0 78 -18.5 140.5t-57 110.5 t-104 74.5t-154.5 26.5q-124 0 -220.5 -80t-145 -204t-48.5 -267zM1096 563h131q272 0 406 68.5t134 191.5q0 80 -63.5 125t-163.5 45q-165 0 -287.5 -120t-156.5 -310z" />
<glyph unicode="&#x154;" horiz-adv-x="1363" d="M82 0l254 1434h522q101 0 183.5 -20t146.5 -61t99.5 -110t35.5 -162q0 -101 -37 -183t-103 -137t-151.5 -88.5t-187.5 -43.5l289 -629h-142l-270 625h-393l-113 -625h-133zM348 739h393q203 0 322 87.5t119 252.5q0 124 -88 182t-240 58h-403zM735 1540l281 262h211 l-375 -262h-117z" />
<glyph unicode="&#x155;" horiz-adv-x="765" d="M55 0l191 1075h129l-41 -231q9 17 26 40.5t58 64t89 71.5t121.5 52t153.5 15l-22 -122q-70 0 -133.5 -19t-109 -49t-84.5 -66.5t-63.5 -73t-42 -66.5t-25.5 -49l-7 -19l-111 -623h-129zM399 1231l281 262h211l-375 -262h-117z" />
<glyph unicode="&#x156;" horiz-adv-x="1363" d="M82 0l254 1434h522q101 0 183.5 -20t146.5 -61t99.5 -110t35.5 -162q0 -101 -37 -183t-103 -137t-151.5 -88.5t-187.5 -43.5l289 -629h-142l-270 625h-393l-113 -625h-133zM348 739h393q203 0 322 87.5t119 252.5q0 124 -88 182t-240 58h-403zM389 -494l115 179h-68 l33 182h141l-12 -186l-168 -222z" />
<glyph unicode="&#x157;" horiz-adv-x="761" d="M-51 -494l114 179h-67l33 182h141l-12 -186l-168 -222zM59 0l191 1075h129l-41 -231q9 17 26 40.5t58 64t89 71.5t121.5 52t153.5 15l-22 -122q-70 0 -133.5 -19t-109 -49t-84.5 -66.5t-63.5 -73t-42 -66.5t-25.5 -49l-7 -19l-111 -623h-129z" />
<glyph unicode="&#x158;" horiz-adv-x="1363" d="M82 0l254 1434h522q101 0 183.5 -20t146.5 -61t99.5 -110t35.5 -162q0 -101 -37 -183t-103 -137t-151.5 -88.5t-187.5 -43.5l289 -629h-142l-270 625h-393l-113 -625h-133zM348 739h393q203 0 322 87.5t119 252.5q0 124 -88 182t-240 58h-403zM645 1802h94l150 -182 l209 182h108l-241 -262h-166z" />
<glyph unicode="&#x159;" horiz-adv-x="765" d="M55 0l191 1075h129l-41 -231q9 17 26 40.5t58 64t89 71.5t121.5 52t153.5 15l-22 -122q-70 0 -133.5 -19t-109 -49t-84.5 -66.5t-63.5 -73t-42 -66.5t-25.5 -49l-7 -19l-111 -623h-129zM305 1493h94l150 -182l209 182h108l-241 -262h-166z" />
<glyph unicode="&#x15a;" horiz-adv-x="1216" d="M14 154l78 98q255 -158 467 -158q160 0 269.5 77.5t109.5 205.5q0 49 -21.5 91t-42.5 67t-83 57.5t-88 43.5t-114 45q-15 6 -22 9q-51 21 -82 34.5t-74 36t-68.5 41.5t-54.5 47t-44.5 58.5t-26 70t-10.5 85.5q0 120 65.5 211t174.5 136.5t243 45.5q130 0 260 -41.5 t234 -101.5l-78 -92q-92 51 -208 84.5t-212 33.5q-142 0 -241 -71t-99 -197q0 -52 15 -88t64 -68.5t81.5 -47.5t125.5 -52q29 -12 44 -18q53 -21 87 -36t80.5 -38.5t75.5 -45t61.5 -52.5t50.5 -64t30 -76.5t12 -93.5q0 -99 -43 -179t-116 -130.5t-164 -77.5t-191 -27 q-149 0 -292.5 52.5t-252.5 124.5zM625 1540l280 262h211l-375 -262h-116z" />
<glyph unicode="&#x15b;" horiz-adv-x="1026" d="M8 117l72 88q208 -121 375 -121q113 0 197.5 54t84.5 149q0 25 -7.5 47t-17.5 38t-32 32t-37.5 25t-49.5 22t-51.5 19t-58.5 19q-19 6 -28 9q-45 15 -74 26t-69.5 29.5t-66 39.5t-50 50t-36.5 67t-12 83q0 95 54.5 165.5t142 105t193.5 34.5q110 0 219.5 -35.5 t187.5 -81.5l-67 -88q-177 98 -336 98q-112 0 -188.5 -50.5t-76.5 -137.5q0 -21 4 -39t15 -33t20 -26.5t28.5 -23.5t31.5 -19t37.5 -16.5t37.5 -14t41.5 -14t40.5 -13.5q175 -58 255.5 -124.5t80.5 -184.5q0 -101 -58.5 -175t-150 -108.5t-202.5 -34.5q-125 0 -242 42 t-207 98zM477 1231l281 262h211l-375 -262h-117z" />
<glyph unicode="&#x15c;" horiz-adv-x="1216" d="M14 154l78 98q255 -158 467 -158q160 0 269.5 77.5t109.5 205.5q0 49 -21.5 91t-42.5 67t-83 57.5t-88 43.5t-114 45q-15 6 -22 9q-51 21 -82 34.5t-74 36t-68.5 41.5t-54.5 47t-44.5 58.5t-26 70t-10.5 85.5q0 120 65.5 211t174.5 136.5t243 45.5q130 0 260 -41.5 t234 -101.5l-78 -92q-92 51 -208 84.5t-212 33.5q-142 0 -241 -71t-99 -197q0 -52 15 -88t64 -68.5t81.5 -47.5t125.5 -52q29 -12 44 -18q53 -21 87 -36t80.5 -38.5t75.5 -45t61.5 -52.5t50.5 -64t30 -76.5t12 -93.5q0 -99 -43 -179t-116 -130.5t-164 -77.5t-191 -27 q-149 0 -292.5 52.5t-252.5 124.5zM487 1540l242 262h166l154 -262h-95l-147 184l-211 -184h-109z" />
<glyph unicode="&#x15d;" horiz-adv-x="1026" d="M8 117l72 88q208 -121 375 -121q113 0 197.5 54t84.5 149q0 25 -7.5 47t-17.5 38t-32 32t-37.5 25t-49.5 22t-51.5 19t-58.5 19q-19 6 -28 9q-45 15 -74 26t-69.5 29.5t-66 39.5t-50 50t-36.5 67t-12 83q0 95 54.5 165.5t142 105t193.5 34.5q110 0 219.5 -35.5 t187.5 -81.5l-67 -88q-177 98 -336 98q-112 0 -188.5 -50.5t-76.5 -137.5q0 -21 4 -39t15 -33t20 -26.5t28.5 -23.5t31.5 -19t37.5 -16.5t37.5 -14t41.5 -14t40.5 -13.5q175 -58 255.5 -124.5t80.5 -184.5q0 -101 -58.5 -175t-150 -108.5t-202.5 -34.5q-125 0 -242 42 t-207 98zM342 1231l242 262h166l153 -262h-94l-147 184l-211 -184h-109z" />
<glyph unicode="&#x15e;" horiz-adv-x="1216" d="M14 154l78 98q255 -158 467 -158q160 0 269.5 77.5t109.5 205.5q0 49 -21.5 91t-42.5 67t-83 57.5t-88 43.5t-114 45q-15 6 -22 9q-51 21 -82 34.5t-74 36t-68.5 41.5t-54.5 47t-44.5 58.5t-26 70t-10.5 85.5q0 120 65.5 211t174.5 136.5t243 45.5q130 0 260 -41.5 t234 -101.5l-78 -92q-92 51 -208 84.5t-212 33.5q-142 0 -241 -71t-99 -197q0 -52 15 -88t64 -68.5t81.5 -47.5t125.5 -52q29 -12 44 -18q53 -21 87 -36t80.5 -38.5t75.5 -45t61.5 -52.5t50.5 -64t30 -76.5t12 -93.5q0 -76 -26 -142t-72 -113.5t-107 -82t-131.5 -52.5 t-146.5 -21q39 -71 39 -136q0 -86 -58.5 -137t-160.5 -51q-91 0 -158 37l47 84q55 -27 109 -27q55 0 93 30t38 91q0 37 -23 109q-139 8 -271.5 58.5t-230.5 115.5z" />
<glyph unicode="&#x15f;" horiz-adv-x="1024" d="M8 117l72 88q208 -121 375 -121q113 0 197.5 54t84.5 149q0 25 -7.5 47t-17.5 38t-32 32t-37.5 25t-49.5 22t-51.5 19t-58.5 19q-19 6 -28 9q-45 15 -74 26t-69.5 29.5t-66 39.5t-50 50t-36.5 67t-12 83q0 95 54.5 165.5t142 105t193.5 34.5q110 0 219.5 -35.5 t187.5 -81.5l-67 -88q-177 98 -336 98q-112 0 -188.5 -50.5t-76.5 -137.5q0 -21 4 -39t15 -33t20 -26.5t28.5 -23.5t31.5 -19t37.5 -16.5t37.5 -14t41.5 -14t40.5 -13.5q175 -58 255.5 -124.5t80.5 -184.5q0 -143 -109 -225t-270 -90q39 -71 39 -136q0 -86 -58.5 -137 t-160.5 -51q-90 0 -157 37l47 84q55 -27 108 -27q55 0 93 30t38 91q0 35 -22 109q-213 13 -408 137z" />
<glyph unicode="&#x160;" horiz-adv-x="1216" d="M14 154l78 98q255 -158 467 -158q160 0 269.5 77.5t109.5 205.5q0 49 -21.5 91t-42.5 67t-83 57.5t-88 43.5t-114 45q-15 6 -22 9q-51 21 -82 34.5t-74 36t-68.5 41.5t-54.5 47t-44.5 58.5t-26 70t-10.5 85.5q0 120 65.5 211t174.5 136.5t243 45.5q130 0 260 -41.5 t234 -101.5l-78 -92q-92 51 -208 84.5t-212 33.5q-142 0 -241 -71t-99 -197q0 -52 15 -88t64 -68.5t81.5 -47.5t125.5 -52q29 -12 44 -18q53 -21 87 -36t80.5 -38.5t75.5 -45t61.5 -52.5t50.5 -64t30 -76.5t12 -93.5q0 -99 -43 -179t-116 -130.5t-164 -77.5t-191 -27 q-149 0 -292.5 52.5t-252.5 124.5zM532 1802h95l149 -182l209 182h109l-242 -262h-166z" />
<glyph unicode="&#x161;" horiz-adv-x="1026" d="M8 117l72 88q208 -121 375 -121q113 0 197.5 54t84.5 149q0 25 -7.5 47t-17.5 38t-32 32t-37.5 25t-49.5 22t-51.5 19t-58.5 19q-19 6 -28 9q-45 15 -74 26t-69.5 29.5t-66 39.5t-50 50t-36.5 67t-12 83q0 95 54.5 165.5t142 105t193.5 34.5q110 0 219.5 -35.5 t187.5 -81.5l-67 -88q-177 98 -336 98q-112 0 -188.5 -50.5t-76.5 -137.5q0 -21 4 -39t15 -33t20 -26.5t28.5 -23.5t31.5 -19t37.5 -16.5t37.5 -14t41.5 -14t40.5 -13.5q175 -58 255.5 -124.5t80.5 -184.5q0 -101 -58.5 -175t-150 -108.5t-202.5 -34.5q-125 0 -242 42 t-207 98zM385 1493h94l150 -182l209 182h108l-241 -262h-166z" />
<glyph unicode="&#x162;" horiz-adv-x="1134" d="M168 -307l47 84q55 -27 109 -27q55 0 93 30t38 91q0 57 -31 129h-33l232 1317h-453l20 117h1043l-21 -117h-454l-234 -1317h-32q8 -10 18.5 -28t22.5 -55t12 -73q0 -86 -58.5 -137t-160.5 -51q-91 0 -158 37z" />
<glyph unicode="&#x163;" horiz-adv-x="737" d="M10 -307l47 84q55 -27 109 -27q55 0 93 30t38 91q0 49 -25 111q-78 14 -117.5 72t-17.5 175l131 744h-147l20 102h146l47 271l135 40l-55 -311h297l-21 -102h-295l-135 -764q-11 -65 11 -92t71 -27q61 0 223 62l35 -105q-41 -17 -118.5 -39.5t-133.5 -27.5 q39 -71 39 -136q0 -86 -58.5 -137t-160.5 -51q-91 0 -158 37z" />
<glyph unicode="&#x164;" horiz-adv-x="1134" d="M170 1317l20 117h1043l-21 -117h-454l-234 -1317h-133l232 1317h-453zM496 1802h94l149 -182l209 182h109l-242 -262h-166z" />
<glyph unicode="&#x165;" horiz-adv-x="743" d="M121 973l20 102h146l47 271l135 40l-55 -311h297l-21 -102h-295l-135 -764q-11 -65 11 -92t71 -27q61 0 223 62l35 -105q-49 -20 -135.5 -45t-140.5 -25q-46 0 -82 11.5t-67 40.5t-39.5 77.5t1.5 122.5l131 744h-147zM571 1235l115 178h-68l33 182h142l-13 -186 l-168 -221z" />
<glyph unicode="&#x166;" horiz-adv-x="1161" d="M182 1317l21 117h1042l-20 -117h-455l-133 -744h231l-16 -92h-231l-84 -481h-134l84 481h-229l14 92h232l131 744h-453z" />
<glyph unicode="&#x167;" horiz-adv-x="743" d="M100 588l15 94h104l51 291h-147l20 102h146l47 271l135 40l-55 -311h297l-21 -102h-295l-53 -291h238l-17 -94h-237l-66 -379q-11 -65 11 -92t71 -27q61 0 223 62l35 -105q-49 -20 -135.5 -45t-140.5 -25q-46 0 -82 11.5t-67 40.5t-39.5 77.5t1.5 122.5l64 359h-103z" />
<glyph unicode="&#x168;" horiz-adv-x="1406" d="M166 514l164 920h133l-164 -928q-13 -73 -15 -130.5t12.5 -111.5t48 -89.5t95.5 -57t150 -21.5q395 0 469 410l164 928h133l-166 -936q-93 -521 -600 -521q-517 0 -424 537zM580 1610q52 78 92 111.5t96 33.5q36 0 71.5 -15.5t59 -34.5t51.5 -34.5t51 -15.5q24 0 49 18.5 t66 75.5l74 -45q-56 -80 -95 -112.5t-96 -32.5q-44 0 -87 25t-79.5 50t-64.5 25q-25 0 -50 -17.5t-67 -74.5z" />
<glyph unicode="&#x169;" d="M106 313l136 762h127l-131 -749q-45 -240 151 -240q106 0 238 62t215 126l143 801h127l-190 -1075h-127l26 152q-90 -63 -217 -119t-246 -56q-155 0 -217.5 93t-34.5 243zM424 1300q53 78 92.5 112t95.5 34q45 0 88.5 -25t80.5 -50t65 -25q24 0 49 18.5t66 75.5l73 -45 q-57 -81 -95 -113.5t-95 -32.5q-44 0 -87.5 25.5t-80 50.5t-64.5 25q-24 0 -49 -18t-67 -75z" />
<glyph unicode="&#x16a;" horiz-adv-x="1406" d="M166 514l164 920h133l-164 -928q-13 -73 -15 -130.5t12.5 -111.5t48 -89.5t95.5 -57t150 -21.5q395 0 469 410l164 928h133l-166 -936q-93 -521 -600 -521q-517 0 -424 537zM578 1591l16 95h584l-17 -95h-583z" />
<glyph unicode="&#x16b;" d="M106 313l136 762h127l-131 -749q-45 -240 151 -240q106 0 238 62t215 126l143 801h127l-190 -1075h-127l26 152q-90 -63 -217 -119t-246 -56q-155 0 -217.5 93t-34.5 243zM416 1282l16 94h584l-17 -94h-583z" />
<glyph unicode="&#x16c;" horiz-adv-x="1406" d="M166 514l164 920h133l-164 -928q-13 -73 -15 -130.5t12.5 -111.5t48 -89.5t95.5 -57t150 -21.5q395 0 469 410l164 928h133l-166 -936q-93 -521 -600 -521q-517 0 -424 537zM625 1751h100q-7 -62 25.5 -89.5t111.5 -27.5q84 0 140 28.5t67 88.5h105q-17 -98 -99.5 -154.5 t-214.5 -56.5q-125 0 -188.5 57.5t-46.5 153.5z" />
<glyph unicode="&#x16d;" d="M106 313l136 762h127l-131 -749q-45 -240 151 -240q106 0 238 62t215 126l143 801h127l-190 -1075h-127l26 152q-90 -63 -217 -119t-246 -56q-155 0 -217.5 93t-34.5 243zM467 1442h100q-7 -62 26 -89.5t112 -27.5q83 0 139 28.5t67 88.5h105q-17 -98 -99.5 -154.5 t-214.5 -56.5q-125 0 -188.5 57.5t-46.5 153.5z" />
<glyph unicode="&#x16e;" horiz-adv-x="1406" d="M166 514l164 920h133l-164 -928q-13 -73 -15 -130.5t12.5 -111.5t48 -89.5t95.5 -57t150 -21.5q395 0 469 410l164 928h133l-166 -936q-93 -521 -600 -521q-517 0 -424 537zM688 1726q0 88 60.5 148.5t146.5 60.5q87 0 148 -61t61 -148q0 -86 -61 -146t-148 -60 q-86 0 -146.5 60t-60.5 146zM772 1726q0 -52 35 -87t88 -35t89 35t36 87q0 54 -36 90.5t-89 36.5q-52 0 -87.5 -36.5t-35.5 -90.5z" />
<glyph unicode="&#x16f;" d="M106 313l136 762h127l-131 -749q-45 -240 151 -240q106 0 238 62t215 126l143 801h127l-190 -1075h-127l26 152q-90 -63 -217 -119t-246 -56q-155 0 -217.5 93t-34.5 243zM528 1417q0 88 60.5 148.5t146.5 60.5q87 0 148 -61t61 -148q0 -86 -61.5 -146.5t-147.5 -60.5 t-146.5 60.5t-60.5 146.5zM612 1417q0 -53 35 -88t88 -35t89 35.5t36 87.5q0 54 -36 90.5t-89 36.5q-52 0 -87.5 -36.5t-35.5 -90.5z" />
<glyph unicode="&#x170;" horiz-adv-x="1406" d="M166 514l164 920h133l-164 -928q-13 -73 -15 -130.5t12.5 -111.5t48 -89.5t95.5 -57t150 -21.5q395 0 469 410l164 928h133l-166 -936q-93 -521 -600 -521q-517 0 -424 537zM639 1540l190 262h183l-285 -262h-88zM930 1540l188 262h182l-282 -262h-88z" />
<glyph unicode="&#x171;" d="M106 313l136 762h127l-131 -749q-45 -240 151 -240q106 0 238 62t215 126l143 801h127l-190 -1075h-127l26 152q-90 -63 -217 -119t-246 -56q-155 0 -217.5 93t-34.5 243zM477 1231l191 262h182l-285 -262h-88zM768 1231l188 262h183l-283 -262h-88z" />
<glyph unicode="&#x172;" horiz-adv-x="1406" d="M166 514l164 920h133l-164 -928q-13 -73 -15 -130.5t12.5 -111.5t48 -89.5t95.5 -57t150 -21.5q395 0 469 410l164 928h133l-166 -936q-76 -409 -406 -498q-129 -62 -186 -112t-57 -103q0 -18 9 -30t20 -18t34 -9t36 -3.5t41 -0.5h13l-32 -91q-27 0 -45 1t-49.5 4.5 t-52.5 12t-43 23t-33 39t-11 56.5q0 116 186 208h-24q-517 0 -424 537z" />
<glyph unicode="&#x173;" d="M106 313l136 762h127l-131 -749q-45 -240 151 -240q106 0 238 62t215 126l143 801h127l-190 -1075h-7q-129 -62 -186 -112t-57 -103q0 -18 9 -30t20 -18t34 -9t36 -3.5t41 -0.5h13l-32 -91q-27 0 -45 1t-49.5 4.5t-52.5 12t-43 23t-33 39t-11 56.5q0 70 60.5 125 t175.5 106l26 152q-90 -63 -217 -119t-246 -56q-155 0 -217.5 93t-34.5 243z" />
<glyph unicode="&#x174;" horiz-adv-x="1878" d="M217 1434h143l97 -1268l559 1268h135l100 -1280l547 1280h154l-645 -1434h-150l-104 1249l-547 -1249h-150zM823 1540l242 262h166l153 -262h-94l-147 184l-211 -184h-109z" />
<glyph unicode="&#x175;" horiz-adv-x="1628" d="M154 1075h133l102 -936l442 936h125l103 -940l436 940h141l-524 -1075h-131l-109 918l-442 -918h-131zM643 1231l242 262h166l153 -262h-94l-147 184l-211 -184h-109z" />
<glyph unicode="&#x177;" horiz-adv-x="1107" d="M-33 -315q173 55 247.5 113.5t156.5 201.5l-238 1075h133l191 -919l516 919h145l-618 -1075q-94 -163 -130 -211q-70 -92 -177 -144q-73 -36 -193 -71zM375 1231l241 262h166l154 -262h-94l-148 184l-211 -184h-108z" />
<glyph unicode="&#x178;" horiz-adv-x="1261" d="M182 1434h142l305 -762l571 762h160l-672 -863l-102 -571h-133l102 567zM553 1561l31 178h147l-31 -178h-147zM889 1561l33 178h145l-33 -178h-145z" />
<glyph unicode="&#x179;" horiz-adv-x="1218" d="M-33 0l21 109l1081 1208h-823l20 117h996l-19 -109l-1087 -1208h882l-18 -117h-1053zM639 1540l281 262h210l-374 -262h-117z" />
<glyph unicode="&#x17a;" horiz-adv-x="1007" d="M-25 0l19 104l811 861h-637l18 110h801l-18 -104l-807 -860h655l-20 -111h-822zM461 1231l280 262h211l-374 -262h-117z" />
<glyph unicode="&#x17b;" horiz-adv-x="1218" d="M-33 0l21 109l1081 1208h-823l20 117h996l-19 -109l-1087 -1208h882l-18 -117h-1053zM713 1561l32 178h148l-33 -178h-147z" />
<glyph unicode="&#x17c;" horiz-adv-x="1007" d="M-25 0l19 104l811 861h-637l18 110h801l-18 -104l-807 -860h655l-20 -111h-822zM532 1251l33 179h148l-33 -179h-148z" />
<glyph unicode="&#x17d;" horiz-adv-x="1218" d="M-33 0l21 109l1081 1208h-823l20 117h996l-19 -109l-1087 -1208h882l-18 -117h-1053zM545 1802h94l149 -182l209 182h109l-242 -262h-166z" />
<glyph unicode="&#x17e;" horiz-adv-x="1007" d="M-25 0l19 104l811 861h-637l18 110h801l-18 -104l-807 -860h655l-20 -111h-822zM369 1493h94l149 -182l209 182h109l-242 -262h-166z" />
<glyph unicode="&#x17f;" horiz-adv-x="581" d="M-180 -319q49 14 83.5 25t64 27t47.5 26.5t34.5 33.5t24.5 37.5t17.5 50t14 59.5t13.5 76l168 957h-146l21 102h143l33 180q22 129 77.5 183.5t164.5 54.5q64 0 156.5 -24t148.5 -46l-60 -90q-41 13 -118 30t-115 17q-58 0 -86.5 -33t-40.5 -92l-217 -1235 q-32 -173 -53 -228q-34 -86 -113 -133q-73 -43 -232 -85z" />
<glyph unicode="&#x192;" horiz-adv-x="1077" d="M-102 -418l575 1391h-149l41 102h149l76 180q57 137 119 187.5t159 50.5q117 0 312 -80l-78 -86q-170 53 -230 51q-102 0 -151 -116l-78 -187h293l-41 -102h-293l-575 -1391h-129z" />
<glyph unicode="&#x1fc;" horiz-adv-x="1986" d="M-119 0l1235 1434h897l-20 -117h-736l-94 -543h609l-21 -115h-608l-99 -542h750l-20 -117h-883l65 373h-585l-314 -373h-176zM467 487h510l135 766zM1106 1540l280 262h211l-374 -262h-117z" />
<glyph unicode="&#x1fd;" horiz-adv-x="1886" d="M90 354q0 212 62.5 381t177.5 266t262 97q180 0 369 -180l28 157h129l-14 -80q144 103 334 103q167 0 259.5 -77.5t92.5 -197.5q0 -172 -171.5 -263t-514.5 -91h-127v-31q0 -169 71 -261.5t203 -92.5q52 0 107.5 13t115 40.5t86.5 42t79 44.5l6 3t5 3t5 3l55 -96 q-152 -84 -243 -117q-123 -43 -228 -43q-190 0 -293 127l-18 -104h-129l30 174q-87 -82 -197.5 -139.5t-228.5 -57.5q-61 0 -114.5 20t-99.5 62.5t-72.5 118t-26.5 176.5zM223 367q0 -131 52.5 -206t150.5 -75q114 0 213 57t213 160l2 19q-8 49 -8 122q0 209 90 365 q-166 178 -326 178q-88 0 -162.5 -53t-123 -141t-75 -198.5t-26.5 -227.5zM936 1231l281 262h210l-374 -262h-117zM987 563h131q272 0 406.5 68.5t134.5 191.5q0 80 -63.5 125t-163.5 45q-165 0 -288 -120t-157 -310z" />
<glyph unicode="&#x1fe;" horiz-adv-x="1484" d="M45 0l174 193q-96 144 -96 382q0 81 12.5 165.5t40.5 171t69 166t99.5 148.5t128.5 120t161 80.5t193 29.5q264 0 404 -143l108 121h125l-174 -193q96 -146 99 -385q1 -94 -17.5 -193t-55 -198.5t-96 -186.5t-135.5 -154.5t-180 -107t-223 -39.5q-261 0 -403 142 l-107 -119h-127zM260 573q0 -171 51 -278l834 924q-103 118 -314 118q-115 0 -212.5 -51.5t-162 -133t-110 -184t-66 -203t-20.5 -192.5zM365 213q104 -119 315 -119q115 0 212.5 51.5t162 133t110 184t66 203t20.5 192.5q0 170 -53 281zM756 1540l280 262h211l-375 -262 h-116z" />
<glyph unicode="&#x1ff;" horiz-adv-x="1216" d="M29 0l137 147q-82 118 -82 291q0 184 67.5 334t192 238t283.5 88q203 0 323 -105l76 82h121l-137 -147q82 -118 82 -291q0 -184 -68 -334t-192.5 -238t-282.5 -88q-204 0 -324 105l-75 -82h-121zM213 438q0 -117 39 -196l616 663q-84 84 -241 84q-124 0 -220.5 -80 t-145 -204t-48.5 -267zM305 168q85 -82 242 -82q124 0 220.5 80t145 204t48.5 267q0 115 -39 194zM561 1231l281 262h211l-375 -262h-117z" />
<glyph unicode="&#x218;" horiz-adv-x="1216" d="M14 154l78 98q255 -158 467 -158q160 0 269.5 77.5t109.5 205.5q0 49 -21.5 91t-42.5 67t-83 57.5t-88 43.5t-114 45q-15 6 -22 9q-51 21 -82 34.5t-74 36t-68.5 41.5t-54.5 47t-44.5 58.5t-26 70t-10.5 85.5q0 120 65.5 211t174.5 136.5t243 45.5q130 0 260 -41.5 t234 -101.5l-78 -92q-92 51 -208 84.5t-212 33.5q-142 0 -241 -71t-99 -197q0 -52 15 -88t64 -68.5t81.5 -47.5t125.5 -52q29 -12 44 -18q53 -21 87 -36t80.5 -38.5t75.5 -45t61.5 -52.5t50.5 -64t30 -76.5t12 -93.5q0 -99 -43 -179t-116 -130.5t-164 -77.5t-191 -27 q-149 0 -292.5 52.5t-252.5 124.5zM324 -494l114 179h-67l32 182h142l-13 -186l-167 -222z" />
<glyph unicode="&#x219;" horiz-adv-x="1026" d="M8 117l72 88q208 -121 375 -121q113 0 197.5 54t84.5 149q0 25 -7.5 47t-17.5 38t-32 32t-37.5 25t-49.5 22t-51.5 19t-58.5 19q-19 6 -28 9q-45 15 -74 26t-69.5 29.5t-66 39.5t-50 50t-36.5 67t-12 83q0 95 54.5 165.5t142 105t193.5 34.5q110 0 219.5 -35.5 t187.5 -81.5l-67 -88q-177 98 -336 98q-112 0 -188.5 -50.5t-76.5 -137.5q0 -21 4 -39t15 -33t20 -26.5t28.5 -23.5t31.5 -19t37.5 -16.5t37.5 -14t41.5 -14t40.5 -13.5q175 -58 255.5 -124.5t80.5 -184.5q0 -101 -58.5 -175t-150 -108.5t-202.5 -34.5q-125 0 -242 42 t-207 98zM227 -494l115 179h-68l33 182h142l-13 -186l-168 -222z" />
<glyph unicode="&#x21a;" horiz-adv-x="1134" d="M170 1317l20 117h1043l-21 -117h-454l-234 -1317h-133l232 1317h-453zM285 -494l114 179h-67l33 182h141l-12 -186l-168 -222z" />
<glyph unicode="&#x21b;" horiz-adv-x="737" d="M43 -494l115 179h-68l33 182h141l-12 -186l-168 -222zM115 973l20 102h146l47 271l135 40l-55 -311h297l-21 -102h-295l-135 -764q-11 -65 11 -92t71 -27q61 0 223 62l35 -105q-49 -20 -136 -45t-141 -25q-46 0 -82 11.5t-66.5 40.5t-39 77.5t1.5 122.5l131 744h-147z " />
<glyph unicode="&#x2b0;" horiz-adv-x="802" d="M156 788l157 895h107l-60 -335q154 100 281 100q100 0 141 -57t25 -152l-80 -451h-106l77 441q25 133 -88 133q-64 0 -140.5 -34.5t-125.5 -72.5l-82 -467h-106z" />
<glyph unicode="&#x2b2;" horiz-adv-x="354" d="M-12 608q59 17 91.5 30t51 32t24 35.5t11.5 52.5l119 676h106l-119 -670q-7 -43 -11.5 -61.5t-15.5 -47t-26 -41.5t-42.5 -31t-67 -30.5t-97.5 -26.5zM301 1561l21 120h118l-22 -120h-117z" />
<glyph unicode="&#x2b7;" horiz-adv-x="1069" d="M217 1434h111l59 -539l260 539h98l64 -541l252 541h115l-326 -646h-105l-67 525l-260 -525h-103z" />
<glyph unicode="&#x2b8;" horiz-adv-x="731" d="M102 612q104 32 150 64t94 112l-153 646h110l113 -525l299 525h123l-383 -646q-33 -57 -48 -80t-43.5 -58t-56.5 -52t-72 -36.5t-106 -35.5z" />
<glyph unicode="&#x2c6;" horiz-adv-x="550" d="M213 1231l242 262h166l153 -262h-94l-148 184l-210 -184h-109z" />
<glyph unicode="&#x2c7;" horiz-adv-x="555" d="M260 1493h94l150 -182l209 182h108l-241 -262h-166z" />
<glyph unicode="&#x2d8;" horiz-adv-x="542" d="M252 1442h100q-7 -62 25.5 -89.5t111.5 -27.5q84 0 140 28.5t67 88.5h105q-17 -98 -99.5 -154.5t-214.5 -56.5q-125 0 -188.5 57.5t-46.5 153.5z" />
<glyph unicode="&#x2d9;" horiz-adv-x="153" d="M221 1251l33 179h147l-32 -179h-148z" />
<glyph unicode="&#x2da;" horiz-adv-x="440" d="M123 1417q0 88 60.5 148.5t146.5 60.5q87 0 148 -61t61 -148q0 -86 -61.5 -146.5t-147.5 -60.5t-146.5 60.5t-60.5 146.5zM207 1417q0 -53 35.5 -88t87.5 -35q53 0 89 35.5t36 87.5q0 54 -36 90.5t-89 36.5q-52 0 -87.5 -36.5t-35.5 -90.5z" />
<glyph unicode="&#x2db;" horiz-adv-x="305" d="M-51 -231q0 77 73.5 137t215.5 117l71 -21q-132 -64 -190 -114t-58 -103q0 -15 5 -26t17.5 -17.5t22.5 -10.5t30.5 -5.5t31 -1.5h34.5h13l-33 -91q-27 0 -45 1t-49.5 4.5t-52 12t-42.5 23t-33 39t-11 56.5z" />
<glyph unicode="&#x2dc;" horiz-adv-x="591" d="M225 1300q52 78 92.5 112t96.5 34q36 0 71.5 -15.5t59 -34.5t51.5 -34.5t51 -15.5q24 0 49 18.5t66 75.5l74 -45q-56 -80 -95 -113t-96 -33q-35 0 -70 16t-58.5 34.5t-51.5 34.5t-51 16q-25 0 -50 -18t-67 -75z" />
<glyph unicode="&#x2dd;" horiz-adv-x="612" d="M215 1231l191 262h182l-285 -262h-88zM506 1231l188 262h183l-283 -262h-88z" />
<glyph unicode="&#x2e3;" horiz-adv-x="759" d="M78 788l340 324l-213 322h119l155 -265l250 265h137l-325 -322l223 -324h-115l-170 271l-260 -271h-141z" />
<glyph unicode="&#x3c0;" horiz-adv-x="1136" d="M129 961l21 114h991l-21 -114h-182l-170 -961h-123l170 961h-383l-170 -961h-123l170 961h-180z" />
<glyph unicode="&#x1e80;" horiz-adv-x="1878" d="M217 1434h143l97 -1268l559 1268h135l100 -1280l547 1280h154l-645 -1434h-150l-104 1249l-547 -1249h-150zM850 1802h186l211 -262h-102z" />
<glyph unicode="&#x1e81;" horiz-adv-x="1628" d="M154 1075h133l102 -936l442 936h125l103 -940l436 940h141l-524 -1075h-131l-109 918l-442 -918h-131zM670 1493h186l211 -262h-102z" />
<glyph unicode="&#x1e82;" horiz-adv-x="1878" d="M217 1434h143l97 -1268l559 1268h135l100 -1280l547 1280h154l-645 -1434h-150l-104 1249l-547 -1249h-150zM961 1540l280 262h211l-375 -262h-116z" />
<glyph unicode="&#x1e83;" horiz-adv-x="1628" d="M154 1075h133l102 -936l442 936h125l103 -940l436 940h141l-524 -1075h-131l-109 918l-442 -918h-131zM780 1231l281 262h211l-375 -262h-117z" />
<glyph unicode="&#x1e84;" horiz-adv-x="1878" d="M217 1434h143l97 -1268l559 1268h135l100 -1280l547 1280h154l-645 -1434h-150l-104 1249l-547 -1249h-150zM860 1538l31 178h147l-30 -178h-148zM1196 1538l33 178h145l-33 -178h-145z" />
<glyph unicode="&#x1e85;" horiz-adv-x="1628" d="M154 1075h133l102 -936l442 936h125l103 -940l436 940h141l-524 -1075h-131l-109 918l-442 -918h-131zM686 1251l31 179h147l-30 -179h-148zM1022 1251l33 179h145l-33 -179h-145z" />
<glyph unicode="&#x1e9e;" horiz-adv-x="1609" d="M82 0l168 946q86 488 514 488h678l-17 -97l-518 -491q125 -7 223 -36t160 -70t102.5 -95.5t57 -109.5t16.5 -115q0 -84 -31.5 -160.5t-93.5 -141t-168.5 -103t-242.5 -38.5q-260 0 -498 144l74 98q210 -125 412 -125q103 0 184.5 28.5t130 75.5t73.5 102.5t25 115.5 q0 43 -12.5 83.5t-47.5 85t-89.5 76.5t-147.5 53t-213 21h-108l14 96l512 486h-473q-316 0 -385 -381l-166 -936h-133z" />
<glyph unicode="&#x1ef2;" horiz-adv-x="1261" d="M182 1434h142l305 -762l571 762h160l-672 -863l-102 -571h-133l102 567zM539 1802h186l211 -262h-102z" />
<glyph unicode="&#x1ef3;" horiz-adv-x="1107" d="M-33 -315q173 55 247.5 113.5t156.5 201.5l-238 1075h133l191 -919l516 919h145l-618 -1075q-94 -163 -130 -211q-70 -92 -177 -144q-73 -36 -193 -71zM401 1493h187l211 -262h-103z" />
<glyph unicode="&#x2000;" horiz-adv-x="967" />
<glyph unicode="&#x2001;" horiz-adv-x="1935" />
<glyph unicode="&#x2002;" horiz-adv-x="967" />
<glyph unicode="&#x2003;" horiz-adv-x="1935" />
<glyph unicode="&#x2004;" horiz-adv-x="645" />
<glyph unicode="&#x2005;" horiz-adv-x="483" />
<glyph unicode="&#x2006;" horiz-adv-x="322" />
<glyph unicode="&#x2007;" horiz-adv-x="322" />
<glyph unicode="&#x2008;" horiz-adv-x="241" />
<glyph unicode="&#x2009;" horiz-adv-x="387" />
<glyph unicode="&#x200a;" horiz-adv-x="107" />
<glyph unicode="&#x2010;" horiz-adv-x="970" d="M141 524l19 117h555l-19 -117h-555z" />
<glyph unicode="&#x2011;" horiz-adv-x="970" d="M141 524l19 117h555l-19 -117h-555z" />
<glyph unicode="&#x2012;" horiz-adv-x="970" d="M141 524l19 117h555l-19 -117h-555z" />
<glyph unicode="&#x2013;" horiz-adv-x="1214" d="M141 526l19 115h823l-20 -115h-822z" />
<glyph unicode="&#x2014;" horiz-adv-x="1439" d="M141 526l19 115h1030l-19 -115h-1030z" />
<glyph unicode="&#x2018;" horiz-adv-x="473" d="M215 999l18 226l187 250l41 -52l-125 -206h76l-39 -218h-158z" />
<glyph unicode="&#x2019;" horiz-adv-x="456" d="M205 1010l125 207h-76l39 217h158l-19 -226l-186 -250z" />
<glyph unicode="&#x201a;" horiz-adv-x="487" d="M-6 -207l125 207h-76l39 217h158l-19 -225l-186 -250z" />
<glyph unicode="&#x201c;" horiz-adv-x="819" d="M215 999l18 226l187 250l41 -52l-125 -206h76l-39 -218h-158zM561 999l19 226l186 250l41 -52l-125 -206h76l-39 -218h-158z" />
<glyph unicode="&#x201d;" horiz-adv-x="802" d="M205 1010l125 207h-76l39 217h158l-19 -226l-186 -250zM549 1010l125 207h-76l39 217h158l-19 -226l-186 -250z" />
<glyph unicode="&#x201e;" horiz-adv-x="835" d="M-6 -207l125 207h-76l39 217h158l-19 -225l-186 -250zM340 -207l125 207h-76l39 217h158l-19 -225l-186 -250z" />
<glyph unicode="&#x2020;" horiz-adv-x="1138" d="M94 823l23 119l452 -16l90 508h107l-90 -508l463 16l-21 -119l-459 17l-221 -1258h-106l221 1258z" />
<glyph unicode="&#x2021;" horiz-adv-x="1239" d="M45 287l23 119l454 -17l80 451l-463 -17l23 119l454 -16l91 508h106l-90 -508l463 16l-23 -119l-454 17l-80 -451l463 17l-23 -119l-457 16l-127 -721h-106l127 721z" />
<glyph unicode="&#x2022;" horiz-adv-x="862" d="M176 582q0 102 70.5 173.5t171.5 71.5q102 0 174 -71.5t72 -173.5q0 -101 -71.5 -172.5t-174.5 -71.5q-101 0 -171.5 71.5t-70.5 172.5z" />
<glyph unicode="&#x2026;" horiz-adv-x="1263" d="M43 0l39 217h160l-37 -217h-162zM432 0l39 217h160l-37 -217h-162zM819 0l39 217h160l-37 -217h-162z" />
<glyph unicode="&#x202f;" horiz-adv-x="387" />
<glyph unicode="&#x2030;" horiz-adv-x="2830" d="M160 1006q0 196 112 323t285 127q162 0 253 -85t91 -232q0 -197 -110.5 -324t-284.5 -127q-162 0 -254 85.5t-92 232.5zM279 1010q0 -228 233 -228q119 0 195.5 105.5t76.5 247.5q0 227 -227 227q-123 0 -200.5 -105t-77.5 -247zM453 0l999 1434h125l-1004 -1434h-120z M1126 295q0 196 112 323t284 127q162 0 253 -85t91 -232q0 -197 -109.5 -324t-283.5 -127q-162 0 -254.5 85.5t-92.5 232.5zM1243 299q0 -227 234 -227q120 0 197 105t77 247q0 227 -229 227q-122 0 -200.5 -105t-78.5 -247zM1980 295q0 197 111.5 323.5t284.5 126.5 q162 0 253 -85t91 -232q0 -198 -110 -324.5t-286 -126.5q-161 0 -252.5 85.5t-91.5 232.5zM2097 299q0 -227 234 -227q120 0 197 105t77 247q0 227 -229 227q-122 0 -200.5 -105t-78.5 -247z" />
<glyph unicode="&#x2039;" horiz-adv-x="813" d="M59 535l15 88l700 460l-26 -147l-562 -371l432 -366l-22 -123z" />
<glyph unicode="&#x203a;" horiz-adv-x="817" d="M23 72l26 147l561 371l-432 366l23 123l536 -458l-14 -89z" />
<glyph unicode="&#x2044;" horiz-adv-x="344" d="M-319 0l927 1434h121l-928 -1434h-120z" />
<glyph unicode="&#x205f;" horiz-adv-x="483" />
<glyph unicode="&#x2070;" horiz-adv-x="868" d="M199 1110q0 54 9 112.5t28 121.5t51.5 119.5t74.5 101.5t102.5 71.5t131.5 26.5q68 0 122 -19.5t88.5 -52t58 -76.5t33 -90.5t9.5 -97.5q0 -66 -12.5 -137t-42.5 -146.5t-74 -134.5t-113.5 -97t-154.5 -38q-68 0 -122 19.5t-88.5 52t-58 76.5t-33 90.5t-9.5 97.5z M307 1098q0 -43 9 -81.5t30 -75t63 -58t101 -21.5q62 0 113.5 36t82.5 90t52.5 121t30 124.5t8.5 105.5q0 34 -5 64.5t-18.5 63t-35 55.5t-58 38t-84.5 15q-77 0 -136.5 -53t-91 -132.5t-46.5 -154.5t-15 -137z" />
<glyph unicode="&#x2074;" horiz-adv-x="823" d="M125 979l12 80l535 590h145l-102 -580h133l-17 -90h-133l-32 -191h-109l33 191h-465zM264 1069h342l84 479z" />
<glyph unicode="&#x2075;" horiz-adv-x="765" d="M127 872l57 72q122 -76 226 -76q97 0 174.5 58t77.5 155q0 74 -46.5 119t-132.5 45q-87 0 -194 -55l-62 35l123 424h488l-17 -93h-397l-64 -249q72 28 148 28q124 0 195 -72t71 -182q0 -128 -97 -217.5t-257 -89.5q-156 0 -293 98z" />
<glyph unicode="&#x2076;" horiz-adv-x="823" d="M197 1081q0 157 72 290.5t198.5 212.5t277.5 79q36 0 69.5 -5.5t49.5 -10.5l15 -5l-39 -79q-37 8 -90 8q-143 0 -256.5 -89.5t-161.5 -232.5q100 90 239 90q126 0 197.5 -72.5t71.5 -174.5q0 -128 -91.5 -223t-246.5 -95q-147 0 -226 90.5t-79 216.5zM305 1077 q0 -87 50 -149t143 -62q106 0 168.5 66.5t62.5 159.5q0 65 -45.5 113t-132.5 48q-79 0 -146.5 -40t-97.5 -85q-2 -16 -2 -51z" />
<glyph unicode="&#x2077;" horiz-adv-x="673" d="M221 788q19 102 71.5 217.5t109 202.5t122 171.5t98.5 121t52 55.5h-447l17 93h573l-12 -84q-16 -16 -43 -44.5t-99 -116.5t-130.5 -175.5t-115.5 -209.5t-77 -231h-119z" />
<glyph unicode="&#x2078;" horiz-adv-x="831" d="M160 993q0 173 260 264q-125 66 -125 181q0 99 86.5 162t216.5 63q119 0 190.5 -52.5t71.5 -140.5q0 -140 -211 -223q185 -80 185 -219q0 -111 -109 -182.5t-262 -71.5q-139 0 -221 57t-82 162zM270 997q0 -66 51.5 -100.5t137.5 -34.5q102 0 180 47.5t78 120.5 q0 34 -16 62.5t-45.5 50.5t-57.5 37t-66 30q-42 -13 -74.5 -25t-69.5 -31.5t-61.5 -41t-40.5 -51.5t-16 -64zM401 1430q0 -28 12 -51t36.5 -40t41 -26t44.5 -21q46 13 80 26.5t67.5 33.5t51.5 47t18 59q0 51 -42.5 86t-111.5 35q-80 0 -138.5 -44t-58.5 -105z" />
<glyph unicode="&#x2079;" horiz-adv-x="823" d="M176 795l39 79q37 -8 90 -8q141 0 255.5 89t162.5 231q-98 -88 -240 -88q-126 0 -196 72t-70 173q0 83 37.5 154.5t115.5 118.5t181 47q100 0 171.5 -45.5t103.5 -114t32 -149.5q0 -156 -72 -289t-199 -212t-278 -79q-36 0 -69 5t-48 11zM324 1346q0 -65 46 -113.5 t132 -48.5q83 0 153.5 43.5t94.5 89.5q2 14 2 43q0 86 -51 148.5t-144 62.5q-106 0 -169.5 -66.5t-63.5 -158.5z" />
<glyph unicode="&#x207a;" horiz-adv-x="849" d="M213 1157l14 82h277l41 238h88l-43 -238h274l-14 -82h-275l-40 -237h-86l40 237h-276z" />
<glyph unicode="&#x207d;" horiz-adv-x="421" d="M147.5 740q-3.5 42 8.5 104l131 745q9 47 16 71t23 51.5t43 43.5t70 32.5t110 31.5l22 -72q-103 -30 -133 -57.5t-41 -92.5l-135 -763q-6 -35 -7 -51.5t1.5 -33.5t16.5 -26.5t34.5 -19.5t59.5 -23l-29 -68q-100 26 -143.5 56t-47 72z" />
<glyph unicode="&#x207e;" horiz-adv-x="415" d="M70 684q103 30 133 57.5t41 92.5l135 763q6 35 7 51.5t-1.5 33.5t-16.5 26.5t-34.5 19.5t-59.5 23l29 68q100 -26 143.5 -56t47 -72t-8.5 -104l-131 -745q-9 -47 -16 -71t-23 -51.5t-43 -43.5t-70 -32.5t-110 -31.5z" />
<glyph unicode="&#x207f;" horiz-adv-x="802" d="M156 788l114 646h107l-17 -86q154 100 281 100q100 0 141 -57t25 -152l-80 -451h-106l77 441q25 133 -88 133q-63 0 -139 -33.5t-127 -71.5l-82 -469h-106z" />
<glyph unicode="&#x2080;" horiz-adv-x="868" d="M86 14q0 54 9 112.5t28 121.5t51.5 119.5t74.5 101.5t102.5 71.5t131.5 26.5q84 0 146.5 -29t97.5 -78.5t51.5 -107t16.5 -121.5q0 -66 -12.5 -137.5t-43 -146.5t-74.5 -134t-113.5 -97t-154.5 -38q-68 0 -122 19.5t-88.5 52t-58 76.5t-33 90.5t-9.5 97.5zM195 2 q0 -44 8.5 -81.5t29.5 -74t63 -58t101 -21.5q62 0 113.5 36t82.5 90t52.5 121t30 124.5t8.5 105.5q0 44 -8.5 81.5t-29 74t-62.5 58t-101 21.5q-62 0 -113.5 -36t-83 -90t-53 -121t-30 -124.5t-8.5 -105.5z" />
<glyph unicode="&#x2081;" horiz-adv-x="493" d="M111 438l235 115h98l-151 -860h-111l135 747l-170 -82z" />
<glyph unicode="&#x2082;" horiz-adv-x="761" d="M0 -307l10 69q6 33 15 62t26.5 55.5t29.5 45t41 42.5t41.5 35.5t51.5 35.5t50.5 30.5l57.5 32.5q8 5 12 7t11 6t12 7q51 30 80 48t66.5 45t57 48t33.5 48.5t13 54.5q-2 49 -42 79.5t-113 30.5q-67 0 -134 -24t-114 -54l-43 78q148 92 299 92q119 0 188.5 -54t69.5 -148 q0 -56 -24.5 -103.5t-84.5 -94.5t-98 -71t-127 -73q-25 -14 -37 -21q-105 -61 -150 -104.5t-59 -112.5h477l-16 -92h-600z" />
<glyph unicode="&#x2083;" horiz-adv-x="778" d="M-2 -223l57 73q126 -79 254 -79q106 0 174 51t68 127q0 82 -74 124t-180 42h-43l16 94h47q102 0 184.5 48t82.5 116q0 47 -40 74.5t-106 27.5q-104 0 -235 -72l-39 78q148 86 291 86q112 0 176.5 -51t64.5 -129q0 -68 -54 -129t-159 -96q74 -16 126.5 -76t52.5 -139 q0 -110 -91 -189.5t-256 -79.5q-73 0 -145 21t-100 36t-72 42z" />
<glyph unicode="&#x2084;" horiz-adv-x="823" d="M14 -117l13 80l534 590h146l-103 -580h133l-16 -90h-133l-33 -190h-109l33 190h-465zM154 -27h342l84 480z" />
<glyph unicode="&#x2085;" horiz-adv-x="765" d="M16 -223l58 71q121 -75 225 -75q97 0 174.5 58t77.5 155q0 74 -46.5 119t-131.5 45q-86 0 -195 -56l-61 35l123 424h487l-16 -92h-398l-63 -250q74 29 147 29q124 0 195.5 -72t71.5 -182q0 -128 -97.5 -218t-257.5 -90q-154 0 -293 99z" />
<glyph unicode="&#x2086;" horiz-adv-x="823" d="M86 -14q0 117 42.5 224t115.5 185.5t175 125t216 46.5q36 0 69 -5t48 -10l16 -5l-39 -80q-37 8 -90 8q-143 0 -256.5 -89t-161.5 -232q100 90 240 90q125 0 196.5 -73t71.5 -175q0 -128 -91.5 -223t-246.5 -95q-147 0 -226 91t-79 217zM195 -18q0 -87 50 -149t142 -62 q106 0 168.5 66t62.5 159q0 65 -45.5 113.5t-132.5 48.5q-79 0 -146 -40t-97 -85q-2 -16 -2 -51z" />
<glyph unicode="&#x2087;" horiz-adv-x="673" d="M111 -307q19 102 71.5 217.5t108.5 202.5t121.5 171t99 121.5t51.5 55.5h-446l16 92h574l-13 -84q-16 -16 -43 -44.5t-99 -116t-130.5 -175t-115.5 -209.5t-77 -231h-118z" />
<glyph unicode="&#x2088;" horiz-adv-x="831" d="M49 -102q0 173 260 264q-125 66 -125 180q0 99 86.5 162t216.5 63q119 0 191 -52.5t72 -139.5q0 -140 -211 -223q184 -80 184 -220q0 -111 -109 -182.5t-262 -71.5q-139 0 -221 57.5t-82 162.5zM160 -98q0 -66 51 -100.5t137 -34.5q102 0 180 47.5t78 119.5 q0 34 -16 62.5t-45 50.5t-57 37.5t-66 30.5q-42 -13 -74.5 -25t-69.5 -31.5t-61.5 -41t-40.5 -51.5t-16 -64zM291 334q0 -28 12 -51t36.5 -40t40 -25.5t44.5 -20.5q46 13 79.5 26.5t67.5 33.5t52 46.5t18 58.5q0 51 -42.5 86t-111.5 35q-80 0 -138 -44t-58 -105z" />
<glyph unicode="&#x2089;" horiz-adv-x="823" d="M66 -301l38 80q38 -8 91 -8q141 0 255 88.5t162 230.5q-98 -88 -239 -88q-126 0 -196.5 72.5t-70.5 173.5q0 129 90 224t244 95q100 0 171.5 -45.5t104 -114t32.5 -149.5q0 -156 -72 -289t-199 -212t-278 -79q-36 0 -69 5t-48 11zM213 250q0 -65 46 -113.5t132 -48.5 q83 0 153.5 43.5t94.5 89.5q2 14 2 43q0 86 -51 148.5t-144 62.5q-106 0 -169.5 -66.5t-63.5 -158.5z" />
<glyph unicode="&#x208a;" horiz-adv-x="849" d="M102 61l15 82h276l41 238h88l-43 -238h275l-15 -82h-274l-41 -237h-86l41 237h-277z" />
<glyph unicode="&#x208d;" horiz-adv-x="421" d="M36 -356q-4 42 9 104l131 746q7 39 12.5 60t17.5 46.5t28 39.5t43.5 30t66 28t94.5 25l23 -72q-103 -30 -133 -57t-41 -92l-135 -764q-16 -74 0 -99t104 -55l-29 -67q-100 26 -143.5 55.5t-47.5 71.5z" />
<glyph unicode="&#x208e;" horiz-adv-x="415" d="M-41 -412q103 30 133 57.5t41 92.5l135 764q16 74 0.5 98.5t-104.5 54.5l29 68q100 -26 143.5 -55.5t47.5 -71.5t-9 -104l-131 -746q-7 -39 -12.5 -60t-17.5 -46.5t-28 -39.5t-43.5 -30t-66 -28t-94.5 -25z" />
<glyph unicode="&#x20a1;" horiz-adv-x="1128" d="M145 604q0 157 47.5 287.5t124.5 213t171 128t192 45.5q17 0 49 -4l66 160h92l-72 -177q34 -8 72 -24l82 201h92l-96 -238q34 -20 84 -55t53 -37l-72 -86q-97 68 -108 74l-330 -818q21 4 42.5 9.5t44 14t41 15.5t41 18t36 17.5t36 19t29.5 17t27 15.5l20 12l56 -103 q-5 -3 -36 -19.5t-44.5 -23t-47 -22.5t-54 -24.5t-54.5 -21t-61 -19.5t-60 -13t-63 -8l-64 -158h-92l66 162q-32 5 -76 20l-74 -182h-92l90 225q-75 57 -116.5 153.5t-41.5 225.5zM279 616q0 -181 75 -268l332 817q-105 -4 -197.5 -74.5t-151 -197t-58.5 -277.5zM424 295 q39 -20 74 -23l348 858q-40 17 -72 25z" />
<glyph unicode="&#x20a4;" horiz-adv-x="1107" d="M23 0l16 98q8 6 22 16t53 43.5t73.5 69.5t74.5 89t66 106h-209l16 94h227q13 63 13 92q0 33 -6 60h-207l16 96h166q-8 22 -27.5 68t-29.5 73.5t-19.5 71t-9.5 84.5q0 175 120.5 285t317.5 110q82 0 168 -26t127 -47t115 -65q11 -6 16 -9l-75 -90q-204 120 -345 120 q-142 0 -227.5 -83.5t-85.5 -196.5q0 -54 13 -102t39.5 -107.5t35.5 -85.5h383l-16 -96h-344q4 -32 4 -50q0 -52 -12 -102h325l-16 -94h-342q-66 -150 -244 -305h668l-21 -117h-839z" />
<glyph unicode="&#x20a7;" horiz-adv-x="1331" d="M88 0l170 961h-61l12 81h63l70 392h467q102 0 184.5 -20t147.5 -63t101 -116t36 -172v-21h49l-14 -81h-45q-34 -189 -191 -288.5t-389 -99.5h-364l-103 -573h-133zM344 690h342q166 0 285.5 68t154.5 203h-735zM406 1042h733v21q0 132 -88 193t-238 61h-358z" />
<glyph unicode="&#x20a9;" horiz-adv-x="2037" d="M100 487l19 99h258l-25 258h-188l16 96h162l-47 494h143l37 -494h399l220 494h135l39 -494h397l211 494h154l-224 -494h166l-18 -96h-191l-116 -258h262l-17 -99h-288l-220 -487h-149l-105 1249l-546 -1249h-150l-49 487h-285zM483 844l19 -258h217l112 258h-348z M510 487l25 -321l141 321h-166zM1274 844l20 -258h219l111 258h-350zM1303 487l26 -333l141 333h-167z" />
<glyph unicode="&#x20ac;" horiz-adv-x="1413" d="M80 492l16 94h123q3 122 29 250h-107l15 94h118q78 245 252 385.5t383 140.5q77 0 148 -18t139 -56.5t108.5 -66.5t106.5 -80l-84 -90q-120 97 -214 143.5t-195 46.5q-159 0 -292 -109t-204 -296h625l-15 -94h-641q-30 -117 -33 -250h629l-16 -94h-611q13 -200 98 -297 t216 -97q102 0 230.5 54.5t254.5 138.5l66 -105q-155 -96 -292.5 -152.5t-275.5 -56.5q-89 0 -162.5 28.5t-133.5 88.5t-96.5 161t-43.5 237h-141z" />
<glyph unicode="&#x2116;" horiz-adv-x="2250" d="M84 0l254 1434h139l561 -1248l222 1248h133l-254 -1434h-138l-563 1253l-221 -1253h-133zM1425 387l17 92h596l-17 -92h-596zM1456 932q0 204 113 343.5t289 139.5q167 0 259.5 -89t92.5 -243q0 -204 -113 -343.5t-289 -139.5q-167 0 -259.5 89t-92.5 243zM1569 940 q0 -111 58.5 -176.5t184.5 -65.5q85 0 151 55.5t99 140.5t33 181q0 111 -58 176.5t-184 65.5q-85 0 -151.5 -55.5t-99.5 -140.5t-33 -181z" />
<glyph unicode="&#x2117;" horiz-adv-x="1818" d="M143 641q0 131 32.5 251.5t98.5 223t158.5 178.5t219 119t274.5 43q206 0 360.5 -84.5t235 -234.5t80.5 -344q0 -131 -32.5 -251.5t-98.5 -223.5t-158.5 -179t-220 -119t-275.5 -43q-309 0 -491.5 184t-182.5 480zM221 643q0 -172 70 -305t208.5 -210t325.5 -77 q161 0 294.5 59t221.5 160t136.5 235.5t48.5 285.5q0 128 -41.5 236.5t-117.5 187t-191 123t-256 44.5q-161 0 -294 -58.5t-221 -159.5t-136 -235t-48 -286zM571 285l152 862h285q117 0 185.5 -56.5t68.5 -168.5q0 -148 -95.5 -224.5t-253.5 -76.5h-192l-57 -336h-93z M735 700h195q103 0 172 61t69 161q0 75 -47 111t-129 36h-194z" />
<glyph unicode="&#x2120;" horiz-adv-x="1331" d="M213 1032l47 60q110 -56 184 -56q45 0 82 17t37 47q0 9 -4 17t-13 14.5t-18.5 11.5t-25.5 10.5t-28.5 9t-33.5 9.5t-34 10q-60 18 -96 47.5t-36 81.5q0 58 54.5 94.5t138.5 36.5q60 0 118 -17.5t95 -40.5l-45 -55q-3 1 -19.5 8t-22 9t-20.5 7.5t-24.5 7.5t-23 5.5 t-26.5 4.5t-26 1q-47 0 -75.5 -15.5t-28.5 -43.5q0 -13 6 -22.5t22 -17t29 -11.5t40.5 -12t43.5 -13q143 -43 145 -131q0 -65 -60.5 -102t-150.5 -37q-108 0 -231 65zM711 975l80 459h90l110 -299l226 299h92l-80 -459h-88l57 325l-186 -249h-60l-96 264l-59 -340h-86z" />
<glyph unicode="&#x2122;" horiz-adv-x="1316" d="M264 1362l12 72h416l-12 -72h-166l-68 -387h-86l68 387h-164zM696 975l80 459h90l111 -299l227 299h90l-82 -459h-86l58 330l-189 -254h-57l-96 264l-60 -340h-86z" />
<glyph unicode="&#x2126;" horiz-adv-x="1499" d="M68 0l20 117h244q-199 132 -199 397q0 153 28 291.5t87 258t144.5 206.5t206.5 136.5t267 49.5q254 0 387 -132.5t133 -385.5q0 -131 -20.5 -245t-57 -196t-78 -146.5t-92.5 -111t-91 -74t-82 -48.5h245l-20 -117h-445l21 113q77 28 144.5 72.5t131 115t108.5 160.5 t72 215t27 272q0 389 -387 389q-98 0 -181 -29.5t-142.5 -79t-107 -118.5t-77 -144.5t-49 -161t-27.5 -164t-8 -157.5q0 -280 260 -370l-18 -113h-444z" />
<glyph unicode="&#x2153;" horiz-adv-x="1644" d="M172 1319l236 115h98l-152 -861h-110l135 748l-170 -82zM188 0l928 1434h121l-928 -1434h-121zM807 84l57 74q127 -80 254 -80q106 0 174 51t68 127q0 82 -74 124t-180 42h-43l16 94h47q102 0 184.5 48t82.5 116q0 47 -40 74.5t-106 27.5q-106 0 -235 -71l-39 77 q148 86 291 86q112 0 176.5 -51t64.5 -129q0 -68 -54 -129t-159 -96q74 -15 126 -75t52 -140q0 -110 -90.5 -189t-255.5 -79q-73 0 -144.5 20.5t-100.5 36t-72 41.5z" />
<glyph unicode="&#x2154;" horiz-adv-x="1916" d="M100 573l11 70q7 43 21.5 80t40 68.5t47 54t62.5 49.5t65 41.5t75 43.5q25 14 37 21q51 30 80 48t66.5 45t57 48t33.5 48.5t13 54.5q-2 49 -42.5 80t-113.5 31q-67 0 -134 -24t-114 -54l-43 78q148 92 299 92q119 0 188.5 -54.5t69.5 -148.5q0 -45 -20 -87t-48 -73 t-77 -66.5t-87.5 -58t-99.5 -56.5q-8 -5 -13 -7.5t-12 -6.5t-13 -7q-105 -61 -150 -104.5t-59 -112.5h477l-17 -93h-600zM479 0l928 1434h121l-928 -1434h-121zM1092 84l57 74q127 -80 254 -80q106 0 174 51t68 127q0 82 -74 124t-180 42h-43l16 94h47q102 0 184 48t82 116 q0 47 -39.5 74.5t-105.5 27.5q-107 0 -236 -71l-39 77q148 86 291 86q112 0 177 -51t65 -129q0 -68 -54 -129t-159 -96q74 -15 126 -75t52 -140q0 -110 -90.5 -189t-255.5 -79q-73 0 -144.5 20.5t-100.5 36t-72 41.5z" />
<glyph unicode="&#x2155;" horiz-adv-x="1654" d="M172 1319l236 115h98l-152 -861h-110l135 748l-170 -82zM188 0l928 1434h121l-928 -1434h-121zM821 84l58 72q122 -76 225 -76q97 0 174.5 58t77.5 155q0 74 -46.5 119t-131.5 45q-86 0 -195 -56l-61 35l122 424h488l-16 -92h-398l-63 -250q74 29 147 29q124 0 195 -72 t71 -182q0 -128 -97 -217.5t-257 -89.5q-156 0 -293 98z" />
<glyph unicode="&#x2156;" horiz-adv-x="1927" d="M100 573l11 70q7 43 21.5 80t40 68.5t47 54t62.5 49.5t65 41.5t75 43.5q25 14 37 21q51 30 80 48t66.5 45t57 48t33.5 48.5t13 54.5q-2 49 -42.5 80t-113.5 31q-67 0 -134 -24t-114 -54l-43 78q148 92 299 92q119 0 188.5 -54.5t69.5 -148.5q0 -45 -20 -87t-48 -73 t-77 -66.5t-87.5 -58t-99.5 -56.5q-8 -5 -13 -7.5t-12 -6.5t-13 -7q-105 -61 -150 -104.5t-59 -112.5h477l-17 -93h-600zM479 0l928 1434h121l-928 -1434h-121zM1112 84l57 72q122 -76 226 -76q97 0 174.5 58t77.5 155q0 74 -46.5 119t-132.5 45q-85 0 -194 -56l-62 35 l123 424h488l-17 -92h-397l-63 -250q74 29 147 29q124 0 195 -72t71 -182q0 -128 -97 -217.5t-257 -89.5q-156 0 -293 98z" />
<glyph unicode="&#x2157;" horiz-adv-x="1892" d="M92 657l58 74q127 -80 253 -80q106 0 174 51t68 127q0 82 -74 124t-180 42h-43l17 95h47q102 0 184 47.5t82 115.5q0 47 -40 75t-106 28q-104 0 -235 -72l-39 78q148 86 291 86q112 0 177 -51t65 -129q0 -69 -54 -130t-159 -96q74 -15 126 -75t52 -140q0 -110 -90.5 -189 t-255.5 -79q-73 0 -144.5 20.5t-101.5 36t-72 41.5zM446 0l928 1434h121l-928 -1434h-121zM1079 84l58 72q122 -76 225 -76q97 0 174.5 58t77.5 155q0 74 -46.5 119t-131.5 45q-86 0 -195 -56l-61 35l123 424h487l-16 -92h-398l-63 -250q74 29 147 29q124 0 195 -72t71 -182 q0 -128 -97 -217.5t-257 -89.5q-156 0 -293 98z" />
<glyph unicode="&#x2158;" horiz-adv-x="1937" d="M94 764l12 80l535 590h145l-102 -580h133l-16 -90h-133l-33 -191h-109l33 191h-465zM233 854h342l84 479zM489 0l928 1434h121l-928 -1434h-121zM1120 84l58 72q122 -76 225 -76q97 0 174.5 58t77.5 155q0 74 -46.5 119t-131.5 45q-86 0 -195 -56l-61 35l122 424h488 l-16 -92h-398l-63 -250q74 29 147 29q124 0 195 -72t71 -182q0 -128 -97 -217.5t-257 -89.5q-156 0 -293 98z" />
<glyph unicode="&#x2159;" horiz-adv-x="1615" d="M172 1319l236 115h98l-152 -861h-110l135 748l-170 -82zM188 0l928 1434h121l-928 -1434h-121zM803 293q0 117 42.5 224t115.5 185.5t175 125t216 46.5q36 0 69 -5t49 -10l15 -5l-39 -80q-37 8 -90 8q-143 0 -256.5 -89t-161.5 -232q100 90 240 90q125 0 196.5 -73 t71.5 -175q0 -128 -91.5 -222.5t-246.5 -94.5q-147 0 -226 90.5t-79 216.5zM911 289q0 -87 50 -149t143 -62q106 0 168.5 66t62.5 159q0 65 -45.5 113.5t-132.5 48.5q-79 0 -146.5 -40t-97.5 -85q-2 -16 -2 -51z" />
<glyph unicode="&#x215a;" horiz-adv-x="1820" d="M104 657l58 72q122 -76 225 -76q97 0 174.5 58t77.5 155q0 74 -46.5 119t-131.5 45q-88 0 -195 -55l-61 35l123 424h487l-16 -93h-398l-63 -249q72 28 147 28q124 0 195.5 -72t71.5 -182q0 -128 -97.5 -217.5t-257.5 -89.5q-156 0 -293 98zM406 0l927 1434h121 l-928 -1434h-120zM1018 293q0 117 42.5 224t115.5 185.5t175 125t216 46.5q36 0 69 -5t48 -10l16 -5l-39 -80q-37 8 -90 8q-143 0 -256.5 -89t-161.5 -232q100 90 240 90q125 0 196.5 -73t71.5 -175q0 -128 -91.5 -222.5t-246.5 -94.5q-147 0 -226 90.5t-79 216.5zM1126 289 q0 -87 50 -149t143 -62q106 0 168.5 66t62.5 159q0 65 -45.5 113.5t-132.5 48.5q-79 0 -146.5 -40t-97.5 -85q-2 -16 -2 -51z" />
<glyph unicode="&#x215b;" horiz-adv-x="1658" d="M172 1319l236 115h98l-152 -861h-110l135 748l-170 -82zM188 0l928 1434h121l-928 -1434h-121zM815 205q0 173 260 264q-125 66 -125 180q0 99 86.5 162t216.5 63q119 0 191 -52.5t72 -139.5q0 -140 -211 -223q184 -80 184 -219q0 -111 -109 -182.5t-262 -71.5 q-139 0 -221 57t-82 162zM926 209q0 -66 51 -100.5t137 -34.5q102 0 180 47.5t78 120.5q0 34 -15.5 62.5t-45 50.5t-57.5 37t-66 30q-42 -13 -74.5 -25t-69.5 -31.5t-61.5 -41t-40.5 -51.5t-16 -64zM1057 641q0 -28 12 -51t36.5 -40t40 -25.5t44.5 -20.5q46 13 80 26.5 t67.5 33.5t51.5 47t18 59q0 51 -42.5 86t-111.5 35q-80 0 -138 -44.5t-58 -105.5z" />
<glyph unicode="&#x215c;" horiz-adv-x="1900" d="M92 657l58 74q127 -80 253 -80q106 0 174 51t68 127q0 82 -74 124t-180 42h-43l17 95h47q102 0 184 47.5t82 115.5q0 47 -40 75t-106 28q-104 0 -235 -72l-39 78q148 86 291 86q112 0 177 -51t65 -129q0 -69 -54 -130t-159 -96q74 -15 126 -75t52 -140q0 -110 -90.5 -189 t-255.5 -79q-73 0 -144.5 20.5t-101.5 36t-72 41.5zM446 0l928 1434h121l-928 -1434h-121zM1069 205q0 173 260 264q-125 66 -125 180q0 99 86.5 162t216.5 63q119 0 190.5 -52t71.5 -140q0 -140 -210 -223q184 -80 184 -219q0 -111 -109 -182.5t-262 -71.5q-139 0 -221 57 t-82 162zM1180 209q0 -66 51 -100.5t137 -34.5q102 0 180 47.5t78 120.5q0 34 -15.5 62.5t-45 50.5t-57.5 37t-66 30q-42 -13 -74.5 -25t-69.5 -31.5t-61.5 -41t-40.5 -51.5t-16 -64zM1311 641q0 -28 12 -51t36.5 -40t40 -25.5t44.5 -20.5q46 13 80 26.5t67.5 33.5t51.5 47 t18 59q0 51 -42.5 86t-111.5 35q-80 0 -138 -44.5t-58 -105.5z" />
<glyph unicode="&#x215d;" horiz-adv-x="1861" d="M104 657l58 72q122 -76 225 -76q97 0 174.5 58t77.5 155q0 74 -46.5 119t-131.5 45q-88 0 -195 -55l-61 35l123 424h487l-16 -93h-398l-63 -249q72 28 147 28q124 0 195.5 -72t71.5 -182q0 -128 -97.5 -217.5t-257.5 -89.5q-156 0 -293 98zM406 0l927 1434h121 l-928 -1434h-120zM1028 205q0 173 260 264q-125 66 -125 180q0 99 86.5 162t216.5 63q119 0 191 -52.5t72 -139.5q0 -140 -211 -223q184 -80 184 -219q0 -111 -109 -182.5t-262 -71.5q-139 0 -221 57t-82 162zM1139 209q0 -66 51 -100.5t137 -34.5q102 0 180 47.5t78 120.5 q0 34 -15.5 62.5t-45 50.5t-57.5 37t-66 30q-42 -13 -74.5 -25t-69.5 -31.5t-61.5 -41t-40.5 -51.5t-16 -64zM1270 641q0 -28 12 -51t36.5 -40t40 -25.5t44.5 -20.5q46 13 80 26.5t67.5 33.5t51.5 47t18 59q0 51 -42.5 86t-111.5 35q-80 0 -138 -44.5t-58 -105.5z" />
<glyph unicode="&#x215e;" horiz-adv-x="1665" d="M178 573q19 102 71.5 217.5t109 202.5t122 171.5t98.5 121t52 55.5h-447l17 93h573l-12 -84q-16 -16 -43 -44.5t-99 -116.5t-130.5 -175.5t-115.5 -209.5t-77 -231h-119zM203 0l927 1434h121l-927 -1434h-121zM823 205q0 173 260 264q-125 66 -125 180q0 99 87 162 t217 63q119 0 190.5 -52t71.5 -140q0 -140 -211 -223q184 -80 184 -219q0 -111 -109 -182.5t-262 -71.5q-139 0 -221 57t-82 162zM934 209q0 -66 51 -100.5t137 -34.5q102 0 180 47.5t78 120.5q0 34 -15.5 62.5t-45 50.5t-57.5 37t-66 30q-42 -13 -74.5 -25t-69.5 -31.5 t-61.5 -41t-40.5 -51.5t-16 -64zM1065 641q0 -28 12 -51t36.5 -40t40 -25.5t44.5 -20.5q46 13 80 26.5t67.5 33.5t51.5 47t18 59q0 51 -42 86t-111 35q-80 0 -138.5 -44.5t-58.5 -105.5z" />
<glyph unicode="&#x2202;" horiz-adv-x="1241" d="M74 408q0 117 41.5 222t113.5 180.5t173 120t216 44.5q77 0 142.5 -20.5t104.5 -49.5t66.5 -57.5t38.5 -49.5l11 -20q-3 79 -19.5 154.5t-52 147.5t-86.5 126t-128 86.5t-171 32.5q-38 0 -77.5 -4.5t-59.5 -8.5l-20 -5l-9 108q76 19 170 19q268 0 421 -189.5t153 -531.5 q0 -341 -160.5 -538.5t-427.5 -197.5q-202 0 -321 112t-119 319zM207 399q0 -142 73.5 -227.5t231.5 -85.5q91 0 166 30t124.5 78.5t83.5 111.5t49 126.5t15 126.5q0 143 -80 225t-231 82q-102 0 -185.5 -39t-136.5 -104.5t-81.5 -149t-28.5 -174.5z" />
<glyph unicode="&#x2206;" horiz-adv-x="1370" d="M-51 0l805 1434h151l297 -1434h-1253zM152 117h903l-246 1157z" />
<glyph unicode="&#x220f;" horiz-adv-x="1380" d="M156 0l233 1319h-219l20 115h1254l-21 -115h-221l-233 -1319h-135l235 1319h-547l-233 -1319h-133z" />
<glyph unicode="&#x2211;" horiz-adv-x="1093" d="M-8 0l20 115l678 608l-467 596l21 115h872l-20 -117h-717l473 -600l-666 -600h697l-21 -117h-870z" />
<glyph unicode="&#x2212;" horiz-adv-x="1294" d="M139 629l19 106h1009l-18 -106h-1010z" />
<glyph unicode="&#x221a;" horiz-adv-x="1136" d="M68 696h135l164 -493l729 1231h145l-856 -1434h-78z" />
<glyph unicode="&#x221e;" horiz-adv-x="1871" d="M109 489q0 149 111.5 253t285.5 104q53 0 103 -14.5t88.5 -34.5t83 -57t73.5 -65.5t74 -76.5q80 61 116.5 87.5t95.5 65.5t97.5 54.5t88.5 28t101 12.5q145 0 224.5 -78.5t79.5 -200.5q0 -150 -112.5 -253t-285.5 -103q-53 0 -104 15t-88 34.5t-83.5 58t-73 64.5 t-73.5 76q-74 -57 -115 -87t-97.5 -66.5t-96.5 -53.5t-89 -29t-99 -12q-146 0 -225.5 78t-79.5 200zM227 485q0 -68 50 -119t139 -51q93 0 186.5 51.5t241.5 165.5q-117 121 -186 165t-146 44q-71 0 -127.5 -23.5t-89.5 -61t-50.5 -81.5t-17.5 -90zM997 524 q115 -121 182.5 -165t147.5 -44q71 0 127.5 23.5t89.5 61t50.5 81.5t17.5 90q0 68 -50 119t-139 51q-94 0 -184.5 -50.5t-241.5 -166.5z" />
<glyph unicode="&#x222b;" horiz-adv-x="790" d="M-121 -293l17 100h49q70 0 119.5 19t78 42.5t50 79.5t30 93.5t23.5 121.5q1 7 2 11l201 1133q21 119 48 192t76.5 125t123.5 73t188 21h57l-16 -100h-49q-86 0 -141 -22t-87 -82.5t-44 -106t-31 -152.5q-1 -3 -1 -4l-200 -1132q-21 -119 -48.5 -192.5t-76.5 -125.5 t-123.5 -73t-187.5 -21h-58z" />
<glyph unicode="&#x2248;" horiz-adv-x="1292" d="M104 430q137 203 312 203q63 0 126 -22t106 -48.5t98.5 -48.5t105.5 -22q52 0 100.5 27t104.5 104l88 -39q-135 -203 -311 -203q-63 0 -126 22t-106 48.5t-99 48.5t-106 22t-98 -27t-104 -104zM170 793q135 200 311 200q62 0 124.5 -22t105.5 -48.5t98.5 -48.5t105.5 -22 q51 0 100 27.5t105 103.5l90 -39q-136 -201 -313 -201q-52 0 -102 14.5t-90 35.5t-78 42t-81 35.5t-85 14.5q-50 0 -98 -27.5t-103 -103.5z" />
<glyph unicode="&#x2260;" horiz-adv-x="1292" d="M104 449l19 108h391l156 256h-502l20 107h545l211 350l92 -41l-186 -309h348l-18 -107h-396l-153 -256h504l-21 -108h-549l-209 -347l-90 41l183 306h-345z" />
<glyph unicode="&#x2264;" horiz-adv-x="1288" d="M23 0l18 100h1010l-19 -100h-1009zM129 594l16 96l1084 426l-23 -137l-923 -344l800 -348l-20 -119z" />
<glyph unicode="&#x2265;" horiz-adv-x="1290" d="M35 0l18 100h1008l-19 -100h-1007zM63 168l23 137l922 344l-797 346l20 121l934 -426l-18 -96z" />
<glyph unicode="&#x2318;" horiz-adv-x="1638" d="M86 346q0 89 50 149.5t125.5 85.5t172.5 25h156l39 221h-123q-118 0 -202.5 79t-84.5 188t81.5 185.5t197.5 76.5q41 0 83 -11t81 -36t67 -61t40.5 -90t2.5 -118l-18 -110h239l25 135q10 54 23 93t37 80t64.5 69t96.5 41q34 9 68 6q115 -3 196.5 -81.5t81.5 -187.5 q0 -87 -49.5 -147t-126 -85.5t-172.5 -25.5h-156l-39 -221h127q117 0 199 -78t82 -188q0 -109 -79.5 -184.5t-194.5 -75.5q-132 0 -215 91t-62 222q2 10 9.5 50.5t9.5 60.5h-238l-25 -135q-26 -145 -90.5 -217t-191.5 -72q-120 0 -203.5 78t-83.5 188zM193 344 q0 -68 52.5 -115t127.5 -47q69 0 111.5 37.5t54.5 106.5l32 178h-204q-73 0 -123.5 -47t-50.5 -113zM326 1092q0 -68 51.5 -115t126.5 -47h141q19 92 23 119q14 85 -34 144.5t-134 59.5q-73 0 -123.5 -47.5t-50.5 -113.5zM696 606h242l41 221h-244zM1004 385 q-17 -82 33.5 -142.5t136.5 -60.5q72 0 122 47t50 113q0 67 -52 114.5t-123 47.5h-147zM1100 930h205q73 0 124.5 47t51.5 113q0 67 -52 115t-126 48q-69 0 -116 -44.5t-57 -100.5z" />
<glyph unicode="&#x25ca;" horiz-adv-x="1097" d="M98 717l514 717h160l262 -717l-516 -717h-160zM233 698l213 -592l453 631l-215 586z" />
<glyph unicode="&#xe000;" horiz-adv-x="1075" d="M0 0v1075h1075v-1075h-1075z" />
<glyph unicode="&#xf6c3;" horiz-adv-x="155" d="M-66 -494l115 179h-67l32 182h142l-13 -186l-168 -222z" />
<glyph unicode="&#xf6df;" horiz-adv-x="741" d="M98 61q0 93 29 170t77 125.5t107.5 75.5t122.5 27l17 94h84l-19 -104q83 -20 197 -95l-56 -69q-1 1 -20 13t-29.5 18t-30 16.5t-39 17.5t-38.5 12l-84 -479q25 5 54 15.5t47 19t43 22t30 15.5l43 -80q-3 -1 -19 -8.5t-22 -10.5t-22.5 -10.5t-26 -11.5t-26 -10.5 t-29 -10.5t-28.5 -8.5t-31 -8t-30 -5.5l-16 -98h-84l16 96q-99 9 -158 79.5t-59 192.5zM207 70q0 -82 32.5 -132t92.5 -59l86 486q-89 -15 -150 -97t-61 -198z" />
<glyph unicode="&#xf6e0;" horiz-adv-x="741" d="M209 1157q0 93 29 169.5t77 125.5t107.5 75.5t122.5 26.5l16 95h84l-18 -105q83 -20 196 -94l-55 -70q-2 1 -20 13t-29.5 18.5t-31 17t-39 17.5t-38.5 12l-84 -479q25 5 54 15.5t47 19t43 22t30 15.5l43 -80q-152 -72 -233 -84l-16 -99h-84l16 97q-99 9 -158 79.5 t-59 192.5zM317 1165q0 -82 32.5 -131.5t92.5 -58.5l86 485q-89 -15 -150 -97t-61 -198z" />
<glyph unicode="&#xf6e1;" horiz-adv-x="346" d="M2 -434l84 127h-55l24 149h121l-10 -157l-133 -158z" />
<glyph unicode="&#xf6e2;" horiz-adv-x="346" d="M113 662l84 126h-56l25 150h121l-11 -158l-133 -157z" />
<glyph unicode="&#xf6e3;" horiz-adv-x="806" d="M14 -209l60 78q117 -72 231 -92l55 317l-8 4q-53 20 -87 37t-68.5 43.5t-51 63t-16.5 84.5q0 111 87 176t224 65h2l21 111h84l-21 -119q120 -18 242 -84l-59 -74q-94 49 -199 68l-53 -295h4q46 -17 74 -29.5t64 -34.5t56.5 -45t35 -57.5t14.5 -75.5q0 -117 -95.5 -185.5 t-234.5 -68.5h-6l-19 -108h-82l21 117q-148 21 -275 104zM246 332q0 -47 31 -73t102 -54l47 270q-76 -3 -128 -41t-52 -102zM385 -229q87 3 147 44.5t60 104.5q0 53 -38 83.5t-116 62.5z" />
<glyph unicode="&#xf6e4;" horiz-adv-x="806" d="M125 887l59 78q115 -75 232 -93l55 318l-8 4q-53 20 -87 36.5t-68.5 43t-51 63t-16.5 84.5q0 111 87 176.5t224 65.5h2l20 111h84l-20 -119q120 -18 242 -84l-60 -74q-94 50 -198 68l-54 -295h4q46 -17 74 -29.5t64 -34.5t56.5 -45t35 -57.5t14.5 -75.5 q0 -117 -95.5 -185.5t-234.5 -68.5h-6l-18 -108h-82l20 114q-146 24 -274 107zM356 1427q0 -47 31 -73t102 -54l48 271q-76 -3 -128.5 -41t-52.5 -103zM496 866q87 3 146.5 44.5t59.5 105.5q0 52 -38 83t-115 62z" />
<glyph unicode="&#xf6e7;" horiz-adv-x="344" d="M35 -307l26 149h121l-26 -149h-121z" />
<glyph unicode="&#xf6e8;" horiz-adv-x="344" d="M145 788l27 150h121l-27 -150h-121z" />
<glyph unicode="&#xf6e9;" horiz-adv-x="806" d="M176 1010q0 190 88 314t225 124q115 0 232 -107l16 93h105l-113 -646h-106l16 99q-126 -113 -260 -113q-85 0 -144 57.5t-59 178.5zM285 1018q0 -74 30.5 -116t87.5 -42q69 0 126.5 32t127.5 91l50 274q-101 105 -197 105q-68 0 -120.5 -50.5t-78.5 -128t-26 -165.5z" />
<glyph unicode="&#xf6ea;" horiz-adv-x="808" d="M156 788l157 895h107l-60 -331q127 96 240 96q93 0 157 -57.5t64 -180.5q0 -189 -85 -312.5t-220 -123.5q-126 0 -240 100l-14 -86h-106zM293 963q99 -103 203 -103q65 0 115.5 50.5t76 127.5t25.5 164q0 76 -36 118t-104 42q-31 0 -60.5 -8t-63 -27t-50.5 -30.5 t-55 -39.5z" />
<glyph unicode="&#xf6eb;" horiz-adv-x="800" d="M176 1010q0 190 88 314t225 124q114 0 230 -102l59 337h107l-158 -895h-106l16 95q-131 -109 -258 -109q-85 0 -144 57.5t-59 178.5zM285 1018q0 -74 30.5 -116t87.5 -42q68 0 125.5 31t124.5 88l49 281q-94 102 -192 102q-68 0 -120.5 -50.5t-78.5 -128t-26 -165.5z" />
<glyph unicode="&#xf6ec;" horiz-adv-x="753" d="M176 1061q0 168 104 277.5t271 109.5q112 0 173.5 -48t61.5 -126q0 -209 -424 -209h-79v-6q0 -98 42.5 -150.5t120.5 -52.5q15 0 31 1.5t33 6t30.5 8t32 11t28.5 11.5t29 13t25 12l25 12.5t20 10.5l39 -74q-178 -94 -307 -94q-119 0 -187.5 73t-68.5 214zM289 1130h82 q156 0 233.5 38t77.5 104q0 44 -36 69t-99 25q-98 0 -168.5 -65.5t-89.5 -170.5z" />
<glyph unicode="&#xf6ed;" horiz-adv-x="335" d="M156 788l114 646h107l-115 -646h-106zM287 1561l20 120h117l-21 -120h-116z" />
<glyph unicode="&#xf6ee;" horiz-adv-x="350" d="M162 788l157 895h107l-158 -895h-106z" />
<glyph unicode="&#xf6ef;" horiz-adv-x="1208" d="M156 788l114 646h107l-17 -93q132 107 250 107q76 0 117 -33t49 -88q145 121 271 121q100 0 138 -56.5t23 -148.5l-80 -455h-106l80 441q22 133 -86 133q-106 0 -242 -117l-80 -457h-106l78 441q26 133 -86 133q-105 0 -236 -113l-82 -461h-106z" />
<glyph unicode="&#xf6f0;" horiz-adv-x="751" d="M166 1057q0 165 97 278t253 113q144 0 223.5 -75t79.5 -208q0 -165 -97 -278t-253 -113q-144 0 -223.5 75t-79.5 208zM272 1055q0 -89 47.5 -142t149.5 -53q110 0 177 91.5t67 215.5q0 89 -47.5 142t-149.5 53q-110 0 -177 -91.5t-67 -215.5z" />
<glyph unicode="&#xf6f1;" horiz-adv-x="518" d="M156 788l114 646h107l-25 -140q7 14 25 36t51.5 51t87.5 47t115 14l-15 -99q-61 0 -114 -21.5t-84 -52.5t-53.5 -62t-31.5 -53l-9 -21l-62 -345h-106z" />
<glyph unicode="&#xf6f2;" horiz-adv-x="681" d="M119 862l53 66q130 -72 240 -72q67 0 114 27.5t47 77.5q0 15 -4 27.5t-14.5 23t-19.5 17t-28.5 14.5t-31.5 12t-37.5 12t-38.5 12q-43 13 -71 24t-60 32t-48.5 52t-16.5 73q0 85 71.5 136.5t180.5 51.5q127 0 268 -74l-49 -65q-120 59 -215 59q-66 0 -108 -27t-42 -73 q0 -11 2.5 -21t9 -18.5t12 -15t17 -12.5t19.5 -10t23.5 -9.5t24 -8.5t26.5 -8t26 -8q109 -34 160 -73t51 -115q0 -91 -75 -143t-187 -52q-149 0 -299 88z" />
<glyph unicode="&#xf6f3;" horiz-adv-x="509" d="M195 1354l14 80h90l31 161l110 25l-34 -186h186l-14 -80h-187l-74 -420q-13 -70 52 -70q29 0 131 35l30 -82q-118 -43 -186 -43q-70 0 -108.5 42t-22.5 132l72 406h-90z" />
<glyph unicode="&#xf8ff;" horiz-adv-x="1855" d="M146.5 560.5q-2.5 11.5 15.5 21.5l57 41q2 1 3.5 2.5l3 3l2.5 2.5t2 3l1 1q19 16 37 -12l33 -64q6 -12 13 -15.5t13.5 2t10.5 17.5l18 70q6 19 19.5 21t25.5 -13l48 -53q14 -15 23 -11.5t11 23.5l4 70q3 20 15.5 25t27.5 -7l58 -43q17 -12 25.5 -6.5t4.5 25.5l-8 69 q-3 20 8.5 28t28.5 -1l64 -29q19 -9 26.5 -1.5t1.5 26.5l-22 67q-8 19 0.5 29t27.5 4l15 -2q40 -77 70 -202.5t30 -217.5q-15 -18 -34.5 -27.5t-59.5 -9.5h-8q0 46 -33 72q18 -21 18 -55v-15q-32 3 -32 39q0 43 -28 72t-77 29q-41 0 -68.5 -32t-27.5 -79q0 -60 49.5 -96.5 t138.5 -36.5q85 0 172 42t156.5 112t125 154.5t86 175.5t30.5 169q0 59 -36.5 98t-94.5 39q-48 0 -85.5 -33.5t-37.5 -84.5q0 -106 119 -119q-29 -119 -60 -174q-12 96 -43.5 178t-75.5 129q91 -120 107 -330l-29 -41q0 156 -51 287t-131 172q-5 9 2 18.5t22 12.5l70 12 q19 3 21 13.5t-15 21.5l-59 39q-15 13 -13.5 26.5t19.5 20.5l64 29q14 4 19 10.5t0 13.5t-19 12l-64 27q-23 10 -20 29q11 6 14 16l35 62q9 19 20.5 18t16.5 -20l20 -68q6 -21 18.5 -24t26.5 14l47 53q12 15 23 12.5t12 -22.5l4 -72q1 -21 14.5 -26t28.5 8l57 43 q15 12 24 5.5t7 -26.5l-10 -70q-1 -20 10.5 -27.5t28.5 1.5l63 33q19 8 26.5 0t0.5 -29l-23 -64q-6 -20 3 -30t28 -4l70 14q20 6 26.5 -2t-4.5 -27l-37 -59q-12 -17 -5.5 -29.5t26.5 -11.5l72 4q21 0 25 -11t-9 -24l-49 -53q-14 -13 -10.5 -26.5t24.5 -16.5l70 -12 q43 -10 6 -39l-57 -39q-16 -10 -15 -24t21 -21l63 -27q12 -5 16.5 -12t0 -13.5t-16.5 -11.5l-63 -26q-20 -7 -21 -22t15 -25l57 -41q11 -7 14.5 -14.5t-2 -13.5t-18.5 -9l-70 -13q-21 -3 -24.5 -16.5t10.5 -28.5l49 -49q13 -14 9 -24.5t-25 -10.5l-72 5q-20 0 -26.5 -12 t5.5 -29l37 -62q10 -17 4 -25.5t-26 -5.5l-70 19q-18 6 -27.5 -5t-3.5 -30l23 -68q8 -19 0 -26t-27 2l-63 31q-17 9 -28.5 1t-10.5 -30l10 -68q1 -21 -7.5 -25.5t-23.5 7.5l-57 43q-15 12 -28.5 5.5t-14.5 -26.5l-4 -69q-1 -20 -12 -23t-23 11l-47 55q-13 14 -26 12t-19 -22 l-20 -68q-3 -13 -9.5 -18t-14 -1t-13.5 15l-35 61q-9 19 -22 19t-25 -19l-31 -61q-6 -11 -13.5 -15t-14 1t-9.5 18l-20 68q-6 20 -19 22t-26 -12l-47 -55q-12 -14 -22 -11t-13 23l-4 69q-2 20 -15 26.5t-30 -5.5l-54 -43q-17 -13 -26.5 -8t-5.5 26l10 68q1 22 -10.5 30 t-30.5 -1l-62 -31q-19 -9 -26.5 -2t0.5 26l22 68q8 19 -1.5 30t-28.5 5l-70 -19q-20 -3 -26.5 5.5t3.5 25.5l39 62q11 17 4.5 29t-26.5 12l-72 -5q-21 0 -25 10.5t9 24.5l51 49q13 15 9 28.5t-25 16.5l-68 13q-21 4 -23.5 15.5zM623 281q43 -27 122 -27q106 0 212.5 65 t183.5 162t125.5 212t48.5 214q0 63 -41 101q24 -38 24 -84q0 -100 -47.5 -215t-126.5 -215q-85 -105 -188.5 -168.5t-212.5 -63.5q-57 0 -100 19z" />
<glyph unicode="&#xfb06;" horiz-adv-x="1767" d="M8 117l72 88q208 -121 375 -121q113 0 197.5 54t84.5 149q0 25 -7.5 47t-17.5 38t-32 32t-37.5 25t-49.5 22t-51.5 19t-58.5 19q-19 6 -28 9q-45 15 -74 26t-69.5 29.5t-66 39.5t-50 50t-36.5 67t-12 83q0 95 54.5 165.5t142 105t193.5 34.5q107 0 229 -39q-12 38 -12 86 q0 151 109.5 249.5t279.5 98.5t254 -99t53 -268l-10 -51h297l-19 -102h-297l-135 -764q-21 -119 82 -119q68 0 223 62l35 -105q-50 -21 -135.5 -45.5t-140.5 -24.5q-46 0 -82 11.5t-67 40.5t-39.5 77.5t1.5 122.5l133 744h-149l20 102h148l12 72q22 121 -23 193.5t-169 72.5 q-133 0 -214 -82t-81 -207q0 -56 18 -100q38 -16 86 -43l-67 -88q-177 98 -336 98q-112 0 -188.5 -50.5t-76.5 -137.5q0 -21 4 -39t15 -33t20 -26.5t28.5 -23.5t31.5 -19t37.5 -16.5t37.5 -14t41.5 -14t40.5 -13.5q175 -58 255.5 -124.5t80.5 -184.5q0 -101 -58.5 -175 t-150 -108.5t-202.5 -34.5q-125 0 -242 42t-207 98z" />
<glyph horiz-adv-x="843" d="M133 580l39 79q37 -8 90 -8q141 0 255.5 89t162.5 231q-98 -88 -240 -88q-126 0 -196 72t-70 173q0 83 37.5 154.5t115.5 118.5t181 47q100 0 171.5 -45.5t103.5 -114t32 -149.5q0 -156 -72 -289t-199 -212t-278 -79q-36 0 -69 5.5t-49 10.5zM281 1130q0 -65 46 -113 t132 -48q83 0 153.5 43.5t94.5 89.5q2 14 2 43q0 86 -51 148.5t-144 62.5q-106 0 -169.5 -67t-63.5 -159z" />
<glyph horiz-adv-x="1095" d="M-59 0l530 584l-303 592h137l242 -514l420 514h157l-514 -592l328 -584h-143l-260 506l-433 -506h-161z" />
<glyph horiz-adv-x="1404" d="M-180 -322q66 19 107 34t73.5 38t48.5 39.5t31 57t21 70t18 97.5l168 959h-146l21 102h143l33 180q22 129 77.5 183.5t164.5 54.5q64 0 156.5 -24t148.5 -46l-60 -90q-41 13 -118 30t-115 17q-58 0 -86.5 -33t-40.5 -92l-33 -180h291l-16 -102h-293l-166 -955 q-31 -173 -53 -228q-34 -85 -111 -132q-74 -43 -234 -84zM520 -322q66 19 107 34t73.5 38t48.5 39.5t31 57t21 70t18 97.5l168 959h-145l20 102h144l32 180q22 128 77 183t157 55q97 0 252 -55l-54 -92q-35 11 -92 22.5t-86 11.5q-58 0 -86.5 -33t-38.5 -92l-32 -180h292 l-16 -102h-295l-168 -955q-32 -173 -53 -228q-33 -85 -110 -132q-72 -43 -234 -84z" />
<glyph horiz-adv-x="1343" d="M-182 -322q66 19 107 34t73.5 38t48.5 39.5t31 57t21 70t18 97.5l170 959h-148l21 102h145l29 160q42 238 272 238q146 0 420 -68q56 88 193 88q64 0 156.5 -24t148.5 -46l-62 -90q-39 13 -116 30t-117 17q-58 0 -85.5 -32.5t-37.5 -92.5l-33 -180h293l-16 -102h-295 l-166 -955q-16 -90 -24 -129.5t-27.5 -94t-41.5 -77t-65 -53t-99.5 -49.5t-142.5 -41l-30 104q39 11 68.5 20.5t55.5 22t44 20.5t35 24t27 25.5t20 31.5t15.5 35.5t13 44.5t11 50.5t11.5 61.5l168 959h-514l-166 -955q-16 -90 -24 -129.5t-27.5 -94t-41.5 -77t-65 -53 t-99.5 -49.5t-142.5 -41zM432 1075h512l43 230q-261 55 -366 55q-135 0 -160 -125z" />
<glyph horiz-adv-x="2555" d="M-182 -322q66 19 107 34t73.5 38t48.5 39.5t31 57t21 70t18 97.5l170 959h-146l21 102h143l29 160q42 238 272 238q157 0 430 -72q70 92 215 92q154 0 400 -63l12 63h129l-100 -563q203 168 389 168q67 0 126 -20.5t109 -63t79.5 -118t29.5 -175.5q0 -212 -60 -381 t-171.5 -266t-254.5 -97q-117 0 -209 50.5t-176 128.5l-26 -156h-129l233 1325q-291 55 -366 55q-42 0 -73.5 -12t-48.5 -32t-26 -39.5t-12 -41.5l-33 -180h293l-18 -102h-291l-166 -955q-12 -68 -18 -100t-18.5 -79t-24 -67.5t-33 -51.5t-46.5 -45.5t-64 -35t-86 -34.5 t-112 -31l-30 104q49 14 83.5 26t64 27.5t48 26.5t35 33.5t24.5 38t17.5 50t14.5 59t14 75.5l168 959h-514l-166 -955q-16 -90 -24 -129.5t-27.5 -94t-41.5 -77t-65 -53t-99.5 -49.5t-142.5 -41zM432 1075h514l43 230q-291 55 -368 55q-135 0 -160 -125zM1575 268 q172 -180 346 -180q84 0 155.5 53.5t118 141.5t72 198.5t25.5 227.5q0 133 -59 205.5t-175 72.5q-99 0 -188.5 -47.5t-200.5 -134.5z" />
<glyph horiz-adv-x="2553" d="M-182 -322q66 19 107 34t73.5 38t48.5 39.5t31 57t21 70t18 97.5l170 959h-146l21 102h143l29 160q42 238 272 238q157 0 430 -72q70 92 215 92q154 0 400 -63l12 63h129l-100 -569q90 63 216 118.5t244 55.5q155 0 217.5 -93t34.5 -243l-133 -762h-127l133 750 q41 239 -153 239q-108 0 -238 -62t-217 -128l-141 -799h-129l233 1325q-291 55 -366 55q-42 0 -73.5 -12t-48.5 -32t-26 -39.5t-12 -41.5l-33 -180h293l-18 -102h-291l-166 -955q-12 -68 -18 -100t-18.5 -79t-24 -67.5t-33 -51.5t-46.5 -45.5t-64 -35t-86 -34.5t-112 -31 l-30 104q49 14 83.5 26t64 27.5t48 26.5t35 33.5t24.5 38t17.5 50t14.5 59t14 75.5l168 959h-514l-166 -955q-16 -90 -24 -129.5t-27.5 -94t-41.5 -77t-65 -53t-99.5 -49.5t-142.5 -41zM432 1075h514l43 230q-291 55 -368 55q-135 0 -160 -125z" />
<glyph horiz-adv-x="1771" d="M-182 -322q66 19 107 34t73.5 38t48.5 39.5t31 57t21 70t18 97.5l170 959h-146l21 102h143l29 160q42 238 272 238q157 0 430 -72q70 92 217 92q156 0 420 -70l-57 -94q-62 15 -174 33t-174 18q-42 0 -74 -12t-49.5 -32t-26.5 -39.5t-12 -41.5l-33 -180h592l-190 -1075 h-127l172 973h-463l-166 -955q-12 -68 -18 -100t-18.5 -79t-24 -67.5t-33 -51.5t-46.5 -45.5t-64 -35t-86 -34.5t-112 -31l-30 104q49 14 83.5 26t64 27.5t48 26.5t35 33.5t24.5 38t17.5 50t14.5 59t14 75.5l168 959h-514l-166 -955q-16 -90 -24 -129.5t-27.5 -94t-41.5 -77 t-65 -53t-99.5 -49.5t-142.5 -41zM432 1075h514l43 230q-291 55 -368 55q-135 0 -160 -125z" />
<glyph horiz-adv-x="1757" d="M-182 -322q66 19 107 34t73.5 38t48.5 39.5t31 57t21 70t18 97.5l170 959h-146l21 102h143l29 160q42 238 272 238q157 0 430 -72q70 92 217 92q156 0 420 -70l-57 -94q-62 15 -174 33t-174 18q-42 0 -74 -12t-49.5 -32t-26.5 -39.5t-12 -41.5l-33 -180h594l-203 -1138 q-23 -128 -43 -172q-33 -73 -122 -117q-73 -37 -218 -74l-32 104q48 14 83.5 26t64 25.5t47 23.5t33.5 27t23 28.5t15.5 35t10.5 39.5t9 49l187 1041h-465l-166 -955q-12 -68 -18 -100t-18.5 -79t-24 -67.5t-33 -51.5t-46.5 -45.5t-64 -35t-86 -34.5t-112 -31l-30 104 q49 14 83.5 26t64 27.5t48 26.5t35 33.5t24.5 38t17.5 50t14.5 59t14 75.5l168 959h-514l-166 -955q-16 -90 -24 -129.5t-27.5 -94t-41.5 -77t-65 -53t-99.5 -49.5t-142.5 -41zM432 1075h514l43 230q-291 55 -368 55q-135 0 -160 -125z" />
<glyph horiz-adv-x="2375" d="M-182 -322q66 19 107 34t73.5 38t48.5 39.5t31 57t21 70t18 97.5l170 959h-146l21 102h143l29 160q42 238 272 238q157 0 430 -72q70 92 215 92q156 0 402 -63l10 63h129l-178 -1010l575 592h158l-442 -438l317 -637h-131l-274 549l-234 -232l-55 -317h-129l235 1325 q-291 55 -368 55q-42 0 -73.5 -12t-48.5 -32t-26 -39.5t-12 -41.5l-33 -180h293l-18 -102h-291l-166 -955q-12 -68 -18 -100t-18.5 -79t-24 -67.5t-33 -51.5t-46.5 -45.5t-64 -35t-86 -34.5t-112 -31l-30 104q49 14 83.5 26t64 27.5t48 26.5t35 33.5t24.5 38t17.5 50 t14.5 59t14 75.5l168 959h-514l-166 -955q-16 -90 -24 -129.5t-27.5 -94t-41.5 -77t-65 -53t-99.5 -49.5t-142.5 -41zM432 1075h514l43 230q-291 55 -368 55q-135 0 -160 -125z" />
<glyph horiz-adv-x="704" d="M-180 -322q66 19 107 34t73.5 38t48.5 39.5t31 57t21 70t18 97.5l168 959h-146l21 102h143l33 180q22 128 76.5 183t156.5 55q90 0 252 -55l-53 -92q-35 11 -92 22.5t-86 11.5q-58 0 -86.5 -33t-40.5 -92l-33 -180h295l-16 -102h-297l-166 -955q-31 -173 -53 -228 q-34 -85 -111 -132q-74 -43 -234 -84z" />
<glyph horiz-adv-x="1837" d="M-182 -322q66 19 107 34t73.5 38t48.5 39.5t31 57t21 70t18 97.5l170 959h-146l21 102h143l29 160q42 238 272 238q157 0 430 -72q70 92 215 92q154 0 400 -63l12 63h129l-264 -1493h-129l233 1325q-291 55 -366 55q-42 0 -73.5 -12t-48.5 -32t-26 -39.5t-12 -41.5 l-33 -180h293l-18 -102h-291l-166 -955q-12 -68 -18 -100t-18.5 -79t-24 -67.5t-33 -51.5t-46.5 -45.5t-64 -35t-86 -34.5t-112 -31l-30 104q49 14 83.5 26t64 27.5t48 26.5t35 33.5t24.5 38t17.5 50t14.5 59t14 75.5l168 959h-514l-166 -955q-16 -90 -24 -129.5t-27.5 -94 t-41.5 -77t-65 -53t-99.5 -49.5t-142.5 -41zM432 1075h514l43 230q-291 55 -368 55q-135 0 -160 -125z" />
<glyph horiz-adv-x="2004" d="M-182 -322q66 19 107 34t73.5 38t48.5 39.5t31 57t21 70t18 97.5l170 959h-148l19 102h147l29 160q42 238 272 238q144 0 418 -68q56 88 195 88q64 0 156.5 -24t148.5 -46l-62 -90q-39 13 -116 30t-117 17q-58 0 -86.5 -33t-38.5 -92l-33 -180h481l50 271l133 40 l-56 -311h297l-18 -102h-297l-135 -764q-11 -65 11 -92t71 -27q61 0 223 62l35 -105q-49 -20 -136 -45t-141 -25q-46 0 -82 11.5t-66.5 40.5t-39 77.5t1.5 122.5l131 744h-479l-166 -955q-12 -68 -18 -100t-18.5 -79t-24 -67.5t-33 -51.5t-46.5 -45.5t-64 -35t-86 -34.5 t-112 -31l-28 104q49 14 83 26t63.5 27t47.5 27t34.5 33.5t25 38t18 49.5t14.5 59.5t13 75.5l168 959h-512l-166 -955q-16 -90 -24 -129.5t-27.5 -94t-41.5 -77t-65 -53t-99.5 -49.5t-142.5 -41zM432 1075h512l41 230q-261 55 -364 55q-135 0 -160 -125z" />
<glyph horiz-adv-x="1914" d="M-180 -322q49 14 83.5 26t64 27.5t48 26.5t34.5 33.5t24.5 38t17.5 50t14 59.5t13 75l168 959h-146l21 102h143l33 180q42 238 272 238q152 0 402 -63l12 63h129l-102 -569q93 63 219 118.5t243 55.5q155 0 217.5 -93t34.5 -243l-133 -762h-127l133 750q10 68 4.5 121 t-45.5 85.5t-114 32.5q-105 0 -234.5 -61.5t-218.5 -128.5l-141 -799h-129l233 1325q-291 55 -368 55q-135 0 -160 -125l-33 -180h295l-16 -102h-295l-166 -955q-16 -90 -24 -129.5t-27.5 -94t-41.5 -77t-65 -53t-99.5 -49.5t-142.5 -41z" />
<glyph horiz-adv-x="1257" d="M137 430l131 746h125l-133 -756q-11 -58 -11.5 -103.5t12 -88.5t41.5 -71.5t82 -45.5t128 -17q341 0 401 326l134 756h127l-134 -762q-78 -432 -524 -432q-458 0 -379 448zM498 1493h100q-7 -62 25.5 -89.5t111.5 -27.5q84 0 140 28.5t67 88.5h105q-17 -98 -99.5 -154.5 t-214.5 -56.5q-125 0 -188.5 57.5t-46.5 153.5z" />
<glyph horiz-adv-x="1132" d="M-180 -322q49 14 83.5 26t64 27.5t48 26.5t34.5 33.5t24.5 38t17.5 50t14 59.5t13 75l168 959h-146l21 102h143l33 180q42 238 274 238q153 0 422 -70l-57 -94q-66 15 -176.5 33t-171.5 18q-81 0 -117.5 -37.5t-44.5 -87.5l-33 -180h592l-190 -1075h-127l172 973h-465 l-166 -955q-16 -90 -24 -129.5t-27.5 -94t-41.5 -77t-65 -53t-99.5 -49.5t-142.5 -41z" />
<glyph horiz-adv-x="1118" d="M-180 -322q49 14 83.5 26t64 27.5t48 26.5t34.5 33.5t24.5 38t17.5 50t14 59.5t13 75l168 959h-146l21 102h143l33 180q42 238 274 238q153 0 422 -70l-57 -94q-66 15 -176.5 33t-171.5 18q-81 0 -117.5 -37.5t-44.5 -87.5l-33 -180h594l-203 -1138q-23 -128 -42 -171 q-33 -72 -119 -116q-73 -38 -222 -76l-32 104q48 14 83.5 26t64 25.5t47 23.5t33.5 27t23 28.5t15.5 35t10.5 39.5t9 49l187 1041h-467l-166 -955q-16 -90 -24 -129.5t-27.5 -94t-41.5 -77t-65 -53t-99.5 -49.5t-142.5 -41z" />
<glyph horiz-adv-x="1736" d="M-180 -322q66 19 107 34t73.5 38t48.5 39.5t31 57t21 70t18 97.5l168 959h-146l21 102h143l33 180q42 238 272 238q154 0 404 -63l10 63h129l-178 -1010l575 592h158l-442 -438l317 -637h-131l-274 549l-234 -232l-55 -317h-129l235 1325q-291 55 -370 55 q-135 0 -160 -125l-33 -180h295l-16 -102h-295l-166 -955q-16 -90 -24 -129.5t-27.5 -94t-41.5 -77t-65 -53t-99.5 -49.5t-142.5 -41z" />
<glyph horiz-adv-x="362" d="M160 788l24 142h123l-24 -142h-123zM236 1044l71 605h129l-137 -605h-63z" />
<glyph horiz-adv-x="1198" d="M-180 -322q66 19 107 34t73.5 38t48.5 39.5t31 57t21 70t18 97.5l168 959h-146l21 102h143l33 180q42 238 272 238q152 0 402 -63l12 63h129l-264 -1493h-129l233 1325q-291 55 -368 55q-135 0 -160 -125l-33 -180h295l-16 -102h-295l-166 -955q-16 -90 -24 -129.5 t-27.5 -94t-41.5 -77t-65 -53t-99.5 -49.5t-142.5 -41z" />
<glyph horiz-adv-x="1368" d="M-180 -322q49 14 83.5 26t64 27.5t48 26.5t34.5 33.5t24.5 38t17.5 50t14 59.5t13 75l168 959h-146l21 102h143l33 180q22 129 77.5 183.5t164.5 54.5q64 0 156.5 -24t148.5 -46l-60 -90q-41 13 -118 30t-115 17q-58 0 -86.5 -33t-40.5 -92l-33 -180h481l50 271l135 40 l-56 -311h295l-18 -102h-295l-137 -764q-21 -119 82 -119q61 0 223 62l35 -105q-49 -20 -136 -45t-141 -25q-46 0 -82 11.5t-66.5 40.5t-39 77.5t1.5 122.5l131 744h-479l-166 -955q-16 -90 -24 -129.5t-27.5 -94t-41.5 -77t-65 -53t-99.5 -49.5t-142.5 -41z" />
<glyph horiz-adv-x="501" d="M-100 -485q41 12 66.5 20.5t46 22t30.5 23.5t19 33t13 41.5t11 57.5l94 545h-90l14 80h91l16 88q15 87 53.5 124.5t114.5 37.5q47 0 108 -15.5t97 -31.5l-52 -70q-98 29 -137 29q-64 0 -78 -72l-16 -90h182l-14 -80h-182l-92 -541q-6 -35 -9.5 -51.5t-9.5 -43t-11 -38 t-14 -30.5t-18 -27.5t-24 -22t-32 -21t-40 -17.5t-50.5 -17.5t-62.5 -15.5z" />
<glyph horiz-adv-x="1257" d="M137 430l131 746h125l-133 -756q-11 -58 -11.5 -103.5t12 -88.5t41.5 -71.5t82 -45.5t128 -17q341 0 401 326l134 756h127l-134 -762q-78 -432 -524 -432q-458 0 -379 448zM594 1282l280 262h211l-374 -262h-117z" />
<glyph horiz-adv-x="790" d="M-14 84l57 72q122 -76 225 -76q97 0 174.5 58t77.5 155q0 74 -46.5 119t-131.5 45q-86 0 -195 -56l-61 35l123 424h487l-16 -92h-397l-64 -250q74 29 148 29q124 0 195 -72t71 -182q0 -128 -97 -217.5t-257 -89.5q-156 0 -293 98z" />
<glyph horiz-adv-x="790" d="M90 657l57 72q122 -76 226 -76q97 0 174.5 58t77.5 155q0 74 -46.5 119t-132.5 45q-87 0 -194 -55l-62 35l123 424h488l-17 -93h-397l-63 -249q72 28 147 28q124 0 195 -72t71 -182q0 -128 -97 -217.5t-257 -89.5q-156 0 -293 98z" />
<glyph horiz-adv-x="1142" d="M-41 -131l76 92q19 -14 46 -30.5t74 -39.5t108 -38t122 -15q78 0 153.5 26.5t138.5 74.5t101.5 124.5t38.5 167.5q0 134 -78.5 215.5t-222.5 81.5t-317 -96l-72 41l199 703h739l-21 -117h-630l-125 -475q125 59 256 59q189 0 300 -116.5t111 -295.5q0 -104 -40 -197.5 t-112 -163t-178.5 -110.5t-232.5 -41q-76 0 -144.5 14t-127 42t-88.5 46t-74 48z" />
<glyph horiz-adv-x="1224" d="M168 127l76 92q19 -14 46 -30.5t74 -39.5t108 -38t122 -15q78 0 153.5 26.5t138.5 74.5t101.5 124.5t38.5 167.5q0 134 -78.5 215.5t-222.5 81.5t-317 -96l-72 41l199 703h739l-21 -117h-630l-125 -475q125 59 256 59q189 0 300 -116.5t111 -295.5q0 -104 -40 -197.5 t-112 -163t-178.5 -110.5t-232.5 -41q-76 0 -144.5 14t-127 42t-88.5 46t-74 48z" />
<glyph horiz-adv-x="362" d="M49 -307l25 141h123l-25 -141h-123zM125 -51l72 604h129l-138 -604h-63z" />
<glyph horiz-adv-x="1652" d="M84 541l51 61q100 -61 195 -61q86 0 152.5 45t66.5 123q0 60 -41.5 96.5t-116.5 36.5q-90 0 -168 -47l-55 32l104 349h424l-12 -80h-346l-53 -199q61 23 127 23q110 0 172.5 -59.5t62.5 -149.5q0 -106 -83.5 -179t-223.5 -73q-134 0 -256 82zM356 0l797 1176h102 l-796 -1176h-103zM897 170q0 142 221 215q-110 56 -110 150q0 79 75.5 130.5t188.5 51.5q103 0 167 -44t64 -116q0 -116 -182 -180q160 -68 160 -182q0 -91 -92.5 -149t-227.5 -58q-119 0 -191.5 47.5t-72.5 134.5zM993 174q0 -54 46 -82.5t122 -28.5q88 0 153.5 38t65.5 96 q0 28 -14 52t-41 42.5t-50.5 29.5t-57.5 25q-36 -11 -64 -21t-59.5 -26t-52 -33t-34.5 -41t-14 -51zM1106 526q0 -72 113 -110q57 16 91.5 29t65.5 40t31 62q0 42 -37.5 70t-97.5 28q-67 0 -116.5 -35.5t-49.5 -83.5z" />
<glyph horiz-adv-x="364" d="M156 788l137 605h63l-71 -605h-129zM285 1507l24 142h123l-24 -142h-123z" />
<glyph horiz-adv-x="1611" d="M84 541l51 61q100 -61 195 -61q86 0 152.5 45t66.5 123q0 60 -41.5 96.5t-116.5 36.5q-90 0 -168 -47l-55 32l104 349h424l-12 -80h-346l-53 -199q61 23 127 23q110 0 172.5 -59.5t62.5 -149.5q0 -106 -83.5 -179t-223.5 -73q-134 0 -256 82zM354 0l797 1176h102 l-796 -1176h-103zM885 246q0 195 136.5 333t334.5 138q31 0 60.5 -4.5t43.5 -8.5l13 -4l-33 -69q-33 8 -78 8q-123 0 -222 -71.5t-139 -186.5q84 70 205 70q113 0 175.5 -59t62.5 -144q0 -106 -78.5 -183t-212.5 -77q-130 0 -199 75.5t-69 182.5zM979 242q0 -72 44.5 -123 t125.5 -51q90 0 144.5 52t54.5 126q0 53 -40.5 92t-117.5 39q-69 0 -128 -32.5t-83 -68.5v-34z" />
<glyph horiz-adv-x="364" d="M45 -307l137 604h64l-72 -604h-129zM174 412l25 141h123l-25 -141h-123z" />
<glyph horiz-adv-x="1257" d="M137 430l131 746h125l-133 -756q-11 -58 -11.5 -103.5t12 -88.5t41.5 -71.5t82 -45.5t128 -17q341 0 401 326l134 756h127l-134 -762q-78 -432 -524 -432q-458 0 -379 448z" />
<glyph horiz-adv-x="759" d="M227 1556l15 93h671l-16 -93h-279l-137 -768h-108l135 768h-281z" />
<glyph horiz-adv-x="849" d="M-12 190l12 80l535 590h145l-102 -579h133l-17 -91h-133l-33 -190h-108l33 190h-465zM127 281h342l84 479z" />
<glyph horiz-adv-x="847" d="M90 764l12 80l535 590h145l-102 -580h133l-16 -90h-133l-33 -191h-109l33 191h-465zM229 854h342l84 479z" />
<glyph horiz-adv-x="1224" d="M-35 72l19 106l868 998h174l-176 -988h219l-20 -116h-220l-57 -330h-135l57 330h-729zM137 188h578l149 844z" />
<glyph horiz-adv-x="1224" d="M131 330l19 106l868 998h170l-174 -988h215l-19 -116h-217l-57 -330h-131l57 330h-731zM303 446h580l149 846z" />
<glyph horiz-adv-x="1720" d="M76 625l10 69l459 482h131l-86 -474h119l-13 -77h-121l-26 -154h-98l26 154h-401zM199 702h293l67 385zM428 0l799 1176h104l-799 -1176h-104zM977 70l51 61q109 -61 195 -61q85 0 153 45.5t68 122.5q0 61 -41.5 98t-116.5 37q-82 0 -168 -47l-55 30l102 349h426l-12 -78 h-348l-55 -203q66 25 131 25q110 0 172.5 -59t62.5 -150q0 -105 -84.5 -178.5t-222.5 -73.5q-136 0 -258 82z" />
<glyph horiz-adv-x="507" d="M57 0l183 829h75l-110 -829h-148zM233 991l31 185h150l-33 -185h-148z" />
<glyph horiz-adv-x="1257" d="M137 430l131 746h125l-133 -756q-11 -58 -11.5 -103.5t12 -88.5t41.5 -71.5t82 -45.5t128 -17q341 0 401 326l134 756h127l-134 -762q-78 -432 -524 -432q-458 0 -379 448zM457 1282l241 262h166l154 -262h-94l-148 184l-211 -184h-108z" />
<glyph horiz-adv-x="505" d="M57 0l33 184h148l-31 -184h-150zM156 346l110 830h148l-183 -830h-75z" />
<glyph horiz-adv-x="1177" d="M47 283l16 94h115l189 1057h868l-21 -117h-735l-94 -543h586l-21 -117h-585l-52 -280h365l-16 -94h-365l-51 -283h-133l49 283h-115z" />
<glyph horiz-adv-x="1060" d="M35 227l14 84h101l153 865h762l-18 -111h-637l-74 -424h506l-15 -109h-512l-39 -221h318l-14 -84h-320l-39 -227h-127l39 227h-98z" />
<glyph horiz-adv-x="784" d="M37 -147l12 67h74l113 633h563l-13 -92h-456l-54 -293h363l-14 -90h-365l-29 -158h232l-10 -67h-234l-26 -160h-109l27 160h-74z" />
<glyph horiz-adv-x="784" d="M147 948l13 68h73l113 633h563l-12 -93h-457l-53 -292h363l-15 -90h-364l-29 -158h233l-12 -68h-233l-27 -160h-108l26 160h-74z" />
<glyph horiz-adv-x="501" d="M10 610q41 12 66.5 21t46 22t31 23.5t19.5 33t13 41.5t11 58l94 545h-90l14 80h90l17 88q15 87 53 124t114 37q47 0 108 -15.5t97 -31.5l-51 -69q-95 28 -137 28q-64 0 -78 -71l-16 -90h182l-14 -80h-183l-92 -541q-6 -36 -9 -52t-9.5 -42.5t-11 -38t-13.5 -31t-18.5 -28 t-24 -22t-31.5 -20.5t-40.5 -17.5t-50.5 -18t-62 -15.5z" />
<glyph horiz-adv-x="759" d="M117 461l14 92h672l-17 -92h-278l-137 -768h-109l135 768h-280z" />
<glyph horiz-adv-x="1171" d="M68 0l208 1176h125l-36 -213h284q92 0 165.5 -17.5t131.5 -53.5t89.5 -98t31.5 -145q0 -189 -140.5 -294t-369.5 -105h-317l-45 -250h-127zM258 358h295q107 0 191 29.5t137 96.5t53 165q0 203 -281 203h-309z" />
<glyph horiz-adv-x="1013" d="M111 -307l47 84q55 -27 108 -27q55 0 93 30t38 91q0 59 -30 129h-29l186 1065h-393l19 111h913l-21 -111h-391l-188 -1065h-29q8 -10 18.5 -28t22.5 -55t12 -73q0 -86 -58.5 -137t-160.5 -51q-90 0 -157 37z" />
<glyph horiz-adv-x="1013" d="M131 1065l19 111h913l-21 -111h-391l-188 -1065h-125l186 1065h-393zM389 1544h94l150 -182l209 182h108l-241 -262h-166z" />
<glyph horiz-adv-x="1034" d="M139 1065l19 111h913l-20 -111h-392l-104 -590h197l-17 -86h-196l-68 -389h-125l68 389h-201l14 86h201l104 590h-393z" />
<glyph horiz-adv-x="862" d="M45 -307l105 600q52 299 333 299q123 0 195 -52.5t72 -136.5q0 -37 -14.5 -69t-29.5 -45l-14 -13q-26 -7 -39.5 -11.5t-40 -15.5t-41.5 -22.5t-27 -30t-12 -40.5q0 -15 4.5 -27t17 -24.5t22 -20.5t32 -24t33.5 -25q55 -41 82 -78.5t27 -87.5q0 -86 -70.5 -138.5 t-169.5 -52.5q-118 0 -246 74l49 68q104 -60 191 -60q57 0 99 30t42 79q0 31 -19 52t-71 56q-4 3 -21 14.5t-22.5 15.5t-20 16t-20 19t-16 20t-14.5 24.5t-7.5 27t-3.5 31.5q0 33 14 61t31 46t49.5 36t52.5 26t56 22q16 26 16 59q0 52 -42.5 81.5t-117.5 29.5 q-194 0 -233 -217l-104 -596h-107z" />
<glyph horiz-adv-x="862" d="M156 788l104 601q52 299 334 299q123 0 194.5 -52t71.5 -137q0 -24 -6 -45.5t-14 -35.5t-16.5 -25t-14.5 -16l-6 -5q-31 -9 -50.5 -16t-49 -21.5t-45 -35.5t-15.5 -48q0 -15 4.5 -27t17 -24.5t22 -20.5t32 -24t33.5 -25q55 -41 81.5 -78t26.5 -87q0 -86 -70 -138.5 t-169 -52.5q-118 0 -246 74l49 67q103 -59 190 -59q57 0 99.5 30t42.5 79q0 31 -19 52t-71 56q-4 3 -21 14.5t-22.5 15.5t-20 16t-20 19t-16 20t-14.5 24.5t-7.5 27t-3.5 31.5q0 33 13.5 61t31 46t49.5 36t52 26t56 22q17 34 17 61q0 51 -42.5 80t-117.5 29 q-92 0 -151.5 -49.5t-81.5 -168.5l-105 -596h-106z" />
<glyph horiz-adv-x="800" d="M2 -524l33 86q164 -47 270 -47q91 0 136.5 41t54.5 98l24 137q-131 -113 -262 -113q-83 0 -142 57.5t-59 178.5q0 190 87.5 314t224.5 124q49 0 97 -19t75 -38t59 -47l16 90h107l-121 -682q-23 -126 -97 -175.5t-196 -49.5q-147 0 -307 45zM166 -78q0 -73 31.5 -115.5 t89.5 -42.5q66 0 122.5 31t127.5 90l49 277q-39 44 -90.5 74t-104.5 30q-69 0 -121.5 -50.5t-78 -128t-25.5 -165.5z" />
<glyph horiz-adv-x="1013" d="M131 1065l19 111h913l-21 -111h-391l-188 -1065h-125l186 1065h-393z" />
<glyph horiz-adv-x="804" d="M125 887l59 78q163 -99 301 -99q90 0 153.5 42t63.5 108q0 21 -5.5 38.5t-21 32.5t-27 25t-40 23t-42.5 19t-51.5 20t-51.5 20q-53 20 -87 36.5t-68.5 43t-51 63t-16.5 84.5q0 111 87 176.5t224 65.5q157 0 328 -92l-60 -74q-58 31 -133.5 52.5t-134.5 21.5 q-81 0 -138 -38.5t-57 -105.5q0 -18 4 -32.5t16 -27.5t21.5 -21t34 -19.5t38 -17t48.5 -19t53 -20.5q46 -17 74 -29.5t64 -34.5t56.5 -45t35 -57.5t14.5 -75.5q0 -117 -95.5 -185.5t-234.5 -68.5q-97 0 -192.5 33.5t-167.5 79.5z" />
<glyph horiz-adv-x="1257" d="M137 430l131 746h125l-133 -756q-11 -58 -11.5 -103.5t12 -88.5t41.5 -71.5t82 -45.5t128 -17q341 0 401 326l134 756h127l-134 -762q-78 -432 -524 -432q-458 0 -379 448zM498 1303l30 178h148l-31 -178h-147zM834 1303l32 178h146l-33 -178h-145z" />
<glyph horiz-adv-x="800" d="M113 571l32 86q164 -47 271 -47q90 0 135.5 41.5t54.5 98.5l25 137q-131 -113 -262 -113q-83 0 -142 57.5t-59 178.5q0 190 87 314t224 124q112 0 232 -105l16 91h107l-121 -682q-16 -87 -59 -138.5t-99 -69.5t-135 -18q-147 0 -307 45zM276 1018q0 -73 31.5 -115.5 t89.5 -42.5q66 0 122.5 31t127.5 90l49 276q-93 105 -194 105q-102 0 -164 -103.5t-62 -240.5z" />
<glyph horiz-adv-x="804" d="M14 -209l60 78q161 -98 301 -98q90 0 153.5 41.5t63.5 107.5q0 21 -5.5 38.5t-21 32.5t-27.5 25t-40 23t-42.5 19.5t-51.5 20t-52 19.5q-53 20 -87 37t-68.5 43.5t-51 63t-16.5 84.5q0 111 87 176t224 65q157 0 328 -92l-59 -74q-58 31 -134 52.5t-135 21.5 q-81 0 -137.5 -38t-56.5 -105q0 -16 4.5 -29.5t10 -23.5t19 -21t23.5 -17.5t32 -16t35.5 -15t43.5 -17t47 -18.5q46 -17 74 -29.5t64 -34.5t56.5 -45t35 -57.5t14.5 -75.5q0 -117 -95.5 -185.5t-234.5 -68.5q-98 0 -193.5 33.5t-167.5 79.5z" />
<glyph horiz-adv-x="1093" d="M6 129l74 92q230 -131 409 -131q133 0 226.5 61t93.5 160q0 20 -5 38.5t-11.5 33.5t-22 30t-26.5 25.5t-35 23.5t-37.5 20.5t-44.5 20.5t-45.5 19t-51 19.5t-51.5 19.5q-61 22 -97.5 38t-83 43.5t-71.5 56.5t-43 73t-18 98q0 149 119.5 236.5t302.5 87.5q212 0 436 -121 l-70 -88q-200 100 -370 100q-116 0 -200.5 -56.5t-84.5 -154.5q0 -20 3.5 -37t13.5 -32t18.5 -26t28 -23.5t32.5 -20t42 -19.5t45 -18.5t53 -20.5t57 -22q48 -18 77 -29.5t70 -31.5t65.5 -37t53 -42.5t44 -52.5t26 -63t10.5 -77q0 -105 -64 -184t-165.5 -117.5t-221.5 -38.5 q-227 0 -481 147zM260 -494l115 179h-68l33 182h141l-12 -186l-168 -222z" />
<glyph horiz-adv-x="1257" d="M137 430l131 746h125l-133 -756q-11 -58 -11.5 -103.5t12 -88.5t41.5 -71.5t82 -45.5t128 -17q341 0 401 326l134 756h127l-134 -762q-78 -432 -524 -432q-458 0 -379 448zM483 1544h187l211 -262h-103z" />
<glyph horiz-adv-x="1257" d="M137 430l131 746h125l-133 -756q-11 -58 -11.5 -103.5t12 -88.5t41.5 -71.5t82 -45.5t128 -17q341 0 401 326l134 756h127l-134 -762q-78 -432 -524 -432q-458 0 -379 448zM510 1282l190 262h183l-285 -262h-88zM801 1282l188 262h182l-282 -262h-88z" />
<glyph horiz-adv-x="1093" d="M6 129l74 92q230 -131 409 -131q133 0 226.5 61t93.5 160q0 20 -5 38.5t-11.5 33.5t-22 30t-26.5 25.5t-35 23.5t-37.5 20.5t-44.5 20.5t-45.5 19t-51 19.5t-51.5 19.5q-61 22 -97.5 38t-83 43.5t-71.5 56.5t-43 73t-18 98q0 149 119.5 236.5t302.5 87.5q212 0 436 -121 l-70 -88q-200 100 -370 100q-116 0 -200.5 -56.5t-84.5 -154.5q0 -20 3.5 -37t13.5 -32t18.5 -26t28 -23.5t32.5 -20t42 -19.5t45 -18.5t53 -20.5t57 -22q48 -18 77 -29.5t70 -31.5t65.5 -37t53 -42.5t44 -52.5t26 -63t10.5 -77q0 -105 -64 -184t-165.5 -117.5t-221.5 -38.5 q-227 0 -481 147zM379 1282l242 262h165l154 -262h-94l-148 184l-211 -184h-108z" />
<glyph horiz-adv-x="1093" d="M6 129l74 92q230 -131 409 -131q133 0 226.5 61t93.5 160q0 20 -5 38.5t-11.5 33.5t-22 30t-26.5 25.5t-35 23.5t-37.5 20.5t-44.5 20.5t-45.5 19t-51 19.5t-51.5 19.5q-61 22 -97.5 38t-83 43.5t-71.5 56.5t-43 73t-18 98q0 149 119.5 236.5t302.5 87.5q212 0 436 -121 l-70 -88q-200 100 -370 100q-116 0 -200.5 -56.5t-84.5 -154.5q0 -20 3.5 -37t13.5 -32t18.5 -26t28 -23.5t32.5 -20t42 -19.5t45 -18.5t53 -20.5t57 -22q48 -18 77 -29.5t70 -31.5t65.5 -37t53 -42.5t44 -52.5t26 -63t10.5 -77q0 -77 -34.5 -140.5t-93 -105t-134 -65.5 t-160.5 -27q41 -74 41 -140q0 -86 -58.5 -137t-160.5 -51q-91 0 -158 37l47 84q55 -27 109 -27q55 0 93 30t38 91q0 45 -25 113q-211 12 -436 145z" />
<glyph horiz-adv-x="802" d="M45 -307l158 895h106l-59 -336q154 100 280 100q100 0 141 -57t25 -152l-80 -450h-106l78 440q25 133 -88 133q-64 0 -141 -34t-126 -72l-81 -467h-107z" />
<glyph horiz-adv-x="1093" d="M6 129l74 92q230 -131 409 -131q133 0 226.5 61t93.5 160q0 20 -5 38.5t-11.5 33.5t-22 30t-26.5 25.5t-35 23.5t-37.5 20.5t-44.5 20.5t-45.5 19t-51 19.5t-51.5 19.5q-61 22 -97.5 38t-83 43.5t-71.5 56.5t-43 73t-18 98q0 149 119.5 236.5t302.5 87.5q212 0 436 -121 l-70 -88q-200 100 -370 100q-116 0 -200.5 -56.5t-84.5 -154.5q0 -20 3.5 -37t13.5 -32t18.5 -26t28 -23.5t32.5 -20t42 -19.5t45 -18.5t53 -20.5t57 -22q48 -18 77 -29.5t70 -31.5t65.5 -37t53 -42.5t44 -52.5t26 -63t10.5 -77q0 -105 -64 -184t-165.5 -117.5t-221.5 -38.5 q-227 0 -481 147zM424 1544h94l150 -182l209 182h108l-242 -262h-165z" />
<glyph horiz-adv-x="929" d="M119 16l94 537h109l-97 -551q-12 -48 -9 -89.5t19 -72.5t58 -49t108 -18q234 0 275 229l96 551h111l-99 -555q-56 -320 -383 -320q-344 0 -282 338z" />
<glyph horiz-adv-x="1093" d="M6 129l74 92q230 -131 409 -131q133 0 226.5 61t93.5 160q0 20 -5 38.5t-11.5 33.5t-22 30t-26.5 25.5t-35 23.5t-37.5 20.5t-44.5 20.5t-45.5 19t-51 19.5t-51.5 19.5q-61 22 -97.5 38t-83 43.5t-71.5 56.5t-43 73t-18 98q0 149 119.5 236.5t302.5 87.5q212 0 436 -121 l-70 -88q-200 100 -370 100q-116 0 -200.5 -56.5t-84.5 -154.5q0 -20 3.5 -37t13.5 -32t18.5 -26t28 -23.5t32.5 -20t42 -19.5t45 -18.5t53 -20.5t57 -22q48 -18 77 -29.5t70 -31.5t65.5 -37t53 -42.5t44 -52.5t26 -63t10.5 -77q0 -105 -64 -184t-165.5 -117.5t-221.5 -38.5 q-227 0 -481 147zM516 1282l281 262h211l-375 -262h-117z" />
<glyph horiz-adv-x="1093" d="M6 129l74 92q230 -131 409 -131q133 0 226.5 61t93.5 160q0 20 -5 38.5t-11.5 33.5t-22 30t-26.5 25.5t-35 23.5t-37.5 20.5t-44.5 20.5t-45.5 19t-51 19.5t-51.5 19.5q-61 22 -97.5 38t-83 43.5t-71.5 56.5t-43 73t-18 98q0 149 119.5 236.5t302.5 87.5q212 0 436 -121 l-70 -88q-200 100 -370 100q-116 0 -200.5 -56.5t-84.5 -154.5q0 -20 3.5 -37t13.5 -32t18.5 -26t28 -23.5t32.5 -20t42 -19.5t45 -18.5t53 -20.5t57 -22q48 -18 77 -29.5t70 -31.5t65.5 -37t53 -42.5t44 -52.5t26 -63t10.5 -77q0 -105 -64 -184t-165.5 -117.5t-221.5 -38.5 q-227 0 -481 147z" />
<glyph horiz-adv-x="901" d="M174 788l152 861h340q142 0 222.5 -54t80.5 -168t-80.5 -186t-210.5 -86l178 -367h-113l-170 365h-227l-63 -365h-109zM362 1241h238q118 0 188 48.5t70 137.5q0 134 -196 134h-242z" />
<glyph horiz-adv-x="901" d="M63 -307l152 860h340q142 0 222.5 -53.5t80.5 -167.5t-80.5 -186.5t-210.5 -86.5l178 -366h-112l-170 364h-227l-64 -364h-109zM252 145h237q118 0 188.5 49t70.5 138q0 133 -197 133h-242z" />
<glyph horiz-adv-x="1218" d="M68 0l208 1176h459q188 0 299 -72t111 -223q0 -159 -114 -256t-296 -115l256 -510h-133l-242 506h-331l-90 -506h-127zM303 612h336q172 0 273.5 69t101.5 198q0 99 -77 144.5t-206 45.5h-348zM307 -494l115 179h-68l33 182h141l-12 -186l-168 -222z" />
<glyph horiz-adv-x="1218" d="M68 0l208 1176h459q188 0 299 -72t111 -223q0 -159 -114 -256t-296 -115l256 -510h-133l-242 506h-331l-90 -506h-127zM303 612h336q172 0 273.5 69t101.5 198q0 99 -77 144.5t-206 45.5h-348zM514 1544h94l150 -182l209 182h108l-241 -262h-166z" />
<glyph horiz-adv-x="1218" d="M68 0l208 1176h459q188 0 299 -72t111 -223q0 -159 -114 -256t-296 -115l256 -510h-133l-242 506h-331l-90 -506h-127zM303 612h336q172 0 273.5 69t101.5 198q0 99 -77 144.5t-206 45.5h-348zM608 1282l281 262h211l-375 -262h-117z" />
<glyph horiz-adv-x="335" d="M45 -307l115 645h106l-114 -645h-107zM176 465l21 121h116l-20 -121h-117z" />
<glyph horiz-adv-x="1218" d="M68 0l208 1176h459q188 0 299 -72t111 -223q0 -159 -114 -256t-296 -115l256 -510h-133l-242 506h-331l-90 -506h-127zM303 612h336q172 0 273.5 69t101.5 198q0 99 -77 144.5t-206 45.5h-348z" />
<glyph horiz-adv-x="987" d="M207 1139q-1 66 14.5 135.5t50.5 140t85.5 125t127 89t168.5 34.5q188 0 275.5 -98.5t89.5 -266.5q1 -73 -19 -151t-60 -152t-109.5 -131t-157.5 -78l131 -120l-80 -68l-166 176q-181 3 -264.5 101t-85.5 264zM317 1139q0 -43 5.5 -78.5t21.5 -72.5t42.5 -62.5t72 -41.5 t106.5 -16q69 0 128 29t97.5 74.5t65.5 103t39 114t12 107.5q0 55 -9.5 98.5t-35 85.5t-77.5 65.5t-128 23.5q-86 0 -154.5 -43.5t-107 -111t-58.5 -138.5t-20 -137z" />
<glyph horiz-adv-x="1257" d="M137 430l131 746h125l-133 -756q-11 -58 -11.5 -103.5t12 -88.5t41.5 -71.5t82 -45.5t128 -17q341 0 401 326l134 756h127l-134 -762q-78 -432 -524 -432q-458 0 -379 448zM451 1333l16 94h584l-17 -94h-583z" />
<glyph horiz-adv-x="1257" d="M137 430l131 746h125l-133 -756q-11 -58 -11.5 -103.5t12 -88.5t41.5 -71.5t82 -45.5t128 -17q341 0 401 326l134 756h127l-134 -762q-61 -339 -350 -412q-132 -64 -190 -114t-58 -103q0 -15 5 -26t17.5 -17.5t22.5 -10.5t30.5 -5.5t31 -1.5h34.5h13l-33 -91q-27 0 -45 1 t-49.5 4.5t-52 12t-42.5 23t-33 39t-11 56.5q0 122 194 213h-8q-458 0 -379 448z" />
<glyph horiz-adv-x="987" d="M96 43q-1 66 14.5 135.5t50.5 140t85.5 125t127.5 89t169 34.5q188 0 275 -98t89 -266q1 -73 -19 -151t-60 -152t-109.5 -131t-157.5 -78l131 -121l-80 -68l-166 176q-181 3 -264.5 101t-85.5 264zM207 43q0 -43 5.5 -78t21.5 -72t42.5 -62.5t72 -41.5t106.5 -16 q69 0 128 29t97.5 74.5t65.5 103t39 114t12 107.5q0 55 -9.5 98t-35 85t-77.5 65.5t-128 23.5q-86 0 -154.5 -43.5t-107 -111t-58.5 -138.5t-20 -137z" />
<glyph horiz-adv-x="753" d="M66 -35q0 168 103.5 277.5t270.5 109.5q112 0 174 -48t62 -126q0 -209 -424 -209h-80v-6q0 -98 43 -150.5t121 -52.5q15 0 31 1.5t33 6t30.5 8t32 11t28.5 11.5t29 13t25 12l25 12.5t20 10.5l39 -73q-180 -95 -307 -95q-119 0 -187.5 73t-68.5 214zM178 35h82 q156 0 233.5 37.5t77.5 103.5q0 44 -36 69t-99 25q-98 0 -168.5 -65t-89.5 -170z" />
<glyph horiz-adv-x="1329" d="M104 475q-1 92 20.5 189t70.5 192.5t118.5 170t174.5 121t229 46.5q131 0 227.5 -37t153.5 -105.5t84 -156t28 -197.5q1 -82 -17 -168.5t-57 -174t-95.5 -160t-140.5 -127t-183 -74.5l184 -168l-94 -82l-225 238q-127 2 -220.5 40t-148.5 106t-81.5 154t-27.5 193z M236 475q0 -383 358 -383q98 0 181 41t138 106t93.5 146.5t55.5 161.5t17 153q0 381 -358 381q-99 0 -182 -41t-137.5 -105.5t-93 -146.5t-55.5 -161t-17 -152z" />
<glyph horiz-adv-x="849" d="M174 788l152 861h305q142 0 225.5 -56.5t83.5 -175.5q0 -138 -101.5 -216.5t-267.5 -78.5h-229l-59 -334h-109zM358 1212h203q114 0 189 52t75 151q0 141 -192 141h-213z" />
<glyph horiz-adv-x="849" d="M63 -307l152 860h305q142 0 225.5 -56t83.5 -175q0 -139 -101 -217t-267 -78h-230l-59 -334h-109zM248 117h203q115 0 189.5 51.5t74.5 150.5q0 142 -193 142h-213z" />
<glyph horiz-adv-x="354" d="M-123 -487q60 17 92 30t50.5 31.5t24 35t11.5 52.5l119 676h107l-119 -670q-6 -32 -8.5 -47t-9.5 -39t-14 -34.5t-20.5 -27.5t-30.5 -26t-42.5 -21.5t-58.5 -22t-76 -19.5zM190 465l21 121h119l-23 -121h-117z" />
<glyph horiz-adv-x="1224" d="M154 330q0 299 430 448q-209 104 -209 303q0 168 134.5 271.5t334.5 103.5q178 0 286.5 -85.5t108.5 -227.5q0 -248 -354 -377q60 -28 106.5 -58.5t93 -75t72 -104.5t25.5 -131q0 -93 -47.5 -173t-127 -133.5t-183.5 -83.5t-218 -30q-202 0 -327 92.5t-125 260.5z M291 334q0 -117 85 -180.5t226 -63.5q113 0 212.5 37.5t163.5 109.5t64 162q0 193 -313 318q-69 -22 -124 -43.5t-116.5 -56t-102.5 -73t-68 -93t-27 -117.5zM506 1073q0 -158 229 -246q76 24 134.5 48.5t116 61t89 85.5t31.5 108q0 90 -72.5 153t-189.5 63 q-137 0 -237.5 -80.5t-100.5 -192.5z" />
<glyph horiz-adv-x="1150" d="M68 0l208 1176h410q191 0 303.5 -75.5t112.5 -238.5q0 -189 -139.5 -293t-368.5 -104h-318l-81 -465h-127zM297 573h293q165 0 273 73.5t108 217.5q0 106 -76 154.5t-205 48.5h-307z" />
<glyph horiz-adv-x="1331" d="M104 475q-1 92 20.5 189t70.5 192.5t118.5 170t174.5 121t229 46.5q131 0 227.5 -37t153.5 -105.5t84 -156t28 -197.5q1 -92 -21 -188t-70.5 -191.5t-118.5 -169.5t-175 -120.5t-229 -46.5q-131 0 -227 37t-153 105t-84 155t-28 196zM236 475q0 -383 358 -383 q98 0 181 41t138 106t93.5 146.5t55.5 161.5t17 153q0 381 -358 381q-99 0 -182 -41t-137.5 -105.5t-93 -146.5t-55.5 -161t-17 -152zM494 1352q52 78 92 111.5t96 33.5q36 0 71.5 -15.5t59 -34.5t51.5 -34.5t51 -15.5q24 0 49 18.5t66 75.5l74 -45q-56 -80 -95 -113 t-96 -33q-35 0 -70 16t-58.5 34.5t-51.5 34.5t-51 16q-25 0 -50 -17.5t-67 -74.5z" />
<glyph horiz-adv-x="987" d="M207 1139q-1 66 14.5 135.5t50.5 140t85.5 125t127 89t168.5 34.5q188 0 275.5 -98.5t89.5 -266.5q1 -66 -14.5 -135.5t-50.5 -140t-85.5 -125t-128 -89t-170.5 -34.5q-96 0 -166.5 27t-112.5 77.5t-62 115t-21 145.5zM317 1139q0 -43 5.5 -78.5t21.5 -72.5t42.5 -62.5 t72 -41.5t106.5 -16q69 0 128 29t97.5 74.5t65.5 103t39 114t12 107.5q0 55 -9.5 98.5t-35 85.5t-77.5 65.5t-128 23.5q-86 0 -154.5 -43.5t-107 -111t-58.5 -138.5t-20 -137z" />
<glyph horiz-adv-x="694" d="M45 -307l158 895h106l-102 -578l330 328h131l-277 -264l201 -381h-107l-166 313l-135 -127l-32 -186h-107z" />
<glyph horiz-adv-x="694" d="M156 788l157 895h107l-103 -577l330 328h131l-276 -265l200 -381h-106l-166 314l-135 -129l-33 -185h-106z" />
<glyph horiz-adv-x="1320" d="M31 0l157 166q-77 122 -77 309q-1 92 20.5 189t70 192.5t118 170t174.5 121t229 46.5q219 0 344 -109l86 91h107l-140 -146q94 -125 97 -332q1 -92 -21 -188t-71 -191.5t-119 -169.5t-175 -120.5t-229 -46.5q-240 0 -362 122l-101 -104h-108zM242 475q0 -130 39 -213 l702 737q-89 82 -256 82q-99 0 -182 -41t-137.5 -105.5t-93 -146.5t-55.5 -161t-17 -152zM324 195q89 -103 276 -103q98 0 181 41t138 106t93.5 146.5t55.5 161.5t17 153q0 145 -53 238zM625 1282l280 262h211l-375 -262h-116z" />
<glyph horiz-adv-x="1253" d="M66 330q0 299 430 448q-209 104 -209 303q0 168 134.5 271.5t334.5 103.5q178 0 286.5 -85.5t108.5 -227.5q0 -248 -354 -377q60 -28 106.5 -58.5t93 -75t72 -104.5t25.5 -131q0 -93 -47.5 -173t-127 -133.5t-183.5 -83.5t-218 -30q-202 0 -327 92.5t-125 260.5zM203 334 q0 -117 85 -180.5t226 -63.5q113 0 212.5 37.5t163.5 109.5t64 162q0 193 -313 318q-69 -22 -124 -43.5t-116.5 -56t-102.5 -73t-68 -93t-27 -117.5zM418 1073q0 -158 229 -246q76 24 134.5 48.5t116 61t89 85.5t31.5 108q0 90 -72.5 153t-189.5 63q-137 0 -237.5 -80.5 t-100.5 -192.5z" />
<glyph horiz-adv-x="1331" d="M104 475q-1 92 20.5 189t70.5 192.5t118.5 170t174.5 121t229 46.5q131 0 227.5 -37t153.5 -105.5t84 -156t28 -197.5q1 -92 -21 -188t-70.5 -191.5t-118.5 -169.5t-175 -120.5t-229 -46.5q-131 0 -227 37t-153 105t-84 155t-28 196zM236 475q0 -383 358 -383 q98 0 181 41t138 106t93.5 146.5t55.5 161.5t17 153q0 381 -358 381q-99 0 -182 -41t-137.5 -105.5t-93 -146.5t-55.5 -161t-17 -152zM494 1333l16 94h584l-17 -94h-583z" />
<glyph horiz-adv-x="987" d="M96 43q-1 66 14.5 135.5t50.5 140t85.5 125t127.5 89t169 34.5q188 0 275 -98t89 -266q1 -66 -14 -136t-50.5 -140t-86 -125t-127.5 -89.5t-170 -34.5q-187 0 -274 98.5t-89 266.5zM207 43q0 -43 5.5 -78t21.5 -72t42.5 -62.5t72 -41.5t106.5 -16q69 0 128 29t97.5 74.5 t65.5 103t39 114t12 107.5q0 55 -9.5 98t-35 85t-77.5 65.5t-128 23.5q-86 0 -154.5 -43.5t-107 -111t-58.5 -138.5t-20 -137z" />
<glyph horiz-adv-x="1331" d="M104 475q-1 92 20.5 189t70.5 192.5t118.5 170t174.5 121t229 46.5q131 0 227.5 -37t153.5 -105.5t84 -156t28 -197.5q1 -92 -21 -188t-70.5 -191.5t-118.5 -169.5t-175 -120.5t-229 -46.5q-131 0 -227 37t-153 105t-84 155t-28 196zM236 475q0 -383 358 -383 q98 0 181 41t138 106t93.5 146.5t55.5 161.5t17 153q0 381 -358 381q-99 0 -182 -41t-137.5 -105.5t-93 -146.5t-55.5 -161t-17 -152zM553 1282l190 262h183l-285 -262h-88zM844 1282l188 262h182l-282 -262h-88z" />
<glyph horiz-adv-x="1331" d="M104 475q-1 92 20.5 189t70.5 192.5t118.5 170t174.5 121t229 46.5q131 0 227.5 -37t153.5 -105.5t84 -156t28 -197.5q1 -92 -21 -188t-70.5 -191.5t-118.5 -169.5t-175 -120.5t-229 -46.5q-131 0 -227 37t-153 105t-84 155t-28 196zM236 475q0 -383 358 -383 q98 0 181 41t138 106t93.5 146.5t55.5 161.5t17 153q0 381 -358 381q-99 0 -182 -41t-137.5 -105.5t-93 -146.5t-55.5 -161t-17 -152zM526 1544h187l211 -262h-103z" />
<glyph horiz-adv-x="856" d="M123 778q0 173 260 264q-125 66 -125 181q0 99 86.5 162t216.5 63q119 0 190.5 -52.5t71.5 -140.5q0 -140 -211 -223q185 -80 185 -219q0 -111 -109 -182.5t-262 -71.5q-139 0 -221 57t-82 162zM233 782q0 -66 51.5 -100.5t137.5 -34.5q102 0 180 47.5t78 120.5 q0 34 -15.5 62.5t-45 50.5t-57.5 37t-66 30q-42 -13 -74.5 -25t-69.5 -31.5t-61.5 -41t-41 -51.5t-16.5 -64zM365 1214q0 -28 12 -51t36.5 -40t40 -25.5t44.5 -20.5q46 13 80 26.5t67.5 33.5t51.5 47t18 59q0 51 -42.5 86t-111.5 35q-80 0 -138 -44.5t-58 -105.5z" />
<glyph horiz-adv-x="350" d="M51 -307l158 895h106l-157 -895h-107z" />
<glyph horiz-adv-x="854" d="M16 205q0 173 260 264q-124 66 -124 180q0 99 86.5 162t216.5 63q119 0 190.5 -52t71.5 -140q0 -140 -211 -223q184 -80 184 -219q0 -111 -109 -182.5t-262 -71.5q-139 0 -221 57t-82 162zM127 209q0 -66 51 -100.5t137 -34.5q102 0 180 47.5t78 120.5q0 34 -15.5 62.5 t-45 50.5t-57.5 37t-66 30q-42 -13 -74.5 -25t-69.5 -31.5t-61.5 -41t-40.5 -51.5t-16 -64zM258 641q0 -28 12 -51t36.5 -40t40 -25.5t44.5 -20.5q46 13 80 26.5t67.5 33.5t51.5 47t18 59q0 51 -42 86t-111 35q-80 0 -138.5 -44.5t-58.5 -105.5z" />
<glyph horiz-adv-x="1001" d="M20 0l15 90q7 4 19 12t45.5 34.5t63 55t64 71t56.5 85.5h-187l15 82h202q9 45 9 64q0 24 -7 55h-182l14 82h144q-6 16 -23.5 54.5t-26 60t-16.5 56.5t-8 68q0 144 103.5 234t275.5 90q75 0 154.5 -24t118 -44.5t102.5 -58.5l-70 -80q-178 98 -297 98q-121 0 -192.5 -64.5 t-71.5 -156.5q0 -43 11 -80t35 -85t32 -68h334l-15 -82h-299q4 -28 4 -43q0 -34 -10 -76h285l-17 -82h-294q-59 -126 -207 -239h577l-18 -109h-738z" />
<glyph horiz-adv-x="735" d="M20 -307l15 78q13 8 34.5 22.5t69 60.5t72.5 93h-131l10 65h146q4 24 4 41q0 13 -4 41h-130l11 66h98q-2 4 -11.5 25t-12.5 27.5t-10 25t-9.5 30t-5 29t-2.5 33.5q0 106 75.5 171.5t200.5 65.5q60 0 119.5 -18t90 -34.5t77.5 -45.5l-59 -68q-127 74 -217 74 q-80 0 -129.5 -45t-49.5 -108q0 -22 6 -45.5t13 -38.5t19 -40t18 -38h237l-12 -66h-207q0 -5 1 -15.5t1 -15.5q0 -27 -6 -51h197l-11 -65h-209q-40 -81 -143 -162h410l-17 -92h-549z" />
<glyph horiz-adv-x="735" d="M131 788l14 78q5 3 13.5 8.5t32 23t45 37t46 48.5t40.5 59h-132l11 66h145q4 24 4 41q0 13 -4 41h-129l10 65h99q-3 6 -11.5 25t-12.5 27.5t-10.5 25.5t-9.5 29.5t-5.5 29.5t-2.5 33q0 106 76 172t201 66q60 0 119.5 -18t90 -34.5t77.5 -45.5l-60 -68q-127 74 -217 74 q-80 0 -129 -45.5t-49 -108.5q0 -22 6 -45.5t12.5 -38.5t19 -40.5t17.5 -37.5h238l-12 -65h-207q0 -5 1 -15.5t1 -15.5q0 -27 -6 -51h196l-10 -66h-209q-39 -79 -143 -161h409l-16 -93h-549z" />
<glyph horiz-adv-x="1331" d="M104 475q-1 92 20.5 189t70.5 192.5t118.5 170t174.5 121t229 46.5q131 0 227.5 -37t153.5 -105.5t84 -156t28 -197.5q1 -92 -21 -188t-70.5 -191.5t-118.5 -169.5t-175 -120.5t-229 -46.5q-131 0 -227 37t-153 105t-84 155t-28 196zM236 475q0 -383 358 -383 q98 0 181 41t138 106t93.5 146.5t55.5 161.5t17 153q0 381 -358 381q-99 0 -182 -41t-137.5 -105.5t-93 -146.5t-55.5 -161t-17 -152zM541 1303l30 178h148l-31 -178h-147zM877 1303l32 178h146l-33 -178h-145z" />
<glyph horiz-adv-x="1331" d="M104 475q-1 92 20.5 189t70.5 192.5t118.5 170t174.5 121t229 46.5q131 0 227.5 -37t153.5 -105.5t84 -156t28 -197.5q1 -92 -21 -188t-70.5 -191.5t-118.5 -169.5t-175 -120.5t-229 -46.5q-131 0 -227 37t-153 105t-84 155t-28 196zM236 475q0 -383 358 -383 q98 0 181 41t138 106t93.5 146.5t55.5 161.5t17 153q0 381 -358 381q-99 0 -182 -41t-137.5 -105.5t-93 -146.5t-55.5 -161t-17 -152zM498 1282l241 262h166l154 -262h-94l-148 184l-211 -184h-108z" />
<glyph horiz-adv-x="1257" d="M137 430l131 746h125l-133 -756q-11 -58 -11.5 -103.5t12 -88.5t41.5 -71.5t82 -45.5t128 -17q341 0 401 326l134 756h127l-134 -762q-78 -432 -524 -432q-458 0 -379 448zM557 1468q0 88 60.5 148.5t146.5 60.5q87 0 148 -61t61 -148q0 -86 -61 -146t-148 -60 q-86 0 -146.5 60t-60.5 146zM641 1468q0 -52 35 -87t88 -35t89 35t36 87q0 54 -36 90.5t-89 36.5q-52 0 -87.5 -36.5t-35.5 -90.5z" />
<glyph horiz-adv-x="1331" d="M104 475q-1 92 20.5 189t70.5 192.5t118.5 170t174.5 121t229 46.5q131 0 227.5 -37t153.5 -105.5t84 -156t28 -197.5q1 -92 -21 -188t-70.5 -191.5t-118.5 -169.5t-175 -120.5t-229 -46.5q-131 0 -227 37t-153 105t-84 155t-28 196zM236 475q0 -383 358 -383 q98 0 181 41t138 106t93.5 146.5t55.5 161.5t17 153q0 381 -358 381q-99 0 -182 -41t-137.5 -105.5t-93 -146.5t-55.5 -161t-17 -152zM541 1493h100q-7 -62 25.5 -89.5t111.5 -27.5q84 0 140 28.5t67 88.5h105q-17 -98 -99.5 -154.5t-214.5 -56.5q-125 0 -188.5 57.5 t-46.5 153.5z" />
<glyph horiz-adv-x="929" d="M229 1112l95 537h108l-96 -551q-12 -48 -9 -89.5t19 -73t58 -49.5t108 -18q232 0 274 230l97 551h110l-98 -555q-56 -320 -383 -320q-345 0 -283 338z" />
<glyph horiz-adv-x="1331" d="M104 475q-1 92 20.5 189t70.5 192.5t118.5 170t174.5 121t229 46.5q131 0 227.5 -37t153.5 -105.5t84 -156t28 -197.5q1 -92 -21 -188t-70.5 -191.5t-118.5 -169.5t-175 -120.5t-229 -46.5q-131 0 -227 37t-153 105t-84 155t-28 196zM236 475q0 -383 358 -383 q98 0 181 41t138 106t93.5 146.5t55.5 161.5t17 153q0 381 -358 381q-99 0 -182 -41t-137.5 -105.5t-93 -146.5t-55.5 -161t-17 -152zM633 1282l280 262h211l-374 -262h-117z" />
<glyph horiz-adv-x="1947" d="M104 475q-1 92 20.5 189t70.5 192.5t118.5 170t174.5 121t229 46.5q315 0 432 -217l35 199h762l-19 -111h-637l-73 -422h526l-19 -111h-528l-74 -421h643l-16 -111h-774l26 150q-165 -168 -405 -168q-131 0 -227 37t-153 105t-84 155t-28 196zM236 475q0 -383 358 -383 q98 0 181 41t138 106t93.5 146.5t55.5 161.5t17 153q0 381 -358 381q-99 0 -182 -41t-137.5 -105.5t-93 -146.5t-55.5 -161t-17 -152z" />
<glyph horiz-adv-x="1208" d="M45 -307l115 645h106l-16 -92q131 106 250 106q76 0 117 -33t49 -88q145 121 270 121q100 0 138.5 -56.5t23.5 -148.5l-80 -454h-107l80 440q22 133 -86 133q-106 0 -241 -116l-80 -457h-107l78 440q26 133 -86 133q-57 0 -120.5 -33.5t-115.5 -78.5l-81 -461h-107z" />
<glyph horiz-adv-x="1257" d="M137 430l131 746h125l-133 -756q-11 -58 -11.5 -103.5t12 -88.5t41.5 -71.5t82 -45.5t128 -17q341 0 401 326l134 756h127l-134 -762q-78 -432 -524 -432q-458 0 -379 448zM453 1352q52 78 92 111.5t96 33.5q36 0 71.5 -15.5t59 -34.5t51.5 -34.5t51 -15.5q24 0 49 18.5 t66 75.5l74 -45q-56 -80 -95 -113t-96 -33q-35 0 -70 16t-58.5 34.5t-51.5 34.5t-51 16q-25 0 -50 -17.5t-67 -74.5z" />
<glyph horiz-adv-x="1224" d="M160 1176h135l223 -1051l590 1051h152l-687 -1176h-141z" />
<glyph horiz-adv-x="1331" d="M104 475q-1 92 20.5 189t70.5 192.5t118.5 170t174.5 121t229 46.5q131 0 227.5 -37t153.5 -105.5t84 -156t28 -197.5q1 -92 -21 -188t-70.5 -191.5t-118.5 -169.5t-175 -120.5t-229 -46.5q-131 0 -227 37t-153 105t-84 155t-28 196zM236 475q0 -383 358 -383 q98 0 181 41t138 106t93.5 146.5t55.5 161.5t17 153q0 381 -358 381q-99 0 -182 -41t-137.5 -105.5t-93 -146.5t-55.5 -161t-17 -152z" />
<glyph horiz-adv-x="1298" d="M68 0l208 1176h130l493 -1014l180 1014h125l-207 -1176h-133l-491 1014l-178 -1014h-127zM485 1352q52 78 92.5 111.5t96.5 33.5q36 0 71.5 -15.5t59 -34.5t51.5 -34.5t51 -15.5q24 0 49 18.5t66 75.5l74 -45q-56 -80 -95 -113t-96 -33q-35 0 -70 16t-58.5 34.5 t-51.5 34.5t-51 16q-25 0 -50 -17.5t-67 -74.5z" />
<glyph horiz-adv-x="958" d="M174 788l152 861h112l336 -719l127 719h109l-152 -861h-113l-337 717l-125 -717h-109z" />
<glyph horiz-adv-x="958" d="M63 -307l152 860h113l336 -719l127 719h108l-151 -860h-113l-338 717l-125 -717h-109z" />
<glyph horiz-adv-x="1298" d="M68 0l208 1176h130l493 -1014l180 1014h125l-207 -1176h-133l-491 1014l-178 -1014h-127zM367 -494l114 179h-67l32 182h142l-13 -186l-167 -222z" />
<glyph horiz-adv-x="1298" d="M68 0l208 1176h130l493 -1014l180 1014h125l-207 -1176h-133l-491 1014l-178 -1014h-127zM535 1544h94l149 -182l209 182h109l-242 -262h-166z" />
<glyph horiz-adv-x="1298" d="M68 0l208 1176h130l493 -1014l180 1014h125l-207 -1176h-133l-491 1014l-178 -1014h-127zM627 1282l280 262h211l-375 -262h-116z" />
<glyph horiz-adv-x="1298" d="M68 0l208 1176h130l493 -1014l180 1014h125l-207 -1176h-133l-491 1014l-178 -1014h-127z" />
<glyph horiz-adv-x="843" d="M29 6l39 80q37 -8 90 -8q141 0 255 88.5t162 230.5q-98 -88 -239 -88q-126 0 -196 72.5t-70 173.5q0 83 37.5 154.5t115 118t180.5 46.5q100 0 171.5 -45.5t104 -114t32.5 -149.5q0 -116 -42.5 -223t-115.5 -185t-175 -124.5t-216 -46.5q-36 0 -69 5t-49 10zM176 557 q0 -65 46 -113.5t132 -48.5q83 0 153.5 43.5t94.5 89.5q2 14 2 43q0 86 -50.5 148.5t-143.5 62.5q-106 0 -170 -66.5t-64 -158.5z" />
<glyph horiz-adv-x="905" d="M135 553h119l149 -756l414 756h131l-499 -860h-119z" />
<glyph horiz-adv-x="1220" d="M29 -256l51 104q59 -18 143 -18q237 0 427 168.5t265 427.5q-26 -27 -59 -52t-83.5 -53.5t-117.5 -45.5t-139 -17q-101 0 -182.5 34.5t-131.5 91.5t-76 127t-26 146q0 82 22 159.5t66.5 146t107 120t148.5 81.5t185 30q92 0 169 -28t129.5 -75t89 -110t53.5 -132.5 t17 -143.5q0 -200 -68 -382.5t-182.5 -316t-274.5 -212.5t-335 -79q-52 0 -101.5 7.5t-73.5 14.5zM236 659q0 -54 17.5 -104t52 -92.5t93.5 -68t133 -25.5q95 0 187 42t149.5 96t83.5 105q4 62 4 93q0 70 -20 135.5t-58.5 119.5t-102 86.5t-142.5 32.5q-120 0 -212 -60 t-138.5 -155t-46.5 -205z" />
<glyph horiz-adv-x="1224" d="M201 6l51 105q59 -19 143 -19q237 0 427 168.5t265 427.5q-26 -27 -59 -52t-83.5 -53.5t-117.5 -45.5t-139 -17q-101 0 -182.5 34.5t-131.5 92t-76 127.5t-26 146q0 82 22 159.5t66.5 146t107 119.5t148.5 81t185 30q114 0 204.5 -42t144.5 -113t82 -156t28 -178 q0 -267 -115 -494.5t-313.5 -361.5t-432.5 -134q-52 0 -101.5 7.5t-73.5 14.5zM408 922q0 -54 18 -104.5t52.5 -93t93.5 -68t133 -25.5q72 0 143.5 24.5t125 62t92.5 78.5t58 78q4 62 4 93q0 70 -20 135.5t-58.5 119.5t-102 86.5t-142.5 32.5q-120 0 -212 -60t-138.5 -154.5 t-46.5 -204.5z" />
<glyph horiz-adv-x="905" d="M246 1649h119l149 -756l414 756h131l-500 -861h-119z" />
<glyph horiz-adv-x="1677" d="M176 1176h135l97 -1026l464 1026h125l97 -1035l456 1035h148l-551 -1176h-139l-99 1010l-460 -1010h-138z" />
<glyph horiz-adv-x="802" d="M45 -307l115 645h106l-16 -86q154 100 280 100q100 0 141 -57t25 -152l-80 -450h-106l78 440q25 133 -88 133q-63 0 -140 -33.5t-127 -70.5l-81 -469h-107z" />
<glyph horiz-adv-x="1677" d="M176 1176h135l97 -1026l464 1026h125l97 -1035l456 1035h148l-551 -1176h-139l-99 1010l-460 -1010h-138zM811 1282l281 262h211l-375 -262h-117z" />
<glyph horiz-adv-x="1118" d="M20 129l74 92q178 -102 322 -125l82 463l-4 2q-61 22 -98 38t-83 43.5t-71.5 56.5t-43.5 73t-18 98q0 149 119.5 236.5t302.5 87.5h8l27 152h94l-29 -160q166 -20 336 -113l-69 -88q-144 72 -285 92l-74 -424q47 -18 75.5 -29.5t69 -31.5t65.5 -37t53 -42t43 -52 t25.5 -62.5t10.5 -76.5q0 -105 -64 -184t-165 -117.5t-221 -38.5h-10l-27 -150h-96l26 158q-193 29 -375 139zM313 874q0 -69 48 -107.5t159 -80.5l70 399q-114 -2 -195.5 -58t-81.5 -153zM510 90q131 2 222 62.5t91 158.5q0 76 -59 123t-176 92z" />
<glyph horiz-adv-x="1103" d="M174 788l152 861h112l193 -598l409 598h119l-151 -861h-111l119 676l-367 -532h-67l-176 551l-123 -695h-109z" />
<glyph horiz-adv-x="1103" d="M63 -307l152 860h113l192 -598l410 598h119l-152 -860h-111l119 676l-366 -533h-68l-176 551l-123 -694h-109z" />
<glyph horiz-adv-x="1347" d="M47 307l16 96h261l125 367h-246l18 96h260l105 310h104l-106 -310h358l105 310h102l-107 -310h248l-16 -96h-264l-123 -367h250l-17 -96h-266l-104 -307h-101l103 307h-357l-104 -307h-105l105 307h-244zM428 403h356l125 367h-358z" />
<glyph horiz-adv-x="976" d="M41 -88l16 82h183l86 256h-170l14 82h184l76 221h88l-76 -221h246l74 221h88l-74 -221h174l-14 -82h-188l-86 -256h174l-15 -82h-186l-74 -219h-88l74 219h-248l-74 -219h-88l74 219h-170zM328 -6h245l86 256h-245z" />
<glyph horiz-adv-x="976" d="M152 1008l16 82h182l86 256h-170l15 81h184l76 222h88l-76 -222h246l73 222h89l-74 -222h174l-14 -81h-189l-86 -256h174l-14 -82h-187l-73 -220h-88l73 220h-247l-74 -220h-88l74 220h-170zM438 1090h246l86 256h-246z" />
<glyph horiz-adv-x="1499" d="M68 0l208 1176h134l274 -842l584 842h137l-207 -1176h-127l170 967l-530 -770h-86l-256 790l-174 -987h-127z" />
<glyph horiz-adv-x="727" d="M174 788l152 861h108l-135 -768h440l-14 -93h-551z" />
<glyph horiz-adv-x="983" d="M23 395l22 123l143 70l105 588h125l-92 -521l262 127l-19 -123l-264 -129l-74 -421h615l-17 -109h-745l82 465z" />
<glyph horiz-adv-x="727" d="M63 -307l152 860h109l-136 -768h441l-15 -92h-551z" />
<glyph horiz-adv-x="980" d="M68 0l208 1176h125l-186 -1067h614l-16 -109h-745zM649 526l33 179h147l-32 -179h-148z" />
<glyph horiz-adv-x="974" d="M68 0l208 1176h125l-186 -1067h614l-16 -109h-745zM266 -494l115 179h-68l33 182h141l-12 -186l-168 -222z" />
<glyph horiz-adv-x="1677" d="M176 1176h135l97 -1026l464 1026h125l97 -1035l456 1035h148l-551 -1176h-139l-99 1010l-460 -1010h-138zM674 1282l241 262h166l154 -262h-94l-148 184l-211 -184h-108z" />
<glyph horiz-adv-x="976" d="M68 0l208 1176h125l-186 -1067h614l-16 -109h-745zM424 815l115 178h-68l33 183h141l-12 -187l-168 -221z" />
<glyph horiz-adv-x="974" d="M68 0l208 1176h125l-186 -1067h614l-16 -109h-745zM203 1282l280 262h211l-375 -262h-116z" />
<glyph horiz-adv-x="811" d="M63 -39q0 165 97.5 278t253.5 113q144 0 223.5 -74.5t79.5 -207.5q0 -165 -97 -278.5t-253 -113.5q-144 0 -224 75t-80 208zM170 -41q0 -89 47.5 -142t149.5 -53q110 0 176.5 92t66.5 216q0 89 -47 141.5t-149 52.5q-110 0 -177 -91.5t-67 -215.5z" />
<glyph horiz-adv-x="974" d="M68 0l208 1176h125l-186 -1067h614l-16 -109h-745z" />
<glyph horiz-adv-x="858" d="M174 788l152 861h108l-84 -473l496 473h139l-436 -412l323 -449h-120l-277 379l-151 -143l-41 -236h-109z" />
<glyph horiz-adv-x="512" d="M68 745l235 115h98l-151 -860h-111l135 748l-170 -82z" />
<glyph horiz-adv-x="512" d="M172 1319l236 115h98l-152 -861h-110l135 748l-170 -82z" />
<glyph horiz-adv-x="702" d="M119 995l362 181h117l-207 -1176h-133l182 1026l-274 -135z" />
<glyph horiz-adv-x="1224" d="M174 0l19 117h415l207 1169l-385 -188l-45 100l471 236h117l-232 -1317h418l-18 -117h-967z" />
<glyph horiz-adv-x="800" d="M66 -86q0 190 88 314t225 124q113 0 229 -102l60 338h106l-158 -895h-106l16 94q-131 -109 -258 -109q-85 0 -143.5 57.5t-58.5 178.5zM174 -78q0 -73 31 -115.5t88 -42.5q68 0 125.5 31t124.5 88l49 281q-94 102 -193 102q-68 0 -120.5 -50.5t-78.5 -128t-26 -165.5z " />
<glyph horiz-adv-x="1470" d="M143 1081l205 95h86l-123 -705h-96l109 608l-146 -67zM172 0l797 1176h104l-799 -1176h-102zM713 170q0 142 221 215q-107 56 -107 150q0 79 74.5 130.5t185.5 51.5q106 0 170 -44t64 -116q0 -116 -182 -180q159 -67 159 -182q0 -91 -93 -149t-228 -58 q-119 0 -191.5 47.5t-72.5 134.5zM811 174q0 -54 45.5 -82.5t120.5 -28.5q89 0 154 38t65 96q0 28 -14 52t-40.5 42.5t-50 30t-57.5 24.5q-36 -11 -64 -21t-59 -26t-52 -33t-34.5 -41t-13.5 -51zM924 526q0 -73 110 -110q42 12 69 21.5t58 25t46.5 37t15.5 47.5 q0 43 -36 70.5t-97 27.5q-67 0 -116.5 -35.5t-49.5 -83.5z" />
<glyph horiz-adv-x="1466" d="M143 1081l205 95h86l-123 -705h-96l109 608l-146 -67zM170 0l799 1176h104l-799 -1176h-104zM723 70l51 61q100 -61 197 -61q84 0 150.5 45.5t66.5 122.5q0 62 -41 98.5t-117 36.5q-77 0 -168 -47l-55 30l102 349h426l-12 -78h-346l-55 -203q66 25 131 25 q110 0 171.5 -59t61.5 -150q0 -106 -83.5 -179t-223.5 -73q-134 0 -256 82z" />
<glyph horiz-adv-x="858" d="M63 -307l152 860h109l-84 -473l495 473h139l-436 -412l324 -448h-121l-276 379l-152 -142l-41 -237h-109z" />
<glyph horiz-adv-x="1472" d="M143 1081l205 95h86l-123 -705h-96l109 608l-146 -67zM170 0l799 1176h106l-799 -1176h-106zM731 0l8 57q7 43 24.5 78.5t40.5 61.5t58 51.5t66.5 43.5t77.5 43q21 11 32 17q46 25 70.5 39t57.5 36.5t49 39.5t27.5 39t10.5 45q-2 38 -37.5 63t-97.5 25q-97 0 -217 -66 l-39 68q131 76 262 76q104 0 166 -46.5t62 -123.5q0 -44 -22.5 -83t-69 -74.5t-86.5 -59.5t-106 -59q-24 -13 -36 -19q-92 -48 -130 -82.5t-48 -89.5h414l-15 -80h-522z" />
<glyph horiz-adv-x="1677" d="M176 1176h135l97 -1026l464 1026h125l97 -1035l456 1035h148l-551 -1176h-139l-99 1010l-460 -1010h-138zM715 1303l30 178h148l-31 -178h-147zM1051 1303l32 178h146l-33 -178h-145z" />
<glyph horiz-adv-x="1157" d="M68 0l208 1176h127l-120 -674l706 674h168l-604 -568l457 -608h-146l-395 530l-217 -202l-57 -328h-127zM297 -494l115 179h-68l33 182h141l-12 -186l-168 -222z" />
<glyph horiz-adv-x="1415" d="M143 1081l205 95h86l-123 -705h-96l109 608l-146 -67zM170 0l799 1176h106l-799 -1176h-106zM633 154l10 69l461 482h127l-86 -474h117l-11 -77h-121l-26 -154h-98l26 154h-399zM756 231h291l69 385z" />
<glyph horiz-adv-x="1433" d="M143 1081l205 95h86l-123 -705h-96l109 608l-146 -67zM172 0l799 1176h102l-799 -1176h-102zM702 246q0 195 137 333t335 138q32 0 61 -4.5t42 -8.5l13 -4l-33 -69q-32 8 -75 8q-125 0 -224 -71.5t-139 -188.5q87 72 207 72q111 0 173.5 -59t62.5 -144q0 -106 -78 -183 t-211 -77q-130 0 -200.5 75.5t-70.5 182.5zM797 242q0 -72 44.5 -123t125.5 -51q91 0 144.5 52t53.5 126q0 53 -39.5 92t-115.5 39q-70 0 -129.5 -32.5t-83.5 -68.5v-34z" />
<glyph horiz-adv-x="1157" d="M68 0l208 1176h127l-120 -674l706 674h168l-604 -568l457 -608h-146l-395 530l-217 -202l-57 -328h-127z" />
<glyph horiz-adv-x="1677" d="M176 1176h135l97 -1026l464 1026h125l97 -1035l456 1035h148l-551 -1176h-139l-99 1010l-460 -1010h-138zM702 1544h187l211 -262h-103z" />
<glyph horiz-adv-x="1458" d="M143 1081l205 95h86l-123 -705h-96l109 608l-146 -67zM170 0l799 1176h104l-799 -1176h-104zM709 70l51 63q105 -65 221 -65q91 0 149 40t58 101q0 67 -64 101t-157 34h-33l10 80h41q87 0 158 38t71 93q0 38 -34.5 61t-94.5 23q-77 0 -204 -59l-33 65q122 72 252 72 q98 0 154.5 -43.5t56.5 -108.5q0 -55 -45.5 -103.5t-137.5 -76.5q68 -14 114 -63t46 -115q0 -89 -79 -154t-224 -65q-63 0 -127 18t-84.5 29t-64.5 35z" />
<glyph horiz-adv-x="391" d="M14 694q60 16 92 28t50.5 30.5t24.5 35.5t12 54l143 807h108l-141 -805q-5 -27 -7.5 -38.5t-7.5 -32.5t-9.5 -30t-12.5 -25.5t-17.5 -24t-23.5 -19.5t-30.5 -19t-39.5 -16.5t-50.5 -17t-61.5 -15.5z" />
<glyph horiz-adv-x="391" d="M-96 -401q78 21 113.5 39.5t46 39t18.5 68.5l143 807h109l-141 -805q-5 -26 -7.5 -38t-7.5 -33t-9.5 -30l-12.5 -25t-17.5 -23.5t-23.5 -19.5t-31 -19t-40 -16.5t-50.5 -17t-61.5 -15.5z" />
<glyph horiz-adv-x="516" d="M-147 -135q82 22 126.5 39t70 42.5t33 49t15.5 72.5l197 1108h127l-195 -1106q-21 -113 -41 -152q-34 -65 -128 -105q-62 -26 -173 -53zM90 1282l242 262h166l153 -262h-94l-147 184l-211 -184h-109z" />
<glyph horiz-adv-x="512" d="M-147 -135q82 22 126.5 39t70 42.5t33 49t15.5 72.5l197 1108h127l-195 -1106q-21 -113 -41 -152q-34 -65 -128 -105q-62 -26 -173 -53z" />
<glyph horiz-adv-x="1236" d="M147 553h119l62 -723l325 723h105l65 -731l318 731h127l-400 -860h-118l-66 715l-322 -715h-118z" />
<glyph horiz-adv-x="512" d="M68 0l208 1176h125l-206 -1176h-127zM74 1352q52 78 92 111.5t96 33.5q45 0 88.5 -25t80.5 -50t65 -25q24 0 48.5 18.5t65.5 75.5l74 -45q-57 -81 -95 -113.5t-95 -32.5q-35 0 -70 16t-58.5 34.5t-52 34.5t-51.5 16q-25 0 -50 -17.5t-67 -74.5z" />
<glyph horiz-adv-x="380" d="M174 788l152 861h108l-151 -861h-109z" />
<glyph horiz-adv-x="514" d="M-143 -231q0 69 60 125t173 106l209 1176h125l-207 -1176h-4q-130 -63 -187 -112.5t-57 -102.5q0 -15 5 -26t17.5 -17.5t22.5 -10.5t30.5 -5.5t31 -1.5h34.5h13l-33 -91q-27 0 -45 1t-49.5 4.5t-52 12t-42.5 23t-33 39t-11 56.5z" />
<glyph horiz-adv-x="1124" d="M102 766q0 190 135.5 300t358.5 110h113l-263 -1487h-112l139 776q-174 0 -272.5 77t-98.5 224zM653 -311l262 1487h113l-262 -1487h-113z" />
<glyph horiz-adv-x="512" d="M74 0l209 1176h125l-207 -1176h-127zM80 1333l16 94h584l-16 -94h-584z" />
<glyph horiz-adv-x="563" d="M48 -76q-6 54 11 135l185 1051q9 49 16 76.5t22.5 60t36.5 51.5t57.5 40t87 37.5t122.5 33.5l30 -90q-102 -28 -150 -53.5t-65.5 -56t-27.5 -91.5l-189 -1067q-6 -31 -8.5 -46.5t-3 -35.5t2 -29.5t10.5 -22.5t19 -19.5t31 -17t42.5 -18t58.5 -18.5l-39 -84 q-131 34 -187 72t-62 92z" />
<glyph horiz-adv-x="1236" d="M258 1649h119l61 -723l326 723h104l66 -731l317 731h127l-399 -861h-119l-65 715l-322 -715h-119z" />
</font>
</defs>
</svg>
