<?xml version="1.0" standalone="no"?>
<!DOCTYPE svg PUBLIC "-//W3C//DTD SVG 1.1//EN" "http://www.w3.org/Graphics/SVG/1.1/DTD/svg11.dtd" >
<svg xmlns="http://www.w3.org/2000/svg">
<metadata></metadata>
<defs>
<font id="verbextrabold_italic" horiz-adv-x="1284" >
<font-face units-per-em="2048" ascent="1638" descent="-410" />
<missing-glyph horiz-adv-x="577" />
<glyph unicode="ff" horiz-adv-x="1632" d="M-195 -217q50 15 84 27t64.5 26.5t48.5 25t34.5 29.5t25 34t18 43.5t14 52.5t12.5 67l132 741h-144l43 246h146l4 25q32 204 114 298.5t248 94.5q190 0 400 -113l-150 -215q-109 39 -178 39q-79 0 -96 -100l-7 -29h234l-43 -246h-234l-126 -714q-37 -199 -63 -269 q-45 -121 -144 -187q-112 -76 -365 -130zM610 -217q66 21 106.5 35.5t74 35t50 36.5t31.5 49.5t21.5 62.5t17.5 86l131 741h-143l41 246h147l5 25q32 205 113 299t249 94q189 0 399 -113l-149 -215q-109 39 -178 39q-79 0 -96 -100l-7 -29h256l-43 -246h-256l-129 -714 q-12 -68 -18 -100.5t-18.5 -86t-23 -77.5t-29 -64.5t-38.5 -59.5t-51 -48t-67.5 -45t-85 -37t-107 -36.5t-131.5 -31.5z" />
<glyph unicode="fi" horiz-adv-x="1409" d="M-195 -217q50 15 84 27t64.5 26.5t48.5 25t34.5 29.5t25 34t18 43.5t14 52.5t12.5 67l132 741h-144l43 246h146l4 25q32 204 113.5 298.5t246.5 94.5q77 0 167.5 -28.5t156.5 -61.5l-115 -225q-80 26 -135 26q-79 0 -96 -100l-7 -29h256l-43 -246h-256l-126 -714 q-37 -199 -63 -269q-45 -121 -144 -187q-112 -76 -365 -130zM827 0l191 1075h336l-191 -1075h-336zM1036 1212l47 275h351l-50 -275h-348z" />
<glyph unicode="fl" horiz-adv-x="1415" d="M-195 -217q50 15 84 27t64.5 26.5t48.5 25t34.5 29.5t25 34t18 43.5t14 52.5t12.5 67l132 741h-144l43 246h146l4 25q32 204 113.5 298.5t246.5 94.5q77 0 167.5 -28.5t156.5 -61.5l-115 -225q-80 26 -135 26q-79 0 -96 -100l-7 -29h256l-43 -246h-256l-126 -714 q-37 -199 -63 -269q-45 -121 -144 -187q-112 -76 -365 -130zM829 0l265 1493h338l-265 -1493h-338z" />
<glyph unicode="ffi" horiz-adv-x="2213" d="M-195 -217q50 15 84 27t64.5 26.5t48.5 25t34.5 29.5t25 34t18 43.5t14 52.5t12.5 67l132 741h-144l43 246h146l4 25q32 204 114 298.5t248 94.5q190 0 400 -113l-150 -215q-109 39 -178 39q-79 0 -96 -100l-7 -29h234l-43 -246h-234l-126 -714q-37 -199 -63 -269 q-45 -121 -144 -187q-112 -76 -365 -130zM610 -217q66 21 106.5 35.5t74 35t50 36.5t31.5 49.5t21.5 62.5t17.5 86l131 741h-143l41 246h147l5 25q32 204 113.5 298.5t246.5 94.5q76 0 167.5 -29t156.5 -61l-115 -225q-85 26 -135 26q-79 0 -96 -100l-7 -29h256l-43 -246 h-256l-129 -714q-12 -68 -18 -100.5t-18.5 -86t-23 -77.5t-29 -64.5t-38.5 -59.5t-51 -48t-67.5 -45t-85 -37t-107 -36.5t-131.5 -31.5zM1632 0l191 1075h336l-191 -1075h-336zM1839 1212l49 275h348l-47 -275h-350z" />
<glyph unicode="ffl" horiz-adv-x="2220" d="M-195 -217q50 15 84 27t64.5 26.5t48.5 25t34.5 29.5t25 34t18 43.5t14 52.5t12.5 67l132 741h-144l43 246h146l4 25q32 204 114 298.5t248 94.5q190 0 400 -113l-150 -215q-109 39 -178 39q-79 0 -96 -100l-7 -29h234l-43 -246h-234l-126 -714q-37 -199 -63 -269 q-45 -121 -144 -187q-112 -76 -365 -130zM610 -217q66 21 106.5 35.5t74 35t50 36.5t31.5 49.5t21.5 62.5t17.5 86l131 741h-143l41 246h147l5 25q32 204 113.5 298.5t246.5 94.5q76 0 167.5 -29t156.5 -61l-115 -225q-85 26 -135 26q-79 0 -96 -100l-7 -29h256l-43 -246 h-256l-129 -714q-12 -68 -18 -100.5t-18.5 -86t-23 -77.5t-29 -64.5t-38.5 -59.5t-51 -48t-67.5 -45t-85 -37t-107 -36.5t-131.5 -31.5zM1634 0l264 1493h336l-264 -1493h-336z" />
<glyph unicode="ffb" horiz-adv-x="2924" d="M-195 -217q50 15 84 27t64.5 26.5t48.5 25t34.5 29.5t25 34t18 43.5t14 52.5t12.5 67l132 741h-144l43 246h146l4 25q32 204 114 298.5t248 94.5q190 0 400 -113l-150 -215q-109 39 -178 39q-79 0 -96 -100l-7 -29h234l-43 -246h-234l-126 -714q-37 -199 -63 -269 q-45 -121 -144 -187q-112 -76 -365 -130zM610 -217q66 21 106.5 35.5t74 35t50 36.5t31.5 49.5t21.5 62.5t17.5 86l131 741h-143l41 246h147l5 25q32 204 113.5 298.5t246.5 94.5q76 0 167.5 -29t156.5 -61l-115 -225q-85 26 -135 26q-79 0 -96 -100l-7 -29h256l-43 -246 h-256l-129 -714q-12 -68 -18 -100.5t-18.5 -86t-23 -77.5t-29 -64.5t-38.5 -59.5t-51 -48t-67.5 -45t-85 -37t-107 -36.5t-131.5 -31.5zM1632 0l264 1493h336l-94 -528q189 133 365 133q54 0 102.5 -13t93.5 -43t77 -76t51.5 -116t19.5 -158q0 -317 -143 -516t-371 -199 q-59 0 -111.5 12t-98.5 37.5t-69.5 41.5t-64.5 47l-21 -115h-336zM2032 365q105 -117 219 -117q78 0 137 58t88 149.5t29 199.5q0 83 -37.5 128.5t-108.5 45.5q-67 0 -130 -34.5t-138 -96.5z" />
<glyph unicode="ffh" horiz-adv-x="2914" d="M-195 -217q50 15 84 27t64.5 26.5t48.5 25t34.5 29.5t25 34t18 43.5t14 52.5t12.5 67l132 741h-144l43 246h146l4 25q32 204 114 298.5t248 94.5q190 0 400 -113l-150 -215q-109 39 -178 39q-79 0 -96 -100l-7 -29h234l-43 -246h-234l-126 -714q-37 -199 -63 -269 q-45 -121 -144 -187q-112 -76 -365 -130zM610 -217q66 21 106.5 35.5t74 35t50 36.5t31.5 49.5t21.5 62.5t17.5 86l131 741h-143l41 246h147l5 25q32 204 113.5 298.5t246.5 94.5q76 0 167.5 -29t156.5 -61l-115 -225q-85 26 -135 26q-79 0 -96 -100l-7 -29h256l-43 -246 h-256l-129 -714q-12 -68 -18 -100.5t-18.5 -86t-23 -77.5t-29 -64.5t-38.5 -59.5t-51 -48t-67.5 -45t-85 -37t-107 -36.5t-131.5 -31.5zM1632 0l264 1493h336l-94 -535q212 140 395 140q177 0 250 -103t41 -282l-127 -713h-338l121 678q13 77 -6 118.5t-86 41.5t-149 -38 t-146 -89l-125 -711h-336z" />
<glyph unicode="fb" horiz-adv-x="2119" d="M-195 -217q50 15 84 27t64.5 26.5t48.5 25t34.5 29.5t25 34t18 43.5t14 52.5t12.5 67l132 741h-144l43 246h146l4 25q32 204 113.5 298.5t246.5 94.5q77 0 167.5 -28.5t156.5 -61.5l-115 -225q-80 26 -135 26q-79 0 -96 -100l-7 -29h256l-43 -246h-256l-126 -714 q-37 -199 -63 -269q-45 -121 -144 -187q-112 -76 -365 -130zM827 0l265 1493h335l-94 -528q194 133 365 133q69 0 128 -21.5t109.5 -67t79.5 -127t29 -190.5q0 -209 -64.5 -371.5t-182 -253t-269.5 -90.5q-59 0 -111.5 12t-98.5 37.5t-69.5 41.5t-64.5 47l-21 -115h-336z M1227 365q105 -117 221 -117q115 0 183.5 119.5t68.5 287.5q0 83 -37.5 128.5t-108.5 45.5q-66 0 -130 -35t-138 -96z" />
<glyph unicode="ffj" horiz-adv-x="2222" d="M-195 -217q50 15 84 27t64.5 26.5t48.5 25t34.5 29.5t25 34t18 43.5t14 52.5t12.5 67l132 741h-144l43 246h146l4 25q32 204 114 298.5t248 94.5q190 0 400 -113l-150 -215q-109 39 -178 39q-79 0 -96 -100l-7 -29h234l-43 -246h-234l-126 -714q-37 -199 -63 -269 q-45 -121 -144 -187q-112 -76 -365 -130zM610 -217q66 21 106.5 35.5t74 35t50 36.5t31.5 49.5t21.5 62.5t17.5 86l131 741h-143l41 246h147l5 25q32 204 113.5 298.5t246.5 94.5q76 0 167.5 -29t156.5 -61l-115 -225q-85 26 -135 26q-79 0 -96 -100l-7 -29h256l-43 -246 h-256l-129 -714q-12 -68 -18 -100.5t-18.5 -86t-23 -77.5t-29 -64.5t-38.5 -59.5t-51 -48t-67.5 -45t-85 -37t-107 -36.5t-131.5 -31.5zM1376 -217q65 20 106.5 35t73.5 32.5t48.5 30.5t29 37t17.5 44t12 58l186 1055h336l-182 -1026q-29 -167 -55 -230q-43 -109 -150 -172 q-113 -67 -350 -118zM1868 1212l49 275h348l-49 -275h-348z" />
<glyph unicode="ffk" horiz-adv-x="2828" d="M-195 -217q50 15 84 27t64.5 26.5t48.5 25t34.5 29.5t25 34t18 43.5t14 52.5t12.5 67l132 741h-144l43 246h146l4 25q32 204 114 298.5t248 94.5q190 0 400 -113l-150 -215q-109 39 -178 39q-79 0 -96 -100l-7 -29h234l-43 -246h-234l-126 -714q-37 -199 -63 -269 q-45 -121 -144 -187q-112 -76 -365 -130zM610 -217q66 21 106.5 35.5t74 35t50 36.5t31.5 49.5t21.5 62.5t17.5 86l131 741h-143l41 246h147l5 25q32 204 113.5 298.5t246.5 94.5q76 0 167.5 -29t156.5 -61l-115 -225q-85 26 -135 26q-79 0 -96 -100l-7 -29h256l-43 -246 h-256l-129 -714q-12 -68 -18 -100.5t-18.5 -86t-23 -77.5t-29 -64.5t-38.5 -59.5t-51 -48t-67.5 -45t-85 -37t-107 -36.5t-131.5 -31.5zM1632 0l264 1493h336l-141 -793l344 375h418l-451 -438l320 -637h-340l-203 418l-166 -160l-45 -258h-336z" />
<glyph unicode="fft" horiz-adv-x="2494" d="M-195 -217q50 15 84 27t64.5 26.5t48.5 25t34.5 29.5t25 34t18 43.5t14 52.5t12.5 67l132 741h-144l43 246h146l4 25q32 204 114 298.5t248 94.5q190 0 400 -113l-150 -215q-109 39 -178 39q-79 0 -96 -100l-7 -29h234l-43 -246h-234l-126 -714q-37 -199 -63 -269 q-45 -121 -144 -187q-112 -76 -365 -130zM610 -217q66 21 106.5 35.5t74 35t50 36.5t31.5 49.5t21.5 62.5t17.5 86l131 741h-143l41 246h147l5 25q32 205 113 299t249 94q189 0 399 -113l-149 -215q-109 39 -178 39q-79 0 -96 -100l-7 -29h222l-43 -246h-222l-129 -714 q-12 -68 -18 -100.5t-18.5 -86t-23 -77.5t-29 -64.5t-38.5 -59.5t-51 -48t-67.5 -45t-85 -37t-107 -36.5t-131.5 -31.5zM1690 829l43 246h141l49 271l342 40l-55 -311h289l-45 -246h-287l-82 -460q-11 -59 6.5 -79t54.5 -20q50 0 164 41l82 -258q-204 -76 -367 -76 q-166 0 -236.5 109t-35.5 313l76 430h-139z" />
<glyph unicode="fh" horiz-adv-x="2111" d="M-195 -217q50 15 84 27t64.5 26.5t48.5 25t34.5 29.5t25 34t18 43.5t14 52.5t12.5 67l132 741h-144l43 246h146l4 25q32 204 113.5 298.5t246.5 94.5q77 0 167.5 -28.5t156.5 -61.5l-115 -225q-80 26 -135 26q-79 0 -96 -100l-7 -29h256l-43 -246h-256l-126 -714 q-37 -199 -63 -269q-45 -121 -144 -187q-112 -76 -365 -130zM827 0l265 1493h335l-94 -535q212 140 396 140q177 0 249.5 -103t40.5 -282l-127 -713h-338l121 678q15 76 -4.5 118t-87.5 42q-66 0 -149 -38t-146 -89l-125 -711h-336z" />
<glyph unicode="fj" horiz-adv-x="1419" d="M-195 -217q50 15 84 27t64.5 26.5t48.5 25t34.5 29.5t25 34t18 43.5t14 52.5t12.5 67l132 741h-144l43 246h146l4 25q32 204 113.5 298.5t246.5 94.5q77 0 167.5 -28.5t156.5 -61.5l-115 -225q-80 26 -135 26q-79 0 -96 -100l-7 -29h256l-43 -246h-256l-126 -714 q-37 -199 -63 -269q-45 -121 -144 -187q-112 -76 -365 -130zM571 -217q65 20 106.5 35t73.5 32.5t48.5 30.5t29 37t17.5 44t12 58l186 1055h338l-182 -1026q-30 -167 -56 -230q-44 -108 -150 -171q-114 -68 -351 -119zM1063 1212l49 275h348l-49 -275h-348z" />
<glyph unicode="fk" horiz-adv-x="2025" d="M-195 -217q50 15 84 27t64.5 26.5t48.5 25t34.5 29.5t25 34t18 43.5t14 52.5t12.5 67l132 741h-144l43 246h146l4 25q32 204 113.5 298.5t246.5 94.5q77 0 167.5 -28.5t156.5 -61.5l-115 -225q-80 26 -135 26q-79 0 -96 -100l-7 -29h256l-43 -246h-256l-126 -714 q-37 -199 -63 -269q-45 -121 -144 -187q-112 -76 -365 -130zM827 0l265 1493h335l-141 -793l344 375h418l-451 -438l320 -637h-340l-203 418l-166 -160l-45 -258h-336z" />
<glyph unicode="ft" horiz-adv-x="1689" d="M-195 -217q50 15 84 27t64.5 26.5t48.5 25t34.5 29.5t25 34t18 43.5t14 52.5t12.5 67l132 741h-144l43 246h146l4 25q32 204 114 298.5t248 94.5q190 0 400 -113l-150 -215q-109 39 -178 39q-79 0 -96 -100l-7 -29h234l-43 -246h-234l-126 -714q-37 -199 -63 -269 q-45 -121 -144 -187q-112 -76 -365 -130zM885 829l43 246h141l49 271l342 40l-55 -311h289l-43 -246h-289l-82 -460q-10 -58 8 -78.5t53 -20.5q56 0 164 41l82 -258q-204 -76 -366 -76q-165 0 -236.5 109.5t-36.5 312.5l76 430h-139z" />
<glyph unicode=" "  horiz-adv-x="577" />
<glyph unicode="&#x09;" horiz-adv-x="577" />
<glyph unicode="&#xa0;" horiz-adv-x="577" />
<glyph unicode="!" horiz-adv-x="608" d="M14 0l58 336h338l-58 -336h-338zM166 475l65 959h410l-274 -959h-201z" />
<glyph unicode="&#x22;" horiz-adv-x="927" d="M170 864l45 570h317l-153 -570h-209zM612 864l45 570h318l-154 -570h-209z" />
<glyph unicode="#" horiz-adv-x="1478" d="M14 309l45 252h256l103 311h-219l45 252h256l102 310h262l-102 -310h264l102 310h263l-103 -310h221l-45 -252h-258l-102 -311h221l-45 -252h-260l-100 -309h-261l101 309h-264l-101 -309h-262l100 309h-219zM578 561h264l102 311h-264z" />
<glyph unicode="$" horiz-adv-x="1351" d="M-10 201l184 237q117 -69 250 -120.5t238 -51.5q92 0 151 35.5t59 95.5q0 33 -21.5 58.5t-64.5 44.5t-88 33.5t-111.5 36.5t-115.5 44q-66 29 -115.5 61t-95 78.5t-70 110.5t-24.5 142q0 192 145.5 319.5t399.5 130.5l32 184h242l-39 -210q188 -41 412 -166l-184 -232 q-92 52 -216.5 93.5t-214.5 41.5q-85 0 -142.5 -33t-57.5 -96q0 -31 18.5 -53.5t57.5 -39t81 -29.5t108.5 -35.5t121.5 -46.5q51 -22 91.5 -44.5t85 -58t73.5 -75t48 -96t19 -122.5q0 -95 -38.5 -178t-108.5 -145.5t-176 -99t-234 -38.5l-31 -182h-241l37 207 q-250 52 -465 199z" />
<glyph unicode="%" horiz-adv-x="2056" d="M135 1010q0 121 49 220.5t150.5 162.5t238.5 63q178 0 281.5 -87t103.5 -234q0 -90 -28.5 -170t-82 -142t-138.5 -98.5t-189 -36.5q-176 0 -280.5 87.5t-104.5 234.5zM387 1034q0 -149 143 -149q83 0 131 72.5t48 152.5q0 150 -144 150q-57 0 -99 -38t-60.5 -88 t-18.5 -100zM428 0l985 1434h262l-987 -1434h-260zM1143 299q0 120 49.5 220t151.5 163t239 63q177 0 281 -87t104 -234q0 -89 -29 -169.5t-82.5 -142.5t-138 -98.5t-188.5 -36.5q-178 0 -282.5 87.5t-104.5 234.5zM1395 324q0 -150 145 -150q56 0 97.5 38t60 88t18.5 99 q0 150 -141 150q-84 0 -132 -72t-48 -153z" />
<glyph unicode="&#x26;" horiz-adv-x="1484" d="M51 344q0 61 20.5 116.5t52.5 98.5t81 85t96.5 72.5t108.5 63.5q-62 78 -93.5 148.5t-31.5 152.5q0 163 129 269t331 106q187 0 299.5 -91.5t112.5 -227.5q0 -65 -27.5 -124.5t-80.5 -111.5t-108 -93t-132 -87l174 -205q81 114 131 240h336q-30 -105 -100.5 -230.5 t-171.5 -236.5l245 -289h-356l-96 113q-207 -136 -449 -136q-213 0 -342 101t-129 266zM381 352q0 -53 41.5 -89t120.5 -36q118 0 250 97l-218 258q-94 -62 -144 -116.5t-50 -113.5zM586 1069q0 -73 67 -164q96 54 146.5 102.5t50.5 106.5q0 41 -28.5 73t-84.5 32 q-70 0 -110.5 -45t-40.5 -105z" />
<glyph unicode="'" horiz-adv-x="485" d="M170 864l45 570h317l-153 -570h-209z" />
<glyph unicode="(" horiz-adv-x="733" d="M13.5 -16q-7.5 97 19.5 239l174 979q17 95 28.5 144.5t37 109.5t59 90t93 65.5t140.5 59t201 47.5l57 -196q-79 -26 -123.5 -46.5t-71.5 -49.5t-37 -57.5t-20 -82.5l-204 -1147q-14 -69 -11 -114t34.5 -76t109.5 -64l-86 -178q-209 48 -301 114t-99.5 163z" />
<glyph unicode=")" horiz-adv-x="731" d="M-72 -96q79 26 123.5 46.5t71.5 49t37 57t20 82.5l205 1147q14 69 11 114t-34.5 76t-109.5 64l86 178q209 -48 301 -114t99.5 -163t-19.5 -239l-174 -979q-17 -95 -28.5 -144.5t-37 -109.5t-59 -90t-93 -65.5t-140.5 -59t-201 -47.5z" />
<glyph unicode="*" horiz-adv-x="1034" d="M143 1020l332 18l-305 136l180 215l182 -283l-38 332l272 -49l-150 -297l267 200l96 -262l-320 -20l291 -133l-178 -213l-178 266l35 -320l-275 47l150 301l-266 -198z" />
<glyph unicode="+" d="M106 557l46 252h393l65 365h258l-65 -365h399l-45 -252h-399l-64 -364h-258l64 364h-394z" />
<glyph unicode="," horiz-adv-x="575" d="M-51 -233l196 233h-151l65 367h340l-49 -410l-330 -301z" />
<glyph unicode="-" horiz-adv-x="1003" d="M76 449l45 268h667l-45 -268h-667z" />
<glyph unicode="." horiz-adv-x="569" d="M-6 0l63 367h342l-65 -367h-340z" />
<glyph unicode="/" horiz-adv-x="1015" d="M-92 -184l971 1802h264l-973 -1802h-262z" />
<glyph unicode="0" horiz-adv-x="1409" d="M82 588q0 63 8 134t30 157t55 165.5t87.5 155.5t123.5 132t167.5 90t214.5 34q130 0 233 -35t168.5 -93t108.5 -139t60.5 -165.5t17.5 -179.5q0 -48 -5 -101.5t-17 -117.5t-31 -127t-48.5 -128t-67 -122t-90 -108t-114.5 -87t-142 -57t-171 -21q-108 0 -198 24t-153 68 t-110 101t-74 127.5t-40 142.5t-13 150zM430 557q1 -50 6 -90.5t21 -83.5t41.5 -71.5t69 -47t102.5 -18.5q75 0 136 51.5t97 127t60 165.5t33 162t8 122t-6 90.5t-20.5 83.5t-40.5 72t-68.5 47.5t-102.5 18.5q-63 0 -116.5 -36t-88.5 -95t-61.5 -128t-41 -142t-21.5 -130 t-7 -98z" />
<glyph unicode="1" horiz-adv-x="886" d="M96 1208l441 226h331l-254 -1434h-344l193 1087l-258 -122z" />
<glyph unicode="2" horiz-adv-x="1269" d="M-47 0l24 152q11 68 36 129t53 108t74 94.5t82.5 79t97 71t99 62t105.5 60.5q215 121 245 141q107 68 129 123q7 20 7 41q-2 47 -45.5 76.5t-122.5 29.5q-164 0 -397 -133l-127 242q291 180 571 180q228 0 352 -108t124 -273q0 -211 -228 -380q-96 -71 -310 -182h-1 l-1 -1h-1l-1 -1h-1l-1 -1h-1l-1 -1h-1l-1 -1h-1l-1 -1h-1l-1 -1h-1l-1 -1h-1l-1 -1h-1l-1 -1h-1l-1 -1q-148 -74 -201.5 -115.5t-66.5 -97.5h682l-51 -289h-1110z" />
<glyph unicode="3" horiz-adv-x="1277" d="M-47 197l172 217q242 -144 426 -144q120 0 188 47t68 123q0 172 -352 172h-62l51 289h68q60 0 117 8t111 26t87 51.5t33 78.5q0 47 -38 74.5t-111 27.5q-86 0 -193.5 -37t-193.5 -83l-111 237q272 172 567 172q217 0 330 -92.5t113 -233.5q0 -117 -77.5 -207t-217.5 -149 q104 -36 169.5 -127.5t65.5 -212.5q0 -63 -18 -124.5t-61.5 -122.5t-107.5 -107t-164.5 -74.5t-223.5 -28.5q-337 0 -635 220z" />
<glyph unicode="4" horiz-adv-x="1404" d="M-27 262l43 242l797 930h465l-158 -883h215l-51 -289h-215l-45 -262h-350l45 262h-746zM399 551h371l100 563z" />
<glyph unicode="5" horiz-adv-x="1263" d="M-31 197l193 219q184 -140 356 -140q119 0 204 58.5t85 157.5q0 77 -54.5 125.5t-158.5 48.5q-70 0 -131.5 -22t-134.5 -62l-191 127l201 725h932l-51 -289h-631l-53 -217q77 18 163 18q114 0 204.5 -35t147 -96t86 -139.5t29.5 -169.5q0 -103 -40.5 -197.5t-115 -169 t-192.5 -118.5t-262 -44q-318 0 -586 220z" />
<glyph unicode="6" horiz-adv-x="1329" d="M76 530q0 191 72.5 361.5t199 295t308.5 197t391 72.5q79 0 146.5 -10t95.5 -20l28 -11l-123 -254q-59 13 -135 13q-119 0 -225 -34.5t-197.5 -112t-144.5 -191.5q123 90 307 90q203 0 324.5 -117.5t121.5 -304.5q0 -104 -39.5 -198.5t-111.5 -168t-185 -117t-250 -43.5 q-140 0 -253 45t-184 122t-108.5 176t-37.5 210zM426 506q0 -105 59.5 -175.5t165.5 -70.5q116 0 180 69t64 158q0 79 -52.5 130t-156.5 51q-82 0 -152.5 -39.5t-107.5 -87.5v-35z" />
<glyph unicode="7" horiz-adv-x="1097" d="M68 0q19 106 64.5 223.5t99 217.5t124 207t126.5 182t120 151.5t91 107t52 56.5h-624l51 289h1022l-45 -271q-13 -13 -35 -36.5t-87.5 -98t-126.5 -151.5t-139 -189t-139 -218.5t-112.5 -232t-71.5 -237.5h-370z" />
<glyph unicode="8" horiz-adv-x="1353" d="M23 362q0 66 22 124.5t57 103t87 84t104.5 67.5t116.5 54q-166 118 -166 284q0 167 144 272t398 105q237 0 368.5 -93t131.5 -245q0 -209 -285 -350q113 -60 180.5 -145t67.5 -209q0 -197 -176 -317t-477 -120q-273 0 -423 102t-150 283zM379 399q0 -72 59.5 -115.5 t163.5 -43.5q122 0 206.5 55.5t84.5 138.5q0 122 -199 215q-53 -18 -92.5 -33.5t-84 -39t-73 -48t-47 -58t-18.5 -71.5zM580 1042q0 -49 35 -83.5t98 -65.5q109 36 168 78t59 106q0 51 -42 88t-116 37q-86 0 -144 -48.5t-58 -111.5z" />
<glyph unicode="9" horiz-adv-x="1327" d="M35 18l125 254q57 -12 133 -12q119 0 224 34t196 111t145 191q-122 -90 -303 -90q-203 0 -326 118.5t-123 305.5q0 105 39.5 199t112 167.5t185.5 116.5t251 43q139 0 251.5 -45t183.5 -122t109 -176.5t38 -211.5q0 -191 -72.5 -361t-199 -294t-308.5 -196.5t-391 -72.5 q-78 0 -145.5 10.5t-95.5 20.5zM457 944q0 -79 52 -128.5t159 -49.5q80 0 148.5 37.5t107.5 85.5l2 39q0 104 -59 175t-165 71q-116 0 -180.5 -69.5t-64.5 -160.5z" />
<glyph unicode=":" horiz-adv-x="591" d="M4 0l64 367h342l-66 -367h-340zM115 627l63 366h342l-65 -366h-340z" />
<glyph unicode=";" horiz-adv-x="606" d="M-37 -233l197 233h-152l66 367h340l-49 -410l-330 -301zM121 627l63 366h342l-65 -366h-340z" />
<glyph unicode="&#x3c;" horiz-adv-x="1282" d="M80 569l39 230l1122 413l-53 -294l-735 -250l645 -254l-45 -260z" />
<glyph unicode="=" horiz-adv-x="1282" d="M70 362l45 252h1048l-45 -252h-1048zM139 758l45 250h1049l-45 -250h-1049z" />
<glyph unicode="&#x3e;" horiz-adv-x="1280" d="M61 154l54 295l735 249l-645 254l45 260l973 -415l-39 -230z" />
<glyph unicode="?" horiz-adv-x="1120" d="M158 0l59 336h342l-59 -336h-342zM158 1311q267 145 514 145q203 0 323.5 -98.5t120.5 -261.5q0 -82 -30.5 -152t-81.5 -119.5t-123 -89t-149.5 -64t-166.5 -40.5l-49 -156h-207l39 344q213 35 314.5 87.5t101.5 137.5q0 56 -41.5 89.5t-122.5 33.5q-130 0 -330 -106z " />
<glyph unicode="@" horiz-adv-x="1927" d="M51 393q0 207 75.5 391.5t210.5 322t337 218t442 80.5q166 0 300 -42t221.5 -112t144 -164.5t77.5 -197.5t13 -213q-4 -57 -13.5 -117t-28.5 -134.5t-45.5 -141.5t-68 -132t-92.5 -112t-122 -76t-154 -29q-65 0 -114 17.5t-76 43t-43 61t-21 65t-4 61.5 q-162 -137 -340 -137q-126 0 -204.5 79t-78.5 204q0 160 107.5 248t269.5 88q41 0 92.5 -6.5t86.5 -13t83.5 -16.5t58.5 -12l15 80q15 86 -16 122t-120 36q-143 0 -354 -80l-59 176q252 90 459 90q200 0 278.5 -88t44.5 -274l-55 -313q-9 -50 -14 -81.5t-8 -67.5t1.5 -56.5 t14.5 -39t29.5 -26.5t48.5 -8q77 0 149 80.5t119.5 217t56.5 292.5q8 87 -5.5 169.5t-57.5 165t-115.5 144t-190.5 99.5t-272 38q-146 0 -276.5 -33.5t-233.5 -93.5t-185.5 -144t-136.5 -184t-83 -214t-29 -234q0 -293 165.5 -469t459.5 -176q104 0 202 22t145 44l46 22 l59 -92q-8 -4 -22 -11.5t-61.5 -26t-98 -32.5t-127 -25.5t-152.5 -11.5q-225 0 -393 99t-255 270.5t-87 390.5zM719 358q0 -64 35 -94.5t96 -30.5q58 0 129.5 30t138.5 85l25 146q-170 32 -228 32q-100 0 -148 -47t-48 -121z" />
<glyph unicode="A" horiz-adv-x="1454" d="M-98 0l782 1434h385l277 -1434h-371l-35 262h-510l-125 -262h-403zM561 535h344l-74 563z" />
<glyph unicode="B" horiz-adv-x="1417" d="M23 0l253 1434h584q238 0 371 -87.5t133 -242.5q0 -73 -31 -136.5t-79 -104t-99.5 -66t-97.5 -31.5q30 -5 63 -19t69.5 -41t65 -62.5t47.5 -89t19 -116.5q0 -213 -143.5 -325.5t-407.5 -112.5h-747zM420 268h264q141 0 218 53.5t77 155.5q0 150 -242 150h-254zM528 877 h230q105 0 178.5 42.5t73.5 129.5q0 116 -205 116h-225z" />
<glyph unicode="C" horiz-adv-x="1343" d="M84 553q0 210 54.5 382t150.5 285t226.5 174.5t281.5 61.5q74 0 148 -14.5t128.5 -32.5t125 -53t109 -57.5t107.5 -65.5l-186 -246q-128 78 -216.5 116t-174.5 38q-91 0 -166.5 -46.5t-124.5 -124t-76 -178t-27 -210.5q0 -291 209 -291q154 0 439 149l147 -276 q-180 -90 -343 -138.5t-327 -48.5q-225 0 -355 145t-130 431z" />
<glyph unicode="D" horiz-adv-x="1495" d="M23 0l253 1434h469q184 0 320 -43.5t215 -123t116.5 -181t37.5 -228.5q0 -65 -9 -135t-33.5 -155.5t-62.5 -163.5t-101.5 -153t-144 -129.5t-196.5 -88t-254 -33.5h-610zM426 295h156q106 0 192 34t142 89t93.5 128.5t53.5 149.5t16 156q0 153 -93 220t-284 67h-129z" />
<glyph unicode="E" horiz-adv-x="1265" d="M23 0l253 1434h1035l-54 -295h-684l-49 -277h559l-51 -289h-557l-49 -278h692l-53 -295h-1042z" />
<glyph unicode="F" horiz-adv-x="1212" d="M23 0l253 1434h1035l-54 -295h-684l-49 -279h541l-51 -289h-541l-100 -571h-350z" />
<glyph unicode="G" horiz-adv-x="1458" d="M86 547q0 216 56 390t153.5 286.5t228 172.5t281.5 60q94 0 183.5 -18.5t177 -57t144 -69t142.5 -82.5l-188 -248q-65 39 -104.5 60.5t-98 48t-111.5 39t-106 12.5q-122 0 -214 -79.5t-138 -205t-46 -274.5q0 -308 220 -308q139 0 342 158l22 127h-321l49 275h641 l-148 -834h-319l24 137q-200 -160 -399 -160q-211 0 -341 146.5t-130 423.5z" />
<glyph unicode="H" horiz-adv-x="1497" d="M23 0l253 1434h351l-97 -537h519l96 537h348l-254 -1434h-348l106 608h-518l-106 -608h-350z" />
<glyph unicode="I" horiz-adv-x="647" d="M23 0l253 1434h351l-254 -1434h-350z" />
<glyph unicode="J" horiz-adv-x="655" d="M-213 -109q92 27 141.5 47t79.5 48t40 55.5t20 81.5l233 1311h350l-229 -1293q-29 -166 -52 -226q-43 -109 -146 -172q-113 -70 -359 -122z" />
<glyph unicode="K" horiz-adv-x="1441" d="M23 0l253 1434h351l-105 -590l576 590h463l-697 -666l467 -768h-385l-317 543l-193 -187l-63 -356h-350z" />
<glyph unicode="L" horiz-adv-x="1173" d="M23 0l253 1434h351l-203 -1145h659l-51 -289h-1009z" />
<glyph unicode="M" horiz-adv-x="1751" d="M23 0l253 1434h357l219 -805l543 805h356l-254 -1434h-348l149 850l-407 -610h-186l-177 645l-155 -885h-350z" />
<glyph unicode="N" horiz-adv-x="1529" d="M23 0l253 1434h355l381 -930l166 930h348l-254 -1434h-352l-383 930l-164 -930h-350z" />
<glyph unicode="O" horiz-adv-x="1576" d="M82 610q0 65 9.5 136t34 154.5t61.5 160.5t97 150t135 126.5t181.5 86t230.5 32.5q339 0 518 -167t179 -468q0 -65 -9.5 -136t-34 -154.5t-61.5 -160.5t-97 -150t-135 -126.5t-181.5 -86t-231.5 -32.5q-337 0 -515.5 167t-180.5 468zM444 621q0 -349 322 -349 q86 0 156 37t114.5 94.5t75 131t43 143t12.5 133.5q0 348 -321 348q-86 0 -156.5 -37t-115 -94.5t-75 -130.5t-43 -142.5t-12.5 -133.5z" />
<glyph unicode="P" horiz-adv-x="1382" d="M23 0l253 1434h551q574 0 574 -422q0 -72 -19.5 -142.5t-64.5 -139.5t-111 -121t-167 -84.5t-224 -32.5h-354l-88 -492h-350zM510 778h244q138 0 213 59.5t75 163.5q0 144 -219 144h-248z" />
<glyph unicode="Q" horiz-adv-x="1576" d="M82 610q0 65 9.5 136t34 154.5t61.5 160.5t97 150t135 126.5t181.5 86t230.5 32.5q339 0 518 -167t179 -468q0 -74 -12.5 -155t-45 -177.5t-81.5 -180.5t-130 -159t-182 -118l187 -172l-248 -217l-289 335q-313 12 -478 177.5t-167 455.5zM444 621q0 -349 322 -349 q86 0 156 37t114.5 94.5t75 131t43 143t12.5 133.5q0 348 -321 348q-86 0 -156.5 -37t-115 -94.5t-75 -130.5t-43 -142.5t-12.5 -133.5z" />
<glyph unicode="R" horiz-adv-x="1452" d="M23 0l253 1434h617q279 0 419 -101.5t140 -300.5q0 -76 -26 -151t-76.5 -143.5t-138 -119.5t-199.5 -69l256 -549h-363l-229 539h-205l-98 -539h-350zM518 811h291q134 0 208.5 55.5t74.5 157.5q0 77 -61 107t-169 30h-282z" />
<glyph unicode="S" horiz-adv-x="1318" d="M-25 201l185 237q118 -69 250 -120.5t237 -51.5q92 0 151.5 35.5t59.5 95.5q0 33 -21.5 58.5t-64.5 44.5t-88 33.5t-111.5 36.5t-115.5 44q-66 29 -115.5 61t-95 78.5t-70 110.5t-24.5 142q0 193 148.5 321.5t406.5 128.5q305 0 636 -192l-184 -232q-92 52 -216 93.5 t-214 41.5q-85 0 -143 -33t-58 -96q0 -31 18.5 -53.5t57.5 -39t81 -29.5t108.5 -35.5t121.5 -46.5q52 -22 92.5 -44.5t84.5 -58t73.5 -75t48.5 -96t19 -122.5q0 -199 -154.5 -330t-416.5 -131q-188 0 -369.5 66t-317.5 158z" />
<glyph unicode="T" horiz-adv-x="1218" d="M119 1139l53 295h1165l-53 -295h-407l-203 -1139h-348l200 1139h-407z" />
<glyph unicode="U" horiz-adv-x="1474" d="M108 488q4 70 19 155l139 791h350l-153 -869q-11 -47 -11 -90q0 -11 1 -23q4 -52 23 -91.5t68 -62t126 -22.5q79 0 136.5 21.5t93 63t55.5 90t32 114.5l154 869h350l-158 -883q-18 -101 -45.5 -181t-79 -156t-122 -126.5t-178 -80.5t-244.5 -30q-113 0 -201.5 17.5 t-150.5 49t-104.5 78.5t-65.5 102q-23 54 -31 124q-5 44 -5 90q0 25 2 50z" />
<glyph unicode="V" horiz-adv-x="1452" d="M145 1434h394l135 -1020l483 1020h432l-778 -1434h-387z" />
<glyph unicode="W" horiz-adv-x="1984" d="M162 1434h391l35 -922l393 922h291l67 -920l357 920h415l-647 -1434h-342l-73 932l-400 -932h-342z" />
<glyph unicode="X" horiz-adv-x="1366" d="M-111 0l598 723l-321 711h383l172 -496l340 496h428l-576 -711l349 -723h-392l-188 485l-350 -485h-443z" />
<glyph unicode="Y" horiz-adv-x="1359" d="M137 1434h371l194 -572l396 572h407l-661 -867l-99 -567h-350l101 567z" />
<glyph unicode="Z" horiz-adv-x="1306" d="M-51 0l45 268l858 871h-655l49 295h1124l-43 -267l-860 -872h711l-50 -295h-1179z" />
<glyph unicode="[" horiz-adv-x="765" d="M-41 -293l356 2011h590l-35 -194h-239l-289 -1622h242l-35 -195h-590z" />
<glyph unicode="\" horiz-adv-x="1001" d="M217 1618h236l364 -1802h-235z" />
<glyph unicode="]" horiz-adv-x="761" d="M-125 -293l35 195h240l288 1622h-241l34 194h590l-356 -2011h-590z" />
<glyph unicode="^" horiz-adv-x="1282" d="M94 655l512 779h346l248 -779h-348l-111 445l-262 -445h-385z" />
<glyph unicode="_" horiz-adv-x="1454" d="M-70 -379l41 240h1229l-41 -240h-1229z" />
<glyph unicode="`" horiz-adv-x="507" d="M217 1493h354l209 -287h-260z" />
<glyph unicode="a" horiz-adv-x="1296" d="M41 381q0 210 65.5 373t184.5 253.5t272 90.5q57 0 109 -12.5t96.5 -37.5t71.5 -44t63 -48l21 119h336l-191 -1075h-336l21 119q-194 -142 -379 -142q-66 0 -123 21.5t-105.5 67t-77 126.5t-28.5 189zM387 420q0 -83 34 -128.5t99 -45.5q72 0 139.5 37t141.5 102l57 324 q-98 118 -215 118q-79 0 -138.5 -58.5t-88.5 -149.5t-29 -199z" />
<glyph unicode="b" horiz-adv-x="1292" d="M0 0l264 1493h336l-94 -528q194 133 364 133q54 0 103 -13t94 -43t78 -75.5t52.5 -116t19.5 -158.5q0 -209 -65 -371.5t-182.5 -253t-269.5 -90.5q-59 0 -111.5 12t-98.5 37.5t-69.5 41.5t-64.5 47l-20 -115h-336zM399 365q105 -117 222 -117q77 0 135.5 58t87 149.5 t28.5 199.5q0 83 -37 128.5t-108 45.5q-66 0 -130 -35t-138 -96z" />
<glyph unicode="c" horiz-adv-x="1091" d="M41 428q0 165 47.5 296.5t126.5 211t175.5 121t201.5 41.5q32 0 64.5 -3t59 -7t59 -13t52.5 -14t52.5 -18.5t46 -19t46 -21.5t40 -20t40.5 -21.5t35 -18.5l-151 -231q-5 3 -36 19t-45 23t-44 20.5t-50 20t-46.5 12t-48.5 5.5q-80 0 -145.5 -54t-99.5 -133.5t-34 -164.5 q0 -91 41.5 -143t126.5 -52q87 0 295 96l111 -258q-81 -34 -138 -55t-159.5 -45.5t-184.5 -24.5q-95 0 -174 27.5t-138.5 81.5t-92.5 141.5t-33 200.5z" />
<glyph unicode="d" horiz-adv-x="1298" d="M41 381q0 210 65.5 373t184.5 253.5t272 90.5q57 0 109 -12.5t96.5 -37.5t71.5 -44t63 -48l94 537h336l-264 -1493h-336l21 119q-194 -142 -379 -142q-66 0 -123 21.5t-105.5 67t-77 126.5t-28.5 189zM387 420q0 -83 34 -128.5t99 -45.5q72 0 139.5 37t141.5 102l57 324 q-98 118 -215 118q-79 0 -138.5 -58.5t-88.5 -149.5t-29 -199z" />
<glyph unicode="e" horiz-adv-x="1171" d="M39 440q0 141 43.5 261t124.5 208.5t203 138.5t272 50q201 0 322.5 -86.5t121.5 -231.5q0 -86 -34 -149.5t-89.5 -101.5t-141.5 -60.5t-174.5 -30.5t-203.5 -8h-104v-8q0 -197 176 -197q131 0 395 121l101 -231q-58 -27 -130 -53.5t-198.5 -55.5t-233.5 -29 q-212 0 -331 112.5t-119 350.5zM410 606h88q146 0 226.5 40t80.5 112q0 46 -36.5 74t-96.5 28q-94 0 -161 -72t-101 -182z" />
<glyph unicode="f" horiz-adv-x="827" d="M-195 -217q50 15 84 27t64.5 26.5t48.5 25t34.5 29.5t25 34t18 43.5t14 52.5t12.5 67l132 741h-144l43 246h146l4 25q32 204 114 298.5t248 94.5q190 0 400 -113l-150 -215q-109 39 -178 39q-79 0 -96 -100l-7 -29h256l-43 -246h-256l-126 -714q-37 -199 -63 -269 q-45 -121 -144 -187q-112 -76 -365 -130z" />
<glyph unicode="g" horiz-adv-x="1296" d="M-53 -350l104 258q258 -82 436 -82q82 0 134.5 24t74.5 59.5t31 88.5l21 119q-191 -140 -375 -140q-66 0 -122.5 21.5t-105 67t-76.5 126.5t-28 189q0 318 144.5 517.5t375.5 199.5q75 0 144.5 -24t108 -49.5t83.5 -63.5l21 114h335l-186 -1061q-23 -134 -67 -222.5 t-113.5 -139t-156 -70.5t-208.5 -20q-271 0 -575 88zM385 420q0 -82 34.5 -128t98.5 -46q71 0 137.5 36.5t139.5 100.5l59 330q-103 114 -213 114q-78 0 -137.5 -58.5t-89 -150t-29.5 -198.5z" />
<glyph unicode="h" d="M0 0l264 1493h336l-94 -535q212 140 395 140q177 0 250 -103q51 -72 51 -180q0 -47 -10 -102l-127 -713h-338l121 678q7 33 7 60q1 35 -11 58q-20 42 -88 42q-66 0 -149 -38t-146 -89l-125 -711h-336z" />
<glyph unicode="i" horiz-adv-x="581" d="M0 0l190 1075h336l-190 -1075h-336zM209 1212l47 275h350l-49 -275h-348z" />
<glyph unicode="j" horiz-adv-x="591" d="M-256 -217q65 20 106.5 35t73.5 32.5t48.5 30.5t29 37t17.5 44t12 58l186 1055h338l-182 -1026q-30 -167 -56 -230q-44 -108 -150 -171q-114 -68 -351 -119zM236 1212l49 275h348l-49 -275h-348z" />
<glyph unicode="k" horiz-adv-x="1198" d="M0 0l264 1493h336l-141 -793l344 375h418l-451 -438l320 -637h-340l-203 418l-166 -160l-45 -258h-336z" />
<glyph unicode="l" horiz-adv-x="587" d="M2 0l264 1493h338l-264 -1493h-338z" />
<glyph unicode="m" horiz-adv-x="1900" d="M0 0l190 1075h336l-22 -127q74 61 168 105.5t186 44.5q237 0 281 -189q70 70 180 129.5t217 59.5q175 0 244 -100q48 -69 48 -175q0 -46 -9 -100l-129 -723h-336l119 678q8 46 8 81.5t-22 57t-68 21.5q-59 0 -129.5 -39.5t-124.5 -91.5l-125 -707h-336l119 678 q7 46 7 81.5t-21.5 57t-67.5 21.5q-59 0 -128 -39t-124 -92l-125 -707h-336z" />
<glyph unicode="n" d="M0 0l190 1075h336l-20 -117q212 140 395 140q177 0 250 -103q51 -72 51 -180q0 -47 -10 -102l-127 -713h-336l119 678q7 33 7 60q1 35 -11 58q-20 42 -88 42q-66 0 -149 -38t-146 -89l-125 -711h-336z" />
<glyph unicode="o" horiz-adv-x="1275" d="M39 471q0 128 38.5 240.5t112 199.5t189 137t260.5 50q263 0 414 -130.5t151 -363.5q0 -128 -39 -240.5t-112.5 -199.5t-189.5 -137t-261 -50q-263 0 -413 129.5t-150 364.5zM377 467q0 -110 53.5 -170.5t163.5 -60.5q86 0 149 55.5t92 138t29 178.5q0 232 -217 232 q-86 0 -149 -56t-92 -138.5t-29 -178.5z" />
<glyph unicode="p" horiz-adv-x="1294" d="M-74 -418l267 1493h335l-20 -110q189 133 364 133q69 0 128 -21.5t109 -67t79 -127t29 -190.5q0 -209 -65 -371.5t-182 -253t-268 -90.5q-59 0 -111.5 12t-98.5 37.5t-69.5 41.5t-64.5 47l-94 -533h-338zM401 365q101 -117 220 -117q78 0 136 58t86.5 149t28.5 200 q0 83 -36 128.5t-107 45.5q-67 0 -130 -34.5t-138 -96.5z" />
<glyph unicode="q" horiz-adv-x="1296" d="M41 381q0 210 65.5 373t184.5 253.5t272 90.5q57 0 109 -12.5t96.5 -37.5t71.5 -44t63 -48l21 119h336l-265 -1493h-336l95 537q-194 -142 -379 -142q-66 0 -123 21.5t-105.5 67t-77 126.5t-28.5 189zM387 420q0 -83 34 -128.5t99 -45.5q72 0 139.5 37t141.5 102l57 324 q-98 118 -215 118q-79 0 -138.5 -58.5t-88.5 -149.5t-29 -199z" />
<glyph unicode="r" horiz-adv-x="886" d="M0 0l190 1075h336l-39 -223q14 24 33.5 50t59.5 63.5t86 64.5q47 26 116 44q54 14 111 14q16 0 33 -1l-54 -315q-72 0 -136.5 -21t-110 -54t-83.5 -73t-62 -80.5t-41 -73.5t-24 -54l-7 -21l-72 -395h-336z" />
<glyph unicode="s" horiz-adv-x="1099" d="M-37 147l152 220q96 -53 213.5 -93.5t203.5 -40.5q58 0 94 19.5t36 50.5q0 18 -12 31.5t-41 26t-51.5 20t-71.5 21t-74 20.5q-51 15 -89.5 30t-85.5 42.5t-77 60t-51 81.5t-21 109q0 153 121.5 253t333.5 100q139 0 280.5 -41t239.5 -96l-150 -216q-216 99 -356 99 q-60 0 -93.5 -19t-33.5 -49q0 -18 11 -31t38 -24.5t49.5 -18.5t69.5 -19.5t74 -20.5q55 -16 96.5 -32.5t89 -44.5t78.5 -61t51.5 -82.5t20.5 -109.5q0 -159 -129.5 -257t-350.5 -98q-160 0 -309.5 50t-255.5 120z" />
<glyph unicode="t" horiz-adv-x="878" d="M72 829l45 246h139l49 271l344 40l-55 -311h287l-43 -246h-289l-82 -460q-4 -21 -4 -37q0 -30 12 -42q18 -20 53 -20q52 0 166 41l82 -258q-210 -76 -368 -76q-164 -1 -236 109q-47 72 -48 185q0 58 13 128l76 430h-141z" />
<glyph unicode="u" d="M55 360l127 715h336l-121 -678q-5 -31 -5 -56q0 -37 11 -61q19 -42 86 -42q66 0 150 37.5t143 86.5l127 713h336l-190 -1075h-336l20 115q-213 -138 -395 -138q-177 0 -249 102q-50 71 -50 178q0 48 10 103z" />
<glyph unicode="v" horiz-adv-x="1200" d="M90 1075h348l99 -717l350 717h377l-613 -1075h-332z" />
<glyph unicode="w" horiz-adv-x="1714" d="M100 1075h346l35 -704l318 704h276l64 -692l272 692h367l-516 -1075h-316l-76 659l-315 -659h-315z" />
<glyph unicode="x" horiz-adv-x="1243" d="M-111 0l512 537l-297 538h353l161 -346l281 346h408l-492 -536l326 -539h-363l-172 352l-287 -352h-430z" />
<glyph unicode="y" horiz-adv-x="1196" d="M-20 -211q14 5 45.5 15.5l43.5 14.5t37.5 13.5t36.5 14.5t31.5 14.5t31.5 16.5t27.5 18.5t28 23t25 26t26.5 31.5l-229 1098h348l105 -684l346 684h374l-598 -1075q-83 -146 -126 -202q-110 -142 -286 -212q-86 -35 -194 -57z" />
<glyph unicode="z" horiz-adv-x="1159" d="M-49 0l39 231l635 568h-510l47 276h1001l-39 -231l-637 -568h531l-45 -276h-1022z" />
<glyph unicode="{" horiz-adv-x="817" d="M12 612l33 199q226 0 234 225l10 205q10 251 154 364t419 113h96l-32 -188h-37q-228 0 -244 -250l-8 -180q-5 -101 -30 -172.5t-71.5 -116t-106.5 -69t-144 -35.5q153 -34 209 -130t0 -278l-35 -111q-94 -292 139 -292h37l-33 -189h-35q-120 0 -218 30t-166.5 91.5 t-88 156t16.5 222.5l53 182q21 69 17 118.5t-46 77t-123 27.5z" />
<glyph unicode="|" horiz-adv-x="512" d="M-31 -252l340 1927h246l-340 -1927h-246z" />
<glyph unicode="}" horiz-adv-x="815" d="M-117 -293l33 189h37q228 0 244 249l8 181q5 101 30 172.5t71.5 116t106.5 69t144 35.5q-75 17 -125 46t-81 78t-30.5 118t27.5 165l35 111q11 35 17.5 66t9 66t-6 62.5t-26 50.5t-51.5 35.5t-82 12.5h-37l33 188h34q120 0 218 -30t167 -91.5t88.5 -155.5t-16.5 -222 l-53 -183q-21 -69 -17 -118.5t45.5 -77t122.5 -27.5l-32 -199q-226 0 -234 -225l-10 -205q-10 -251 -154 -364t-419 -113h-97z" />
<glyph unicode="~" horiz-adv-x="1280" d="M-6 440q90 163 186.5 247.5t222.5 84.5q68 0 138.5 -24.5t119 -53.5t109 -53.5t111.5 -24.5q46 0 89 29t103 115l195 -84q-92 -164 -188 -248t-222 -84q-69 0 -139.5 24.5t-119 53.5t-109 53.5t-111.5 24.5q-46 0 -89 -29t-104 -115z" />
<glyph unicode="&#xa1;" horiz-adv-x="608" d="M-25 0l275 958h201l-66 -958h-410zM207 1098l57 336h338l-57 -336h-338z" />
<glyph unicode="&#xa2;" horiz-adv-x="1155" d="M98 608q0 165 47.5 296.5t126.5 211t175.5 121t201.5 41.5h13l28 156h244l-37 -199q32 -11 62.5 -23.5t62.5 -28.5t51.5 -26t54 -29t43.5 -24l-151 -227q-187 114 -297 114q-80 0 -145.5 -54t-99.5 -133.5t-34 -164.5q0 -91 41.5 -143t126.5 -52q108 0 322 97l110 -252 q-205 -85 -333 -111l-31 -178h-244l29 162q-168 20 -267.5 132.5t-99.5 313.5z" />
<glyph unicode="&#xa3;" horiz-adv-x="1202" d="M-16 0l41 233q10 3 26 9.5t60 30t80 52t72.5 76.5t51.5 103h-221l35 196h176q-8 26 -35 97.5t-41 130.5t-14 123q0 187 123 296t342 109q92 0 177.5 -19.5t160.5 -57.5t119 -65.5t104 -70.5l-174 -205q-194 129 -326 129q-86 0 -134 -43t-48 -110q0 -56 42 -157t52 -157 h330l-35 -196h-307q-25 -73 -73 -129.5t-95 -85.5h565l-51 -289h-1003z" />
<glyph unicode="&#xa5;" horiz-adv-x="1472" d="M135 281l35 194h358l17 92l-4 11h-353l33 194h238l-273 662h371l195 -572l395 572h407l-505 -662h239l-35 -194h-352l-8 -11l-16 -92h358l-35 -194h-358l-47 -281h-351l50 281h-359z" />
<glyph unicode="&#xa6;" horiz-adv-x="518" d="M-29 -252l150 846h246l-150 -846h-246zM162 829l149 846h246l-149 -846h-246z" />
<glyph unicode="&#xa7;" horiz-adv-x="1191" d="M16 -10l152 213q216 -99 356 -99q59 0 93 19.5t34 50.5q0 13 -6 23.5t-19 19.5t-28 15.5t-38.5 14t-43.5 13t-51 14t-53 15.5q-55 17 -98.5 34t-90.5 44.5t-78 60t-51 79.5t-20 103q0 96 57.5 169.5t163.5 113.5q-92 82 -92 211q0 153 121.5 252.5t334.5 99.5 q139 0 281 -41t240 -96l-154 -215q-81 38 -178.5 68t-173.5 30q-58 0 -92.5 -18t-34.5 -49q0 -18 10.5 -31t38 -25t48 -18.5t69 -20t73.5 -20.5q71 -21 126 -46.5t104.5 -63t76.5 -91.5t27 -121q0 -98 -56.5 -171t-162.5 -113q92 -79 92 -207q0 -155 -120.5 -254.5 t-333.5 -99.5q-140 0 -281.5 41t-241.5 96zM401 664q0 -15 6 -27t21.5 -23t28.5 -18.5t40.5 -16.5t44.5 -14t52.5 -15t52.5 -15q78 11 112 42.5t34 67.5q0 15 -6 27t-21 23t-28 18.5t-40.5 16.5t-43.5 14t-52.5 15t-52.5 15q-79 -11 -113.5 -43t-34.5 -67z" />
<glyph unicode="&#xa8;" horiz-adv-x="528" d="M141 1227l47 262h271l-47 -262h-271zM535 1227l47 262h270l-47 -262h-270z" />
<glyph unicode="&#xa9;" horiz-adv-x="1710" d="M96 641q0 131 32.5 251.5t98.5 223t158.5 178.5t219 119t274.5 43q206 0 360 -84.5t234.5 -234.5t80.5 -344q0 -131 -32.5 -251.5t-98.5 -223.5t-158 -179t-219.5 -119t-275.5 -43q-309 0 -491.5 184t-182.5 480zM176 643q0 -171 70 -303.5t208 -209.5t324 -77 q160 0 293.5 59t221 160t136 234.5t48.5 284.5q0 260 -162.5 423.5t-442.5 163.5q-160 0 -293 -58.5t-220 -159t-135 -233.5t-48 -284zM446 618q-5 126 27 230.5t90 172t134.5 104t162.5 36.5q54 0 104.5 -12.5t94.5 -37t69.5 -42.5t59.5 -45l-62 -66q-32 26 -48.5 38 t-54.5 35t-79 33.5t-86 10.5q-137 0 -227.5 -128t-83.5 -322q5 -126 54.5 -196.5t141.5 -70.5q85 0 167 35t141 78l51 -74q-53 -35 -95 -58t-115 -46t-144 -23q-127 0 -211.5 91.5t-90.5 256.5z" />
<glyph unicode="&#xaa;" horiz-adv-x="890" d="M143 1026q0 187 90.5 304.5t233.5 117.5q49 0 94.5 -15t67 -28t53.5 -37l12 66h228l-113 -646h-229l10 64q-118 -78 -234 -78q-42 0 -78.5 13.5t-67.5 41.5t-49 78.5t-18 118.5zM377 1047q0 -45 20.5 -69t57.5 -24q42 0 81.5 20t86.5 56l30 172q-60 64 -125 64 q-69 0 -110 -64t-41 -155z" />
<glyph unicode="&#xab;" horiz-adv-x="1382" d="M25 449l34 202l691 428l-60 -338l-375 -217l299 -215l-51 -289zM651 449l35 202l690 428l-59 -338l-375 -217l299 -215l-51 -289z" />
<glyph unicode="&#xac;" horiz-adv-x="1280" d="M20 557l46 252h1202l-113 -625h-268l67 373h-934z" />
<glyph unicode="&#xad;" horiz-adv-x="1003" d="M76 449l45 268h667l-45 -268h-667z" />
<glyph unicode="&#xae;" horiz-adv-x="1015" d="M154 1024q0 91 29 172t82.5 143.5t137 99t185.5 36.5q171 0 272 -102t101 -267q0 -122 -49 -223t-149 -164.5t-235 -63.5q-172 0 -273 102t-101 267zM223 1026q0 -134 82.5 -218.5t226.5 -84.5q165 0 264 109.5t99 271.5q0 134 -84 218.5t-229 84.5q-165 0 -262 -109 t-97 -272zM373 864l71 412h183q57 0 91 -30.5t34 -76.5q0 -50 -35 -85t-92 -44l67 -176h-69l-64 174h-88l-31 -174h-67zM481 1102h107q46 0 71 19t25 48q0 45 -59 45h-123z" />
<glyph unicode="&#xaf;" horiz-adv-x="647" d="M229 1257l33 193h635l-33 -193h-635z" />
<glyph unicode="&#xb0;" horiz-adv-x="890" d="M131 1067q0 152 108.5 260.5t262.5 108.5q152 0 260 -108.5t108 -260.5t-108 -260.5t-260 -108.5q-154 0 -262.5 108.5t-108.5 260.5zM326 1067q0 -72 51.5 -124t124.5 -52q72 0 124 52t52 124t-52 124t-124 52q-73 0 -124.5 -52t-51.5 -124z" />
<glyph unicode="&#xb1;" horiz-adv-x="1282" d="M4 0l39 215h1049l-39 -215h-1049zM111 600l45 250h393l47 270h260l-49 -270h397l-45 -250h-397l-47 -270h-258l47 270h-393z" />
<glyph unicode="&#xb2;" horiz-adv-x="813" d="M80 788l16 97q7 41 22.5 78.5t33 65.5t47 57t51.5 47.5t61 43t61 37t64 35.5q27 15 61.5 32.5t54.5 28t43 23t35 21t23.5 19t16 20t4.5 20.5q-3 55 -99 55q-100 0 -249 -82l-88 164q39 22 64.5 34.5t77.5 34.5t109 33t117 11q147 0 227 -69t80 -169q0 -36 -12 -70 t-29 -60.5t-47.5 -53.5t-56 -45.5t-66.5 -41t-66.5 -35t-68.5 -32.5q-97 -45 -127 -64t-37 -40h424l-32 -195h-715z" />
<glyph unicode="&#xb3;" horiz-adv-x="817" d="M80 915l115 144q84 -46 146 -67t128 -21q71 0 109 22.5t38 61.5q0 27 -17.5 44.5t-51 26.5t-69 12t-83.5 3h-39l35 196h41q90 0 153.5 18t63.5 58q0 26 -23 40.5t-61 14.5q-107 0 -250 -73l-79 159q182 109 368 109q142 0 214.5 -57.5t72.5 -145.5q0 -133 -178 -209 q64 -22 103.5 -76t39.5 -124q0 -49 -19 -95t-58.5 -88.5t-112.5 -68t-170 -25.5q-222 0 -416 141z" />
<glyph unicode="&#xb4;" horiz-adv-x="507" d="M150 1206l301 287h391l-402 -287h-290z" />
<glyph unicode="&#xb5;" horiz-adv-x="1292" d="M-61 -418l266 1493h336l-121 -678q-13 -76 6 -117.5t86 -41.5q66 0 150 37.5t143 86.5l127 713h336l-191 -1075h-336l21 115q-213 -138 -395 -138h-23l-68 -395h-337z" />
<glyph unicode="&#xb6;" horiz-adv-x="1519" d="M104 844q0 118 35 216.5t95.5 167t142.5 115.5t174.5 69t193.5 22h310l-322 -1813h-280l143 801q-105 0 -192.5 24.5t-155.5 74.5t-106 132.5t-38 190.5zM887 -379l321 1813h281l-320 -1813h-282z" />
<glyph unicode="&#xb7;" horiz-adv-x="575" d="M68 399l63 367h342l-65 -367h-340z" />
<glyph unicode="&#xb8;" horiz-adv-x="378" d="M-80 -336l90 160q45 -23 96 -23q105 0 105 86q0 24 -8.5 53.5t-17.5 46.5l-9 17h148q6 -8 14.5 -23t22.5 -58t14 -83q0 -110 -75 -166.5t-189 -56.5q-117 0 -191 47z" />
<glyph unicode="&#xb9;" horiz-adv-x="575" d="M164 1507l282 142h224l-152 -861h-233l112 631l-159 -73z" />
<glyph unicode="&#xba;" horiz-adv-x="860" d="M139 1077q0 101 41 183.5t129.5 135t210.5 52.5q169 0 267 -80t98 -223q0 -158 -99.5 -264.5t-281.5 -106.5q-169 0 -267 80t-98 223zM375 1077q0 -129 121 -129q72 0 111.5 63t39.5 134q0 61 -27 95t-94 34q-72 0 -111.5 -63.5t-39.5 -133.5z" />
<glyph unicode="&#xbb;" horiz-adv-x="1380" d="M-8 20l59 338l375 217l-299 216l51 288l539 -428l-35 -202zM618 20l60 338l375 217l-299 216l51 288l538 -428l-34 -202z" />
<glyph unicode="&#xbc;" horiz-adv-x="1867" d="M160 1292l282 142h224l-152 -861h-233l112 631l-160 -74zM270 0l901 1434h271l-901 -1434h-271zM858 150l29 161l489 549h316l-93 -516h134l-31 -194h-135l-27 -150h-235l26 150h-473zM1153 344h211l55 309z" />
<glyph unicode="&#xbd;" horiz-adv-x="1896" d="M160 1292l282 142h224l-152 -861h-233l112 631l-160 -74zM270 0l901 1434h271l-901 -1434h-271zM973 0l16 96q8 48 25 89t46 76t55 60.5t69 54t69.5 44t75.5 41.5q27 15 61.5 32.5t54.5 28t43 23t35 21t23.5 19t16 20t4.5 20.5q-3 55 -99 55q-100 0 -249 -82l-89 164 q52 29 90 47.5t119.5 41.5t159.5 23q148 0 227.5 -68.5t79.5 -168.5q0 -36 -12 -70t-29 -60.5t-47.5 -53.5t-56 -45.5t-66.5 -41t-66.5 -35t-68.5 -32.5q-97 -45 -127 -64t-37 -40h424l-32 -195h-715z" />
<glyph unicode="&#xbe;" horiz-adv-x="2048" d="M70 700l114 144q83 -46 146 -67t129 -21q71 0 109 22.5t38 61.5q0 27 -17.5 44.5t-51 26.5t-69 12t-83.5 3h-39l35 196h41q90 0 153.5 18t63.5 58q0 26 -23 40.5t-61 14.5q-107 0 -250 -73l-80 159q182 109 369 109q142 0 214.5 -57.5t72.5 -145.5q0 -133 -179 -209 q64 -22 104 -76.5t40 -123.5q0 -38 -11 -75.5t-38 -74.5t-67 -64.5t-103.5 -45t-141.5 -17.5q-221 0 -415 141zM469 0l901 1434h270l-901 -1434h-270zM1059 150l28 161l490 549h315l-92 -516h133l-30 -194h-136l-26 -150h-236l27 150h-473zM1354 344h211l55 309z" />
<glyph unicode="&#xbf;" horiz-adv-x="1116" d="M20 338q0 82 30.5 152t81.5 119.5t123 89t149.5 64t166.5 40.5l50 155h206l-39 -344q-213 -35 -314 -87.5t-101 -137.5q0 -56 41.5 -89.5t122.5 -33.5q127 0 329 107l113 -250q-269 -146 -514 -146q-203 0 -324 99t-121 262zM578 1098l59 336h342l-59 -336h-342z" />
<glyph unicode="&#xc0;" horiz-adv-x="1454" d="M-98 0l782 1434h385l277 -1434h-371l-35 262h-510l-125 -262h-403zM547 1802h354l209 -286h-260zM561 535h344l-74 563z" />
<glyph unicode="&#xc1;" horiz-adv-x="1454" d="M-98 0l782 1434h385l277 -1434h-371l-35 262h-510l-125 -262h-403zM561 535h344l-74 563zM678 1516l301 286h391l-401 -286h-291z" />
<glyph unicode="&#xc2;" horiz-adv-x="1454" d="M-98 0l782 1434h385l277 -1434h-371l-35 262h-510l-125 -262h-403zM516 1516l268 286h318l168 -286h-213l-123 143l-174 -143h-244zM561 535h344l-74 563z" />
<glyph unicode="&#xc3;" horiz-adv-x="1454" d="M-98 0l782 1434h385l277 -1434h-371l-35 262h-510l-125 -262h-403zM522 1612q31 45 45.5 65.5t43 53.5t51 47.5t54.5 26.5t68 12q37 0 78.5 -15.5t70.5 -34t62 -34t56 -15.5q52 0 125 99l135 -91q-30 -44 -45.5 -66t-43.5 -54t-50.5 -47t-54.5 -27t-68 -12 q-47 0 -99 24.5t-96 49t-72 24.5q-53 0 -125 -96zM561 535h344l-74 563z" />
<glyph unicode="&#xc4;" horiz-adv-x="1454" d="M-98 0l782 1434h385l277 -1434h-371l-35 262h-510l-125 -262h-403zM561 535h344l-74 563zM563 1536l47 262h271l-47 -262h-271zM956 1536l48 262h270l-47 -262h-271z" />
<glyph unicode="&#xc5;" horiz-adv-x="1454" d="M-98 0l782 1434h385l277 -1434h-371l-35 262h-510l-125 -262h-403zM561 535h344l-74 563zM696 1729q0 98 69 166.5t167 68.5q97 0 165 -68.5t68 -166.5q0 -97 -68 -165.5t-165 -68.5q-98 0 -167 68.5t-69 165.5zM854 1729q0 -33 22.5 -55.5t55.5 -22.5q32 0 55 23t23 55 q0 33 -23 56t-55 23q-34 0 -56 -22.5t-22 -56.5z" />
<glyph unicode="&#xc6;" horiz-adv-x="2197" d="M-174 0l1214 1434h1205l-54 -295h-684l-49 -277h559l-51 -289h-557l-49 -278h692l-53 -295h-1043l45 262h-516l-211 -262h-448zM715 545h338l94 536z" />
<glyph unicode="&#xc7;" horiz-adv-x="1343" d="M84 553q0 210 54.5 382t150.5 285t226.5 174.5t281.5 61.5q74 0 148 -14.5t128.5 -32.5t125 -53t109 -57.5t107.5 -65.5l-186 -246q-128 78 -216.5 116t-174.5 38q-91 0 -166.5 -46.5t-124.5 -124t-76 -178t-27 -210.5q0 -291 209 -291q154 0 439 149l147 -276 q-318 -157 -563 -180q39 -81 39 -144q0 -110 -75 -166.5t-189 -56.5q-117 0 -191 47l90 160q45 -23 96 -23q105 0 105 86q0 40 -23 93q-207 12 -325.5 156t-118.5 417z" />
<glyph unicode="&#xc8;" horiz-adv-x="1265" d="M23 0l253 1434h1035l-54 -295h-684l-49 -277h559l-51 -289h-557l-49 -278h692l-53 -295h-1042zM469 1802h354l209 -286h-260z" />
<glyph unicode="&#xc9;" horiz-adv-x="1265" d="M23 0l253 1434h1035l-54 -295h-684l-49 -277h559l-51 -289h-557l-49 -278h692l-53 -295h-1042zM586 1516l301 286h391l-401 -286h-291z" />
<glyph unicode="&#xca;" horiz-adv-x="1265" d="M23 0l253 1434h1035l-54 -295h-684l-49 -277h559l-51 -289h-557l-49 -278h692l-53 -295h-1042zM436 1516l269 286h317l168 -286h-213l-123 143l-174 -143h-244z" />
<glyph unicode="&#xcb;" horiz-adv-x="1265" d="M23 0l253 1434h1035l-54 -295h-684l-49 -277h559l-51 -289h-557l-49 -278h692l-53 -295h-1042zM485 1536l47 262h271l-47 -262h-271zM879 1536l47 262h270l-47 -262h-270z" />
<glyph unicode="&#xcc;" horiz-adv-x="649" d="M23 0l253 1434h351l-254 -1434h-350zM123 1802h354l209 -286h-260z" />
<glyph unicode="&#xcd;" horiz-adv-x="657" d="M23 0l253 1434h351l-254 -1434h-350zM238 1516l301 286h391l-402 -286h-290z" />
<glyph unicode="&#xce;" horiz-adv-x="655" d="M23 0l253 1434h351l-254 -1434h-350zM88 1516l268 286h318l168 -286h-213l-123 143l-174 -143h-244z" />
<glyph unicode="&#xcf;" horiz-adv-x="655" d="M23 0l253 1434h351l-254 -1434h-350zM139 1536l47 262h271l-47 -262h-271zM532 1536l48 262h270l-47 -262h-271z" />
<glyph unicode="&#xd0;" horiz-adv-x="1529" d="M16 584l47 268h146l104 582h469q184 0 320 -43.5t215 -123t116 -181t37 -228.5q0 -65 -9 -135t-33.5 -155.5t-62.5 -163.5t-101 -153t-143.5 -129.5t-196.5 -88t-254 -33.5h-611l103 584h-146zM463 295h155q106 0 192 34t142 89t94 128.5t54 149.5t16 156q0 153 -93 220 t-284 67h-129l-51 -287h281l-47 -268h-281z" />
<glyph unicode="&#xd1;" horiz-adv-x="1529" d="M23 0l253 1434h355l381 -930l166 930h348l-254 -1434h-352l-383 930l-164 -930h-350zM559 1612q31 45 45.5 65.5t43 53.5t51 47.5t54.5 26.5t68 12q37 0 78 -15.5t70.5 -34t62 -34t55.5 -15.5q52 0 125 99l136 -91q-29 -43 -45.5 -66t-44 -54.5t-50.5 -47t-55 -27 t-68 -11.5q-47 0 -99 24.5t-95.5 49t-71.5 24.5q-53 0 -125 -96z" />
<glyph unicode="&#xd2;" horiz-adv-x="1576" d="M82 610q0 65 9.5 136t34 154.5t61.5 160.5t97 150t135 126.5t181.5 86t230.5 32.5q339 0 518 -167t179 -468q0 -65 -9.5 -136t-34 -154.5t-61.5 -160.5t-97 -150t-135 -126.5t-181.5 -86t-231.5 -32.5q-337 0 -515.5 167t-180.5 468zM444 621q0 -349 322 -349 q86 0 156 37t114.5 94.5t75 131t43 143t12.5 133.5q0 348 -321 348q-86 0 -156.5 -37t-115 -94.5t-75 -130.5t-43 -142.5t-12.5 -133.5zM602 1802h354l209 -286h-260z" />
<glyph unicode="&#xd3;" horiz-adv-x="1576" d="M82 610q0 65 9.5 136t34 154.5t61.5 160.5t97 150t135 126.5t181.5 86t230.5 32.5q339 0 518 -167t179 -468q0 -65 -9.5 -136t-34 -154.5t-61.5 -160.5t-97 -150t-135 -126.5t-181.5 -86t-231.5 -32.5q-337 0 -515.5 167t-180.5 468zM444 621q0 -349 322 -349 q86 0 156 37t114.5 94.5t75 131t43 143t12.5 133.5q0 348 -321 348q-86 0 -156.5 -37t-115 -94.5t-75 -130.5t-43 -142.5t-12.5 -133.5zM717 1516l301 286h391l-401 -286h-291z" />
<glyph unicode="&#xd4;" horiz-adv-x="1576" d="M82 610q0 65 9.5 136t34 154.5t61.5 160.5t97 150t135 126.5t181.5 86t230.5 32.5q339 0 518 -167t179 -468q0 -65 -9.5 -136t-34 -154.5t-61.5 -160.5t-97 -150t-135 -126.5t-181.5 -86t-231.5 -32.5q-337 0 -515.5 167t-180.5 468zM444 621q0 -349 322 -349 q86 0 156 37t114.5 94.5t75 131t43 143t12.5 133.5q0 348 -321 348q-86 0 -156.5 -37t-115 -94.5t-75 -130.5t-43 -142.5t-12.5 -133.5zM571 1516l269 286h317l168 -286h-213l-123 143l-174 -143h-244z" />
<glyph unicode="&#xd5;" horiz-adv-x="1576" d="M82 610q0 65 9.5 136t34 154.5t61.5 160.5t97 150t135 126.5t181.5 86t230.5 32.5q339 0 518 -167t179 -468q0 -65 -9.5 -136t-34 -154.5t-61.5 -160.5t-97 -150t-135 -126.5t-181.5 -86t-231.5 -32.5q-337 0 -515.5 167t-180.5 468zM444 621q0 -349 322 -349 q86 0 156 37t114.5 94.5t75 131t43 143t12.5 133.5q0 348 -321 348q-86 0 -156.5 -37t-115 -94.5t-75 -130.5t-43 -142.5t-12.5 -133.5zM578 1612q31 45 45.5 65.5t43 53.5t51 47.5t54.5 26.5t68 12q37 0 78 -15.5t70.5 -34t62 -34t55.5 -15.5q52 0 125 99l135 -91 q-30 -44 -45.5 -66t-43.5 -54t-50.5 -47t-54.5 -27t-68 -12q-47 0 -99 24.5t-95.5 49t-71.5 24.5q-53 0 -125 -96z" />
<glyph unicode="&#xd6;" horiz-adv-x="1576" d="M82 610q0 65 9.5 136t34 154.5t61.5 160.5t97 150t135 126.5t181.5 86t230.5 32.5q339 0 518 -167t179 -468q0 -65 -9.5 -136t-34 -154.5t-61.5 -160.5t-97 -150t-135 -126.5t-181.5 -86t-231.5 -32.5q-337 0 -515.5 167t-180.5 468zM444 621q0 -349 322 -349 q86 0 156 37t114.5 94.5t75 131t43 143t12.5 133.5q0 348 -321 348q-86 0 -156.5 -37t-115 -94.5t-75 -130.5t-43 -142.5t-12.5 -133.5zM618 1536l48 262h270l-47 -262h-271zM1012 1536l47 262h270l-47 -262h-270z" />
<glyph unicode="&#xd7;" horiz-adv-x="1288" d="M135 442l324 258l-223 250l202 170l228 -254l329 264l168 -194l-325 -260l225 -250l-203 -170l-229 254l-328 -262z" />
<glyph unicode="&#xd8;" horiz-adv-x="1572" d="M-4 0l201 211q-117 153 -117 399q0 65 9.5 136t34 154.5t61.5 160.5t97 150t135 126.5t181.5 86t230.5 32.5q273 0 449 -115l88 93h244l-203 -211q119 -159 119 -402q0 -65 -9.5 -136t-34 -154.5t-61.5 -160.5t-97 -150t-135 -126.5t-181.5 -86t-231.5 -32.5 q-279 0 -450 115l-86 -90h-244zM442 621q0 -77 15 -138l592 619q-75 57 -205 57q-86 0 -156.5 -37t-115 -94.5t-75 -130.5t-43 -142.5t-12.5 -133.5zM555 330q77 -58 209 -58q86 0 156 37t114.5 94.5t75 131t43 143t12.5 133.5q0 73 -16 139z" />
<glyph unicode="&#xd9;" horiz-adv-x="1474" d="M107.5 488.5q4.5 70.5 19.5 154.5l139 791h350l-153 -869q-14 -61 -10 -113.5t23 -91.5t68 -61.5t126 -22.5q79 0 136.5 21.5t93 63t55.5 90t32 114.5l154 869h350l-158 -883q-18 -101 -45.5 -181t-79 -156t-122 -126.5t-178 -80.5t-244.5 -30q-113 0 -201.5 17.5 t-150.5 49t-104.5 78.5t-65.5 102t-31 124.5t-3.5 140zM549 1802h354l209 -286h-260z" />
<glyph unicode="&#xda;" horiz-adv-x="1474" d="M107.5 488.5q4.5 70.5 19.5 154.5l139 791h350l-153 -869q-14 -61 -10 -113.5t23 -91.5t68 -61.5t126 -22.5q79 0 136.5 21.5t93 63t55.5 90t32 114.5l154 869h350l-158 -883q-18 -101 -45.5 -181t-79 -156t-122 -126.5t-178 -80.5t-244.5 -30q-113 0 -201.5 17.5 t-150.5 49t-104.5 78.5t-65.5 102t-31 124.5t-3.5 140zM664 1516l301 286h391l-402 -286h-290z" />
<glyph unicode="&#xdb;" horiz-adv-x="1474" d="M107.5 488.5q4.5 70.5 19.5 154.5l139 791h350l-153 -869q-14 -61 -10 -113.5t23 -91.5t68 -61.5t126 -22.5q79 0 136.5 21.5t93 63t55.5 90t32 114.5l154 869h350l-158 -883q-18 -101 -45.5 -181t-79 -156t-122 -126.5t-178 -80.5t-244.5 -30q-113 0 -201.5 17.5 t-150.5 49t-104.5 78.5t-65.5 102t-31 124.5t-3.5 140zM518 1516l268 286h318l168 -286h-213l-123 143l-174 -143h-244z" />
<glyph unicode="&#xdc;" horiz-adv-x="1474" d="M107.5 488.5q4.5 70.5 19.5 154.5l139 791h350l-153 -869q-14 -61 -10 -113.5t23 -91.5t68 -61.5t126 -22.5q79 0 136.5 21.5t93 63t55.5 90t32 114.5l154 869h350l-158 -883q-18 -101 -45.5 -181t-79 -156t-122 -126.5t-178 -80.5t-244.5 -30q-113 0 -201.5 17.5 t-150.5 49t-104.5 78.5t-65.5 102t-31 124.5t-3.5 140zM565 1536l47 262h271l-47 -262h-271zM958 1536l48 262h270l-47 -262h-271z" />
<glyph unicode="&#xdd;" horiz-adv-x="1359" d="M137 1434h371l194 -572l396 572h407l-661 -867l-99 -567h-350l101 567zM606 1516l301 286h391l-401 -286h-291z" />
<glyph unicode="&#xde;" horiz-adv-x="1396" d="M23 0l253 1434h351l-39 -222h200q286 0 431 -106.5t145 -314.5q0 -72 -19.5 -143t-65 -140t-111.5 -121.5t-167 -84.5t-223 -32h-356l-49 -270h-350zM473 555h244q137 0 212 60.5t75 164.5q0 142 -220 142h-247z" />
<glyph unicode="&#xdf;" horiz-adv-x="1454" d="M4 0l168 946q18 101 48 181.5t81.5 151t121.5 117.5t171 74t227 27q113 0 205.5 -21t153.5 -56t103 -83t60.5 -99.5t18.5 -107.5q0 -44 -12 -85t-29.5 -67.5t-34.5 -46.5t-29 -29l-12 -9q-37 -8 -69.5 -18.5t-68 -27t-56.5 -40t-21 -51.5q0 -32 28 -56.5t87.5 -59.5 t97.5 -67q127 -109 127 -249q0 -148 -126.5 -247.5t-319.5 -99.5q-221 0 -453 134l152 219q57 -32 139 -58t147 -26q53 0 85 19t32 52q0 49 -86 95q-3 2 -26 13.5t-31.5 16t-31 18t-33 22t-30.5 25t-30 30.5t-24 34.5t-21 40.5t-12 46t-5 53q0 46 12 86t36 72t52.5 58.5 t68.5 50t77 41t84 36.5q10 23 10 49q0 59 -53 97t-162 38q-132 0 -209 -72t-108 -247l-164 -920h-336z" />
<glyph unicode="&#xe0;" horiz-adv-x="1296" d="M41 381q0 210 65.5 373t184.5 253.5t272 90.5q57 0 109 -12.5t96.5 -37.5t71.5 -44t63 -48l21 119h336l-191 -1075h-336l21 119q-194 -142 -379 -142q-66 0 -123 21.5t-105.5 67t-77 126.5t-28.5 189zM387 420q0 -83 34 -128.5t99 -45.5q72 0 139.5 37t141.5 102l57 324 q-98 118 -215 118q-79 0 -138.5 -58.5t-88.5 -149.5t-29 -199zM401 1493h355l209 -287h-260z" />
<glyph unicode="&#xe1;" horiz-adv-x="1296" d="M41 381q0 210 65.5 373t184.5 253.5t272 90.5q57 0 109 -12.5t96.5 -37.5t71.5 -44t63 -48l21 119h336l-191 -1075h-336l21 119q-194 -142 -379 -142q-66 0 -123 21.5t-105.5 67t-77 126.5t-28.5 189zM387 420q0 -83 34 -128.5t99 -45.5q72 0 139.5 37t141.5 102l57 324 q-98 118 -215 118q-79 0 -138.5 -58.5t-88.5 -149.5t-29 -199zM504 1206l301 287h391l-401 -287h-291z" />
<glyph unicode="&#xe2;" horiz-adv-x="1296" d="M41 381q0 210 65.5 373t184.5 253.5t272 90.5q57 0 109 -12.5t96.5 -37.5t71.5 -44t63 -48l21 119h336l-191 -1075h-336l21 119q-194 -142 -379 -142q-66 0 -123 21.5t-105.5 67t-77 126.5t-28.5 189zM371 1206l268 287h317l168 -287h-213l-123 144l-174 -144h-243z M387 420q0 -83 34 -128.5t99 -45.5q72 0 139.5 37t141.5 102l57 324q-98 118 -215 118q-79 0 -138.5 -58.5t-88.5 -149.5t-29 -199z" />
<glyph unicode="&#xe3;" horiz-adv-x="1296" d="M41 381q0 210 65.5 373t184.5 253.5t272 90.5q57 0 109 -12.5t96.5 -37.5t71.5 -44t63 -48l21 119h336l-191 -1075h-336l21 119q-194 -142 -379 -142q-66 0 -123 21.5t-105.5 67t-77 126.5t-28.5 189zM383 1303q30 44 45.5 65t43.5 53.5t50.5 47t54.5 26.5t68 12 q47 0 99 -24.5t95.5 -49t71.5 -24.5q53 0 125 98l135 -90q-30 -45 -45.5 -66.5t-43.5 -54t-50.5 -47.5t-54.5 -27t-68 -12q-47 0 -99 25t-95.5 49.5t-71.5 24.5q-52 0 -125 -97zM387 420q0 -83 34 -128.5t99 -45.5q72 0 139.5 37t141.5 102l57 324q-98 118 -215 118 q-79 0 -138.5 -58.5t-88.5 -149.5t-29 -199z" />
<glyph unicode="&#xe4;" horiz-adv-x="1296" d="M41 381q0 210 65.5 373t184.5 253.5t272 90.5q57 0 109 -12.5t96.5 -37.5t71.5 -44t63 -48l21 119h336l-191 -1075h-336l21 119q-194 -142 -379 -142q-66 0 -123 21.5t-105.5 67t-77 126.5t-28.5 189zM387 420q0 -83 34 -128.5t99 -45.5q72 0 139.5 37t141.5 102l57 324 q-98 118 -215 118q-79 0 -138.5 -58.5t-88.5 -149.5t-29 -199zM430 1227l47 262h271l-48 -262h-270zM823 1227l47 262h271l-47 -262h-271z" />
<glyph unicode="&#xe5;" horiz-adv-x="1296" d="M41 381q0 210 65.5 373t184.5 253.5t272 90.5q57 0 109 -12.5t96.5 -37.5t71.5 -44t63 -48l21 119h336l-191 -1075h-336l21 119q-194 -142 -379 -142q-66 0 -123 21.5t-105.5 67t-77 126.5t-28.5 189zM387 420q0 -83 34 -128.5t99 -45.5q72 0 139.5 37t141.5 102l57 324 q-98 118 -215 118q-79 0 -138.5 -58.5t-88.5 -149.5t-29 -199zM555 1419q0 98 69 167t167 69q97 0 165 -69t68 -167q0 -97 -68 -165t-165 -68q-98 0 -167 68t-69 165zM713 1419q0 -33 22.5 -55.5t55.5 -22.5q32 0 54.5 23t22.5 55q0 34 -22.5 57t-54.5 23q-34 0 -56 -23 t-22 -57z" />
<glyph unicode="&#xe6;" horiz-adv-x="1943" d="M41 381q0 210 65.5 373t184.5 253.5t272 90.5q57 0 109 -12.5t96.5 -37.5t71.5 -44t63 -48l21 119h336v-2q92 25 194 25q201 0 322.5 -86.5t121.5 -231.5q0 -86 -34 -149.5t-89.5 -101.5t-141.5 -60.5t-174.5 -30.5t-203.5 -8h-104v-8q0 -197 176 -197q131 0 395 121 l101 -231q-58 -27 -129.5 -53.5t-198 -55.5t-233.5 -29q-101 0 -193 29v-6h-336l21 119q-194 -142 -379 -142q-66 0 -123 21.5t-105.5 67t-77 126.5t-28.5 189zM387 420q0 -83 34 -128.5t99 -45.5q72 0 139.5 37t141.5 102l10 57q0 143 45 267q-98 118 -213 118 q-79 0 -138.5 -58.5t-88.5 -149.5t-29 -199zM1182 606h88q146 0 226.5 40t80.5 112q0 46 -36.5 74t-96.5 28q-94 0 -161 -72t-101 -182z" />
<glyph unicode="&#xe7;" horiz-adv-x="1097" d="M41 428q0 165 47.5 296.5t126.5 211t175.5 121t201.5 41.5q32 0 64.5 -3t59 -7t59 -13t52.5 -14t52.5 -18.5t46 -19t46 -21.5t40 -20t40.5 -21.5t35 -18.5l-151 -231q-5 3 -36 19t-45 23t-44 20.5t-50 20t-46.5 12t-48.5 5.5q-80 0 -145.5 -54t-99.5 -133.5t-34 -164.5 q0 -91 41.5 -143t126.5 -52q87 0 295 96l111 -258q-268 -110 -435 -122q37 -67 37 -140q0 -110 -75 -166.5t-189 -56.5q-116 0 -190 47l90 160q45 -23 96 -23q104 0 104 86q0 41 -26 101q-153 27 -242.5 138t-89.5 302z" />
<glyph unicode="&#xe8;" horiz-adv-x="1171" d="M39 440q0 141 43.5 261t124.5 208.5t203 138.5t272 50q201 0 322.5 -86.5t121.5 -231.5q0 -86 -34 -149.5t-89.5 -101.5t-141.5 -60.5t-174.5 -30.5t-203.5 -8h-104v-8q0 -197 176 -197q131 0 395 121l101 -231q-58 -27 -130 -53.5t-198.5 -55.5t-233.5 -29 q-212 0 -331 112.5t-119 350.5zM379 1493h354l209 -287h-260zM410 606h88q146 0 226.5 40t80.5 112q0 46 -36.5 74t-96.5 28q-94 0 -161 -72t-101 -182z" />
<glyph unicode="&#xe9;" horiz-adv-x="1171" d="M39 440q0 141 43.5 261t124.5 208.5t203 138.5t272 50q201 0 322.5 -86.5t121.5 -231.5q0 -86 -34 -149.5t-89.5 -101.5t-141.5 -60.5t-174.5 -30.5t-203.5 -8h-104v-8q0 -197 176 -197q131 0 395 121l101 -231q-58 -27 -130 -53.5t-198.5 -55.5t-233.5 -29 q-212 0 -331 112.5t-119 350.5zM410 606h88q146 0 226.5 40t80.5 112q0 46 -36.5 74t-96.5 28q-94 0 -161 -72t-101 -182zM496 1206l301 287h391l-402 -287h-290z" />
<glyph unicode="&#xea;" horiz-adv-x="1171" d="M39 440q0 141 43.5 261t124.5 208.5t203 138.5t272 50q201 0 322.5 -86.5t121.5 -231.5q0 -86 -34 -149.5t-89.5 -101.5t-141.5 -60.5t-174.5 -30.5t-203.5 -8h-104v-8q0 -197 176 -197q131 0 395 121l101 -231q-58 -27 -130 -53.5t-198.5 -55.5t-233.5 -29 q-212 0 -331 112.5t-119 350.5zM348 1206l268 287h318l168 -287h-213l-123 144l-174 -144h-244zM410 606h88q146 0 226.5 40t80.5 112q0 46 -36.5 74t-96.5 28q-94 0 -161 -72t-101 -182z" />
<glyph unicode="&#xeb;" horiz-adv-x="1171" d="M39 440q0 141 43.5 261t124.5 208.5t203 138.5t272 50q201 0 322.5 -86.5t121.5 -231.5q0 -86 -34 -149.5t-89.5 -101.5t-141.5 -60.5t-174.5 -30.5t-203.5 -8h-104v-8q0 -197 176 -197q131 0 395 121l101 -231q-58 -27 -130 -53.5t-198.5 -55.5t-233.5 -29 q-212 0 -331 112.5t-119 350.5zM397 1227l47 262h271l-47 -262h-271zM410 606h88q146 0 226.5 40t80.5 112q0 46 -36.5 74t-96.5 28q-94 0 -161 -72t-101 -182zM791 1227l47 262h270l-47 -262h-270z" />
<glyph unicode="&#xec;" horiz-adv-x="579" d="M0 0l190 1075h336l-190 -1075h-336zM35 1493h354l209 -287h-260z" />
<glyph unicode="&#xed;" horiz-adv-x="589" d="M0 0l190 1075h336l-190 -1075h-336zM152 1206l301 287h391l-402 -287h-290z" />
<glyph unicode="&#xee;" horiz-adv-x="587" d="M0 0l190 1075h336l-190 -1075h-336zM4 1206l268 287h318l168 -287h-213l-123 144l-174 -144h-244z" />
<glyph unicode="&#xef;" horiz-adv-x="585" d="M0 0l190 1075h336l-190 -1075h-336zM51 1227l47 262h271l-47 -262h-271zM444 1227l48 262h270l-47 -262h-271z" />
<glyph unicode="&#xf0;" horiz-adv-x="1316" d="M35 444q0 150 72.5 272.5t195.5 190.5t270 68q55 0 105 -10.5t85.5 -27t66 -37t50 -40.5t33 -36.5t19.5 -27.5l6 -10q-23 255 -221 342l-78 -77h-274l118 118q-40 -1 -83.5 -5t-67.5 -8l-23 -3l4 258q88 23 211 23q100 0 203 -23l82 82h272l-159 -160q158 -94 241.5 -263 t83.5 -384q0 -156 -46 -287t-131.5 -224.5t-213 -145.5t-283.5 -52q-251 0 -394.5 125t-143.5 342zM387 434q0 -88 49 -143t160 -55q74 0 131 25t89.5 66.5t48.5 89t16 99.5q0 91 -51 146t-160 55q-70 0 -125.5 -23.5t-89 -63.5t-51 -90t-17.5 -106z" />
<glyph unicode="&#xf1;" d="M0 0l190 1075h336l-20 -117q212 140 395 140q177 0 250 -103t41 -282l-127 -713h-336l119 678q15 76 -4.5 118t-87.5 42q-66 0 -149 -38t-146 -89l-125 -711h-336zM377 1303q30 44 45.5 65t43.5 53.5t50.5 47t54.5 26.5t68 12q47 0 99 -24.5t95.5 -49t71.5 -24.5 q53 0 125 98l135 -90q-30 -45 -45.5 -66.5t-43.5 -54t-50.5 -47.5t-54.5 -27t-68 -12q-47 0 -99 25t-95.5 49.5t-71.5 24.5q-52 0 -125 -97z" />
<glyph unicode="&#xf2;" horiz-adv-x="1275" d="M39 471q0 128 38.5 240.5t112 199.5t189 137t260.5 50q263 0 414 -130.5t151 -363.5q0 -128 -39 -240.5t-112.5 -199.5t-189.5 -137t-261 -50q-263 0 -413 129.5t-150 364.5zM377 467q0 -110 53.5 -170.5t163.5 -60.5q86 0 149 55.5t92 138t29 178.5q0 232 -217 232 q-86 0 -149 -56t-92 -138.5t-29 -178.5zM393 1493h355l208 -287h-260z" />
<glyph unicode="&#xf3;" horiz-adv-x="1275" d="M39 471q0 128 38.5 240.5t112 199.5t189 137t260.5 50q263 0 414 -130.5t151 -363.5q0 -128 -39 -240.5t-112.5 -199.5t-189.5 -137t-261 -50q-263 0 -413 129.5t-150 364.5zM377 467q0 -110 53.5 -170.5t163.5 -60.5q86 0 149 55.5t92 138t29 178.5q0 232 -217 232 q-86 0 -149 -56t-92 -138.5t-29 -178.5zM510 1206l301 287h391l-401 -287h-291z" />
<glyph unicode="&#xf4;" horiz-adv-x="1275" d="M39 471q0 128 38.5 240.5t112 199.5t189 137t260.5 50q263 0 414 -130.5t151 -363.5q0 -128 -39 -240.5t-112.5 -199.5t-189.5 -137t-261 -50q-263 0 -413 129.5t-150 364.5zM360 1206l269 287h317l168 -287h-213l-123 144l-174 -144h-244zM377 467q0 -110 53.5 -170.5 t163.5 -60.5q86 0 149 55.5t92 138t29 178.5q0 232 -217 232q-86 0 -149 -56t-92 -138.5t-29 -178.5z" />
<glyph unicode="&#xf5;" horiz-adv-x="1275" d="M39 471q0 128 38.5 240.5t112 199.5t189 137t260.5 50q263 0 414 -130.5t151 -363.5q0 -128 -39 -240.5t-112.5 -199.5t-189.5 -137t-261 -50q-263 0 -413 129.5t-150 364.5zM371 1303q30 44 45.5 65t43.5 53.5t50.5 47t54.5 26.5t68 12q47 0 99 -24.5t95.5 -49 t71.5 -24.5q53 0 125 98l135 -90q-30 -45 -45.5 -66.5t-43.5 -54t-50.5 -47.5t-54.5 -27t-68 -12q-47 0 -99 25t-95.5 49.5t-71.5 24.5q-52 0 -125 -97zM377 467q0 -110 53.5 -170.5t163.5 -60.5q86 0 149 55.5t92 138t29 178.5q0 232 -217 232q-86 0 -149 -56t-92 -138.5 t-29 -178.5z" />
<glyph unicode="&#xf6;" horiz-adv-x="1275" d="M39 471q0 128 38.5 240.5t112 199.5t189 137t260.5 50q263 0 414 -130.5t151 -363.5q0 -128 -39 -240.5t-112.5 -199.5t-189.5 -137t-261 -50q-263 0 -413 129.5t-150 364.5zM377 467q0 -110 53.5 -170.5t163.5 -60.5q86 0 149 55.5t92 138t29 178.5q0 232 -217 232 q-86 0 -149 -56t-92 -138.5t-29 -178.5zM412 1227l47 262h270l-47 -262h-270zM805 1227l47 262h270l-47 -262h-270z" />
<glyph unicode="&#xf7;" d="M106 557l46 252h1050l-45 -252h-1051zM424 299q0 66 47.5 114t114.5 48q66 0 114 -48t48 -114q0 -67 -48 -114.5t-114 -47.5q-68 0 -115 47.5t-47 114.5zM559 1069q0 66 47.5 114t114.5 48q66 0 114 -48t48 -114q0 -67 -48 -114.5t-114 -47.5q-67 0 -114.5 47.5 t-47.5 114.5z" />
<glyph unicode="&#xf8;" horiz-adv-x="1273" d="M-27 0l160 160q-98 124 -98 311q0 128 38.5 240.5t112 199.5t189 137t260.5 50q208 0 352 -86l64 63h196l-153 -153q106 -121 106 -318q0 -128 -39 -240.5t-112.5 -199.5t-189.5 -137t-261 -50q-214 0 -358 89l-66 -66h-201zM373 467q0 -28 4 -64l401 400q-49 37 -135 37 t-149 -56t-92 -138.5t-29 -178.5zM449 274q53 -38 141 -38q86 0 149 55.5t92 138t29 178.5q0 26 -8 72z" />
<glyph unicode="&#xf9;" d="M55 360l127 715h336l-121 -678q-13 -76 6 -117.5t86 -41.5q66 0 150 37.5t143 86.5l127 713h336l-190 -1075h-336l20 115q-213 -138 -395 -138q-177 0 -249 102t-40 281zM389 1493h354l209 -287h-260z" />
<glyph unicode="&#xfa;" d="M55 360l127 715h336l-121 -678q-13 -76 6 -117.5t86 -41.5q66 0 150 37.5t143 86.5l127 713h336l-190 -1075h-336l20 115q-213 -138 -395 -138q-177 0 -249 102t-40 281zM506 1206l301 287h391l-401 -287h-291z" />
<glyph unicode="&#xfb;" d="M55 360l127 715h336l-121 -678q-13 -76 6 -117.5t86 -41.5q66 0 150 37.5t143 86.5l127 713h336l-190 -1075h-336l20 115q-213 -138 -395 -138q-177 0 -249 102t-40 281zM358 1206l269 287h317l168 -287h-213l-123 144l-174 -144h-244z" />
<glyph unicode="&#xfc;" d="M55 360l127 715h336l-121 -678q-13 -76 6 -117.5t86 -41.5q66 0 150 37.5t143 86.5l127 713h336l-190 -1075h-336l20 115q-213 -138 -395 -138q-177 0 -249 102t-40 281zM410 1227l47 262h270l-47 -262h-270zM803 1227l47 262h270l-47 -262h-270z" />
<glyph unicode="&#xfd;" horiz-adv-x="1196" d="M-20 -211q14 5 45.5 15.5l43.5 14.5t37.5 13.5t36.5 14.5t31.5 14.5t31.5 16.5t27.5 18.5t28 23t25 26t26.5 31.5l-229 1098h348l105 -684l346 684h374l-598 -1075q-83 -146 -126 -202q-110 -142 -286 -212q-86 -35 -194 -57zM465 1206l301 287h391l-401 -287h-291z" />
<glyph unicode="&#xfe;" horiz-adv-x="1294" d="M-74 -418l338 1911h338l-94 -528q189 133 364 133q69 0 128 -21.5t109 -67t79 -127t29 -190.5q0 -209 -65 -371.5t-182 -253t-268 -90.5q-59 0 -111.5 12t-98.5 37.5t-69.5 41.5t-64.5 47l-94 -533h-338zM401 365q101 -117 220 -117q78 0 136 58t86.5 149t28.5 200 q0 83 -36 128.5t-107 45.5q-67 0 -130 -34.5t-138 -96.5z" />
<glyph unicode="&#xff;" horiz-adv-x="1196" d="M-20 -211q14 5 45.5 15.5l43.5 14.5t37.5 13.5t36.5 14.5t31.5 14.5t31.5 16.5t27.5 18.5t28 23t25 26t26.5 31.5l-229 1098h348l105 -684l346 684h374l-598 -1075q-83 -146 -126 -202q-110 -142 -286 -212q-86 -35 -194 -57zM367 1227l47 262h270l-47 -262h-270z M760 1227l47 262h270l-47 -262h-270z" />
<glyph unicode="&#x100;" horiz-adv-x="1454" d="M-98 0l782 1434h385l277 -1434h-371l-35 262h-510l-125 -262h-403zM561 535h344l-74 563zM582 1567l32 192h635l-32 -192h-635z" />
<glyph unicode="&#x101;" horiz-adv-x="1296" d="M41 381q0 210 65.5 373t184.5 253.5t272 90.5q57 0 109 -12.5t96.5 -37.5t71.5 -44t63 -48l21 119h336l-191 -1075h-336l21 119q-194 -142 -379 -142q-66 0 -123 21.5t-105.5 67t-77 126.5t-28.5 189zM387 420q0 -83 34 -128.5t99 -45.5q72 0 139.5 37t141.5 102l57 324 q-98 118 -215 118q-79 0 -138.5 -58.5t-88.5 -149.5t-29 -199zM436 1257l33 193h635l-33 -193h-635z" />
<glyph unicode="&#x102;" horiz-adv-x="1454" d="M-98 0l782 1434h385l277 -1434h-371l-35 262h-510l-125 -262h-403zM561 535h344l-74 563zM588 1778h203q-5 -40 23.5 -62t86.5 -22q74 0 122 22.5t54 61.5h207q-20 -124 -121 -193t-264 -69q-164 0 -246.5 72.5t-64.5 189.5z" />
<glyph unicode="&#x103;" horiz-adv-x="1296" d="M41 381q0 210 65.5 373t184.5 253.5t272 90.5q57 0 109 -12.5t96.5 -37.5t71.5 -44t63 -48l21 119h336l-191 -1075h-336l21 119q-194 -142 -379 -142q-66 0 -123 21.5t-105.5 67t-77 126.5t-28.5 189zM387 420q0 -83 34 -128.5t99 -45.5q72 0 139.5 37t141.5 102l57 324 q-98 118 -215 118q-79 0 -138.5 -58.5t-88.5 -149.5t-29 -199zM440 1468h203q-5 -40 24 -62t87 -22q74 0 122 22.5t54 61.5h207q-20 -124 -121 -193t-264 -69q-164 0 -247 72.5t-65 189.5z" />
<glyph unicode="&#x104;" horiz-adv-x="1454" d="M-98 0l782 1434h385l277 -1434h-7q-225 -112 -225 -203q0 -14 5 -24t16 -16t21 -9.5t26.5 -4.5t26 -1.5t27 0t21.5 0.5l-55 -148h-14q-18 1 -41.5 0t-51 3t-55 9t-53.5 18t-46 30t-32 45.5t-12 64.5q0 133 236 236h-158l-35 262h-510l-125 -262h-403zM561 535h344 l-74 563z" />
<glyph unicode="&#x105;" horiz-adv-x="1296" d="M41 381q0 210 65.5 373t184.5 253.5t272 90.5q57 0 109 -12.5t96.5 -37.5t71.5 -44t63 -48l21 119h336l-191 -1073v-2h-4q-225 -112 -225 -203q0 -14 5 -24t16 -16t21 -9.5t26.5 -4.5t26 -1.5t27 0t21.5 0.5l-55 -148h-14q-18 1 -41.5 0t-51 3t-55 9t-53.5 18t-46 30 t-32 45.5t-12 64.5q0 73 62 130t173 106h-125l21 119q-194 -142 -379 -142q-66 0 -123 21.5t-105.5 67t-77 126.5t-28.5 189zM387 420q0 -83 34 -128.5t99 -45.5q72 0 139.5 37t141.5 102l57 324q-98 118 -215 118q-79 0 -138.5 -58.5t-88.5 -149.5t-29 -199z" />
<glyph unicode="&#x106;" horiz-adv-x="1345" d="M84 553q0 210 54.5 382t150.5 285t226.5 174.5t281.5 61.5q74 0 148 -14.5t128.5 -32.5t125 -53t109 -57.5t107.5 -65.5l-186 -246q-128 78 -216.5 116t-174.5 38q-91 0 -166.5 -46.5t-124.5 -124t-76 -178t-27 -210.5q0 -291 209 -291q154 0 439 149l147 -276 q-180 -90 -343 -138.5t-327 -48.5q-225 0 -355 145t-130 431zM717 1516l301 286h391l-401 -286h-291z" />
<glyph unicode="&#x107;" horiz-adv-x="1081" d="M41 428q0 165 47.5 296.5t126.5 211t175.5 121t201.5 41.5q32 0 64.5 -3t59 -7t59 -13t52.5 -14t52.5 -18.5t46 -19t46 -21.5t40 -20t40.5 -21.5t35 -18.5l-151 -231q-5 3 -36 19t-45 23t-44 20.5t-50 20t-46.5 12t-48.5 5.5q-80 0 -145.5 -54t-99.5 -133.5t-34 -164.5 q0 -91 41.5 -143t126.5 -52q87 0 295 96l111 -258q-81 -34 -138 -55t-159.5 -45.5t-184.5 -24.5q-95 0 -174 27.5t-138.5 81.5t-92.5 141.5t-33 200.5zM457 1206l301 287h391l-401 -287h-291z" />
<glyph unicode="&#x10a;" horiz-adv-x="1343" d="M84 553q0 210 54.5 382t150.5 285t226.5 174.5t281.5 61.5q74 0 148 -14.5t128.5 -32.5t125 -53t109 -57.5t107.5 -65.5l-186 -246q-128 78 -216.5 116t-174.5 38q-91 0 -166.5 -46.5t-124.5 -124t-76 -178t-27 -210.5q0 -291 209 -291q154 0 439 149l147 -276 q-180 -90 -343 -138.5t-327 -48.5q-225 0 -355 145t-130 431zM743 1536l48 262h270l-47 -262h-271z" />
<glyph unicode="&#x10b;" horiz-adv-x="1083" d="M41 428q0 165 47.5 296.5t126.5 211t175.5 121t201.5 41.5q32 0 64.5 -3t59 -7t59 -13t52.5 -14t52.5 -18.5t46 -19t46 -21.5t40 -20t40.5 -21.5t35 -18.5l-151 -231q-5 3 -36 19t-45 23t-44 20.5t-50 20t-46.5 12t-48.5 5.5q-80 0 -145.5 -54t-99.5 -133.5t-34 -164.5 q0 -91 41.5 -143t126.5 -52q87 0 295 96l111 -258q-81 -34 -138 -55t-159.5 -45.5t-184.5 -24.5q-95 0 -174 27.5t-138.5 81.5t-92.5 141.5t-33 200.5zM553 1227l47 262h270l-47 -262h-270z" />
<glyph unicode="&#x10c;" horiz-adv-x="1343" d="M84 553q0 210 54.5 382t150.5 285t226.5 174.5t281.5 61.5q74 0 148 -14.5t128.5 -32.5t125 -53t109 -57.5t107.5 -65.5l-186 -246q-128 78 -216.5 116t-174.5 38q-91 0 -166.5 -46.5t-124.5 -124t-76 -178t-27 -210.5q0 -291 209 -291q154 0 439 149l147 -276 q-180 -90 -343 -138.5t-327 -48.5q-225 0 -355 145t-130 431zM559 1802h213l123 -145l174 145h244l-269 -286h-317z" />
<glyph unicode="&#x10d;" horiz-adv-x="1081" d="M41 428q0 165 47.5 296.5t126.5 211t175.5 121t201.5 41.5q32 0 64.5 -3t59 -7t59 -13t52.5 -14t52.5 -18.5t46 -19t46 -21.5t40 -20t40.5 -21.5t35 -18.5l-151 -231q-5 3 -36 19t-45 23t-44 20.5t-50 20t-46.5 12t-48.5 5.5q-80 0 -145.5 -54t-99.5 -133.5t-34 -164.5 q0 -91 41.5 -143t126.5 -52q87 0 295 96l111 -258q-81 -34 -138 -55t-159.5 -45.5t-184.5 -24.5q-95 0 -174 27.5t-138.5 81.5t-92.5 141.5t-33 200.5zM358 1493h213l123 -145l174 145h244l-268 -287h-318z" />
<glyph unicode="&#x10e;" horiz-adv-x="1495" d="M23 0l253 1434h469q184 0 320 -43.5t215 -123t116.5 -181t37.5 -228.5q0 -65 -9 -135t-33.5 -155.5t-62.5 -163.5t-101.5 -153t-144 -129.5t-196.5 -88t-254 -33.5h-610zM426 295h156q106 0 192 34t142 89t93.5 128.5t53.5 149.5t16 156q0 153 -93 220t-284 67h-129z M596 1802h213l123 -145l174 145h244l-269 -286h-317z" />
<glyph unicode="&#x10f;" horiz-adv-x="1447" d="M41 381q0 210 65.5 373t184.5 253.5t272 90.5q57 0 109 -12.5t96.5 -37.5t71.5 -44t63 -48l94 537h336l-264 -1493h-336l21 119q-194 -142 -379 -142q-66 0 -123 21.5t-105.5 67t-77 126.5t-28.5 189zM387 420q0 -83 34 -128.5t99 -45.5q72 0 139.5 37t141.5 102l57 324 q-98 118 -215 118q-79 0 -138.5 -58.5t-88.5 -149.5t-29 -199zM1354 1063l143 168h-108l47 262h243l-34 -291l-238 -219z" />
<glyph unicode="&#x110;" horiz-adv-x="1527" d="M16 584l45 268h148l104 582h469q184 0 320 -43.5t215 -123t116 -181t37 -228.5q0 -65 -9 -135t-33.5 -155.5t-62.5 -163.5t-101 -153t-143.5 -129.5t-196.5 -88t-254 -33.5h-611l103 584h-146zM463 295h155q106 0 192 34t142 89t94 128.5t54 149.5t16 156q0 153 -93 220 t-284 67h-129l-51 -287h285l-47 -268h-285z" />
<glyph unicode="&#x111;" horiz-adv-x="1302" d="M41 381q0 210 65.5 373t184.5 253.5t272 90.5q57 0 109 -12.5t96.5 -37.5t71.5 -44t63 -48l39 222h-344l31 192h346l22 123h336l-22 -123h119l-31 -192h-123l-207 -1178h-336l21 119q-194 -142 -379 -142q-66 0 -123 21.5t-105.5 67t-77 126.5t-28.5 189zM387 420 q0 -83 34 -128.5t99 -45.5q72 0 139.5 37t141.5 102l57 324q-98 118 -215 118q-79 0 -138.5 -58.5t-88.5 -149.5t-29 -199z" />
<glyph unicode="&#x112;" horiz-adv-x="1265" d="M23 0l253 1434h1035l-54 -295h-684l-49 -277h559l-51 -289h-557l-49 -278h692l-53 -295h-1042zM504 1567l33 192h634l-32 -192h-635z" />
<glyph unicode="&#x113;" horiz-adv-x="1171" d="M39 440q0 141 43.5 261t124.5 208.5t203 138.5t272 50q201 0 322.5 -86.5t121.5 -231.5q0 -86 -34 -149.5t-89.5 -101.5t-141.5 -60.5t-174.5 -30.5t-203.5 -8h-104v-8q0 -197 176 -197q131 0 395 121l101 -231q-58 -27 -130 -53.5t-198.5 -55.5t-233.5 -29 q-212 0 -331 112.5t-119 350.5zM410 606h88q146 0 226.5 40t80.5 112q0 46 -36.5 74t-96.5 28q-94 0 -161 -72t-101 -182zM414 1257l32 193h635l-32 -193h-635z" />
<glyph unicode="&#x116;" horiz-adv-x="1265" d="M23 0l253 1434h1035l-54 -295h-684l-49 -277h559l-51 -289h-557l-49 -278h692l-53 -295h-1042zM682 1536l47 262h270l-47 -262h-270z" />
<glyph unicode="&#x117;" horiz-adv-x="1171" d="M39 440q0 141 43.5 261t124.5 208.5t203 138.5t272 50q201 0 322.5 -86.5t121.5 -231.5q0 -86 -34 -149.5t-89.5 -101.5t-141.5 -60.5t-174.5 -30.5t-203.5 -8h-104v-8q0 -197 176 -197q131 0 395 121l101 -231q-58 -27 -130 -53.5t-198.5 -55.5t-233.5 -29 q-212 0 -331 112.5t-119 350.5zM410 606h88q146 0 226.5 40t80.5 112q0 46 -36.5 74t-96.5 28q-94 0 -161 -72t-101 -182zM590 1227l47 262h270l-47 -262h-270z" />
<glyph unicode="&#x118;" horiz-adv-x="1265" d="M23 0l253 1434h1035l-54 -295h-684l-49 -277h559l-51 -289h-557l-49 -278h692l-53 -295h-4q-230 -114 -230 -203q0 -14 5 -24t16 -16t21 -9.5t27 -4.5t26.5 -1.5t27 0t21.5 0.5l-55 -148h-14q-18 1 -41.5 0t-51 3t-55.5 9t-54 18t-46 30t-32 45.5t-12 64.5q0 133 236 236 h-827z" />
<glyph unicode="&#x119;" horiz-adv-x="1171" d="M39 440q0 141 43.5 261t124.5 208.5t203 138.5t272 50q201 0 322.5 -86.5t121.5 -231.5q0 -86 -34 -149.5t-89.5 -101.5t-141.5 -60.5t-174.5 -30.5t-203.5 -8h-104v-8q0 -197 176 -197q131 0 395 121l101 -231q-168 -80 -363 -117q-221 -108 -221 -201q0 -14 5 -24 t16 -16t21 -9.5t26.5 -4.5t26 -1.5t27 0t21.5 0.5l-55 -148h-14q-18 1 -41.5 0t-51 3t-55 9t-53.5 18t-46 30t-32 45.5t-12 64.5q0 124 190 216q-191 11 -296 123.5t-105 336.5zM410 606h88q146 0 226.5 40t80.5 112q0 46 -36.5 74t-96.5 28q-94 0 -161 -72t-101 -182z" />
<glyph unicode="&#x11a;" horiz-adv-x="1265" d="M23 0l253 1434h1035l-54 -295h-684l-49 -277h559l-51 -289h-557l-49 -278h692l-53 -295h-1042zM487 1802h213l123 -145l174 145h244l-268 -286h-318z" />
<glyph unicode="&#x11b;" horiz-adv-x="1171" d="M39 440q0 141 43.5 261t124.5 208.5t203 138.5t272 50q201 0 322.5 -86.5t121.5 -231.5q0 -86 -34 -149.5t-89.5 -101.5t-141.5 -60.5t-174.5 -30.5t-203.5 -8h-104v-8q0 -197 176 -197q131 0 395 121l101 -231q-58 -27 -130 -53.5t-198.5 -55.5t-233.5 -29 q-212 0 -331 112.5t-119 350.5zM399 1493h213l123 -145l174 145h244l-268 -287h-318zM410 606h88q146 0 226.5 40t80.5 112q0 46 -36.5 74t-96.5 28q-94 0 -161 -72t-101 -182z" />
<glyph unicode="&#x11e;" horiz-adv-x="1458" d="M86 547q0 216 56 390t153.5 286.5t228 172.5t281.5 60q94 0 183.5 -18.5t177 -57t144 -69t142.5 -82.5l-188 -248q-65 39 -104.5 60.5t-98 48t-111.5 39t-106 12.5q-122 0 -214 -79.5t-138 -205t-46 -274.5q0 -308 220 -308q139 0 342 158l22 127h-321l49 275h641 l-148 -834h-319l24 137q-200 -160 -399 -160q-211 0 -341 146.5t-130 423.5zM582 1778h202q-5 -40 24 -62t87 -22q74 0 122 22.5t54 61.5h207q-20 -124 -121 -193t-264 -69q-164 0 -246.5 72.5t-64.5 189.5z" />
<glyph unicode="&#x11f;" horiz-adv-x="1296" d="M-53 -350l104 258q258 -82 436 -82q82 0 134.5 24t74.5 59.5t31 88.5l21 119q-191 -140 -375 -140q-66 0 -122.5 21.5t-105 67t-76.5 126.5t-28 189q0 318 144.5 517.5t375.5 199.5q75 0 144.5 -24t108 -49.5t83.5 -63.5l21 114h335l-186 -1061q-23 -134 -67 -222.5 t-113.5 -139t-156 -70.5t-208.5 -20q-271 0 -575 88zM385 420q0 -82 34.5 -128t98.5 -46q71 0 137.5 36.5t139.5 100.5l59 330q-103 114 -213 114q-78 0 -137.5 -58.5t-89 -150t-29.5 -198.5zM449 1468h202q-5 -40 24 -62t87 -22q74 0 122 22.5t54 61.5h207 q-20 -124 -121 -193t-264 -69q-164 0 -246.5 72.5t-64.5 189.5z" />
<glyph unicode="&#x120;" horiz-adv-x="1458" d="M86 547q0 216 56 390t153.5 286.5t228 172.5t281.5 60q94 0 183.5 -18.5t177 -57t144 -69t142.5 -82.5l-188 -248q-65 39 -104.5 60.5t-98 48t-111.5 39t-106 12.5q-122 0 -214 -79.5t-138 -205t-46 -274.5q0 -308 220 -308q139 0 342 158l22 127h-321l49 275h641 l-148 -834h-319l24 137q-200 -160 -399 -160q-211 0 -341 146.5t-130 423.5zM750 1536l47 262h270l-47 -262h-270z" />
<glyph unicode="&#x121;" horiz-adv-x="1296" d="M-53 -350l104 258q258 -82 436 -82q82 0 134.5 24t74.5 59.5t31 88.5l21 119q-191 -140 -375 -140q-66 0 -122.5 21.5t-105 67t-76.5 126.5t-28 189q0 318 144.5 517.5t375.5 199.5q75 0 144.5 -24t108 -49.5t83.5 -63.5l21 114h335l-186 -1061q-23 -134 -67 -222.5 t-113.5 -139t-156 -70.5t-208.5 -20q-271 0 -575 88zM385 420q0 -82 34.5 -128t98.5 -46q71 0 137.5 36.5t139.5 100.5l59 330q-103 114 -213 114q-78 0 -137.5 -58.5t-89 -150t-29.5 -198.5zM614 1227l48 262h270l-47 -262h-271z" />
<glyph unicode="&#x122;" horiz-adv-x="1458" d="M86 547q0 216 56 390t153.5 286.5t228 172.5t281.5 60q94 0 183.5 -18.5t177 -57t144 -69t142.5 -82.5l-188 -248q-65 39 -104.5 60.5t-98 48t-111.5 39t-106 12.5q-122 0 -214 -79.5t-138 -205t-46 -274.5q0 -308 220 -308q139 0 342 158l22 127h-321l49 275h641 l-148 -834h-319l24 137q-200 -160 -399 -160q-211 0 -341 146.5t-130 423.5zM424 -543l143 168h-108l47 262h244l-35 -290l-238 -220z" />
<glyph unicode="&#x123;" horiz-adv-x="1296" d="M-53 -350l104 258q258 -82 436 -82q82 0 134.5 24t74.5 59.5t31 88.5l21 119q-191 -140 -375 -140q-66 0 -122.5 21.5t-105 67t-76.5 126.5t-28 189q0 318 144.5 517.5t375.5 199.5q75 0 144.5 -24t108 -49.5t83.5 -63.5l21 114h335l-186 -1061q-23 -134 -67 -222.5 t-113.5 -139t-156 -70.5t-208.5 -20q-271 0 -575 88zM385 420q0 -82 34.5 -128t98.5 -46q71 0 137.5 36.5t139.5 100.5l59 330q-103 114 -213 114q-78 0 -137.5 -58.5t-89 -150t-29.5 -198.5zM647 1227l35 291l238 219l53 -80l-144 -168h109l-47 -262h-244z" />
<glyph unicode="&#x126;" horiz-adv-x="1548" d="M45 0l186 1053h-149l33 192h149l35 189h350l-35 -189h519l34 189h349l-35 -189h155l-34 -192h-154l-186 -1053h-349l107 608h-518l-107 -608h-350zM553 897h518l27 156h-518z" />
<glyph unicode="&#x127;" d="M0 0l207 1178h-119l35 192h119l22 123h336l-22 -123h346l-35 -192h-344l-39 -220q212 140 395 140q177 0 250 -103t41 -282l-127 -713h-338l121 678q15 76 -4.5 118t-87.5 42q-66 0 -149 -38t-146 -89l-125 -711h-336z" />
<glyph unicode="&#x128;" horiz-adv-x="657" d="M23 0l253 1434h351l-254 -1434h-350zM100 1612q31 45 45.5 65.5t43 53.5t51 47.5t54.5 26.5t68 12q37 0 78.5 -15.5t70.5 -34t62 -34t56 -15.5q52 0 125 99l135 -91q-30 -44 -45.5 -66t-43.5 -54t-50.5 -47t-54.5 -27t-68 -12q-47 0 -99 24.5t-96 49t-72 24.5 q-52 0 -124 -96z" />
<glyph unicode="&#x129;" horiz-adv-x="587" d="M0 0l190 1075h336l-190 -1075h-336zM16 1303q30 43 45.5 65t43.5 53.5t51 46.5t55 27t68 12q47 0 99 -24.5t95.5 -49t71.5 -24.5q53 0 125 98l135 -90q-30 -45 -45.5 -66.5t-43.5 -54t-50.5 -47.5t-54.5 -27t-68 -12q-47 0 -99 25t-96 49.5t-72 24.5q-51 0 -124 -97z" />
<glyph unicode="&#x12a;" horiz-adv-x="653" d="M23 0l253 1434h351l-254 -1434h-350zM158 1567l32 192h635l-32 -192h-635z" />
<glyph unicode="&#x12b;" horiz-adv-x="585" d="M4 0l191 1075h335l-190 -1075h-336zM74 1257l32 193h635l-32 -193h-635z" />
<glyph unicode="&#x12c;" horiz-adv-x="655" d="M23 0l253 1434h351l-254 -1434h-350zM164 1778h203q-5 -40 23.5 -62t86.5 -22q74 0 122 22.5t54 61.5h207q-20 -124 -121 -193t-264 -69q-164 0 -246.5 72.5t-64.5 189.5z" />
<glyph unicode="&#x12d;" horiz-adv-x="587" d="M0 0l190 1075h336l-190 -1075h-336zM78 1468h203q-5 -40 23.5 -62t86.5 -22q74 0 122 22.5t54 61.5h207q-20 -124 -121 -193t-264 -69q-164 0 -246.5 72.5t-64.5 189.5z" />
<glyph unicode="&#x12e;" horiz-adv-x="647" d="M-57 -236q0 73 62 130t173 106h-137l254 1434h350l-254 -1434h-6q-225 -112 -225 -203q0 -14 5 -24t16 -16t21 -9.5t26.5 -4.5t26 -1.5t27 0t21.5 0.5l-55 -148h-14q-18 1 -41.5 0t-51 3t-55 9t-53.5 18t-46 30t-32 45.5t-12 64.5z" />
<glyph unicode="&#x12f;" horiz-adv-x="583" d="M-92 -236q0 73 62 130t173 106h-123l191 1075h336l-191 -1075h-6q-225 -112 -225 -203q0 -14 5 -24t16 -16t21 -9.5t26.5 -4.5t26 -1.5t27 0t21.5 0.5l-55 -148h-14q-18 1 -41.5 0t-51 3t-55 9t-53.5 18t-46 30t-32 45.5t-12 64.5zM229 1212l47 275h351l-49 -275h-349z " />
<glyph unicode="&#x130;" horiz-adv-x="647" d="M23 0l253 1434h351l-254 -1434h-350zM334 1536l47 262h270l-47 -262h-270z" />
<glyph unicode="&#x131;" horiz-adv-x="581" d="M0 0l190 1075h336l-190 -1075h-336z" />
<glyph unicode="&#x132;" horiz-adv-x="1298" d="M23 0l253 1434h351l-254 -1434h-350zM412 -109q61 18 101.5 32t71.5 31t48 30.5t29 37t17.5 44t12.5 57.5l234 1311h350l-229 -1293q-29 -166 -53 -227q-42 -109 -146 -172q-114 -69 -359 -121z" />
<glyph unicode="&#x133;" horiz-adv-x="1167" d="M0 0l190 1075h336l-190 -1075h-336zM209 1212l47 275h350l-49 -275h-348zM299 -217q65 20 106.5 35t73.5 32.5t48.5 30.5t29 37t17.5 44t12 58l186 1055h338l-182 -1026q-30 -167 -56 -230q-44 -108 -150 -171q-114 -68 -351 -119zM791 1212l49 275h348l-49 -275h-348z " />
<glyph unicode="&#x134;" horiz-adv-x="663" d="M-213 -109q92 27 141.5 47t79.5 48t40 55.5t20 81.5l233 1311h350l-229 -1293q-29 -166 -52 -226q-43 -109 -146 -172q-113 -70 -359 -122zM115 1516l268 286h317l168 -286h-213l-123 143l-174 -143h-243z" />
<glyph unicode="&#x135;" horiz-adv-x="595" d="M-256 -217q65 20 106.5 35t73.5 32.5t48 30.5t28.5 37t17 44t11.5 58l188 1055h338l-184 -1026q-29 -167 -55 -230q-43 -109 -150 -172q-113 -67 -350 -118zM31 1206l268 287h317l168 -287h-213l-122 144l-175 -144h-243z" />
<glyph unicode="&#x136;" horiz-adv-x="1441" d="M23 0l253 1434h351l-105 -590l576 590h463l-697 -666l467 -768h-385l-317 543l-193 -187l-63 -356h-350zM375 -543l143 168h-108l47 262h243l-34 -290l-238 -220z" />
<glyph unicode="&#x137;" horiz-adv-x="1198" d="M0 0l264 1493h336l-141 -793l344 375h418l-451 -438l320 -637h-340l-203 418l-166 -160l-45 -258h-336zM268 -543l144 168h-109l47 262h244l-35 -290l-237 -220z" />
<glyph unicode="&#x138;" horiz-adv-x="1198" d="M0 0l190 1075h336l-67 -375l344 375h418l-451 -438l320 -637h-340l-203 418l-166 -160l-45 -258h-336z" />
<glyph unicode="&#x139;" horiz-adv-x="1173" d="M23 0l253 1434h351l-203 -1145h659l-51 -289h-1009zM238 1516l301 286h391l-402 -286h-290z" />
<glyph unicode="&#x13a;" horiz-adv-x="600" d="M2 0l264 1493h338l-264 -1493h-338zM217 1575l301 287h391l-401 -287h-291z" />
<glyph unicode="&#x13b;" horiz-adv-x="1173" d="M23 0l253 1434h351l-203 -1145h659l-51 -289h-1009zM299 -543l143 168h-108l47 262h244l-35 -290l-238 -220z" />
<glyph unicode="&#x13c;" horiz-adv-x="587" d="M-76 -543l144 168h-109l47 262h244l-35 -290l-238 -220zM2 0l264 1493h338l-264 -1493h-338z" />
<glyph unicode="&#x13d;" horiz-adv-x="1173" d="M23 0l253 1434h351l-203 -1145h659l-51 -289h-1009zM647 1004l144 167h-109l47 263h244l-35 -291l-238 -219z" />
<glyph unicode="&#x13e;" horiz-adv-x="737" d="M2 0l264 1493h338l-264 -1493h-338zM625 1063l143 168h-109l48 262h243l-35 -291l-237 -219z" />
<glyph unicode="&#x13f;" horiz-adv-x="1175" d="M23 0l253 1434h351l-203 -1145h659l-51 -289h-1009zM778 625l47 262h271l-47 -262h-271z" />
<glyph unicode="&#x140;" horiz-adv-x="819" d="M2 0l264 1493h338l-264 -1493h-338zM545 625l47 262h270l-47 -262h-270z" />
<glyph unicode="&#x141;" horiz-adv-x="1202" d="M-12 385l49 305l151 78l119 666h350l-84 -469l293 149l-51 -307l-295 -152l-65 -366h659l-51 -289h-1010l82 459z" />
<glyph unicode="&#x142;" horiz-adv-x="661" d="M-4 428l51 305l135 70l123 690h338l-88 -498l131 68l-49 -307l-137 -70l-121 -686h-338l88 496z" />
<glyph unicode="&#x143;" horiz-adv-x="1529" d="M23 0l253 1434h355l381 -930l166 930h348l-254 -1434h-352l-383 930l-164 -930h-350zM698 1516l301 286h392l-402 -286h-291z" />
<glyph unicode="&#x144;" d="M0 0l190 1075h336l-20 -117q212 140 395 140q177 0 250 -103t41 -282l-127 -713h-336l119 678q15 76 -4.5 118t-87.5 42q-66 0 -149 -38t-146 -89l-125 -711h-336zM516 1206l301 287h391l-401 -287h-291z" />
<glyph unicode="&#x145;" horiz-adv-x="1529" d="M23 0l253 1434h355l381 -930l166 930h348l-254 -1434h-352l-383 930l-164 -930h-350zM444 -543l144 168h-109l47 262h244l-35 -290l-237 -220z" />
<glyph unicode="&#x146;" d="M0 0l190 1075h336l-20 -117q212 140 395 140q177 0 250 -103t41 -282l-127 -713h-336l119 678q15 76 -4.5 118t-87.5 42q-66 0 -149 -38t-146 -89l-125 -711h-336zM313 -543l144 168h-109l47 262h244l-35 -290l-237 -220z" />
<glyph unicode="&#x147;" horiz-adv-x="1529" d="M23 0l253 1434h355l381 -930l166 930h348l-254 -1434h-352l-383 930l-164 -930h-350zM600 1802h213l123 -145l174 145h244l-269 -286h-317z" />
<glyph unicode="&#x148;" d="M0 0l190 1075h336l-20 -117q212 140 395 140q177 0 250 -103t41 -282l-127 -713h-336l119 678q15 76 -4.5 118t-87.5 42q-66 0 -149 -38t-146 -89l-125 -711h-336zM416 1493h213l123 -145l174 145h243l-268 -287h-317z" />
<glyph unicode="&#x149;" d="M0 0l190 1075h336l-20 -117q212 140 395 140q177 0 250 -103t41 -282l-127 -713h-336l119 678q15 76 -4.5 118t-87.5 42q-66 0 -149 -38t-146 -89l-125 -711h-336zM213 1223l143 168h-108l47 262h244l-35 -291l-238 -219z" />
<glyph unicode="&#x14a;" horiz-adv-x="1529" d="M23 0l253 1434h355l381 -930l166 930h348l-238 -1348q-11 -55 -19 -90t-23 -76.5t-33 -68t-46.5 -57t-66 -51.5t-89.5 -43.5t-119 -41.5t-153 -37l-80 270q122 35 175 61.5t77 67.5l-374 910l-164 -930h-350z" />
<glyph unicode="&#x14b;" d="M0 0l190 1075h336l-20 -117q212 140 395 140q177 0 250 -103t41 -282l-119 -664q-11 -68 -18 -102.5t-21.5 -86t-31 -77.5t-45 -63t-66 -58.5t-91 -47.5t-123 -45.5t-159.5 -39.5l-74 254q65 20 106.5 35t74 32.5t49.5 31t29.5 37t17.5 43.5t12 58l115 658 q15 76 -4.5 118t-87.5 42q-66 0 -149 -38t-146 -89l-125 -711h-336z" />
<glyph unicode="&#x14c;" horiz-adv-x="1576" d="M82 610q0 65 9.5 136t34 154.5t61.5 160.5t97 150t135 126.5t181.5 86t230.5 32.5q339 0 518 -167t179 -468q0 -65 -9.5 -136t-34 -154.5t-61.5 -160.5t-97 -150t-135 -126.5t-181.5 -86t-231.5 -32.5q-337 0 -515.5 167t-180.5 468zM444 621q0 -349 322 -349 q86 0 156 37t114.5 94.5t75 131t43 143t12.5 133.5q0 348 -321 348q-86 0 -156.5 -37t-115 -94.5t-75 -130.5t-43 -142.5t-12.5 -133.5zM637 1567l33 192h635l-33 -192h-635z" />
<glyph unicode="&#x14d;" horiz-adv-x="1275" d="M39 471q0 128 38.5 240.5t112 199.5t189 137t260.5 50q263 0 414 -130.5t151 -363.5q0 -128 -39 -240.5t-112.5 -199.5t-189.5 -137t-261 -50q-263 0 -413 129.5t-150 364.5zM377 467q0 -110 53.5 -170.5t163.5 -60.5q86 0 149 55.5t92 138t29 178.5q0 232 -217 232 q-86 0 -149 -56t-92 -138.5t-29 -178.5zM428 1257l33 193h635l-33 -193h-635z" />
<glyph unicode="&#x14e;" horiz-adv-x="1576" d="M82 610q0 65 9.5 136t34 154.5t61.5 160.5t97 150t135 126.5t181.5 86t230.5 32.5q339 0 518 -167t179 -468q0 -65 -9.5 -136t-34 -154.5t-61.5 -160.5t-97 -150t-135 -126.5t-181.5 -86t-231.5 -32.5q-337 0 -515.5 167t-180.5 468zM444 621q0 -349 322 -349 q86 0 156 37t114.5 94.5t75 131t43 143t12.5 133.5q0 348 -321 348q-86 0 -156.5 -37t-115 -94.5t-75 -130.5t-43 -142.5t-12.5 -133.5zM645 1778h203q-5 -40 23.5 -62t86.5 -22q75 0 123 22.5t54 61.5h206q-20 -124 -121 -193t-264 -69q-164 0 -246.5 72.5t-64.5 189.5z " />
<glyph unicode="&#x14f;" horiz-adv-x="1275" d="M39 471q0 128 38.5 240.5t112 199.5t189 137t260.5 50q263 0 414 -130.5t151 -363.5q0 -128 -39 -240.5t-112.5 -199.5t-189.5 -137t-261 -50q-263 0 -413 129.5t-150 364.5zM377 467q0 -110 53.5 -170.5t163.5 -60.5q86 0 149 55.5t92 138t29 178.5q0 232 -217 232 q-86 0 -149 -56t-92 -138.5t-29 -178.5zM438 1468h203q-5 -40 24 -62t87 -22q74 0 122 22.5t54 61.5h207q-20 -124 -121 -193t-264 -69q-164 0 -247 72.5t-65 189.5z" />
<glyph unicode="&#x150;" horiz-adv-x="1576" d="M82 610q0 65 9.5 136t34 154.5t61.5 160.5t97 150t135 126.5t181.5 86t230.5 32.5q339 0 518 -167t179 -468q0 -65 -9.5 -136t-34 -154.5t-61.5 -160.5t-97 -150t-135 -126.5t-181.5 -86t-231.5 -32.5q-337 0 -515.5 167t-180.5 468zM444 621q0 -349 322 -349 q86 0 156 37t114.5 94.5t75 131t43 143t12.5 133.5q0 348 -321 348q-86 0 -156.5 -37t-115 -94.5t-75 -130.5t-43 -142.5t-12.5 -133.5zM627 1516l211 286h301l-312 -286h-200zM1001 1516l213 286h299l-313 -286h-199z" />
<glyph unicode="&#x151;" horiz-adv-x="1277" d="M39 471q0 128 38.5 240.5t112 199.5t189 137t260.5 50q263 0 414 -130.5t151 -363.5q0 -128 -39 -240.5t-112.5 -199.5t-189.5 -137t-261 -50q-263 0 -413 129.5t-150 364.5zM377 467q0 -110 53.5 -170.5t163.5 -60.5q86 0 149 55.5t92 138t29 178.5q0 232 -217 232 q-86 0 -149 -56t-92 -138.5t-29 -178.5zM420 1206l211 287h301l-311 -287h-201zM795 1206l213 287h299l-314 -287h-198z" />
<glyph unicode="&#x152;" horiz-adv-x="2287" d="M82 610q0 65 9.5 136t34 154.5t61.5 160.5t97 150t135 126.5t181.5 86t230.5 32.5q281 0 455 -117l17 95h1034l-53 -295h-685l-49 -277h559l-51 -289h-557l-49 -278h692l-53 -295h-1042l4 20q-124 -45 -275 -45q-337 0 -515.5 167t-180.5 468zM444 621q0 -349 322 -349 q86 0 156 37t114.5 94.5t75 131t43 143t12.5 133.5q0 348 -321 348q-86 0 -156.5 -37t-115 -94.5t-75 -130.5t-43 -142.5t-12.5 -133.5z" />
<glyph unicode="&#x153;" horiz-adv-x="1986" d="M39 471q0 128 38.5 240.5t112 199.5t189 137t260.5 50q281 0 432 -148q171 148 430 148q201 0 323 -87t122 -231q0 -86 -34 -149.5t-89.5 -101.5t-141.5 -60.5t-174.5 -30.5t-203.5 -8h-105v-8q0 -197 176 -197q131 0 395 121l101 -231q-58 -27 -129.5 -53.5t-198 -55.5 t-233.5 -29q-222 0 -334 115q-153 -115 -373 -115q-263 0 -413 129.5t-150 364.5zM377 467q0 -110 53.5 -170.5t163.5 -60.5q86 0 149 55.5t92 138t29 178.5q0 232 -217 232q-86 0 -149 -56t-92 -138.5t-29 -178.5zM1229 606h88q146 0 226.5 40t80.5 112q0 46 -36.5 74 t-96.5 28q-94 0 -161 -72t-101 -182z" />
<glyph unicode="&#x154;" horiz-adv-x="1452" d="M23 0l253 1434h617q279 0 419 -101.5t140 -300.5q0 -76 -26 -151t-76.5 -143.5t-138 -119.5t-199.5 -69l256 -549h-363l-229 539h-205l-98 -539h-350zM518 811h291q134 0 208.5 55.5t74.5 157.5q0 77 -61 107t-169 30h-282zM684 1516l301 286h391l-401 -286h-291z" />
<glyph unicode="&#x155;" horiz-adv-x="890" d="M0 0l190 1075h336l-39 -223q14 24 33.5 50t59.5 63.5t86.5 64.5t115.5 44.5t144 12.5l-54 -315q-72 0 -136.5 -21t-110 -54t-83.5 -73t-62 -80.5t-41 -73.5t-24 -54l-7 -21l-72 -395h-336zM350 1206l301 287h391l-401 -287h-291z" />
<glyph unicode="&#x156;" horiz-adv-x="1452" d="M23 0l253 1434h617q279 0 419 -101.5t140 -300.5q0 -76 -26 -151t-76.5 -143.5t-138 -119.5t-199.5 -69l256 -549h-363l-229 539h-205l-98 -539h-350zM383 -543l143 168h-108l47 262h244l-35 -290l-238 -220zM518 811h291q134 0 208.5 55.5t74.5 157.5q0 77 -61 107 t-169 30h-282z" />
<glyph unicode="&#x157;" horiz-adv-x="886" d="M-47 -543l143 168h-108l47 262h244l-35 -290l-238 -220zM4 0l191 1075h335l-38 -223q14 24 33.5 50t59.5 63.5t86 64.5t115 44.5t144 12.5l-53 -315q-72 0 -136.5 -21t-110 -54t-84 -73t-62.5 -80.5t-41 -73.5t-24 -54l-7 -21l-72 -395h-336z" />
<glyph unicode="&#x158;" horiz-adv-x="1452" d="M23 0l253 1434h617q279 0 419 -101.5t140 -300.5q0 -76 -26 -151t-76.5 -143.5t-138 -119.5t-199.5 -69l256 -549h-363l-229 539h-205l-98 -539h-350zM518 811h291q134 0 208.5 55.5t74.5 157.5q0 77 -61 107t-169 30h-282zM588 1802h213l123 -145l174 145h243l-268 -286 h-317z" />
<glyph unicode="&#x159;" horiz-adv-x="888" d="M0 0l190 1075h336l-39 -223q14 24 33.5 50t59.5 63.5t86.5 64.5t115.5 44.5t144 12.5l-54 -315q-72 0 -136.5 -21t-110 -54t-83.5 -73t-62 -80.5t-41 -73.5t-24 -54l-7 -21l-72 -395h-336zM254 1493h213l123 -145l174 145h244l-269 -287h-317z" />
<glyph unicode="&#x15a;" horiz-adv-x="1318" d="M-25 201l185 237q118 -69 250 -120.5t237 -51.5q92 0 151.5 35.5t59.5 95.5q0 33 -21.5 58.5t-64.5 44.5t-88 33.5t-111.5 36.5t-115.5 44q-66 29 -115.5 61t-95 78.5t-70 110.5t-24.5 142q0 193 148.5 321.5t406.5 128.5q305 0 636 -192l-184 -232q-92 52 -216 93.5 t-214 41.5q-85 0 -143 -33t-58 -96q0 -31 18.5 -53.5t57.5 -39t81 -29.5t108.5 -35.5t121.5 -46.5q52 -22 92.5 -44.5t84.5 -58t73.5 -75t48.5 -96t19 -122.5q0 -199 -154.5 -330t-416.5 -131q-188 0 -369.5 66t-317.5 158zM588 1516l301 286h391l-401 -286h-291z" />
<glyph unicode="&#x15b;" horiz-adv-x="1099" d="M-37 147l152 220q96 -53 213.5 -93.5t203.5 -40.5q58 0 94 19.5t36 50.5q0 18 -12 31.5t-41 26t-51.5 20t-71.5 21t-74 20.5q-51 15 -89.5 30t-85.5 42.5t-77 60t-51 81.5t-21 109q0 153 121.5 253t333.5 100q139 0 280.5 -41t239.5 -96l-150 -216q-216 99 -356 99 q-60 0 -93.5 -19t-33.5 -49q0 -18 11 -31t38 -24.5t49.5 -18.5t69.5 -19.5t74 -20.5q55 -16 96.5 -32.5t89 -44.5t78.5 -61t51.5 -82.5t20.5 -109.5q0 -159 -129.5 -257t-350.5 -98q-160 0 -309.5 50t-255.5 120zM430 1206l301 287h391l-401 -287h-291z" />
<glyph unicode="&#x15c;" horiz-adv-x="1318" d="M-25 201l185 237q118 -69 250 -120.5t237 -51.5q92 0 151.5 35.5t59.5 95.5q0 33 -21.5 58.5t-64.5 44.5t-88 33.5t-111.5 36.5t-115.5 44q-66 29 -115.5 61t-95 78.5t-70 110.5t-24.5 142q0 193 148.5 321.5t406.5 128.5q305 0 636 -192l-184 -232q-92 52 -216 93.5 t-214 41.5q-85 0 -143 -33t-58 -96q0 -31 18.5 -53.5t57.5 -39t81 -29.5t108.5 -35.5t121.5 -46.5q52 -22 92.5 -44.5t84.5 -58t73.5 -75t48.5 -96t19 -122.5q0 -199 -154.5 -330t-416.5 -131q-188 0 -369.5 66t-317.5 158zM440 1516l269 286h317l168 -286h-213l-123 143 l-174 -143h-244z" />
<glyph unicode="&#x15d;" horiz-adv-x="1099" d="M-37 147l152 220q96 -53 213.5 -93.5t203.5 -40.5q58 0 94 19.5t36 50.5q0 18 -12 31.5t-41 26t-51.5 20t-71.5 21t-74 20.5q-51 15 -89.5 30t-85.5 42.5t-77 60t-51 81.5t-21 109q0 153 121.5 253t333.5 100q139 0 280.5 -41t239.5 -96l-150 -216q-216 99 -356 99 q-60 0 -93.5 -19t-33.5 -49q0 -18 11 -31t38 -24.5t49.5 -18.5t69.5 -19.5t74 -20.5q55 -16 96.5 -32.5t89 -44.5t78.5 -61t51.5 -82.5t20.5 -109.5q0 -159 -129.5 -257t-350.5 -98q-160 0 -309.5 50t-255.5 120zM287 1206l268 287h317l168 -287h-213l-122 144l-175 -144 h-243z" />
<glyph unicode="&#x15e;" horiz-adv-x="1318" d="M-25 201l185 237q118 -69 250 -120.5t237 -51.5q92 0 151.5 35.5t59.5 95.5q0 33 -21.5 58.5t-64.5 44.5t-88 33.5t-111.5 36.5t-115.5 44q-66 29 -115.5 61t-95 78.5t-70 110.5t-24.5 142q0 193 148.5 321.5t406.5 128.5q305 0 636 -192l-184 -232q-92 52 -216 93.5 t-214 41.5q-85 0 -143 -33t-58 -96q0 -31 18.5 -53.5t57.5 -39t81 -29.5t108.5 -35.5t121.5 -46.5q52 -22 92.5 -44.5t84.5 -58t73.5 -75t48.5 -96t19 -122.5q0 -192 -145.5 -322t-393.5 -139q37 -67 37 -137q0 -110 -75 -166.5t-189 -56.5q-117 0 -191 47l91 160 q45 -23 96 -23q104 0 104 86q0 44 -24 99q-159 19 -308 79t-260 136z" />
<glyph unicode="&#x15f;" horiz-adv-x="1099" d="M-37 147l152 220q96 -53 213.5 -93.5t203.5 -40.5q58 0 94 19.5t36 50.5q0 18 -12 31.5t-41 26t-51.5 20t-71.5 21t-74 20.5q-51 15 -89.5 30t-85.5 42.5t-77 60t-51 81.5t-21 109q0 153 121.5 253t333.5 100q139 0 280.5 -41t239.5 -96l-150 -216q-216 99 -356 99 q-60 0 -93.5 -19t-33.5 -49q0 -18 11 -31t38 -24.5t49.5 -18.5t69.5 -19.5t74 -20.5q55 -16 96.5 -32.5t89 -44.5t78.5 -61t51.5 -82.5t20.5 -109.5q0 -146 -108.5 -240.5t-297.5 -109.5q37 -77 37 -142q0 -110 -75 -166.5t-189 -56.5q-117 0 -191 47l90 160q45 -23 97 -23 q104 0 104 86q0 40 -24 95q-142 11 -270.5 58t-217.5 107z" />
<glyph unicode="&#x160;" horiz-adv-x="1318" d="M-25 201l185 237q118 -69 250 -120.5t237 -51.5q92 0 151.5 35.5t59.5 95.5q0 33 -21.5 58.5t-64.5 44.5t-88 33.5t-111.5 36.5t-115.5 44q-66 29 -115.5 61t-95 78.5t-70 110.5t-24.5 142q0 193 148.5 321.5t406.5 128.5q305 0 636 -192l-184 -232q-92 52 -216 93.5 t-214 41.5q-85 0 -143 -33t-58 -96q0 -31 18.5 -53.5t57.5 -39t81 -29.5t108.5 -35.5t121.5 -46.5q52 -22 92.5 -44.5t84.5 -58t73.5 -75t48.5 -96t19 -122.5q0 -199 -154.5 -330t-416.5 -131q-188 0 -369.5 66t-317.5 158zM492 1802h213l122 -145l174 145h244l-268 -286 h-318z" />
<glyph unicode="&#x161;" horiz-adv-x="1099" d="M-37 147l152 220q96 -53 213.5 -93.5t203.5 -40.5q58 0 94 19.5t36 50.5q0 18 -12 31.5t-41 26t-51.5 20t-71.5 21t-74 20.5q-51 15 -89.5 30t-85.5 42.5t-77 60t-51 81.5t-21 109q0 153 121.5 253t333.5 100q139 0 280.5 -41t239.5 -96l-150 -216q-216 99 -356 99 q-60 0 -93.5 -19t-33.5 -49q0 -18 11 -31t38 -24.5t49.5 -18.5t69.5 -19.5t74 -20.5q55 -16 96.5 -32.5t89 -44.5t78.5 -61t51.5 -82.5t20.5 -109.5q0 -159 -129.5 -257t-350.5 -98q-160 0 -309.5 50t-255.5 120zM334 1493h213l123 -145l174 145h243l-268 -287h-317z" />
<glyph unicode="&#x162;" horiz-adv-x="1218" d="M119 1139l53 295h1165l-53 -295h-407l-203 -1139h-103q8 -11 18 -29.5t21 -56.5t11 -74q0 -109 -75.5 -166t-189.5 -57q-116 0 -190 47l90 160q45 -23 96 -23q105 0 105 86q0 31 -12 65t-21 48h-98l200 1139h-407z" />
<glyph unicode="&#x163;" horiz-adv-x="878" d="M47 -336l90 160q45 -23 96 -23q105 0 105 86q0 36 -29 103q-113 29 -158 133.5t-14 275.5l76 430h-141l45 246h139l49 271l344 40l-55 -311h287l-43 -246h-289l-82 -460q-10 -58 8 -78.5t53 -20.5q52 0 166 41l82 -258q-164 -59 -311 -71q37 -77 37 -142 q0 -110 -75 -166.5t-189 -56.5q-117 0 -191 47z" />
<glyph unicode="&#x164;" horiz-adv-x="1218" d="M119 1139l53 295h1165l-53 -295h-407l-203 -1139h-348l200 1139h-407zM438 1802h213l123 -145l174 145h244l-268 -286h-318z" />
<glyph unicode="&#x165;" horiz-adv-x="884" d="M72 829l45 246h139l49 271l344 40l-55 -311h287l-43 -246h-289l-82 -460q-10 -58 8 -78.5t53 -20.5q52 0 166 41l82 -258q-210 -76 -368 -76q-165 0 -236.5 109.5t-34.5 312.5l76 430h-141zM717 1223l143 168h-108l47 262h243l-34 -291l-238 -219z" />
<glyph unicode="&#x166;" horiz-adv-x="1239" d="M127 1139l53 295h1166l-54 -295h-407l-94 -521h186l-33 -192h-186l-76 -426h-348l74 426h-183l33 192h184l93 521h-408z" />
<glyph unicode="&#x167;" horiz-adv-x="878" d="M55 504l35 194h96l25 131h-141l45 246h139l49 271l344 40l-55 -311h287l-43 -246h-289l-25 -131h230l-35 -194h-230l-22 -135q-10 -58 8 -78.5t53 -20.5q52 0 166 41l82 -258q-210 -76 -368 -76q-165 0 -236.5 109.5t-34.5 312.5l19 105h-99z" />
<glyph unicode="&#x168;" horiz-adv-x="1474" d="M107.5 488.5q4.5 70.5 19.5 154.5l139 791h350l-153 -869q-14 -61 -10 -113.5t23 -91.5t68 -61.5t126 -22.5q79 0 136.5 21.5t93 63t55.5 90t32 114.5l154 869h350l-158 -883q-18 -101 -45.5 -181t-79 -156t-122 -126.5t-178 -80.5t-244.5 -30q-113 0 -201.5 17.5 t-150.5 49t-104.5 78.5t-65.5 102t-31 124.5t-3.5 140zM524 1612q31 45 45.5 65.5t43 53.5t51 47.5t54.5 26.5t68 12q37 0 78.5 -15.5t70.5 -34t62 -34t56 -15.5q52 0 125 99l135 -91q-30 -44 -45.5 -66t-43.5 -54t-50.5 -47t-54.5 -27t-68 -12q-47 0 -99 24.5t-96 49 t-72 24.5q-53 0 -125 -96z" />
<glyph unicode="&#x169;" d="M55 360l127 715h336l-121 -678q-13 -76 6 -117.5t86 -41.5q66 0 150 37.5t143 86.5l127 713h336l-190 -1075h-336l20 115q-213 -138 -395 -138q-177 0 -249 102t-40 281zM385 1303q30 44 45.5 65t43.5 53.5t50.5 47t54.5 26.5t68 12q47 0 99 -24.5t95.5 -49t71.5 -24.5 q53 0 125 98l136 -90q-37 -55 -57.5 -82t-54.5 -61.5t-70.5 -49t-80.5 -14.5q-47 0 -99 25t-95.5 49.5t-71.5 24.5q-52 0 -125 -97z" />
<glyph unicode="&#x16a;" horiz-adv-x="1474" d="M107.5 488.5q4.5 70.5 19.5 154.5l139 791h350l-153 -869q-14 -61 -10 -113.5t23 -91.5t68 -61.5t126 -22.5q79 0 136.5 21.5t93 63t55.5 90t32 114.5l154 869h350l-158 -883q-18 -101 -45.5 -181t-79 -156t-122 -126.5t-178 -80.5t-244.5 -30q-113 0 -201.5 17.5 t-150.5 49t-104.5 78.5t-65.5 102t-31 124.5t-3.5 140zM584 1567l32 192h635l-32 -192h-635z" />
<glyph unicode="&#x16b;" d="M55 360l127 715h336l-121 -678q-13 -76 6 -117.5t86 -41.5q66 0 150 37.5t143 86.5l127 713h336l-190 -1075h-336l20 115q-213 -138 -395 -138q-177 0 -249 102t-40 281zM424 1257l33 193h635l-33 -193h-635z" />
<glyph unicode="&#x16c;" horiz-adv-x="1474" d="M107.5 488.5q4.5 70.5 19.5 154.5l139 791h350l-153 -869q-14 -61 -10 -113.5t23 -91.5t68 -61.5t126 -22.5q79 0 136.5 21.5t93 63t55.5 90t32 114.5l154 869h350l-158 -883q-18 -101 -45.5 -181t-79 -156t-122 -126.5t-178 -80.5t-244.5 -30q-113 0 -201.5 17.5 t-150.5 49t-104.5 78.5t-65.5 102t-31 124.5t-3.5 140zM592 1778h203q-5 -40 23.5 -62t86.5 -22q74 0 122 22.5t54 61.5h207q-20 -124 -121 -193t-264 -69q-164 0 -246.5 72.5t-64.5 189.5z" />
<glyph unicode="&#x16d;" d="M55 360l127 715h336l-121 -678q-13 -76 6 -117.5t86 -41.5q66 0 150 37.5t143 86.5l127 713h336l-190 -1075h-336l20 115q-213 -138 -395 -138q-177 0 -249 102t-40 281zM434 1468h203q-5 -40 24 -62t87 -22q74 0 122 22.5t54 61.5h206q-20 -124 -121 -193t-264 -69 q-164 0 -246.5 72.5t-64.5 189.5z" />
<glyph unicode="&#x16e;" horiz-adv-x="1474" d="M107.5 488.5q4.5 70.5 19.5 154.5l139 791h350l-153 -869q-14 -61 -10 -113.5t23 -91.5t68 -61.5t126 -22.5q79 0 136.5 21.5t93 63t55.5 90t32 114.5l154 869h350l-158 -883q-18 -101 -45.5 -181t-79 -156t-122 -126.5t-178 -80.5t-244.5 -30q-113 0 -201.5 17.5 t-150.5 49t-104.5 78.5t-65.5 102t-31 124.5t-3.5 140zM698 1729q0 98 69 166.5t167 68.5q97 0 165 -68.5t68 -166.5q0 -97 -68 -165.5t-165 -68.5q-98 0 -167 68.5t-69 165.5zM856 1729q0 -33 22.5 -55.5t55.5 -22.5q32 0 55 23t23 55q0 33 -23 56t-55 23q-34 0 -56 -22.5 t-22 -56.5z" />
<glyph unicode="&#x16f;" d="M55 360l127 715h336l-121 -678q-13 -76 6 -117.5t86 -41.5q66 0 150 37.5t143 86.5l127 713h336l-190 -1075h-336l20 115q-213 -138 -395 -138q-177 0 -249 102t-40 281zM541 1419q0 98 68.5 167t166.5 69q97 0 165.5 -69t68.5 -167q0 -97 -68.5 -165t-165.5 -68 q-98 0 -166.5 68t-68.5 165zM698 1419q0 -33 22.5 -55.5t55.5 -22.5q32 0 55 23t23 55q0 34 -23 57t-55 23q-34 0 -56 -23t-22 -57z" />
<glyph unicode="&#x170;" horiz-adv-x="1474" d="M107.5 488.5q4.5 70.5 19.5 154.5l139 791h350l-153 -869q-14 -61 -10 -113.5t23 -91.5t68 -61.5t126 -22.5q79 0 136.5 21.5t93 63t55.5 90t32 114.5l154 869h350l-158 -883q-18 -101 -45.5 -181t-79 -156t-122 -126.5t-178 -80.5t-244.5 -30q-113 0 -201.5 17.5 t-150.5 49t-104.5 78.5t-65.5 102t-31 124.5t-3.5 140zM575 1516l211 286h301l-311 -286h-201zM950 1516l213 286h299l-313 -286h-199z" />
<glyph unicode="&#x171;" horiz-adv-x="1286" d="M55 360l127 715h336l-121 -678q-13 -76 6 -117.5t86 -41.5q66 0 150 37.5t143 86.5l127 713h336l-190 -1075h-336l20 115q-213 -138 -395 -138q-177 0 -249 102t-40 281zM414 1206l211 287h301l-312 -287h-200zM788 1206l213 287h299l-313 -287h-199z" />
<glyph unicode="&#x172;" horiz-adv-x="1474" d="M105 434.5q1 92.5 22 208.5l139 791h350l-153 -869q-14 -61 -10 -113.5t23 -91.5t68 -61.5t126 -22.5q79 0 136.5 21.5t93 63t55.5 90t32 114.5l154 869h350l-158 -883q-15 -84 -36.5 -152t-57.5 -135t-84 -116.5t-118 -88.5t-158 -59q-224 -113 -224 -203q0 -14 5 -24 t16 -16t21 -9.5t27 -4.5t26.5 -1.5t27 0t21.5 0.5l-56 -148h-14q-18 1 -41.5 0t-51 3t-55 9t-53.5 18t-46 30t-32 45.5t-12 64.5q0 122 189 216q-147 4 -250.5 39.5t-161.5 93t-84.5 143.5t-25.5 178.5z" />
<glyph unicode="&#x173;" d="M55 360l127 715h336l-121 -678q-13 -76 6 -117.5t86 -41.5q66 0 150 37.5t143 86.5l127 713h336l-190 -1075h-6q-226 -112 -226 -203q0 -14 5 -24t16 -16t21 -9.5t27 -4.5t26.5 -1.5t27 0t21.5 0.5l-56 -148h-14q-18 1 -41.5 0t-51 3t-55 9t-53.5 18t-46 30t-32 45.5 t-12 64.5q0 133 236 236h-123l20 115q-213 -138 -395 -138q-177 0 -249 102t-40 281z" />
<glyph unicode="&#x174;" horiz-adv-x="1984" d="M162 1434h391l35 -922l393 922h291l67 -920l357 920h415l-647 -1434h-342l-73 932l-400 -932h-342zM776 1516l268 286h318l168 -286h-213l-123 143l-174 -143h-244z" />
<glyph unicode="&#x175;" horiz-adv-x="1714" d="M100 1075h346l35 -704l318 704h276l64 -692l272 692h367l-516 -1075h-316l-76 659l-315 -659h-315zM586 1206l268 287h317l168 -287h-213l-122 144l-175 -144h-243z" />
<glyph unicode="&#x177;" horiz-adv-x="1196" d="M-20 -211q14 5 45.5 15.5l43.5 14.5t37.5 13.5t36.5 14.5t31.5 14.5t31.5 16.5t27.5 18.5t28 23t25 26t26.5 31.5l-229 1098h348l105 -684l346 684h374l-598 -1075q-83 -146 -126 -202q-110 -142 -286 -212q-86 -35 -194 -57zM317 1206l269 287h317l168 -287h-213 l-123 144l-174 -144h-244z" />
<glyph unicode="&#x178;" horiz-adv-x="1359" d="M137 1434h371l194 -572l396 572h407l-661 -867l-99 -567h-350l101 567zM506 1536l47 262h270l-47 -262h-270zM899 1536l47 262h271l-48 -262h-270z" />
<glyph unicode="&#x179;" horiz-adv-x="1306" d="M-51 0l45 268l858 871h-655l49 295h1124l-43 -267l-860 -872h711l-50 -295h-1179zM594 1516l301 286h391l-401 -286h-291z" />
<glyph unicode="&#x17a;" horiz-adv-x="1159" d="M-49 0l39 231l635 568h-510l47 276h1001l-39 -231l-637 -568h531l-45 -276h-1022zM449 1206l301 287h391l-402 -287h-290z" />
<glyph unicode="&#x17b;" horiz-adv-x="1306" d="M-51 0l45 268l858 871h-655l49 295h1124l-43 -267l-860 -872h711l-50 -295h-1179zM690 1536l47 262h271l-47 -262h-271z" />
<glyph unicode="&#x17c;" horiz-adv-x="1159" d="M-49 0l39 231l635 568h-510l47 276h1001l-39 -231l-637 -568h531l-45 -276h-1022zM543 1227l47 262h270l-47 -262h-270z" />
<glyph unicode="&#x17d;" horiz-adv-x="1306" d="M-51 0l45 268l858 871h-655l49 295h1124l-43 -267l-860 -872h711l-50 -295h-1179zM496 1802h213l122 -145l175 145h243l-268 -286h-317z" />
<glyph unicode="&#x17e;" horiz-adv-x="1159" d="M-49 0l39 231l635 568h-510l47 276h1001l-39 -231l-637 -568h531l-45 -276h-1022zM350 1493h213l123 -145l174 145h244l-268 -287h-318z" />
<glyph unicode="&#x17f;" horiz-adv-x="710" d="M-193 -211q50 15 83.5 27t64 26.5t48.5 25t35 29.5t25.5 34t18 43.5t14.5 52.5t13 67l129 735h-144l43 246h146l4 25q32 204 114 298.5t248 94.5q190 0 400 -113l-150 -215q-109 39 -178 39q-79 0 -96 -100l-176 -983q-13 -75 -20.5 -111t-21 -93t-27 -83.5t-36 -67.5 t-50 -61.5t-66.5 -49t-89.5 -46.5t-114.5 -37.5t-145 -36.5z" />
<glyph unicode="&#x192;" horiz-adv-x="1247" d="M-121 -418l508 1247h-139l92 246h147l17 37q41 101 77 165.5t86.5 116.5t116.5 75.5t154 23.5q171 0 405 -115l-194 -219q-4 1 -22.5 7.5t-25.5 9t-28 9t-29 7.5t-29 5.5t-28 2.5t-26 -2q-74 -10 -115 -102l-8 -21h274l-94 -246h-283l-514 -1247h-342z" />
<glyph unicode="&#x1fc;" horiz-adv-x="2197" d="M-174 0l1214 1434h1205l-54 -295h-684l-49 -277h559l-51 -289h-557l-49 -278h692l-53 -295h-1043l45 262h-516l-211 -262h-448zM715 545h338l94 536zM1106 1516l301 286h391l-401 -286h-291z" />
<glyph unicode="&#x1fd;" horiz-adv-x="1943" d="M41 381q0 210 65.5 373t184.5 253.5t272 90.5q57 0 109 -12.5t96.5 -37.5t71.5 -44t63 -48l21 119h336v-2q92 25 194 25q201 0 322.5 -86.5t121.5 -231.5q0 -86 -34 -149.5t-89.5 -101.5t-141.5 -60.5t-174.5 -30.5t-203.5 -8h-104v-8q0 -197 176 -197q131 0 395 121 l101 -231q-58 -27 -129.5 -53.5t-198 -55.5t-233.5 -29q-101 0 -193 29v-6h-336l21 119q-194 -142 -379 -142q-66 0 -123 21.5t-105.5 67t-77 126.5t-28.5 189zM387 420q0 -83 34 -128.5t99 -45.5q72 0 139.5 37t141.5 102l10 57q0 143 45 267q-98 118 -213 118 q-79 0 -138.5 -58.5t-88.5 -149.5t-29 -199zM836 1206l301 287h391l-402 -287h-290zM1182 606h88q146 0 226.5 40t80.5 112q0 46 -36.5 74t-96.5 28q-94 0 -161 -72t-101 -182z" />
<glyph unicode="&#x1fe;" horiz-adv-x="1572" d="M-4 0l199 209q-119 156 -119 401q0 65 9.5 136t34 154.5t61.5 160.5t97 150t135 126.5t181.5 86t230.5 32.5q279 0 453 -117l88 95h244l-205 -215q117 -153 117 -398q0 -65 -9.5 -136t-34 -154.5t-61.5 -160.5t-97 -150t-135 -126.5t-181.5 -86t-231.5 -32.5 q-275 0 -448 113l-84 -88h-244zM438 621q0 -81 17 -142l594 621q-77 59 -209 59q-86 0 -156.5 -37t-115 -94.5t-75 -130.5t-43 -142.5t-12.5 -133.5zM553 328q74 -56 207 -56q86 0 156 37t114.5 94.5t75 131t43 143t12.5 133.5q0 69 -16 135zM715 1516l301 286h391 l-401 -286h-291z" />
<glyph unicode="&#x1ff;" horiz-adv-x="1273" d="M-27 0l162 160q-98 124 -98 311q0 128 38.5 240.5t112 199.5t189 137t260.5 50q206 0 350 -86l64 63h196l-151 -151q106 -124 106 -320q0 -128 -39 -240.5t-112.5 -199.5t-189.5 -137t-261 -50q-213 0 -360 89l-66 -66h-201zM375 467q0 -24 4 -64l401 402q-53 35 -135 35 q-86 0 -149 -56t-92 -138.5t-29 -178.5zM449 276q52 -40 143 -40q86 0 149 55.5t92 138t29 178.5q0 43 -8 74zM492 1206l301 287h391l-402 -287h-290z" />
<glyph unicode="&#x218;" horiz-adv-x="1318" d="M-25 201l185 237q118 -69 250 -120.5t237 -51.5q92 0 151.5 35.5t59.5 95.5q0 33 -21.5 58.5t-64.5 44.5t-88 33.5t-111.5 36.5t-115.5 44q-66 29 -115.5 61t-95 78.5t-70 110.5t-24.5 142q0 193 148.5 321.5t406.5 128.5q305 0 636 -192l-184 -232q-92 52 -216 93.5 t-214 41.5q-85 0 -143 -33t-58 -96q0 -31 18.5 -53.5t57.5 -39t81 -29.5t108.5 -35.5t121.5 -46.5q52 -22 92.5 -44.5t84.5 -58t73.5 -75t48.5 -96t19 -122.5q0 -199 -154.5 -330t-416.5 -131q-188 0 -369.5 66t-317.5 158zM334 -543l143 168h-108l47 262h243l-34 -290 l-238 -220z" />
<glyph unicode="&#x219;" horiz-adv-x="1099" d="M-37 147l152 220q96 -53 213.5 -93.5t203.5 -40.5q58 0 94 19.5t36 50.5q0 18 -12 31.5t-41 26t-51.5 20t-71.5 21t-74 20.5q-51 15 -89.5 30t-85.5 42.5t-77 60t-51 81.5t-21 109q0 153 121.5 253t333.5 100q139 0 280.5 -41t239.5 -96l-150 -216q-216 99 -356 99 q-60 0 -93.5 -19t-33.5 -49q0 -18 11 -31t38 -24.5t49.5 -18.5t69.5 -19.5t74 -20.5q55 -16 96.5 -32.5t89 -44.5t78.5 -61t51.5 -82.5t20.5 -109.5q0 -159 -129.5 -257t-350.5 -98q-160 0 -309.5 50t-255.5 120zM217 -543l143 168h-108l47 262h244l-35 -290l-238 -220z" />
<glyph unicode="&#x21a;" horiz-adv-x="1218" d="M119 1139l53 295h1165l-53 -295h-407l-203 -1139h-348l200 1139h-407zM281 -543l143 168h-109l47 262h244l-35 -290l-237 -220z" />
<glyph unicode="&#x21b;" horiz-adv-x="876" d="M49 -543l144 168h-109l47 262h244l-35 -290l-238 -220zM63 829l46 246h139l49 271l344 40l-55 -311h286l-43 -246h-288l-82 -460q-10 -58 8 -78.5t53 -20.5q52 0 166 41l82 -258q-210 -76 -369 -76q-165 0 -236 109.5t-34 312.5l76 430h-142z" />
<glyph unicode="&#x2b0;" horiz-adv-x="827" d="M115 788l157 895h230l-56 -317q126 82 242 82q114 0 160.5 -63t25.5 -175l-73 -422h-230l70 398q8 42 -2 64t-49 22q-43 0 -92.5 -20.5t-81.5 -51.5l-72 -412h-229z" />
<glyph unicode="&#x2b2;" horiz-adv-x="389" d="M-53 672q80 24 113.5 41t45 36t19.5 62l111 623h229l-107 -603q-10 -58 -16 -85t-21 -67t-37 -59t-59.5 -44t-93 -41.5t-133.5 -32.5zM244 1503l30 178h240l-33 -178h-237z" />
<glyph unicode="&#x2b7;" horiz-adv-x="1101" d="M170 1434h236l20 -404l186 404h187l39 -396l157 396h248l-321 -646h-213l-47 377l-187 -377h-213z" />
<glyph unicode="&#x2b8;" horiz-adv-x="774" d="M102 674q10 3 37 12l36 12t29 10.5t29.5 13t24 14.5t25.5 19t22 23l-149 656h237l62 -392l200 392h258l-372 -646q-59 -101 -95 -142q-98 -110 -290 -144z" />
<glyph unicode="&#x2c6;" horiz-adv-x="618" d="M141 1206l269 287h317l168 -287h-213l-123 144l-174 -144h-244z" />
<glyph unicode="&#x2c7;" horiz-adv-x="622" d="M195 1493h213l122 -145l175 145h243l-268 -287h-318z" />
<glyph unicode="&#x2d8;" horiz-adv-x="589" d="M203 1468h203q-5 -40 23.5 -62t86.5 -22q74 0 122 22.5t54 61.5h207q-20 -124 -121 -193t-264 -69q-164 0 -246.5 72.5t-64.5 189.5z" />
<glyph unicode="&#x2d9;" horiz-adv-x="217" d="M182 1227l47 262h271l-47 -262h-271z" />
<glyph unicode="&#x2da;" horiz-adv-x="458" d="M106 1419q0 98 69 167t167 69q97 0 165 -69t68 -167q0 -97 -68 -165t-165 -68q-98 0 -167 68t-69 165zM264 1419q0 -33 22.5 -55.5t55.5 -22.5q32 0 55 23t23 55q0 34 -23 57t-55 23q-34 0 -56 -23t-22 -57z" />
<glyph unicode="&#x2db;" horiz-adv-x="344" d="M-100 -236q0 82 77 144t213 115l156 -21q-229 -114 -229 -205q0 -14 5 -24t16 -16t21 -9.5t26.5 -4.5t26 -1.5t27 0t21.5 0.5l-55 -148h-14q-18 1 -41.5 0t-51 3t-55 9t-53.5 18t-46 30t-32 45.5t-12 64.5z" />
<glyph unicode="&#x2dc;" horiz-adv-x="630" d="M156 1303q30 44 45.5 65t43.5 53.5t50.5 47t54.5 26.5t68 12q47 0 99 -24.5t95.5 -49t71.5 -24.5q53 0 125 98l135 -90q-30 -45 -45.5 -66.5t-43.5 -54t-50.5 -47.5t-54.5 -27t-68 -12q-47 0 -99 25t-95.5 49.5t-71.5 24.5q-52 0 -125 -97z" />
<glyph unicode="&#x2dd;" horiz-adv-x="716" d="M150 1206l210 287h302l-312 -287h-200zM524 1206l213 287h299l-313 -287h-199z" />
<glyph unicode="&#x2e3;" horiz-adv-x="806" d="M39 788l319 322l-190 324h246l92 -197l162 197h276l-305 -322l203 -324h-242l-102 199l-166 -199h-293z" />
<glyph unicode="&#x3c0;" horiz-adv-x="1193" d="M70 795l49 280h1116l-51 -280h-172l-140 -795h-290l141 795h-199l-141 -795h-289l139 795h-163z" />
<glyph unicode="&#x1e80;" horiz-adv-x="1984" d="M162 1434h391l35 -922l393 922h291l67 -920l357 920h415l-647 -1434h-342l-73 932l-400 -932h-342zM805 1802h354l209 -286h-260z" />
<glyph unicode="&#x1e81;" horiz-adv-x="1714" d="M100 1075h346l35 -704l318 704h276l64 -692l272 692h367l-516 -1075h-316l-76 659l-315 -659h-315zM618 1493h355l209 -287h-260z" />
<glyph unicode="&#x1e82;" horiz-adv-x="1984" d="M162 1434h391l35 -922l393 922h291l67 -920l357 920h415l-647 -1434h-342l-73 932l-400 -932h-342zM922 1516l301 286h391l-402 -286h-290z" />
<glyph unicode="&#x1e83;" horiz-adv-x="1714" d="M100 1075h346l35 -704l318 704h276l64 -692l272 692h367l-516 -1075h-316l-76 659l-315 -659h-315zM733 1206l301 287h391l-401 -287h-291z" />
<glyph unicode="&#x1e84;" horiz-adv-x="1984" d="M162 1434h391l35 -922l393 922h291l67 -920l357 920h415l-647 -1434h-342l-73 932l-400 -932h-342zM821 1530l47 262h271l-47 -262h-271zM1214 1530l48 262h270l-47 -262h-271z" />
<glyph unicode="&#x1e85;" horiz-adv-x="1714" d="M100 1075h346l35 -704l318 704h276l64 -692l272 692h367l-516 -1075h-316l-76 659l-315 -659h-315zM635 1227l47 262h270l-47 -262h-270zM1028 1227l47 262h271l-48 -262h-270z" />
<glyph unicode="&#x1e9e;" horiz-adv-x="1699" d="M23 0l157 877q17 102 46.5 183t80.5 152.5t121.5 119t172 75t230.5 27.5h777l-37 -230l-350 -332q192 -46 293.5 -153t101.5 -262q0 -95 -37.5 -180.5t-108.5 -153t-185 -107t-257 -39.5q-283 0 -516 154l180 236q181 -101 318 -101q108 0 176.5 50t68.5 126q0 27 -9 51 t-35 49.5t-68 43.5t-113.5 29.5t-165.5 11.5h-108l35 217l309 295h-266q-130 0 -206.5 -73t-107.5 -247l-147 -819h-350z" />
<glyph unicode="&#x1ef2;" horiz-adv-x="1359" d="M137 1434h371l194 -572l396 572h407l-661 -867l-99 -567h-350l101 567zM489 1802h355l209 -286h-260z" />
<glyph unicode="&#x1ef3;" horiz-adv-x="1196" d="M-20 -211q14 5 45.5 15.5l43.5 14.5t37.5 13.5t36.5 14.5t31.5 14.5t31.5 16.5t27.5 18.5t28 23t25 26t26.5 31.5l-229 1098h348l105 -684l346 684h374l-598 -1075q-83 -146 -126 -202q-110 -142 -286 -212q-86 -35 -194 -57zM350 1493h355l208 -287h-260z" />
<glyph unicode="&#x2000;" horiz-adv-x="982" />
<glyph unicode="&#x2001;" horiz-adv-x="1964" />
<glyph unicode="&#x2002;" horiz-adv-x="982" />
<glyph unicode="&#x2003;" horiz-adv-x="1964" />
<glyph unicode="&#x2004;" horiz-adv-x="654" />
<glyph unicode="&#x2005;" horiz-adv-x="491" />
<glyph unicode="&#x2006;" horiz-adv-x="327" />
<glyph unicode="&#x2007;" horiz-adv-x="327" />
<glyph unicode="&#x2008;" horiz-adv-x="245" />
<glyph unicode="&#x2009;" horiz-adv-x="392" />
<glyph unicode="&#x200a;" horiz-adv-x="109" />
<glyph unicode="&#x2010;" horiz-adv-x="1003" d="M76 449l45 268h667l-45 -268h-667z" />
<glyph unicode="&#x2011;" horiz-adv-x="1003" d="M76 449l45 268h667l-45 -268h-667z" />
<glyph unicode="&#x2012;" horiz-adv-x="1003" d="M76 449l45 268h667l-45 -268h-667z" />
<glyph unicode="&#x2013;" horiz-adv-x="1243" d="M76 451l45 264h930l-45 -264h-930z" />
<glyph unicode="&#x2014;" horiz-adv-x="1460" d="M76 451l45 264h1147l-47 -264h-1145z" />
<glyph unicode="&#x2018;" horiz-adv-x="561" d="M123 764l49 410l330 301l71 -111l-196 -234h151l-65 -366h-340z" />
<glyph unicode="&#x2019;" horiz-adv-x="536" d="M125 831l197 234h-152l66 367h339l-49 -410l-329 -301z" />
<glyph unicode="&#x201a;" horiz-adv-x="575" d="M-51 -233l196 233h-151l65 367h340l-49 -410l-330 -301z" />
<glyph unicode="&#x201c;" horiz-adv-x="1052" d="M123 764l49 410l330 301l71 -111l-196 -234h151l-65 -366h-340zM608 764l49 410l330 301l72 -111l-197 -234h152l-66 -366h-340z" />
<glyph unicode="&#x201d;" horiz-adv-x="1030" d="M125 831l197 234h-152l66 367h339l-49 -410l-329 -301zM610 831l197 234h-152l66 367h340l-49 -410l-330 -301z" />
<glyph unicode="&#x201e;" horiz-adv-x="1069" d="M-51 -233l196 233h-151l65 367h340l-49 -410l-330 -301zM434 -233l197 233h-152l66 367h340l-49 -410l-330 -301z" />
<glyph unicode="&#x2020;" horiz-adv-x="1236" d="M76 748l47 268l434 -33l80 451h254l-80 -449l446 31l-47 -268l-436 32l-211 -1198h-254l211 1198z" />
<glyph unicode="&#x2021;" horiz-adv-x="1277" d="M-2 211l47 268l434 -33l60 334l-447 -32l49 268l434 -33l80 451h252l-80 -449l447 31l-47 -268l-436 32l-60 -331l449 30l-47 -268l-437 33l-116 -662h-252l116 662z" />
<glyph unicode="&#x2022;" horiz-adv-x="980" d="M131 584q0 143 100 243.5t242 100.5q143 0 244.5 -101t101.5 -243q0 -144 -101.5 -244t-244.5 -100t-242.5 100t-99.5 244z" />
<glyph unicode="&#x2026;" horiz-adv-x="1628" d="M-6 0l63 367h342l-65 -367h-340zM518 0l64 367h342l-66 -367h-340zM1038 0l64 367h342l-66 -367h-340z" />
<glyph unicode="&#x202f;" horiz-adv-x="392" />
<glyph unicode="&#x2030;" horiz-adv-x="2947" d="M135 1010q0 121 49 220.5t150.5 162.5t238.5 63q178 0 281.5 -87t103.5 -234q0 -90 -28.5 -170t-82 -142t-138.5 -98.5t-189 -36.5q-176 0 -280.5 87.5t-104.5 234.5zM387 1034q0 -149 143 -149q83 0 131 72.5t48 152.5q0 150 -144 150q-57 0 -99 -38t-60.5 -88 t-18.5 -100zM428 0l985 1434h262l-987 -1434h-260zM1143 299q0 120 49.5 220t151.5 163t239 63q177 0 281 -87t104 -234q0 -89 -29 -169.5t-82.5 -142.5t-138 -98.5t-188.5 -36.5q-178 0 -282.5 87.5t-104.5 234.5zM1395 324q0 -150 145 -150q56 0 97.5 38t60 88t18.5 99 q0 150 -141 150q-84 0 -132 -72t-48 -153zM2048 299q0 121 49 220.5t150.5 162.5t238.5 63q177 0 281 -87t104 -234q0 -90 -28.5 -170t-82 -142t-138.5 -98.5t-189 -36.5q-176 0 -280.5 87.5t-104.5 234.5zM2298 324q0 -150 145 -150q57 0 99 38t60.5 87.5t18.5 99.5 q0 69 -34.5 109.5t-108.5 40.5q-83 0 -131.5 -72.5t-48.5 -152.5z" />
<glyph unicode="&#x2039;" horiz-adv-x="763" d="M25 449l34 202l691 428l-60 -338l-375 -217l299 -215l-51 -289z" />
<glyph unicode="&#x203a;" horiz-adv-x="761" d="M-8 20l59 338l375 217l-299 216l51 288l539 -428l-35 -202z" />
<glyph unicode="&#x2044;" horiz-adv-x="462" d="M-324 0l902 1434h270l-901 -1434h-271z" />
<glyph unicode="&#x205f;" horiz-adv-x="491" />
<glyph unicode="&#x2070;" horiz-adv-x="901" d="M164 1149q0 36 5 76.5t18.5 91.5t34.5 98.5t55.5 93t78.5 79.5t107 54.5t137 20.5q104 0 180.5 -32.5t118 -88t61 -119.5t19.5 -137q0 -43 -7.5 -92t-25 -109t-51 -113.5t-79 -98.5t-116.5 -72t-157 -27q-84 0 -150 21.5t-108.5 57t-70 85t-39 101.5t-11.5 110zM397 1128 q1 -37 7 -64.5t20.5 -54t44.5 -41t74 -14.5q45 0 81 30t57 73t35.5 94.5t19.5 91t5 66.5q-1 37 -6.5 64t-19.5 53.5t-43.5 40.5t-73.5 14q-55 0 -97.5 -43.5t-63 -106t-30.5 -115.5t-10 -88z" />
<glyph unicode="&#x2074;" horiz-adv-x="903" d="M94 938l29 162l489 549h316l-92 -516h133l-31 -195h-135l-27 -150h-235l26 150h-473zM389 1133h211l55 309z" />
<glyph unicode="&#x2075;" horiz-adv-x="817" d="M92 915l127 146q34 -25 60 -40t74.5 -30.5t99.5 -15.5q68 0 115.5 27.5t47.5 80.5q0 44 -31.5 67.5t-88.5 23.5q-90 0 -170 -50l-131 86l124 439h603l-35 -195h-398l-24 -102q52 10 94 10q145 0 222 -77t77 -191q0 -132 -101.5 -226t-279.5 -94q-214 0 -385 141z" />
<glyph unicode="&#x2076;" horiz-adv-x="856" d="M158 1118q0 113 45 213t124.5 173.5t195 116t249.5 42.5q51 0 94.5 -6.5t61.5 -13.5l18 -7l-80 -170q-37 7 -84 7q-111 0 -203.5 -42.5t-142.5 -132.5q81 48 185 48q130 0 208 -71.5t78 -187.5q0 -132 -98.5 -222.5t-271.5 -90.5q-179 0 -279 99t-100 245zM393 1102 q0 -61 35.5 -99t99.5 -38q69 0 106.5 33.5t37.5 80.5q0 43 -31.5 69t-95.5 26q-49 0 -89 -19.5t-63 -44.5v-8z" />
<glyph unicode="&#x2077;" horiz-adv-x="706" d="M154 788q16 86 64.5 186t99.5 175t115 152t90 105t46 48h-383l33 195h651l-32 -191l-40.5 -40.5t-93 -104t-122.5 -155t-107 -179.5t-69 -191h-252z" />
<glyph unicode="&#x2078;" horiz-adv-x="868" d="M125 1010q0 165 237 258q-102 74 -102 170q0 99 91 162t255 63q155 0 239.5 -57.5t84.5 -149.5q0 -119 -170 -207q153 -80 153 -211q0 -119 -110.5 -191.5t-302.5 -72.5q-180 0 -277.5 63.5t-97.5 172.5zM365 1034q0 -40 36 -62t101 -22q72 0 121 27.5t49 73.5 q0 40 -32 67.5t-87 52.5q-35 -11 -57.5 -19.5t-49.5 -21.5t-43 -26t-27 -31t-11 -39zM489 1411q0 -49 72 -80q44 13 68.5 22t46.5 28t22 44q0 31 -25.5 49.5t-68.5 18.5q-49 0 -82 -24t-33 -58z" />
<glyph unicode="&#x2079;" horiz-adv-x="854" d="M137 801l80 170q37 -6 84 -6q111 0 203 41t141 129q-76 -45 -182 -45q-130 0 -208.5 71.5t-78.5 188.5q0 132 99 222.5t272 90.5q179 0 279 -99t100 -245q0 -152 -77 -276t-218 -196.5t-320 -72.5q-51 0 -94.5 7t-61.5 13zM412 1358q0 -42 31.5 -68t95.5 -26q90 0 151 61 v10q0 61 -35.5 99.5t-99.5 38.5q-69 0 -106 -34t-37 -81z" />
<glyph unicode="&#x207a;" horiz-adv-x="821" d="M178 1114l29 168h246l36 213h175l-37 -213h243l-28 -168h-246l-37 -213h-174l37 213h-244z" />
<glyph unicode="&#x207d;" horiz-adv-x="481" d="M122 790q-5 62 13 152l96 547q7 37 11.5 58.5t12 50t14.5 44t19 36.5t25.5 32.5t33 26.5t43 24.5t55 20.5t69 19.5t84.5 17.5l39 -129q-93 -30 -121 -55.5t-37 -84.5l-119 -669q-11 -64 2.5 -94t77.5 -58l-55 -117q-137 30 -197.5 73t-65.5 105z" />
<glyph unicode="&#x207e;" horiz-adv-x="475" d="M68 741q93 30 120.5 55.5t36.5 84.5l119 669q11 64 -2.5 94t-77.5 58l55 117q137 -30 197.5 -73t65.5 -105t-13 -152l-96 -547q-7 -37 -11.5 -58.5t-12 -50t-14.5 -44t-19 -36.5t-25.5 -32.5t-33 -26.5t-43 -24.5t-55 -20.5t-69 -19.5t-84.5 -17.5z" />
<glyph unicode="&#x207f;" horiz-adv-x="827" d="M115 788l112 646h230l-13 -68q132 82 244 82q114 0 160.5 -63t25.5 -175l-73 -422h-230l72 398q17 86 -53 86q-43 0 -91.5 -20.5t-82.5 -49.5l-72 -414h-229z" />
<glyph unicode="&#x2080;" horiz-adv-x="901" d="M51 53q0 36 5 76.5t18.5 91.5t34.5 98.5t55.5 93t78.5 79.5t107 54.5t137 20.5q104 0 180.5 -32.5t118 -88t61 -119.5t19.5 -137q0 -43 -7.5 -92t-25 -109t-51 -113.5t-79 -98.5t-116.5 -72t-157 -27q-84 0 -150 21.5t-108.5 57t-70 85t-39 101.5t-11.5 110zM285 33 q1 -37 6.5 -64.5t20 -54t44.5 -41t74 -14.5q55 0 97 43.5t62.5 106.5t30 115.5t9.5 88.5q-1 37 -6.5 64t-20 53.5t-44 40.5t-73.5 14q-55 0 -97 -43t-63 -105.5t-30.5 -115t-9.5 -88.5z" />
<glyph unicode="&#x2081;" horiz-adv-x="571" d="M57 412l283 141h223l-151 -860h-234l113 631l-160 -74z" />
<glyph unicode="&#x2082;" horiz-adv-x="821" d="M-29 -307l17 96q8 48 25 89t46 76t55 60.5t69 54t69.5 44t75.5 41.5q28 15 62 32.5t53.5 28t42.5 23t35.5 21t23.5 18.5t15.5 19.5t4.5 20.5q-3 56 -98 56q-101 0 -250 -82l-88 164q52 29 90 47.5t119.5 41.5t159.5 23q148 0 227.5 -68.5t79.5 -168.5q0 -36 -12 -70 t-29 -60.5t-47.5 -53.5t-56 -45.5t-66.5 -41t-66.5 -35t-68.5 -32.5q-96 -44 -126.5 -63.5t-37.5 -41.5h424l-33 -194h-715z" />
<glyph unicode="&#x2083;" horiz-adv-x="823" d="M-29 -180l115 143q84 -46 146 -67t128 -21q71 0 109.5 22.5t38.5 61.5q0 27 -17.5 44.5t-51 26.5t-69 12t-83.5 3h-39l35 197h41q91 0 154 17.5t63 57.5q0 26 -23.5 41t-60.5 15q-105 0 -250 -74l-80 160q180 108 369 108q142 0 214 -57t72 -145q0 -133 -178 -209 q64 -22 104 -77t40 -124q0 -38 -11 -75.5t-38 -74.5t-67 -64.5t-103.5 -45t-141.5 -17.5q-220 0 -416 142z" />
<glyph unicode="&#x2084;" horiz-adv-x="903" d="M-16 -158l28 162l490 549h315l-92 -516h133l-31 -195h-135l-26 -149h-236l27 149h-473zM279 37h210l56 309z" />
<glyph unicode="&#x2085;" horiz-adv-x="817" d="M-18 -180l127 145q34 -25 59.5 -40t74 -30.5t99.5 -15.5q68 0 116 28t48 81q0 44 -31.5 67t-89.5 23q-92 0 -170 -49l-131 86l125 438h602l-35 -195h-397l-25 -102q52 10 95 10q145 0 222 -77t77 -191q0 -132 -101.5 -226t-279.5 -94q-213 0 -385 142z" />
<glyph unicode="&#x2086;" horiz-adv-x="856" d="M47 23q0 113 45 213t125 173t195.5 115.5t249.5 42.5q51 0 94.5 -6.5t61.5 -12.5l18 -7l-80 -170q-37 6 -84 6q-112 0 -204.5 -42t-141.5 -132q80 47 184 47q130 0 208.5 -71t78.5 -187q0 -132 -99 -223t-272 -91q-179 0 -279 99.5t-100 245.5zM283 6q0 -61 35.5 -99 t99.5 -38q69 0 106 34t37 81q0 42 -31.5 68t-95.5 26q-49 0 -88.5 -19.5t-62.5 -44.5v-8z" />
<glyph unicode="&#x2087;" horiz-adv-x="706" d="M43 -307q16 86 65 186t99.5 174.5t115 152t90 104.5t46.5 48h-383l33 195h651l-33 -191q-15 -14 -40.5 -40t-93 -104.5t-122.5 -154.5t-107 -179t-69 -191h-252z" />
<glyph unicode="&#x2088;" horiz-adv-x="868" d="M14 -86q0 165 238 258q-102 73 -102 170q0 99 91 162t255 63q155 0 239 -57t84 -150q0 -118 -170 -206q154 -81 154 -211q0 -119 -111 -192t-303 -73q-180 0 -277.5 63.5t-97.5 172.5zM254 -61q0 -40 36 -62t101 -22q72 0 121 27t49 73q0 40 -32 68.5t-87 52.5 q-35 -11 -57.5 -19.5t-49.5 -21.5t-43 -26t-27 -31t-11 -39zM379 315q0 -48 72 -79q44 13 68.5 22t46.5 28t22 44q0 31 -25.5 49t-68.5 18q-49 0 -82 -24t-33 -58z" />
<glyph unicode="&#x2089;" horiz-adv-x="854" d="M27 -295l79 170q37 -6 84 -6q111 0 203.5 41t141.5 129q-76 -45 -183 -45q-130 0 -208 71.5t-78 188.5q0 132 98.5 222.5t271.5 90.5q179 0 279 -99t100 -245q0 -113 -45 -213.5t-124.5 -173.5t-195 -115.5t-249.5 -42.5q-51 0 -94.5 7t-61.5 13zM301 262q0 -42 31.5 -68 t95.5 -26q91 0 152 61v11q0 60 -36 98.5t-100 38.5q-69 0 -106 -34t-37 -81z" />
<glyph unicode="&#x208a;" horiz-adv-x="821" d="M68 18l28 168h246l37 213h174l-37 -213h244l-29 -168h-246l-36 -213h-175l37 213h-243z" />
<glyph unicode="&#x208d;" horiz-adv-x="481" d="M11.5 -306q-4.5 62 13.5 152l96 547q7 38 11.5 59t12 49.5t14.5 44t18.5 36.5t25 32.5t33.5 26.5t43 24.5t55 20.5t69 19.5t84 17.5l39 -129q-93 -30 -120.5 -55t-36.5 -84l-119 -670q-11 -64 2.5 -94t77.5 -58l-56 -116q-137 30 -197.5 72.5t-65 104.5z" />
<glyph unicode="&#x208e;" horiz-adv-x="475" d="M-43 -354q93 30 121 55.5t37 83.5l118 670q11 65 -2 94t-77 57l55 117q137 -30 197.5 -73t65.5 -105t-13 -152l-97 -547q-9 -47 -14.5 -72.5t-16 -58.5t-21 -50t-30 -39t-43.5 -34.5t-59 -27t-79 -25.5t-103 -22z" />
<glyph unicode="&#x20a1;" horiz-adv-x="1161" d="M104 608q0 133 31.5 244.5t84.5 189t124 131.5t149.5 79.5t161.5 25.5q13 0 27 -1t30.5 -2.5t26.5 -2.5l66 162h141l-78 -189l50 -16l83 205h142l-105 -256q88 -45 140 -74l-152 -227q-84 47 -88 49l-186 -459q74 22 190 74l109 -252q-254 -106 -422 -127l-66 -162h-141 l63 160q-38 4 -53 8l-67 -168h-142l86 211q-97 51 -151 151t-54 246zM451 639q0 -36 6 -66l155 383q-73 -45 -117 -133.5t-44 -183.5zM549 455q17 -7 53 -11l215 533q-37 8 -53 10z" />
<glyph unicode="&#x20a4;" horiz-adv-x="1212" d="M-10 0l41 233q7 2 19.5 7t47.5 22t66.5 38t67.5 56.5t59 75.5h-201l27 162h215q-1 20 -15 86h-184l29 164h98q-39 103 -39 207q0 186 123.5 295.5t341.5 109.5q92 0 177.5 -19.5t160.5 -57.5t119 -65.5t104 -70.5l-174 -205q-190 129 -323 129q-87 0 -136 -43t-49 -110 q0 -58 49 -170h398l-29 -164h-319q4 -36 4 -55q0 -21 -2 -31h301l-27 -162h-326q-53 -90 -135 -143h565l-51 -289h-1003z" />
<glyph unicode="&#x20a7;" horiz-adv-x="1472" d="M47 0l158 895h-53l22 131h55l72 408h551q280 0 424 -103t149 -305h54l-23 -131h-45q-18 -79 -59.5 -148.5t-108.5 -128t-171 -92.5t-232 -34h-355l-88 -492h-350zM535 778h243q197 0 262 117h-485zM578 1026h487q-19 119 -217 119h-248z" />
<glyph unicode="&#x20a9;" horiz-adv-x="2142" d="M49 489l35 195h219l-16 156h-176l34 194h123l-41 400h391l15 -400h244l170 400h290l29 -400h240l155 400h416l-180 -400h127l-35 -194h-180l-72 -156h225l-34 -195h-279l-219 -489h-342l-74 932l-399 -932h-342l-51 489h-273zM641 840l12 -328l140 328h-152zM1380 840 l25 -326l125 326h-150z" />
<glyph unicode="&#x20ac;" horiz-adv-x="1482" d="M45 479l31 174h112q6 61 15 115h-105l29 174h115q79 245 254 379.5t403 134.5q74 0 148 -14.5t129 -32.5t125 -53t109 -58t108 -65l-187 -246q-128 78 -216.5 116t-174.5 38q-99 0 -177 -53t-130 -146h436l-31 -174h-471q-12 -55 -18 -115h469l-31 -174h-432 q31 -188 201 -188q153 0 438 149l147 -276q-181 -90 -343 -138.5t-326 -48.5q-209 0 -338 126.5t-146 375.5h-143z" />
<glyph unicode="&#x2116;" horiz-adv-x="2492" d="M33 0l254 1434h354l381 -930l166 930h348l-254 -1434h-352l-383 930l-164 -930h-350zM1538 283l33 192h725l-33 -192h-725zM1561 915q0 98 32.5 187.5t92.5 160t155 112.5t211 42q194 0 312 -98t118 -260q0 -98 -32 -187.5t-91.5 -160t-154 -112.5t-211.5 -42 q-195 0 -313.5 98t-118.5 260zM1849 944q0 -158 154 -158q48 0 86 24t60 62t33 79t11 79q0 156 -153 156q-62 0 -107.5 -41.5t-64.5 -95t-19 -105.5z" />
<glyph unicode="&#x2117;" horiz-adv-x="1710" d="M96 641q0 131 32.5 251.5t98.5 223t158.5 178.5t219 119t274.5 43q206 0 360 -84.5t234.5 -234.5t80.5 -344q0 -131 -32.5 -251.5t-98.5 -223.5t-158 -179t-219.5 -119t-275.5 -43q-309 0 -491.5 184t-182.5 480zM176 643q0 -171 70 -303.5t208 -209.5t324 -77 q160 0 293.5 59t221 160t136 234.5t48.5 284.5q0 260 -162.5 423.5t-442.5 163.5q-160 0 -293 -58.5t-220 -159t-135 -233.5t-48 -284zM524 285l152 862h285q117 0 185 -56.5t68 -168.5q0 -148 -95 -224.5t-253 -76.5h-186l-57 -336h-99zM696 707h189q98 0 164.5 58 t66.5 157q0 141 -170 141h-188z" />
<glyph unicode="&#x2120;" horiz-adv-x="1277" d="M158 1036l71 88q99 -53 187 -53q30 0 53 8.5t23 24.5q0 14 -20.5 21t-64.5 16.5t-75 21.5q-117 44 -117 135q0 63 55.5 103.5t151.5 40.5q125 0 242 -62l-72 -86q-93 43 -158 43q-67 0 -67 -32q0 -14 16 -21t57.5 -17t73.5 -22q125 -41 127 -135q0 -63 -60 -103t-161 -40 q-135 0 -262 69zM676 975l80 459h137l94 -252l191 252h137l-80 -459h-131l45 266l-141 -190h-80l-74 198l-47 -274h-131z" />
<glyph unicode="&#x2122;" horiz-adv-x="1280" d="M236 1327l18 107h440l-18 -107h-156l-61 -352h-131l61 352h-153zM672 975l80 459h135l94 -252l190 252h136l-80 -459h-129l45 266l-142 -190h-79l-74 198l-47 -274h-129z" />
<glyph unicode="&#x2126;" horiz-adv-x="1587" d="M18 0l52 289h211q-183 120 -183 364q0 126 31 243t95.5 219.5t157 178t224 119t287.5 43.5q306 0 471.5 -151t165.5 -431q0 -98 -21 -185t-55 -151t-79.5 -115.5t-92.5 -83.5t-96 -50h200l-51 -289h-590l54 299q163 35 266.5 193.5t103.5 377.5q0 143 -65.5 215 t-208.5 72q-105 0 -187.5 -43.5t-130.5 -108.5t-79 -149t-41.5 -156t-10.5 -139q0 -106 50.5 -170.5t162.5 -91.5l-53 -299h-588z" />
<glyph unicode="&#x2153;" horiz-adv-x="1878" d="M160 1292l282 142h224l-152 -861h-233l112 631l-160 -74zM268 0l901 1434h271l-901 -1434h-271zM954 127l115 143q84 -46 146 -67t128 -21q71 0 109.5 22.5t38.5 61.5q0 27 -17.5 44.5t-51 26.5t-69 12t-83.5 3h-39l35 197h41q90 0 153.5 18t63.5 58q0 26 -23 40.5 t-61 14.5q-105 0 -250 -74l-80 160q180 108 369 108q142 0 214 -57t72 -145q0 -133 -178 -209q64 -22 104 -77t40 -124q0 -38 -11 -75t-38 -74t-67 -65t-103.5 -45t-141.5 -17q-222 0 -416 141z" />
<glyph unicode="&#x2154;" horiz-adv-x="2105" d="M68 573l16 97q7 41 22.5 78.5t33 65.5t47 57t51.5 47.5t61 43t61 37t64 35.5q27 15 61.5 32.5t54.5 28t43 23t35 21t23.5 19t16 20t4.5 20.5q-3 55 -99 55q-101 0 -250 -82l-88 164q39 22 64.5 34.5t77.5 34.5t109.5 33t117.5 11q147 0 227 -69t80 -169q0 -36 -12 -70 t-29 -60.5t-47.5 -53.5t-56 -45.5t-66.5 -41t-66.5 -35t-68.5 -32.5q-97 -45 -127 -64t-37 -40h424l-33 -195h-714zM518 0l901 1434h271l-902 -1434h-270zM1200 127l115 143q84 -46 146 -67t128 -21q71 0 109.5 22.5t38.5 61.5q0 27 -17.5 44.5t-51 26.5t-69 12t-83.5 3h-39 l34 197h41q90 0 153.5 18t63.5 58q0 26 -23 40.5t-60 14.5q-105 0 -250 -74l-80 160q180 108 368 108q142 0 214.5 -57t72.5 -145q0 -133 -178 -209q64 -22 103.5 -76.5t39.5 -124.5q0 -49 -19 -95t-58.5 -88t-112.5 -67.5t-170 -25.5q-222 0 -416 141z" />
<glyph unicode="&#x2155;" horiz-adv-x="1898" d="M160 1292l282 142h224l-152 -861h-233l112 631l-160 -74zM268 0l901 1434h271l-901 -1434h-271zM977 127l127 145q34 -25 59.5 -40t74 -30.5t99.5 -15.5q68 0 116 28t48 81q0 44 -31.5 67t-89.5 23q-92 0 -170 -49l-131 86l125 438h602l-34 -194h-398l-24 -103 q52 10 94 10q144 0 221.5 -77.5t77.5 -190.5q0 -131 -101.5 -225t-279.5 -94q-214 0 -385 141z" />
<glyph unicode="&#x2156;" horiz-adv-x="2113" d="M68 573l16 97q7 41 22.5 78.5t33 65.5t47 57t51.5 47.5t61 43t61 37t64 35.5q27 15 61.5 32.5t54.5 28t43 23t35 21t23.5 19t16 20t4.5 20.5q-3 55 -99 55q-101 0 -250 -82l-88 164q39 22 64.5 34.5t77.5 34.5t109.5 33t117.5 11q147 0 227 -69t80 -169q0 -36 -12 -70 t-29 -60.5t-47.5 -53.5t-56 -45.5t-66.5 -41t-66.5 -35t-68.5 -32.5q-97 -45 -127 -64t-37 -40h424l-33 -195h-714zM518 0l901 1434h271l-902 -1434h-270zM1221 127l127 145q34 -25 59.5 -40t74 -30.5t99.5 -15.5q68 0 116 28t48 81q0 44 -31.5 67t-89.5 23q-92 0 -170 -49 l-131 86l125 438h602l-35 -194h-397l-25 -103q52 10 95 10q144 0 221.5 -77.5t77.5 -190.5q0 -131 -101.5 -225t-279.5 -94q-214 0 -385 141z" />
<glyph unicode="&#x2157;" horiz-adv-x="2078" d="M70 700l114 144q83 -46 146 -67t129 -21q71 0 109 22.5t38 61.5q0 27 -17.5 44.5t-51 26.5t-69 12t-83.5 3h-39l35 196h41q90 0 153.5 18t63.5 58q0 26 -23 40.5t-61 14.5q-107 0 -250 -73l-80 159q182 109 369 109q142 0 214.5 -57.5t72.5 -145.5q0 -133 -179 -209 q64 -22 104 -76.5t40 -123.5q0 -38 -11 -75.5t-38 -74.5t-67 -64.5t-103.5 -45t-141.5 -17.5q-221 0 -415 141zM469 0l901 1434h270l-901 -1434h-270zM1176 127l127 145q34 -25 59.5 -40t74 -30.5t99.5 -15.5q68 0 116 28t48 81q0 44 -31.5 67t-89.5 23q-92 0 -170 -49 l-131 86l125 438h602l-35 -194h-397l-25 -103q52 10 94 10q145 0 222.5 -77.5t77.5 -190.5q0 -131 -101.5 -225t-279.5 -94q-214 0 -385 141z" />
<glyph unicode="&#x2158;" horiz-adv-x="2164" d="M76 723l28 162l490 549h315l-92 -516h133l-30 -195h-136l-26 -150h-236l27 150h-473zM371 918h211l55 309zM555 0l901 1434h270l-901 -1434h-270zM1260 127l126 145q34 -25 60 -40t74.5 -30.5t99.5 -15.5q68 0 116 28t48 81q0 44 -31.5 67t-89.5 23q-92 0 -170 -49 l-131 86l125 438h602l-35 -194h-397l-25 -103q52 10 94 10q144 0 221.5 -77.5t77.5 -190.5q0 -132 -101 -225.5t-279 -93.5q-214 0 -385 141z" />
<glyph unicode="&#x2159;" horiz-adv-x="1863" d="M160 1292l282 142h224l-152 -861h-233l112 631l-160 -74zM268 0l901 1434h271l-901 -1434h-271zM967 330q0 113 45 213t124.5 173t195 115.5t249.5 42.5q51 0 94.5 -6.5t61.5 -13.5l18 -6l-80 -170q-37 6 -84 6q-112 0 -204.5 -42t-141.5 -132q80 47 185 47 q130 0 208 -71t78 -187q0 -132 -98.5 -222.5t-271.5 -90.5q-179 0 -279 99t-100 245zM1202 313q0 -61 35.5 -99t99.5 -38q69 0 106.5 34t37.5 81q0 42 -31.5 68t-95.5 26q-49 0 -89 -19t-63 -44v-9z" />
<glyph unicode="&#x215a;" horiz-adv-x="2013" d="M76 700l127 146q34 -25 59.5 -40t74 -30.5t99.5 -15.5q68 0 116 27.5t48 80.5q0 44 -31.5 67t-89.5 23q-92 0 -170 -49l-131 86l125 439h602l-35 -195h-397l-24 -102q52 10 94 10q145 0 222 -77.5t77 -190.5q0 -132 -101.5 -226t-279.5 -94q-214 0 -385 141zM438 0 l901 1434h271l-901 -1434h-271zM1130 330q0 113 45 213t125 173t195.5 115.5t249.5 42.5q51 0 94.5 -6.5t61.5 -13.5l18 -6l-80 -170q-37 6 -84 6q-112 0 -204.5 -42t-141.5 -132q80 47 184 47q130 0 208.5 -71t78.5 -187q0 -132 -99 -222.5t-272 -90.5q-179 0 -279 99 t-100 245zM1366 313q0 -61 35.5 -99t99.5 -38q69 0 106.5 34t37.5 81q0 42 -31.5 68t-95.5 26q-49 0 -89 -19t-63 -44v-9z" />
<glyph unicode="&#x215b;" horiz-adv-x="1896" d="M160 1292l282 142h224l-152 -861h-233l112 631l-160 -74zM268 0l901 1434h271l-901 -1434h-271zM961 221q0 165 237 258q-102 73 -102 170q0 99 91 162t255 63q155 0 239 -57t84 -149q0 -119 -170 -207q154 -81 154 -211q0 -119 -111 -191.5t-303 -72.5q-180 0 -277 63 t-97 172zM1200 246q0 -40 36 -62t101 -22q72 0 121 27t49 73q0 69 -118 121q-60 -19 -94.5 -33.5t-64.5 -42t-30 -61.5zM1325 623q0 -49 72 -80q44 13 68.5 22t46.5 28t22 44q0 31 -25.5 49.5t-68.5 18.5q-49 0 -82 -24t-33 -58z" />
<glyph unicode="&#x215c;" horiz-adv-x="2066" d="M70 700l114 144q83 -46 146 -67t129 -21q71 0 109 22.5t38 61.5q0 27 -17.5 44.5t-51 26.5t-69 12t-83.5 3h-39l35 196h41q90 0 153.5 18t63.5 58q0 26 -23 40.5t-61 14.5q-107 0 -250 -73l-80 159q182 109 369 109q142 0 214.5 -57.5t72.5 -145.5q0 -133 -179 -209 q64 -22 104 -76.5t40 -123.5q0 -38 -11 -75.5t-38 -74.5t-67 -64.5t-103.5 -45t-141.5 -17.5q-221 0 -415 141zM469 0l901 1434h270l-901 -1434h-270zM1153 221q0 165 238 258q-103 74 -103 170q0 99 91 162t255 63q155 0 239.5 -57t84.5 -149q0 -119 -170 -207 q154 -81 154 -211q0 -119 -111 -191.5t-303 -72.5q-180 0 -277.5 63t-97.5 172zM1393 246q0 -40 36 -62t101 -22q72 0 121 27t49 73q0 40 -32 68.5t-87 52.5q-35 -11 -57.5 -19.5t-49.5 -21.5t-43 -26t-27 -31t-11 -39zM1518 623q0 -49 71 -80q44 13 68.5 22t46.5 28t22 44 q0 31 -25.5 49.5t-68.5 18.5q-49 0 -81.5 -24t-32.5 -58z" />
<glyph unicode="&#x215d;" horiz-adv-x="2052" d="M76 700l127 146q34 -25 59.5 -40t74 -30.5t99.5 -15.5q68 0 116 27.5t48 80.5q0 44 -31.5 67t-89.5 23q-92 0 -170 -49l-131 86l125 439h602l-35 -195h-397l-24 -102q52 10 94 10q145 0 222 -77.5t77 -190.5q0 -132 -101.5 -226t-279.5 -94q-214 0 -385 141zM438 0 l901 1434h271l-901 -1434h-271zM1133 221q0 165 237 258q-102 73 -102 170q0 99 91 162t255 63q155 0 239 -57t84 -149q0 -119 -170 -207q154 -81 154 -211q0 -119 -111 -191.5t-303 -72.5q-180 0 -277 63t-97 172zM1372 246q0 -40 36 -62t101 -22q72 0 121 27t49 73 q0 69 -118 121q-60 -19 -94.5 -33.5t-64.5 -42t-30 -61.5zM1497 623q0 -49 72 -80q44 13 68.5 22t46.5 28t22 44q0 31 -25.5 49.5t-68.5 18.5q-49 0 -82 -24t-33 -58z" />
<glyph unicode="&#x215e;" horiz-adv-x="1855" d="M131 573q16 86 65 186.5t99.5 174.5t115 152t90.5 105.5t46 47.5h-383l33 195h651l-33 -191l-40.5 -40.5t-93 -104t-122.5 -155t-107 -179.5t-69 -191h-252zM231 0l902 1434h270l-901 -1434h-271zM928 221q0 165 237 258q-102 73 -102 170q0 99 91 162t255 63 q155 0 239.5 -57t84.5 -149q0 -119 -170 -207q153 -80 153 -211q0 -119 -110.5 -191.5t-302.5 -72.5q-180 0 -277.5 63t-97.5 172zM1167 246q0 -40 36.5 -62t101.5 -22q72 0 121 27t49 73q0 40 -32 68.5t-87 52.5q-60 -19 -94.5 -33.5t-64.5 -42t-30 -61.5zM1292 623 q0 -49 72 -80q44 13 68.5 22t46.5 28t22 44q0 31 -25.5 49.5t-68.5 18.5q-49 0 -82 -24t-33 -58z" />
<glyph unicode="&#x2202;" horiz-adv-x="1351" d="M45 444q0 150 72.5 272.5t196 190.5t270.5 68q76 0 141 -19.5t104.5 -47.5t67.5 -55.5t39 -46.5l12 -20q-16 176 -123.5 279.5t-314.5 103.5q-43 0 -90.5 -4t-73.5 -8l-27 -4l5 258q88 23 211 23q173 0 311.5 -57t227.5 -158t136 -237t47 -296q0 -209 -79 -369 t-232.5 -250t-361.5 -90q-252 0 -395.5 125t-143.5 342zM397 434q0 -88 49 -143t160 -55q74 0 131 25t89.5 66.5t48.5 89t16 99.5q0 91 -51 146t-160 55q-70 0 -125.5 -23.5t-89 -63.5t-51 -90t-17.5 -106z" />
<glyph unicode="&#x2206;" horiz-adv-x="1540" d="M-61 0l790 1434h367l286 -1434h-1443zM410 289h628l-170 790z" />
<glyph unicode="&#x220f;" horiz-adv-x="1490" d="M117 0l202 1153h-180l49 281h1377l-49 -281h-185l-203 -1153h-350l205 1153h-313l-205 -1153h-348z" />
<glyph unicode="&#x2211;" horiz-adv-x="1243" d="M-39 0l27 152l637 567l-439 563l29 152h1069l-51 -289h-582l346 -428l-467 -428h551l-51 -289h-1069z" />
<glyph unicode="&#x2212;" d="M104 557l46 252h1050l-45 -252h-1051z" />
<glyph unicode="&#x221a;" horiz-adv-x="1335" d="M16 696h342l113 -385l647 1123h365l-844 -1434h-391z" />
<glyph unicode="&#x221e;" horiz-adv-x="1859" d="M74 502q0 167 113 281t294 114q73 0 135.5 -17.5t120 -56t97 -73.5t98.5 -95q64 50 90 70t76 56.5t79 51t71.5 33t81.5 25t83 6.5q165 0 259.5 -94.5t94.5 -249.5q0 -167 -115 -280t-300 -113q-69 0 -130.5 18t-118 56t-96.5 72.5t-98 92.5q-159 -130 -259.5 -184.5 t-223.5 -54.5q-164 0 -258 94t-94 248zM319 508q0 -63 41 -96t107 -33q64 0 130.5 34t176.5 119q-92 86 -147.5 116t-108.5 30q-89 0 -144 -47.5t-55 -122.5zM1065 524q88 -82 144.5 -113.5t115.5 -31.5q88 0 141.5 48.5t53.5 121.5q0 62 -41 95.5t-105 33.5t-129.5 -34.5 t-179.5 -119.5z" />
<glyph unicode="&#x222b;" horiz-adv-x="817" d="M-139 -293l30 189h41q48 0 84.5 18.5t57 37.5t38.5 67t23 68.5t17 80.5q3 12 4 18l192 1082q29 175 87.5 271t162 137.5t279.5 41.5h116l-30 -188h-43q-35 0 -64.5 -10t-50.5 -24t-38.5 -39.5t-28 -47t-20.5 -56t-14.5 -57t-11.5 -59.5l-190 -1079q-44 -259 -156 -355 t-371 -96h-114z" />
<glyph unicode="&#x2248;" horiz-adv-x="1282" d="M80 412q76 137 158 207.5t190 70.5q59 0 120 -20.5t103 -45t93 -45t94 -20.5q41 0 79 24.5t91 96.5l159 -70q-76 -137 -158 -207.5t-190 -70.5q-59 0 -119.5 20.5t-102 45t-93 45t-94.5 20.5q-42 0 -78.5 -23.5t-89.5 -97.5zM147 803q78 137 160.5 207.5t190.5 70.5 q58 0 118.5 -20.5t102 -45t93 -45t95.5 -20.5q40 0 77.5 24.5t90.5 96.5l162 -70q-80 -138 -162 -208t-190 -70q-58 0 -118.5 20.5t-102 45t-93.5 45t-96 20.5q-40 0 -76.5 -24.5t-89.5 -96.5z" />
<glyph unicode="&#x2260;" horiz-adv-x="1282" d="M70 362l45 252h362l84 144h-422l45 250h523l165 284l211 -84l-116 -200h266l-45 -250h-367l-84 -144h426l-45 -252h-528l-166 -284l-211 84l117 200h-260z" />
<glyph unicode="&#x2264;" horiz-adv-x="1280" d="M-6 0l37 215h1050l-37 -215h-1050zM104 631l35 196l1116 371l-53 -295l-643 -186l578 -191l-47 -264z" />
<glyph unicode="&#x2265;" horiz-adv-x="1280" d="M20 0l39 215h1047l-37 -215h-1049zM66 262l51 295l639 184l-570 189l45 268l983 -371l-34 -196z" />
<glyph unicode="&#x2318;" horiz-adv-x="1538" d="M47 373q0 125 96 205.5t234 80.5h147l25 115h-64q-129 0 -220 86.5t-91 208.5q0 119 88.5 203t214.5 84q123 0 216.5 -84t86.5 -215q-1 -18 -5 -51.5t-5 -47.5h133l25 132q19 105 90.5 181t187.5 83q33 2 74 -4q110 -19 184 -101t74 -188q0 -126 -94.5 -206.5 t-231.5 -80.5h-149l-25 -115h66q129 0 219 -86t90 -208q0 -119 -88 -202t-215 -83t-217 85t-84 214q0 17 4 49t4 47h-131l-24 -131q-21 -119 -101.5 -191.5t-200.5 -72.5q-130 0 -221.5 85.5t-91.5 207.5zM236 369q0 -43 35.5 -74t86.5 -31q46 0 76.5 27.5t38.5 66.5l23 117 h-142q-49 0 -83.5 -31t-34.5 -75zM362 1065q0 -43 35.5 -75t85.5 -32h95q6 25 14 72q10 53 -19 97t-92 44q-51 0 -85 -30.5t-34 -75.5zM717 659h135l20 115h-135zM995 403q-10 -51 19 -95t94 -44q49 0 84 31t35 74q0 44 -35.5 75t-85.5 31h-96zM1094 958h139q49 0 84 32 t35 75q0 44 -35.5 75t-85.5 31q-49 0 -80 -32t-37 -66z" />
<glyph unicode="&#x25ca;" horiz-adv-x="1214" d="M74 717l504 717h344l252 -717l-506 -717h-344zM389 668l131 -394l340 492l-135 391z" />
<glyph unicode="&#xe000;" horiz-adv-x="1075" d="M0 0v1075h1075v-1075h-1075z" />
<glyph unicode="&#xf6c3;" horiz-adv-x="290" d="M-82 -543l143 168h-108l47 262h244l-35 -290l-238 -220z" />
<glyph unicode="&#xf6df;" horiz-adv-x="743" d="M59 74q0 174 101 279.5t250 105.5h8l18 92h162l-23 -123q35 -12 168 -74l-100 -153q-114 63 -188 63q-73 0 -118.5 -48t-45.5 -122q0 -114 102 -114q81 0 201 51l76 -170q-137 -48 -205 -62l-19 -108h-161l16 96q-111 10 -176.5 79.5t-65.5 207.5z" />
<glyph unicode="&#xf6e0;" horiz-adv-x="743" d="M170 1171q0 174 100.5 279.5t249.5 105.5h8l19 93h162l-23 -123q35 -12 168 -74l-100 -154q-116 64 -189 64t-118.5 -48t-45.5 -122q0 -58 27.5 -86.5t75.5 -28.5q81 0 201 51l75 -170q-131 -46 -205 -61l-18 -109h-162l17 97q-112 10 -177 79t-65 207z" />
<glyph unicode="&#xf6e1;" horiz-adv-x="372" d="M-29 -451l127 144h-102l43 237h225l-26 -268l-220 -186z" />
<glyph unicode="&#xf6e2;" horiz-adv-x="372" d="M82 645l127 143h-103l44 238h225l-27 -268l-219 -187z" />
<glyph unicode="&#xf6e3;" horiz-adv-x="876" d="M-2 -180l121 157q186 -104 315 -104q49 0 82 17.5t33 46.5q0 26 -34.5 42.5t-106 36t-113.5 37.5q-193 78 -193 238q0 116 90.5 194.5t251.5 81.5l21 111h166l-25 -129q128 -30 264 -103l-122 -155q-65 32 -144.5 57t-138.5 25q-44 0 -75.5 -16.5t-31.5 -47.5 q0 -25 31 -39.5t101 -33t118 -39.5q41 -17 72 -36.5t61.5 -47.5t47 -67t16.5 -87q0 -117 -94.5 -197.5t-257.5 -83.5l-19 -108h-164l21 125q-163 38 -293 125z" />
<glyph unicode="&#xf6e4;" horiz-adv-x="876" d="M109 915l120 158q186 -104 316 -104q49 0 81.5 17t32.5 46q0 26 -34 42.5t-106 36.5t-113 38q-193 78 -193 237q0 116 90.5 195t251.5 82l20 111h166l-24 -129q128 -30 264 -103l-123 -156q-65 32 -144.5 57t-138.5 25q-45 0 -75.5 -16t-30.5 -47q0 -25 31 -39.5 t101 -33.5t118 -40q41 -17 72 -36t61 -47t46.5 -67t16.5 -87q0 -117 -94.5 -197.5t-257.5 -83.5l-18 -108h-164l20 125q-165 35 -292 124z" />
<glyph unicode="&#xf6e7;" horiz-adv-x="366" d="M-2 -307l43 237h225l-43 -237h-225z" />
<glyph unicode="&#xf6e8;" horiz-adv-x="366" d="M109 788l43 238h225l-43 -238h-225z" />
<glyph unicode="&#xf6e9;" horiz-adv-x="833" d="M137 1026q0 187 90.5 304.5t233.5 117.5q49 0 94.5 -15t67 -28t53.5 -37l12 66h227l-112 -646h-230l11 64q-118 -78 -234 -78q-42 0 -78.5 13.5t-67.5 41.5t-49 78.5t-18 118.5zM371 1047q0 -45 20.5 -69t57.5 -24q42 0 80.5 20t86.5 56l31 172q-60 64 -125 64 q-69 0 -110 -64t-41 -155z" />
<glyph unicode="&#xf6ea;" horiz-adv-x="835" d="M115 788l157 895h230l-56 -313q114 78 228 78q91 0 155 -61.5t64 -192.5q0 -186 -90 -303t-234 -117q-109 0 -215 78l-10 -64h-229zM383 1018q64 -64 129 -64q66 0 105.5 64.5t39.5 155.5q0 92 -82 92q-73 0 -161 -74z" />
<glyph unicode="&#xf6eb;" horiz-adv-x="837" d="M137 1026q0 187 90.5 304.5t233.5 117.5q48 0 92.5 -14t67 -27.5t53.5 -36.5l55 313h229l-157 -895h-230l11 64q-112 -78 -232 -78q-42 0 -78.5 13.5t-67.5 41.5t-49 78.5t-18 118.5zM371 1047q0 -45 20.5 -69t57.5 -24q69 0 163 74l33 176q-58 62 -123 62 q-69 0 -110 -64t-41 -155z" />
<glyph unicode="&#xf6ec;" horiz-adv-x="753" d="M133 1057q0 171 109 281t299 110q131 0 209.5 -54t78.5 -153q0 -50 -22.5 -87.5t-58.5 -58.5t-90.5 -34t-107 -17t-120.5 -4h-74q13 -100 113 -100q90 0 248 70l67 -156q-218 -80 -360 -80q-137 0 -214 68.5t-77 214.5zM362 1157h76q174 0 174 78q0 53 -82 53 q-64 0 -107 -35t-61 -96z" />
<glyph unicode="&#xf6ed;" horiz-adv-x="378" d="M115 788l112 646h230l-113 -646h-229zM238 1503l30 178h236l-31 -178h-235z" />
<glyph unicode="&#xf6ee;" horiz-adv-x="385" d="M117 788l157 895h230l-158 -895h-229z" />
<glyph unicode="&#xf6ef;" horiz-adv-x="1224" d="M115 788l114 646h230l-13 -72q112 86 218 86q146 0 178 -111q40 40 110 75.5t135 35.5q110 0 156 -60.5t27 -168.5l-76 -431h-229l71 398q14 86 -47 86q-34 0 -75 -21.5t-74 -50.5l-72 -412h-229l71 398q18 86 -47 86q-62 0 -145 -70l-74 -414h-229z" />
<glyph unicode="&#xf6f0;" horiz-adv-x="774" d="M131 1077q0 101 41 183.5t129.5 135t210.5 52.5q169 0 267 -80t98 -223q0 -158 -99.5 -264.5t-281.5 -106.5q-169 0 -267 80t-98 223zM367 1077q0 -61 27 -95t93 -34q50 0 86 33.5t51 76.5t15 87q0 61 -27 95t-94 34q-72 0 -111.5 -63.5t-39.5 -133.5z" />
<glyph unicode="&#xf6f1;" horiz-adv-x="577" d="M115 788l114 646h230l-23 -134q11 20 30 41.5t51.5 48t83 41t108.5 11.5l-33 -215q-45 0 -85.5 -12.5t-69.5 -32.5t-53.5 -44.5t-40 -49t-26.5 -44.5t-15 -32l-5 -13l-37 -211h-229z" />
<glyph unicode="&#xf6f2;" horiz-adv-x="712" d="M90 881l92 135q59 -33 134.5 -57.5t138.5 -24.5q71 0 71 37q0 11 -7 19t-23.5 13.5t-32 9.5t-44 10t-48.5 11q-32 9 -56.5 18t-54.5 25.5t-49.5 36.5t-33 51t-13.5 68q0 92 77 153.5t214 61.5q88 0 179.5 -26t158.5 -60l-93 -131q-133 59 -231 59q-72 0 -72 -37 q0 -11 6 -18.5t21.5 -13t30 -9t43 -10t49.5 -12.5q45 -13 75.5 -26t65 -36t52.5 -58t18 -81q0 -95 -80 -155t-221 -60q-104 0 -201 31.5t-166 75.5z" />
<glyph unicode="&#xf6f3;" horiz-adv-x="567" d="M154 1268l28 166h84l29 161l233 25l-32 -186h184l-29 -166h-186l-41 -240q-9 -57 37 -57q31 0 100 22l57 -172q-138 -47 -237 -47q-112 0 -159.5 71.5t-24.5 201.5l39 221h-82z" />
<glyph unicode="&#xf8ff;" horiz-adv-x="1845" d="M146.5 560.5q-2.5 11.5 15.5 21.5l57 41q2 1 3.5 2.5l3 3l2.5 2.5t2 3l1 1q19 16 37 -12l33 -64q6 -12 13 -15.5t13.5 2t10.5 17.5l18 70q6 19 19.5 21t25.5 -13l48 -53q14 -15 23 -11.5t11 23.5l4 70q3 20 15.5 25t27.5 -7l58 -43q17 -12 25.5 -6.5t4.5 25.5l-8 69 q-3 20 8.5 28t28.5 -1l64 -29q19 -9 26.5 -1.5t1.5 26.5l-22 67q-8 19 0.5 29t27.5 4l15 -2q40 -77 70 -202.5t30 -217.5q-15 -18 -34.5 -27.5t-59.5 -9.5h-8q0 46 -33 72q18 -21 18 -55v-15q-32 3 -32 39q0 43 -28 72t-77 29q-41 0 -68.5 -32t-27.5 -79q0 -60 49.5 -96.5 t138.5 -36.5q85 0 172 42t156.5 112t125 154.5t86 175.5t30.5 169q0 59 -36.5 98t-94.5 39q-48 0 -85.5 -33.5t-37.5 -84.5q0 -106 119 -119q-29 -119 -60 -174q-12 96 -43.5 178t-75.5 129q91 -120 107 -330l-29 -41q0 156 -51 287t-131 172q-5 9 2 18.5t22 12.5l70 12 q19 3 21 13.5t-15 21.5l-59 39q-15 13 -13.5 26.5t19.5 20.5l64 29q14 4 19 10.5t0 13.5t-19 12l-64 27q-23 10 -20 29q11 6 14 16l35 62q9 19 20.5 18t16.5 -20l20 -68q6 -21 18.5 -24t26.5 14l47 53q12 15 23 12.5t12 -22.5l4 -72q1 -21 14.5 -26t28.5 8l57 43 q15 12 24 5.5t7 -26.5l-10 -70q-1 -20 10.5 -27.5t28.5 1.5l63 33q19 8 26.5 0t0.5 -29l-23 -64q-6 -20 3 -30t28 -4l70 14q20 6 26.5 -2t-4.5 -27l-37 -59q-12 -17 -5.5 -29.5t26.5 -11.5l72 4q21 0 25 -11t-9 -24l-49 -53q-14 -13 -10.5 -26.5t24.5 -16.5l70 -12 q43 -10 6 -39l-57 -39q-16 -10 -15 -24t21 -21l63 -27q12 -5 16.5 -12t0 -13.5t-16.5 -11.5l-63 -26q-20 -7 -21 -22t15 -25l57 -41q11 -7 14.5 -14.5t-2 -13.5t-18.5 -9l-70 -13q-21 -3 -24.5 -16.5t10.5 -28.5l49 -49q13 -14 9 -24.5t-25 -10.5l-72 5q-20 0 -26.5 -12 t5.5 -29l37 -62q10 -17 4 -25.5t-26 -5.5l-70 19q-18 6 -27.5 -5t-3.5 -30l23 -68q8 -19 0 -26t-27 2l-63 31q-17 9 -28.5 1t-10.5 -30l10 -68q1 -21 -7.5 -25.5t-23.5 7.5l-57 43q-15 12 -28.5 5.5t-14.5 -26.5l-4 -69q-1 -20 -12 -23t-23 11l-47 55q-13 14 -26 12t-19 -22 l-20 -68q-3 -13 -9.5 -18t-14 -1t-13.5 15l-35 61q-9 19 -22 19t-25 -19l-31 -61q-6 -11 -13.5 -15t-14 1t-9.5 18l-20 68q-6 20 -19 22t-26 -12l-47 -55q-12 -14 -22 -11t-13 23l-4 69q-2 20 -15 26.5t-30 -5.5l-54 -43q-17 -13 -26.5 -8t-5.5 26l10 68q1 22 -10.5 30 t-30.5 -1l-62 -31q-19 -9 -26.5 -2t0.5 26l22 68q8 19 -1.5 30t-28.5 5l-70 -19q-20 -3 -26.5 5.5t3.5 25.5l39 62q11 17 4.5 29t-26.5 12l-72 -5q-21 0 -25 10.5t9 24.5l51 49q13 15 9 28.5t-25 16.5l-68 13q-21 4 -23.5 15.5zM623 281q43 -27 122 -27q106 0 212.5 65 t183.5 162t125.5 212t48.5 214q0 63 -41 101q24 -38 24 -84q0 -100 -47.5 -215t-126.5 -215q-85 -105 -188.5 -168.5t-212.5 -63.5q-57 0 -100 19z" />
<glyph unicode="&#xfb06;" horiz-adv-x="1978" d="M-37 147l152 220q96 -53 213.5 -93.5t203.5 -40.5q58 0 94 19.5t36 50.5q0 18 -12 31.5t-41 26t-51.5 20t-71.5 21t-74 20.5q-51 15 -89.5 30t-85.5 42.5t-77 60t-51 81.5t-21 109q0 153 121.5 253t333.5 100q131 0 266 -37q-8 31 -8 72q0 154 123.5 257t341.5 103 q223 0 344 -106t88 -295l-4 -17h288l-40 -246h-291l-84 -460q-9 -58 9 -78.5t54 -20.5q44 0 164 41l82 -258q-204 -76 -367 -76q-166 0 -236.5 109t-35.5 313l76 430h-139l40 246h144l6 37q21 117 -14 175.5t-140 58.5q-111 0 -185.5 -65.5t-74.5 -172.5q0 -58 21 -104 q40 -16 92 -43l-150 -216q-216 99 -356 99q-60 0 -93.5 -19t-33.5 -49q0 -18 11 -31t38 -24.5t49.5 -18.5t69.5 -19.5t74 -20.5q55 -16 96.5 -32.5t89 -44.5t78.5 -61t51.5 -82.5t20.5 -109.5q0 -159 -129.5 -257t-350.5 -98q-160 0 -309.5 50t-255.5 120z" />
<glyph horiz-adv-x="876" d="M98 586l80 170q37 -6 84 -6q111 0 203 41t141 129q-78 -46 -182 -46q-130 0 -208.5 72t-78.5 189q0 132 99 222.5t272 90.5q179 0 279 -99t100 -245q0 -152 -77 -276t-218 -196.5t-320 -72.5q-51 0 -94.5 6.5t-61.5 13.5zM373 1143q0 -42 31.5 -68t95.5 -26q90 0 151 61 v10q0 61 -35.5 99t-99.5 38q-69 0 -106 -33.5t-37 -80.5z" />
<glyph horiz-adv-x="1218" d="M-104 0l510 594l-283 582h348l147 -398l281 398h395l-491 -580l305 -596h-360l-158 387l-287 -387h-407z" />
<glyph horiz-adv-x="1632" d="M-195 -217q50 15 84 27t64.5 26.5t48.5 25t34.5 29.5t25 34t18 43.5t14 52.5t12.5 67l132 741h-144l43 246h146l4 25q32 204 114 298.5t248 94.5q190 0 400 -113l-150 -215q-109 39 -178 39q-79 0 -96 -100l-7 -29h234l-43 -246h-234l-126 -714q-37 -199 -63 -269 q-45 -121 -144 -187q-112 -76 -365 -130zM610 -217q66 21 106.5 35.5t74 35t50 36.5t31.5 49.5t21.5 62.5t17.5 86l131 741h-143l41 246h147l5 25q32 204 113.5 298.5t246.5 94.5q76 0 167.5 -29t156.5 -61l-115 -225q-85 26 -135 26q-79 0 -96 -100l-7 -29h256l-43 -246 h-256l-129 -714q-12 -68 -18 -100.5t-18.5 -86t-23 -77.5t-29 -64.5t-38.5 -59.5t-51 -48t-67.5 -45t-85 -37t-107 -36.5t-131.5 -31.5z" />
<glyph horiz-adv-x="1570" d="M-195 -217q50 15 83.5 27t63.5 26.5t48 25t34 30t24.5 34t17.5 43.5t13.5 52.5t12.5 66.5l136 741h-144l41 246h146l2 4q36 204 125.5 299t257.5 95q199 0 460 -97q86 117 269 117q192 0 397 -113l-150 -215q-34 13 -88.5 26t-87.5 13q-37 0 -62.5 -21.5t-35.5 -78.5 l-6 -29h256l-43 -246h-258l-129 -714q-35 -199 -62 -270q-44 -121 -143 -187q-112 -75 -362 -129l-70 254q66 21 106 35.5t73 35t49.5 36.5t31 49.5t21 62.5t16.5 86l131 741h-406l-129 -714q-35 -199 -62 -270q-44 -121 -143 -187q-112 -75 -362 -129zM618 1075h406l12 68 q-199 41 -299 41q-98 0 -116 -101z" />
<glyph horiz-adv-x="2869" d="M-195 -217q50 15 83.5 27t63.5 26.5t48 25t34 30t24.5 34t17.5 43.5t13.5 52.5t12.5 66.5l136 741h-144l43 246h144l2 4q36 204 125.5 299t257.5 95q201 0 467 -99q91 119 278 119q184 0 416 -80l14 80h336l-94 -530q186 135 368 135q67 0 125.5 -21.5t108.5 -67t79 -127 t29 -190.5q0 -317 -143 -516t-371 -199q-59 0 -112 12t-99 37t-70.5 42t-64.5 47l-20 -115h-336l205 1163q-193 41 -299 41q-101 0 -119 -100l-6 -29h258l-41 -246h-260l-129 -714q-15 -84 -23 -123.5t-24.5 -101.5t-33 -90t-46.5 -70.5t-67 -64t-91 -49.5t-123 -47.5 t-160 -39.5l-71 254q66 21 106 35.5t73 35.5t49 36.5t30.5 49t21 62t17.5 86.5l133 741h-404l-129 -714q-35 -199 -62 -270q-44 -121 -143 -187q-112 -75 -362 -129zM618 1075h404l12 68q-199 41 -297 41t-116 -101zM1976 365q105 -117 219 -117q78 0 137 58t88 149.5 t29 199.5q0 83 -38 128.5t-107 45.5q-67 0 -128 -34t-140 -97z" />
<glyph horiz-adv-x="2863" d="M-195 -217q50 15 83.5 27t63.5 26.5t48 25t34 30t24.5 34t17.5 43.5t13.5 52.5t12.5 66.5l136 741h-144l43 246h144l2 4q36 204 125.5 299t257.5 95q201 0 467 -99q91 119 278 119q184 0 416 -80l14 80h336l-94 -535q212 140 395 140q177 0 250 -103t41 -282l-127 -713 h-338l123 678q13 77 -6 118.5t-86 41.5q-68 0 -152 -38.5t-145 -88.5l-125 -711h-336l205 1163q-193 41 -299 41q-101 0 -119 -100l-6 -29h258l-41 -246h-260l-129 -714q-15 -84 -23 -123.5t-24.5 -101.5t-33 -90t-46.5 -70.5t-67 -64t-91 -49.5t-123 -47.5t-160 -39.5 l-71 254q66 21 106 35.5t73 35.5t49 36.5t30.5 49t21 62t17.5 86.5l133 741h-404l-129 -714q-35 -199 -62 -270q-44 -121 -143 -187q-112 -75 -362 -129zM618 1075h404l12 68q-199 41 -297 41t-116 -101z" />
<glyph horiz-adv-x="2093" d="M-195 -217q50 15 83.5 27t63.5 26.5t48 25t34 30t24.5 34t17.5 43.5t13.5 52.5t12.5 66.5l136 741h-144l43 246h144l2 4q36 204 125.5 299t257.5 95q203 0 469 -99q98 119 292 119q124 0 274 -35t267 -78l-131 -217q-65 13 -168.5 27t-169.5 14q-50 0 -87.5 -23 t-47.5 -77l-6 -29h680l-191 -1075h-336l146 829h-342l-129 -714q-15 -84 -23 -123.5t-24.5 -101.5t-33 -90t-46.5 -70.5t-67 -64t-91 -49.5t-123 -47.5t-160 -39.5l-71 254q66 21 106 35.5t73 35.5t49 36.5t30.5 49t21 62t17.5 86.5l133 741h-404l-129 -714 q-35 -199 -62 -270q-44 -121 -143 -187q-112 -75 -362 -129zM618 1075h404l12 68q-199 41 -297 41t-116 -101z" />
<glyph horiz-adv-x="2076" d="M-195 -217q50 15 83.5 27t63.5 26.5t48 25t34 30t24.5 34t17.5 43.5t13.5 52.5t12.5 66.5l136 741h-144l43 246h144l2 4q36 204 125.5 299t257.5 95q203 0 469 -99q98 119 292 119q124 0 274 -35t267 -78l-131 -217q-65 13 -168.5 27t-169.5 14q-50 0 -87.5 -23 t-47.5 -77l-6 -29h680l-183 -1026q-30 -167 -54 -228q-43 -109 -146 -172q-114 -68 -352 -120l-74 254q65 20 106.5 35t73 32.5t47.5 30.5t28.5 37t17 43.5t11.5 58.5l144 809h-342l-129 -714q-15 -84 -23 -123.5t-24.5 -101.5t-33 -90t-46.5 -70.5t-67 -64t-91 -49.5 t-123 -47.5t-160 -39.5l-71 254q66 21 106 35.5t73 35.5t49 36.5t30.5 49t21 62t17.5 86.5l133 741h-404l-129 -714q-35 -199 -62 -270q-44 -121 -143 -187q-112 -75 -362 -129zM618 1075h404l12 68q-199 41 -297 41t-116 -101z" />
<glyph horiz-adv-x="2775" d="M-195 -217q50 15 83.5 27t63.5 26.5t48 25t34 30t24.5 34t17.5 43.5t13.5 52.5t12.5 66.5l136 741h-144l43 246h144l2 4q36 204 125.5 299t257.5 95q201 0 467 -99q91 119 278 119q184 0 416 -80l14 80h336l-141 -793l344 375h418l-451 -438l319 -637h-339l-203 418 l-166 -160l-45 -258h-336l205 1163q-193 41 -299 41q-101 0 -119 -100l-6 -29h258l-41 -246h-260l-129 -714q-15 -84 -23 -123.5t-24.5 -101.5t-33 -90t-46.5 -70.5t-67 -64t-91 -49.5t-123 -47.5t-160 -39.5l-71 254q66 21 106 35.5t73 35.5t49 36.5t30.5 49t21 62 t17.5 86.5l133 741h-404l-129 -714q-35 -199 -62 -270q-44 -121 -143 -187q-112 -75 -362 -129zM618 1075h404l12 68q-199 41 -297 41t-116 -101z" />
<glyph horiz-adv-x="827" d="M-195 -217q50 15 84 27t64.5 26.5t48.5 25t34.5 29.5t25 34t18 43.5t14 52.5t12.5 67l132 741h-144l43 246h146l4 25q32 204 113.5 298.5t246.5 94.5q77 0 167.5 -28.5t156.5 -61.5l-115 -225q-80 26 -135 26q-79 0 -96 -100l-7 -29h256l-43 -246h-256l-126 -714 q-37 -199 -63 -269q-45 -121 -144 -187q-112 -76 -365 -130z" />
<glyph horiz-adv-x="2162" d="M-195 -217q50 15 83.5 27t63.5 26.5t48 25t34 30t24.5 34t17.5 43.5t13.5 52.5t12.5 66.5l136 741h-144l43 246h144l2 4q36 204 125.5 299t257.5 95q201 0 467 -99q91 119 278 119q184 0 416 -80l14 80h336l-264 -1493h-336l205 1163q-193 41 -299 41q-101 0 -119 -100 l-6 -29h258l-41 -246h-260l-129 -714q-15 -84 -23 -123.5t-24.5 -101.5t-33 -90t-46.5 -70.5t-67 -64t-91 -49.5t-123 -47.5t-160 -39.5l-71 254q66 21 106 35.5t73 35.5t49 36.5t30.5 49t21 62t17.5 86.5l133 741h-404l-129 -714q-35 -199 -62 -270q-44 -121 -143 -187 q-112 -75 -362 -129zM618 1075h404l12 68q-199 41 -297 41t-116 -101z" />
<glyph horiz-adv-x="2400" d="M-195 -217q50 15 83.5 27t63.5 26.5t48 25t34 30t24.5 34t17.5 43.5t13.5 52.5t12.5 66.5l136 741h-144l41 246h146l2 4q36 204 125.5 299t257.5 95q191 0 458 -95q83 115 265 115q194 0 399 -113l-150 -215q-34 13 -88.5 26t-89.5 13q-36 0 -61.5 -21t-36.5 -79l-6 -29 h424l49 271l342 40l-55 -311h286l-39 -246h-292l-82 -460q-11 -58 7 -78.5t54 -20.5q46 0 166 41l82 -258q-210 -76 -367 -76q-166 0 -237.5 109.5t-34.5 312.5l76 430h-422l-129 -714q-15 -84 -23 -123.5t-24.5 -101.5t-33 -90t-46.5 -70.5t-67 -64t-91 -49.5t-123 -47.5 t-160 -39.5l-69 254q66 21 106 35.5t73 35t49.5 36.5t30.5 49.5t20 62.5t16 86l135 741h-404l-129 -714q-35 -199 -62 -270q-44 -121 -143 -187q-112 -75 -362 -129zM618 1075h404l12 68q-205 41 -297 41q-98 0 -116 -101z" />
<glyph horiz-adv-x="2119" d="M-195 -217q50 15 84 26.5t64 26.5t47.5 25.5t34 30t24.5 33.5t17 43.5t13.5 52.5t12.5 67l136 741h-144l43 246h146l4 25q36 203 125 298t256 95q187 0 415 -80l15 80h338l-97 -537q205 142 398 142q177 0 250 -103t41 -282l-127 -713h-338l123 678q13 76 -6.5 118 t-88.5 42q-66 0 -147 -37t-148 -88l-125 -713h-337l204 1163q-199 41 -297 41t-116 -100l-7 -29h256l-43 -246h-256l-129 -714q-37 -198 -62 -267q-43 -121 -140 -187q-112 -77 -367 -132z" />
<glyph horiz-adv-x="1304" d="M76.5 416.5q3.5 59.5 15.5 130.5l111 629h319l-125 -703q-11 -46 -7.5 -86t20 -69.5t58.5 -46.5t107 -17q124 0 185 58t80 161l125 703h319l-125 -715q-15 -85 -39 -152t-68.5 -130t-106.5 -105t-156.5 -67t-215.5 -25q-100 0 -179.5 15t-134.5 41.5t-93 67t-58.5 86.5 t-27.5 105.5t-3.5 119zM455 1518h202q-5 -40 24 -62t87 -22q74 0 122 22.5t54 61.5h207q-20 -124 -121 -193.5t-264 -69.5q-164 0 -246.5 73t-64.5 190z" />
<glyph horiz-adv-x="1353" d="M-195 -217q50 15 84 26.5t64 26.5t47.5 25.5t34 30t24.5 33.5t17 43.5t13.5 52.5t12.5 67l136 741h-144l43 246h146l4 25q38 204 130 298.5t267 94.5q125 0 273.5 -34.5t269.5 -78.5l-131 -217q-65 13 -168.5 27t-169.5 14q-113 0 -131 -100l-6 -29h677l-192 -1075h-334 l146 829h-343l-129 -714q-37 -198 -62 -267q-43 -121 -140 -187q-112 -77 -367 -132z" />
<glyph horiz-adv-x="1335" d="M-195 -217q50 15 84 26.5t64 26.5t47.5 25.5t34 30t24.5 33.5t17 43.5t13.5 52.5t12.5 67l136 741h-144l43 246h146l4 25q38 204 130 298.5t267 94.5q125 0 273.5 -34.5t269.5 -78.5l-131 -217q-65 13 -168.5 27t-169.5 14q-113 0 -131 -100l-6 -29h675l-182 -1026 q-31 -168 -55 -229q-43 -109 -148 -172q-112 -68 -350 -119l-74 254q65 20 106.5 35t73.5 32.5t48 30.5t28.5 37t17 44t11.5 58l143 809h-340l-129 -714q-37 -198 -62 -267q-43 -121 -140 -187q-112 -77 -367 -132z" />
<glyph horiz-adv-x="2031" d="M-195 -217q67 21 107.5 35.5t73.5 35.5t48.5 36t30 50t20.5 61.5t17 86.5l136 741h-144l43 246h146l4 25q36 203 125 298t256 95q187 0 415 -80l15 80h336l-142 -793l344 375h418l-450 -438l319 -637h-340l-203 418l-166 -160l-45 -258h-335l204 1163q-199 41 -297 41 t-116 -100l-7 -29h256l-43 -246h-256l-129 -714q-37 -198 -62 -267q-43 -121 -140 -187q-112 -77 -367 -132z" />
<glyph horiz-adv-x="397" d="M125 788l35 216h229l-35 -216h-229zM221 1079l29 570h280l-174 -570h-135z" />
<glyph horiz-adv-x="1419" d="M-195 -217q67 21 107.5 35.5t73.5 35.5t48.5 36t30 50t20.5 61.5t17 86.5l136 741h-144l43 246h146l4 25q36 203 125 298t256 95q187 0 415 -80l15 80h338l-265 -1493h-337l204 1163q-199 41 -297 41t-116 -100l-7 -29h256l-43 -246h-256l-129 -714q-37 -198 -62 -267 q-43 -121 -140 -187q-112 -77 -367 -132z" />
<glyph horiz-adv-x="1660" d="M-195 -217q50 15 84 26.5t64 26.5t47.5 25.5t34 30t24.5 33.5t17 43.5t13.5 52.5t12.5 67l136 741h-144l43 246h146l4 25q32 204 114 298.5t248 94.5q190 0 400 -113l-150 -215q-109 39 -178 39q-79 0 -96 -100l-7 -29h422l50 271l342 40l-56 -311h289l-41 -246h-293 l-82 -460q-9 -58 9.5 -78.5t54.5 -20.5q46 0 166 41l77 -258q-204 -76 -364 -76q-166 0 -236.5 109t-35.5 313l75 430h-420l-129 -714q-37 -198 -62 -267q-43 -121 -140 -187q-112 -77 -367 -132z" />
<glyph horiz-adv-x="542" d="M-125 -420q62 19 93 31.5t52 34t28 44t15 70.5l74 412h-88l27 166h90q21 129 75 189.5t165 60.5q119 0 260 -72l-103 -145q-75 24 -104 24q-55 0 -64 -57h158l-25 -166h-161l-70 -395q-26 -139 -49 -188q-36 -79 -127 -122q-71 -33 -195 -59z" />
<glyph horiz-adv-x="1304" d="M76.5 416.5q3.5 59.5 15.5 130.5l111 629h319l-125 -703q-11 -46 -7.5 -86t20 -69.5t58.5 -46.5t107 -17q124 0 185 58t80 161l125 703h319l-125 -715q-15 -85 -39 -152t-68.5 -130t-106.5 -105t-156.5 -67t-215.5 -25q-100 0 -179.5 15t-134.5 41.5t-93 67t-58.5 86.5 t-27.5 105.5t-3.5 119zM526 1255l301 287h392l-402 -287h-291z" />
<glyph horiz-adv-x="843" d="M-45 127l127 145q34 -25 59.5 -40t74 -30.5t99.5 -15.5q68 0 116 28t48 81q0 44 -31.5 67t-89.5 23q-92 0 -170 -49l-131 86l125 438h602l-34 -194h-398l-24 -103q52 10 94 10q144 0 221.5 -77.5t77.5 -190.5q0 -131 -101.5 -225t-279.5 -94q-214 0 -385 141z" />
<glyph horiz-adv-x="843" d="M55 700l127 146q34 -25 60 -40t74.5 -30.5t99.5 -15.5q68 0 116 27.5t48 80.5q0 44 -31.5 67t-89.5 23q-92 0 -170 -49l-131 86l125 439h602l-35 -195h-397l-25 -102q52 10 94 10q144 0 221.5 -77.5t77.5 -190.5q0 -132 -101.5 -226t-279.5 -94q-214 0 -385 141z" />
<glyph horiz-adv-x="1251" d="M-84 -61l193 219q184 -140 356 -140q119 0 204 58.5t85 156.5q0 78 -54.5 126.5t-158.5 48.5q-115 0 -267 -84l-190 127l201 725h932l-52 -289h-630l-54 -217q76 18 164 18q114 0 204.5 -35t147 -96t86 -139.5t29.5 -169.5q0 -103 -40.5 -197.5t-115 -169t-192.5 -118.5 t-262 -44q-318 0 -586 220z" />
<glyph horiz-adv-x="1394" d="M158 197l192 219q184 -140 357 -140q118 0 203 58.5t85 157.5q0 77 -54.5 125.5t-158.5 48.5q-70 0 -131.5 -22t-134.5 -62l-190 127l200 725h932l-51 -289h-631l-53 -217q77 18 164 18q114 0 204.5 -35t147 -96t86 -139.5t29.5 -169.5q0 -103 -40.5 -197.5t-115.5 -169 t-193 -118.5t-262 -44q-317 0 -585 220z" />
<glyph horiz-adv-x="397" d="M14 -307l35 215h230l-35 -215h-230zM111 -16l28 569h281l-174 -569h-135z" />
<glyph horiz-adv-x="1765" d="M49 571l103 115q96 -68 200 -68q65 0 109.5 23.5t44.5 69.5q0 77 -113 77q-79 0 -149 -38l-107 67l105 359h508l-23 -156h-350l-23 -92q45 10 86 10q125 0 192.5 -63.5t67.5 -157.5q0 -106 -87 -182t-238 -76q-172 0 -326 112zM369 0l786 1176h205l-789 -1176h-202z M961 182q0 131 204 211q-92 60 -92 142q0 79 79 130.5t216 51.5q130 0 203.5 -47t73.5 -123q0 -97 -150 -170q133 -67 133 -176q0 -94 -94 -153.5t-254 -59.5q-152 0 -235.5 52t-83.5 142zM1151 201q0 -35 34 -53.5t95 -18.5q66 0 112 23t46 61q0 34 -29.5 57t-81.5 45 q-28 -8 -44 -13t-40 -13.5t-37.5 -16.5t-27.5 -19t-20.5 -24t-6.5 -28zM1255 512q0 -45 76 -70q30 8 48.5 14.5t39 16t30 22t9.5 27.5q0 29 -25 44.5t-67 15.5q-49 0 -80 -20t-31 -50z" />
<glyph horiz-adv-x="399" d="M96 788l174 570h136l-29 -570h-281zM238 1434l34 215h230l-35 -215h-229z" />
<glyph horiz-adv-x="1728" d="M49 571l103 115q96 -68 200 -68q65 0 109.5 23.5t44.5 69.5q0 77 -113 77q-79 0 -149 -38l-107 67l105 359h508l-23 -156h-350l-23 -92q45 10 86 10q125 0 192.5 -63.5t67.5 -157.5q0 -106 -87 -182t-238 -76q-172 0 -326 112zM367 0l786 1176h203l-789 -1176h-200z M954 272q0 188 147.5 316.5t373.5 128.5q43 0 79.5 -5.5t51.5 -10.5l16 -5l-61 -135q-33 6 -74 6q-101 0 -184 -37t-125 -114q68 41 165 41q115 0 182.5 -58.5t67.5 -154.5q0 -108 -84.5 -182t-230.5 -74q-155 0 -239.5 81t-84.5 203zM1143 260q0 -50 33 -85.5t92 -35.5 q65 0 101 29.5t36 69.5q0 37 -29.5 59t-89.5 22q-88 0 -143 -55v-4z" />
<glyph horiz-adv-x="399" d="M-14 -307l174 569h135l-29 -569h-280zM127 338l35 215h229l-35 -215h-229z" />
<glyph horiz-adv-x="1304" d="M76.5 416.5q3.5 59.5 15.5 130.5l111 629h319l-125 -703q-11 -46 -7.5 -86t20 -69.5t58.5 -46.5t107 -17q124 0 185 58t80 161l125 703h319l-125 -715q-15 -85 -39 -152t-68.5 -130t-106.5 -105t-156.5 -67t-215.5 -25q-100 0 -179.5 15t-134.5 41.5t-93 67t-58.5 86.5 t-27.5 105.5t-3.5 119z" />
<glyph horiz-adv-x="786" d="M182 1450l35 199h744l-37 -199h-248l-117 -662h-237l116 662h-256z" />
<glyph horiz-adv-x="929" d="M-47 150l29 161l489 549h315l-92 -516h133l-30 -194h-135l-27 -150h-236l27 150h-473zM248 344h211l55 309z" />
<glyph horiz-adv-x="927" d="M53 723l29 162l489 549h316l-92 -516h133l-31 -195h-135l-27 -150h-235l26 150h-473zM348 918h211l55 309z" />
<glyph horiz-adv-x="1394" d="M-76 4l43 242l797 930h465l-158 -883h215l-51 -289h-215l-45 -262h-350l45 262h-746zM350 293h371l100 563z" />
<glyph horiz-adv-x="1394" d="M106 262l46 242l794 930h443l-156 -883h197l-50 -289h-198l-45 -262h-342l45 262h-734zM532 551h359l96 545z" />
<glyph horiz-adv-x="1859" d="M51 596l19 127l430 453h254l-78 -428h117l-23 -152h-121l-22 -125h-191l23 125h-408zM287 748h198l47 270zM463 0l790 1176h203l-788 -1176h-205zM1065 102l102 115q99 -70 201 -70q63 0 108.5 24.5t45.5 70.5q0 77 -115 77q-72 0 -150 -40l-104 69l104 357h508l-22 -154 h-352l-25 -94q48 10 90 10q125 0 192.5 -63t67.5 -156q0 -106 -87 -183t-238 -77q-183 0 -326 114z" />
<glyph horiz-adv-x="575" d="M-25 0l236 776h184l-43 -776h-377zM168 879l47 297h311l-47 -297h-311z" />
<glyph horiz-adv-x="1304" d="M76.5 416.5q3.5 59.5 15.5 130.5l111 629h319l-125 -703q-11 -46 -7.5 -86t20 -69.5t58.5 -46.5t107 -17q124 0 185 58t80 161l125 703h319l-125 -715q-15 -85 -39 -152t-68.5 -130t-106.5 -105t-156.5 -67t-215.5 -25q-100 0 -179.5 15t-134.5 41.5t-93 67t-58.5 86.5 t-27.5 105.5t-3.5 119zM377 1255l268 287h318l167 -287h-212l-123 144l-174 -144h-244z" />
<glyph horiz-adv-x="571" d="M12 0l47 297h312l-47 -297h-312zM143 399l43 777h377l-235 -777h-185z" />
<glyph horiz-adv-x="1316" d="M0 203l35 194h135l184 1037h1035l-54 -295h-684l-49 -279h541l-51 -289h-541l-31 -174h365l-33 -194h-367l-34 -203h-351l35 203h-135z" />
<glyph horiz-adv-x="1177" d="M-10 154l30 174h119l152 848h909l-47 -273h-592l-33 -184h465l-45 -264h-465l-22 -127h315l-31 -174h-317l-27 -154h-319l27 154h-119z" />
<glyph horiz-adv-x="851" d="M2 -195l23 127h88l110 621h664l-33 -199h-426l-27 -135h332l-33 -194h-331l-17 -93h228l-23 -127h-227l-21 -112h-237l18 112h-88z" />
<glyph horiz-adv-x="851" d="M113 901l22 127h88l111 621h663l-32 -199h-426l-27 -135h332l-33 -195h-332l-16 -92h227l-22 -127h-228l-20 -113h-238l19 113h-88z" />
<glyph horiz-adv-x="542" d="M-14 676q62 19 93 31.5t52 34t28 44t15 70.5l74 412h-88l26 166h90q21 129 75 189t165 60q121 0 260 -71l-102 -146q-78 25 -105 25q-54 0 -63 -57h158l-25 -166h-162l-69 -396q-26 -139 -49 -187q-36 -79 -126 -122q-70 -33 -196 -59z" />
<glyph horiz-adv-x="786" d="M72 354l34 199h744l-37 -199h-248l-116 -661h-238l117 661h-256z" />
<glyph horiz-adv-x="1245" d="M12 0l209 1176h320l-31 -177h166q510 0 510 -358q0 -54 -16 -110.5t-54.5 -113.5t-94.5 -101.5t-144 -72.5t-195 -28h-311l-39 -215h-320zM418 477h203q113 0 174 44t61 114q0 100 -186 100h-207z" />
<glyph horiz-adv-x="1077" d="M76 903l47 273h1024l-47 -273h-348l-160 -903h-88q8 -11 17.5 -30t20.5 -56.5t11 -73.5q0 -110 -75 -166.5t-189 -56.5q-117 0 -191 47l90 160q45 -23 97 -23q104 0 104 86q0 47 -33 113h-84l160 903h-356z" />
<glyph horiz-adv-x="1077" d="M76 903l47 273h1024l-47 -273h-348l-160 -903h-320l160 903h-356zM319 1542h213l123 -145l174 145h244l-268 -287h-318z" />
<glyph horiz-adv-x="1091" d="M80 903l47 273h1024l-47 -273h-348l-70 -389h158l-31 -174h-158l-59 -340h-320l60 340h-158l31 174h158l69 389h-356z" />
<glyph horiz-adv-x="948" d="M4 -307l98 559q29 161 126.5 250.5t291.5 89.5q177 0 265.5 -69.5t88.5 -162.5q0 -41 -18 -76.5t-36 -51.5l-19 -15q-3 -1 -14.5 -3t-18 -3.5t-19 -4.5t-20 -6t-18.5 -7t-17.5 -9t-13 -11t-9.5 -13.5t-3 -16.5q0 -19 18 -32t55.5 -32.5t63.5 -41.5q80 -63 80 -146 q0 -89 -81 -151t-206 -62q-144 0 -291 82l94 138q106 -52 181 -52q31 0 50 10t19 27q0 26 -49 47q-76 32 -109 63q-51 49 -51 120q0 77 55 125.5t154 85.5q4 12 4 24q0 32 -32 51t-97 19q-87 0 -132 -41.5t-64 -143.5l-97 -540h-229z" />
<glyph horiz-adv-x="948" d="M115 788l98 560q29 161 126.5 250.5t291.5 89.5q177 0 265.5 -69.5t88.5 -162.5q0 -41 -18.5 -76.5t-36.5 -51.5l-19 -15q-3 -1 -14.5 -3t-18 -3.5t-19 -4.5t-20 -6t-18.5 -7t-17.5 -9t-13 -11t-9.5 -13.5t-3 -16.5q0 -19 18 -32t55.5 -32.5t63.5 -41.5q80 -63 80 -146 q0 -89 -80.5 -151t-205.5 -62q-144 0 -291 82l94 137q104 -51 180 -51q31 0 50.5 10t19.5 27q0 26 -49 47q-73 30 -104 58q-56 50 -56 124q0 77 55 125.5t154 85.5q4 12 4 25q0 69 -129 69q-88 0 -133.5 -41.5t-63.5 -142.5l-96 -541h-229z" />
<glyph horiz-adv-x="833" d="M-31 -516l68 172q175 -49 278 -49q72 0 105 24.5t41 69.5l10 55q-112 -78 -233 -78q-42 0 -78.5 13.5t-67.5 41.5t-49 78.5t-18 118.5q0 187 91 304.5t234 117.5q48 0 92.5 -15t65 -28t53.5 -37l12 66h230l-111 -625q-28 -162 -109 -222t-241 -60q-188 0 -373 53z M258 -49q0 -92 80 -92q42 0 80 19t84 54l30 177q-58 61 -122 61q-69 0 -110.5 -64t-41.5 -155z" />
<glyph horiz-adv-x="1077" d="M76 903l47 273h1024l-47 -273h-348l-160 -903h-320l160 903h-356z" />
<glyph horiz-adv-x="854" d="M96 915l121 158q186 -104 315 -104q49 0 82 17.5t33 45.5q0 26 -34 43t-106.5 36.5t-113.5 37.5q-192 78 -192 237q0 118 93.5 197.5t260.5 79.5q189 0 414 -121l-123 -156q-65 32 -144.5 57t-138.5 25q-45 0 -75.5 -16t-30.5 -47q0 -25 31 -39.5t101 -33.5t118 -40 q41 -17 72 -36t61 -47t46.5 -67t16.5 -87q0 -119 -97.5 -200t-264.5 -81q-122 0 -240.5 41.5t-204.5 99.5z" />
<glyph horiz-adv-x="1304" d="M76.5 416.5q3.5 59.5 15.5 130.5l111 629h319l-125 -703q-11 -46 -7.5 -86t20 -69.5t58.5 -46.5t107 -17q124 0 185 58t80 161l125 703h319l-125 -715q-15 -85 -39 -152t-68.5 -130t-106.5 -105t-156.5 -67t-215.5 -25q-100 0 -179.5 15t-134.5 41.5t-93 67t-58.5 86.5 t-27.5 105.5t-3.5 119zM426 1276l47 262h270l-47 -262h-270zM819 1276l47 262h271l-47 -262h-271z" />
<glyph horiz-adv-x="833" d="M80 580l67 172q178 -50 279 -50q72 0 104.5 24.5t40.5 70.5l11 55q-112 -78 -234 -78q-42 0 -78.5 13.5t-67.5 41.5t-49 78.5t-18 118.5q0 187 91.5 304.5t234.5 117.5q48 0 92.5 -15t65 -28t53.5 -37l12 66h229l-110 -625q-28 -162 -109 -222.5t-241 -60.5 q-185 0 -373 54zM369 1047q0 -93 80 -93q29 0 60.5 12t51.5 25t51 37l31 176q-58 62 -123 62q-69 0 -110 -64t-41 -155z" />
<glyph horiz-adv-x="854" d="M-14 -180l120 157q186 -104 316 -104q49 0 82 17.5t33 46.5q0 26 -34.5 42.5t-106 36t-113.5 37.5q-193 78 -193 238q0 118 93.5 197t260.5 79q189 0 414 -121l-123 -155q-65 32 -144 57t-138 25q-44 0 -75.5 -16.5t-31.5 -47.5q0 -25 31 -39.5t101 -33t118 -39.5 q41 -17 72 -36.5t61.5 -47.5t47 -67t16.5 -87q0 -119 -98 -200t-265 -81q-122 0 -240 41.5t-204 100.5z" />
<glyph horiz-adv-x="1173" d="M-31 172l168 215q266 -141 432 -141q70 0 117 23t47 65q0 36 -46 58t-146.5 50t-161.5 54q-56 24 -98 50t-81.5 64t-61 90t-21.5 115q0 160 131 269.5t358 109.5q267 0 568 -166l-166 -213q-226 113 -390 113q-66 0 -109.5 -21.5t-43.5 -62.5q0 -22 17.5 -38t52.5 -28.5 t74 -23t96 -28.5t104 -38q54 -23 95.5 -47t85 -62t67.5 -92.5t24 -121.5q0 -77 -34.5 -146t-97.5 -122t-160 -84t-214 -31q-168 0 -327 55.5t-279 134.5zM266 -543l144 168h-109l47 262h244l-35 -290l-238 -220z" />
<glyph horiz-adv-x="1304" d="M76.5 416.5q3.5 59.5 15.5 130.5l111 629h319l-125 -703q-11 -46 -7.5 -86t20 -69.5t58.5 -46.5t107 -17q124 0 185 58t80 161l125 703h319l-125 -715q-15 -85 -39 -152t-68.5 -130t-106.5 -105t-156.5 -67t-215.5 -25q-100 0 -179.5 15t-134.5 41.5t-93 67t-58.5 86.5 t-27.5 105.5t-3.5 119zM410 1542h354l209 -287h-260z" />
<glyph horiz-adv-x="1304" d="M76.5 416.5q3.5 59.5 15.5 130.5l111 629h319l-125 -703q-11 -46 -7.5 -86t20 -69.5t58.5 -46.5t107 -17q124 0 185 58t80 161l125 703h319l-125 -715q-15 -85 -39 -152t-68.5 -130t-106.5 -105t-156.5 -67t-215.5 -25q-100 0 -179.5 15t-134.5 41.5t-93 67t-58.5 86.5 t-27.5 105.5t-3.5 119zM434 1255l211 287h301l-311 -287h-201zM809 1255l213 287h299l-313 -287h-199z" />
<glyph horiz-adv-x="1173" d="M-31 172l168 215q266 -141 432 -141q70 0 117 23t47 65q0 36 -46 58t-146.5 50t-161.5 54q-56 24 -98 50t-81.5 64t-61 90t-21.5 115q0 160 131 269.5t358 109.5q267 0 568 -166l-166 -213q-226 113 -390 113q-66 0 -109.5 -21.5t-43.5 -62.5q0 -22 17.5 -38t52.5 -28.5 t74 -23t96 -28.5t104 -38q54 -23 95.5 -47t85 -62t67.5 -92.5t24 -121.5q0 -77 -34.5 -146t-97.5 -122t-160 -84t-214 -31q-168 0 -327 55.5t-279 134.5zM330 1255l268 287h317l168 -287h-213l-122 144l-175 -144h-243z" />
<glyph horiz-adv-x="1173" d="M-31 172l168 215q266 -141 432 -141q70 0 117 23t47 65q0 36 -46 58t-146.5 50t-161.5 54q-56 24 -98 50t-81.5 64t-61 90t-21.5 115q0 160 131 269.5t358 109.5q267 0 568 -166l-166 -213q-226 113 -390 113q-66 0 -109.5 -21.5t-43.5 -62.5q0 -22 17.5 -38t52.5 -28.5 t74 -23t96 -28.5t104 -38q54 -23 95.5 -47t85 -62t67.5 -92.5t24 -121.5q0 -152 -122.5 -260.5t-333.5 -120.5q39 -71 39 -144q0 -109 -75.5 -166t-189.5 -57q-116 0 -190 47l90 160q45 -23 96 -23q105 0 105 86q0 39 -27 101q-141 14 -272.5 65.5t-231.5 118.5z" />
<glyph horiz-adv-x="827" d="M4 -307l158 895h229l-55 -318q126 82 242 82q114 0 160.5 -62.5t25.5 -174.5l-74 -422h-229l69 397q8 42 -2 64t-49 22q-43 0 -92.5 -20.5t-81.5 -51.5l-72 -411h-229z" />
<glyph horiz-adv-x="1173" d="M-31 172l168 215q266 -141 432 -141q70 0 117 23t47 65q0 36 -46 58t-146.5 50t-161.5 54q-56 24 -98 50t-81.5 64t-61 90t-21.5 115q0 160 131 269.5t358 109.5q267 0 568 -166l-166 -213q-226 113 -390 113q-66 0 -109.5 -21.5t-43.5 -62.5q0 -22 17.5 -38t52.5 -28.5 t74 -23t96 -28.5t104 -38q54 -23 95.5 -47t85 -62t67.5 -92.5t24 -121.5q0 -77 -34.5 -146t-97.5 -122t-160 -84t-214 -31q-168 0 -327 55.5t-279 134.5zM377 1542h213l123 -145l174 145h243l-268 -287h-317z" />
<glyph horiz-adv-x="950" d="M63.5 -38q2.5 62 12.5 132l82 459h237l-92 -514q-14 -77 11.5 -118.5t113.5 -41.5q90 0 131.5 41.5t56.5 118.5l91 514h237l-92 -524q-14 -80 -39.5 -138.5t-72.5 -109t-125.5 -77t-186.5 -26.5q-102 0 -174.5 21t-111.5 59t-60 90t-18.5 114z" />
<glyph horiz-adv-x="1173" d="M-31 172l168 215q266 -141 432 -141q70 0 117 23t47 65q0 36 -46 58t-146.5 50t-161.5 54q-56 24 -98 50t-81.5 64t-61 90t-21.5 115q0 160 131 269.5t358 109.5q267 0 568 -166l-166 -213q-226 113 -390 113q-66 0 -109.5 -21.5t-43.5 -62.5q0 -22 17.5 -38t52.5 -28.5 t74 -23t96 -28.5t104 -38q54 -23 95.5 -47t85 -62t67.5 -92.5t24 -121.5q0 -77 -34.5 -146t-97.5 -122t-160 -84t-214 -31q-168 0 -327 55.5t-279 134.5zM477 1255l301 287h391l-401 -287h-291z" />
<glyph horiz-adv-x="1173" d="M-31 172l168 215q266 -141 432 -141q70 0 117 23t47 65q0 36 -46 58t-146.5 50t-161.5 54q-56 24 -98 50t-81.5 64t-61 90t-21.5 115q0 160 131 269.5t358 109.5q267 0 568 -166l-166 -213q-226 113 -390 113q-66 0 -109.5 -21.5t-43.5 -62.5q0 -22 17.5 -38t52.5 -28.5 t74 -23t96 -28.5t104 -38q54 -23 95.5 -47t85 -62t67.5 -92.5t24 -121.5q0 -77 -34.5 -146t-97.5 -122t-160 -84t-214 -31q-168 0 -327 55.5t-279 134.5z" />
<glyph horiz-adv-x="942" d="M131 788l152 861h395q181 0 270.5 -66.5t89.5 -189.5q0 -103 -68.5 -183.5t-199.5 -101.5l160 -320h-246l-143 314h-117l-55 -314h-238zM457 1284h174q78 0 122 28.5t44 80.5q0 43 -33.5 58t-101.5 15h-175z" />
<glyph horiz-adv-x="942" d="M20 -307l152 860h395q181 0 271 -66.5t90 -189.5q0 -103 -69 -183.5t-200 -101.5l160 -319h-246l-143 313h-117l-55 -313h-238zM346 188h174q78 0 122 28.5t44 80.5q0 43 -33.5 58.5t-101.5 15.5h-174z" />
<glyph horiz-adv-x="1292" d="M12 0l209 1176h541q498 0 498 -340q0 -58 -21 -118t-63.5 -118t-117.5 -102t-171 -60l223 -438h-334l-196 428h-170l-78 -428h-320zM303 -543l143 168h-108l47 262h244l-35 -290l-238 -220zM453 676h243q110 0 171 40.5t61 112.5q0 39 -27.5 62t-66.5 30t-97 7h-239z" />
<glyph horiz-adv-x="1292" d="M12 0l209 1176h541q498 0 498 -340q0 -58 -21 -118t-63.5 -118t-117.5 -102t-171 -60l223 -438h-334l-196 428h-170l-78 -428h-320zM453 676h243q110 0 171 40.5t61 112.5q0 39 -27.5 62t-66.5 30t-97 7h-239zM453 1542h213l122 -145l175 145h243l-268 -287h-317z" />
<glyph horiz-adv-x="1292" d="M12 0l209 1176h541q498 0 498 -340q0 -58 -21 -118t-63.5 -118t-117.5 -102t-171 -60l223 -438h-334l-196 428h-170l-78 -428h-320zM453 676h243q110 0 171 40.5t61 112.5q0 39 -27.5 62t-66.5 30t-97 7h-239zM551 1255l301 287h391l-401 -287h-291z" />
<glyph horiz-adv-x="378" d="M4 -307l113 645h229l-113 -645h-229zM127 408l31 178h235l-31 -178h-235z" />
<glyph horiz-adv-x="1292" d="M12 0l209 1176h541q498 0 498 -340q0 -58 -21 -118t-63.5 -118t-117.5 -102t-171 -60l223 -438h-334l-196 428h-170l-78 -428h-320zM453 676h243q110 0 171 40.5t61 112.5q0 39 -27.5 62t-66.5 30t-97 7h-239z" />
<glyph horiz-adv-x="1009" d="M162 1161q-1 53 10.5 112.5t44.5 131t83.5 127.5t137.5 93.5t197 37.5q216 0 332 -101t118 -286q1 -52 -11.5 -112t-40.5 -128t-84 -128.5t-132 -94.5l115 -100l-166 -146l-188 207q-199 9 -306.5 109.5t-109.5 277.5zM406 1165q0 -95 46 -143.5t148 -48.5q64 0 113.5 30 t76 77t39.5 95t13 93q0 194 -195 194q-64 0 -113.5 -30t-76 -77.5t-39 -95.5t-12.5 -94z" />
<glyph horiz-adv-x="1304" d="M76.5 416.5q3.5 59.5 15.5 130.5l111 629h319l-125 -703q-11 -46 -7.5 -86t20 -69.5t58.5 -46.5t107 -17q124 0 185 58t80 161l125 703h319l-125 -715q-15 -85 -39 -152t-68.5 -130t-106.5 -105t-156.5 -67t-215.5 -25q-100 0 -179.5 15t-134.5 41.5t-93 67t-58.5 86.5 t-27.5 105.5t-3.5 119zM446 1307l33 192h635l-33 -192h-635z" />
<glyph horiz-adv-x="1306" d="M74.5 373q0.5 77 17.5 174l111 629h319l-125 -703q-11 -46 -7.5 -86t20 -69.5t58.5 -46.5t107 -17q124 0 185 58t80 161l125 703h319l-125 -715q-16 -89 -42.5 -158.5t-72 -133t-118 -106.5t-170.5 -63q-221 -111 -221 -203q0 -14 5 -24t16 -16t21 -9.5t26.5 -4.5 t26 -1.5t27 0t21.5 0.5l-55 -148h-14q-18 1 -41.5 0t-51 3t-55.5 9t-54 18t-46 30t-32 45.5t-12 64.5q0 123 199 220q-124 5 -212 37t-137 81t-71 121.5t-21.5 149.5z" />
<glyph horiz-adv-x="1009" d="M51 66q-1 53 10.5 112.5t44.5 130.5t83.5 127t137.5 93.5t197 37.5q216 0 332.5 -101t118.5 -286q1 -52 -11.5 -112t-40.5 -128t-84 -128.5t-132 -94.5l114 -100l-166 -145l-188 206q-199 9 -306.5 110t-109.5 278zM295 70q0 -95 46.5 -144t147.5 -49q64 0 113.5 30 t76 77t39.5 95t13 93q0 195 -194 195q-64 0 -113.5 -30t-76 -77.5t-39.5 -95.5t-13 -94z" />
<glyph horiz-adv-x="753" d="M23 -39q0 171 108.5 281t298.5 110q131 0 210 -54t79 -153q0 -62 -32.5 -104t-93.5 -62t-124.5 -27t-149.5 -7h-73q13 -101 112 -101q90 0 248 70l68 -156q-218 -80 -361 -80q-137 0 -213.5 68.5t-76.5 214.5zM252 61h76q174 0 174 78q0 25 -20.5 39.5t-61.5 14.5 q-64 0 -107 -35.5t-61 -96.5z" />
<glyph horiz-adv-x="1392" d="M55 510q0 50 7.5 106.5t28 124t52 130t83.5 122.5t117.5 104t159 70.5t202.5 26.5q299 0 458.5 -138t161.5 -392q0 -57 -10 -119.5t-36 -139t-66.5 -143.5t-107.5 -129.5t-151 -99.5l158 -137l-225 -199l-258 285q-279 10 -426.5 147t-147.5 381zM385 518 q0 -131 65.5 -198.5t208.5 -67.5q72 0 130.5 27.5t95.5 70.5t62 98t35.5 106.5t10.5 100.5q0 131 -65.5 199t-208.5 68q-72 0 -130.5 -28t-95.5 -71t-62 -98t-35.5 -107t-10.5 -100z" />
<glyph horiz-adv-x="892" d="M131 788l152 861h364q181 0 272 -67t91 -191q0 -60 -22.5 -115.5t-65.5 -101.5t-114.5 -73.5t-160.5 -27.5h-227l-51 -285h-238zM453 1266h145q77 0 122.5 28t45.5 82q0 46 -33.5 62t-101.5 16h-144z" />
<glyph horiz-adv-x="892" d="M20 -307l152 860h365q181 0 271.5 -67t90.5 -191q0 -60 -22.5 -115.5t-65 -101.5t-114 -73.5t-160.5 -27.5h-228l-51 -284h-238zM342 170h145q77 0 122.5 28.5t45.5 82.5q0 46 -33 61.5t-102 15.5h-143z" />
<glyph horiz-adv-x="389" d="M-164 -424q80 24 113.5 41t45 36t19.5 62l111 623h229l-106 -602q-10 -58 -16 -85t-21 -67t-37 -59.5t-60 -44.5t-93.5 -41.5t-133.5 -32.5zM133 408l31 178h239l-32 -178h-238z" />
<glyph horiz-adv-x="1394" d="M150 362q0 66 22 124.5t57 103t87 84t104.5 67.5t116.5 54q-166 118 -166 284q0 167 144 272t398 105q237 0 368.5 -93t131.5 -245q0 -209 -285 -350q113 -60 180.5 -145t67.5 -209q0 -197 -176 -317t-477 -120q-273 0 -423 102t-150 283zM506 399q0 -72 59.5 -115.5 t163.5 -43.5q122 0 206.5 55.5t84.5 138.5q0 122 -199 215q-53 -18 -92.5 -33.5t-84 -39t-73 -48t-47 -58t-18.5 -71.5zM707 1042q0 -49 35 -83.5t98 -65.5q109 36 168 78t59 106q0 51 -42 88t-116 37q-86 0 -144 -48.5t-58 -111.5z" />
<glyph horiz-adv-x="1228" d="M12 0l209 1176h481q259 0 387 -91.5t128 -267.5q0 -55 -16 -111t-54 -114t-94 -102.5t-144 -72.5t-196 -28h-312l-69 -389h-320zM446 651h205q113 0 173.5 44t60.5 114q0 100 -183 100h-210z" />
<glyph horiz-adv-x="1390" d="M55 510q0 50 7.5 106.5t28 124t52 130t83.5 122.5t117.5 104t159 70.5t202.5 26.5q299 0 458.5 -138t161.5 -392q0 -50 -8 -106.5t-28.5 -124t-52.5 -130t-84 -122.5t-117 -104t-158.5 -70.5t-202.5 -26.5q-299 0 -459 138.5t-160 391.5zM385 518q0 -131 65.5 -198.5 t208.5 -67.5q72 0 130.5 27.5t95.5 70.5t62 98t35.5 106.5t10.5 100.5q0 131 -65.5 199t-208.5 68q-72 0 -130.5 -28t-95.5 -71t-62 -98t-35.5 -107t-10.5 -100zM440 1352q30 44 45.5 65t43.5 53.5t50.5 47t54.5 26.5t68 12q47 0 99 -24.5t96 -49t72 -24.5q53 0 125 98 l135 -90q-30 -44 -45.5 -66t-43.5 -54t-50.5 -47t-54.5 -27t-68 -12q-47 0 -99 24.5t-96 49t-72 24.5q-53 0 -125 -96z" />
<glyph horiz-adv-x="1009" d="M162 1161q-1 53 10.5 112.5t44.5 131t83.5 127.5t137.5 93.5t197 37.5q216 0 332 -101t118 -286q1 -53 -10.5 -112.5t-44.5 -131t-83.5 -127.5t-137.5 -93.5t-197 -37.5q-216 0 -332 101t-118 286zM406 1165q0 -95 46 -143.5t148 -48.5q64 0 113.5 30t76 77t39.5 95 t13 93q0 194 -195 194q-64 0 -113.5 -30t-76 -77.5t-39 -95.5t-12.5 -94z" />
<glyph horiz-adv-x="778" d="M4 -307l158 895h227l-80 -457l195 207h282l-280 -264l205 -381h-232l-123 241l-98 -92l-27 -149h-227z" />
<glyph horiz-adv-x="778" d="M115 788l157 895h228l-80 -456l194 207h283l-281 -265l205 -381h-231l-123 240l-98 -92l-27 -148h-227z" />
<glyph horiz-adv-x="1388" d="M-14 0l174 172q-107 128 -107 338q0 50 7.5 106.5t28 124t52 130t83.5 122.5t117 104t158.5 70.5t202.5 26.5q238 0 394 -92l73 74h220l-177 -175q108 -129 111 -337q0 -50 -8 -106.5t-28.5 -124t-52.5 -130t-84 -122.5t-117 -104t-158.5 -70.5t-202.5 -26.5 q-242 0 -398 92l-71 -72h-217zM383 518q0 -64 14 -110l482 479q-62 35 -162 35q-72 0 -130.5 -28t-95.5 -71t-62 -98t-35.5 -107t-10.5 -100zM492 287q57 -35 165 -35q72 0 130.5 27.5t95.5 70.5t62 98t35.5 106.5t10.5 100.5q0 58 -16 111zM575 1255l302 287h391l-402 -287 h-291z" />
<glyph horiz-adv-x="1353" d="M23 362q0 66 22 124.5t57 103t87 84t104.5 67.5t116.5 54q-166 118 -166 284q0 167 144 272t398 105q237 0 368.5 -93t131.5 -245q0 -209 -285 -350q113 -60 180.5 -145t67.5 -209q0 -197 -176 -317t-477 -120q-273 0 -423 102t-150 283zM379 399q0 -72 59.5 -115.5 t163.5 -43.5q122 0 206.5 55.5t84.5 138.5q0 122 -199 215q-53 -18 -92.5 -33.5t-84 -39t-73 -48t-47 -58t-18.5 -71.5zM580 1042q0 -49 35 -83.5t98 -65.5q109 36 168 78t59 106q0 51 -42 88t-116 37q-86 0 -144 -48.5t-58 -111.5z" />
<glyph horiz-adv-x="1390" d="M55 510q0 50 7.5 106.5t28 124t52 130t83.5 122.5t117.5 104t159 70.5t202.5 26.5q299 0 458.5 -138t161.5 -392q0 -50 -8 -106.5t-28.5 -124t-52.5 -130t-84 -122.5t-117 -104t-158.5 -70.5t-202.5 -26.5q-299 0 -459 138.5t-160 391.5zM385 518q0 -131 65.5 -198.5 t208.5 -67.5q72 0 130.5 27.5t95.5 70.5t62 98t35.5 106.5t10.5 100.5q0 131 -65.5 199t-208.5 68q-72 0 -130.5 -28t-95.5 -71t-62 -98t-35.5 -107t-10.5 -100zM496 1307l32 192h635l-33 -192h-634z" />
<glyph horiz-adv-x="1009" d="M51 66q-1 53 10.5 112.5t44.5 130.5t83.5 127t137.5 93.5t197 37.5q216 0 332.5 -101t118.5 -286q1 -53 -10.5 -112.5t-44.5 -131t-83.5 -127.5t-137.5 -93.5t-197 -37.5q-216 0 -332.5 101.5t-118.5 286.5zM295 70q0 -95 46.5 -144t147.5 -49q64 0 113.5 30t76 77 t39.5 95t13 93q0 195 -194 195q-64 0 -113.5 -30t-76 -77.5t-39.5 -95.5t-13 -94z" />
<glyph horiz-adv-x="1390" d="M55 510q0 50 7.5 106.5t28 124t52 130t83.5 122.5t117.5 104t159 70.5t202.5 26.5q299 0 458.5 -138t161.5 -392q0 -50 -8 -106.5t-28.5 -124t-52.5 -130t-84 -122.5t-117 -104t-158.5 -70.5t-202.5 -26.5q-299 0 -459 138.5t-160 391.5zM385 518q0 -131 65.5 -198.5 t208.5 -67.5q72 0 130.5 27.5t95.5 70.5t62 98t35.5 106.5t10.5 100.5q0 131 -65.5 199t-208.5 68q-72 0 -130.5 -28t-95.5 -71t-62 -98t-35.5 -107t-10.5 -100zM489 1255l211 287h301l-311 -287h-201zM864 1255l213 287h299l-313 -287h-199z" />
<glyph horiz-adv-x="1390" d="M55 510q0 50 7.5 106.5t28 124t52 130t83.5 122.5t117.5 104t159 70.5t202.5 26.5q299 0 458.5 -138t161.5 -392q0 -50 -8 -106.5t-28.5 -124t-52.5 -130t-84 -122.5t-117 -104t-158.5 -70.5t-202.5 -26.5q-299 0 -459 138.5t-160 391.5zM385 518q0 -131 65.5 -198.5 t208.5 -67.5q72 0 130.5 27.5t95.5 70.5t62 98t35.5 106.5t10.5 100.5q0 131 -65.5 199t-208.5 68q-72 0 -130.5 -28t-95.5 -71t-62 -98t-35.5 -107t-10.5 -100zM465 1542h354l209 -287h-260z" />
<glyph horiz-adv-x="899" d="M90 795q0 165 238 258q-103 74 -103 170q0 99 91 162t255 63q155 0 239.5 -57.5t84.5 -149.5q0 -119 -170 -207q154 -81 154 -211q0 -119 -111 -191.5t-303 -72.5q-180 0 -277.5 63.5t-97.5 172.5zM330 819q0 -40 36 -62t101 -22q72 0 121 27.5t49 73.5q0 40 -32 67.5 t-87 52.5q-35 -11 -57.5 -19.5t-49.5 -21.5t-43 -26t-27 -31t-11 -39zM455 1196q0 -49 71 -80q33 9 52 16t42 18t33.5 26t10.5 34q0 31 -26 49.5t-69 18.5q-49 0 -81.5 -24t-32.5 -58z" />
<glyph horiz-adv-x="385" d="M6 -307l158 895h229l-157 -895h-230z" />
<glyph horiz-adv-x="897" d="M-16 221q0 165 237 258q-102 73 -102 170q0 99 91 162t255 63q155 0 239 -57t84 -149q0 -119 -170 -207q154 -81 154 -211q0 -119 -111 -191.5t-303 -72.5q-180 0 -277 63t-97 172zM223 246q0 -40 36 -62t101 -22q72 0 121 27t49 73q0 69 -118 121q-60 -19 -94.5 -33.5 t-64.5 -42t-30 -61.5zM348 623q0 -49 72 -80q44 13 68.5 22t46.5 28t22 44q0 31 -25.5 49.5t-68.5 18.5q-49 0 -82 -24t-33 -58z" />
<glyph horiz-adv-x="1085" d="M-12 0l39 213q7 1 18 4.5t42.5 15.5t59 27.5t58.5 43.5t49 61h-184l24 133h185q-2 19 -15 63h-160l25 135h82q-31 95 -31 166q0 152 107 242t297 90q251 0 497 -186l-155 -185q-158 105 -281 105q-71 0 -109 -28.5t-38 -74.5q0 -7 0.5 -14t1.5 -12.5t3 -13t3 -12t4 -13.5 t4.5 -12t5.5 -13l5 -12.5t6 -13.5t6 -13h344l-25 -135h-272q4 -32 4 -51v-12h258l-25 -133h-280q-44 -67 -107 -101h486l-48 -264h-884z" />
<glyph horiz-adv-x="782" d="M-4 -307l27 155q5 1 13.5 3.5t31.5 12t43 21t42 32.5t35 46h-133l17 92h133q-2 18 -10 49h-113l16 95h62q-25 66 -25 125q0 113 77.5 178t213.5 65q61 0 117.5 -12.5t105 -36.5t79 -42.5t67.5 -45.5l-117 -135q-118 78 -203 78q-49 0 -76.5 -22t-27.5 -54q0 -30 35 -98 h241l-16 -95h-187q5 -30 5 -38v-11h174l-17 -92h-194q-28 -37 -86 -76h348l-35 -194h-643z" />
<glyph horiz-adv-x="782" d="M106 788l27 156q5 1 13.5 3.5t31.5 12t43.5 21t42.5 32.5t35 46h-133l16 92h133q-2 18 -10 49h-112l16 94h61q-24 63 -24 125q0 113 77.5 178.5t213.5 65.5q61 0 117.5 -12.5t105 -36.5t78 -42.5t67.5 -45.5l-117 -135q-116 77 -202 77q-49 0 -77 -21.5t-28 -53.5 q0 -31 35 -99h242l-17 -94h-186q4 -24 4 -39v-10h174l-16 -92h-195q-28 -37 -86 -76h348l-34 -195h-644z" />
<glyph horiz-adv-x="1390" d="M55 510q0 50 7.5 106.5t28 124t52 130t83.5 122.5t117.5 104t159 70.5t202.5 26.5q299 0 458.5 -138t161.5 -392q0 -50 -8 -106.5t-28.5 -124t-52.5 -130t-84 -122.5t-117 -104t-158.5 -70.5t-202.5 -26.5q-299 0 -459 138.5t-160 391.5zM385 518q0 -131 65.5 -198.5 t208.5 -67.5q72 0 130.5 27.5t95.5 70.5t62 98t35.5 106.5t10.5 100.5q0 131 -65.5 199t-208.5 68q-72 0 -130.5 -28t-95.5 -71t-62 -98t-35.5 -107t-10.5 -100zM479 1276l47 262h271l-47 -262h-271zM872 1276l48 262h270l-47 -262h-271z" />
<glyph horiz-adv-x="1390" d="M55 510q0 50 7.5 106.5t28 124t52 130t83.5 122.5t117.5 104t159 70.5t202.5 26.5q299 0 458.5 -138t161.5 -392q0 -50 -8 -106.5t-28.5 -124t-52.5 -130t-84 -122.5t-117 -104t-158.5 -70.5t-202.5 -26.5q-299 0 -459 138.5t-160 391.5zM385 518q0 -131 65.5 -198.5 t208.5 -67.5q72 0 130.5 27.5t95.5 70.5t62 98t35.5 106.5t10.5 100.5q0 131 -65.5 199t-208.5 68q-72 0 -130.5 -28t-95.5 -71t-62 -98t-35.5 -107t-10.5 -100zM432 1255l268 287h318l168 -287h-213l-123 144l-174 -144h-244z" />
<glyph horiz-adv-x="1304" d="M76.5 416.5q3.5 59.5 15.5 130.5l111 629h319l-125 -703q-11 -46 -7.5 -86t20 -69.5t58.5 -46.5t107 -17q124 0 185 58t80 161l125 703h319l-125 -715q-15 -85 -39 -152t-68.5 -130t-106.5 -105t-156.5 -67t-215.5 -25q-100 0 -179.5 15t-134.5 41.5t-93 67t-58.5 86.5 t-27.5 105.5t-3.5 119zM551 1468q0 98 68.5 167t166.5 69q97 0 165.5 -69t68.5 -167q0 -97 -68.5 -165t-165.5 -68q-98 0 -166.5 68t-68.5 165zM709 1468q0 -33 22 -55t55 -22q32 0 55 22.5t23 54.5q0 34 -23 57t-55 23q-33 0 -55 -23t-22 -57z" />
<glyph horiz-adv-x="1390" d="M55 510q0 50 7.5 106.5t28 124t52 130t83.5 122.5t117.5 104t159 70.5t202.5 26.5q299 0 458.5 -138t161.5 -392q0 -50 -8 -106.5t-28.5 -124t-52.5 -130t-84 -122.5t-117 -104t-158.5 -70.5t-202.5 -26.5q-299 0 -459 138.5t-160 391.5zM385 518q0 -131 65.5 -198.5 t208.5 -67.5q72 0 130.5 27.5t95.5 70.5t62 98t35.5 106.5t10.5 100.5q0 131 -65.5 199t-208.5 68q-72 0 -130.5 -28t-95.5 -71t-62 -98t-35.5 -107t-10.5 -100zM506 1518h203q-5 -40 23.5 -62t86.5 -22q74 0 122 22.5t54 61.5h207q-20 -124 -121 -193.5t-264 -69.5 q-164 0 -246.5 73t-64.5 190z" />
<glyph horiz-adv-x="950" d="M174 1078.5q1 50.5 12 111.5l82 459h238l-92 -514q-14 -77 11.5 -118.5t113.5 -41.5q90 0 131.5 41.5t56.5 118.5l90 514h238l-92 -525q-11 -63 -28.5 -112t-50 -95t-77 -76.5t-113 -48.5t-155.5 -18q-85 0 -149.5 14.5t-106 42.5t-67 64t-34.5 84.5t-8 99z" />
<glyph horiz-adv-x="1390" d="M55 510q0 50 7.5 106.5t28 124t52 130t83.5 122.5t117.5 104t159 70.5t202.5 26.5q299 0 458.5 -138t161.5 -392q0 -50 -8 -106.5t-28.5 -124t-52.5 -130t-84 -122.5t-117 -104t-158.5 -70.5t-202.5 -26.5q-299 0 -459 138.5t-160 391.5zM385 518q0 -131 65.5 -198.5 t208.5 -67.5q72 0 130.5 27.5t95.5 70.5t62 98t35.5 106.5t10.5 100.5q0 131 -65.5 199t-208.5 68q-72 0 -130.5 -28t-95.5 -71t-62 -98t-35.5 -107t-10.5 -100zM580 1255l301 287h391l-402 -287h-290z" />
<glyph horiz-adv-x="1980" d="M55 510q0 50 7.5 106.5t28 124t52 130t83.5 122.5t117.5 104t159 70.5t202.5 26.5q236 0 389 -90l12 72h909l-47 -273h-592l-33 -182h482l-47 -264h-480l-32 -187h592l-48 -270h-913l2 12q-106 -32 -225 -32q-299 0 -459 138.5t-160 391.5zM385 518q0 -131 65.5 -198.5 t208.5 -67.5q72 0 130.5 27.5t95.5 70.5t62 98t35.5 106.5t10.5 100.5q0 131 -65.5 199t-208.5 68q-72 0 -130.5 -28t-95.5 -71t-62 -98t-35.5 -107t-10.5 -100z" />
<glyph horiz-adv-x="1224" d="M4 -307l115 645h229l-12 -72q112 86 217 86q147 0 178 -110q40 40 110 75t136 35q110 0 155.5 -60.5t26.5 -168.5l-76 -430h-229l72 397q14 86 -47 86q-34 0 -75.5 -21.5t-74.5 -50.5l-72 -411h-229l72 397q18 86 -47 86q-63 0 -146 -70l-74 -413h-229z" />
<glyph horiz-adv-x="1304" d="M76.5 416.5q3.5 59.5 15.5 130.5l111 629h319l-125 -703q-11 -46 -7.5 -86t20 -69.5t58.5 -46.5t107 -17q124 0 185 58t80 161l125 703h319l-125 -715q-15 -85 -39 -152t-68.5 -130t-106.5 -105t-156.5 -67t-215.5 -25q-100 0 -179.5 15t-134.5 41.5t-93 67t-58.5 86.5 t-27.5 105.5t-3.5 119zM389 1352q30 44 45.5 65t43.5 53.5t50.5 47t54.5 26.5t68 12q47 0 99 -24.5t96 -49t72 -24.5q52 0 124 98l136 -90q-29 -43 -45.5 -66t-44 -54.5t-50.5 -47t-55 -27t-68 -11.5q-47 0 -99 24.5t-95.5 49t-71.5 24.5q-53 0 -125 -96z" />
<glyph horiz-adv-x="1296" d="M109 1176h360l117 -814l395 814h399l-663 -1176h-359z" />
<glyph horiz-adv-x="1394" d="M55 510q0 50 7.5 106.5t28 124t52 130t83.5 122.5t117.5 104t159 70.5t202.5 26.5q299 0 458.5 -138t161.5 -392q0 -50 -8 -106.5t-28.5 -124t-52.5 -130t-84 -122.5t-117 -104t-158.5 -70.5t-202.5 -26.5q-299 0 -459 138.5t-160 391.5zM385 518q0 -131 65.5 -198.5 t208.5 -67.5q72 0 130.5 27.5t95.5 70.5t62 98t35.5 106.5t10.5 100.5q0 131 -65.5 199t-208.5 68q-72 0 -130.5 -28t-95.5 -71t-62 -98t-35.5 -107t-10.5 -100z" />
<glyph horiz-adv-x="1355" d="M12 0l209 1176h324l325 -742l134 742h319l-209 -1176h-323l-328 745l-131 -745h-320zM428 1352q30 44 45.5 65t43.5 53.5t50.5 47t54.5 26.5t68 12q47 0 99 -24.5t95.5 -49t71.5 -24.5q53 0 125 98l136 -90q-29 -43 -45.5 -66t-44 -54.5t-50.5 -47t-55 -27t-68 -11.5 q-47 0 -99 24.5t-95.5 49t-71.5 24.5q-53 0 -125 -96z" />
<glyph horiz-adv-x="989" d="M131 788l152 861h239l230 -529l94 529h237l-151 -861h-242l-229 529l-92 -529h-238z" />
<glyph horiz-adv-x="989" d="M20 -307l152 860h240l229 -528l94 528h238l-152 -860h-241l-230 528l-92 -528h-238z" />
<glyph horiz-adv-x="1355" d="M12 0l209 1176h324l325 -742l134 742h319l-209 -1176h-323l-328 745l-131 -745h-320zM344 -543l143 168h-108l47 262h244l-35 -290l-238 -220z" />
<glyph horiz-adv-x="1355" d="M12 0l209 1176h324l325 -742l134 742h319l-209 -1176h-323l-328 745l-131 -745h-320zM469 1542h213l123 -145l174 145h244l-269 -287h-317z" />
<glyph horiz-adv-x="1355" d="M12 0l209 1176h324l325 -742l134 742h319l-209 -1176h-323l-328 745l-131 -745h-320zM635 1255l301 287h391l-401 -287h-291z" />
<glyph horiz-adv-x="1355" d="M12 0l209 1176h324l325 -742l134 742h319l-209 -1176h-323l-328 745l-131 -745h-320z" />
<glyph horiz-adv-x="876" d="M-4 12l80 170q37 -6 84 -6q111 0 203 41t141 129q-76 -45 -182 -45q-130 0 -208.5 71.5t-78.5 188.5q0 132 99 222.5t272 90.5q179 0 278.5 -99t99.5 -245q0 -152 -76.5 -275.5t-217.5 -196t-320 -72.5q-51 0 -94.5 6.5t-61.5 13.5zM270 569q0 -42 31.5 -68t95.5 -26 q90 0 152 62v10q0 61 -35.5 99t-99.5 38q-69 0 -106.5 -34t-37.5 -81z" />
<glyph horiz-adv-x="933" d="M88 553h268l82 -582l281 582h295l-484 -860h-262z" />
<glyph horiz-adv-x="1308" d="M-23 -244l125 254q58 -12 134 -12q119 0 224 34t196 111t145 191q-122 -90 -303 -90q-203 0 -326 118.5t-123 305.5q0 105 39.5 199t112 167.5t185.5 116.5t251 43q139 0 251.5 -45t183.5 -122t109 -176.5t38 -211.5q0 -191 -72.5 -361t-199 -294t-308.5 -196.5 t-391 -72.5q-78 0 -146 10.5t-96 20.5zM399 682q0 -79 52 -128.5t159 -49.5q80 0 148.5 37.5t107.5 85.5l2 39q0 104 -58.5 174.5t-164.5 70.5q-116 0 -181 -69.5t-65 -159.5z" />
<glyph horiz-adv-x="1394" d="M195 18l124 254q58 -12 134 -12q119 0 224 34t196 111t145 191q-122 -90 -303 -90q-203 0 -326 118.5t-123 305.5q0 105 39.5 199t112 167.5t185.5 116.5t251 43q139 0 251.5 -45t183.5 -122t109 -176.5t38 -211.5q0 -191 -72.5 -361t-199 -294t-308.5 -196.5t-391 -72.5 q-78 0 -145.5 10.5t-95.5 20.5zM616 944q0 -79 52 -128.5t159 -49.5q80 0 148.5 37.5t107.5 85.5l2 39q0 104 -59 175t-164 71q-116 0 -181 -70t-65 -160z" />
<glyph horiz-adv-x="933" d="M201 1649h268l82 -582l280 582h295l-483 -861h-262z" />
<glyph horiz-adv-x="1759" d="M121 1176h360l37 -736l326 736h262l57 -732l289 732h385l-553 -1176h-313l-64 758l-338 -758h-307z" />
<glyph horiz-adv-x="827" d="M4 -307l113 645h229l-12 -68q132 82 244 82q114 0 160.5 -62.5t25.5 -174.5l-74 -422h-229l71 397q17 86 -53 86q-43 0 -91.5 -20.5t-82.5 -49.5l-72 -413h-229z" />
<glyph horiz-adv-x="1759" d="M121 1176h360l37 -736l326 736h262l57 -732l289 732h385l-553 -1176h-313l-64 758l-338 -758h-307zM764 1255l301 287h391l-401 -287h-291z" />
<glyph horiz-adv-x="1206" d="M-10 172l168 215q266 -141 432 -141q70 0 117 23t47 65q0 23 -19 40t-56.5 30.5t-78.5 25t-98.5 29.5t-102.5 37q-56 24 -98 50t-81.5 64t-61 90t-21.5 115q0 75 31.5 142.5t90 119.5t149.5 83.5t202 33.5l29 152h219l-31 -175q178 -39 367 -143l-166 -213 q-226 113 -389 113q-66 0 -110 -21.5t-44 -62.5q0 -22 17.5 -38t52.5 -28.5t74 -23t96 -28.5t104 -38q43 -18 76.5 -35.5t72 -46t64.5 -61t43 -79.5t17 -101q0 -157 -131 -267t-355 -116l-24 -150h-221l28 170q-222 44 -409 170z" />
<glyph horiz-adv-x="1130" d="M131 788l152 861h241l138 -465l323 465h242l-152 -861h-237l84 480l-232 -336h-123l-110 364l-88 -508h-238z" />
<glyph horiz-adv-x="1130" d="M20 -307l152 860h242l137 -465l323 465h242l-151 -860h-238l84 479l-231 -336h-123l-111 365l-88 -508h-238z" />
<glyph horiz-adv-x="1302" d="M2 242l41 229h221l78 234h-184l39 229h221l82 242h239l-82 -242h217l82 242h240l-82 -242h186l-40 -229h-224l-78 -234h187l-39 -229h-225l-80 -242h-238l80 242h-219l-80 -242h-238l80 242h-184zM502 471h219l78 234h-219z" />
<glyph horiz-adv-x="952" d="M12 -131l31 168h156l57 170h-131l31 170h157l60 176h176l-60 -176h154l59 176h175l-60 -176h135l-30 -170h-160l-57 -170h137l-29 -168h-164l-57 -176h-178l59 176h-154l-59 -176h-176l59 176h-131zM375 37h153l58 170h-154z" />
<glyph horiz-adv-x="952" d="M123 965l31 168h155l58 170h-131l30 170h158l59 176h176l-59 -176h154l59 176h174l-59 -176h135l-31 -170h-160l-57 -170h137l-28 -168h-164l-58 -177h-178l60 177h-154l-59 -177h-176l59 177h-131zM485 1133h154l57 170h-153z" />
<glyph horiz-adv-x="1548" d="M12 0l209 1176h326l194 -635l447 635h332l-209 -1176h-320l121 686l-338 -489h-153l-162 524l-127 -721h-320z" />
<glyph horiz-adv-x="755" d="M131 788l152 861h237l-117 -666h408l-33 -195h-647z" />
<glyph horiz-adv-x="1069" d="M-27 299l47 276l130 64l96 537h319l-63 -361l254 127l-45 -280l-260 -130l-48 -268h570l-47 -264h-889l63 360z" />
<glyph horiz-adv-x="755" d="M20 -307l152 860h238l-117 -666h407l-32 -194h-648z" />
<glyph horiz-adv-x="1048" d="M12 0l209 1176h320l-162 -912h569l-47 -264h-889zM657 500l48 262h270l-47 -262h-271z" />
<glyph horiz-adv-x="1042" d="M12 0l209 1176h320l-162 -912h569l-47 -264h-889zM236 -543l143 168h-109l47 262h244l-35 -290l-237 -220z" />
<glyph horiz-adv-x="1759" d="M121 1176h360l37 -736l326 736h262l57 -732l289 732h385l-553 -1176h-313l-64 758l-338 -758h-307zM618 1255l269 287h317l168 -287h-213l-123 144l-174 -144h-244z" />
<glyph horiz-adv-x="1044" d="M12 0l209 1176h320l-162 -912h569l-47 -264h-889zM547 745l143 168h-108l47 263h243l-34 -291l-238 -219z" />
<glyph horiz-adv-x="1038" d="M12 0l209 1176h320l-162 -912h569l-47 -264h-889zM160 1255l301 287h391l-401 -287h-291z" />
<glyph horiz-adv-x="819" d="M25 -18q0 75 24.5 141t70.5 117.5t120 81.5t166 30q169 0 266.5 -80t97.5 -223q0 -158 -99.5 -264.5t-281.5 -106.5q-169 0 -266.5 80t-97.5 224zM260 -18q0 -129 121 -129q50 0 85.5 33t50.5 76t15 87q0 62 -26.5 95.5t-93.5 33.5q-72 0 -112 -63t-40 -133z" />
<glyph horiz-adv-x="1042" d="M12 0l209 1176h320l-162 -912h569l-47 -264h-889z" />
<glyph horiz-adv-x="933" d="M131 788l152 861h235l-59 -340l342 340h311l-432 -400l293 -461h-260l-193 314l-117 -109l-36 -205h-236z" />
<glyph horiz-adv-x="602" d="M18 719l283 141h223l-151 -860h-234l113 631l-160 -74z" />
<glyph horiz-adv-x="608" d="M123 1292l283 142h223l-152 -861h-233l112 631l-159 -74z" />
<glyph horiz-adv-x="882" d="M57 950l441 226h329l-209 -1176h-348l146 827l-252 -120z" />
<glyph horiz-adv-x="1394" d="M135 0l47 289h420l146 798l-297 -137l-107 242l477 242h332l-201 -1145h416l-47 -289h-1186z" />
<glyph horiz-adv-x="837" d="M27 -70q0 187 90 304.5t233 117.5q48 0 92.5 -14t67 -27.5t53.5 -36.5l55 314h230l-158 -895h-229l10 63q-112 -78 -231 -78q-42 0 -78.5 13.5t-67.5 41.5t-49 78.5t-18 118.5zM260 -49q0 -92 78 -92q71 0 164 73l33 177q-58 61 -123 61q-69 0 -110.5 -64t-41.5 -155z " />
<glyph horiz-adv-x="1624" d="M123 1063l237 113h179l-123 -705h-189l99 522l-142 -61zM215 0l786 1176h205l-786 -1176h-205zM807 182q0 134 205 211q-90 62 -90 142q0 79 78 130.5t214 51.5q131 0 204 -47t73 -123q0 -97 -150 -170q136 -68 136 -176q0 -94 -95.5 -153.5t-257.5 -59.5 q-150 0 -233.5 52t-83.5 142zM999 201q0 -35 34 -53.5t93 -18.5q67 0 112.5 22.5t45.5 61.5q0 34 -29 57t-81 45q-41 -12 -65 -20.5t-53 -22.5t-43 -31.5t-14 -39.5zM1104 512q0 -43 72 -70q31 8 49 14t39 16t31 22.5t10 27.5q0 29 -24.5 44.5t-66.5 15.5q-49 0 -79.5 -20 t-30.5 -50z" />
<glyph horiz-adv-x="1624" d="M123 1063l237 113h179l-123 -705h-189l99 522l-142 -61zM217 0l789 1176h202l-786 -1176h-205zM821 102l103 115q99 -70 200 -70q63 0 107.5 24.5t44.5 70.5q0 77 -111 77q-73 0 -151 -40l-105 69l105 357h508l-23 -154h-352l-25 -94q48 10 90 10q124 0 192.5 -63.5 t68.5 -155.5q0 -107 -87.5 -183.5t-240.5 -76.5q-181 0 -324 114z" />
<glyph horiz-adv-x="933" d="M20 -307l152 860h236l-60 -340l342 340h311l-432 -399l293 -461h-260l-192 313l-117 -106l-37 -207h-236z" />
<glyph horiz-adv-x="1626" d="M123 1063l237 113h179l-123 -705h-189l99 522l-142 -61zM217 0l789 1176h204l-788 -1176h-205zM821 0l13 76q6 34 19 64.5t27.5 54t39.5 47t44.5 39t52.5 35t53 30.5t56 29q28 15 71.5 36.5t61 31t39 23.5t29 25.5t6.5 24.5q0 47 -90 47q-89 0 -219 -65l-74 129 q165 90 314 90q125 0 193.5 -56.5t68.5 -138.5q0 -41 -20 -78t-45.5 -62.5t-73 -54.5t-78 -43.5t-84.5 -39.5q-90 -40 -115 -54.5t-31 -35.5h375l-24 -154h-609z" />
<glyph horiz-adv-x="1759" d="M121 1176h360l37 -736l326 736h262l57 -732l289 732h385l-553 -1176h-313l-64 758l-338 -758h-307zM664 1276l47 262h270l-47 -262h-270zM1057 1276l47 262h270l-47 -262h-270z" />
<glyph horiz-adv-x="1286" d="M12 0l209 1176h322l-84 -465l475 465h426l-598 -547l407 -629h-354l-270 432l-162 -147l-49 -285h-322zM299 -543l143 168h-108l47 262h244l-35 -290l-238 -220z" />
<glyph horiz-adv-x="1593" d="M123 1063l237 113h179l-123 -705h-189l99 522l-142 -61zM217 0l789 1176h204l-788 -1176h-205zM721 125l18 127l432 453h250l-75 -426h112l-20 -154h-119l-21 -125h-192l22 125h-407zM958 279h197l47 266z" />
<glyph horiz-adv-x="1595" d="M123 1063l237 113h179l-123 -705h-189l99 522l-142 -61zM219 0l789 1176h202l-786 -1176h-205zM809 272q0 188 147 316.5t373 128.5q43 0 80 -5.5t53 -10.5l15 -5l-62 -135q-33 6 -74 6q-101 0 -184 -37t-125 -114q68 41 166 41q115 0 182.5 -58.5t67.5 -154.5 q0 -108 -84.5 -182t-230.5 -74q-155 0 -239.5 81t-84.5 203zM997 260q0 -50 33 -85.5t92 -35.5q65 0 101.5 29.5t36.5 69.5q0 37 -29.5 59t-89.5 22q-45 0 -83.5 -16.5t-60.5 -38.5v-4z" />
<glyph horiz-adv-x="1286" d="M12 0l209 1176h322l-84 -465l475 465h426l-598 -547l407 -629h-354l-270 432l-162 -147l-49 -285h-322z" />
<glyph horiz-adv-x="1759" d="M121 1176h360l37 -736l326 736h262l57 -732l289 732h385l-553 -1176h-313l-64 758l-338 -758h-307zM649 1542h355l208 -287h-260z" />
<glyph horiz-adv-x="1611" d="M123 1063l237 113h179l-123 -705h-189l99 522l-142 -61zM217 0l789 1176h202l-786 -1176h-205zM803 102l92 113q67 -38 120.5 -55t114.5 -17q67 0 103.5 20t36.5 54q0 76 -197 76h-31l21 153h39q78 0 135 17.5t57 52.5q0 47 -82 47q-19 0 -41.5 -3.5t-38.5 -7.5 t-41.5 -12.5t-34.5 -12t-34 -13.5l-25 -10l-61 125q26 17 60.5 34t105 35.5t141.5 18.5q120 0 182 -47t62 -119q0 -114 -158 -170q59 -19 96 -64.5t37 -103.5q0 -39 -17 -77t-52 -72t-97.5 -55t-144.5 -21q-183 0 -348 114z" />
<glyph horiz-adv-x="432" d="M-27 731q76 21 110.5 37.5t49 37t21.5 62.5l137 781h237l-137 -768q-14 -86 -25.5 -123.5t-47.5 -84t-104 -73.5t-185 -51z" />
<glyph horiz-adv-x="432" d="M-137 -365q108 30 138.5 54t41.5 84l137 780h238l-137 -768q-7 -39 -10.5 -58t-11 -50t-16 -46t-22.5 -38t-31.5 -35.5t-43 -29.5t-58.5 -28.5t-75 -23.5t-95 -23z" />
<glyph horiz-adv-x="604" d="M-193 -78q104 28 152 51.5t66 51t28 84.5l189 1067h319l-184 -1051q-27 -149 -49 -203q-40 -96 -141 -151q-101 -56 -306 -97zM35 1255l268 287h318l167 -287h-213l-122 144l-174 -144h-244z" />
<glyph horiz-adv-x="595" d="M-193 -78q104 28 152 51.5t66 51t28 84.5l189 1067h319l-184 -1051q-27 -149 -49 -203q-40 -96 -141 -151q-101 -56 -306 -97z" />
<glyph horiz-adv-x="1275" d="M98 553h264l25 -524l231 524h197l41 -520l205 520h285l-404 -860h-231l-45 534l-236 -534h-233z" />
<glyph horiz-adv-x="598" d="M12 0l209 1176h320l-209 -1176h-320zM23 1352q30 44 45.5 65t43.5 53.5t50.5 47t54.5 26.5t68 12q47 0 99 -24.5t95.5 -49t71.5 -24.5q53 0 125 98l135 -90q-30 -44 -45.5 -66t-43.5 -54t-50.5 -47t-54.5 -27t-68 -12q-47 0 -99 24.5t-95.5 49t-71.5 24.5q-53 0 -125 -96 z" />
<glyph horiz-adv-x="423" d="M131 788l152 861h237l-151 -861h-238z" />
<glyph horiz-adv-x="591" d="M-94 -236q0 73 62 130t173 106h-108l209 1176h319l-209 -1176h-4q-225 -112 -225 -203q0 -14 5 -24t16 -16t21 -9.5t26.5 -4.5t26 -1.5t27 0t21.5 0.5l-55 -148h-14q-18 1 -41.5 0t-51 3t-55 9t-53.5 18t-46 30t-32 45.5t-12 64.5z" />
<glyph horiz-adv-x="1359" d="M72 682q0 101 30.5 184t83.5 139.5t125 95.5t152.5 57t169.5 18h280l-264 -1487h-258l115 630q-93 0 -169.5 21t-137 63.5t-94 113.5t-33.5 165zM778 -313l262 1489h258l-264 -1489h-256z" />
<glyph horiz-adv-x="595" d="M14 0l209 1176h320l-209 -1176h-320zM82 1307l33 192h635l-33 -192h-635z" />
<glyph horiz-adv-x="688" d="M18 45.5q0 70.5 17 163.5l131 749q10 55 17.5 88.5t19 73.5t24.5 63.5t32.5 52t45 46t59 37t78.5 34t100 28.5t126 28l57 -176q-90 -29 -134 -53.5t-61.5 -53.5t-27.5 -84l-162 -915q-11 -54 -7.5 -91t32 -63.5t94.5 -52.5l-80 -160q-142 30 -221.5 69.5t-109.5 92.5 t-30 123.5z" />
<glyph horiz-adv-x="1275" d="M209 1649h264l25 -525l231 525h197l41 -521l204 521h285l-403 -861h-232l-45 535l-235 -535h-234z" />
<glyph horiz-adv-x="704" d="M135 1063q0 174 100.5 279.5t247.5 105.5q132 0 322 -105l-100 -153q-105 63 -177 63q-70 0 -115.5 -48t-45.5 -122q0 -114 102 -114q72 0 188 51l74 -170q-148 -55 -229 -69q-45 -7 -86 -7q-61 0 -110.5 16t-88.5 49t-60.5 90t-21.5 134z" />
<glyph horiz-adv-x="423" d="M20 -307l152 860h238l-152 -860h-238z" />
<glyph horiz-adv-x="688" d="M-66 -63q91 29 134.5 53.5t61.5 53.5t28 83l161 915q11 54 7.5 91t-31.5 63.5t-94 52.5l80 160q142 -30 221.5 -69.5t109.5 -92t30 -123t-17 -163.5l-131 -750q-10 -55 -17.5 -88.5t-19 -73.5t-24.5 -63.5t-32.5 -52t-45 -46t-59 -37t-78.5 -34t-100 -28.5t-126 -28z" />
<glyph horiz-adv-x="1495" d="M68 535q0 133 44.5 251t127.5 209.5t212.5 145t288.5 53.5q273 0 432.5 -152.5t159.5 -400.5q0 -133 -44.5 -251t-127.5 -209.5t-212 -145t-287 -53.5q-273 0 -433.5 152.5t-160.5 400.5zM137 535q0 -217 142 -353.5t387 -136.5q111 0 207.5 30.5t168 85.5t122.5 129.5 t76.5 163.5t25.5 187q0 217 -141.5 353t-387.5 136q-139 0 -253.5 -47t-189.5 -128t-116 -189t-41 -231zM375 508q-7 104 19 189t75.5 140t116 85t141.5 30q48 0 92 -10.5t82.5 -30.5t61 -34.5t51.5 -36.5l-58 -56q-36 28 -57 42.5t-71.5 33.5t-102.5 19q-117 0 -194 -104.5 t-68 -260.5q6 -103 49 -160t121 -57q125 0 264 90l49 -61q-39 -23 -62 -35.5t-66.5 -32t-88 -28.5t-92.5 -9q-110 0 -184 76t-78 211z" />
<glyph horiz-adv-x="2127" d="M-195 -217q67 21 107.5 35.5t73.5 35.5t48.5 36t30 50t20.5 61.5t17 86.5l136 741h-144l43 246h146l4 25q36 203 125 298t256 95q173 0 417 -80l15 80h336l-95 -530q186 135 367 135q67 0 125.5 -21.5t108.5 -67t79 -127t29 -190.5q0 -317 -142 -516t-370 -199 q-59 0 -112 12t-99 37t-70.5 42t-64.5 47l-21 -115h-335l204 1163q-193 41 -299 41q-98 0 -116 -100l-7 -29h256l-43 -246h-256l-129 -714q-37 -198 -62 -267q-43 -121 -140 -187q-112 -77 -367 -132zM1235 365q105 -117 221 -117q77 0 135.5 58t87.5 149t29 198 q0 84 -37.5 130t-107.5 46q-67 0 -129 -34t-140 -97z" />
<glyph horiz-adv-x="886" d="M-72 -307l373 434l-205 426h262l103 -283l196 283h291l-356 -424l221 -436h-268l-109 278l-207 -278h-301z" />
<glyph horiz-adv-x="589" d="M12 0l209 1176h320l-209 -1176h-320zM45 1542h354l209 -287h-260z" />
<glyph horiz-adv-x="1812" d="M98 831q0 72 25 136.5t71.5 115.5t121 81t165.5 30q155 0 247.5 -73t92.5 -195q0 -150 -100.5 -255.5t-280.5 -105.5q-155 0 -248.5 72.5t-93.5 193.5zM328 854q0 -113 121 -113q68 0 105.5 54t37.5 110q0 111 -117 111q-69 0 -108 -54t-39 -108zM362 0l844 1176h238 l-844 -1176h-238zM987 248q0 151 101 256.5t280 105.5q157 0 249.5 -72.5t92.5 -195.5q0 -96 -42 -176t-130.5 -132t-208.5 -52q-157 0 -249.5 72t-92.5 194zM1214 270q0 -110 121 -110q68 0 107 54t39 108q0 112 -119 112q-69 0 -108.5 -54t-39.5 -110z" />
<glyph horiz-adv-x="1316" d="M86 299q0 110 75 189t206 79q110 0 176.5 -53t66.5 -141q0 -111 -74 -189t-204 -78q-113 0 -179.5 52.5t-66.5 140.5zM252 315q0 -79 86 -79q50 0 77 39t27 81q0 80 -82 80q-51 0 -79.5 -40t-28.5 -81zM264 -322l623 875h174l-621 -875h-176zM725 -127q0 110 74 188 t205 78q113 0 179 -53t66 -141q0 -110 -74.5 -188.5t-205.5 -78.5q-112 0 -178 53.5t-66 141.5zM891 -111q0 -79 86 -79q50 0 78 39t28 81q0 80 -86 80q-50 0 -78 -40.5t-28 -80.5z" />
<glyph horiz-adv-x="1316" d="M197 1395q0 110 74.5 189t205.5 79q110 0 177 -53.5t67 -141.5q0 -111 -74.5 -188.5t-204.5 -77.5q-113 0 -179 52.5t-66 140.5zM362 1411q0 -80 87 -80q50 0 77 39.5t27 81.5q0 80 -82 80q-52 0 -80.5 -40t-28.5 -81zM375 774l622 875h174l-620 -875h-176zM836 969 q0 110 73.5 188t204.5 78q113 0 179.5 -53.5t66.5 -141.5q0 -110 -75 -188t-206 -78q-112 0 -177.5 53.5t-65.5 141.5zM1001 985q0 -80 86 -80q50 0 78.5 39.5t28.5 81.5q0 80 -86 80q-50 0 -78.5 -40.5t-28.5 -80.5z" />
<glyph horiz-adv-x="593" d="M12 0l209 1176h320l-209 -1176h-320zM66 1276l47 262h270l-47 -262h-270zM459 1276l47 262h270l-47 -262h-270z" />
<glyph horiz-adv-x="595" d="M14 0l209 1176h320l-209 -1176h-320zM14 1255l269 287h317l168 -287h-213l-123 144l-174 -144h-244z" />
<glyph horiz-adv-x="385" d="M117 788l43 238h225l-43 -238h-225zM182 1153l43 238h226l-43 -238h-226z" />
</font>
</defs>
</svg>
