<?xml version="1.0" standalone="no"?>
<!DOCTYPE svg PUBLIC "-//W3C//DTD SVG 1.1//EN" "http://www.w3.org/Graphics/SVG/1.1/DTD/svg11.dtd" >
<svg xmlns="http://www.w3.org/2000/svg">
<metadata></metadata>
<defs>
<font id="verbextrabold" horiz-adv-x="1292" >
<font-face units-per-em="2048" ascent="1638" descent="-410" />
<missing-glyph horiz-adv-x="561" />
<glyph unicode="ff" horiz-adv-x="1615" d="M39 829v246h147v25q0 200 82 296.5t252 96.5q99 0 202 -28t177 -62l-111 -240q-127 41 -178 41q-19 0 -32 -3t-27.5 -12t-22.5 -30t-8 -53v-31h236v-246h-236v-829h-334v829h-147zM840 829v246h147v25q0 200 82 296.5t252 96.5q99 0 202 -28t177 -62l-111 -240 q-127 41 -178 41q-19 0 -32 -3t-27.5 -12t-22.5 -30t-8 -53v-31h262v-246h-262v-829h-334v829h-147z" />
<glyph unicode="fi" horiz-adv-x="1380" d="M39 829v246h147v25q0 199 82 296t250 97q144 0 301 -72l-76 -243q-86 26 -133 26q-19 0 -32 -3t-27.5 -12t-22.5 -30t-8 -53v-31h262v-246h-262v-829h-334v829h-147zM922 1212v275h352v-275h-352zM928 0v1075h338v-1075h-338z" />
<glyph unicode="fl" horiz-adv-x="1386" d="M39 829v246h147v25q0 199 82 296t250 97q144 0 301 -72l-76 -243q-86 26 -133 26q-19 0 -32 -3t-27.5 -12t-22.5 -30t-8 -53v-31h262v-246h-262v-829h-334v829h-147zM932 0v1493h336v-1493h-336z" />
<glyph unicode="ffi" horiz-adv-x="2181" d="M39 829v246h147v25q0 200 82 296.5t252 96.5q99 0 202 -28t177 -62l-111 -240q-127 41 -178 41q-19 0 -32 -3t-27.5 -12t-22.5 -30t-8 -53v-31h236v-246h-236v-829h-334v829h-147zM840 829v246h147v25q0 199 82 296t250 97q144 0 301 -72l-76 -243q-86 26 -133 26 q-19 0 -32 -3t-27.5 -12t-22.5 -30t-8 -53v-31h262v-246h-262v-829h-334v829h-147zM1722 1212v275h353v-275h-353zM1729 0v1075h337v-1075h-337z" />
<glyph unicode="ffl" horiz-adv-x="2187" d="M39 829v246h147v25q0 200 82 296.5t252 96.5q99 0 202 -28t177 -62l-111 -240q-127 41 -178 41q-19 0 -32 -3t-27.5 -12t-22.5 -30t-8 -53v-31h236v-246h-236v-829h-334v829h-147zM840 829v246h147v25q0 199 82 296t250 97q144 0 301 -72l-76 -243q-86 26 -133 26 q-19 0 -32 -3t-27.5 -12t-22.5 -30t-8 -53v-31h262v-246h-262v-829h-334v829h-147zM1733 0v1493h335v-1493h-335z" />
<glyph unicode="ffk" horiz-adv-x="2820" d="M39 829v246h147v25q0 200 82 296.5t252 96.5q99 0 202 -28t177 -62l-111 -240q-127 41 -178 41q-19 0 -32 -3t-27.5 -12t-22.5 -30t-8 -53v-31h236v-246h-236v-829h-334v829h-147zM840 829v246h147v25q0 199 82 296t250 97q144 0 301 -72l-76 -243q-86 26 -133 26 q-19 0 -32 -3t-27.5 -12t-22.5 -30t-8 -53v-31h262v-246h-262v-829h-334v829h-147zM1731 0v1493h335v-827l308 409h389l-363 -424l426 -651h-362l-262 416l-136 -158v-258h-335z" />
<glyph unicode="ffj" horiz-adv-x="2193" d="M39 829v246h147v25q0 200 82 296.5t252 96.5q99 0 202 -28t177 -62l-111 -240q-127 41 -178 41q-19 0 -32 -3t-27.5 -12t-22.5 -30t-8 -53v-31h236v-246h-236v-829h-334v829h-147zM840 829v246h147v25q0 199 82 296t250 97q144 0 301 -72l-76 -243q-86 26 -133 26 q-19 0 -32 -3t-27.5 -12t-22.5 -30t-8 -53v-31h262v-246h-262v-829h-334v829h-147zM1503 -227q37 12 65 21.5t52 21t40.5 19t30.5 19.5t22 19.5t14.5 23t9 24.5t4.5 30t2 33.5v40.5v1050h336v-1024q0 -57 -0.5 -83.5t-3.5 -72t-9 -67t-17 -56.5t-28.5 -53t-42.5 -44.5 t-59 -42.5t-79 -36t-101.5 -35.5t-126.5 -31.5zM1735 1212v275h352v-275h-352z" />
<glyph unicode="fft" horiz-adv-x="2490" d="M39 829v246h147v25q0 200 82 296.5t252 96.5q99 0 202 -28t177 -62l-111 -240q-127 41 -178 41q-19 0 -32 -3t-27.5 -12t-22.5 -30t-8 -53v-31h236v-246h-236v-829h-334v829h-147zM840 829v246h147v25q0 200 82 296.5t252 96.5q99 0 202 -28t177 -62l-111 -240 q-127 41 -178 41q-19 0 -32 -3t-27.5 -12t-22.5 -30t-8 -53v-31h235v-246h-235v-829h-334v829h-147zM1640 829v246h148v271l334 40v-311h293v-246h-293v-460q0 -42 15 -65.5t32.5 -28.5t42.5 -5q14 0 32 3.5t38 10t34 11t33 12t21 8.5l116 -247q-204 -91 -364 -91 q-169 0 -251.5 97.5t-82.5 296.5v458h-148z" />
<glyph unicode="fh" horiz-adv-x="2107" d="M39 829v246h147v25q0 199 82 296t250 97q144 0 301 -72l-76 -243q-86 26 -133 26q-19 0 -32 -3t-27.5 -12t-22.5 -30t-8 -53v-31h262v-246h-262v-829h-334v829h-147zM930 0v1493h336v-539q214 144 407 144q328 0 328 -342v-756h-336v678q0 77 -28 118.5t-99 41.5 q-68 0 -144.5 -38t-127.5 -87v-713h-336z" />
<glyph unicode="fj" horiz-adv-x="1392" d="M39 829v246h147v25q0 199 82 296t250 97q144 0 301 -72l-76 -243q-86 26 -133 26q-19 0 -32 -3t-27.5 -12t-22.5 -30t-8 -53v-31h262v-246h-262v-829h-334v829h-147zM702 -227q37 12 65 21.5t52 21t40.5 19t30.5 19.5t22 19.5t14.5 23t9 24.5t4.5 30t2 33.5v40.5v1050 h336v-1024q0 -57 -0.5 -83.5t-3.5 -72t-9 -67t-17 -56.5t-28.5 -53t-42.5 -44.5t-59 -42.5t-79 -36t-101.5 -35.5t-126.5 -31.5zM934 1212v275h352v-275h-352z" />
<glyph unicode="fk" horiz-adv-x="2019" d="M39 829v246h147v25q0 199 82 296t250 97q144 0 301 -72l-76 -243q-86 26 -133 26q-19 0 -32 -3t-27.5 -12t-22.5 -30t-8 -53v-31h262v-246h-262v-829h-334v829h-147zM930 0v1493h336v-827l307 409h389l-363 -424l426 -651h-362l-262 416l-135 -158v-258h-336z" />
<glyph unicode="ft" horiz-adv-x="1689" d="M39 829v246h147v25q0 200 82 296.5t252 96.5q99 0 202 -28t177 -62l-111 -240q-127 41 -178 41q-19 0 -32 -3t-27.5 -12t-22.5 -30t-8 -53v-31h236v-246h-236v-829h-334v829h-147zM842 829v246h147v271l334 40v-311h293v-246h-293v-460q0 -42 15 -65.5t32.5 -28.5 t42.5 -5q14 0 32 3.5t38 10t34 11t33 12t21 8.5l117 -247q-204 -91 -365 -91q-169 0 -251.5 97.5t-82.5 296.5v458h-147z" />
<glyph unicode="ffh" horiz-adv-x="2908" d="M39 829v246h147v25q0 200 82 296.5t252 96.5q99 0 202 -28t177 -62l-111 -240q-127 41 -178 41q-19 0 -32 -3t-27.5 -12t-22.5 -30t-8 -53v-31h236v-246h-236v-829h-334v829h-147zM840 829v246h147v25q0 199 82 296t250 97q144 0 301 -72l-76 -243q-86 26 -133 26 q-19 0 -32 -3t-27.5 -12t-22.5 -30t-8 -53v-31h262v-246h-262v-829h-334v829h-147zM1731 0v1493h335v-539q214 144 408 144q328 0 328 -342v-756h-336v678q0 77 -28 118.5t-99 41.5q-69 0 -145.5 -38t-127.5 -87v-713h-335z" />
<glyph unicode="ffb" horiz-adv-x="2908" d="M39 829v246h147v25q0 200 82 296.5t252 96.5q99 0 202 -28t177 -62l-111 -240q-127 41 -178 41q-19 0 -32 -3t-27.5 -12t-22.5 -30t-8 -53v-31h236v-246h-236v-829h-334v829h-147zM840 829v246h147v25q0 199 82 296t250 97q144 0 301 -72l-76 -243q-86 26 -133 26 q-19 0 -32 -3t-27.5 -12t-22.5 -30t-8 -53v-31h262v-246h-262v-829h-334v829h-147zM1731 0v1493h335v-530q78 64 161 99.5t192 35.5q194 0 308 -144t114 -417q0 -271 -114 -415.5t-308 -144.5q-109 0 -192.5 35t-160.5 99v-111h-335zM2066 373q108 -125 246 -125 q93 0 141 74t48 217q0 141 -48 214.5t-141 73.5q-139 0 -246 -127v-327z" />
<glyph unicode="fb" horiz-adv-x="2109" d="M39 829v246h147v25q0 199 82 296t250 97q144 0 301 -72l-76 -243q-86 26 -133 26q-19 0 -32 -3t-27.5 -12t-22.5 -30t-8 -53v-31h262v-246h-262v-829h-334v829h-147zM930 0v1493h336v-530q78 64 160.5 99.5t191.5 35.5q194 0 308 -144t114 -417q0 -271 -114 -415.5 t-308 -144.5q-109 0 -192 35t-160 99v-111h-336zM1266 373q108 -125 245 -125q93 0 141 74t48 217q0 141 -48 214.5t-141 73.5q-138 0 -245 -127v-327z" />
<glyph unicode=" "  horiz-adv-x="561" />
<glyph unicode="&#x09;" horiz-adv-x="561" />
<glyph unicode="&#xa0;" horiz-adv-x="561" />
<glyph unicode="!" horiz-adv-x="589" d="M90 1434h410l-105 -959h-200zM125 0v336h342v-336h-342z" />
<glyph unicode="&#x22;" horiz-adv-x="1034" d="M76 1434h319l-55 -570h-209zM518 1434h320l-56 -570h-209z" />
<glyph unicode="#" horiz-adv-x="1501" d="M68 309v252h264l49 311h-227v252h266l47 310h256l-47 -310h272l47 310h258l-47 -310h226v-252h-265l-47 -311h228v-252h-267l-47 -309h-258l47 309h-272l-47 -309h-258l47 309h-225zM590 561h272l47 311h-272z" />
<glyph unicode="$" horiz-adv-x="1341" d="M61 176l156 248q103 -58 253 -108t253 -50q80 0 134 31t54 88q0 35 -21.5 61t-68 46t-95.5 35t-129 40t-142 49q-363 122 -363 412q0 176 123.5 292.5t345.5 133.5v186h242v-198q232 -36 432 -139l-156 -252q-97 45 -222.5 80.5t-211.5 35.5q-79 0 -130.5 -29t-51.5 -87 q0 -35 21.5 -59.5t66.5 -43t93 -32.5t124.5 -36.5t136.5 -45.5q47 -18 83 -34t83 -42.5t81 -59t65 -73.5t47 -95.5t16 -117.5q0 -180 -127.5 -298.5t-349.5 -133.5v-185h-242v197q-142 23 -275 74t-225 110z" />
<glyph unicode="%" horiz-adv-x="2074" d="M59 1071q0 180 107 282.5t299 102.5t298.5 -102.5t106.5 -282.5t-106.5 -281.5t-298.5 -101.5t-299 102t-107 281zM307 1071q0 -180 158 -180q76 0 118 45.5t42 134.5t-42 135.5t-118 46.5q-77 0 -117.5 -46t-40.5 -136zM537 0l739 1434h260l-741 -1434h-258zM1204 360 q0 180 106 282.5t298 102.5q193 0 300 -102.5t107 -282.5t-106.5 -281.5t-300.5 -101.5q-192 0 -298 101.5t-106 281.5zM1450 360q0 -89 41 -134.5t117 -45.5q159 0 159 180q0 90 -41 136.5t-118 46.5q-76 0 -117 -46.5t-41 -136.5z" />
<glyph unicode="&#x26;" horiz-adv-x="1503" d="M98 365q0 66 22.5 124.5t66 107t89 85.5t109.5 78q-87 89 -134.5 169t-47.5 175q0 160 124 256t314 96q191 0 307.5 -96.5t116.5 -237.5q0 -59 -21.5 -114t-63 -103.5t-85 -87t-104.5 -82.5l229 -227q70 124 76 248h336q-15 -105 -65 -227t-134 -232l303 -297h-385 l-113 111q-199 -134 -448 -134q-214 0 -353 109t-139 279zM430 375q0 -60 48.5 -104t139.5 -44q113 0 224 78l-273 270q-68 -56 -103.5 -103t-35.5 -97zM504 1092q0 -77 114 -191q70 48 108 94t38 99q0 49 -32.5 87t-94.5 38t-97.5 -38.5t-35.5 -88.5z" />
<glyph unicode="'" horiz-adv-x="522" d="M76 1434h319l-55 -570h-209z" />
<glyph unicode="(" horiz-adv-x="727" d="M102 223v979q0 67 1 101.5t7 85t18.5 76.5t35 62.5t57 58t84.5 47.5t117.5 46t155.5 39l81 -186q-51 -18 -85 -32.5t-57.5 -33t-36 -32.5t-19 -40.5t-7.5 -47t-1 -60.5v-1147q0 -40 1 -60.5t7.5 -46.5t19 -40.5t36 -32.5t57.5 -32.5t85 -32.5l-81 -187q-88 19 -155.5 39 t-117.5 46t-84.5 47.5t-57 58t-35 62.5t-18.5 76.5t-7 85t-1 101.5z" />
<glyph unicode=")" horiz-adv-x="727" d="M68 -106q51 18 85 32.5t57.5 32.5t36 32.5t19 40.5t7.5 46.5t1 60.5v1147q0 40 -1 60.5t-7.5 47t-19 40.5t-36 32.5t-57.5 33t-85 32.5l82 186q88 -19 155.5 -39t117.5 -46t84.5 -47.5t57 -58t34.5 -62.5t18 -77t7 -85t1 -101v-979q0 -67 -1 -101t-7 -85t-18 -77 t-34.5 -62.5t-57 -58t-84.5 -47.5t-117.5 -46t-155.5 -39z" />
<glyph unicode="*" horiz-adv-x="968" d="M70 944l327 76l-327 80l139 241l231 -245l-94 321h279l-97 -319l230 243l139 -241l-311 -76l311 -80l-139 -242l-223 232l90 -309h-279l94 321l-231 -244z" />
<glyph unicode="+" horiz-adv-x="1296" d="M117 557v252h403v365h252v-365h406v-252h-406v-364h-252v364h-403z" />
<glyph unicode="," horiz-adv-x="575" d="M106 -233l158 233h-151v367h338l22 -412l-278 -299z" />
<glyph unicode="-" horiz-adv-x="888" d="M109 449v268h671v-268h-671z" />
<glyph unicode="." horiz-adv-x="555" d="M106 0v367h343v-367h-343z" />
<glyph unicode="/" horiz-adv-x="997" d="M39 -184l670 1802h252l-670 -1802h-252z" />
<glyph unicode="0" horiz-adv-x="1406" d="M86 717q0 352 159 545.5t460 193.5t458.5 -193t157.5 -546q0 -354 -158.5 -547t-460.5 -193q-301 0 -458.5 193t-157.5 547zM438 717q0 -246 66.5 -357.5t197.5 -111.5t198 111.5t67 357.5q0 245 -65.5 357t-196.5 112q-132 0 -199.5 -112t-67.5 -357z" />
<glyph unicode="1" horiz-adv-x="878" d="M0 1208l403 226h332v-1434h-350v1110l-248 -129z" />
<glyph unicode="2" horiz-adv-x="1269" d="M61 0v152q0 84 26.5 161t66.5 135.5t103 116.5t119.5 98.5t131.5 86.5q31 20 83.5 52t79 49t62 43t52.5 45.5t29.5 45t12.5 51.5q0 56 -49.5 93.5t-140.5 37.5q-160 0 -383 -133l-156 223q281 199 588 199q237 0 365.5 -114t128.5 -289q0 -80 -31 -152.5t-62.5 -117.5 t-110.5 -104.5t-110.5 -79t-128.5 -74.5q-4 -3 -6 -4t-5.5 -3t-6.5 -4q-118 -67 -177 -117t-59 -108h699v-289h-1121z" />
<glyph unicode="3" horiz-adv-x="1271" d="M29 164l151 237q245 -131 430 -131q106 0 169 41.5t63 116.5q0 46 -27 81t-66.5 54t-95.5 30.5t-103 15t-99 3.5h-64v289h74q56 0 106 6.5t101 21.5t81.5 47t30.5 77q0 54 -43 84t-127 30q-163 0 -374 -120l-144 217q36 27 77 51.5t116.5 60.5t176 58t206.5 22 q117 0 207.5 -28t145 -77t82 -111t27.5 -134q0 -214 -231 -315q129 -39 212 -140t83 -229q0 -68 -17 -130t-57.5 -120t-101 -101t-154 -68.5t-209.5 -25.5q-318 0 -626 187z" />
<glyph unicode="4" horiz-adv-x="1409" d="M39 262v242l641 930h463v-883h217v-289h-217v-262h-350v262h-754zM393 551h400v594z" />
<glyph unicode="5" horiz-adv-x="1257" d="M47 162l154 252q209 -138 379 -138q109 0 180 51.5t71 141.5q0 83 -63 140t-182 57q-129 0 -277 -78l-192 121l78 725h935v-289h-645l-14 -225q99 26 199 26q126 0 226.5 -39t162.5 -105.5t94.5 -150.5t32.5 -180q0 -98 -34.5 -185.5t-100.5 -157t-175 -110.5t-247 -41 q-285 0 -582 185z" />
<glyph unicode="6" horiz-adv-x="1312" d="M80 592q-1 194 64.5 357t181 273.5t276 172t346.5 61.5q57 0 112 -5.5t81 -10.5l26 -6l-80 -273q-61 13 -137 13q-59 0 -114.5 -10.5t-112.5 -36.5t-104 -65.5t-86.5 -101t-63.5 -139.5q132 105 326 105q205 0 335 -124t130 -323q0 -102 -39.5 -192.5t-110.5 -159.5 t-179.5 -109.5t-238.5 -40.5q-125 0 -228 34t-173 92t-118.5 137t-70.5 167.5t-22 184.5zM432 549q0 -142 73 -215.5t177 -73.5q112 0 169.5 61.5t57.5 143.5q0 88 -60 145.5t-165 57.5q-86 0 -152 -36.5t-100 -82.5z" />
<glyph unicode="7" horiz-adv-x="1105" d="M45 1145v289h1034v-271q-11 -13 -29.5 -36.5t-72 -98t-102.5 -151.5t-108.5 -189t-102 -218.5t-72 -232t-29.5 -237.5h-362q0 104 25.5 221t63.5 217t92 206.5t100 182.5t98 152t76.5 108t45.5 58h-657z" />
<glyph unicode="8" horiz-adv-x="1349" d="M66 389q0 60 17 113t45 93.5t69.5 76t84.5 61t95 49.5q-219 128 -219 320q0 159 136 256.5t380 97.5t382 -97.5t138 -256.5q0 -192 -221 -320q52 -24 95 -49.5t84.5 -61t69.5 -76t45 -93.5t17 -113q0 -192 -161.5 -302t-448.5 -110t-447.5 110t-160.5 302zM420 416 q0 -77 71 -126.5t183 -49.5q113 0 184.5 49.5t71.5 126.5t-67 130.5t-189 104.5q-122 -51 -188 -104.5t-66 -130.5zM498 1069q0 -60 48 -101t128 -75q81 33 129.5 74.5t48.5 101.5q0 51 -48 92t-130 41q-81 0 -128.5 -41t-47.5 -92z" />
<glyph unicode="9" horiz-adv-x="1314" d="M53 954q0 101 39.5 192t111.5 160t180.5 109.5t238.5 40.5q154 0 274 -51.5t192 -139t108.5 -195t37.5 -228.5q0 -195 -65.5 -357.5t-181 -273.5t-275.5 -172.5t-346 -61.5q-58 0 -113.5 5.5t-81.5 11.5l-27 6l82 272q59 -12 135 -12q75 0 144 18t135 56.5t119.5 109 t83.5 166.5q-135 -104 -326 -104q-205 0 -335 124.5t-130 323.5zM403 967q0 -87 60.5 -144t165.5 -57q85 0 150 35t102 82q-1 73 -22 130t-56.5 91.5t-79 52t-92.5 17.5q-113 0 -170.5 -62t-57.5 -145z" />
<glyph unicode=":" horiz-adv-x="577" d="M117 0v367h342v-367h-342zM117 627v366h342v-366h-342z" />
<glyph unicode=";" horiz-adv-x="602" d="M121 -233l158 233h-152v367h338l22 -412l-278 -299zM127 627v366h342v-366h-342z" />
<glyph unicode="&#x3c;" horiz-adv-x="1296" d="M88 569v228l1059 415v-282l-696 -248l696 -250v-278z" />
<glyph unicode="=" horiz-adv-x="1296" d="M117 362v252h1061v-252h-1061zM117 758v250h1061v-250h-1061z" />
<glyph unicode="&#x3e;" horiz-adv-x="1296" d="M147 154v282l697 248l-697 250v278l1059 -415v-228z" />
<glyph unicode="?" horiz-adv-x="1118" d="M51 1292q262 164 518 164q212 0 347 -104t135 -277q0 -78 -27.5 -143.5t-71 -111t-108.5 -83.5t-129 -61.5t-144 -44.5l-16 -156h-209l-18 336q208 40 290 83t82 126q0 63 -48.5 105t-139.5 42q-143 0 -317 -110zM281 0v336h340v-336h-340z" />
<glyph unicode="@" horiz-adv-x="1951" d="M80 518q0 192 63.5 354.5t180.5 281t292.5 185t389.5 66.5q210 0 377.5 -66t276 -184.5t166 -280t58.5 -354.5q0 -93 -13 -176t-44 -159t-78 -131t-119.5 -87.5t-163.5 -32.5q-62 0 -112.5 17t-82 43t-55 60t-34 64.5t-15.5 61.5q-147 -135 -331 -135q-139 0 -229.5 82 t-90.5 227q0 147 95.5 228.5t244.5 81.5q47 0 102.5 -7.5t128.5 -22.5t78 -16v78q0 86 -36 122t-130 36q-147 0 -340 -78l-81 168q266 96 469 96q185 0 272.5 -83.5t87.5 -264.5v-327q0 -48 1 -76.5t4.5 -65.5t11.5 -58t21 -41t33.5 -29t49.5 -9q97 0 169 111.5t72 330.5 q0 160 -47 297t-139 242t-240.5 165t-338.5 60q-193 0 -348 -60t-254.5 -165.5t-152 -245.5t-52.5 -303q0 -222 90 -397t261 -276t396 -101q68 0 133.5 9t109.5 21.5t78.5 25t50.5 21.5l17 9l70 -90q-7 -4 -19.5 -11.5t-56.5 -26t-93.5 -32.5t-130 -25.5t-165.5 -11.5 q-253 0 -449 114.5t-302.5 316t-106.5 454.5zM762 373q0 -70 40.5 -105t108.5 -35q131 0 254 111v150q-3 1 -45.5 9t-63.5 11.5t-57 7.5t-63 4q-89 0 -131.5 -41t-42.5 -112z" />
<glyph unicode="A" horiz-adv-x="1472" d="M8 0l535 1434h387l532 -1434h-381l-82 262h-528l-80 -262h-383zM557 535h358l-180 577z" />
<glyph unicode="B" horiz-adv-x="1419" d="M137 0v1434h604q272 0 410.5 -89t138.5 -260q0 -71 -23.5 -131t-60 -98t-75 -61t-74.5 -29q36 -5 74.5 -20t81 -45.5t76 -72t55.5 -104.5t22 -137q0 -184 -131 -285.5t-401 -101.5h-697zM487 268h273q260 0 260 176q0 95 -72 139t-219 44h-242v-359zM487 877h226 q109 0 170 36.5t61 110.5q0 141 -229 141h-228v-288z" />
<glyph unicode="C" horiz-adv-x="1341" d="M78 717q0 184 45 326.5t126 232t189.5 135t239.5 45.5q160 0 304.5 -53t324.5 -152l-162 -258q-132 73 -233 111.5t-191 38.5q-135 0 -210 -114.5t-75 -311.5t75 -311.5t210 -114.5q91 0 192 38.5t232 110.5l162 -258q-180 -99 -324.5 -152t-304.5 -53q-131 0 -239 45.5 t-189.5 135t-126.5 232t-45 327.5z" />
<glyph unicode="D" horiz-adv-x="1488" d="M137 0v1434h537q365 0 550 -171t185 -546t-185 -546t-550 -171h-537zM489 295h150q105 0 179.5 19.5t130.5 66.5t83 130.5t27 205.5t-27 205t-83 130t-130.5 67t-179.5 20h-150v-844z" />
<glyph unicode="E" horiz-adv-x="1267" d="M137 0v1434h1043v-295h-693v-277h566v-289h-566v-278h703v-295h-1053z" />
<glyph unicode="F" horiz-adv-x="1214" d="M137 0v1434h1043v-295h-693v-279h547v-289h-547v-571h-350z" />
<glyph unicode="G" horiz-adv-x="1460" d="M78 715q0 185 45.5 328t128 232.5t192.5 135t244 45.5q168 0 322 -54.5t336 -154.5l-164 -258q-147 75 -252 114.5t-199 39.5q-140 0 -217.5 -114.5t-77.5 -311.5q0 -202 73.5 -322.5t217.5 -120.5q140 0 309 152v133h-325v275h651v-834h-326v137q-190 -160 -389 -160 q-116 0 -217 45.5t-180.5 134t-125.5 232.5t-46 326z" />
<glyph unicode="H" horiz-adv-x="1501" d="M137 0v1434h350v-537h527v537h348v-1434h-348v608h-527v-608h-350z" />
<glyph unicode="I" horiz-adv-x="626" d="M137 0v1434h350v-1434h-350z" />
<glyph unicode="J" horiz-adv-x="641" d="M-86 -123q46 15 79 27.5t59.5 26.5t43 23t28.5 25.5t17.5 27t8.5 33t3.5 37t0.5 46.5v1311h350v-1293q0 -57 -0.5 -83.5t-3.5 -71.5t-9 -66.5t-17.5 -56.5t-29 -53t-43 -44.5t-60.5 -42t-80.5 -35.5t-103 -35.5t-128.5 -31.5z" />
<glyph unicode="K" horiz-adv-x="1447" d="M137 0v1434h350v-635l514 635h426l-581 -668l606 -766h-416l-401 524l-148 -170v-354h-350z" />
<glyph unicode="L" horiz-adv-x="1181" d="M137 0v1434h350v-1139h670v-295h-1020z" />
<glyph unicode="M" horiz-adv-x="1763" d="M137 0v1434h357l387 -816l385 816h358v-1434h-348v877l-301 -637h-187l-301 632v-872h-350z" />
<glyph unicode="N" horiz-adv-x="1533" d="M137 0v1434h355l555 -912v912h348v-1434h-355l-553 907v-907h-350z" />
<glyph unicode="O" horiz-adv-x="1570" d="M78 717q0 160 40 291t122.5 233t221 158.5t322.5 56.5q149 0 268.5 -37.5t201 -103.5t136 -159.5t79 -202.5t24.5 -236t-24.5 -236t-79 -203t-136 -160t-201 -103.5t-268.5 -37.5q-148 0 -267 37.5t-200.5 103.5t-135.5 160t-78.5 203t-24.5 236zM436 717 q0 -205 83.5 -323t264.5 -118q94 0 162.5 32.5t109.5 92.5t60 138.5t19 177.5t-19 177t-60 138.5t-109.5 92.5t-162.5 32q-181 0 -264.5 -117.5t-83.5 -322.5z" />
<glyph unicode="P" horiz-adv-x="1378" d="M137 0v1434h619q292 0 438.5 -119.5t146.5 -353.5q0 -469 -585 -469h-269v-492h-350zM487 778h248q57 0 100.5 8.5t79 28.5t54 56.5t18.5 89.5q0 42 -12.5 74.5t-34.5 53t-54.5 33.5t-69 18t-81.5 5h-248v-367z" />
<glyph unicode="Q" horiz-adv-x="1570" d="M78 717q0 160 40 291t122.5 233t221 158.5t322.5 56.5q149 0 268.5 -37.5t201 -103.5t136 -159.5t79 -202.5t24.5 -236q0 -232 -85 -406t-261 -260l221 -172l-231 -237l-353 335q-148 0 -267 37.5t-200.5 103.5t-135.5 160t-78.5 203t-24.5 236zM436 717 q0 -205 83.5 -323t264.5 -118q94 0 162.5 32.5t109.5 92.5t60 138.5t19 177.5t-19 177t-60 138.5t-109.5 92.5t-162.5 32q-181 0 -264.5 -117.5t-83.5 -322.5z" />
<glyph unicode="R" horiz-adv-x="1456" d="M137 0v1434h660q297 0 443 -110.5t146 -338.5q0 -347 -348 -424l351 -561h-379l-318 539h-205v-539h-350zM487 811h287q125 0 192.5 38.5t67.5 135.5t-67.5 136.5t-188.5 39.5h-291v-350z" />
<glyph unicode="S" horiz-adv-x="1312" d="M49 176l156 248q103 -58 253 -108t253 -50q80 0 134 31t54 88q0 35 -21.5 61t-68.5 46t-95.5 35t-128.5 40t-143 49q-362 121 -362 412q0 190 140.5 309t391.5 119q154 0 320.5 -44t290.5 -109l-156 -252q-97 45 -222.5 80.5t-211.5 35.5q-79 0 -130.5 -29t-51.5 -87 q0 -35 21.5 -59.5t66.5 -43t93 -32.5t124.5 -36.5t136.5 -45.5q47 -18 83 -34t83 -42.5t81 -59t65 -73.5t47 -95.5t16 -117.5q0 -193 -145.5 -314t-397.5 -121q-181 0 -366 60t-310 139z" />
<glyph unicode="T" horiz-adv-x="1230" d="M27 1139v295h1177v-295h-411v-1139h-349v1139h-417z" />
<glyph unicode="U" horiz-adv-x="1478" d="M123 596v838h350v-869q0 -52 6.5 -92.5t24 -78.5t46.5 -63t76.5 -40t112.5 -15q80 0 134.5 21.5t82.5 63t39 90t11 114.5v869h348v-838q0 -110 -15 -197t-56.5 -168.5t-109 -135.5t-177.5 -86t-257 -32t-256.5 32t-177.5 86t-109.5 135.5t-57 168.5t-15.5 197z" />
<glyph unicode="V" horiz-adv-x="1464" d="M6 1434h406l319 -1041l324 1041h403l-532 -1434h-385z" />
<glyph unicode="W" horiz-adv-x="2021" d="M27 1434h401l203 -951l239 951h279l240 -949l204 949h400l-402 -1434h-342l-239 926l-240 -926h-342z" />
<glyph unicode="X" horiz-adv-x="1386" d="M2 0l475 723l-450 711h405l260 -500l262 500h404l-453 -711l477 -723h-415l-275 483l-274 -483h-416z" />
<glyph unicode="Y" horiz-adv-x="1380" d="M0 1434h395l295 -570l295 570h395l-516 -867v-567h-348v567z" />
<glyph unicode="Z" horiz-adv-x="1318" d="M59 0v268l725 871h-680v295h1133v-267l-723 -872h733v-295h-1188z" />
<glyph unicode="[" horiz-adv-x="753" d="M125 -293v2011h594v-194h-244v-1624h244v-193h-594z" />
<glyph unicode="\" horiz-adv-x="997" d="M37 1618h252l669 -1802h-251z" />
<glyph unicode="]" horiz-adv-x="753" d="M35 -98h244v1624h-244v192h594v-2011h-594v195z" />
<glyph unicode="^" horiz-adv-x="1284" d="M86 655l383 779h344l385 -779h-364l-193 455l-192 -455h-363z" />
<glyph unicode="_" horiz-adv-x="1454" d="M106 -139h1242v-240h-1242v240z" />
<glyph unicode="`" horiz-adv-x="493" d="M-68 1493h371l258 -287h-274z" />
<glyph unicode="a" horiz-adv-x="1236" d="M49 332q0 162 111.5 254t290.5 92q35 0 74 -3.5t82.5 -10.5t70 -11.5t70 -13.5t49.5 -10v67q0 82 -40 115t-141 33q-135 0 -391 -76l-102 229q313 101 557 101q240 0 346.5 -96.5t106.5 -323.5v-678h-336v121q-160 -144 -371 -144q-166 0 -271.5 98.5t-105.5 256.5z M391 362q0 -64 39 -95t107 -31q138 0 260 102v129q-157 33 -234 33q-85 0 -128.5 -35.5t-43.5 -102.5z" />
<glyph unicode="b" d="M115 0v1493h336v-530q78 64 160.5 99.5t191.5 35.5q194 0 308 -144t114 -417q0 -271 -114 -415.5t-308 -144.5q-109 0 -192 35t-160 99v-111h-336zM451 373q108 -125 245 -125q93 0 141 74t48 217q0 141 -48 214.5t-141 73.5q-138 0 -245 -127v-327z" />
<glyph unicode="c" horiz-adv-x="1071" d="M66 539q0 141 40.5 250.5t110.5 175.5t157.5 99.5t186.5 33.5q197 0 479 -127l-133 -250q-195 90 -291 90q-98 0 -153 -73.5t-55 -198.5t55 -200t153 -75q14 0 30 2t29 4t32 7t30 8t32.5 11t29.5 10.5t30.5 12t26.5 11.5t28 12l23 10l133 -248q-282 -127 -477 -127 q-100 0 -187.5 34t-158 100.5t-111 176.5t-40.5 251z" />
<glyph unicode="d" d="M66 537q0 273 113.5 417t307.5 144q191 0 355 -135v530h336v-1493h-336v111q-163 -134 -355 -134q-194 0 -307.5 144.5t-113.5 415.5zM406 539q0 -291 188 -291q135 0 248 125v327q-113 127 -248 127q-188 0 -188 -288z" />
<glyph unicode="e" horiz-adv-x="1196" d="M63 535q0 265 145.5 414t403.5 149q252 0 386.5 -131.5t134.5 -345.5q0 -40 -4.5 -78.5t-9.5 -56.5l-5 -19h-706q24 -242 215 -242q152 0 393 127l123 -209q-302 -166 -551 -166q-111 0 -205 33.5t-166.5 100.5t-113 175.5t-40.5 248.5zM410 643h395q-2 106 -50 161.5 t-141 55.5q-176 0 -204 -217z" />
<glyph unicode="f" horiz-adv-x="815" d="M39 829v246h147v25q0 200 82 296.5t252 96.5q99 0 202 -28t177 -62l-111 -240q-127 41 -178 41q-19 0 -32 -3t-27.5 -12t-22.5 -30t-8 -53v-31h262v-246h-262v-829h-334v829h-147z" />
<glyph unicode="g" d="M66 537q0 273 113.5 417t307.5 144q191 0 355 -135v112h336v-1061q0 -230 -119 -341t-365 -111q-127 0 -284.5 24t-296.5 64q10 37 31 124.5t34 133.5q109 -34 238.5 -60t206.5 -26q122 0 170.5 41t48.5 135v113q-163 -134 -355 -134q-194 0 -307.5 144.5t-113.5 415.5z M406 539q0 -291 188 -291q135 0 248 125v327q-113 127 -248 127q-188 0 -188 -288z" />
<glyph unicode="h" d="M115 0v1493h336v-539q214 144 407 144q328 0 328 -342v-756h-336v678q0 77 -28 118.5t-99 41.5q-68 0 -144.5 -38t-127.5 -87v-713h-336z" />
<glyph unicode="i" horiz-adv-x="565" d="M106 1212v275h353v-275h-353zM113 0v1075h338v-1075h-338z" />
<glyph unicode="j" horiz-adv-x="577" d="M-113 -227q37 12 65 21.5t52 21t40.5 19t30.5 19.5t22 19.5t14.5 23t9 24.5t4.5 30t2 33.5v40.5v1050h336v-1024q0 -57 -0.5 -83.5t-3.5 -72t-9 -67t-17 -56.5t-28.5 -53t-42.5 -44.5t-59 -42.5t-79 -36t-101.5 -35.5t-126.5 -31.5zM119 1212v275h352v-275h-352z" />
<glyph unicode="k" horiz-adv-x="1204" d="M115 0v1493h336v-827l307 409h389l-363 -424l426 -651h-362l-262 416l-135 -158v-258h-336z" />
<glyph unicode="l" horiz-adv-x="571" d="M117 0v1493h336v-1493h-336z" />
<glyph unicode="m" horiz-adv-x="1921" d="M115 0v1075h336v-129q71 62 165.5 107t194.5 45q227 0 295 -178q69 67 172.5 122.5t214.5 55.5q324 0 324 -342v-756h-336v678q0 77 -24 118.5t-91 41.5q-61 0 -124.5 -38.5t-108.5 -90.5v-709h-336v678q0 78 -24 119t-93 41q-58 0 -119.5 -37t-109.5 -88v-713h-336z" />
<glyph unicode="n" d="M115 0v1075h336v-121q214 144 407 144q328 0 328 -342v-756h-336v678q0 77 -28 118.5t-99 41.5q-68 0 -144.5 -38t-127.5 -87v-713h-336z" />
<glyph unicode="o" horiz-adv-x="1273" d="M63 539q0 267 148.5 413t425.5 146q275 0 424 -147t149 -414t-148 -413.5t-425 -146.5q-276 0 -425 147t-149 415zM406 539q0 -303 231 -303q233 0 233 301q0 303 -233 303q-231 0 -231 -301z" />
<glyph unicode="p" d="M115 -418v1493h336v-112q78 64 160.5 99.5t191.5 35.5q194 0 308 -144t114 -417q0 -271 -114 -415.5t-308 -144.5q-109 0 -192 35t-160 99v-529h-336zM451 373q108 -125 245 -125q93 0 141 74t48 217q0 141 -48 214.5t-141 73.5q-138 0 -245 -127v-327z" />
<glyph unicode="q" d="M66 537q0 273 113.5 417t307.5 144q191 0 355 -135v112h336v-1493h-336v529q-163 -134 -355 -134q-194 0 -307.5 144.5t-113.5 415.5zM406 539q0 -291 188 -291q135 0 248 125v327q-113 127 -248 127q-188 0 -188 -288z" />
<glyph unicode="r" horiz-adv-x="880" d="M115 0v1075h336v-223q10 24 25 50t49 63.5t75 64.5q42 26 108 44q52 14 110 14q17 0 34 -1v-315q-74 0 -136 -19t-102 -49.5t-71.5 -67.5t-48 -74t-27 -67.5t-13.5 -49.5l-3 -19v-426h-336z" />
<glyph unicode="s" horiz-adv-x="1107" d="M45 119l129 235q97 -45 223 -83t207 -38q52 0 86.5 16t34.5 46q0 15 -9 28t-27.5 23.5t-38.5 19t-49.5 16.5t-53 13.5t-56.5 13.5t-53 13q-59 15 -107 32.5t-99 47t-85.5 65t-56.5 88t-22 115.5q0 146 113 237t319 91q132 0 271.5 -36t244.5 -83l-129 -219 q-84 33 -189 58.5t-176 25.5q-55 0 -85.5 -16.5t-30.5 -45.5q0 -15 7.5 -27t24 -22t34 -17.5t46 -15t50.5 -12.5t57 -13t57 -13q61 -15 110.5 -32.5t102 -47.5t88.5 -66.5t59 -90.5t23 -118q0 -152 -118.5 -241t-330.5 -89q-151 0 -310 42.5t-261 99.5z" />
<glyph unicode="t" horiz-adv-x="888" d="M41 829v246h147v271l334 40v-311h293v-246h-293v-460q0 -42 15 -65.5t32.5 -28.5t42.5 -5q14 0 32 3.5t38 10t34 11t33 12t21 8.5l117 -247q-204 -91 -365 -91q-169 0 -251.5 97.5t-82.5 296.5v458h-147z" />
<glyph unicode="u" d="M104 317v758h338v-678q0 -76 27.5 -117.5t97.5 -41.5q66 0 142.5 37t132.5 87v713h336v-1075h-336v121q-212 -144 -412 -144q-167 0 -246.5 89t-79.5 251z" />
<glyph unicode="v" horiz-adv-x="1218" d="M16 1075h363l229 -717l230 717h362l-426 -1075h-332z" />
<glyph unicode="w" horiz-adv-x="1740" d="M25 1075h356l158 -715l194 715h275l194 -715l158 715h356l-334 -1075h-313l-199 674l-200 -674h-316z" />
<glyph unicode="x" horiz-adv-x="1265" d="M4 0l422 537l-399 538h381l225 -346l223 346h383l-399 -536l424 -539h-398l-235 352l-232 -352h-395z" />
<glyph unicode="y" horiz-adv-x="1218" d="M18 1075h361l229 -674l230 674h362l-588 -1493h-360l186 420z" />
<glyph unicode="z" horiz-adv-x="1159" d="M61 0v231l560 568h-539v276h1008v-231l-560 -568h560v-276h-1029z" />
<glyph unicode="{" horiz-adv-x="821" d="M18 612v199q122 0 165.5 58t29.5 167l-25 191q-17 126 15 220.5t107 153.5t183 88t248 29h37v-188h-37q-69 0 -115 -25.5t-63.5 -65.5t-24 -89t2.5 -97l18 -153q22 -178 -51 -268t-240 -121q167 -29 240 -118t51 -267l-18 -154q-9 -48 -2.5 -97t24 -88.5t63.5 -65 t115 -25.5h37v-189h-37q-140 0 -248 29t-183.5 87.5t-107 154t-14.5 221.5l27 190q16 108 -29.5 165.5t-167.5 57.5z" />
<glyph unicode="|" horiz-adv-x="497" d="M127 -252v1927h246v-1927h-246z" />
<glyph unicode="}" horiz-adv-x="821" d="M43 -104h37q69 0 115 25.5t64 65t24.5 88.5t-2.5 97l-19 154q-22 178 51 268t240 121q-167 29 -240 118t-51 267l19 153q9 48 2.5 97t-24.5 89t-64 65.5t-115 25.5h-37v188h37q140 0 248 -29t183.5 -87.5t107 -153.5t14.5 -221l-27 -191q-16 -108 29.5 -165.5 t167.5 -57.5v-199q-122 0 -165.5 -58t-29.5 -167l25 -190q17 -126 -15.5 -221t-107 -154t-182.5 -88t-248 -29h-37v189z" />
<glyph unicode="~" horiz-adv-x="1312" d="M37 440q65 157 157 244.5t224 87.5q68 0 138.5 -23.5t120 -52t112 -52t116.5 -23.5q50 0 92.5 27t87.5 106l193 -78q-134 -332 -379 -332q-65 0 -135.5 24t-121.5 52t-115 52t-117 24q-50 0 -90 -27t-91 -107z" />
<glyph unicode="&#xa1;" horiz-adv-x="589" d="M90 0l105 958h200l105 -958h-410zM123 1098v336h342v-336h-342z" />
<glyph unicode="&#xa2;" horiz-adv-x="1157" d="M88 719q0 133 36.5 238.5t100 172t143.5 103.5t173 43v158h239v-181q143 -35 310 -112l-136 -248q-68 31 -100.5 44.5t-99.5 33.5t-115 20q-99 0 -154 -73.5t-55 -198.5t55.5 -200t153.5 -75q15 0 32.5 2t32 4.5t34.5 8.5t32.5 9t35 12t31.5 12t33 13.5t29 12.5 t29.5 13.5t25.5 11.5l136 -248q-182 -83 -310 -113v-182h-239v160q-93 7 -173 44t-143.5 103.5t-100 172.5t-36.5 239z" />
<glyph unicode="&#xa3;" horiz-adv-x="1200" d="M92 0v233q9 3 23.5 9t53.5 29.5t70 52t59.5 77t35.5 103.5h-219v196h176q-14 27 -47.5 84t-53 93.5t-36.5 96.5t-17 120q0 169 117 265.5t326 96.5q87 0 167.5 -16t158.5 -50.5t116 -54.5t108 -61l-153 -223q-203 116 -330 116q-79 0 -119.5 -34.5t-40.5 -92.5 q0 -39 18 -82t42 -77.5t52.5 -85t43.5 -95.5h330v-196h-314q-14 -73 -53 -130.5t-80 -84.5h580v-289h-1014z" />
<glyph unicode="&#xa5;" horiz-adv-x="1474" d="M47 1434h395l295 -570l295 570h395l-387 -650h236v-194h-352l-13 -23v-92h365v-194h-365v-281h-348v281h-364v194h364v92l-14 23h-350v194h235z" />
<glyph unicode="&#xa6;" horiz-adv-x="501" d="M129 -252v846h246v-846h-246zM129 829v846h246v-846h-246z" />
<glyph unicode="&#xa7;" horiz-adv-x="1146" d="M82 635q0 173 166 248q-127 94 -127 245q0 146 113 237t319 91q133 0 272 -35.5t244 -83.5l-129 -219q-82 32 -188 58t-179 26q-56 0 -87 -16t-31 -45q0 -21 16 -37t49.5 -28.5t62 -20t79 -18.5t73.5 -17q383 -95 383 -346q0 -173 -166 -250q127 -94 127 -244 q0 -146 -113 -236.5t-321 -90.5q-133 0 -273 35t-243 83l131 219q232 -86 367 -86q56 0 85 16.5t29 45.5q0 15 -7.5 27.5t-24 22.5t-34 17.5t-45.5 15t-50.5 13t-57 13.5t-57.5 14q-59 15 -107.5 32t-102 46.5t-89.5 65t-60 87.5t-24 115zM403 672q0 -17 8 -31.5t27.5 -26.5 t36 -20.5t51.5 -18.5t54 -15t61 -15q22 -5 33 -8q65 12 95 40t30 58q0 25 -18.5 44.5t-61.5 36t-72.5 25t-88.5 23.5q-22 5 -32 8q-66 -12 -94.5 -40.5t-28.5 -59.5z" />
<glyph unicode="&#xa8;" horiz-adv-x="520" d="M-59 1227v250h260v-250h-260zM319 1227v250h261v-250h-261z" />
<glyph unicode="&#xa9;" horiz-adv-x="1615" d="M78 717q0 156 49 290.5t140 234.5t230.5 157t311.5 57t311 -57t230 -157t139.5 -234.5t48.5 -290.5t-48.5 -290.5t-139.5 -234.5t-230 -157.5t-311 -57.5t-311.5 57.5t-230.5 157.5t-140 234.5t-49 290.5zM160 717q0 -141 43 -261.5t123 -210.5t204 -141t277 -51 q154 0 278.5 51t206 141t125 211t43.5 261t-43.5 260.5t-125 210t-206 140t-278.5 50.5q-203 0 -351.5 -88t-222 -236t-73.5 -337zM438 715q0 212 102 329t255 117q72 0 143 -23t109 -45.5t90 -58.5l-60 -71q-43 32 -70.5 50.5t-87.5 40t-120 21.5q-116 0 -187 -99t-71 -261 q0 -161 71 -259t187 -98q123 0 267 100q8 5 11 7l60 -68q-52 -36 -90 -58.5t-109 -45.5t-143 -23q-73 0 -137 29t-113.5 83.5t-78 140t-28.5 192.5z" />
<glyph unicode="&#xaa;" horiz-adv-x="788" d="M31 989q0 96 70.5 151.5t185.5 55.5q61 0 213 -27v31q0 44 -24.5 61t-84.5 17q-81 0 -246 -43l-69 151q203 62 358 62q156 0 225.5 -61t69.5 -201v-398h-229v68q-106 -82 -232 -82q-106 0 -171.5 61.5t-65.5 153.5zM262 1010q0 -30 22.5 -47t61.5 -17q85 0 154 53v62 q-105 18 -135 18q-103 0 -103 -69z" />
<glyph unicode="&#xab;" horiz-adv-x="1392" d="M53 449v200l625 430v-313l-344 -217l344 -215v-314zM670 449v200l624 430v-313l-344 -217l344 -215v-314z" />
<glyph unicode="&#xac;" horiz-adv-x="1302" d="M31 557v252h1214v-625h-270v373h-944z" />
<glyph unicode="&#xad;" horiz-adv-x="888" d="M109 449v268h671v-268h-671z" />
<glyph unicode="&#xae;" horiz-adv-x="958" d="M76 1065q0 178 108 294t297 116q188 0 296 -116t108 -294t-108 -294t-296 -116q-189 0 -297 116t-108 294zM150 1065q0 -152 84.5 -247t246.5 -95q161 0 245.5 95t84.5 247t-84.5 247t-245.5 95q-162 0 -246.5 -95t-84.5 -247zM330 864v412h190q64 0 101.5 -33t37.5 -86 q0 -41 -28.5 -72.5t-73.5 -42.5l96 -178h-75l-91 174h-90v-174h-67zM397 1102h121q72 0 72 55q0 57 -68 57h-125v-112z" />
<glyph unicode="&#xaf;" horiz-adv-x="638" d="M0 1257v193h639v-193h-639z" />
<glyph unicode="&#xb0;" horiz-adv-x="937" d="M55 1067q0 152 108.5 260.5t260.5 108.5t260.5 -108.5t108.5 -260.5t-108.5 -260.5t-260.5 -108.5t-260.5 108.5t-108.5 260.5zM248 1067q0 -72 52 -124t124 -52t124 52t52 124t-52 124t-124 52t-124 -52t-52 -124z" />
<glyph unicode="&#xb1;" horiz-adv-x="1296" d="M117 0v215h1061v-215h-1061zM117 600v250h401v270h254v-270h406v-250h-406v-270h-254v270h-401z" />
<glyph unicode="&#xb2;" horiz-adv-x="811" d="M37 788v97q0 61 23.5 115.5t66.5 99.5t86.5 78t101.5 67q22 13 63 35.5t58.5 33t40 27t31 31.5t8.5 31q0 28 -28 46.5t-82 18.5q-105 0 -240 -82l-105 150q183 127 379 127q154 0 236 -71t82 -179q0 -49 -19 -92.5t-44.5 -73.5t-69.5 -61t-75 -47.5t-79 -40.5 q-70 -36 -107.5 -63t-37.5 -52h432v-195h-721z" />
<glyph unicode="&#xb3;" horiz-adv-x="811" d="M16 893l105 158q151 -80 272 -80q62 0 96.5 20t34.5 58q0 31 -22.5 51t-64 28t-73.5 10.5t-77 2.5h-41v196h47q37 0 64 2t61 8.5t52.5 23.5t18.5 42q0 55 -98 55q-105 0 -239 -73l-95 145q22 17 50 33.5t76 39t113 36.5t134 14q148 0 222.5 -60.5t74.5 -152.5 q0 -124 -141 -186q79 -25 129.5 -85t50.5 -135q0 -52 -18 -98t-56 -85.5t-107.5 -63t-162.5 -23.5q-208 0 -406 119z" />
<glyph unicode="&#xb4;" horiz-adv-x="493" d="M-68 1206l256 287h373l-354 -287h-275z" />
<glyph unicode="&#xb5;" horiz-adv-x="1296" d="M125 1075h338v-678q0 -76 27.5 -117.5t97.5 -41.5q66 0 142 36.5t132 87.5v713h336v-1075h-336v121q-207 -139 -399 -144v-395h-336z" />
<glyph unicode="&#xb6;" horiz-adv-x="1501" d="M53 928q0 131 42 229.5t120 158.5t182.5 89t235.5 29h278v-1813h-282v801q-95 0 -179.5 18t-157.5 57.5t-126 97.5t-83 143t-30 190zM1067 -381v1815h283v-1815h-283z" />
<glyph unicode="&#xb7;" horiz-adv-x="559" d="M109 399v367h342v-367h-342z" />
<glyph unicode="&#xb8;" horiz-adv-x="380" d="M-23 -336l66 162q51 -25 96 -25q94 0 94 72q0 27 -14.5 60t-28.5 52l-14 19h148q9 -10 22 -27.5t35 -68t22 -96.5q0 -97 -67.5 -146t-171.5 -49q-110 0 -187 47z" />
<glyph unicode="&#xb9;" horiz-adv-x="569" d="M-2 1507l260 142h227v-861h-237v646l-156 -78z" />
<glyph unicode="&#xba;" horiz-adv-x="811" d="M39 1112q0 161 94.5 248.5t272.5 87.5q176 0 271 -88.5t95 -249.5q0 -160 -95 -248t-271 -88t-271.5 88.5t-95.5 249.5zM268 1112q0 -164 138 -164q137 0 137 162q0 164 -137 164q-138 0 -138 -162z" />
<glyph unicode="&#xbb;" horiz-adv-x="1392" d="M98 20v314l344 217l-344 215v313l625 -428v-200zM715 20v314l344 217l-344 215v313l624 -428v-200z" />
<glyph unicode="&#xbc;" horiz-adv-x="1863" d="M43 1292l260 142h227v-861h-237v646l-156 -78zM377 0l672 1434h254l-672 -1434h-254zM938 150v161l399 549h316v-516h137v-194h-137v-150h-238v150h-477zM1184 344h231v330z" />
<glyph unicode="&#xbd;" horiz-adv-x="1871" d="M43 1292l260 142h227v-861h-237v646l-156 -78zM377 0l672 1434h254l-672 -1434h-254zM1061 0v96q0 61 23.5 116t66.5 99.5t86.5 78t101.5 67.5q23 13 63 35t58 33t40.5 27t31 31t8.5 31q0 28 -28 47t-82 19q-105 0 -240 -82l-105 150q181 126 379 126q154 0 236 -70.5 t82 -178.5q0 -49 -19 -93t-45 -74t-69.5 -61t-74.5 -48t-79 -40q-71 -36 -108 -62.5t-37 -51.5h432v-195h-721z" />
<glyph unicode="&#xbe;" horiz-adv-x="2039" d="M55 678l105 158q151 -80 272 -80q62 0 96.5 20t34.5 58q0 31 -22.5 51t-64 28t-73.5 10.5t-77 2.5h-41v196h47q37 0 64 2t61 8.5t52.5 23.5t18.5 42q0 55 -98 55q-106 0 -240 -73l-94 145q22 17 50 33.5t76 39t113 36.5t134 14q148 0 222.5 -60.5t74.5 -152.5 q0 -124 -141 -186q79 -25 129.5 -85t50.5 -135q0 -52 -18 -98t-56 -85.5t-107.5 -63t-162.5 -23.5q-208 0 -406 119zM563 0l672 1434h254l-672 -1434h-254zM1122 150v161l400 549h315v-516h137v-194h-137v-150h-238v150h-477zM1368 344h231v330z" />
<glyph unicode="&#xbf;" horiz-adv-x="1116" d="M66 358q0 78 27.5 143.5t71 111.5t108 84t129 61.5t143.5 44.5l16 155h209l18 -335q-208 -40 -290 -83t-82 -126q0 -63 48.5 -105.5t139.5 -42.5q143 0 318 111l143 -236q-262 -164 -518 -164q-212 0 -346.5 104t-134.5 277zM496 1098v336h340v-336h-340z" />
<glyph unicode="&#xc0;" horiz-adv-x="1472" d="M8 0l535 1434h387l532 -1434h-381l-82 262h-528l-80 -262h-383zM332 1802h370l259 -286h-275zM557 535h358l-180 577z" />
<glyph unicode="&#xc1;" horiz-adv-x="1472" d="M8 0l535 1434h387l532 -1434h-381l-82 262h-528l-80 -262h-383zM512 1516l256 286h373l-355 -286h-274zM557 535h358l-180 577z" />
<glyph unicode="&#xc2;" horiz-adv-x="1472" d="M8 0l535 1434h387l532 -1434h-381l-82 262h-528l-80 -262h-383zM356 1516l222 286h315l221 -286h-229l-150 143l-149 -143h-230zM557 535h358l-180 577z" />
<glyph unicode="&#xc3;" horiz-adv-x="1472" d="M8 0l535 1434h387l532 -1434h-381l-82 262h-528l-80 -262h-383zM340 1595q17 34 25 49t25 45t28.5 44t31 35t37.5 30.5t42 17t51 7.5q49 0 108 -24.5t109 -49.5t77 -25q24 0 49 19t58 76l145 -72q-22 -45 -34 -67.5t-36.5 -59t-46 -54t-53.5 -32t-69 -14.5 q-48 0 -107 24.5t-109 49t-77 24.5q-25 0 -50 -18.5t-57 -75.5zM557 535h358l-180 577z" />
<glyph unicode="&#xc4;" horiz-adv-x="1472" d="M8 0l535 1434h387l532 -1434h-381l-82 262h-528l-80 -262h-383zM418 1544v250h260v-250h-260zM557 535h358l-180 577zM797 1544v250h260v-250h-260z" />
<glyph unicode="&#xc5;" horiz-adv-x="1472" d="M8 0l535 1434h387l532 -1434h-381l-82 262h-528l-80 -262h-383zM504 1729q0 98 68 166.5t165 68.5q98 0 167 -68.5t69 -166.5q0 -97 -69 -165.5t-167 -68.5q-97 0 -165 68.5t-68 165.5zM557 535h358l-180 577zM659 1729q0 -32 23 -55t55 -23q34 0 57 23t23 55 q0 34 -23 56.5t-57 22.5q-33 0 -55.5 -23t-22.5 -56z" />
<glyph unicode="&#xc6;" horiz-adv-x="2230" d="M-41 0l969 1434h1212v-295h-692v-277h565v-289h-565v-278h702v-295h-1052v262h-553l-166 -262h-420zM725 545h373v581z" />
<glyph unicode="&#xc7;" horiz-adv-x="1341" d="M78 717q0 184 45 326.5t126 232t189.5 135t239.5 45.5q160 0 304.5 -53t324.5 -152l-162 -258q-132 73 -233 111.5t-191 38.5q-135 0 -210 -114.5t-75 -311.5t75 -311.5t210 -114.5q91 0 192 38.5t232 110.5l162 -258q-150 -82 -273 -132t-252 -66q64 -86 64 -172 q0 -97 -68 -146t-172 -49q-109 0 -186 47l65 162q51 -25 97 -25q94 0 94 72q0 41 -39 107q-123 7 -224 55.5t-176.5 138t-117 228t-41.5 315.5z" />
<glyph unicode="&#xc8;" horiz-adv-x="1267" d="M137 0v1434h1043v-295h-693v-277h566v-289h-566v-278h703v-295h-1053zM260 1802h371l258 -286h-275z" />
<glyph unicode="&#xc9;" horiz-adv-x="1267" d="M137 0v1434h1043v-295h-693v-277h566v-289h-566v-278h703v-295h-1053zM442 1516l256 286h373l-354 -286h-275z" />
<glyph unicode="&#xca;" horiz-adv-x="1267" d="M137 0v1434h1043v-295h-693v-277h566v-289h-566v-278h703v-295h-1053zM285 1516l221 286h315l221 -286h-229l-149 143l-150 -143h-229z" />
<glyph unicode="&#xcb;" horiz-adv-x="1267" d="M137 0v1434h1043v-295h-693v-277h566v-289h-566v-278h703v-295h-1053zM346 1536v250h260v-250h-260zM725 1536v250h260v-250h-260z" />
<glyph unicode="&#xcc;" horiz-adv-x="643" d="M-80 1802h371l258 -286h-275zM152 0v1434h350v-1434h-350z" />
<glyph unicode="&#xcd;" horiz-adv-x="643" d="M94 1516l256 286h373l-354 -286h-275zM141 0v1434h351v-1434h-351z" />
<glyph unicode="&#xce;" horiz-adv-x="653" d="M-53 1516l221 286h315l222 -286h-230l-149 143l-150 -143h-229zM150 0v1434h350v-1434h-350z" />
<glyph unicode="&#xcf;" horiz-adv-x="653" d="M6 1532v250h260v-250h-260zM150 0v1434h350v-1434h-350zM385 1532v250h260v-250h-260z" />
<glyph unicode="&#xd0;" horiz-adv-x="1521" d="M23 584v268h149v582h537q365 0 550 -171t185 -546t-185 -546t-550 -171h-537v584h-149zM524 295h150q105 0 179.5 19.5t130.5 66.5t83 130.5t27 205.5t-27 205t-83 130t-130.5 67t-179.5 20h-150v-287h283v-268h-283v-289z" />
<glyph unicode="&#xd1;" horiz-adv-x="1533" d="M137 0v1434h355l555 -912v912h348v-1434h-355l-553 907v-907h-350zM383 1610q20 39 29.5 57t29 51t35.5 49t39 35t49.5 27t57.5 8q49 0 108.5 -24.5t109.5 -49t77 -24.5q24 0 48.5 18.5t57.5 75.5l145 -72q-22 -45 -34 -67.5t-36.5 -59t-46 -54t-53.5 -32t-69 -14.5 q-48 0 -107 24.5t-109 49t-77 24.5q-25 0 -50 -18.5t-57 -75.5z" />
<glyph unicode="&#xd2;" horiz-adv-x="1570" d="M78 717q0 160 40 291t122.5 233t221 158.5t322.5 56.5q149 0 268.5 -37.5t201 -103.5t136 -159.5t79 -202.5t24.5 -236t-24.5 -236t-79 -203t-136 -160t-201 -103.5t-268.5 -37.5q-148 0 -267 37.5t-200.5 103.5t-135.5 160t-78.5 203t-24.5 236zM381 1802h371l258 -286 h-275zM436 717q0 -205 83.5 -323t264.5 -118q94 0 162.5 32.5t109.5 92.5t60 138.5t19 177.5t-19 177t-60 138.5t-109.5 92.5t-162.5 32q-181 0 -264.5 -117.5t-83.5 -322.5z" />
<glyph unicode="&#xd3;" horiz-adv-x="1570" d="M78 717q0 160 40 291t122.5 233t221 158.5t322.5 56.5q149 0 268.5 -37.5t201 -103.5t136 -159.5t79 -202.5t24.5 -236t-24.5 -236t-79 -203t-136 -160t-201 -103.5t-268.5 -37.5q-148 0 -267 37.5t-200.5 103.5t-135.5 160t-78.5 203t-24.5 236zM436 717 q0 -205 83.5 -323t264.5 -118q94 0 162.5 32.5t109.5 92.5t60 138.5t19 177.5t-19 177t-60 138.5t-109.5 92.5t-162.5 32q-181 0 -264.5 -117.5t-83.5 -322.5zM561 1516l256 286h373l-354 -286h-275z" />
<glyph unicode="&#xd4;" horiz-adv-x="1570" d="M78 717q0 160 40 291t122.5 233t221 158.5t322.5 56.5q149 0 268.5 -37.5t201 -103.5t136 -159.5t79 -202.5t24.5 -236t-24.5 -236t-79 -203t-136 -160t-201 -103.5t-268.5 -37.5q-148 0 -267 37.5t-200.5 103.5t-135.5 160t-78.5 203t-24.5 236zM406 1516l221 286h315 l221 -286h-229l-150 143l-149 -143h-229zM436 717q0 -205 83.5 -323t264.5 -118q94 0 162.5 32.5t109.5 92.5t60 138.5t19 177.5t-19 177t-60 138.5t-109.5 92.5t-162.5 32q-181 0 -264.5 -117.5t-83.5 -322.5z" />
<glyph unicode="&#xd5;" horiz-adv-x="1570" d="M78 717q0 160 40 291t122.5 233t221 158.5t322.5 56.5q149 0 268.5 -37.5t201 -103.5t136 -159.5t79 -202.5t24.5 -236t-24.5 -236t-79 -203t-136 -160t-201 -103.5t-268.5 -37.5q-148 0 -267 37.5t-200.5 103.5t-135.5 160t-78.5 203t-24.5 236zM389 1595q17 34 25 49 t25 45t28.5 44t31 35t37.5 30.5t42 17t51 7.5q49 0 108.5 -24.5t109.5 -49.5t77 -25q24 0 48.5 19t57.5 76l146 -72q-18 -37 -28.5 -56.5t-29.5 -51t-35.5 -48.5t-39.5 -36t-49.5 -27t-57.5 -8q-48 0 -107 24.5t-109 49t-77 24.5q-25 0 -49.5 -18.5t-56.5 -75.5zM436 717 q0 -205 83.5 -323t264.5 -118q94 0 162.5 32.5t109.5 92.5t60 138.5t19 177.5t-19 177t-60 138.5t-109.5 92.5t-162.5 32q-181 0 -264.5 -117.5t-83.5 -322.5z" />
<glyph unicode="&#xd6;" horiz-adv-x="1570" d="M78 717q0 160 40 291t122.5 233t221 158.5t322.5 56.5q149 0 268.5 -37.5t201 -103.5t136 -159.5t79 -202.5t24.5 -236t-24.5 -236t-79 -203t-136 -160t-201 -103.5t-268.5 -37.5q-148 0 -267 37.5t-200.5 103.5t-135.5 160t-78.5 203t-24.5 236zM436 717 q0 -205 83.5 -323t264.5 -118q94 0 162.5 32.5t109.5 92.5t60 138.5t19 177.5t-19 177t-60 138.5t-109.5 92.5t-162.5 32q-181 0 -264.5 -117.5t-83.5 -322.5zM467 1536v250h260v-250h-260zM846 1536v250h260v-250h-260z" />
<glyph unicode="&#xd7;" horiz-adv-x="1282" d="M172 944l184 184l283 -262l281 258l186 -184l-272 -252l274 -254l-184 -184l-283 260l-281 -258l-186 184l275 252z" />
<glyph unicode="&#xd8;" horiz-adv-x="1568" d="M76 717q0 160 40 291t122.5 233t221 158.5t322.5 56.5q229 0 394 -92l53 70h241l-147 -189q168 -191 168 -528q0 -127 -24.5 -236t-79 -203t-136 -160t-201 -103.5t-268.5 -37.5q-224 0 -389 89l-51 -66h-240l144 184q-170 190 -170 533zM434 717q0 -146 39 -244l500 635 q-77 49 -191 49q-181 0 -264.5 -117.5t-83.5 -322.5zM596 322q78 -46 186 -46q94 0 162.5 32.5t109.5 92.5t60 138.5t19 177.5q0 141 -39 239z" />
<glyph unicode="&#xd9;" horiz-adv-x="1478" d="M123 596v838h350v-869q0 -52 6.5 -92.5t24 -78.5t46.5 -63t76.5 -40t112.5 -15q80 0 134.5 21.5t82.5 63t39 90t11 114.5v869h348v-838q0 -110 -15 -197t-56.5 -168.5t-109 -135.5t-177.5 -86t-257 -32t-256.5 32t-177.5 86t-109.5 135.5t-57 168.5t-15.5 197zM336 1802 h371l258 -286h-275z" />
<glyph unicode="&#xda;" horiz-adv-x="1478" d="M123 596v838h350v-869q0 -52 6.5 -92.5t24 -78.5t46.5 -63t76.5 -40t112.5 -15q80 0 134.5 21.5t82.5 63t39 90t11 114.5v869h348v-838q0 -110 -15 -197t-56.5 -168.5t-109 -135.5t-177.5 -86t-257 -32t-256.5 32t-177.5 86t-109.5 135.5t-57 168.5t-15.5 197zM516 1516 l256 286h373l-354 -286h-275z" />
<glyph unicode="&#xdb;" horiz-adv-x="1478" d="M123 596v838h350v-869q0 -52 6.5 -92.5t24 -78.5t46.5 -63t76.5 -40t112.5 -15q80 0 134.5 21.5t82.5 63t39 90t11 114.5v869h348v-838q0 -110 -15 -197t-56.5 -168.5t-109 -135.5t-177.5 -86t-257 -32t-256.5 32t-177.5 86t-109.5 135.5t-57 168.5t-15.5 197zM360 1516 l222 286h315l221 -286h-229l-150 143l-149 -143h-230z" />
<glyph unicode="&#xdc;" horiz-adv-x="1478" d="M123 596v838h350v-869q0 -52 6.5 -92.5t24 -78.5t46.5 -63t76.5 -40t112.5 -15q80 0 134.5 21.5t82.5 63t39 90t11 114.5v869h348v-838q0 -110 -15 -197t-56.5 -168.5t-109 -135.5t-177.5 -86t-257 -32t-256.5 32t-177.5 86t-109.5 135.5t-57 168.5t-15.5 197zM422 1536 v250h260v-250h-260zM801 1536v250h260v-250h-260z" />
<glyph unicode="&#xdd;" horiz-adv-x="1380" d="M0 1434h395l295 -570l295 570h395l-516 -867v-567h-348v567zM467 1516l256 286h373l-355 -286h-274z" />
<glyph unicode="&#xde;" horiz-adv-x="1394" d="M137 0v1434h350v-222h269q292 0 438.5 -119.5t146.5 -353.5q0 -469 -585 -469h-269v-270h-350zM487 555h201q156 0 227.5 40t71.5 144q0 105 -71 144t-228 39h-201v-367z" />
<glyph unicode="&#xdf;" horiz-adv-x="1462" d="M115 0v940q0 82 12.5 152t39.5 134t72.5 112.5t108.5 84.5t150.5 55t195.5 19q150 0 265 -35t181 -93.5t99 -127.5t33 -145q0 -37 -8 -71t-19.5 -57t-23 -41t-19.5 -26l-8 -8q-41 -8 -80 -22.5t-73.5 -43t-34.5 -61.5q0 -30 27 -51t95.5 -56.5t120.5 -72.5 q83 -60 126.5 -127t43.5 -154q0 -143 -107.5 -235.5t-287.5 -92.5q-113 0 -239 37t-230 88l129 236q195 -90 311 -90q88 0 88 53q0 52 -106 98q-6 3 -19 8q-29 12 -46 19.5t-49 25t-53 33.5t-47.5 42t-41.5 53.5t-26 65.5t-11 81q0 218 258 322q4 20 4 32q0 67 -60 112.5 t-177 45.5q-132 0 -195 -72t-63 -247v-920h-336z" />
<glyph unicode="&#xe0;" horiz-adv-x="1236" d="M49 332q0 162 111.5 254t290.5 92q35 0 74 -3.5t82.5 -10.5t70 -11.5t70 -13.5t49.5 -10v67q0 82 -40 115t-141 33q-135 0 -391 -76l-102 229q313 101 557 101q240 0 346.5 -96.5t106.5 -323.5v-678h-336v121q-160 -144 -371 -144q-166 0 -271.5 98.5t-105.5 256.5z M223 1493h371l258 -287h-274zM391 362q0 -64 39 -95t107 -31q138 0 260 102v129q-157 33 -234 33q-85 0 -128.5 -35.5t-43.5 -102.5z" />
<glyph unicode="&#xe1;" horiz-adv-x="1236" d="M49 332q0 162 111.5 254t290.5 92q35 0 74 -3.5t82.5 -10.5t70 -11.5t70 -13.5t49.5 -10v67q0 82 -40 115t-141 33q-135 0 -391 -76l-102 229q313 101 557 101q240 0 346.5 -96.5t106.5 -323.5v-678h-336v121q-160 -144 -371 -144q-166 0 -271.5 98.5t-105.5 256.5z M391 362q0 -64 39 -95t107 -31q138 0 260 102v129q-157 33 -234 33q-85 0 -128.5 -35.5t-43.5 -102.5zM403 1206l256 287h373l-354 -287h-275z" />
<glyph unicode="&#xe2;" horiz-adv-x="1236" d="M49 332q0 162 111.5 254t290.5 92q35 0 74 -3.5t82.5 -10.5t70 -11.5t70 -13.5t49.5 -10v67q0 82 -40 115t-141 33q-135 0 -391 -76l-102 229q313 101 557 101q240 0 346.5 -96.5t106.5 -323.5v-678h-336v121q-160 -144 -371 -144q-166 0 -271.5 98.5t-105.5 256.5z M248 1206l221 287h315l222 -287h-230l-149 144l-150 -144h-229zM391 362q0 -64 39 -95t107 -31q138 0 260 102v129q-157 33 -234 33q-85 0 -128.5 -35.5t-43.5 -102.5z" />
<glyph unicode="&#xe3;" horiz-adv-x="1236" d="M49 332q0 162 111.5 254t290.5 92q35 0 74 -3.5t82.5 -10.5t70 -11.5t70 -13.5t49.5 -10v67q0 82 -40 115t-141 33q-135 0 -391 -76l-102 229q313 101 557 101q240 0 346.5 -96.5t106.5 -323.5v-678h-336v121q-160 -144 -371 -144q-166 0 -271.5 98.5t-105.5 256.5z M233 1286q20 39 29.5 57t29 51t35.5 49t39 35t49.5 27t57.5 8q49 0 108.5 -24.5t109.5 -49t77 -24.5q24 0 48.5 18.5t57.5 75.5l146 -71q-22 -45 -34.5 -68t-36.5 -59t-46 -54t-54 -32.5t-69 -14.5q-48 0 -107 25t-109 49.5t-77 24.5q-25 0 -49.5 -19t-56.5 -76zM391 362 q0 -64 39 -95t107 -31q138 0 260 102v129q-157 33 -234 33q-85 0 -128.5 -35.5t-43.5 -102.5z" />
<glyph unicode="&#xe4;" horiz-adv-x="1236" d="M49 332q0 162 111.5 254t290.5 92q35 0 74 -3.5t82.5 -10.5t70 -11.5t70 -13.5t49.5 -10v67q0 82 -40 115t-141 33q-135 0 -391 -76l-102 229q313 101 557 101q240 0 346.5 -96.5t106.5 -323.5v-678h-336v121q-160 -144 -371 -144q-166 0 -271.5 98.5t-105.5 256.5z M307 1227v250h260v-250h-260zM391 362q0 -64 39 -95t107 -31q138 0 260 102v129q-157 33 -234 33q-85 0 -128.5 -35.5t-43.5 -102.5zM686 1227v250h260v-250h-260z" />
<glyph unicode="&#xe5;" horiz-adv-x="1236" d="M49 332q0 162 111.5 254t290.5 92q35 0 74 -3.5t82.5 -10.5t70 -11.5t70 -13.5t49.5 -10v67q0 82 -40 115t-141 33q-135 0 -391 -76l-102 229q313 101 557 101q240 0 346.5 -96.5t106.5 -323.5v-678h-336v121q-160 -144 -371 -144q-166 0 -271.5 98.5t-105.5 256.5z M391 362q0 -64 39 -95t107 -31q138 0 260 102v129q-157 33 -234 33q-85 0 -128.5 -35.5t-43.5 -102.5zM393 1419q0 98 68.5 167t165.5 69q98 0 166.5 -69t68.5 -167q0 -97 -68.5 -165t-166.5 -68q-97 0 -165.5 68t-68.5 165zM549 1419q0 -32 23 -55t55 -23q34 0 57 23t23 55 q0 34 -23 57t-57 23q-32 0 -55 -23t-23 -57z" />
<glyph unicode="&#xe6;" horiz-adv-x="1902" d="M49 332q0 162 111.5 254t290.5 92q105 0 325 -49q5 44 19 98q-6 64 -47 90.5t-132 26.5q-135 0 -391 -76l-102 229q313 101 557 101q214 0 326 -80q132 80 315 80q252 0 386 -131.5t134 -345.5q0 -40 -4.5 -78.5t-8.5 -56.5l-5 -19h-707q24 -242 215 -242q152 0 393 127 l123 -209q-302 -166 -551 -166q-140 0 -252.5 52t-181.5 157q-194 -209 -436 -209q-166 0 -271.5 98.5t-105.5 256.5zM391 362q0 -64 39 -95t107 -31q136 0 258 102q-15 58 -21 127q-7 1 -46 10t-58.5 12.5t-51.5 8t-55 4.5q-85 0 -128.5 -35.5t-43.5 -102.5zM1118 643h395 q-3 217 -190 217q-177 0 -205 -217z" />
<glyph unicode="&#xe7;" horiz-adv-x="1071" d="M66 539q0 141 40.5 250.5t110.5 175.5t157.5 99.5t186.5 33.5q197 0 479 -127l-133 -250q-195 90 -291 90q-98 0 -153 -73.5t-55 -198.5t55 -200t153 -75q14 0 30 2t29 4t32 7t30 8t32.5 11t29.5 10.5t30.5 12t26.5 11.5t28 12l23 10l133 -248q-223 -104 -407 -122 q61 -88 61 -170q0 -97 -67.5 -146t-171.5 -49q-110 0 -187 47l66 162q51 -25 96 -25q94 0 94 72q0 51 -43 111q-87 13 -160.5 52.5t-131 106t-90.5 168t-33 228.5z" />
<glyph unicode="&#xe8;" horiz-adv-x="1196" d="M63 535q0 265 145.5 414t403.5 149q252 0 386.5 -131.5t134.5 -345.5q0 -40 -4.5 -78.5t-9.5 -56.5l-5 -19h-706q24 -242 215 -242q152 0 393 127l123 -209q-302 -166 -551 -166q-111 0 -205 33.5t-166.5 100.5t-113 175.5t-40.5 248.5zM215 1493h371l258 -287h-275z M410 643h395q-2 106 -50 161.5t-141 55.5q-176 0 -204 -217z" />
<glyph unicode="&#xe9;" horiz-adv-x="1196" d="M63 535q0 265 145.5 414t403.5 149q252 0 386.5 -131.5t134.5 -345.5q0 -40 -4.5 -78.5t-9.5 -56.5l-5 -19h-706q24 -242 215 -242q152 0 393 127l123 -209q-302 -166 -551 -166q-111 0 -205 33.5t-166.5 100.5t-113 175.5t-40.5 248.5zM397 1206l256 287h373l-354 -287 h-275zM410 643h395q-2 106 -50 161.5t-141 55.5q-176 0 -204 -217z" />
<glyph unicode="&#xea;" horiz-adv-x="1196" d="M63 535q0 265 145.5 414t403.5 149q252 0 386.5 -131.5t134.5 -345.5q0 -40 -4.5 -78.5t-9.5 -56.5l-5 -19h-706q24 -242 215 -242q152 0 393 127l123 -209q-302 -166 -551 -166q-111 0 -205 33.5t-166.5 100.5t-113 175.5t-40.5 248.5zM242 1206l221 287h315l221 -287 h-229l-149 144l-150 -144h-229zM410 643h395q-2 106 -50 161.5t-141 55.5q-176 0 -204 -217z" />
<glyph unicode="&#xeb;" horiz-adv-x="1196" d="M63 535q0 265 145.5 414t403.5 149q252 0 386.5 -131.5t134.5 -345.5q0 -40 -4.5 -78.5t-9.5 -56.5l-5 -19h-706q24 -242 215 -242q152 0 393 127l123 -209q-302 -166 -551 -166q-111 0 -205 33.5t-166.5 100.5t-113 175.5t-40.5 248.5zM301 1227v250h260v-250h-260z M410 643h395q-2 106 -50 161.5t-141 55.5q-176 0 -204 -217zM680 1227v250h260v-250h-260z" />
<glyph unicode="&#xec;" horiz-adv-x="581" d="M-111 1493h371l258 -287h-274zM127 0v1075h336v-1075h-336z" />
<glyph unicode="&#xed;" horiz-adv-x="581" d="M63 1206l256 287h373l-354 -287h-275zM119 0v1075h336v-1075h-336z" />
<glyph unicode="&#xee;" horiz-adv-x="589" d="M-86 1206l221 287h316l221 -287h-230l-149 144l-150 -144h-229zM127 0v1075h336v-1075h-336z" />
<glyph unicode="&#xef;" horiz-adv-x="587" d="M-25 1227v250h261v-250h-261zM127 0v1075h336v-1075h-336zM354 1227v250h260v-250h-260z" />
<glyph unicode="&#xf0;" horiz-adv-x="1302" d="M63 477q0 223 139 360.5t351 137.5q67 0 126.5 -14t96.5 -33.5t64.5 -39.5t39.5 -34l11 -14q-30 100 -103 176t-184 117l-80 -91h-270l113 127q-42 -1 -81.5 -5t-57.5 -8l-19 -3l-39 258q82 23 219 23q83 0 199 -19l69 78h271l-129 -145q211 -99 323.5 -298.5 t112.5 -449.5q0 -299 -159.5 -461t-440.5 -162q-266 0 -419 135t-153 365zM414 475q0 -103 58 -171t185 -68q125 0 183.5 67t58.5 172q0 106 -58 174t-184 68q-66 0 -115 -20.5t-76 -55.5t-39.5 -76.5t-12.5 -89.5z" />
<glyph unicode="&#xf1;" d="M115 0v1075h336v-121q214 144 407 144q328 0 328 -342v-756h-336v678q0 77 -28 118.5t-99 41.5q-68 0 -144.5 -38t-127.5 -87v-713h-336zM252 1286q20 39 29.5 57t29 51t35.5 49t39 35t49.5 27t57.5 8q49 0 108 -24.5t109 -49t77 -24.5q25 0 49.5 18.5t57.5 75.5l145 -71 q-23 -46 -34.5 -68t-36 -58.5t-46 -54.5t-53.5 -32.5t-69 -14.5q-48 0 -107 25t-109 49.5t-77 24.5q-54 0 -107 -95z" />
<glyph unicode="&#xf2;" horiz-adv-x="1273" d="M63 539q0 267 148.5 413t425.5 146q275 0 424 -147t149 -414t-148 -413.5t-425 -146.5q-276 0 -425 147t-149 415zM231 1493h371l258 -287h-274zM406 539q0 -303 231 -303q233 0 233 301q0 303 -233 303q-231 0 -231 -301z" />
<glyph unicode="&#xf3;" horiz-adv-x="1273" d="M63 539q0 267 148.5 413t425.5 146q275 0 424 -147t149 -414t-148 -413.5t-425 -146.5q-276 0 -425 147t-149 415zM406 539q0 -303 231 -303q233 0 233 301q0 303 -233 303q-231 0 -231 -301zM414 1206l256 287h372l-354 -287h-274z" />
<glyph unicode="&#xf4;" horiz-adv-x="1273" d="M63 539q0 267 148.5 413t425.5 146q275 0 424 -147t149 -414t-148 -413.5t-425 -146.5q-276 0 -425 147t-149 415zM258 1206l221 287h316l221 -287h-230l-149 144l-150 -144h-229zM406 539q0 -303 231 -303q233 0 233 301q0 303 -233 303q-231 0 -231 -301z" />
<glyph unicode="&#xf5;" horiz-adv-x="1273" d="M63 539q0 267 148.5 413t425.5 146q275 0 424 -147t149 -414t-148 -413.5t-425 -146.5q-276 0 -425 147t-149 415zM244 1286q16 31 22 43t21 39.5t24.5 39.5t25.5 33t30 30.5t32.5 21t39.5 16t44 4.5q49 0 108.5 -24.5t109.5 -49t77 -24.5q25 0 49.5 18.5t57.5 75.5 l145 -71q-23 -46 -34.5 -68t-36 -58.5t-46 -54.5t-53.5 -32.5t-69 -14.5q-48 0 -107 25t-109 49.5t-77 24.5q-54 0 -107 -95zM406 539q0 -303 231 -303q233 0 233 301q0 303 -233 303q-231 0 -231 -301z" />
<glyph unicode="&#xf6;" horiz-adv-x="1273" d="M63 539q0 267 148.5 413t425.5 146q275 0 424 -147t149 -414t-148 -413.5t-425 -146.5q-276 0 -425 147t-149 415zM319 1227v250h261v-250h-261zM406 539q0 -303 231 -303q233 0 233 301q0 303 -233 303q-231 0 -231 -301zM698 1227v250h260v-250h-260z" />
<glyph unicode="&#xf7;" horiz-adv-x="1296" d="M117 557v252h1061v-252h-1061zM485 297q0 68 47 116t115 48q67 0 114.5 -48t47.5 -116q0 -67 -47.5 -114.5t-114.5 -47.5q-69 0 -115.5 47t-46.5 115zM485 1069q0 68 46.5 115t115.5 47q67 0 114.5 -47.5t47.5 -114.5q0 -69 -47 -115.5t-115 -46.5q-69 0 -115.5 46.5 t-46.5 115.5z" />
<glyph unicode="&#xf8;" horiz-adv-x="1271" d="M61 539q0 267 148.5 413t425.5 146q175 0 311 -68l37 45h193l-111 -133q143 -146 143 -405q0 -267 -148 -413.5t-425 -146.5q-186 0 -316 68l-36 -45h-197l113 135q-138 144 -138 404zM403 539q0 -85 17 -140l340 408q-58 33 -125 33q-232 0 -232 -301zM506 268 q49 -32 129 -32q233 0 233 301q0 83 -18 145z" />
<glyph unicode="&#xf9;" d="M104 317v758h338v-678q0 -76 27.5 -117.5t97.5 -41.5q66 0 142.5 37t132.5 87v713h336v-1075h-336v121q-212 -144 -412 -144q-167 0 -246.5 89t-79.5 251zM236 1493h370l258 -287h-274z" />
<glyph unicode="&#xfa;" d="M104 317v758h338v-678q0 -76 27.5 -117.5t97.5 -41.5q66 0 142.5 37t132.5 87v713h336v-1075h-336v121q-212 -144 -412 -144q-167 0 -246.5 89t-79.5 251zM416 1206l256 287h372l-354 -287h-274z" />
<glyph unicode="&#xfb;" d="M104 317v758h338v-678q0 -76 27.5 -117.5t97.5 -41.5q66 0 142.5 37t132.5 87v713h336v-1075h-336v121q-212 -144 -412 -144q-167 0 -246.5 89t-79.5 251zM260 1206l221 287h316l221 -287h-230l-149 144l-150 -144h-229z" />
<glyph unicode="&#xfc;" d="M104 317v758h338v-678q0 -76 27.5 -117.5t97.5 -41.5q66 0 142.5 37t132.5 87v713h336v-1075h-336v121q-212 -144 -412 -144q-167 0 -246.5 89t-79.5 251zM322 1227v250h260v-250h-260zM700 1227v250h261v-250h-261z" />
<glyph unicode="&#xfd;" horiz-adv-x="1218" d="M18 1075h361l229 -674l230 674h362l-588 -1493h-360l186 420zM385 1206l256 287h373l-355 -287h-274z" />
<glyph unicode="&#xfe;" d="M115 -418v1911h336v-530q78 64 160.5 99.5t191.5 35.5q194 0 308 -144t114 -417q0 -271 -114 -415.5t-308 -144.5q-109 0 -192 35t-160 99v-529h-336zM451 373q108 -125 245 -125q93 0 141 74t48 217q0 141 -48 214.5t-141 73.5q-138 0 -245 -127v-327z" />
<glyph unicode="&#xff;" horiz-adv-x="1218" d="M18 1075h361l229 -674l230 674h362l-588 -1493h-360l186 420zM291 1227v250h260v-250h-260zM670 1227v250h260v-250h-260z" />
<glyph unicode="&#x100;" horiz-adv-x="1472" d="M8 0l535 1434h387l532 -1434h-381l-82 262h-528l-80 -262h-383zM418 1567v192h639v-192h-639zM557 535h358l-180 577z" />
<glyph unicode="&#x101;" horiz-adv-x="1236" d="M49 332q0 162 111.5 254t290.5 92q35 0 74 -3.5t82.5 -10.5t70 -11.5t70 -13.5t49.5 -10v67q0 82 -40 115t-141 33q-135 0 -391 -76l-102 229q313 101 557 101q240 0 346.5 -96.5t106.5 -323.5v-678h-336v121q-160 -144 -371 -144q-166 0 -271.5 98.5t-105.5 256.5z M307 1257v193h639v-193h-639zM391 362q0 -64 39 -95t107 -31q138 0 260 102v129q-157 33 -234 33q-85 0 -128.5 -35.5t-43.5 -102.5z" />
<glyph unicode="&#x102;" horiz-adv-x="1472" d="M8 0l535 1434h387l532 -1434h-381l-82 262h-528l-80 -262h-383zM385 1778h203q0 -40 38.5 -62t106.5 -22q69 0 108.5 22t39.5 62h204q0 -123 -92.5 -192.5t-259.5 -69.5q-165 0 -256.5 69.5t-91.5 192.5zM557 535h358l-180 577z" />
<glyph unicode="&#x103;" horiz-adv-x="1236" d="M49 332q0 162 111.5 254t290.5 92q35 0 74 -3.5t82.5 -10.5t70 -11.5t70 -13.5t49.5 -10v67q0 82 -40 115t-141 33q-135 0 -391 -76l-102 229q313 101 557 101q240 0 346.5 -96.5t106.5 -323.5v-678h-336v121q-160 -144 -371 -144q-166 0 -271.5 98.5t-105.5 256.5z M279 1468h202q0 -40 39 -62t107 -22q69 0 108 22t39 62h205q0 -123 -92.5 -192.5t-259.5 -69.5q-165 0 -256.5 69.5t-91.5 192.5zM391 362q0 -64 39 -95t107 -31q138 0 260 102v129q-157 33 -234 33q-85 0 -128.5 -35.5t-43.5 -102.5z" />
<glyph unicode="&#x104;" horiz-adv-x="1472" d="M8 0l535 1434h387l532 -1434h-6q-37 -22 -63.5 -39t-59 -43t-50 -53.5t-17.5 -54.5q0 -20 9 -33.5t20 -20.5t32 -10.5t31.5 -4t34 0t24.5 0.5l-28 -148q-111 0 -161 10q-175 33 -175 173q0 126 200 223h-172l-82 262h-528l-80 -262h-383zM557 535h358l-180 577z" />
<glyph unicode="&#x105;" horiz-adv-x="1236" d="M49 332q0 162 111.5 254t290.5 92q35 0 74 -3.5t82.5 -10.5t70 -11.5t70 -13.5t49.5 -10v67q0 82 -40 115t-141 33q-135 0 -391 -76l-102 229q313 101 557 101q240 0 346.5 -96.5t106.5 -323.5v-678h-7q-37 -22 -63.5 -39t-59 -43t-50 -53.5t-17.5 -54.5q0 -20 9 -33.5 t20 -20.5t32 -10.5t31.5 -4t34 0t24.5 0.5l-28 -148q-111 0 -161 10q-175 33 -175 173q0 125 201 223h-127v121q-160 -144 -371 -144q-166 0 -271.5 98.5t-105.5 256.5zM391 362q0 -64 39 -95t107 -31q138 0 260 102v129q-157 33 -234 33q-85 0 -128.5 -35.5t-43.5 -102.5z " />
<glyph unicode="&#x106;" horiz-adv-x="1341" d="M78 717q0 184 45 326.5t126 232t189.5 135t239.5 45.5q160 0 304.5 -53t324.5 -152l-162 -258q-132 73 -233 111.5t-191 38.5q-135 0 -210 -114.5t-75 -311.5t75 -311.5t210 -114.5q91 0 192 38.5t232 110.5l162 -258q-180 -99 -324.5 -152t-304.5 -53q-131 0 -239 45.5 t-189.5 135t-126.5 232t-45 327.5zM557 1516l256 286h373l-355 -286h-274z" />
<glyph unicode="&#x107;" horiz-adv-x="1071" d="M66 539q0 141 40.5 250.5t110.5 175.5t157.5 99.5t186.5 33.5q197 0 479 -127l-133 -250q-195 90 -291 90q-98 0 -153 -73.5t-55 -198.5t55 -200t153 -75q14 0 30 2t29 4t32 7t30 8t32.5 11t29.5 10.5t30.5 12t26.5 11.5t28 12l23 10l133 -248q-282 -127 -477 -127 q-100 0 -187.5 34t-158 100.5t-111 176.5t-40.5 251zM360 1206l256 287h373l-354 -287h-275z" />
<glyph unicode="&#x10a;" horiz-adv-x="1341" d="M78 717q0 184 45 326.5t126 232t189.5 135t239.5 45.5q160 0 304.5 -53t324.5 -152l-162 -258q-132 73 -233 111.5t-191 38.5q-135 0 -210 -114.5t-75 -311.5t75 -311.5t210 -114.5q91 0 192 38.5t232 110.5l162 -258q-180 -99 -324.5 -152t-304.5 -53q-131 0 -239 45.5 t-189.5 135t-126.5 232t-45 327.5zM584 1536v250h260v-250h-260z" />
<glyph unicode="&#x10b;" horiz-adv-x="1071" d="M66 539q0 141 40.5 250.5t110.5 175.5t157.5 99.5t186.5 33.5q197 0 479 -127l-133 -250q-195 90 -291 90q-98 0 -153 -73.5t-55 -198.5t55 -200t153 -75q14 0 30 2t29 4t32 7t30 8t32.5 11t29.5 10.5t30.5 12t26.5 11.5t28 12l23 10l133 -248q-282 -127 -477 -127 q-100 0 -187.5 34t-158 100.5t-111 176.5t-40.5 251zM453 1227v250h260v-250h-260z" />
<glyph unicode="&#x10c;" horiz-adv-x="1341" d="M78 717q0 184 45 326.5t126 232t189.5 135t239.5 45.5q160 0 304.5 -53t324.5 -152l-162 -258q-132 73 -233 111.5t-191 38.5q-135 0 -210 -114.5t-75 -311.5t75 -311.5t210 -114.5q91 0 192 38.5t232 110.5l162 -258q-180 -99 -324.5 -152t-304.5 -53q-131 0 -239 45.5 t-189.5 135t-126.5 232t-45 327.5zM342 1802h229l150 -145l149 145h230l-221 -286h-316z" />
<glyph unicode="&#x10d;" horiz-adv-x="1071" d="M66 539q0 141 40.5 250.5t110.5 175.5t157.5 99.5t186.5 33.5q197 0 479 -127l-133 -250q-195 90 -291 90q-98 0 -153 -73.5t-55 -198.5t55 -200t153 -75q14 0 30 2t29 4t32 7t30 8t32.5 11t29.5 10.5t30.5 12t26.5 11.5t28 12l23 10l133 -248q-282 -127 -477 -127 q-100 0 -187.5 34t-158 100.5t-111 176.5t-40.5 251zM203 1493h229l150 -145l149 145h230l-222 -287h-315z" />
<glyph unicode="&#x10e;" horiz-adv-x="1488" d="M137 0v1434h537q365 0 550 -171t185 -546t-185 -546t-550 -171h-537zM393 1802h230l149 -145l150 145h229l-221 -286h-316zM489 295h150q105 0 179.5 19.5t130.5 66.5t83 130.5t27 205.5t-27 205t-83 130t-130.5 67t-179.5 20h-150v-844z" />
<glyph unicode="&#x10f;" horiz-adv-x="1460" d="M66 537q0 273 113.5 417t307.5 144q191 0 355 -135v530h336v-1493h-336v111q-163 -134 -355 -134q-194 0 -307.5 144.5t-113.5 415.5zM406 539q0 -291 188 -291q135 0 248 125v327q-113 127 -248 127q-188 0 -188 -288zM1274 1063l115 168h-109v262h246l14 -291 l-203 -219z" />
<glyph unicode="&#x110;" horiz-adv-x="1521" d="M23 584v268h149v582h537q365 0 550 -171t185 -546t-185 -546t-550 -171h-537v584h-149zM524 295h150q105 0 179.5 19.5t130.5 66.5t83 130.5t27 205.5t-27 205t-83 130t-130.5 67t-179.5 20h-150v-287h283v-268h-283v-289z" />
<glyph unicode="&#x111;" horiz-adv-x="1302" d="M66 537q0 273 113.5 417t307.5 144q191 0 355 -135v215h-346v192h346v123h336v-123h122v-192h-122v-1178h-336v111q-163 -134 -355 -134q-194 0 -307.5 144.5t-113.5 415.5zM406 539q0 -291 188 -291q135 0 248 125v327q-113 127 -248 127q-188 0 -188 -288z" />
<glyph unicode="&#x112;" horiz-adv-x="1267" d="M137 0v1434h1043v-295h-693v-277h566v-289h-566v-278h703v-295h-1053zM344 1567v192h639v-192h-639z" />
<glyph unicode="&#x113;" horiz-adv-x="1196" d="M63 535q0 265 145.5 414t403.5 149q252 0 386.5 -131.5t134.5 -345.5q0 -40 -4.5 -78.5t-9.5 -56.5l-5 -19h-706q24 -242 215 -242q152 0 393 127l123 -209q-302 -166 -551 -166q-111 0 -205 33.5t-166.5 100.5t-113 175.5t-40.5 248.5zM301 1257v193h639v-193h-639z M410 643h395q-2 106 -50 161.5t-141 55.5q-176 0 -204 -217z" />
<glyph unicode="&#x116;" horiz-adv-x="1267" d="M137 0v1434h1043v-295h-693v-277h566v-289h-566v-278h703v-295h-1053zM535 1536v250h260v-250h-260z" />
<glyph unicode="&#x117;" horiz-adv-x="1196" d="M63 535q0 265 145.5 414t403.5 149q252 0 386.5 -131.5t134.5 -345.5q0 -40 -4.5 -78.5t-9.5 -56.5l-5 -19h-706q24 -242 215 -242q152 0 393 127l123 -209q-302 -166 -551 -166q-111 0 -205 33.5t-166.5 100.5t-113 175.5t-40.5 248.5zM410 643h395q-2 106 -50 161.5 t-141 55.5q-176 0 -204 -217zM492 1227v250h260v-250h-260z" />
<glyph unicode="&#x118;" horiz-adv-x="1267" d="M137 0v1434h1043v-295h-693v-277h566v-289h-566v-278h703v-295h-6q-38 -22 -64.5 -39t-59 -43t-50 -53.5t-17.5 -54.5q0 -17 6 -29.5t17.5 -20t23 -12t29 -5.5t28 -1.5t27.5 0t21 0.5l-29 -148q-111 0 -161 10q-175 33 -175 173q0 125 201 223h-844z" />
<glyph unicode="&#x119;" horiz-adv-x="1198" d="M63 535q0 265 145.5 414t403.5 149q252 0 386.5 -131.5t134.5 -345.5q0 -40 -4.5 -78.5t-9.5 -56.5l-5 -19h-706q24 -242 215 -242q152 0 393 127l123 -209q-183 -105 -367 -145q-186 -107 -186 -188q0 -20 9 -33.5t20 -20.5t32 -10.5t31.5 -4t34 0t24.5 0.5l-28 -148 q-111 0 -161 10q-175 33 -175 173q0 113 162 203q-102 8 -186.5 45t-149 103.5t-100.5 170.5t-36 236zM410 643h395q-2 106 -50 161.5t-141 55.5q-176 0 -204 -217z" />
<glyph unicode="&#x11a;" horiz-adv-x="1267" d="M137 0v1434h1043v-295h-693v-277h566v-289h-566v-278h703v-295h-1053zM285 1796h229l150 -145l149 145h229l-221 -287h-315z" />
<glyph unicode="&#x11b;" horiz-adv-x="1196" d="M63 535q0 265 145.5 414t403.5 149q252 0 386.5 -131.5t134.5 -345.5q0 -40 -4.5 -78.5t-9.5 -56.5l-5 -19h-706q24 -242 215 -242q152 0 393 127l123 -209q-302 -166 -551 -166q-111 0 -205 33.5t-166.5 100.5t-113 175.5t-40.5 248.5zM242 1493h229l150 -145l149 145 h229l-221 -287h-315zM410 643h395q-2 106 -50 161.5t-141 55.5q-176 0 -204 -217z" />
<glyph unicode="&#x11e;" horiz-adv-x="1460" d="M78 715q0 185 45.5 328t128 232.5t192.5 135t244 45.5q168 0 322 -54.5t336 -154.5l-164 -258q-147 75 -252 114.5t-199 39.5q-140 0 -217.5 -114.5t-77.5 -311.5q0 -202 73.5 -322.5t217.5 -120.5q140 0 309 152v133h-325v275h651v-834h-326v137q-190 -160 -389 -160 q-116 0 -217 45.5t-180.5 134t-125.5 232.5t-46 326zM369 1778h202q0 -40 39 -62t107 -22q69 0 108 22t39 62h205q0 -123 -92.5 -192.5t-259.5 -69.5q-165 0 -256.5 69.5t-91.5 192.5z" />
<glyph unicode="&#x11f;" d="M66 537q0 273 113.5 417t307.5 144q191 0 355 -135v112h336v-1061q0 -230 -119 -341t-365 -111q-127 0 -284.5 24t-296.5 64q10 37 31 124.5t34 133.5q109 -34 238.5 -60t206.5 -26q122 0 170.5 41t48.5 135v113q-163 -134 -355 -134q-194 0 -307.5 144.5t-113.5 415.5z M297 1468h203q0 -40 38.5 -62t106.5 -22q69 0 108.5 22t39.5 62h204q0 -123 -92.5 -192.5t-259.5 -69.5q-165 0 -256.5 69.5t-91.5 192.5zM406 539q0 -291 188 -291q135 0 248 125v327q-113 127 -248 127q-188 0 -188 -288z" />
<glyph unicode="&#x120;" horiz-adv-x="1460" d="M78 715q0 185 45.5 328t128 232.5t192.5 135t244 45.5q168 0 322 -54.5t336 -154.5l-164 -258q-147 75 -252 114.5t-199 39.5q-140 0 -217.5 -114.5t-77.5 -311.5q0 -202 73.5 -322.5t217.5 -120.5q140 0 309 152v133h-325v275h651v-834h-326v137q-190 -160 -389 -160 q-116 0 -217 45.5t-180.5 134t-125.5 232.5t-46 326zM588 1536v250h260v-250h-260z" />
<glyph unicode="&#x121;" d="M66 537q0 273 113.5 417t307.5 144q191 0 355 -135v112h336v-1061q0 -230 -119 -341t-365 -111q-127 0 -284.5 24t-296.5 64q10 37 31 124.5t34 133.5q109 -34 238.5 -60t206.5 -26q122 0 170.5 41t48.5 135v113q-163 -134 -355 -134q-194 0 -307.5 144.5t-113.5 415.5z M406 539q0 -291 188 -291q135 0 248 125v327q-113 127 -248 127q-188 0 -188 -288zM516 1227v250h260v-250h-260z" />
<glyph unicode="&#x122;" horiz-adv-x="1460" d="M78 715q0 185 45.5 328t128 232.5t192.5 135t244 45.5q168 0 322 -54.5t336 -154.5l-164 -258q-147 75 -252 114.5t-199 39.5q-140 0 -217.5 -114.5t-77.5 -311.5q0 -202 73.5 -322.5t217.5 -120.5q140 0 309 152v133h-325v275h651v-834h-326v137q-190 -160 -389 -160 q-116 0 -217 45.5t-180.5 134t-125.5 232.5t-46 326zM625 -543l114 168h-108v262h246l14 -290l-203 -220z" />
<glyph unicode="&#x123;" d="M66 537q0 273 113.5 417t307.5 144q191 0 355 -135v112h336v-1061q0 -230 -119 -341t-365 -111q-127 0 -284.5 24t-296.5 64q10 37 31 124.5t34 133.5q109 -34 238.5 -60t206.5 -26q122 0 170.5 41t48.5 135v113q-163 -134 -355 -134q-194 0 -307.5 144.5t-113.5 415.5z M406 539q0 -291 188 -291q135 0 248 125v327q-113 127 -248 127q-188 0 -188 -288zM510 1518l203 219l63 -80l-114 -168h108v-262h-246z" />
<glyph unicode="&#x126;" horiz-adv-x="1572" d="M20 1053v192h154v189h350v-189h527v189h348v-189h155v-192h-155v-1053h-348v608h-527v-608h-350v1053h-154zM524 897h527v156h-527v-156z" />
<glyph unicode="&#x127;" horiz-adv-x="1302" d="M2 1178v192h123v123h336v-123h348v-192h-348v-224q214 144 407 144q328 0 328 -342v-756h-336v678q0 77 -28 118.5t-99 41.5q-68 0 -144.5 -38t-127.5 -87v-713h-336v1178h-123z" />
<glyph unicode="&#x128;" horiz-adv-x="653" d="M-70 1595q17 34 25 49t25 45t28.5 44t31 35t37.5 30.5t42 17t51 7.5q49 0 108.5 -24.5t109.5 -49.5t77 -25q24 0 48.5 19t57.5 76l146 -72q-18 -37 -28.5 -56.5t-29.5 -51t-35.5 -48.5t-39.5 -36t-49.5 -27t-57.5 -8q-48 0 -107 24.5t-109 49t-77 24.5q-25 0 -49.5 -18.5 t-56.5 -75.5zM152 0v1434h350v-1434h-350z" />
<glyph unicode="&#x129;" horiz-adv-x="589" d="M-100 1286q16 31 22 43t21 39.5t24.5 39.5t25.5 33t30 30.5t32.5 21t39.5 16t44 4.5q49 0 108.5 -24.5t109.5 -49t77 -24.5q25 0 49.5 18.5t57.5 75.5l145 -71q-22 -45 -34.5 -68t-36.5 -59t-46 -54t-54 -32.5t-69 -14.5q-48 0 -106.5 25t-108.5 49.5t-77 24.5 q-54 0 -107 -95zM127 0v1075h336v-1075h-336z" />
<glyph unicode="&#x12a;" horiz-adv-x="657" d="M8 1567v192h639v-192h-639zM152 0v1434h350v-1434h-350z" />
<glyph unicode="&#x12b;" horiz-adv-x="591" d="M-25 1257v193h639v-193h-639zM127 0v1075h336v-1075h-336z" />
<glyph unicode="&#x12c;" horiz-adv-x="655" d="M-25 1778h203q0 -40 39 -62t107 -22q69 0 108 22t39 62h205q0 -123 -92.5 -192.5t-259.5 -69.5q-165 0 -257 69.5t-92 192.5zM150 0v1434h350v-1434h-350z" />
<glyph unicode="&#x12d;" horiz-adv-x="587" d="M-57 1468h202q0 -40 39 -62t107 -22q69 0 108 22t39 62h205q0 -123 -92.5 -192.5t-259.5 -69.5q-165 0 -256.5 69.5t-91.5 192.5zM125 0v1075h336v-1075h-336z" />
<glyph unicode="&#x12e;" horiz-adv-x="632" d="M86 -223q0 125 201 223h-144v1434h351v-1434h-5q-37 -22 -63.5 -39t-59 -43t-50 -53.5t-17.5 -54.5q0 -17 6 -29.5t17.5 -20t23 -12t29 -5.5t28 -1.5t27.5 0t21 0.5l-29 -148q-111 0 -161 10q-175 33 -175 173z" />
<glyph unicode="&#x12f;" horiz-adv-x="577" d="M55 -223q0 125 201 223h-127v1075h336v-1075h-6q-38 -22 -64.5 -39t-59 -43t-50 -53.5t-17.5 -54.5q0 -17 6 -29.5t17.5 -20t23 -12t29 -5.5t28 -1.5t27.5 0t21 0.5l-29 -148q-111 0 -161 10q-175 33 -175 173zM119 1212v275h352v-275h-352z" />
<glyph unicode="&#x130;" horiz-adv-x="626" d="M137 0v1434h350v-1434h-350zM182 1536v250h260v-250h-260z" />
<glyph unicode="&#x131;" horiz-adv-x="565" d="M115 0v1075h336v-1075h-336z" />
<glyph unicode="&#x132;" horiz-adv-x="1282" d="M137 0v1434h350v-1434h-350zM553 -123q46 15 79 27.5t59.5 26.5t43 23t28.5 25.5t17.5 27t8.5 33t3.5 37t0.5 46.5v1311h350v-1293q0 -57 -0.5 -83.5t-3.5 -71.5t-9 -66.5t-17.5 -56.5t-29 -53t-43 -44.5t-60.5 -42t-80.5 -35.5t-103 -35.5t-128.5 -31.5z" />
<glyph unicode="&#x133;" horiz-adv-x="1153" d="M106 1212v275h353v-275h-353zM113 0v1075h338v-1075h-338zM463 -227q46 15 79 26.5t59 25.5t42.5 23t28.5 26t17.5 27t8.5 34t3.5 39t0.5 49v2v1050h336v-1024q0 -57 -0.5 -83.5t-3.5 -72t-9 -67t-17 -56.5t-28.5 -53t-42.5 -44.5t-59 -42.5t-79 -36t-101.5 -35.5 t-126.5 -31.5zM694 1212v275h353v-275h-353z" />
<glyph unicode="&#x134;" horiz-adv-x="655" d="M-86 -123q46 15 79 27.5t59.5 26.5t43 23t28.5 25.5t17.5 27t8.5 33t3.5 37t0.5 46.5v1311h350v-1293q0 -57 -0.5 -83.5t-3.5 -71.5t-9 -66.5t-17.5 -56.5t-29 -53t-43 -44.5t-60.5 -42t-80.5 -35.5t-103 -35.5t-128.5 -31.5zM-51 1516l221 286h315l222 -286h-230 l-149 143l-150 -143h-229z" />
<glyph unicode="&#x135;" horiz-adv-x="589" d="M-113 -227q37 12 65 21.5t52 21t40.5 19t30.5 19.5t22 19.5t14.5 23t9 24.5t4.5 30t2 33.5v40.5v1050h336v-1024q0 -57 -0.5 -83.5t-3.5 -72t-9 -67t-17 -56.5t-28.5 -53t-42.5 -44.5t-59 -42.5t-79 -36t-101.5 -35.5t-126.5 -31.5zM-86 1206l221 287h316l221 -287h-230 l-149 144l-150 -144h-229z" />
<glyph unicode="&#x136;" horiz-adv-x="1447" d="M137 0v1434h350v-635l514 635h426l-581 -668l606 -766h-416l-401 524l-148 -170v-354h-350zM584 -543l114 168h-108v262h246l14 -290l-203 -220z" />
<glyph unicode="&#x137;" horiz-adv-x="1204" d="M115 0v1493h336v-827l307 409h389l-363 -424l426 -651h-362l-262 416l-135 -158v-258h-336zM479 -543l115 168h-109v262h246l14 -290l-202 -220z" />
<glyph unicode="&#x138;" horiz-adv-x="1204" d="M115 0v1075h336v-409l307 409h389l-363 -424l426 -651h-362l-262 416l-135 -158v-258h-336z" />
<glyph unicode="&#x139;" horiz-adv-x="1187" d="M94 1516l256 286h373l-354 -286h-275zM141 0v1434h351v-1139h669v-295h-1020z" />
<glyph unicode="&#x13a;" horiz-adv-x="589" d="M68 1579l256 287h372l-354 -287h-274zM121 0v1493h336v-1493h-336z" />
<glyph unicode="&#x13b;" horiz-adv-x="1181" d="M137 0v1434h350v-1139h670v-295h-1020zM508 -543l115 168h-109v262h246l14 -290l-203 -220z" />
<glyph unicode="&#x13c;" horiz-adv-x="571" d="M119 0v1493h336v-1493h-336zM162 -543l114 168h-108v262h246l14 -290l-203 -220z" />
<glyph unicode="&#x13d;" horiz-adv-x="1181" d="M137 0v1434h350v-1139h670v-295h-1020zM586 1004l114 167h-108v263h246l14 -291l-203 -219z" />
<glyph unicode="&#x13e;" horiz-adv-x="737" d="M117 0v1493h336v-1493h-336zM551 1063l115 168h-109v262h246l14 -291l-203 -219z" />
<glyph unicode="&#x13f;" horiz-adv-x="1185" d="M137 0v1434h350v-1139h670v-295h-1020zM793 631v250h260v-250h-260z" />
<glyph unicode="&#x140;" horiz-adv-x="790" d="M117 0v1493h336v-1493h-336zM555 631v250h260v-250h-260z" />
<glyph unicode="&#x141;" horiz-adv-x="1214" d="M31 385v305l139 78v666h350v-471l271 151v-307l-271 -150v-362h670v-295h-1020v463z" />
<glyph unicode="&#x142;" horiz-adv-x="657" d="M35 428v305l125 70v690h336v-502l125 72v-307l-125 -70v-686h-336v498z" />
<glyph unicode="&#x143;" horiz-adv-x="1533" d="M137 0v1434h355l555 -912v912h348v-1434h-355l-553 907v-907h-350zM555 1516l256 286h373l-355 -286h-274z" />
<glyph unicode="&#x144;" d="M115 0v1075h336v-121q214 144 407 144q328 0 328 -342v-756h-336v678q0 77 -28 118.5t-99 41.5q-68 0 -144.5 -38t-127.5 -87v-713h-336zM424 1206l256 287h373l-355 -287h-274z" />
<glyph unicode="&#x145;" horiz-adv-x="1533" d="M137 0v1434h355l555 -912v912h348v-1434h-355l-553 907v-907h-350zM655 -543l115 168h-108v262h245l15 -290l-203 -220z" />
<glyph unicode="&#x146;" d="M115 0v1075h336v-121q214 144 407 144q328 0 328 -342v-756h-336v678q0 77 -28 118.5t-99 41.5q-68 0 -144.5 -38t-127.5 -87v-713h-336zM524 -543l115 168h-109v262h246l15 -290l-203 -220z" />
<glyph unicode="&#x147;" horiz-adv-x="1533" d="M137 0v1434h355l555 -912v912h348v-1434h-355l-553 907v-907h-350zM397 1802h230l149 -145l150 145h229l-221 -286h-316z" />
<glyph unicode="&#x148;" d="M115 0v1075h336v-121q214 144 407 144q328 0 328 -342v-756h-336v678q0 77 -28 118.5t-99 41.5q-68 0 -144.5 -38t-127.5 -87v-713h-336zM268 1493h230l149 -145l150 145h229l-221 -287h-316z" />
<glyph unicode="&#x149;" d="M109 1223l114 168h-108v262h245l15 -291l-203 -219zM115 0v1075h336v-121q214 144 407 144q328 0 328 -342v-756h-336v678q0 77 -28 118.5t-99 41.5q-68 0 -144.5 -38t-127.5 -87v-713h-336z" />
<glyph unicode="&#x14a;" horiz-adv-x="1533" d="M137 0v1434h355l555 -912v912h348v-1348q0 -62 -3 -101.5t-13 -84t-30 -74t-54 -61t-84.5 -54.5t-121 -46t-165.5 -44l-117 256q119 36 166.5 63t62.5 66l-549 901v-907h-350z" />
<glyph unicode="&#x14b;" d="M115 0v1075h336v-121q214 144 407 144q328 0 328 -342v-707q0 -63 -0.5 -92t-4.5 -78t-12.5 -72t-23.5 -59.5t-39 -55.5t-58.5 -45.5t-81.5 -44t-108 -37t-139 -36.5l-109 244q94 31 139.5 51t70 51.5t27.5 57.5t3 92v653q0 77 -28 118.5t-99 41.5q-68 0 -144.5 -38 t-127.5 -87v-713h-336z" />
<glyph unicode="&#x14c;" horiz-adv-x="1570" d="M78 717q0 160 40 291t122.5 233t221 158.5t322.5 56.5q149 0 268.5 -37.5t201 -103.5t136 -159.5t79 -202.5t24.5 -236t-24.5 -236t-79 -203t-136 -160t-201 -103.5t-268.5 -37.5q-148 0 -267 37.5t-200.5 103.5t-135.5 160t-78.5 203t-24.5 236zM436 717 q0 -205 83.5 -323t264.5 -118q94 0 162.5 32.5t109.5 92.5t60 138.5t19 177.5t-19 177t-60 138.5t-109.5 92.5t-162.5 32q-181 0 -264.5 -117.5t-83.5 -322.5zM465 1567v192h639v-192h-639z" />
<glyph unicode="&#x14d;" horiz-adv-x="1273" d="M63 539q0 267 148.5 413t425.5 146q275 0 424 -147t149 -414t-148 -413.5t-425 -146.5q-276 0 -425 147t-149 415zM317 1257v193h639v-193h-639zM406 539q0 -303 231 -303q233 0 233 301q0 303 -233 303q-231 0 -231 -301z" />
<glyph unicode="&#x14e;" horiz-adv-x="1570" d="M78 717q0 160 40 291t122.5 233t221 158.5t322.5 56.5q149 0 268.5 -37.5t201 -103.5t136 -159.5t79 -202.5t24.5 -236t-24.5 -236t-79 -203t-136 -160t-201 -103.5t-268.5 -37.5q-148 0 -267 37.5t-200.5 103.5t-135.5 160t-78.5 203t-24.5 236zM434 1778h203 q0 -40 38.5 -62t106.5 -22q69 0 108.5 22t39.5 62h205q0 -123 -93 -192.5t-260 -69.5q-165 0 -256.5 69.5t-91.5 192.5zM436 717q0 -205 83.5 -323t264.5 -118q94 0 162.5 32.5t109.5 92.5t60 138.5t19 177.5t-19 177t-60 138.5t-109.5 92.5t-162.5 32q-181 0 -264.5 -117.5 t-83.5 -322.5z" />
<glyph unicode="&#x14f;" horiz-adv-x="1273" d="M63 539q0 267 148.5 413t425.5 146q275 0 424 -147t149 -414t-148 -413.5t-425 -146.5q-276 0 -425 147t-149 415zM289 1468h203q0 -40 38.5 -62t106.5 -22q69 0 108 22t39 62h205q0 -123 -92.5 -192.5t-259.5 -69.5q-165 0 -256.5 69.5t-91.5 192.5zM406 539 q0 -303 231 -303q233 0 233 301q0 303 -233 303q-231 0 -231 -301z" />
<glyph unicode="&#x150;" horiz-adv-x="1570" d="M78 717q0 160 40 291t122.5 233t221 158.5t322.5 56.5q149 0 268.5 -37.5t201 -103.5t136 -159.5t79 -202.5t24.5 -236t-24.5 -236t-79 -203t-136 -160t-201 -103.5t-268.5 -37.5q-148 0 -267 37.5t-200.5 103.5t-135.5 160t-78.5 203t-24.5 236zM436 717 q0 -205 83.5 -323t264.5 -118q94 0 162.5 32.5t109.5 92.5t60 138.5t19 177.5t-19 177t-60 138.5t-109.5 92.5t-162.5 32q-181 0 -264.5 -117.5t-83.5 -322.5zM463 1516l168 286h297l-264 -286h-201zM842 1516l166 286h297l-267 -286h-196z" />
<glyph unicode="&#x151;" horiz-adv-x="1273" d="M63 539q0 267 148.5 413t425.5 146q275 0 424 -147t149 -414t-148 -413.5t-425 -146.5q-276 0 -425 147t-149 415zM313 1206l168 287h297l-264 -287h-201zM406 539q0 -303 231 -303q233 0 233 301q0 303 -233 303q-231 0 -231 -301zM692 1206l166 287h297l-266 -287h-197 z" />
<glyph unicode="&#x152;" horiz-adv-x="2265" d="M78 717q0 160 40 291t122.5 233t221 158.5t322.5 56.5q204 0 353 -70v48h1042v-295h-692v-277h565v-289h-565v-278h702v-295h-1052v47q-149 -70 -353 -70q-148 0 -267 37.5t-200.5 103.5t-135.5 160t-78.5 203t-24.5 236zM436 717q0 -205 83.5 -323t264.5 -118 q94 0 162.5 32.5t109.5 92.5t60 138.5t19 177.5t-19 177t-60 138.5t-109.5 92.5t-162.5 32q-181 0 -264.5 -117.5t-83.5 -322.5z" />
<glyph unicode="&#x153;" horiz-adv-x="2002" d="M63 539q0 267 148.5 413t425.5 146q254 0 401 -129q144 129 383 129q252 0 386.5 -131.5t134.5 -345.5q0 -40 -5 -78.5t-9 -56.5l-5 -19h-706q24 -242 215 -242q152 0 393 127l123 -209q-302 -166 -551 -166q-223 0 -361 123q-148 -123 -399 -123q-276 0 -425 147 t-149 415zM406 539q0 -303 231 -303q233 0 233 301q0 303 -233 303q-231 0 -231 -301zM1219 643h395q-2 106 -50 161.5t-141 55.5q-176 0 -204 -217z" />
<glyph unicode="&#x154;" horiz-adv-x="1456" d="M137 0v1434h660q297 0 443 -110.5t146 -338.5q0 -347 -348 -424l351 -561h-379l-318 539h-205v-539h-350zM487 811h287q125 0 192.5 38.5t67.5 135.5t-67.5 136.5t-188.5 39.5h-291v-350zM539 1516l256 286h372l-354 -286h-274z" />
<glyph unicode="&#x155;" horiz-adv-x="884" d="M115 0v1075h336v-223q10 24 25 50t49 63.5t75.5 64.5t108 44.5t143.5 12.5v-315q-74 0 -136 -19t-102 -49.5t-71.5 -67.5t-48 -74t-27 -67.5t-13.5 -49.5l-3 -19v-426h-336zM260 1206l256 287h373l-354 -287h-275z" />
<glyph unicode="&#x156;" horiz-adv-x="1456" d="M137 0v1434h660q297 0 443 -110.5t146 -338.5q0 -347 -348 -424l351 -561h-379l-318 539h-205v-539h-350zM487 811h287q125 0 192.5 38.5t67.5 135.5t-67.5 136.5t-188.5 39.5h-291v-350zM596 -543l115 168h-109v262h246l14 -290l-203 -220z" />
<glyph unicode="&#x157;" horiz-adv-x="882" d="M115 0v1075h336v-223q10 24 25 50t49 63.5t75.5 64.5t108 44.5t143.5 12.5v-315q-74 0 -136 -19t-102 -49.5t-71.5 -67.5t-48 -74t-27 -67.5t-13.5 -49.5l-3 -19v-426h-336zM158 -543l114 168h-108v262h246l14 -290l-203 -220z" />
<glyph unicode="&#x158;" horiz-adv-x="1456" d="M137 0v1434h660q297 0 443 -110.5t146 -338.5q0 -347 -348 -424l351 -561h-379l-318 539h-205v-539h-350zM383 1802h229l150 -145l149 145h230l-221 -286h-316zM487 811h287q125 0 192.5 38.5t67.5 135.5t-67.5 136.5t-188.5 39.5h-291v-350z" />
<glyph unicode="&#x159;" horiz-adv-x="882" d="M104 1493h230l149 -145l150 145h229l-221 -287h-315zM115 0v1075h336v-223q10 24 25 50t49 63.5t75.5 64.5t108 44.5t143.5 12.5v-315q-74 0 -136 -19t-102 -49.5t-71.5 -67.5t-48 -74t-27 -67.5t-13.5 -49.5l-3 -19v-426h-336z" />
<glyph unicode="&#x15a;" horiz-adv-x="1312" d="M49 176l156 248q103 -58 253 -108t253 -50q80 0 134 31t54 88q0 35 -21.5 61t-68.5 46t-95.5 35t-128.5 40t-143 49q-362 121 -362 412q0 190 140.5 309t391.5 119q154 0 320.5 -44t290.5 -109l-156 -252q-97 45 -222.5 80.5t-211.5 35.5q-79 0 -130.5 -29t-51.5 -87 q0 -35 21.5 -59.5t66.5 -43t93 -32.5t124.5 -36.5t136.5 -45.5q47 -18 83 -34t83 -42.5t81 -59t65 -73.5t47 -95.5t16 -117.5q0 -193 -145.5 -314t-397.5 -121q-181 0 -366 60t-310 139zM434 1516l256 286h373l-354 -286h-275z" />
<glyph unicode="&#x15b;" horiz-adv-x="1107" d="M45 119l129 235q97 -45 223 -83t207 -38q52 0 86.5 16t34.5 46q0 15 -9 28t-27.5 23.5t-38.5 19t-49.5 16.5t-53 13.5t-56.5 13.5t-53 13q-59 15 -107 32.5t-99 47t-85.5 65t-56.5 88t-22 115.5q0 146 113 237t319 91q132 0 271.5 -36t244.5 -83l-129 -219 q-84 33 -189 58.5t-176 25.5q-55 0 -85.5 -16.5t-30.5 -45.5q0 -15 7.5 -27t24 -22t34 -17.5t46 -15t50.5 -12.5t57 -13t57 -13q61 -15 110.5 -32.5t102 -47.5t88.5 -66.5t59 -90.5t23 -118q0 -152 -118.5 -241t-330.5 -89q-151 0 -310 42.5t-261 99.5zM332 1206l256 287 h373l-355 -287h-274z" />
<glyph unicode="&#x15c;" horiz-adv-x="1312" d="M49 176l156 248q103 -58 253 -108t253 -50q80 0 134 31t54 88q0 35 -21.5 61t-68.5 46t-95.5 35t-128.5 40t-143 49q-362 121 -362 412q0 190 140.5 309t391.5 119q154 0 320.5 -44t290.5 -109l-156 -252q-97 45 -222.5 80.5t-211.5 35.5q-79 0 -130.5 -29t-51.5 -87 q0 -35 21.5 -59.5t66.5 -43t93 -32.5t124.5 -36.5t136.5 -45.5q47 -18 83 -34t83 -42.5t81 -59t65 -73.5t47 -95.5t16 -117.5q0 -193 -145.5 -314t-397.5 -121q-181 0 -366 60t-310 139zM279 1516l221 286h315l221 -286h-229l-150 143l-149 -143h-229z" />
<glyph unicode="&#x15d;" horiz-adv-x="1107" d="M45 119l129 235q97 -45 223 -83t207 -38q52 0 86.5 16t34.5 46q0 15 -9 28t-27.5 23.5t-38.5 19t-49.5 16.5t-53 13.5t-56.5 13.5t-53 13q-59 15 -107 32.5t-99 47t-85.5 65t-56.5 88t-22 115.5q0 146 113 237t319 91q132 0 271.5 -36t244.5 -83l-129 -219 q-84 33 -189 58.5t-176 25.5q-55 0 -85.5 -16.5t-30.5 -45.5q0 -15 7.5 -27t24 -22t34 -17.5t46 -15t50.5 -12.5t57 -13t57 -13q61 -15 110.5 -32.5t102 -47.5t88.5 -66.5t59 -90.5t23 -118q0 -152 -118.5 -241t-330.5 -89q-151 0 -310 42.5t-261 99.5zM178 1206l221 287 h316l221 -287h-229l-150 144l-149 -144h-230z" />
<glyph unicode="&#x15e;" horiz-adv-x="1312" d="M49 176l156 248q103 -58 253 -108t253 -50q80 0 134 31t54 88q0 35 -21.5 61t-68.5 46t-95.5 35t-128.5 40t-143 49q-362 121 -362 412q0 190 140.5 309t391.5 119q154 0 320.5 -44t290.5 -109l-156 -252q-97 45 -222.5 80.5t-211.5 35.5q-79 0 -130.5 -29t-51.5 -87 q0 -35 21.5 -59.5t66.5 -43t93 -32.5t124.5 -36.5t136.5 -45.5q47 -18 83 -34t83 -42.5t81 -59t65 -73.5t47 -95.5t16 -117.5q0 -176 -123.5 -294t-339.5 -136q61 -88 61 -170q0 -97 -67.5 -146t-171.5 -49q-110 0 -187 47l66 162q51 -25 96 -25q94 0 94 72q0 43 -41 107 q-167 11 -330 68t-276 128z" />
<glyph unicode="&#x15f;" horiz-adv-x="1107" d="M45 119l129 235q97 -45 223 -83t207 -38q52 0 86.5 16t34.5 46q0 15 -9 28t-27.5 23.5t-38.5 19t-49.5 16.5t-53 13.5t-56.5 13.5t-53 13q-59 15 -107 32.5t-99 47t-85.5 65t-56.5 88t-22 115.5q0 146 113 237t319 91q132 0 271.5 -36t244.5 -83l-129 -219 q-84 33 -189 58.5t-176 25.5q-55 0 -85.5 -16.5t-30.5 -45.5q0 -15 7.5 -27t24 -22t34 -17.5t46 -15t50.5 -12.5t57 -13t57 -13q61 -15 110.5 -32.5t102 -47.5t88.5 -66.5t59 -90.5t23 -118q0 -134 -93 -219t-263 -104q63 -83 63 -172q0 -97 -68 -146t-172 -49 q-109 0 -186 47l66 162q51 -25 96 -25q94 0 94 72q0 41 -39 107q-142 7 -284 47.5t-234 91.5z" />
<glyph unicode="&#x160;" horiz-adv-x="1312" d="M49 176l156 248q103 -58 253 -108t253 -50q80 0 134 31t54 88q0 35 -21.5 61t-68.5 46t-95.5 35t-128.5 40t-143 49q-362 121 -362 412q0 190 140.5 309t391.5 119q154 0 320.5 -44t290.5 -109l-156 -252q-97 45 -222.5 80.5t-211.5 35.5q-79 0 -130.5 -29t-51.5 -87 q0 -35 21.5 -59.5t66.5 -43t93 -32.5t124.5 -36.5t136.5 -45.5q47 -18 83 -34t83 -42.5t81 -59t65 -73.5t47 -95.5t16 -117.5q0 -193 -145.5 -314t-397.5 -121q-181 0 -366 60t-310 139zM281 1802h229l149 -145l150 145h229l-221 -286h-315z" />
<glyph unicode="&#x161;" horiz-adv-x="1107" d="M45 119l129 235q97 -45 223 -83t207 -38q52 0 86.5 16t34.5 46q0 15 -9 28t-27.5 23.5t-38.5 19t-49.5 16.5t-53 13.5t-56.5 13.5t-53 13q-59 15 -107 32.5t-99 47t-85.5 65t-56.5 88t-22 115.5q0 146 113 237t319 91q132 0 271.5 -36t244.5 -83l-129 -219 q-84 33 -189 58.5t-176 25.5q-55 0 -85.5 -16.5t-30.5 -45.5q0 -15 7.5 -27t24 -22t34 -17.5t46 -15t50.5 -12.5t57 -13t57 -13q61 -15 110.5 -32.5t102 -47.5t88.5 -66.5t59 -90.5t23 -118q0 -152 -118.5 -241t-330.5 -89q-151 0 -310 42.5t-261 99.5zM182 1493h230 l149 -145l150 145h229l-221 -287h-316z" />
<glyph unicode="&#x162;" horiz-adv-x="1230" d="M27 1139v295h1177v-295h-411v-1139h-103q78 -91 78 -188t-68 -146t-172 -49q-109 0 -186 47l66 162q51 -25 96 -25q94 0 94 72q0 34 -19.5 71t-35.5 56h-99v1139h-417z" />
<glyph unicode="&#x163;" horiz-adv-x="890" d="M43 829v246h147v271l334 40v-311h293v-246h-293v-460q0 -42 15 -65.5t32.5 -28.5t42.5 -5q14 0 32 3.5t38 10t34 11t33 12t21 8.5l117 -247q-157 -72 -299 -86q61 -88 61 -170q0 -97 -67.5 -146t-171.5 -49q-110 0 -187 47l66 162q51 -25 96 -25q94 0 94 72q0 46 -43 113 q-248 43 -248 385v458h-147z" />
<glyph unicode="&#x164;" horiz-adv-x="1230" d="M27 1139v295h1177v-295h-411v-1139h-349v1139h-417zM238 1802h229l149 -145l150 145h229l-221 -286h-315z" />
<glyph unicode="&#x165;" horiz-adv-x="888" d="M41 829v246h147v271l334 40v-311h293v-246h-293v-460q0 -42 15 -65.5t32.5 -28.5t42.5 -5q14 0 32 3.5t38 10t34 11t33 12t21 8.5l117 -247q-204 -91 -365 -91q-169 0 -251.5 97.5t-82.5 296.5v458h-147zM618 1223l115 168h-108v262h245l15 -291l-203 -219z" />
<glyph unicode="&#x166;" horiz-adv-x="1247" d="M35 1139v295h1177v-295h-411v-521h186v-192h-186v-426h-348v426h-191v192h191v521h-418z" />
<glyph unicode="&#x167;" horiz-adv-x="890" d="M41 829v246h147v271l334 40v-311h293v-246h-293v-131h230v-194h-230v-135q0 -42 15 -65.5t32.5 -28.5t42.5 -5q14 0 32 3.5t38 10t34 11t33 12t21 8.5l117 -247q-204 -91 -365 -91q-169 0 -251.5 97.5t-82.5 296.5v133h-104v194h104v131h-147z" />
<glyph unicode="&#x168;" horiz-adv-x="1478" d="M123 596v838h350v-869q0 -52 6.5 -92.5t24 -78.5t46.5 -63t76.5 -40t112.5 -15q80 0 134.5 21.5t82.5 63t39 90t11 114.5v869h348v-838q0 -110 -15 -197t-56.5 -168.5t-109 -135.5t-177.5 -86t-257 -32t-256.5 32t-177.5 86t-109.5 135.5t-57 168.5t-15.5 197zM342 1595 q17 34 25 49t25 45t28.5 44t31 35t37.5 30.5t42 17t51 7.5q49 0 108.5 -24.5t109.5 -49.5t77 -25q24 0 48.5 19t57.5 76l145 -72q-22 -45 -34 -67.5t-36.5 -59t-46 -54t-53.5 -32t-69 -14.5q-48 0 -107 24.5t-109 49t-77 24.5q-25 0 -50 -18.5t-57 -75.5z" />
<glyph unicode="&#x169;" d="M104 317v758h338v-678q0 -76 27.5 -117.5t97.5 -41.5q66 0 142.5 37t132.5 87v713h336v-1075h-336v121q-212 -144 -412 -144q-167 0 -246.5 89t-79.5 251zM266 1286q20 39 29.5 57t29 51t35.5 49t39 35t49.5 27t57.5 8q49 0 108.5 -24.5t109.5 -49t77 -24.5 q24 0 48.5 18.5t57.5 75.5l146 -71q-22 -45 -34.5 -68t-36.5 -59t-46 -54t-54 -32.5t-69 -14.5q-48 0 -107 25t-109 49.5t-77 24.5q-25 0 -49.5 -19t-56.5 -76z" />
<glyph unicode="&#x16a;" horiz-adv-x="1478" d="M123 596v838h350v-869q0 -52 6.5 -92.5t24 -78.5t46.5 -63t76.5 -40t112.5 -15q80 0 134.5 21.5t82.5 63t39 90t11 114.5v869h348v-838q0 -110 -15 -197t-56.5 -168.5t-109 -135.5t-177.5 -86t-257 -32t-256.5 32t-177.5 86t-109.5 135.5t-57 168.5t-15.5 197zM420 1567 v192h639v-192h-639z" />
<glyph unicode="&#x16b;" d="M104 317v758h338v-678q0 -76 27.5 -117.5t97.5 -41.5q66 0 142.5 37t132.5 87v713h336v-1075h-336v121q-212 -144 -412 -144q-167 0 -246.5 89t-79.5 251zM322 1257v193h639v-193h-639z" />
<glyph unicode="&#x16c;" horiz-adv-x="1478" d="M123 596v838h350v-869q0 -52 6.5 -92.5t24 -78.5t46.5 -63t76.5 -40t112.5 -15q80 0 134.5 21.5t82.5 63t39 90t11 114.5v869h348v-838q0 -110 -15 -197t-56.5 -168.5t-109 -135.5t-177.5 -86t-257 -32t-256.5 32t-177.5 86t-109.5 135.5t-57 168.5t-15.5 197zM389 1778 h203q0 -40 38.5 -62t106.5 -22q69 0 108.5 22t39.5 62h205q0 -123 -93 -192.5t-260 -69.5q-165 0 -256.5 69.5t-91.5 192.5z" />
<glyph unicode="&#x16d;" d="M104 317v758h338v-678q0 -76 27.5 -117.5t97.5 -41.5q66 0 142.5 37t132.5 87v713h336v-1075h-336v121q-212 -144 -412 -144q-167 0 -246.5 89t-79.5 251zM289 1468h203q0 -40 38.5 -62t106.5 -22q69 0 108 22t39 62h205q0 -123 -92.5 -192.5t-259.5 -69.5 q-165 0 -256.5 69.5t-91.5 192.5z" />
<glyph unicode="&#x16e;" horiz-adv-x="1478" d="M123 596v838h350v-869q0 -52 6.5 -92.5t24 -78.5t46.5 -63t76.5 -40t112.5 -15q80 0 134.5 21.5t82.5 63t39 90t11 114.5v869h348v-838q0 -110 -15 -197t-56.5 -168.5t-109 -135.5t-177.5 -86t-257 -32t-256.5 32t-177.5 86t-109.5 135.5t-57 168.5t-15.5 197zM508 1729 q0 98 68 166.5t165 68.5q98 0 167 -68.5t69 -166.5q0 -97 -69 -165.5t-167 -68.5q-97 0 -165 68.5t-68 165.5zM664 1729q0 -32 22.5 -55t54.5 -23q34 0 57 23t23 55q0 34 -23 56.5t-57 22.5q-32 0 -54.5 -22.5t-22.5 -56.5z" />
<glyph unicode="&#x16f;" d="M104 317v758h338v-678q0 -76 27.5 -117.5t97.5 -41.5q66 0 142.5 37t132.5 87v713h336v-1075h-336v121q-212 -144 -412 -144q-167 0 -246.5 89t-79.5 251zM408 1419q0 98 68 167t165 69q98 0 167 -69t69 -167q0 -97 -69 -165t-167 -68q-97 0 -165 68t-68 165zM563 1419 q0 -32 23 -55t55 -23q34 0 57 23t23 55q0 34 -23 57t-57 23q-32 0 -55 -23t-23 -57z" />
<glyph unicode="&#x170;" horiz-adv-x="1478" d="M123 596v838h350v-869q0 -52 6.5 -92.5t24 -78.5t46.5 -63t76.5 -40t112.5 -15q80 0 134.5 21.5t82.5 63t39 90t11 114.5v869h348v-838q0 -110 -15 -197t-56.5 -168.5t-109 -135.5t-177.5 -86t-257 -32t-256.5 32t-177.5 86t-109.5 135.5t-57 168.5t-15.5 197zM416 1516 l168 286h297l-265 -286h-200zM795 1516l166 286h296l-266 -286h-196z" />
<glyph unicode="&#x171;" d="M104 317v758h338v-678q0 -76 27.5 -117.5t97.5 -41.5q66 0 142.5 37t132.5 87v713h336v-1075h-336v121q-212 -144 -412 -144q-167 0 -246.5 89t-79.5 251zM317 1206l168 287h297l-264 -287h-201zM696 1206l166 287h297l-266 -287h-197z" />
<glyph unicode="&#x172;" horiz-adv-x="1480" d="M123 596v838h350v-869q0 -52 6.5 -92.5t24 -78.5t46.5 -63t76.5 -40t112.5 -15q80 0 134.5 21.5t82.5 63t39 90t11 114.5v869h348v-838q0 -90 -10.5 -164.5t-37 -146.5t-70 -126t-112 -95.5t-159.5 -63.5q-193 -106 -193 -190q0 -17 6 -29.5t17.5 -20t23 -12t29 -5.5 t28 -1.5t27.5 0t21 0.5l-29 -148q-111 0 -161 10q-175 33 -175 173q0 110 158 200q-141 2 -247 35.5t-171 87.5t-105.5 134.5t-55.5 166.5t-15 195z" />
<glyph unicode="&#x173;" d="M104 317v758h338v-678q0 -76 27.5 -117.5t97.5 -41.5q66 0 142.5 37t132.5 87v713h336v-1075h-7q-37 -22 -63.5 -39t-59 -43t-50 -53.5t-17.5 -54.5q0 -17 6 -29.5t17.5 -20t23 -12t29 -5.5t28 -1.5t27.5 0t21 0.5l-29 -148q-111 0 -161 10q-175 33 -175 173 q0 125 201 223h-127v121q-212 -144 -412 -144q-167 0 -246.5 89t-79.5 251z" />
<glyph unicode="&#x174;" horiz-adv-x="2021" d="M27 1434h401l203 -951l239 951h279l240 -949l204 949h400l-402 -1434h-342l-239 926l-240 -926h-342zM631 1516l221 286h315l222 -286h-230l-149 143l-150 -143h-229z" />
<glyph unicode="&#x175;" horiz-adv-x="1740" d="M25 1075h356l158 -715l194 715h275l194 -715l158 715h356l-334 -1075h-313l-199 674l-200 -674h-316zM492 1206l221 287h315l221 -287h-229l-150 144l-149 -144h-229z" />
<glyph unicode="&#x177;" horiz-adv-x="1218" d="M18 1075h361l229 -674l230 674h362l-588 -1493h-360l186 420zM229 1206l222 287h315l221 -287h-229l-150 144l-149 -144h-230z" />
<glyph unicode="&#x178;" horiz-adv-x="1380" d="M0 1434h395l295 -570l295 570h395l-516 -867v-567h-348v567zM371 1536v250h260v-250h-260zM750 1536v250h260v-250h-260z" />
<glyph unicode="&#x179;" horiz-adv-x="1318" d="M59 0v268l725 871h-680v295h1133v-267l-723 -872h733v-295h-1188zM449 1516l256 286h372l-354 -286h-274z" />
<glyph unicode="&#x17a;" horiz-adv-x="1159" d="M61 0v231l560 568h-539v276h1008v-231l-560 -568h560v-276h-1029zM352 1206l256 287h373l-354 -287h-275z" />
<glyph unicode="&#x17b;" horiz-adv-x="1318" d="M59 0v268l725 871h-680v295h1133v-267l-723 -872h733v-295h-1188zM541 1536v250h260v-250h-260z" />
<glyph unicode="&#x17c;" horiz-adv-x="1159" d="M61 0v231l560 568h-539v276h1008v-231l-560 -568h560v-276h-1029zM444 1227v250h261v-250h-261z" />
<glyph unicode="&#x17d;" horiz-adv-x="1318" d="M59 0v268l725 871h-680v295h1133v-267l-723 -872h733v-295h-1188zM291 1802h229l150 -145l149 145h230l-222 -286h-315z" />
<glyph unicode="&#x17e;" horiz-adv-x="1159" d="M61 0v231l560 568h-539v276h1008v-231l-560 -568h560v-276h-1029zM197 1493h229l149 -145l150 145h229l-221 -287h-315z" />
<glyph unicode="&#x17f;" horiz-adv-x="696" d="M39 829v246h147v25q0 199 82.5 296t251.5 97q99 0 202 -28t177 -62l-111 -240q-127 41 -178 41q-19 0 -32 -3t-27.5 -12t-22.5 -30t-8 -53v-1106h-334v829h-147z" />
<glyph unicode="&#x192;" horiz-adv-x="1230" d="M55 -418l293 1247h-145l55 246h150l8 35q24 101 52.5 167.5t75.5 117.5t117 74.5t170 23.5q37 0 79 -5.5t75.5 -13.5t73 -19.5t62 -19.5t51.5 -19t34 -13l-157 -244q-147 48 -199 39q-79 -10 -100 -102l-7 -21h289l-53 -246h-293l-295 -1247h-336z" />
<glyph unicode="&#x1fc;" horiz-adv-x="2230" d="M-41 0l969 1434h1212v-295h-692v-277h565v-289h-565v-278h702v-295h-1052v262h-553l-166 -262h-420zM725 545h373v581zM987 1516l256 286h373l-354 -286h-275z" />
<glyph unicode="&#x1fd;" horiz-adv-x="1902" d="M49 332q0 162 111.5 254t290.5 92q105 0 325 -49q5 44 19 98q-6 64 -47 90.5t-132 26.5q-135 0 -391 -76l-102 229q313 101 557 101q214 0 326 -80q132 80 315 80q252 0 386 -131.5t134 -345.5q0 -40 -4.5 -78.5t-8.5 -56.5l-5 -19h-707q24 -242 215 -242q152 0 393 127 l123 -209q-302 -166 -551 -166q-140 0 -252.5 52t-181.5 157q-194 -209 -436 -209q-166 0 -271.5 98.5t-105.5 256.5zM391 362q0 -64 39 -95t107 -31q136 0 258 102q-15 58 -21 127q-7 1 -46 10t-58.5 12.5t-51.5 8t-55 4.5q-85 0 -128.5 -35.5t-43.5 -102.5zM723 1206 l256 287h373l-355 -287h-274zM1118 643h395q-3 217 -190 217q-177 0 -205 -217z" />
<glyph unicode="&#x1fe;" horiz-adv-x="1568" d="M76 717q0 160 40 291t122.5 233t221 158.5t322.5 56.5q229 0 394 -92l53 70h241l-147 -189q168 -191 168 -528q0 -127 -24.5 -236t-79 -203t-136 -160t-201 -103.5t-268.5 -37.5q-224 0 -389 89l-51 -66h-240l144 184q-170 190 -170 533zM434 717q0 -146 39 -244l500 635 q-77 49 -191 49q-181 0 -264.5 -117.5t-83.5 -322.5zM559 1516l256 286h373l-354 -286h-275zM596 322q78 -46 186 -46q94 0 162.5 32.5t109.5 92.5t60 138.5t19 177.5q0 141 -39 239z" />
<glyph unicode="&#x1ff;" horiz-adv-x="1271" d="M61 539q0 267 148.5 413t425.5 146q175 0 311 -68l37 45h193l-111 -133q143 -146 143 -405q0 -267 -148 -413.5t-425 -146.5q-186 0 -316 68l-36 -45h-197l113 135q-138 144 -138 404zM399 1206l256 287h373l-354 -287h-275zM403 539q0 -85 17 -140l340 408 q-58 33 -125 33q-232 0 -232 -301zM506 268q49 -32 129 -32q233 0 233 301q0 83 -18 145z" />
<glyph unicode="&#x218;" horiz-adv-x="1312" d="M49 176l156 248q103 -58 253 -108t253 -50q80 0 134 31t54 88q0 35 -21.5 61t-68.5 46t-95.5 35t-128.5 40t-143 49q-362 121 -362 412q0 190 140.5 309t391.5 119q154 0 320.5 -44t290.5 -109l-156 -252q-97 45 -222.5 80.5t-211.5 35.5q-79 0 -130.5 -29t-51.5 -87 q0 -35 21.5 -59.5t66.5 -43t93 -32.5t124.5 -36.5t136.5 -45.5q47 -18 83 -34t83 -42.5t81 -59t65 -73.5t47 -95.5t16 -117.5q0 -193 -145.5 -314t-397.5 -121q-181 0 -366 60t-310 139zM545 -543l114 168h-108v262h246l14 -290l-203 -220z" />
<glyph unicode="&#x219;" horiz-adv-x="1107" d="M45 119l129 235q97 -45 223 -83t207 -38q52 0 86.5 16t34.5 46q0 15 -9 28t-27.5 23.5t-38.5 19t-49.5 16.5t-53 13.5t-56.5 13.5t-53 13q-59 15 -107 32.5t-99 47t-85.5 65t-56.5 88t-22 115.5q0 146 113 237t319 91q132 0 271.5 -36t244.5 -83l-129 -219 q-84 33 -189 58.5t-176 25.5q-55 0 -85.5 -16.5t-30.5 -45.5q0 -15 7.5 -27t24 -22t34 -17.5t46 -15t50.5 -12.5t57 -13t57 -13q61 -15 110.5 -32.5t102 -47.5t88.5 -66.5t59 -90.5t23 -118q0 -152 -118.5 -241t-330.5 -89q-151 0 -310 42.5t-261 99.5zM420 -543l115 168 h-109v262h246l14 -290l-203 -220z" />
<glyph unicode="&#x21a;" horiz-adv-x="1230" d="M27 1139v295h1177v-295h-411v-1139h-349v1139h-417zM492 -543l114 168h-108v262h245l15 -290l-203 -220z" />
<glyph unicode="&#x21b;" horiz-adv-x="888" d="M41 829v246h147v271l334 40v-311h293v-246h-293v-460q0 -42 15 -65.5t32.5 -28.5t42.5 -5q14 0 32 3.5t38 10t34 11t33 12t21 8.5l117 -247q-204 -91 -365 -91q-169 0 -251.5 97.5t-82.5 296.5v458h-147zM268 -543l115 168h-109v262h246l15 -290l-203 -220z" />
<glyph unicode="&#x2b0;" horiz-adv-x="823" d="M70 788v895h229v-319q123 84 254 84q207 0 207 -209v-451h-230v398q0 42 -16 64t-57 22q-38 0 -82.5 -19.5t-75.5 -46.5v-418h-229z" />
<glyph unicode="&#x2b2;" horiz-adv-x="376" d="M-72 664q47 15 74.5 26.5t44.5 21t23.5 26.5t8 30t1.5 45v621h227v-600q0 -36 -0.5 -53t-2 -46.5t-5.5 -43t-11.5 -36t-18.5 -34t-27.5 -28.5t-39 -27t-51.5 -22.5t-66 -22.5t-83 -19zM72 1503v178h241v-178h-241z" />
<glyph unicode="&#x2b7;" horiz-adv-x="1107" d="M14 1434h242l92 -408l115 408h182l115 -408l92 408h242l-207 -646h-213l-119 388l-121 -388h-211z" />
<glyph unicode="&#x2b8;" horiz-adv-x="780" d="M10 1434h246l135 -377l133 377h246l-369 -895h-243l114 252z" />
<glyph unicode="&#x2c6;" horiz-adv-x="608" d="M-76 1206l221 287h316l221 -287h-229l-150 144l-149 -144h-230z" />
<glyph unicode="&#x2c7;" horiz-adv-x="608" d="M-76 1493h230l149 -145l150 145h229l-221 -287h-316z" />
<glyph unicode="&#x2d8;" horiz-adv-x="581" d="M-59 1468h202q0 -40 39 -62t107 -22q69 0 108 22t39 62h205q0 -123 -92.5 -192.5t-259.5 -69.5q-165 0 -256.5 69.5t-91.5 192.5z" />
<glyph unicode="&#x2d9;" horiz-adv-x="198" d="M-31 1227v250h260v-250h-260z" />
<glyph unicode="&#x2da;" horiz-adv-x="432" d="M-18 1419q0 98 68 167t165 69q98 0 167 -69t69 -167q0 -97 -69 -165t-167 -68q-97 0 -165 68t-68 165zM137 1419q0 -32 23 -55t55 -23q34 0 57 23t23 55q0 34 -23 57t-57 23q-32 0 -55 -23t-23 -57z" />
<glyph unicode="&#x2db;" horiz-adv-x="348" d="M-59 -223q0 139 249 246l158 -21q-38 -22 -64.5 -39.5t-60 -44t-51.5 -54t-18 -54.5q0 -20 9 -33.5t20 -20.5t32 -10.5t31.5 -4t34 0t24.5 0.5l-29 -148q-110 0 -160 9q-175 33 -175 174z" />
<glyph unicode="&#x2dc;" horiz-adv-x="624" d="M-82 1286q20 39 29.5 57t29 51t35.5 49t39 35t49.5 27t57.5 8q49 0 108.5 -24.5t109.5 -49t77 -24.5q24 0 48.5 18.5t57.5 75.5l146 -71q-22 -45 -34.5 -68t-36.5 -59t-46 -54t-54 -32.5t-69 -14.5q-48 0 -107 25t-109 49.5t-77 24.5q-25 0 -49.5 -19t-56.5 -76z" />
<glyph unicode="&#x2dd;" horiz-adv-x="706" d="M-68 1206l168 287h297l-264 -287h-201zM311 1206l166 287h297l-266 -287h-197z" />
<glyph unicode="&#x2e3;" horiz-adv-x="811" d="M2 788l262 322l-248 324h260l130 -197l131 197h260l-248 -322l262 -324h-266l-139 203l-136 -203h-268z" />
<glyph unicode="&#x3c0;" horiz-adv-x="1210" d="M43 788v287h1124v-287h-166v-788h-288v788h-213v-788h-291v788h-166z" />
<glyph unicode="&#x1e80;" horiz-adv-x="2021" d="M27 1434h401l203 -951l239 951h279l240 -949l204 949h400l-402 -1434h-342l-239 926l-240 -926h-342zM606 1802h371l258 -286h-274z" />
<glyph unicode="&#x1e81;" horiz-adv-x="1740" d="M25 1075h356l158 -715l194 715h275l194 -715l158 715h356l-334 -1075h-313l-199 674l-200 -674h-316zM465 1493h371l258 -287h-275z" />
<glyph unicode="&#x1e82;" horiz-adv-x="2021" d="M27 1434h401l203 -951l239 951h279l240 -949l204 949h400l-402 -1434h-342l-239 926l-240 -926h-342zM786 1516l256 286h373l-354 -286h-275z" />
<glyph unicode="&#x1e83;" horiz-adv-x="1740" d="M25 1075h356l158 -715l194 715h275l194 -715l158 715h356l-334 -1075h-313l-199 674l-200 -674h-316zM647 1206l256 287h373l-354 -287h-275z" />
<glyph unicode="&#x1e84;" horiz-adv-x="2021" d="M27 1434h401l203 -951l239 951h279l240 -949l204 949h400l-402 -1434h-342l-239 926l-240 -926h-342zM690 1536v250h260v-250h-260zM1069 1536v250h260v-250h-260z" />
<glyph unicode="&#x1e85;" horiz-adv-x="1740" d="M25 1075h356l158 -715l194 715h275l194 -715l158 715h356l-334 -1075h-313l-199 674l-200 -674h-316zM551 1227v250h260v-250h-260zM930 1227v250h260v-250h-260z" />
<glyph unicode="&#x1e9e;" horiz-adv-x="1691" d="M137 0v877q0 557 582 557h751v-230l-299 -323q230 -43 354 -160.5t124 -296.5q0 -90 -33 -169.5t-97 -142t-168 -99t-235 -36.5q-149 0 -282.5 43t-235.5 105l156 248q69 -43 156 -75t165 -32q98 0 155.5 46.5t57.5 121.5q0 27 -8.5 51t-36 51t-72 46.5t-123 32 t-182.5 12.5h-108v217l270 295h-283q-131 0 -194.5 -72.5t-63.5 -247.5v-819h-350z" />
<glyph unicode="&#x1ef2;" horiz-adv-x="1380" d="M0 1434h395l295 -570l295 570h395l-516 -867v-567h-348v567zM287 1802h370l258 -286h-274z" />
<glyph unicode="&#x1ef3;" horiz-adv-x="1218" d="M18 1075h361l229 -674l230 674h362l-588 -1493h-360l186 420zM203 1493h370l258 -287h-274z" />
<glyph unicode="&#x2000;" horiz-adv-x="982" />
<glyph unicode="&#x2001;" horiz-adv-x="1964" />
<glyph unicode="&#x2002;" horiz-adv-x="982" />
<glyph unicode="&#x2003;" horiz-adv-x="1964" />
<glyph unicode="&#x2004;" horiz-adv-x="654" />
<glyph unicode="&#x2005;" horiz-adv-x="491" />
<glyph unicode="&#x2006;" horiz-adv-x="327" />
<glyph unicode="&#x2007;" horiz-adv-x="327" />
<glyph unicode="&#x2008;" horiz-adv-x="245" />
<glyph unicode="&#x2009;" horiz-adv-x="392" />
<glyph unicode="&#x200a;" horiz-adv-x="109" />
<glyph unicode="&#x2010;" horiz-adv-x="888" d="M109 449v268h671v-268h-671z" />
<glyph unicode="&#x2011;" horiz-adv-x="888" d="M109 449v268h671v-268h-671z" />
<glyph unicode="&#x2012;" horiz-adv-x="888" d="M109 449v268h671v-268h-671z" />
<glyph unicode="&#x2013;" horiz-adv-x="1153" d="M111 451v264h933v-264h-933z" />
<glyph unicode="&#x2014;" horiz-adv-x="1370" d="M109 451v264h1155v-264h-1155z" />
<glyph unicode="&#x2018;" horiz-adv-x="555" d="M76 1176l278 299l88 -111l-157 -234h151v-366h-338z" />
<glyph unicode="&#x2019;" horiz-adv-x="534" d="M92 831l158 234h-152v367h338l23 -412l-279 -299z" />
<glyph unicode="&#x201a;" horiz-adv-x="575" d="M106 -233l158 233h-151v367h338l22 -412l-278 -299z" />
<glyph unicode="&#x201c;" horiz-adv-x="1040" d="M76 1176l278 299l88 -111l-157 -234h151v-366h-338zM565 1176l279 299l88 -111l-158 -234h152v-366h-338z" />
<glyph unicode="&#x201d;" horiz-adv-x="1024" d="M92 831l158 234h-152v367h338l23 -412l-279 -299zM580 831l157 234h-151v367h338l22 -412l-278 -299z" />
<glyph unicode="&#x201e;" horiz-adv-x="1062" d="M106 -233l158 233h-151v367h338l22 -412l-278 -299zM596 -233l158 233h-152v367h338l23 -412l-279 -299z" />
<glyph unicode="&#x2020;" horiz-adv-x="1247" d="M49 748v268l447 -33v451h254v-449l446 31v-268l-446 32v-1198h-254v1198z" />
<glyph unicode="&#x2021;" horiz-adv-x="1294" d="M74 211v268l446 -33v334l-446 -32v268l446 -33v451h254v-449l447 31v-268l-447 32v-331l447 30v-268l-447 33v-662h-254v662z" />
<glyph unicode="&#x2022;" horiz-adv-x="960" d="M137 584q0 143 100 243.5t242 100.5q143 0 244.5 -101t101.5 -243q0 -144 -101.5 -244t-244.5 -100t-242.5 100t-99.5 244z" />
<glyph unicode="&#x2026;" horiz-adv-x="1605" d="M106 0v367h343v-367h-343zM633 0v367h342v-367h-342zM1157 0v367h342v-367h-342z" />
<glyph unicode="&#x202f;" horiz-adv-x="392" />
<glyph unicode="&#x2030;" horiz-adv-x="2983" d="M59 1071q0 180 107 282.5t299 102.5t298.5 -102.5t106.5 -282.5t-106.5 -281.5t-298.5 -101.5t-299 102t-107 281zM307 1071q0 -180 158 -180q76 0 118 45.5t42 134.5t-42 135.5t-118 46.5q-77 0 -117.5 -46t-40.5 -136zM537 0l739 1434h260l-739 -1434h-260zM1204 360 q0 180 106 282.5t298 102.5q193 0 300 -102.5t107 -282.5t-106.5 -281.5t-300.5 -101.5q-192 0 -298 101.5t-106 281.5zM1450 360q0 -89 41 -134.5t117 -45.5q159 0 159 180q0 90 -41 136.5t-118 46.5q-76 0 -117 -46.5t-41 -136.5zM2114 360q0 180 105.5 282.5t297.5 102.5 q194 0 301 -102.5t107 -282.5t-107 -281.5t-301 -101.5q-192 0 -297.5 101.5t-105.5 281.5zM2359 360q0 -89 41 -134.5t117 -45.5q78 0 119 45t41 135t-41.5 136.5t-118.5 46.5q-76 0 -117 -46.5t-41 -136.5z" />
<glyph unicode="&#x2039;" horiz-adv-x="776" d="M53 449v200l625 430v-313l-344 -217l344 -215v-314z" />
<glyph unicode="&#x203a;" horiz-adv-x="776" d="M98 20v314l344 217l-344 215v313l625 -428v-200z" />
<glyph unicode="&#x2044;" horiz-adv-x="444" d="M-240 0l672 1434h254l-672 -1434h-254z" />
<glyph unicode="&#x205f;" horiz-adv-x="491" />
<glyph unicode="&#x2070;" horiz-adv-x="897" d="M53 1219q0 211 102.5 327.5t295.5 116.5t294 -116t101 -328t-102 -328.5t-295 -116.5t-294.5 116.5t-101.5 328.5zM293 1219q0 -142 39.5 -202.5t116.5 -60.5q79 0 119 60.5t40 202.5t-39 202t-118 60t-118.5 -60t-39.5 -202z" />
<glyph unicode="&#x2074;" horiz-adv-x="905" d="M25 938v162l399 549h315v-516h138v-195h-138v-150h-237v150h-477zM270 1133h232v329z" />
<glyph unicode="&#x2075;" horiz-adv-x="802" d="M29 891l104 170q119 -86 240 -86q66 0 106.5 25.5t40.5 70.5q0 44 -36.5 73.5t-108.5 29.5q-84 0 -170 -46l-133 82l49 439h604v-195h-406l-6 -106q65 14 119 14q160 0 246 -83.5t86 -205.5q0 -126 -92 -212.5t-266 -86.5q-184 0 -377 117z" />
<glyph unicode="&#x2076;" horiz-adv-x="837" d="M47 1153q0 221 154.5 365.5t402.5 144.5q38 0 74 -3.5t53 -7.5l17 -3l-54 -183q-39 7 -88 7q-98 0 -178 -44t-117 -139q87 56 201 56q129 0 211 -73.5t82 -195.5q0 -128 -99.5 -215.5t-265.5 -87.5q-99 0 -176 31t-123.5 84.5t-70 120t-23.5 143.5zM285 1114 q1 -42 14.5 -72.5t36 -46.5t46.5 -23t52 -7q67 0 101 31t34 73q0 45 -36.5 73.5t-98.5 28.5q-92 0 -149 -57z" />
<glyph unicode="&#x2077;" horiz-adv-x="708" d="M31 1454v195h661v-183q-13 -15 -35 -41.5t-77.5 -106t-98 -157t-77.5 -181.5t-35 -192h-246q0 84 31 181t70 171.5t90.5 150.5t78 108.5t45.5 54.5h-407z" />
<glyph unicode="&#x2078;" horiz-adv-x="860" d="M39 1024q0 150 190 236q-131 78 -131 188q0 96 87.5 155.5t246.5 59.5q158 0 246 -59.5t88 -155.5q0 -110 -133 -188q190 -86 190 -236q0 -115 -103.5 -182.5t-287.5 -67.5q-187 0 -290 67t-103 183zM279 1044q0 -40 43 -67t110 -27t108.5 27t41.5 67q0 39 -39 67.5 t-113 57.5q-73 -29 -112 -57.5t-39 -67.5zM328 1425q0 -56 102 -94q105 40 105 94q0 25 -28 46.5t-75 21.5q-48 0 -76 -21.5t-28 -46.5z" />
<glyph unicode="&#x2079;" horiz-adv-x="839" d="M35 1358q0 129 99 217t265 88q99 0 175.5 -31t123 -84.5t70 -120t23.5 -143.5q0 -222 -154.5 -366t-403.5 -144q-37 0 -72.5 3.5t-52.5 6.5l-16 4l55 183q37 -6 86 -6q62 0 116 16t102 58t73 106q-80 -53 -196 -53q-129 0 -211 73t-82 193zM270 1368q0 -45 35.5 -74.5 t97.5 -29.5q97 0 150 57q-3 80 -46 116t-101 36q-68 0 -102 -32t-34 -73z" />
<glyph unicode="&#x207a;" horiz-adv-x="819" d="M74 1114v168h250v213h172v-213h249v-168h-249v-213h-172v213h-250z" />
<glyph unicode="&#x207d;" horiz-adv-x="460" d="M63 942v547q0 43 0.5 65t4.5 54.5t12 49t23 40t37 37t55 30t76.5 29.5t101.5 25l57 -123q-47 -15 -73 -28t-38.5 -32t-15 -35.5t-2.5 -50.5v-669q0 -34 2.5 -50t15 -35t38.5 -32.5t73 -28.5l-57 -123q-91 20 -150 44t-91.5 46.5t-47.5 65t-18 75t-3 99.5z" />
<glyph unicode="&#x207e;" horiz-adv-x="460" d="M33 735q47 15 73 28t38.5 32t15 35.5t2.5 50.5v669q0 34 -2.5 50t-15 35t-38.5 32.5t-73 28.5l57 123q46 -10 83 -20t67 -22.5t52.5 -23t39 -27t28 -28.5t19 -33.5t11.5 -36t6 -42t2.5 -45.5t0.5 -52v-547q0 -58 -1.5 -85t-10.5 -66.5t-27.5 -59t-53 -44.5t-87 -42 t-129.5 -33z" />
<glyph unicode="&#x207f;" horiz-adv-x="823" d="M70 788v646h229v-70q123 84 254 84q207 0 207 -209v-451h-230v398q0 42 -16 64t-57 22q-38 0 -82.5 -19.5t-75.5 -46.5v-418h-229z" />
<glyph unicode="&#x2080;" horiz-adv-x="897" d="M53 123q0 211 102.5 327.5t295.5 116.5t294 -116t101 -328t-102 -328.5t-295 -116.5t-294.5 116.5t-101.5 328.5zM293 123q0 -142 39.5 -202t116.5 -60q79 0 119 60t40 202t-39 202t-118 60t-118.5 -60t-39.5 -202z" />
<glyph unicode="&#x2081;" horiz-adv-x="569" d="M-2 412l260 141h227v-860h-237v645l-156 -78z" />
<glyph unicode="&#x2082;" horiz-adv-x="811" d="M37 -211q0 61 23.5 116t66.5 99.5t86.5 78t101.5 67.5q23 13 63 35t58 33t40.5 27t31 31t8.5 31q0 28 -28 47t-82 19q-105 0 -240 -82l-105 149q183 127 379 127q154 0 236 -71t82 -179q0 -49 -19 -92.5t-44.5 -73.5t-69.5 -61t-75 -47.5t-79 -40.5q-70 -36 -107.5 -63 t-37.5 -52h432v-194h-721v96z" />
<glyph unicode="&#x2083;" horiz-adv-x="811" d="M16 -203l105 158q151 -80 272 -80q62 0 96.5 20t34.5 58q0 31 -22.5 51t-64 28t-73.5 10.5t-77 2.5h-41v197h47q38 0 64.5 2t60.5 8.5t52.5 23t18.5 41.5q0 56 -98 56q-103 0 -239 -74l-95 145q22 17 50 33.5t76 39t113 36.5t134 14q148 0 222.5 -60.5t74.5 -152.5 q0 -124 -141 -186q79 -25 129.5 -84.5t50.5 -134.5q0 -52 -18 -98t-56 -86t-107.5 -63.5t-162.5 -23.5q-208 0 -406 119z" />
<glyph unicode="&#x2084;" horiz-adv-x="905" d="M25 4l399 549h315v-516h138v-195h-138v-149h-237v149h-477v162zM270 37h232v330z" />
<glyph unicode="&#x2085;" horiz-adv-x="802" d="M29 -205l104 170q119 -86 240 -86q66 0 106.5 25.5t40.5 70.5q0 44 -36.5 73.5t-108.5 29.5q-85 0 -170 -45l-133 82l49 438h604v-195h-406l-6 -106q65 14 119 14q160 0 246 -83.5t86 -205.5q0 -126 -92 -212.5t-266 -86.5q-184 0 -377 117z" />
<glyph unicode="&#x2086;" horiz-adv-x="837" d="M47 57q0 221 154.5 365.5t402.5 144.5q38 0 74 -3.5t53 -7.5l17 -3l-54 -182q-39 6 -88 6q-63 0 -118 -16.5t-103.5 -59t-73.5 -106.5q86 55 201 55q129 0 211 -73t82 -195q0 -128 -99.5 -216t-265.5 -88q-99 0 -176 31t-123.5 84.5t-70 120t-23.5 143.5zM285 18 q1 -42 14.5 -72.5t36 -46.5t46.5 -23t52 -7q67 0 101 31t34 73q0 45 -36.5 74t-98.5 29q-91 0 -149 -58z" />
<glyph unicode="&#x2087;" horiz-adv-x="708" d="M31 358v195h661v-182q-13 -15 -35 -41.5t-77.5 -106t-98 -157t-77.5 -181.5t-35 -192h-246q0 84 31 181t70 171.5t90.5 150t77.5 108t46 54.5h-407z" />
<glyph unicode="&#x2088;" horiz-adv-x="860" d="M39 -72q0 150 190 236q-131 78 -131 188q0 96 87.5 155.5t246.5 59.5q158 0 246 -59.5t88 -155.5q0 -110 -133 -188q190 -86 190 -236q0 -115 -103.5 -182.5t-287.5 -67.5q-187 0 -290 67t-103 183zM279 -51q0 -40 43 -67t110 -27t108.5 27t41.5 67q0 39 -39 67.5 t-113 57.5q-73 -29 -112 -57.5t-39 -67.5zM328 330q0 -56 102 -94q105 40 105 94q0 25 -28 46t-75 21q-49 0 -76.5 -21t-27.5 -46z" />
<glyph unicode="&#x2089;" horiz-adv-x="839" d="M35 262q0 129 99 217t265 88q99 0 175.5 -31t123 -84.5t70 -120t23.5 -143.5q0 -222 -154.5 -366t-403.5 -144q-37 0 -72.5 4t-52.5 8l-16 3l55 182q37 -6 86 -6q62 0 116 16t102 58t73 106q-80 -53 -196 -53q-129 0 -211 73t-82 193zM270 272q0 -45 35.5 -74.5 t97.5 -29.5q97 0 150 57q-3 80 -46 116t-101 36q-68 0 -102 -32t-34 -73z" />
<glyph unicode="&#x208a;" horiz-adv-x="819" d="M74 18v168h250v213h172v-213h249v-168h-249v-213h-172v213h-250z" />
<glyph unicode="&#x208d;" horiz-adv-x="460" d="M63 -154v547q0 43 0.5 65t4.5 54.5t12 49t23 40t37 37t55 30t76.5 29.5t101.5 25l57 -123q-47 -15 -73 -28t-38.5 -31.5t-15 -35t-2.5 -50.5v-670q0 -34 2.5 -50t15 -34.5t38.5 -32t73 -28.5l-57 -123q-46 10 -83.5 20t-67 22.5t-52 23t-39.5 27t-28.5 28.5t-19 33 t-11.5 35.5t-6 42t-2.5 45.5t-0.5 52z" />
<glyph unicode="&#x208e;" horiz-adv-x="460" d="M33 -360q47 15 73 28t38.5 31.5t15 35t2.5 50.5v670q0 34 -2.5 50t-15 34.5t-38.5 32t-73 28.5l57 123q46 -10 83 -20t67 -22.5t52.5 -23t39 -27t28 -28.5t19 -33.5t11.5 -36t6 -42t2.5 -45.5t0.5 -52v-547q0 -57 -1.5 -84.5t-10.5 -66.5t-27.5 -58.5t-53 -44.5t-87 -42 t-129.5 -33z" />
<glyph unicode="&#x20a1;" horiz-adv-x="1157" d="M88 719q0 141 41 250.5t111.5 175.5t158 99.5t187.5 33.5q23 0 35 -2l36 158h142l-41 -177q51 -11 53 -12l43 189h143l-53 -232q34 -12 89 -36t57 -25l-134 -248l-75 33l-107 -459q72 24 182 76l134 -248q-221 -103 -385 -129l-39 -166h-144l37 158q-28 0 -55 6l-37 -164 h-141l47 201q-131 59 -208 188.5t-77 329.5zM430 719q0 -89 27 -150l94 402q-58 -29 -89.5 -95t-31.5 -157zM571 455q19 -7 54 -11l123 531q-29 7 -54 10z" />
<glyph unicode="&#x20a4;" horiz-adv-x="1206" d="M98 0v233q7 2 18.5 7t43 22.5t59 38.5t57 56.5t46.5 74.5h-201v162h215q-7 32 -29 86h-186v164h94q-72 129 -72 250q0 169 116.5 265.5t324.5 96.5q87 0 169 -16.5t158 -49.5t117.5 -55t106.5 -61l-152 -223q-203 116 -330 116q-79 0 -119 -34.5t-40 -92.5q0 -13 2 -26.5 t4.5 -23.5t8.5 -25t9.5 -23t13 -25t13 -23t15.5 -25.5t15 -24.5h402v-164h-322q12 -41 15 -86h307v-162h-334q-40 -96 -111 -143h580v-289h-1014z" />
<glyph unicode="&#x20a7;" horiz-adv-x="1478" d="M109 895v131h57v408h618q541 0 582 -408h59v-131h-59q-41 -403 -582 -403h-268v-492h-350v895h-57zM516 778h248q64 0 110 9.5t82 36.5t50 71h-490v-117zM516 1026h490q-38 119 -242 119h-248v-119z" />
<glyph unicode="&#x20a9;" horiz-adv-x="2164" d="M84 840v194h125l-111 400h402l84 -400h258l100 400h279l100 -400h258l86 400h399l-112 -400h127v-194h-181l-45 -156h226v-195h-279l-137 -489h-342l-240 926l-239 -926h-342l-138 489h-276v195h221l-43 156h-180zM627 840l75 -357l91 357h-166zM1370 840l90 -355l76 355 h-166z" />
<glyph unicode="&#x20ac;" horiz-adv-x="1492" d="M74 479v174h123v115h-123v174h141q50 254 204 384t378 130q159 0 303.5 -53t324.5 -152l-161 -258q-132 73 -233 111.5t-191 38.5q-91 0 -155 -52t-97 -149h434v-174h-465v-115h465v-174h-430q71 -188 248 -188q91 0 192 38.5t232 110.5l161 -258q-180 -99 -324.5 -152 t-303.5 -53q-221 0 -374 127t-204 375h-145z" />
<glyph unicode="&#x2116;" horiz-adv-x="2490" d="M147 0v1434h355l555 -912v912h348v-1434h-354l-553 907v-907h-351zM1511 987q0 205 117 316.5t334 111.5t334 -111.5t117 -316.5q0 -206 -116.5 -317t-334.5 -111t-334.5 111t-116.5 317zM1599 283v192h728v-192h-728zM1808 987q0 -102 36 -151.5t118 -49.5t119 49.5 t37 151.5q0 100 -37 149.5t-119 49.5q-81 0 -117.5 -49t-36.5 -150z" />
<glyph unicode="&#x2117;" horiz-adv-x="1615" d="M78 717q0 156 49 290.5t140 234.5t230.5 157t311.5 57t311 -57t230 -157t139.5 -234.5t48.5 -290.5t-48.5 -290.5t-139.5 -234.5t-230 -157.5t-311 -57.5t-311.5 57.5t-230.5 157.5t-140 234.5t-49 290.5zM160 717q0 -141 43 -261.5t123 -210.5t204 -141t277 -51 q154 0 278.5 51t206 141t125 211t43.5 261t-43.5 260.5t-125 210t-206 140t-278.5 50.5q-203 0 -351.5 -88t-222 -236t-73.5 -337zM584 285v862h286q299 0 299 -262q0 -264 -299 -264h-186v-336h-100zM684 707h188q197 0 197 178t-197 178h-188v-356z" />
<glyph unicode="&#x2120;" d="M84 1034l57 88q42 -20 100.5 -35.5t104.5 -15.5q31 0 54.5 8.5t23.5 22.5q0 15 -23.5 22.5t-76 17.5t-88.5 21q-27 9 -46.5 17.5t-43.5 24t-37 39.5t-13 54q0 62 53.5 103t145.5 41q105 0 237 -60l-57 -86q-107 41 -176 41q-30 0 -50 -8t-20 -22q0 -15 19.5 -22.5t71 -18 t86.5 -21.5q149 -39 149 -135q0 -62 -57.5 -102.5t-153.5 -40.5q-132 0 -260 67zM616 975v459h136l145 -254l145 254h138v-459h-131v270l-111 -194h-80l-110 194v-270h-132z" />
<glyph unicode="&#x2122;" horiz-adv-x="1306" d="M106 1327v107h447v-107h-160v-352h-129v352h-158zM608 975v459h140l143 -254l145 254h135v-459h-131v270l-110 -194h-78l-113 200v-276h-131z" />
<glyph unicode="&#x2126;" horiz-adv-x="1585" d="M88 768q0 141 43.5 263.5t128.5 218.5t222 151t311 55q140 0 256.5 -36t198.5 -99.5t138.5 -151t83.5 -188.5t27 -213q0 -179 -72.5 -309t-171.5 -170h203v-289h-594v299q141 32 212 148t71 278q0 202 -84.5 317t-267.5 115t-268 -114.5t-85 -315.5q0 -164 71.5 -279 t211.5 -149v-299h-594v289h201q-98 41 -170 171t-72 308z" />
<glyph unicode="&#x2153;" horiz-adv-x="1869" d="M43 1292l260 142h227v-861h-237v646l-156 -78zM377 0l672 1434h254l-672 -1434h-254zM1042 104l105 158q151 -80 272 -80q62 0 96.5 20t34.5 58q0 31 -22.5 51t-64 28t-73.5 10.5t-77 2.5h-41v197h47q37 0 64 2t61.5 8.5t53 23.5t18.5 42q0 55 -99 55q-103 0 -239 -74 l-95 146q22 17 50 33t76 38.5t113 36.5t134 14q148 0 222.5 -60t74.5 -152q0 -125 -141 -187q79 -25 129.5 -84.5t50.5 -134.5q0 -52 -18 -98t-56 -85.5t-107.5 -63t-162.5 -23.5q-209 0 -406 118z" />
<glyph unicode="&#x2154;" horiz-adv-x="2107" d="M74 573v97q0 61 23.5 115.5t66.5 99.5t86.5 78t101.5 67q22 13 63 35.5t58.5 33t40 27t31 31.5t8.5 31q0 28 -28.5 46.5t-82.5 18.5q-104 0 -239 -82l-105 150q183 127 379 127q154 0 236 -71t82 -179q0 -49 -19 -92.5t-44.5 -73.5t-69.5 -61t-75 -47.5t-79 -40.5 q-71 -36 -108.5 -63t-37.5 -52h433v-195h-721zM627 0l671 1434h254l-671 -1434h-254zM1294 104l105 158q151 -80 272 -80q62 0 96.5 20t34.5 58q0 31 -22.5 51t-64 28t-73.5 10.5t-77 2.5h-41v197h47q37 0 64 2t61 8.5t52.5 23.5t18.5 42q0 55 -98 55q-103 0 -239 -74 l-95 146q22 17 50 33t76 38.5t113 36.5t134 14q148 0 222.5 -60t74.5 -152q0 -125 -141 -187q79 -25 129.5 -84.5t50.5 -134.5q0 -52 -18 -98t-56 -85.5t-107.5 -63t-162.5 -23.5q-209 0 -406 118z" />
<glyph unicode="&#x2155;" horiz-adv-x="1890" d="M43 1292l260 142h227v-861h-237v646l-156 -78zM377 0l672 1434h254l-672 -1434h-254zM1067 102l104 170q119 -86 240 -86q66 0 107 26t41 71q0 43 -37 72.5t-109 29.5q-85 0 -170 -45l-133 82l49 438h604v-194h-405l-6 -107q65 14 118 14q160 0 246 -83t86 -205 q0 -126 -92 -212.5t-266 -86.5q-186 0 -377 116z" />
<glyph unicode="&#x2156;" horiz-adv-x="2117" d="M74 573v97q0 61 23.5 115.5t66.5 99.5t86.5 78t101.5 67q22 13 63 35.5t58.5 33t40 27t31 31.5t8.5 31q0 28 -28.5 46.5t-82.5 18.5q-104 0 -239 -82l-105 150q183 127 379 127q154 0 236 -71t82 -179q0 -49 -19 -92.5t-44.5 -73.5t-69.5 -61t-75 -47.5t-79 -40.5 q-71 -36 -108.5 -63t-37.5 -52h433v-195h-721zM627 0l671 1434h254l-671 -1434h-254zM1315 102l104 170q119 -86 240 -86q66 0 106.5 26t40.5 71q0 43 -36.5 72.5t-108.5 29.5q-85 0 -170 -45l-133 82l49 438h604v-194h-405l-7 -107q65 14 119 14q160 0 246 -83t86 -205 q0 -126 -92 -212.5t-266 -86.5q-186 0 -377 116z" />
<glyph unicode="&#x2157;" horiz-adv-x="2064" d="M55 678l105 158q151 -80 272 -80q62 0 96.5 20t34.5 58q0 31 -22.5 51t-64 28t-73.5 10.5t-77 2.5h-41v196h47q37 0 64 2t61 8.5t52.5 23.5t18.5 42q0 55 -98 55q-106 0 -240 -73l-94 145q22 17 50 33.5t76 39t113 36.5t134 14q148 0 222.5 -60.5t74.5 -152.5 q0 -124 -141 -186q79 -25 129.5 -85t50.5 -135q0 -52 -18 -98t-56 -85.5t-107.5 -63t-162.5 -23.5q-208 0 -406 119zM563 0l672 1434h254l-672 -1434h-254zM1251 102l105 170q119 -86 239 -86q66 0 107 26t41 71q0 43 -37 72.5t-109 29.5q-85 0 -170 -45l-133 82l49 438h605 v-194h-406l-6 -107q65 14 119 14q160 0 246 -83t86 -205q0 -126 -92 -212.5t-267 -86.5q-186 0 -377 116z" />
<glyph unicode="&#x2158;" horiz-adv-x="2164" d="M51 723v162l400 549h315v-516h137v-195h-137v-150h-238v150h-477zM297 918h231v329zM664 0l671 1434h254l-671 -1434h-254zM1352 102l104 170q119 -86 240 -86q66 0 106.5 26t40.5 71q0 43 -36.5 72.5t-108.5 29.5q-85 0 -170 -45l-133 82l49 438h604v-194h-406l-6 -107 q65 14 119 14q160 0 246 -83t86 -205q0 -126 -92 -212.5t-266 -86.5q-186 0 -377 116z" />
<glyph unicode="&#x2159;" horiz-adv-x="1828" d="M43 1292l260 142h227v-861h-237v646l-156 -78zM377 0l672 1434h254l-672 -1434h-254zM991 365q0 221 154.5 365t402.5 144q38 0 74 -3.5t53 -6.5l17 -4l-54 -182q-39 6 -88 6q-63 0 -118 -16.5t-103.5 -59t-73.5 -106.5q86 55 201 55q129 0 211 -73t82 -195 q0 -128 -99.5 -215.5t-265.5 -87.5q-99 0 -176 31t-123.5 84.5t-70 120t-23.5 143.5zM1229 326q1 -80 45 -115t104 -35q67 0 101 31.5t34 73.5q0 45 -36.5 73.5t-98.5 28.5q-92 0 -149 -57z" />
<glyph unicode="&#x215a;" horiz-adv-x="1978" d="M63 676l105 170q119 -86 240 -86q66 0 106.5 25.5t40.5 70.5q0 43 -36.5 72.5t-108.5 29.5q-85 0 -170 -45l-134 82l50 439h604v-195h-406l-6 -106q65 14 119 14q160 0 246 -83.5t86 -205.5q0 -126 -92 -212.5t-267 -86.5q-184 0 -377 117zM537 0l671 1434h254 l-671 -1434h-254zM1151 365q0 221 154.5 365t402.5 144q38 0 74 -3.5t52 -6.5l17 -4l-53 -182q-39 6 -88 6q-63 0 -118 -16.5t-103.5 -59t-73.5 -106.5q86 55 201 55q129 0 211 -73t82 -195q0 -128 -99.5 -215.5t-265.5 -87.5q-99 0 -176 31t-123.5 84.5t-70 120 t-23.5 143.5zM1389 326q1 -80 45 -115t104 -35q67 0 101 31.5t34 73.5q0 45 -36.5 73.5t-98.5 28.5q-92 0 -149 -57z" />
<glyph unicode="&#x215b;" horiz-adv-x="1884" d="M43 1292l260 142h227v-861h-237v646l-156 -78zM377 0l672 1434h254l-672 -1434h-254zM1030 236q0 85 52 140.5t139 94.5q-131 78 -131 188q0 97 87 156t246 59q158 0 246 -59.5t88 -155.5q0 -110 -133 -188q87 -39 139 -94.5t52 -140.5q0 -115 -104 -182.5t-288 -67.5 q-187 0 -290 67t-103 183zM1270 256q0 -40 43 -67t110 -27t108.5 27t41.5 67q0 39 -39 67.5t-113 57.5q-73 -29 -112 -57.5t-39 -67.5zM1319 637q0 -56 102 -94q105 40 105 94q0 25 -28 46.5t-75 21.5q-48 0 -76 -21.5t-28 -46.5z" />
<glyph unicode="&#x215c;" horiz-adv-x="2070" d="M55 678l105 158q151 -80 272 -80q62 0 96.5 20t34.5 58q0 31 -22.5 51t-64 28t-73.5 10.5t-77 2.5h-41v196h47q37 0 64 2t61 8.5t52.5 23.5t18.5 42q0 55 -98 55q-106 0 -240 -73l-94 145q22 17 50 33.5t76 39t113 36.5t134 14q148 0 222.5 -60.5t74.5 -152.5 q0 -124 -141 -186q79 -25 129.5 -85t50.5 -135q0 -52 -18 -98t-56 -85.5t-107.5 -63t-162.5 -23.5q-208 0 -406 119zM563 0l672 1434h254l-672 -1434h-254zM1217 236q0 150 190 235q-131 78 -131 188q0 96 87.5 155.5t246.5 59.5q158 0 246 -59.5t88 -155.5 q0 -110 -134 -188q87 -39 139 -94.5t52 -140.5q0 -115 -103.5 -182.5t-287.5 -67.5q-187 0 -290 67t-103 183zM1456 256q0 -40 43.5 -67t110.5 -27q66 0 107.5 27t41.5 67q0 39 -39 67.5t-112 57.5q-74 -30 -113 -58t-39 -67zM1505 637q0 -55 103 -94q104 39 104 94 q0 25 -27.5 46.5t-74.5 21.5q-48 0 -76.5 -21.5t-28.5 -46.5z" />
<glyph unicode="&#x215d;" horiz-adv-x="2033" d="M63 676l105 170q119 -86 240 -86q66 0 106.5 25.5t40.5 70.5q0 43 -36.5 72.5t-108.5 29.5q-85 0 -170 -45l-134 82l50 439h604v-195h-406l-6 -106q65 14 119 14q160 0 246 -83.5t86 -205.5q0 -126 -92 -212.5t-267 -86.5q-184 0 -377 117zM537 0l671 1434h254 l-671 -1434h-254zM1188 236q0 150 190 235q-131 78 -131 188q0 96 87.5 155.5t246.5 59.5q158 0 246 -59.5t88 -155.5q0 -110 -133 -188q190 -85 190 -235q0 -115 -103.5 -182.5t-287.5 -67.5q-187 0 -290 67t-103 183zM1427 256q0 -40 43.5 -67t110.5 -27t108.5 27t41.5 67 q0 39 -39 67.5t-113 57.5q-74 -30 -113 -58t-39 -67zM1477 637q0 -56 102 -94q104 39 104 94q0 25 -27.5 46.5t-74.5 21.5q-48 0 -76 -21.5t-28 -46.5z" />
<glyph unicode="&#x215e;" horiz-adv-x="1843" d="M59 1239v195h662v-183q-13 -15 -35 -41.5t-78 -106t-98.5 -157t-77.5 -181.5t-35 -192h-245q0 84 31 181t70 171.5t90.5 150.5t78 108.5t45.5 54.5h-408zM348 0l672 1434h254l-672 -1434h-254zM999 236q0 85 52 140.5t139 94.5q-131 78 -131 188q0 96 87.5 155.5 t246.5 59.5q157 0 245 -59.5t88 -155.5q0 -110 -133 -188q87 -39 139 -94.5t52 -140.5q0 -115 -103.5 -182.5t-287.5 -67.5q-187 0 -290.5 67.5t-103.5 182.5zM1239 256q0 -40 43.5 -67t110.5 -27q66 0 107.5 27t41.5 67q0 39 -39 67.5t-112 57.5q-74 -30 -113 -58t-39 -67z M1288 637q0 -55 103 -94q104 39 104 94q0 25 -27.5 46.5t-74.5 21.5q-48 0 -76.5 -21.5t-28.5 -46.5z" />
<glyph unicode="&#x2202;" horiz-adv-x="1329" d="M70 477q0 223 138.5 360.5t350.5 137.5q67 0 126.5 -14t96.5 -33.5t64.5 -39.5t39.5 -34l11 -14q-43 147 -176.5 238t-333.5 91q-45 0 -88 -4t-63 -8l-21 -4l-39 258q82 23 219 23q202 0 364.5 -66t266.5 -180t159.5 -264.5t55.5 -323.5q0 -299 -159.5 -461t-440.5 -162 q-266 0 -418.5 135t-152.5 365zM420 475q0 -103 58.5 -171t185.5 -68q125 0 183 67t58 172q0 106 -57.5 174t-183.5 68q-66 0 -115 -20.5t-76.5 -55.5t-40 -76.5t-12.5 -89.5z" />
<glyph unicode="&#x2206;" horiz-adv-x="1540" d="M41 0l545 1434h366l545 -1434h-1456zM449 289h636l-315 805z" />
<glyph unicode="&#x220f;" horiz-adv-x="1505" d="M57 1145v289h1391v-289h-186v-1145h-351v1145h-317v-1145h-350v1145h-187z" />
<glyph unicode="&#x2211;" horiz-adv-x="1241" d="M72 0v152l540 565l-540 565v152h1077v-289h-559l424 -428l-424 -428h559v-289h-1077z" />
<glyph unicode="&#x2212;" horiz-adv-x="1296" d="M117 557v252h1061v-252h-1061z" />
<glyph unicode="&#x221a;" horiz-adv-x="1345" d="M8 696h361l184 -383l451 1121h352l-598 -1434h-389z" />
<glyph unicode="&#x221e;" horiz-adv-x="1871" d="M90 528q0 162 106 265.5t283 103.5q89 0 173.5 -33t145.5 -78t140 -118q123 114 225 171.5t232 57.5q177 0 282 -103t105 -266q0 -164 -105 -266t-284 -102q-122 0 -222.5 56t-232.5 173q-127 -115 -230 -172t-229 -57q-177 0 -283 103t-106 265zM340 528 q0 -68 48.5 -108.5t123.5 -40.5q67 0 127.5 35.5t146.5 113.5q-96 83 -153 116.5t-121 33.5q-75 0 -123.5 -41t-48.5 -109zM1090 528q86 -79 144 -114t126 -35q75 0 125.5 41t50.5 108q0 68 -50 109t-126 41q-63 0 -119.5 -33.5t-150.5 -116.5z" />
<glyph unicode="&#x222b;" horiz-adv-x="817" d="M16 -104h41q37 0 65.5 10t46.5 23.5t31 39.5t19.5 46t9.5 56t3.5 56.5t0.5 58.5v1082q0 131 27.5 216.5t93 138t163.5 74t249 21.5h35v-188h-41q-32 0 -58 -6.5t-44 -21t-31 -29t-21 -40t-12.5 -44t-6.5 -50.5t-2.5 -50t-0.5 -52v-1079q0 -131 -27.5 -216.5t-93 -138.5 t-163.5 -74.5t-249 -21.5h-35v189z" />
<glyph unicode="&#x2248;" horiz-adv-x="1296" d="M119 412q57 133 134.5 205.5t190.5 72.5q58 0 119 -20t103.5 -44.5t96 -44.5t99.5 -20q45 0 81.5 23.5t74.5 91.5l164 -66q-55 -132 -133 -205t-191 -73q-56 0 -117 20.5t-105 45t-99.5 45t-100.5 20.5q-42 0 -77 -24t-76 -93zM119 803q57 133 134.5 205.5t190.5 72.5 q58 0 119 -20t103.5 -44.5t96 -44.5t99.5 -20t82 22.5t74 90.5l164 -64q-55 -133 -133 -205.5t-191 -72.5q-56 0 -117 20t-105 44.5t-99.5 44.5t-100.5 20q-43 0 -77.5 -23.5t-75.5 -91.5z" />
<glyph unicode="&#x2260;" horiz-adv-x="1296" d="M117 362v252h372l62 144h-434v250h538l119 280l213 -80l-84 -200h275v-250h-381l-60 -144h441v-252h-547l-119 -280l-211 80l84 200h-268z" />
<glyph unicode="&#x2264;" horiz-adv-x="1296" d="M102 0v215h1061v-215h-1061zM104 631v196l1059 371v-283l-614 -186l614 -190v-277z" />
<glyph unicode="&#x2265;" horiz-adv-x="1296" d="M129 0v215h1061v-215h-1061zM129 262v277l616 190l-616 186v283l1061 -371v-196z" />
<glyph unicode="&#x2318;" horiz-adv-x="1576" d="M94 373q0 120 91 204.5t221 84.5h118v116h-118q-130 0 -221 85.5t-91 205.5t91 204.5t221 84.5q127 0 217 -84.5t90 -204.5v-106h141v106q0 120 90 204.5t219 84.5t219.5 -84.5t90.5 -204.5t-90.5 -205.5t-219.5 -85.5h-121v-116h121q129 0 219.5 -84.5t90.5 -204.5 q0 -121 -90.5 -206t-219.5 -85t-219 85t-90 206v104h-141v-104q0 -121 -89.5 -206t-217.5 -85q-130 0 -221 84.5t-91 206.5zM283 373q0 -45 35.5 -76t87.5 -31q49 0 83.5 31.5t34.5 75.5v104h-118q-52 0 -87.5 -30.5t-35.5 -73.5zM283 1069q0 -44 35.5 -75t87.5 -31h118v106 q0 43 -34.5 74t-83.5 31q-52 0 -87.5 -31t-35.5 -74zM713 662h141v116h-141v-116zM1042 373q0 -44 35 -75.5t86 -31.5q50 0 85.5 31.5t35.5 75.5q0 43 -35.5 73.5t-85.5 30.5h-121v-104zM1042 963h121q50 0 85.5 31t35.5 75q0 43 -36 74t-85 31q-51 0 -86 -31t-35 -74v-106z " />
<glyph unicode="&#x25ca;" horiz-adv-x="1212" d="M51 717l383 717h342l385 -717l-385 -717h-342zM369 717l235 -438l238 438l-238 438z" />
<glyph unicode="&#xe000;" horiz-adv-x="1075" d="M0 0v1075h1075v-1075h-1075z" />
<glyph unicode="&#xf639;" horiz-adv-x="1400" d="M82 717q0 353 158.5 546t459.5 193t459 -193t158 -546q0 -354 -158.5 -547t-460.5 -193q-301 0 -458.5 193t-157.5 547zM434 717q0 -246 66.5 -357.5t197.5 -111.5t198 111.5t67 357.5q0 245 -66 357t-197 112q-132 0 -199 -112t-67 -357z" />
<glyph unicode="&#xf63a;" horiz-adv-x="1400" d="M139 0v152q0 84 26.5 161t66.5 135.5t103 116.5t119.5 98.5t131.5 86.5q31 20 83.5 52t79 49t62 43t52.5 45.5t29.5 45t12.5 51.5q0 56 -49.5 93.5t-140.5 37.5q-160 0 -383 -133l-156 223q281 199 588 199q237 0 365 -114t128 -289q0 -98 -35.5 -179t-115.5 -150 t-132.5 -104t-159.5 -96q-11 -7 -17 -10q-118 -67 -177 -117t-59 -108h699v-289h-1121z" />
<glyph unicode="&#xf63b;" horiz-adv-x="1400" d="M117 164l151 237q245 -131 430 -131q106 0 169 41.5t63 116.5q0 46 -27 81t-66.5 54t-95.5 30.5t-103 15t-99 3.5h-64v289h74q56 0 106 6.5t101 21.5t81.5 47t30.5 77q0 54 -43 84t-127 30q-163 0 -374 -120l-144 217q36 27 77 51.5t116.5 60.5t176 58t206.5 22 q117 0 207.5 -28t145.5 -77t82.5 -111t27.5 -134q0 -213 -232 -315q129 -39 212 -140t83 -229q0 -68 -17 -130t-57.5 -120t-101 -101t-154 -68.5t-209.5 -25.5q-318 0 -626 187z" />
<glyph unicode="&#xf63c;" horiz-adv-x="1400" d="M57 262v242l643 930h441v-883h202v-289h-202v-262h-342v262h-742zM397 551h402v598z" />
<glyph unicode="&#xf63d;" horiz-adv-x="1400" d="M129 162l154 252q209 -138 379 -138q109 0 180 51.5t71 141.5q0 83 -63 140t-182 57q-129 0 -277 -78l-192 121l77 725h936v-289h-645l-14 -225q99 26 199 26q126 0 226.5 -39t162.5 -105.5t94.5 -150.5t32.5 -180q0 -98 -34.5 -185.5t-100.5 -157t-175 -110.5t-247 -41 q-285 0 -582 185z" />
<glyph unicode="&#xf63e;" horiz-adv-x="1400" d="M113 592q-1 194 64.5 357t181 273.5t276 172t346.5 61.5q57 0 112 -5.5t81 -10.5l26 -6l-80 -273q-61 13 -137 13q-59 0 -114.5 -10.5t-112.5 -36.5t-104 -65.5t-86.5 -101t-63.5 -139.5q132 105 325 105q205 0 335 -124t130 -323q0 -102 -39 -192.5t-110.5 -159.5 t-179.5 -109.5t-238 -40.5q-125 0 -228 34t-173 92t-118.5 137t-70.5 167.5t-22 184.5zM465 549q0 -142 73 -215.5t177 -73.5q112 0 169.5 61.5t57.5 143.5q0 88 -60 145.5t-165 57.5q-86 0 -152 -36.5t-100 -82.5z" />
<glyph unicode="&#xf63f;" horiz-adv-x="1400" d="M182 1145v289h1035v-271q-11 -13 -29.5 -36.5t-72 -98t-102.5 -151.5t-108.5 -189t-102.5 -218.5t-72.5 -232t-29.5 -237.5h-362q0 104 25.5 221t64 217t92 206.5t99.5 182.5t99 152t77 108t45 58h-658z" />
<glyph unicode="&#xf640;" horiz-adv-x="1400" d="M90 389q0 60 17 113t45 93.5t69.5 76t84.5 61t95 49.5q-219 128 -219 320q0 159 136 256.5t380 97.5t382.5 -97.5t138.5 -256.5q0 -192 -222 -320q67 -30 118.5 -64.5t97.5 -81.5t71 -109.5t25 -137.5q0 -192 -162 -302t-449 -110t-447.5 110t-160.5 302zM444 416 q0 -77 71 -126.5t183 -49.5q113 0 184.5 49.5t71.5 126.5t-67 130.5t-189 104.5q-122 -51 -188 -104.5t-66 -130.5zM522 1069q0 -60 48 -101t128 -75q81 33 130 74.5t49 101.5q0 51 -48.5 92t-130.5 41q-81 0 -128.5 -41t-47.5 -92z" />
<glyph unicode="&#xf641;" horiz-adv-x="1400" d="M109 954q0 101 39.5 192t111 160t180 109.5t238.5 40.5q154 0 274 -51.5t192 -139t108.5 -195t37.5 -228.5q0 -195 -65.5 -357.5t-181 -273.5t-275.5 -172.5t-346 -61.5q-58 0 -113.5 5.5t-81.5 11.5l-26 6l82 272q59 -12 135 -12q59 0 114.5 10.5t112 36.5t103.5 65 t87 100t64 138q-135 -104 -326 -104q-205 0 -334.5 124.5t-129.5 323.5zM459 967q0 -87 60 -144t165 -57q85 0 150 35t102 82q-1 73 -22 130t-56.5 91.5t-79 52t-92.5 17.5q-113 0 -170 -62t-57 -145z" />
<glyph unicode="&#xf6c3;" horiz-adv-x="280" d="M6 -543l115 168h-109v262h246l14 -290l-202 -220z" />
<glyph unicode="&#xf6dc;" horiz-adv-x="1400" d="M102 0v289h422v821l-284 -143l-138 225l441 242h331v-1145h420v-289h-1192z" />
<glyph unicode="&#xf6df;" horiz-adv-x="737" d="M53 123q0 161 84.5 245t212.5 89v96h162v-113q65 -14 182 -63l-90 -166q-117 55 -194 55q-60 0 -91.5 -38.5t-31.5 -104.5q0 -65 31.5 -104t91.5 -39q77 0 194 55l90 -170q-101 -42 -182 -62v-110h-162v94q-61 3 -113.5 24.5t-94 61.5t-65.5 104t-24 146z" />
<glyph unicode="&#xf6e0;" horiz-adv-x="737" d="M53 1219q0 161 84.5 244.5t212.5 88.5v97h162v-113q65 -14 182 -63l-90 -166q-117 55 -194 55q-60 0 -91.5 -38.5t-31.5 -104.5q0 -65 31.5 -104.5t91.5 -39.5q77 0 194 55l90 -169q-101 -42 -182 -62v-111h-162v95q-61 3 -113.5 24.5t-94 61.5t-65.5 104t-24 146z" />
<glyph unicode="&#xf6e1;" horiz-adv-x="370" d="M66 -451l104 144h-102v237h227l16 -268l-186 -186z" />
<glyph unicode="&#xf6e2;" horiz-adv-x="370" d="M66 645l104 143h-102v238h227l16 -268l-186 -187z" />
<glyph unicode="&#xf6e3;" horiz-adv-x="858" d="M37 -199l106 168q64 -36 160 -66t162 -30q45 0 75.5 14.5t30.5 40.5q0 19 -14.5 32.5t-43.5 23.5t-61.5 18t-81.5 22t-89 29q-41 14 -77.5 33.5t-71 49t-55 71.5t-20.5 92q0 109 77.5 182.5t219.5 83.5v113h164v-121q151 -24 275 -84l-105 -170q-169 70 -276 70 q-45 0 -75 -14t-30 -42q0 -18 13.5 -30.5t41.5 -22t59 -17t79.5 -20.5t89.5 -28q34 -13 61 -25.5t60.5 -34.5t56 -47t38 -62.5t15.5 -80.5q0 -110 -80.5 -184t-222.5 -84v-111h-164v119q-169 26 -317 112z" />
<glyph unicode="&#xf6e4;" horiz-adv-x="858" d="M37 897l106 168q64 -36 160 -66t162 -30q45 0 75.5 14.5t30.5 40.5q0 19 -14.5 32.5t-43.5 23.5t-61.5 18t-81.5 22t-89 29q-41 14 -77.5 33.5t-71 49t-55 71.5t-20.5 92q0 109 77.5 182.5t219.5 83.5v113h164v-121q151 -24 275 -84l-105 -170q-167 69 -276 69 q-45 0 -75 -13.5t-30 -41.5t31.5 -43.5t114.5 -36t137 -39.5q34 -13 61 -25.5t60.5 -34.5t56 -47t38 -62.5t15.5 -80.5q0 -110 -81 -184.5t-222 -83.5v-110h-164v118q-176 27 -317 113z" />
<glyph unicode="&#xf6e7;" horiz-adv-x="358" d="M66 -70h229v-237h-229v237z" />
<glyph unicode="&#xf6e8;" horiz-adv-x="358" d="M66 788v238h229v-238h-229z" />
<glyph unicode="&#xf6e9;" horiz-adv-x="788" d="M31 989q0 96 70.5 151.5t185.5 55.5q61 0 213 -27v31q0 44 -24.5 61t-84.5 17q-81 0 -246 -43l-69 151q203 62 358 62q156 0 225.5 -61t69.5 -201v-398h-229v68q-106 -82 -232 -82q-106 0 -171.5 61.5t-65.5 153.5zM262 1010q0 -30 22.5 -47t61.5 -17q85 0 154 53v62 q-105 18 -135 18q-103 0 -103 -69z" />
<glyph unicode="&#xf6ea;" horiz-adv-x="823" d="M70 788v895h229v-313q102 78 219 78q123 0 194.5 -88t71.5 -250q0 -161 -71.5 -248.5t-194.5 -87.5q-115 0 -219 76v-62h-229zM299 1022q62 -68 145 -68q109 0 109 158q0 154 -109 154q-83 0 -145 -68v-176z" />
<glyph unicode="&#xf6eb;" horiz-adv-x="823" d="M41 1110q0 162 71.5 250t194.5 88q116 0 219 -78v313h230v-895h-230v62q-101 -76 -219 -76q-123 0 -194.5 87.5t-71.5 248.5zM272 1112q0 -158 109 -158q80 0 145 68v176q-65 68 -145 68q-109 0 -109 -154z" />
<glyph unicode="&#xf6ec;" horiz-adv-x="759" d="M39 1108q0 159 92 249.5t260 90.5q162 0 247 -79.5t85 -209.5q0 -24 -2.5 -47.5t-4.5 -35.5l-3 -11h-441q8 -64 38.5 -94.5t88.5 -30.5q93 0 248 74l80 -140q-174 -100 -352 -100q-149 0 -242.5 84t-93.5 250zM274 1180h228q-3 108 -113 108q-97 0 -115 -108z" />
<glyph unicode="&#xf6ed;" horiz-adv-x="368" d="M66 1503v178h239v-178h-239zM70 788v646h229v-646h-229z" />
<glyph unicode="&#xf6ee;" horiz-adv-x="368" d="M72 788v895h227v-895h-227z" />
<glyph unicode="&#xf6ef;" horiz-adv-x="1218" d="M70 788v646h229v-74q105 88 223 88q144 0 189 -105q40 40 105 72.5t134 32.5q205 0 205 -209v-451h-227v398q0 43 -13.5 64.5t-54.5 21.5q-33 0 -69.5 -19.5t-63.5 -46.5v-418h-229v398q0 43 -13 64.5t-53 21.5q-69 0 -133 -64v-420h-229z" />
<glyph unicode="&#xf6f0;" horiz-adv-x="811" d="M39 1112q0 161 94.5 248.5t272.5 87.5q176 0 271 -88.5t95 -249.5q0 -160 -95 -248t-271 -88t-271.5 88.5t-95.5 249.5zM268 1112q0 -164 138 -164q137 0 137 162q0 164 -137 164q-138 0 -138 -162z" />
<glyph unicode="&#xf6f1;" horiz-adv-x="569" d="M70 788v646h229v-134q7 19 22.5 41.5t44 48t76.5 40.5t107 12v-215q-64 0 -113 -21.5t-73.5 -51.5t-40.5 -60.5t-20 -51.5l-3 -22v-232h-229z" />
<glyph unicode="&#xf6f2;" horiz-adv-x="706" d="M27 860l82 146q59 -27 139.5 -49.5t130.5 -22.5q74 0 74 35q0 9 -9.5 16.5t-29 13.5t-39 10.5t-49 10.5t-50.5 12q-237 58 -237 213q0 89 72.5 146t205.5 57q166 0 336 -74l-82 -133q-149 49 -231 49q-36 0 -55 -9.5t-19 -25.5q0 -11 8.5 -18.5t27.5 -13t37.5 -9.5 t49.5 -10t53 -12q49 -12 87 -26.5t75 -39t57.5 -62.5t20.5 -87q0 -93 -75 -148t-212 -55q-95 0 -198 26.5t-170 59.5z" />
<glyph unicode="&#xf6f3;" horiz-adv-x="573" d="M27 1268v166h90v161l231 25v-186h180v-166h-180v-240q0 -25 8.5 -38.5t18 -16t24.5 -2.5t35 5.5t39 12.5t23 8l77 -166q-116 -57 -235 -57q-221 0 -221 254v240h-90z" />
<glyph unicode="&#xf8ff;" horiz-adv-x="1755" d="M146.5 560.5q-2.5 11.5 15.5 21.5l57 41q2 1 3.5 2.5l3 3l2.5 2.5t2 3l1 1q19 16 37 -12l33 -64q6 -12 13 -15.5t13.5 2t10.5 17.5l18 70q6 19 19.5 21t25.5 -13l48 -53q14 -15 23 -11.5t11 23.5l4 70q3 20 15.5 25t27.5 -7l58 -43q17 -12 25.5 -6.5t4.5 25.5l-8 69 q-3 20 8.5 28t28.5 -1l64 -29q19 -9 26.5 -1.5t1.5 26.5l-22 67q-8 19 0.5 29t27.5 4l15 -2q40 -77 70 -202.5t30 -217.5q-15 -18 -34.5 -27.5t-59.5 -9.5h-8q0 46 -33 72q18 -21 18 -55v-15q-32 3 -32 39q0 43 -28 72t-77 29q-41 0 -68.5 -32t-27.5 -79q0 -60 49.5 -96.5 t138.5 -36.5q85 0 172 42t156.5 112t125 154.5t86 175.5t30.5 169q0 59 -36.5 98t-94.5 39q-48 0 -85.5 -33.5t-37.5 -84.5q0 -106 119 -119q-29 -119 -60 -174q-12 96 -43.5 178t-75.5 129q91 -120 107 -330l-29 -41q0 156 -51 287t-131 172q-5 9 2 18.5t22 12.5l70 12 q19 3 21 13.5t-15 21.5l-59 39q-15 13 -13.5 26.5t19.5 20.5l64 29q14 4 19 10.5t0 13.5t-19 12l-64 27q-23 10 -20 29q11 6 14 16l35 62q9 19 20.5 18t16.5 -20l20 -68q6 -21 18.5 -24t26.5 14l47 53q12 15 23 12.5t12 -22.5l4 -72q1 -21 14.5 -26t28.5 8l57 43 q15 12 24 5.5t7 -26.5l-10 -70q-1 -20 10.5 -27.5t28.5 1.5l63 33q19 8 26.5 0t0.5 -29l-23 -64q-6 -20 3 -30t28 -4l70 14q20 6 26.5 -2t-4.5 -27l-37 -59q-12 -17 -5.5 -29.5t26.5 -11.5l72 4q21 0 25 -11t-9 -24l-49 -53q-14 -13 -10.5 -26.5t24.5 -16.5l70 -12 q43 -10 6 -39l-57 -39q-16 -10 -15 -24t21 -21l63 -27q12 -5 16.5 -12t0 -13.5t-16.5 -11.5l-63 -26q-20 -7 -21 -22t15 -25l57 -41q11 -7 14.5 -14.5t-2 -13.5t-18.5 -9l-70 -13q-21 -3 -24.5 -16.5t10.5 -28.5l49 -49q13 -14 9 -24.5t-25 -10.5l-72 5q-20 0 -26.5 -12 t5.5 -29l37 -62q10 -17 4 -25.5t-26 -5.5l-70 19q-18 6 -27.5 -5t-3.5 -30l23 -68q8 -19 0 -26t-27 2l-63 31q-17 9 -28.5 1t-10.5 -30l10 -68q1 -21 -7.5 -25.5t-23.5 7.5l-57 43q-15 12 -28.5 5.5t-14.5 -26.5l-4 -69q-1 -20 -12 -23t-23 11l-47 55q-13 14 -26 12t-19 -22 l-20 -68q-3 -13 -9.5 -18t-14 -1t-13.5 15l-35 61q-9 19 -22 19t-25 -19l-31 -61q-6 -11 -13.5 -15t-14 1t-9.5 18l-20 68q-6 20 -19 22t-26 -12l-47 -55q-12 -14 -22 -11t-13 23l-4 69q-2 20 -15 26.5t-30 -5.5l-54 -43q-17 -13 -26.5 -8t-5.5 26l10 68q1 22 -10.5 30 t-30.5 -1l-62 -31q-19 -9 -26.5 -2t0.5 26l22 68q8 19 -1.5 30t-28.5 5l-70 -19q-20 -3 -26.5 5.5t3.5 25.5l39 62q11 17 4.5 29t-26.5 12l-72 -5q-21 0 -25 10.5t9 24.5l51 49q13 15 9 28.5t-25 16.5l-68 13q-21 4 -23.5 15.5zM623 281q43 -27 122 -27q106 0 212.5 65 t183.5 162t125.5 212t48.5 214q0 63 -41 101q24 -38 24 -84q0 -100 -47.5 -215t-126.5 -215q-85 -105 -188.5 -168.5t-212.5 -63.5q-57 0 -100 19z" />
<glyph unicode="&#xfb06;" horiz-adv-x="1990" d="M45 119l129 235q97 -45 223 -83t207 -38q52 0 86.5 16t34.5 46q0 15 -9 28t-27.5 23.5t-38.5 19t-49.5 16.5t-53 13.5t-56.5 13.5t-53 13q-59 15 -107 32.5t-99 47t-85.5 65t-56.5 88t-22 115.5q0 146 113 237t319 91q108 0 258 -33q-13 47 -13 98q0 147 110 238.5 t300 91.5q227 0 349 -105.5t122 -295.5v-17h291v-246h-291v-460q0 -32 7 -53t21 -30.5t27 -12.5t31 -3q56 0 160 45l117 -247q-204 -91 -365 -91q-167 0 -249.5 97.5t-82.5 296.5v458h-147v246h147v37q0 121 -43.5 177.5t-146.5 56.5q-89 0 -146 -54t-57 -147q0 -79 23 -129 q47 -16 94 -37l-129 -219q-84 33 -189 58.5t-176 25.5q-55 0 -85.5 -16.5t-30.5 -45.5q0 -15 7.5 -27t24 -22t34 -17.5t46 -15t50.5 -12.5t57 -13t57 -13q61 -15 110.5 -32.5t102 -47.5t88.5 -66.5t59 -90.5t23 -118q0 -152 -118.5 -241t-330.5 -89q-151 0 -310 42.5 t-261 99.5z" />
<glyph horiz-adv-x="872" d="M51 1143q0 129 99 217t266 88q99 0 175.5 -31t122.5 -84.5t69.5 -120t23.5 -143.5q0 -222 -154 -366t-403 -144q-37 0 -72.5 3.5t-51.5 7.5l-17 3l55 183q37 -6 86 -6q62 0 116 16t102 58t73 106q-80 -53 -197 -53q-129 0 -211 73t-82 193zM287 1153q0 -45 35.5 -74.5 t97.5 -29.5q96 0 149 57q-3 80 -46 115.5t-101 35.5q-68 0 -101.5 -31.5t-33.5 -72.5z" />
<glyph horiz-adv-x="1318" d="M39 1432q0 109 65.5 170t192.5 61q126 0 193 -61t67 -170t-67 -169.5t-193 -60.5q-127 0 -192.5 60.5t-65.5 169.5zM207 1432q0 -97 90 -97q94 0 94 97q0 96 -94 96q-90 0 -90 -96zM332 774l471 875h176l-473 -875h-174zM764 1006q0 109 66 169t192 60t192 -60t66 -169 q0 -110 -66 -171t-192 -61t-192 61t-66 171zM930 1006q0 -97 92 -97t92 97q0 94 -92 94t-92 -94z" />
<glyph horiz-adv-x="2738" d="M39 829v246h147v4q0 199 91 296.5t274 97.5q222 0 467 -84q88 104 280 104q180 0 385 -61v61h336v-827l308 409h389l-363 -424l426 -651h-362l-263 416l-135 -158v-258h-336v1163q-13 2 -80 13.5t-126 19.5t-95 8q-22 0 -39 -3t-35 -12.5t-28 -30.5t-10 -52v-31h260v-246 h-260v-829h-336v829h-414v-829h-334v829h-147zM520 1075h414v68q-8 1 -59 10t-85.5 14.5t-80.5 11t-74 5.5q-115 0 -115 -99v-10z" />
<glyph horiz-adv-x="2113" d="M39 829v246h147v4q0 199 91 296.5t274 97.5q222 0 467 -84q88 104 280 104q180 0 385 -61v61h336v-1493h-336v1163q-13 2 -80 13.5t-126 19.5t-95 8q-22 0 -39 -3t-35 -12.5t-28 -30.5t-10 -52v-31h260v-246h-260v-829h-336v829h-414v-829h-334v829h-147zM520 1075h414 v68q-8 1 -59 10t-85.5 14.5t-80.5 11t-74 5.5q-115 0 -115 -99v-10z" />
<glyph horiz-adv-x="2373" d="M39 829v246h147v4q0 199 91 296.5t274 97.5q215 0 459 -82q80 102 256 102q178 0 379 -90l-113 -240q-127 41 -178 41q-18 0 -31 -3t-27 -12t-21 -30t-7 -53v-31h413v271l334 40v-311h293v-246h-293v-460q0 -42 15 -65.5t32.5 -28.5t42.5 -5q14 0 32 3.5t38 10t34 11 t33 12t21 8.5l117 -247q-204 -91 -365 -91q-169 0 -251.5 97.5t-82.5 296.5v458h-413v-829h-336v829h-412v-829h-334v829h-147zM520 1075h412v68q-13 2 -60.5 10.5t-83.5 14t-81 11t-72 5.5q-115 0 -115 -99v-10z" />
<glyph horiz-adv-x="2097" d="M39 829v246h147v25q0 199 90.5 296t274.5 97q180 0 385 -61v61h336v-537q215 142 409 142q166 0 246 -89.5t80 -252.5v-756h-338v678q0 76 -27.5 118t-97.5 42q-66 0 -141.5 -37t-130.5 -86v-715h-336v1163q-13 2 -80 13.5t-126 19.5t-95 8q-23 0 -40 -3t-36 -12.5 t-29 -30.5t-10 -52v-31h262v-246h-262v-829h-334v829h-147z" />
<glyph horiz-adv-x="2056" d="M39 829v246h147v4q0 199 91 296.5t274 97.5q215 0 469 -87q94 107 295 107q133 0 271.5 -28t240.5 -62l-111 -240q-234 41 -319 41q-127 0 -127 -98v-31h684v-1075h-336v829h-348v-829h-336v829h-414v-829h-334v829h-147zM520 1075h414v68q-8 1 -59 10t-85.5 14.5 t-80.5 11t-74 5.5q-115 0 -115 -99v-10z" />
<glyph horiz-adv-x="1318" d="M39 829v246h147v25q0 199 94.5 296t286.5 97q133 0 271.5 -28t240.5 -62l-110 -240q-234 41 -320 41q-129 0 -129 -98v-31h686v-1075h-336v829h-350v-829h-334v829h-147z" />
<glyph horiz-adv-x="1318" d="M39 829v246h147v25q0 199 94.5 296t286.5 97q133 0 271.5 -28t240.5 -62l-110 -240q-234 41 -320 41q-129 0 -129 -98v-31h686v-1024q0 -57 -0.5 -83.5t-3.5 -72t-9 -67t-17 -56.5t-28 -53t-42.5 -44.5t-59 -42.5t-78.5 -36t-101 -35.5t-126 -31.5l-110 244 q46 15 79 26.5t59 25.5t42.5 23t28.5 26t17.5 27t8.5 34t3.5 39t0.5 49v2v804h-350v-829h-334v829h-147z" />
<glyph horiz-adv-x="2009" d="M39 829v246h147v25q0 199 90.5 296t274.5 97q180 0 385 -61v61h336v-827l307 409h389l-362 -424l426 -651h-363l-262 416l-135 -158v-258h-336v1163q-13 2 -80 13.5t-126 19.5t-95 8q-23 0 -40 -3t-36 -12.5t-29 -30.5t-10 -52v-31h262v-246h-262v-829h-334v829h-147z " />
<glyph horiz-adv-x="2836" d="M39 829v246h147v4q0 199 91 296.5t274 97.5q222 0 467 -84q88 104 280 104q180 0 385 -61v61h336v-537q215 142 410 142q168 0 247 -89.5t79 -252.5v-756h-338v678q0 76 -27.5 118t-97.5 42q-66 0 -142 -37t-131 -86v-715h-336v1163q-13 2 -80 13.5t-126 19.5t-95 8 q-22 0 -39 -3t-35 -12.5t-28 -30.5t-10 -52v-31h260v-246h-260v-829h-336v829h-414v-829h-334v829h-147zM520 1075h414v68q-8 1 -59 10t-85.5 14.5t-80.5 11t-74 5.5q-115 0 -115 -99v-10z" />
<glyph horiz-adv-x="1376" d="M39 829v246h147v25q0 199 90.5 296t274.5 97q180 0 385 -61v61h336v-1493h-336v1163q-13 2 -80 13.5t-126 19.5t-95 8q-23 0 -40 -3t-36 -12.5t-29 -30.5t-10 -52v-31h262v-246h-262v-829h-334v829h-147z" />
<glyph horiz-adv-x="1638" d="M39 829v246h147v25q0 200 82 296.5t252 96.5q99 0 202 -28t177 -62l-111 -240q-127 41 -178 41q-19 0 -32 -3t-27.5 -12t-22.5 -30t-8 -53v-31h416v271l336 40v-311h291v-246h-291v-460q0 -32 7.5 -53t21.5 -30.5t26.5 -12.5t30.5 -3q48 0 160 45l116 -247 q-204 -91 -362 -91q-170 0 -253 97t-83 297v458h-416v-829h-334v829h-147z" />
<glyph horiz-adv-x="526" d="M25 172v166h92q0 125 53.5 187.5t165.5 62.5q109 0 246 -56l-76 -161q-17 6 -53.5 15t-55.5 9q-15 0 -24.5 -2.5t-18 -16t-8.5 -38.5h162v-166h-162v-479h-229v479h-92z" />
<glyph horiz-adv-x="1310" d="M111 504v672h321v-703q0 -50 9.5 -87t33 -68t68.5 -47.5t112 -16.5t112 16.5t68.5 48t32.5 68t9 86.5v703h321v-672q0 -77 -9.5 -140t-31.5 -124t-62.5 -106.5t-99 -80.5t-144.5 -53t-196 -18q-131 0 -228.5 27t-157 72t-96 114t-49.5 142t-13 167zM432 1257l256 287h373 l-354 -287h-275z" />
<glyph horiz-adv-x="841" d="M45 102l105 170q119 -86 239 -86q66 0 107 26t41 71q0 43 -37 72.5t-109 29.5q-85 0 -170 -45l-133 82l49 438h604v-194h-405l-6 -107q65 14 119 14q160 0 245.5 -83t85.5 -205q0 -126 -92 -212.5t-266 -86.5q-186 0 -377 116z" />
<glyph horiz-adv-x="841" d="M45 676l105 170q119 -86 239 -86q66 0 107 25.5t41 70.5q0 43 -37 72.5t-109 29.5q-85 0 -170 -45l-133 82l49 439h604v-195h-405l-6 -106q65 14 119 14q160 0 245.5 -83.5t85.5 -205.5q0 -126 -92 -212.5t-266 -86.5q-184 0 -377 117z" />
<glyph horiz-adv-x="1241" d="M37 -96l153 252q209 -138 379 -138q109 0 180.5 51.5t71.5 141.5q0 83 -63.5 140t-182.5 57q-128 0 -276 -78l-193 121l78 725h936v-289h-645l-14 -225q99 26 198 26q126 0 226.5 -39t163 -105.5t95 -150.5t32.5 -180q0 -98 -34.5 -185.5t-101 -157t-175.5 -110.5 t-247 -41q-284 0 -581 185z" />
<glyph horiz-adv-x="2836" d="M39 829v246h147v4q0 199 91 296.5t274 97.5q222 0 467 -84q88 104 280 104q180 0 385 -61v61h336v-528q81 63 163.5 98t189.5 35q196 0 310 -144t114 -417q0 -271 -114.5 -415.5t-309.5 -144.5q-108 0 -191 35t-162 99v-111h-336v1163q-13 2 -80 13.5t-126 19.5t-95 8 q-22 0 -39 -3t-35 -12.5t-28 -30.5t-10 -52v-31h260v-246h-260v-829h-336v829h-414v-829h-334v829h-147zM520 1075h414v68q-8 1 -59 10t-85.5 14.5t-80.5 11t-74 5.5q-115 0 -115 -99v-10zM2019 371q109 -123 248 -123q92 0 140.5 74.5t48.5 216.5q0 141 -48.5 214.5 t-140.5 73.5q-138 0 -248 -125v-331z" />
<glyph horiz-adv-x="1755" d="M61 553l82 133q113 -70 211 -70q59 0 98.5 23t39.5 63q0 36 -35.5 61t-102.5 25q-75 0 -149 -34l-107 63l45 359h508v-154h-352l-8 -98q58 14 108 14q137 0 211 -68.5t74 -167.5q0 -102 -79 -172.5t-226 -70.5q-157 0 -318 94zM465 0l588 1176h200l-585 -1176h-203z M1024 193q0 121 168 192q-119 68 -119 158q0 77 76.5 125.5t208.5 48.5t208 -49t76 -125q0 -93 -116 -158q166 -71 166 -192q0 -94 -89 -149.5t-245 -55.5q-157 0 -245.5 55t-88.5 150zM1217 209q0 -35 39.5 -57.5t101.5 -22.5q61 0 101 22.5t40 57.5q0 36 -37.5 60 t-103.5 48q-68 -24 -104.5 -48.5t-36.5 -59.5zM1257 518q0 -26 27 -43.5t74 -32.5q98 28 98 76q0 24 -26 44t-72 20t-73.5 -20.5t-27.5 -43.5z" />
<glyph horiz-adv-x="1701" d="M61 553l82 133q113 -70 211 -70q59 0 98.5 23t39.5 63q0 36 -35.5 61t-102.5 25q-75 0 -149 -34l-107 63l45 359h508v-154h-352l-8 -98q58 14 108 14q137 0 211 -68.5t74 -167.5q0 -102 -79 -172.5t-226 -70.5q-157 0 -318 94zM465 0l588 1176h200l-585 -1176h-203z M991 299q0 182 131.5 300t341.5 118q32 0 62 -3t44 -6l15 -3l-41 -144q-35 6 -78 6q-91 0 -161.5 -37.5t-102.5 -119.5q72 47 178 47q113 0 184.5 -60.5t71.5 -158.5q0 -105 -84.5 -177.5t-226.5 -72.5q-111 0 -188.5 44.5t-111.5 113t-34 153.5zM1182 266q3 -66 42.5 -96.5 t96.5 -30.5q63 0 95 27t32 63q0 40 -33.5 65t-93.5 25q-93 0 -139 -53z" />
<glyph horiz-adv-x="1550" d="M39 829v246h147v4q0 199 91 296.5t274 97.5q215 0 459 -82q82 102 258 102q99 0 202 -28t177 -62l-111 -240q-127 41 -178 41q-19 0 -32 -3t-27 -12t-21.5 -30t-7.5 -53v-31h260v-246h-260v-829h-336v829h-414v-829h-334v829h-147zM520 1075h414v68q-8 1 -59 10 t-85.5 14.5t-80.5 11t-74 5.5q-115 0 -115 -99v-10z" />
<glyph horiz-adv-x="1310" d="M111 504v672h321v-703q0 -50 9.5 -87t33 -68t68.5 -47.5t112 -16.5t112 16.5t68.5 48t32.5 68t9 86.5v703h321v-672q0 -77 -9.5 -140t-31.5 -124t-62.5 -106.5t-99 -80.5t-144.5 -53t-196 -18q-131 0 -228.5 27t-157 72t-96 114t-49.5 142t-13 167z" />
<glyph horiz-adv-x="786" d="M18 1450v199h752v-199h-256v-662h-238v662h-258z" />
<glyph horiz-adv-x="935" d="M37 150v161l399 549h316v-516h137v-194h-137v-150h-238v150h-477zM283 344h231v330z" />
<glyph horiz-adv-x="935" d="M37 723v162l399 549h316v-516h137v-195h-137v-150h-238v150h-477zM283 918h231v329z" />
<glyph horiz-adv-x="1398" d="M33 4v242l641 930h463v-883h217v-289h-217v-262h-351v262h-753zM387 293h399v594z" />
<glyph horiz-adv-x="1615" d="M39 829v246h147v25q0 200 82 296.5t252 96.5q99 0 202 -28t177 -62l-111 -240q-127 41 -178 41q-19 0 -32 -3t-27.5 -12t-22.5 -30t-8 -53v-31h236v-246h-236v-829h-334v829h-147zM840 829v246h147v25q0 199 82 296t250 97q144 0 301 -72l-76 -243q-86 26 -133 26 q-19 0 -32 -3t-27.5 -12t-22.5 -30t-8 -53v-31h262v-246h-262v-829h-334v829h-147z" />
<glyph horiz-adv-x="1863" d="M53 596v127l353 453h251v-428h119v-152h-119v-125h-188v125h-416zM254 748h215v288zM575 0l586 1176h203l-586 -1176h-203zM1165 84l84 133q36 -25 92.5 -47.5t116.5 -22.5t98.5 22t38.5 62q0 37 -35.5 62.5t-101.5 25.5q-75 0 -149 -36l-107 65l43 357h512v-152h-354 l-8 -100q58 14 108 14q139 0 212 -67.5t73 -166.5q0 -104 -78 -174.5t-227 -70.5q-154 0 -318 96z" />
<glyph horiz-adv-x="2101" d="M39 829v246h147v25q0 199 90.5 296t274.5 97q180 0 385 -61v61h336v-528q81 63 163 98t189 35q196 0 310 -144t114 -417q0 -271 -114.5 -415.5t-309.5 -144.5q-108 0 -190.5 35t-161.5 99v-111h-336v1163q-13 2 -80 13.5t-126 19.5t-95 8q-23 0 -40 -3t-36 -12.5 t-29 -30.5t-10 -52v-31h262v-246h-262v-829h-334v829h-147zM1272 371q109 -123 248 -123q92 0 140 74t48 217q0 141 -48 214.5t-140 73.5q-138 0 -248 -125v-331z" />
<glyph horiz-adv-x="815" d="M39 829v246h147v25q0 199 82 296t250 97q144 0 301 -72l-76 -243q-86 26 -133 26q-19 0 -32 -3t-27.5 -12t-22.5 -30t-8 -53v-31h262v-246h-262v-829h-334v829h-147z" />
<glyph horiz-adv-x="1316" d="M76 203v194h137v1037h1042v-295h-692v-279h547v-289h-547v-174h369v-194h-369v-203h-350v203h-137z" />
<glyph horiz-adv-x="1171" d="M70 154v174h123v848h921v-267h-600v-190h471v-264h-471v-127h322v-174h-322v-154h-321v154h-123z" />
<glyph horiz-adv-x="843" d="M47 -68h88v621h670v-199h-432v-135h342v-194h-342v-93h233v-127h-233v-112h-238v112h-88v127z" />
<glyph horiz-adv-x="843" d="M47 901v127h86v621h670v-199h-432v-135h342v-195h-342v-92h235v-127h-235v-113h-238v113h-86z" />
<glyph horiz-adv-x="526" d="M25 1268v166h92q0 125 53.5 187t165.5 62q111 0 246 -55l-76 -162q-67 25 -109 25q-15 0 -24.5 -2.5t-18 -16t-8.5 -38.5h162v-166h-162v-480h-229v480h-92z" />
<glyph horiz-adv-x="786" d="M18 354v199h752v-199h-256v-661h-238v661h-258z" />
<glyph horiz-adv-x="1247" d="M125 0v1176h321v-177h226q258 0 387 -100t129 -293q0 -192 -128.5 -291.5t-387.5 -99.5h-226v-215h-321zM446 477h162q135 0 194.5 27t59.5 102q0 76 -59 102.5t-195 26.5h-162v-258z" />
<glyph horiz-adv-x="1091" d="M27 903v273h1036v-273h-354v-903h-86q13 -15 26.5 -34.5t32 -65.5t18.5 -88q0 -97 -67.5 -146t-171.5 -49q-110 0 -187 47l66 162q51 -25 96 -25q94 0 94 72q0 34 -19.5 71t-35.5 56h-90v903h-358z" />
<glyph horiz-adv-x="1091" d="M27 903v273h1036v-273h-354v-903h-324v903h-358zM166 1544h229l150 -145l149 145h230l-222 -287h-315z" />
<glyph horiz-adv-x="1107" d="M33 903v273h1036v-273h-354v-389h159v-174h-159v-340h-324v340h-158v174h158v389h-358z" />
<glyph horiz-adv-x="907" d="M70 250q0 58 9.5 106.5t34.5 93t65 75.5t103.5 49t147.5 18q77 0 140 -15.5t104 -40t68.5 -57.5t39 -67.5t11.5 -69.5q0 -36 -12.5 -67t-24.5 -45l-13 -13q-106 -26 -106 -70q0 -16 18.5 -28t59 -31.5t71.5 -42.5q95 -70 95 -162q0 -88 -66 -146.5t-178 -58.5 q-133 0 -289 78l80 144q110 -54 176 -54q47 0 47 33q0 30 -49 45q-23 7 -39 13.5t-45.5 23.5t-48.5 36.5t-34 53t-15 72.5q0 44 16.5 80t43.5 59t47.5 35.5t43.5 21.5q2 6 2 13q0 36 -33 61t-100 25q-75 0 -108 -41.5t-33 -143.5v-540h-229v557z" />
<glyph horiz-adv-x="907" d="M70 788v558q0 58 9.5 106.5t34.5 93t65 75.5t103.5 49t147.5 18q77 0 140 -15.5t104 -40t68.5 -57.5t39 -67.5t11.5 -69.5q0 -36 -12.5 -67t-24.5 -45l-13 -13q-106 -26 -106 -70q0 -16 18 -27.5t58.5 -31t72.5 -43.5q95 -70 95 -162q0 -88 -66 -146.5t-178 -58.5 q-133 0 -289 78l80 143q41 -20 92.5 -36.5t83.5 -16.5q47 0 47 33q0 30 -49 45q-23 7 -39 13.5t-45.5 23.5t-48.5 36.5t-34 53t-15 72.5q0 44 16.5 80t43.5 59t47.5 35.5t43.5 21.5q2 8 2 12q0 36 -33 61t-100 25q-75 0 -108 -41t-33 -143v-541h-229z" />
<glyph horiz-adv-x="823" d="M41 14q0 162 71.5 250t194.5 88q116 0 219 -78v64h230v-625q0 -142 -76.5 -212t-237.5 -70q-184 0 -372 53q6 23 21 82t24 90q65 -20 147 -36.5t129 -16.5q77 0 106 22.5t29 75.5v53q-101 -76 -219 -76q-123 0 -194.5 87.5t-71.5 248.5zM272 16q0 -157 109 -157 q81 0 145 67v176q-65 68 -145 68q-109 0 -109 -154z" />
<glyph horiz-adv-x="1091" d="M27 903v273h1036v-273h-354v-903h-324v903h-358z" />
<glyph horiz-adv-x="837" d="M29 897l106 168q64 -36 160 -66t162 -30q45 0 75.5 14.5t30.5 40.5q0 19 -14.5 32.5t-44 23.5t-62 18t-81.5 22t-89 29q-41 14 -77.5 33.5t-71 49t-54.5 71.5t-20 92q0 118 88.5 193t249.5 75q102 0 208.5 -27t188.5 -67l-104 -170q-167 69 -277 69q-45 0 -74.5 -13.5 t-29.5 -41.5t31.5 -43.5t114.5 -36t137 -39.5q34 -13 61 -25.5t60.5 -34.5t56 -47t38 -62.5t15.5 -80.5q0 -119 -92 -194.5t-252 -75.5q-121 0 -238.5 36.5t-201.5 86.5z" />
<glyph horiz-adv-x="1310" d="M111 504v672h321v-703q0 -50 9.5 -87t33 -68t68.5 -47.5t112 -16.5t112 16.5t68.5 48t32.5 68t9 86.5v703h321v-672q0 -77 -9.5 -140t-31.5 -124t-62.5 -106.5t-99 -80.5t-144.5 -53t-196 -18q-131 0 -228.5 27t-157 72t-96 114t-49.5 142t-13 167zM305 1520h203 q0 -40 38.5 -62t106.5 -22q69 0 108.5 22t39.5 62h205q0 -123 -93 -193t-260 -70q-165 0 -256.5 69.5t-91.5 193.5z" />
<glyph horiz-adv-x="823" d="M41 1110q0 162 71.5 250t194.5 88q116 0 219 -78v64h230v-625q0 -142 -76.5 -212.5t-237.5 -70.5q-181 0 -372 54q6 23 21 82t24 90q66 -21 147.5 -37.5t128.5 -16.5q77 0 106 23t29 76v53q-101 -76 -219 -76q-123 0 -194.5 87.5t-71.5 248.5zM272 1112q0 -158 109 -158 q80 0 145 68v176q-65 68 -145 68q-109 0 -109 -154z" />
<glyph horiz-adv-x="837" d="M29 -199l106 168q64 -36 160 -66t162 -30q45 0 75.5 14.5t30.5 40.5q0 19 -14.5 32.5t-44 23.5t-62 18t-81.5 22t-89 29q-41 14 -77.5 33.5t-71 49t-54.5 71.5t-20 92q0 118 88.5 193t249.5 75q102 0 208.5 -27t188.5 -67l-104 -170q-169 70 -277 70q-45 0 -74.5 -14 t-29.5 -42q0 -18 13.5 -30.5t41.5 -22t59 -17t79.5 -20.5t89.5 -28q34 -13 61 -25.5t60.5 -34.5t56 -47t38 -62.5t15.5 -80.5q0 -119 -92 -195t-252 -76q-121 0 -238.5 36.5t-201.5 86.5z" />
<glyph horiz-adv-x="1173" d="M51 150l142 227q93 -50 223.5 -90.5t224.5 -40.5q61 0 104 20t43 60q0 24 -21 42t-63 32.5t-87.5 26.5t-112 31t-119.5 38q-61 23 -108 47.5t-96 64.5t-76 98t-27 130q0 157 123.5 257.5t345.5 100.5q138 0 284 -37t261 -92l-146 -231q-91 38 -198 66t-189 28 q-61 0 -101 -18.5t-40 -57.5q0 -25 20 -42.5t59.5 -30.5t83 -23.5t108 -28t116.5 -37.5q50 -18 88 -35.5t85 -48t77.5 -65t51.5 -85.5t21 -110q0 -159 -128 -261.5t-353 -102.5q-160 0 -323.5 50.5t-272.5 117.5zM477 -543l115 168h-109v262h246l14 -290l-202 -220z" />
<glyph horiz-adv-x="380" d="M51 1649h279l-70 -570h-137zM78 788v216h229v-216h-229z" />
<glyph horiz-adv-x="380" d="M51 553h279l-70 -569h-137zM78 -92h229v-215h-229v215z" />
<glyph horiz-adv-x="1173" d="M51 150l142 227q93 -50 223.5 -90.5t224.5 -40.5q61 0 104 20t43 60q0 24 -21 42t-63 32.5t-87.5 26.5t-112 31t-119.5 38q-61 23 -108 47.5t-96 64.5t-76 98t-27 130q0 157 123.5 257.5t345.5 100.5q138 0 284 -37t261 -92l-146 -231q-91 38 -198 66t-189 28 q-61 0 -101 -18.5t-40 -57.5q0 -25 20 -42.5t59.5 -30.5t83 -23.5t108 -28t116.5 -37.5q50 -18 88 -35.5t85 -48t77.5 -65t51.5 -85.5t21 -110q0 -159 -128 -261.5t-353 -102.5q-160 0 -323.5 50.5t-272.5 117.5zM211 1257l221 287h316l221 -287h-230l-149 144l-150 -144 h-229z" />
<glyph horiz-adv-x="1173" d="M51 150l142 227q93 -50 223.5 -90.5t224.5 -40.5q61 0 104 20t43 60q0 24 -21 42t-63 32.5t-87.5 26.5t-112 31t-119.5 38q-61 23 -108 47.5t-96 64.5t-76 98t-27 130q0 157 123.5 257.5t345.5 100.5q138 0 284 -37t261 -92l-146 -231q-91 38 -198 66t-189 28 q-61 0 -101 -18.5t-40 -57.5q0 -25 20 -42.5t59.5 -30.5t83 -23.5t108 -28t116.5 -37.5q50 -18 88 -35.5t85 -48t77.5 -65t51.5 -85.5t21 -110q0 -143 -104.5 -241.5t-292.5 -116.5q66 -89 66 -176q0 -97 -68 -146t-172 -49q-109 0 -186 47l65 162q51 -25 96 -25q95 0 95 72 q0 51 -43 111q-148 10 -292.5 58t-240.5 108z" />
<glyph horiz-adv-x="823" d="M70 -307v895h229v-320q123 84 254 84q207 0 207 -209v-450h-230v397q0 42 -16 64t-57 22q-39 0 -83.5 -19t-74.5 -46v-418h-229z" />
<glyph horiz-adv-x="1173" d="M51 150l142 227q93 -50 223.5 -90.5t224.5 -40.5q61 0 104 20t43 60q0 24 -21 42t-63 32.5t-87.5 26.5t-112 31t-119.5 38q-61 23 -108 47.5t-96 64.5t-76 98t-27 130q0 157 123.5 257.5t345.5 100.5q138 0 284 -37t261 -92l-146 -231q-91 38 -198 66t-189 28 q-61 0 -101 -18.5t-40 -57.5q0 -25 20 -42.5t59.5 -30.5t83 -23.5t108 -28t116.5 -37.5q50 -18 88 -35.5t85 -48t77.5 -65t51.5 -85.5t21 -110q0 -159 -128 -261.5t-353 -102.5q-160 0 -323.5 50.5t-272.5 117.5zM209 1544h229l150 -145l149 145h230l-222 -287h-315z" />
<glyph horiz-adv-x="380" d="M53 788l70 570h137l72 -570h-279zM76 1434v215h229v-215h-229z" />
<glyph horiz-adv-x="1173" d="M51 150l142 227q93 -50 223.5 -90.5t224.5 -40.5q61 0 104 20t43 60q0 24 -21 42t-63 32.5t-87.5 26.5t-112 31t-119.5 38q-61 23 -108 47.5t-96 64.5t-76 98t-27 130q0 157 123.5 257.5t345.5 100.5q138 0 284 -37t261 -92l-146 -231q-91 38 -198 66t-189 28 q-61 0 -101 -18.5t-40 -57.5q0 -25 20 -42.5t59.5 -30.5t83 -23.5t108 -28t116.5 -37.5q50 -18 88 -35.5t85 -48t77.5 -65t51.5 -85.5t21 -110q0 -159 -128 -261.5t-353 -102.5q-160 0 -323.5 50.5t-272.5 117.5zM367 1257l256 287h372l-354 -287h-274z" />
<glyph horiz-adv-x="1173" d="M51 150l142 227q93 -50 223.5 -90.5t224.5 -40.5q61 0 104 20t43 60q0 24 -21 42t-63 32.5t-87.5 26.5t-112 31t-119.5 38q-61 23 -108 47.5t-96 64.5t-76 98t-27 130q0 157 123.5 257.5t345.5 100.5q138 0 284 -37t261 -92l-146 -231q-91 38 -198 66t-189 28 q-61 0 -101 -18.5t-40 -57.5q0 -25 20 -42.5t59.5 -30.5t83 -23.5t108 -28t116.5 -37.5q50 -18 88 -35.5t85 -48t77.5 -65t51.5 -85.5t21 -110q0 -159 -128 -261.5t-353 -102.5q-160 0 -323.5 50.5t-272.5 117.5z" />
<glyph horiz-adv-x="925" d="M84 788v861h426q191 0 283 -68t92 -207q0 -209 -213 -258l215 -328h-256l-193 314h-119v-314h-235zM319 1284h175q74 0 113.5 19t39.5 71q0 53 -39 72.5t-112 19.5h-177v-182z" />
<glyph horiz-adv-x="925" d="M84 -307v860h426q191 0 283 -67.5t92 -206.5q0 -210 -213 -259l215 -327h-256l-193 313h-119v-313h-235zM319 188h175q74 0 113.5 19.5t39.5 71.5q0 53 -39 72.5t-112 19.5h-177v-183z" />
<glyph horiz-adv-x="1300" d="M125 0v1176h584q263 0 390.5 -93.5t127.5 -281.5q0 -285 -295 -352l297 -449h-348l-267 428h-168v-428h-321zM446 676h242q103 0 158 27t55 98t-55.5 99t-157.5 28h-242v-252zM510 -543l115 168h-109v262h246l14 -290l-203 -220z" />
<glyph horiz-adv-x="1300" d="M125 0v1176h584q263 0 390.5 -93.5t127.5 -281.5q0 -285 -295 -352l297 -449h-348l-267 428h-168v-428h-321zM297 1544h229l150 -145l149 145h230l-221 -287h-316zM446 676h242q103 0 158 27t55 98t-55.5 99t-157.5 28h-242v-252z" />
<glyph horiz-adv-x="1300" d="M125 0v1176h584q263 0 390.5 -93.5t127.5 -281.5q0 -285 -295 -352l297 -449h-348l-267 428h-168v-428h-321zM446 676h242q103 0 158 27t55 98t-55.5 99t-157.5 28h-242v-252zM451 1257l256 287h372l-354 -287h-274z" />
<glyph horiz-adv-x="368" d="M66 408v178h239v-178h-239zM70 -307v645h229v-645h-229z" />
<glyph horiz-adv-x="1300" d="M125 0v1176h584q263 0 390.5 -93.5t127.5 -281.5q0 -285 -295 -352l297 -449h-348l-267 428h-168v-428h-321zM446 676h242q103 0 158 27t55 98t-55.5 99t-157.5 28h-242v-252z" />
<glyph horiz-adv-x="1001" d="M47 1219q0 96 26 174.5t79.5 140t142.5 95.5t207 34q117 0 205.5 -34t141.5 -95.5t79 -140t26 -174.5q0 -134 -51 -236t-155 -156l135 -100l-156 -160l-225 207q-118 0 -207 34t-142.5 95.5t-79.5 140.5t-26 175zM291 1219q0 -244 211 -244q109 0 159 65.5t50 178.5 t-50 178t-159 65q-211 0 -211 -243z" />
<glyph horiz-adv-x="380" d="M53 -307l70 569h137l72 -569h-279zM76 338v215h229v-215h-229z" />
<glyph horiz-adv-x="559" d="M90 0l96 776h185l96 -776h-377zM123 879v297h313v-297h-313z" />
<glyph horiz-adv-x="1001" d="M47 123q0 96 26 174.5t79.5 140t142.5 95.5t207 34q117 0 205.5 -34t141.5 -95.5t79 -140t26 -174.5q0 -134 -51 -235.5t-155 -155.5l135 -101l-156 -159l-225 206q-118 0 -207 34t-142.5 95.5t-79.5 140.5t-26 175zM291 123q0 -244 211 -244q109 0 159 65.5t50 178.5 t-50 178.5t-159 65.5q-211 0 -211 -244z" />
<glyph horiz-adv-x="1310" d="M111 504v672h321v-703q0 -50 9.5 -87t33 -68t68.5 -47.5t112 -16.5t112 16.5t68.5 48t32.5 68t9 86.5v703h321v-672q0 -77 -9.5 -140t-31.5 -124t-62.5 -106.5t-99 -80.5t-144.5 -53t-196 -18q-131 0 -228.5 27t-157 72t-96 114t-49.5 142t-13 167zM276 1257l222 287h315 l221 -287h-229l-150 144l-149 -144h-230z" />
<glyph horiz-adv-x="1390" d="M70 588q0 104 22 193t70 166t120 131.5t177 85t235 30.5t235 -30.5t177 -85t120.5 -131.5t70.5 -166t22 -193q0 -182 -71.5 -322.5t-217.5 -214.5l187 -137l-213 -217l-310 285q-130 0 -235 30.5t-177 85t-120 131.5t-70 166t-22 193zM401 588q0 -156 70.5 -245 t222.5 -89q293 0 293 334q0 332 -293 332q-153 0 -223 -88.5t-70 -243.5z" />
<glyph horiz-adv-x="878" d="M84 788v861h399q189 0 282 -74t93 -215q0 -287 -375 -287h-161v-285h-238zM322 1266h145q73 0 112 20t39 74t-39 74t-112 20h-145v-188z" />
<glyph horiz-adv-x="878" d="M84 -307v860h399q189 0 282 -74t93 -215q0 -287 -375 -287h-161v-284h-238zM322 170h145q73 0 112 20t39 74t-39 74t-112 20h-145v-188z" />
<glyph horiz-adv-x="376" d="M-72 -432q47 15 74.5 26.5t44.5 21t23.5 26.5t8 30t1.5 45v621h227v-600q0 -36 -0.5 -53t-2 -46.5t-5.5 -43t-11.5 -36t-18.5 -34t-27.5 -28.5t-39 -27t-51.5 -22.5t-66 -22.5t-83 -19zM72 408v178h241v-178h-241z" />
<glyph horiz-adv-x="559" d="M90 1176h377l-96 -777h-185zM121 0v297h313v-297h-313z" />
<glyph horiz-adv-x="1226" d="M125 0v1176h547q258 0 387 -101.5t129 -294.5q0 -191 -129 -291t-387 -100h-226v-389h-321zM446 651h205q101 0 156 28t55 101q0 74 -54.5 101.5t-156.5 27.5h-205v-258z" />
<glyph horiz-adv-x="1388" d="M70 588q0 104 22 193t70 166t120 131.5t177 85t235 30.5t235 -30.5t177 -85t120.5 -131.5t70.5 -166t22 -193t-22 -193t-70.5 -166t-120.5 -131.5t-177 -85t-235 -30.5t-235 30.5t-177 85t-120 131.5t-70 166t-22 193zM299 1337q17 34 25 49t25 45t28.5 44t31 35 t37.5 30.5t42 17t51 7.5q49 0 108.5 -24.5t109.5 -49.5t77 -25q24 0 48.5 19t57.5 76l145 -72q-22 -45 -34 -67.5t-36.5 -59t-46 -54t-53.5 -32t-69 -14.5q-48 0 -107 24.5t-109 49t-77 24.5q-25 0 -50 -18.5t-57 -75.5zM401 588q0 -156 70.5 -245t222.5 -89q293 0 293 334 q0 332 -293 332q-153 0 -223 -88.5t-70 -243.5z" />
<glyph horiz-adv-x="1001" d="M49 1219q0 96 26 174.5t78.5 140t141.5 95.5t207 34t206.5 -34t141.5 -95.5t78.5 -140t25.5 -174.5t-25.5 -174.5t-78.5 -140.5t-141.5 -96t-206.5 -34t-207 34t-141.5 96t-78.5 140.5t-26 174.5zM291 1219q0 -113 50.5 -178.5t160.5 -65.5t160.5 65.5t50.5 178.5 t-50.5 178t-160.5 65t-160.5 -65t-50.5 -178z" />
<glyph horiz-adv-x="774" d="M72 -309v895h227v-480l180 230h264l-227 -254l266 -391h-245l-158 239l-80 -88v-151h-227z" />
<glyph horiz-adv-x="774" d="M72 788v895h227v-479l180 230h264l-227 -254l266 -392h-245l-158 240l-80 -90v-150h-227z" />
<glyph horiz-adv-x="1388" d="M70 588q0 104 22 193t70 166t120 131.5t177 85t235 30.5q196 0 340 -72l45 54h219l-129 -154q150 -163 150 -434q0 -104 -22 -193t-70.5 -166t-120.5 -131.5t-177 -85t-235 -30.5q-204 0 -340 71l-43 -53h-217l127 152q-151 158 -151 436zM401 588q0 -109 33 -182 l406 485q-63 29 -146 29q-153 0 -223 -88.5t-70 -243.5zM471 1257l256 287h373l-355 -287h-274zM549 283q63 -29 145 -29q293 0 293 334q0 101 -31 180z" />
<glyph horiz-adv-x="1310" d="M111 504v672h321v-703q0 -50 9.5 -87t33 -68t68.5 -47.5t112 -16.5t112 16.5t68.5 48t32.5 68t9 86.5v703h321v-672q0 -77 -9.5 -140t-31.5 -124t-62.5 -106.5t-99 -80.5t-144.5 -53t-196 -18q-131 0 -228.5 27t-157 72t-96 114t-49.5 142t-13 167zM338 1278v250h260 v-250h-260zM717 1278v250h260v-250h-260z" />
<glyph horiz-adv-x="1388" d="M70 588q0 104 22 193t70 166t120 131.5t177 85t235 30.5t235 -30.5t177 -85t120.5 -131.5t70.5 -166t22 -193t-22 -193t-70.5 -166t-120.5 -131.5t-177 -85t-235 -30.5t-235 30.5t-177 85t-120 131.5t-70 166t-22 193zM375 1309v192h639v-192h-639zM401 588 q0 -156 70.5 -245t222.5 -89q293 0 293 334q0 332 -293 332q-153 0 -223 -88.5t-70 -243.5z" />
<glyph horiz-adv-x="1001" d="M49 123q0 96 26 174.5t78.5 140t141.5 95.5t207 34t206.5 -34t141.5 -95.5t78.5 -140t25.5 -174.5t-25.5 -174.5t-78.5 -140.5t-141.5 -96t-206.5 -34t-207 34t-141.5 96t-78.5 140.5t-26 174.5zM291 123q0 -113 50.5 -178.5t160.5 -65.5t160.5 65.5t50.5 178.5 t-50.5 178.5t-160.5 65.5t-160.5 -65.5t-50.5 -178.5z" />
<glyph horiz-adv-x="1388" d="M70 588q0 104 22 193t70 166t120 131.5t177 85t235 30.5t235 -30.5t177 -85t120.5 -131.5t70.5 -166t22 -193t-22 -193t-70.5 -166t-120.5 -131.5t-177 -85t-235 -30.5t-235 30.5t-177 85t-120 131.5t-70 166t-22 193zM371 1257l168 287h297l-265 -287h-200zM401 588 q0 -156 70.5 -245t222.5 -89q293 0 293 334q0 332 -293 332q-153 0 -223 -88.5t-70 -243.5zM750 1257l165 287h297l-266 -287h-196z" />
<glyph horiz-adv-x="1388" d="M70 588q0 104 22 193t70 166t120 131.5t177 85t235 30.5t235 -30.5t177 -85t120.5 -131.5t70.5 -166t22 -193t-22 -193t-70.5 -166t-120.5 -131.5t-177 -85t-235 -30.5t-235 30.5t-177 85t-120 131.5t-70 166t-22 193zM291 1544h371l258 -287h-275zM401 588 q0 -156 70.5 -245t222.5 -89q293 0 293 334q0 332 -293 332q-153 0 -223 -88.5t-70 -243.5z" />
<glyph horiz-adv-x="1310" d="M111 504v672h321v-703q0 -50 9.5 -87t33 -68t68.5 -47.5t112 -16.5t112 16.5t68.5 48t32.5 68t9 86.5v703h321v-672q0 -77 -9.5 -140t-31.5 -124t-62.5 -106.5t-99 -80.5t-144.5 -53t-196 -18q-131 0 -228.5 27t-157 72t-96 114t-49.5 142t-13 167zM250 1544h371 l258 -287h-275z" />
<glyph horiz-adv-x="368" d="M72 -307v895h227v-895h-227z" />
<glyph horiz-adv-x="1310" d="M111 504v672h321v-703q0 -50 9.5 -87t33 -68t68.5 -47.5t112 -16.5t112 16.5t68.5 48t32.5 68t9 86.5v703h321v-672q0 -77 -9.5 -140t-31.5 -124t-62.5 -106.5t-99 -80.5t-144.5 -53t-196 -18q-131 0 -228.5 27t-157 72t-96 114t-49.5 142t-13 167zM332 1257l168 287h297 l-265 -287h-200zM711 1257l166 287h297l-267 -287h-196z" />
<glyph horiz-adv-x="1073" d="M90 0v213q6 1 16.5 4.5t39 15.5t52.5 27.5t50 43.5t39 61h-176v135h180q-8 28 -25 61h-155v135h73q-57 95 -57 199q0 140 102.5 219.5t286.5 79.5q77 0 150.5 -14.5t140 -42.5t106 -48.5t93.5 -52.5l-140 -202q-174 94 -284 94q-64 0 -97.5 -22.5t-33.5 -61.5 q0 -24 11 -51.5t22 -45t34 -51.5h350v-135h-280q12 -40 14 -61h266v-135h-288q-33 -71 -91 -101h496v-264h-895z" />
<glyph horiz-adv-x="770" d="M61 -152q5 1 12.5 3.5t29 12t39.5 21t37 32.5t28 46h-133v92h135q-3 14 -21 49h-114v95h59q-43 71 -43 149q0 102 75 160.5t206 58.5q75 0 149.5 -21.5t113 -41.5t93.5 -53l-102 -148q-129 70 -207 70q-90 0 -90 -64q0 -17 8.5 -37.5t16.5 -33.5t26 -39h250v-95h-203 q6 -16 10 -49h193v-92h-207q-23 -54 -66 -76h357v-194h-652v155z" />
<glyph horiz-adv-x="770" d="M61 788v156q5 1 12.5 3.5t29 12t39.5 21t37 32.5t28 46h-133v92h135q-3 14 -21 49h-114v94h59q-43 71 -43 150q0 102 75 160.5t206 58.5q75 0 150 -22t112.5 -41.5t93.5 -53.5l-102 -147q-127 69 -207 69q-90 0 -90 -63q0 -17 8 -37.5t17 -34.5t26 -39h250v-94h-203 q6 -16 10 -49h193v-92h-207q-23 -54 -66 -76h357v-195h-652z" />
<glyph horiz-adv-x="1388" d="M70 588q0 104 22 193t70 166t120 131.5t177 85t235 30.5t235 -30.5t177 -85t120.5 -131.5t70.5 -166t22 -193t-22 -193t-70.5 -166t-120.5 -131.5t-177 -85t-235 -30.5t-235 30.5t-177 85t-120 131.5t-70 166t-22 193zM375 1278v250h260v-250h-260zM401 588 q0 -156 70.5 -245t222.5 -89q293 0 293 334q0 332 -293 332q-153 0 -223 -88.5t-70 -243.5zM754 1278v250h260v-250h-260z" />
<glyph horiz-adv-x="1388" d="M70 588q0 104 22 193t70 166t120 131.5t177 85t235 30.5t235 -30.5t177 -85t120.5 -131.5t70.5 -166t22 -193t-22 -193t-70.5 -166t-120.5 -131.5t-177 -85t-235 -30.5t-235 30.5t-177 85t-120 131.5t-70 166t-22 193zM315 1257l222 287h315l221 -287h-229l-150 144 l-149 -144h-230zM401 588q0 -156 70.5 -245t222.5 -89q293 0 293 334q0 332 -293 332q-153 0 -223 -88.5t-70 -243.5z" />
<glyph horiz-adv-x="942" d="M76 61v492h237v-514q0 -77 34 -118.5t126 -41.5q91 0 124.5 41.5t33.5 118.5v514h237v-492q0 -68 -9.5 -121.5t-36 -104t-69.5 -84t-114 -53.5t-166 -20q-96 0 -167 20t-114.5 53.5t-70 84t-36 104t-9.5 121.5z" />
<glyph horiz-adv-x="1388" d="M70 588q0 104 22 193t70 166t120 131.5t177 85t235 30.5t235 -30.5t177 -85t120.5 -131.5t70.5 -166t22 -193t-22 -193t-70.5 -166t-120.5 -131.5t-177 -85t-235 -30.5t-235 30.5t-177 85t-120 131.5t-70 166t-22 193zM344 1520h203q0 -40 38.5 -62t106.5 -22 q69 0 108.5 22t39.5 62h204q0 -123 -92.5 -193t-259.5 -70q-165 0 -256.5 69.5t-91.5 193.5zM401 588q0 -156 70.5 -245t222.5 -89q293 0 293 334q0 332 -293 332q-153 0 -223 -88.5t-70 -243.5z" />
<glyph horiz-adv-x="1310" d="M111 504v672h321v-703q0 -50 9.5 -87t33 -68t68.5 -47.5t112 -16.5t112 16.5t68.5 48t32.5 68t9 86.5v703h321v-672q0 -77 -9.5 -140t-31.5 -124t-62.5 -106.5t-99 -80.5t-144.5 -53t-196 -18q-131 0 -228.5 27t-157 72t-96 114t-49.5 142t-13 167zM336 1309v192h639 v-192h-639z" />
<glyph horiz-adv-x="1388" d="M70 588q0 104 22 193t70 166t120 131.5t177 85t235 30.5t235 -30.5t177 -85t120.5 -131.5t70.5 -166t22 -193t-22 -193t-70.5 -166t-120.5 -131.5t-177 -85t-235 -30.5t-235 30.5t-177 85t-120 131.5t-70 166t-22 193zM401 588q0 -156 70.5 -245t222.5 -89q293 0 293 334 q0 332 -293 332q-153 0 -223 -88.5t-70 -243.5zM471 1257l256 287h373l-355 -287h-274z" />
<glyph horiz-adv-x="2000" d="M70 588q0 104 22 193t70 166t120 131.5t177 85t235 30.5q168 0 295 -51v33h922v-267h-600v-188h489v-264h-489v-193h608v-264h-930v33q-127 -51 -295 -51q-130 0 -235 30.5t-177 85t-120 131.5t-70 166t-22 193zM401 588q0 -156 70.5 -245t222.5 -89q293 0 293 334 q0 332 -293 332q-153 0 -223 -88.5t-70 -243.5z" />
<glyph horiz-adv-x="1218" d="M70 -307v645h229v-74q105 88 223 88q144 0 189 -104q39 39 104.5 71.5t134.5 32.5q205 0 205 -209v-450h-227v397q0 43 -13.5 64.5t-54.5 21.5q-33 0 -69.5 -19t-63.5 -46v-418h-229v397q0 43 -13 64.5t-53 21.5q-70 0 -133 -63v-420h-229z" />
<glyph horiz-adv-x="1314" d="M111 504v672h321v-703q0 -50 9.5 -87t33 -68t68.5 -47.5t112 -16.5t112 16.5t68.5 48t32.5 68t9 86.5v703h321v-672q0 -77 -9 -140t-32 -124t-61.5 -106.5t-100 -80.5t-143.5 -53q-190 -105 -190 -190q0 -20 9 -33.5t20 -20.5t32 -10.5t31.5 -4t34 0t24.5 0.5l-29 -148 q-110 0 -160 9q-175 33 -175 174q0 115 165 205q-121 4 -211 33t-145 74.5t-88.5 113t-46 139t-12.5 162.5z" />
<glyph horiz-adv-x="759" d="M39 12q0 159 92 249.5t260 90.5q162 0 247 -79.5t85 -209.5q0 -24 -2.5 -47.5t-4.5 -35.5l-3 -11h-441q8 -64 38.5 -94.5t88.5 -30.5q93 0 248 74l80 -139q-176 -101 -352 -101q-149 0 -242.5 84t-93.5 250zM274 84h228q-3 109 -113 109q-97 0 -115 -109z" />
<glyph horiz-adv-x="1388" d="M70 588q0 104 22 193t70 166t120 131.5t177 85t235 30.5t235 -30.5t177 -85t120.5 -131.5t70.5 -166t22 -193t-22 -193t-70.5 -166t-120.5 -131.5t-177 -85t-235 -30.5t-235 30.5t-177 85t-120 131.5t-70 166t-22 193zM401 588q0 -156 70.5 -245t222.5 -89q293 0 293 334 q0 332 -293 332q-153 0 -223 -88.5t-70 -243.5z" />
<glyph horiz-adv-x="1361" d="M125 0v1176h328l460 -725v725h322v-1176h-328l-461 725v-725h-321zM295 1337q17 34 25 49t25 45t28.5 44t31 35t37.5 30.5t42 17t51 7.5q49 0 108 -24.5t109 -49.5t77 -25q24 0 49 19t58 76l145 -72q-22 -45 -34 -67.5t-36.5 -59t-46 -54t-53.5 -32t-69 -14.5 q-48 0 -107 24.5t-109 49t-77 24.5q-25 0 -50 -18.5t-57 -75.5z" />
<glyph horiz-adv-x="974" d="M84 788v861h240l331 -521v521h240v-861h-244l-329 519v-519h-238z" />
<glyph horiz-adv-x="974" d="M84 -307v860h240l331 -520v520h240v-860h-244l-329 518v-518h-238z" />
<glyph horiz-adv-x="1361" d="M125 0v1176h328l460 -725v725h322v-1176h-328l-461 725v-725h-321zM551 -543l115 168h-109v262h246l14 -290l-203 -220z" />
<glyph horiz-adv-x="1361" d="M125 0v1176h328l460 -725v725h322v-1176h-328l-461 725v-725h-321zM309 1544h230l149 -145l150 145h229l-221 -287h-316z" />
<glyph horiz-adv-x="1361" d="M125 0v1176h328l460 -725v725h322v-1176h-328l-461 725v-725h-321zM457 1257l256 287h372l-354 -287h-274z" />
<glyph horiz-adv-x="1361" d="M125 0v1176h328l460 -725v725h322v-1176h-328l-461 725v-725h-321z" />
<glyph horiz-adv-x="872" d="M51 569q0 129 99 217t266 88q99 0 175.5 -30.5t122.5 -84t69.5 -120t23.5 -143.5q0 -222 -154 -366t-403 -144q-37 0 -72.5 3.5t-51.5 6.5l-17 4l55 182q37 -6 86 -6q62 0 116 16t102 58t73 106q-80 -53 -197 -53q-129 0 -211 73t-82 193zM287 580q0 -46 36 -75.5 t97 -29.5q96 0 149 57q-3 80 -46 116t-101 36q-68 0 -101.5 -31.5t-33.5 -72.5z" />
<glyph horiz-adv-x="1349" d="M66 389q0 60 17 113t45 93.5t69.5 76t84.5 61t95 49.5q-219 128 -219 320q0 159 136 256.5t380 97.5t382 -97.5t138 -256.5q0 -192 -221 -320q52 -24 95 -49.5t84.5 -61t69.5 -76t45 -93.5t17 -113q0 -192 -161.5 -302t-448.5 -110t-447.5 110t-160.5 302zM420 416 q0 -77 71 -126.5t183 -49.5q113 0 184.5 49.5t71.5 126.5t-67 130.5t-189 104.5q-122 -51 -188 -104.5t-66 -130.5zM498 1069q0 -60 48 -101t128 -75q81 33 129.5 74.5t48.5 101.5q0 51 -48 92t-130 41q-81 0 -128.5 -41t-47.5 -92z" />
<glyph horiz-adv-x="1296" d="M51 692q0 101 39.5 192t111.5 160t180.5 109.5t238.5 40.5q154 0 274 -51.5t192 -139t108.5 -195t37.5 -228.5q0 -195 -65.5 -357.5t-181 -273.5t-275.5 -172.5t-346 -61.5q-58 0 -113.5 6t-81.5 11l-27 6l82 272q59 -12 135 -12q75 0 144 18t135 56.5t119.5 109 t83.5 166.5q-135 -104 -326 -104q-205 0 -335 124.5t-130 323.5zM401 705q0 -87 60.5 -144t165.5 -57q85 0 150 35t102 82q-1 73 -22 130t-56.5 91t-79 51.5t-92.5 17.5q-113 0 -170.5 -61.5t-57.5 -144.5z" />
<glyph horiz-adv-x="894" d="M55 809q0 85 52 140.5t139 94.5q-131 78 -131 189q0 96 87.5 155.5t246.5 59.5q157 0 245 -59.5t88 -155.5q0 -111 -133 -189q87 -39 139 -94.5t52 -140.5q0 -115 -103.5 -182.5t-287.5 -67.5q-187 0 -290.5 67.5t-103.5 182.5zM295 829q0 -40 43.5 -67t110.5 -27 q66 0 107.5 27t41.5 67q0 39 -39 67.5t-113 57.5q-73 -29 -112 -57.5t-39 -67.5zM344 1210q0 -56 102 -94q105 40 105 94q0 25 -27.5 46.5t-74.5 21.5q-48 0 -76.5 -21.5t-28.5 -46.5z" />
<glyph horiz-adv-x="894" d="M55 236q0 85 52 140.5t139 94.5q-131 78 -131 188q0 96 87.5 155.5t246.5 59.5q157 0 245 -59.5t88 -155.5q0 -110 -133 -188q87 -39 139 -94.5t52 -140.5q0 -115 -103.5 -182.5t-287.5 -67.5q-187 0 -290.5 67.5t-103.5 182.5zM295 256q0 -40 43.5 -67t110.5 -27 q66 0 107.5 27t41.5 67q0 39 -39 67.5t-113 57.5q-73 -29 -112 -57.5t-39 -67.5zM344 637q0 -56 102 -94q105 40 105 94q0 25 -27.5 46.5t-74.5 21.5q-48 0 -76.5 -21.5t-28.5 -46.5z" />
<glyph horiz-adv-x="1310" d="M111 504v672h321v-703q0 -50 9.5 -87t33 -68t68.5 -47.5t112 -16.5t112 16.5t68.5 48t32.5 68t9 86.5v703h321v-672q0 -77 -9.5 -140t-31.5 -124t-62.5 -106.5t-99 -80.5t-144.5 -53t-196 -18q-131 0 -228.5 27t-157 72t-96 114t-49.5 142t-13 167zM420 1470q0 98 68 167 t165 69q98 0 167 -69t69 -167q0 -97 -69 -165t-167 -68q-97 0 -165 68t-68 165zM575 1470q0 -32 23 -54.5t55 -22.5q34 0 57 22.5t23 54.5q0 34 -23 57t-57 23q-32 0 -55 -23t-23 -57z" />
<glyph horiz-adv-x="823" d="M70 -307v645h229v-70q123 84 254 84q207 0 207 -209v-450h-230v397q0 42 -16 64t-57 22q-39 0 -83.5 -19t-74.5 -46v-418h-229z" />
<glyph horiz-adv-x="942" d="M76 1157v492h237v-514q0 -77 34 -118.5t126 -41.5q91 0 124.5 41.5t33.5 118.5v514h237v-492q0 -68 -9.5 -121.5t-36 -104t-69.5 -84t-114 -53.5t-166 -20q-96 0 -167 20t-114.5 53.5t-70 84t-36 104t-9.5 121.5z" />
<glyph horiz-adv-x="1310" d="M111 504v672h321v-703q0 -50 9.5 -87t33 -68t68.5 -47.5t112 -16.5t112 16.5t68.5 48t32.5 68t9 86.5v703h321v-672q0 -77 -9.5 -140t-31.5 -124t-62.5 -106.5t-99 -80.5t-144.5 -53t-196 -18q-131 0 -228.5 27t-157 72t-96 114t-49.5 142t-13 167zM260 1337q17 34 25 49 t25 45t28.5 44t31 35t37.5 30.5t42 17t51 7.5q49 0 108.5 -24.5t109.5 -49.5t77 -25q24 0 48.5 19t57.5 76l146 -72q-18 -37 -28.5 -56.5t-29.5 -51t-35.5 -48.5t-39.5 -36t-49.5 -27t-57.5 -8q-48 0 -107 24.5t-109 49t-77 24.5q-25 0 -49.5 -18.5t-56.5 -75.5z" />
<glyph horiz-adv-x="1118" d="M84 788v861h242l233 -469l236 469h241v-861h-237v498l-174 -354h-127l-176 356v-500h-238z" />
<glyph horiz-adv-x="1118" d="M84 -307v860h242l233 -469l236 469h241v-860h-237v497l-174 -354h-127l-176 357v-500h-238z" />
<glyph horiz-adv-x="1327" d="M70 242v229h225l37 231h-189v232h228l39 242h237l-39 -242h226l38 242h236l-39 -242h191v-232h-230l-37 -231h191v-229h-228l-38 -242h-236l39 242h-225l-39 -242h-238l39 242h-188zM532 471h226l37 231h-226z" />
<glyph horiz-adv-x="948" d="M43 37h162l28 170h-137v170h164l29 176h174l-29 -176h160l29 176h174l-29 -176h137v-170h-164l-28 -170h139v-168h-166l-29 -176h-172l27 176h-160l-26 -176h-174l26 176h-135v168zM379 37h160l28 170h-159z" />
<glyph horiz-adv-x="948" d="M43 965v168h162l28 170h-137v170h164l29 176h174l-29 -176h160l29 176h174l-29 -176h137v-170h-164l-28 -170h139v-168h-166l-29 -177h-172l27 177h-160l-26 -177h-174l26 177h-135zM379 1133h160l28 170h-159z" />
<glyph horiz-adv-x="1558" d="M125 0v1176h330l323 -646l326 646h330v-1176h-322v705l-254 -508h-158l-254 510v-707h-321z" />
<glyph horiz-adv-x="753" d="M84 788v861h238v-664h417v-197h-655z" />
<glyph horiz-adv-x="1081" d="M33 299v276l121 66v535h321v-361l234 127v-280l-234 -125v-267h580v-270h-901v362z" />
<glyph horiz-adv-x="753" d="M84 -307v860h238v-664h417v-196h-655z" />
<glyph horiz-adv-x="1058" d="M125 0v1176h321v-906h580v-270h-901zM688 506v250h260v-250h-260z" />
<glyph horiz-adv-x="1052" d="M125 0v1176h321v-906h580v-270h-901zM434 -543l115 168h-109v262h246l14 -290l-202 -220z" />
<glyph horiz-adv-x="1316" d="M16 1176h375l266 -830l267 830h374l-462 -1176h-357z" />
<glyph horiz-adv-x="1054" d="M125 0v1176h321v-906h580v-270h-901zM512 745l115 168h-109v263h246l14 -291l-203 -219z" />
<glyph horiz-adv-x="1056" d="M68 1257l256 287h372l-354 -287h-274zM129 0v1176h322v-906h579v-270h-901z" />
<glyph horiz-adv-x="811" d="M39 16q0 161 94.5 248.5t272.5 87.5q176 0 271 -88.5t95 -249.5q0 -160 -95 -248t-271 -88t-271.5 88.5t-95.5 249.5zM268 16q0 -163 138 -163q137 0 137 161q0 164 -137 164q-138 0 -138 -162z" />
<glyph horiz-adv-x="1052" d="M125 0v1176h321v-906h580v-270h-901z" />
<glyph horiz-adv-x="927" d="M86 788v861h236v-367l311 367h287l-367 -400l379 -461h-281l-241 304l-88 -97v-207h-236z" />
<glyph horiz-adv-x="608" d="M10 719l260 141h228v-860h-238v645l-156 -78z" />
<glyph horiz-adv-x="608" d="M10 1292l260 142h228v-861h-238v646l-156 -78z" />
<glyph horiz-adv-x="874" d="M10 950l402 226h331v-1176h-350v852l-248 -129z" />
<glyph horiz-adv-x="933" d="M2 553h277l188 -598l190 598h277l-334 -860h-264z" />
<glyph horiz-adv-x="933" d="M2 1649h277l188 -598l190 598h277l-334 -861h-264z" />
<glyph horiz-adv-x="1619" d="M43 1063l219 113h180v-705h-190v535l-133 -64zM322 0l587 1176h203l-586 -1176h-204zM881 193q0 70 45.5 114.5t122.5 77.5q-119 68 -119 158q0 77 76 125.5t208 48.5q133 0 208 -49t75 -125q0 -96 -117 -158q168 -71 168 -192q0 -94 -89 -149.5t-245 -55.5 q-157 0 -245 55t-88 150zM1073 209q0 -35 39.5 -57.5t101.5 -22.5q63 0 103.5 22.5t40.5 57.5q0 25 -23.5 46.5t-50 33.5t-70.5 28q-68 -24 -104.5 -48.5t-36.5 -59.5zM1116 518q0 -45 96 -76q101 29 101 76q0 24 -26.5 44t-72.5 20q-44 0 -71 -20.5t-27 -43.5z" />
<glyph horiz-adv-x="1617" d="M43 1063l219 113h180v-705h-190v535l-133 -64zM322 0l587 1176h203l-586 -1176h-204zM913 84l82 133q104 -70 207 -70q62 0 101.5 22t39.5 62q0 37 -35.5 62.5t-101.5 25.5q-76 0 -153 -36l-101 65l41 357h510v-152h-354l-8 -100q49 14 110 14q136 0 210.5 -68t74.5 -166 q0 -104 -79 -174.5t-226 -70.5q-154 0 -318 96z" />
<glyph horiz-adv-x="927" d="M86 -307v860h236v-367l311 367h287l-367 -399l379 -461h-281l-241 305l-88 -96v-209h-236z" />
<glyph horiz-adv-x="1607" d="M43 1063l219 113h180v-705h-190v535l-133 -64zM322 0l587 1176h203l-586 -1176h-204zM911 0v76q0 50 20 95t58.5 81.5t76.5 63t89 55.5q16 9 40 22t37.5 20.5t31.5 18t28 18.5t19.5 17.5t13.5 19t4 19.5q0 25 -27 41t-77 16q-89 0 -211 -65l-84 116q165 103 323 103 q128 0 198.5 -57.5t70.5 -145.5q0 -29 -9 -56t-21 -47t-35 -41.5t-40.5 -35t-49.5 -31.5t-49 -26.5t-50 -24.5q-65 -30 -97 -52t-32 -46h383v-154h-611z" />
<glyph horiz-adv-x="1792" d="M33 1176h368l170 -762l199 762h252l199 -760l172 760h366l-346 -1176h-315l-203 750l-199 -750h-315z" />
<glyph horiz-adv-x="1294" d="M125 0v1176h321v-506l433 506h391l-504 -545l522 -631h-381l-338 418l-123 -135v-283h-321zM504 -543l114 168h-108v262h246l14 -290l-203 -220z" />
<glyph horiz-adv-x="1591" d="M43 1063l219 113h180v-705h-190v535l-133 -64zM322 0l587 1176h203l-586 -1176h-204zM803 125v127l350 453h252v-426h119v-154h-119v-125h-191v125h-411zM1004 279h210v282z" />
<glyph horiz-adv-x="1568" d="M43 1063l219 113h180v-705h-190v535l-133 -64zM322 0l587 1176h203l-586 -1176h-204zM848 299q0 182 131 300t340 118q33 0 63.5 -3t45.5 -6l14 -3l-43 -144q-33 6 -78 6q-90 0 -160 -37.5t-102 -119.5q72 47 178 47q113 0 183.5 -60.5t70.5 -158.5q0 -105 -84 -177.5 t-225 -72.5q-111 0 -188.5 44.5t-111.5 113t-34 153.5zM1038 266q3 -65 42.5 -96t95.5 -31q63 0 96 27t33 63q0 39 -34 64.5t-93 25.5q-49 0 -85.5 -16t-54.5 -37z" />
<glyph horiz-adv-x="1294" d="M125 0v1176h321v-506l433 506h391l-504 -545l522 -631h-381l-338 418l-123 -135v-283h-321z" />
<glyph horiz-adv-x="1792" d="M33 1176h368l170 -762l199 762h252l199 -760l172 760h366l-346 -1176h-315l-203 750l-199 -750h-315zM674 1257l256 287h373l-355 -287h-274z" />
<glyph horiz-adv-x="1605" d="M43 1063l219 113h180v-705h-190v535l-133 -64zM322 0l587 1176h203l-586 -1176h-204zM893 84l82 125q124 -66 235 -66q59 0 93 18.5t34 51.5q0 27 -20 44.5t-57 24.5t-66.5 9t-71.5 2h-32v153h40q175 0 175 68q0 22 -24.5 35.5t-70.5 13.5q-93 0 -204 -59l-78 114 q139 99 315 99q124 0 188 -49.5t64 -124.5q0 -104 -129 -154q73 -21 118.5 -69t45.5 -111q0 -92 -72 -156.5t-223 -64.5q-175 0 -342 96z" />
<glyph horiz-adv-x="415" d="M-55 721q57 18 87.5 31t45 32t16.5 33.5t2 50.5v781h238v-768q0 -70 -2.5 -101t-17.5 -74.5t-47.5 -66t-91.5 -46.5t-152 -44z" />
<glyph horiz-adv-x="415" d="M-55 -375q57 18 87.5 31t45 32.5t16.5 34t2 50.5v780h238v-768q0 -70 -2.5 -101t-17.5 -74.5t-47.5 -66t-91.5 -46.5t-152 -44z" />
<glyph horiz-adv-x="598" d="M-82 1257l221 287h316l221 -287h-230l-149 144l-150 -144h-229zM-70 -92q35 11 62 21t48.5 18.5t36.5 19t26 17.5t17.5 19.5t10.5 20.5t5.5 25t2 27t0.5 33v1067h322v-1051q0 -69 -1.5 -101t-8.5 -82t-23.5 -74t-46 -58t-76 -53.5t-113 -41.5t-157.5 -41z" />
<glyph horiz-adv-x="587" d="M-68 -92q35 11 62 21t48.5 18.5t36.5 19t26 17.5t17.5 19.5t10.5 20.5t5.5 25t2 27t0.5 33v1067h322v-1051q0 -69 -1.5 -101t-8.5 -82t-23.5 -74t-46 -58t-76 -53.5t-113 -41.5t-157.5 -41z" />
<glyph horiz-adv-x="1210" d="M70 150l141 227q93 -50 223.5 -90.5t224.5 -40.5q62 0 105 20t43 60q0 24 -21 42t-63.5 32.5t-88 26.5t-112 30.5t-119.5 38.5q-61 23 -108 47.5t-96 64.5t-76 98t-27 130q0 145 108.5 244t303.5 112v154h221v-164q208 -34 381 -117l-145 -231q-91 38 -198 66t-189 28 q-61 0 -101.5 -18.5t-40.5 -57.5q0 -25 20 -42.5t59.5 -30.5t83 -23.5t108 -28t116.5 -37.5q50 -18 88 -35.5t85 -48t77.5 -65t52 -85.5t21.5 -110q0 -147 -111 -247t-307 -113v-154h-221v162q-124 19 -241 62.5t-197 93.5z" />
<glyph horiz-adv-x="598" d="M-98 1337q24 48 35 68.5t36.5 58.5t46 55t52.5 31.5t69 14.5q49 0 108.5 -24.5t109.5 -49.5t77 -25q24 0 49 19t58 76l145 -72q-22 -45 -34 -67.5t-36.5 -59t-46 -54t-53.5 -32t-69 -14.5q-48 0 -107 24.5t-109 49t-77 24.5q-25 0 -50 -18.5t-57 -75.5zM137 0v1176h322 v-1176h-322z" />
<glyph horiz-adv-x="403" d="M84 788v861h238v-861h-238z" />
<glyph horiz-adv-x="587" d="M53 -223q0 125 201 223h-115v1176h322v-1176h-4q-38 -22 -64.5 -39t-59 -43t-50 -53.5t-17.5 -54.5q0 -17 6 -29.5t17.5 -20t23 -12t29 -5.5t28 -1.5t27.5 0t21 0.5l-29 -148q-111 0 -161 10q-175 33 -175 173z" />
<glyph horiz-adv-x="1343" d="M49 750q0 112 37.5 195t107.5 133t161.5 74t205.5 24h256v-1487h-260v630q-105 0 -194 24.5t-160.5 74.5t-112.5 135t-41 197zM944 -313v1489h260v-1489h-260z" />
<glyph horiz-adv-x="598" d="M-23 1309v192h639v-192h-639zM137 0v1176h322v-1176h-322z" />
<glyph horiz-adv-x="673" d="M109 209v749q0 60 1 88.5t6 74t15.5 67.5t30.5 54.5t50.5 51t75 41.5t105 40t139.5 34l78 -168q-38 -12 -65 -23.5t-47 -22t-32 -24t-19.5 -24.5t-11 -30t-4.5 -34.5t-1 -42.5v-913q0 -47 3.5 -69.5t21 -48t54 -43t101.5 -38.5l-78 -168q-79 16 -139.5 33t-105 40t-75 41 t-50.5 50.5t-30.5 54.5t-15.5 67.5t-6 74t-1 88.5z" />
<glyph horiz-adv-x="1792" d="M33 1176h368l170 -762l199 762h252l199 -760l172 760h366l-346 -1176h-315l-203 750l-199 -750h-315zM520 1257l221 287h316l221 -287h-229l-150 144l-149 -144h-230z" />
<glyph horiz-adv-x="823" d="M41 14q0 162 71.5 250t194.5 88q116 0 219 -78v314h230v-895h-230v61q-101 -76 -219 -76q-123 0 -194.5 87.5t-71.5 248.5zM272 16q0 -157 109 -157q81 0 145 67v176q-65 68 -145 68q-109 0 -109 -154z" />
<glyph horiz-adv-x="403" d="M84 -307v860h238v-860h-238z" />
<glyph horiz-adv-x="673" d="M63 -72q66 22 102 39.5t54 42.5t21.5 48.5t3.5 70.5v913q0 31 -1.5 48t-7 38t-16.5 33t-31.5 27t-50.5 27t-74 26l78 168q79 -16 139.5 -33t105 -39.5t75 -41t50.5 -51t31 -54.5t16 -67t6 -74t1 -88v-750q0 -68 -1.5 -100.5t-9 -81.5t-23.5 -73.5t-45.5 -58t-75.5 -53.5 t-112.5 -42.5t-156.5 -41.5z" />
<glyph horiz-adv-x="1792" d="M33 1176h368l170 -762l199 762h252l199 -760l172 760h366l-346 -1176h-315l-203 750l-199 -750h-315zM580 1278v250h260v-250h-260zM958 1278v250h261v-250h-261z" />
<glyph horiz-adv-x="1792" d="M33 1176h368l170 -762l199 762h252l199 -760l172 760h366l-346 -1176h-315l-203 750l-199 -750h-315zM492 1546h370l258 -286h-274z" />
<glyph horiz-adv-x="1284" d="M14 553h273l119 -541l143 541h188l142 -543l120 543h271l-252 -860h-234l-141 530l-143 -530h-232z" />
<glyph horiz-adv-x="591" d="M-106 1544h370l258 -287h-274zM139 0v1176h322v-1176h-322z" />
<glyph horiz-adv-x="1828" d="M57 879q0 145 94 230t263 85q168 0 262 -85.5t94 -229.5t-94 -229t-262 -85q-169 0 -263 84.5t-94 229.5zM283 879q0 -65 34 -98t97 -33q62 0 96.5 33t34.5 98q0 64 -35 98.5t-96 34.5q-62 0 -96.5 -34.5t-34.5 -98.5zM473 0l641 1176h238l-643 -1176h-236zM1057 295 q0 145 93.5 230t262.5 85q168 0 261 -85t93 -230q0 -144 -93 -228.5t-261 -84.5q-169 0 -262.5 84t-93.5 229zM1282 295q0 -64 34 -97.5t97 -33.5q61 0 95 33.5t34 97.5t-34 98.5t-95 34.5q-63 0 -97 -34.5t-34 -98.5z" />
<glyph horiz-adv-x="1318" d="M39 336q0 109 65.5 170t192.5 61q126 0 193 -61t67 -170t-67 -169.5t-193 -60.5q-127 0 -192.5 60.5t-65.5 169.5zM207 336q0 -96 90 -96q94 0 94 96t-94 96q-90 0 -90 -96zM332 -322l471 875h176l-473 -875h-174zM764 -90q0 109 66 169t192 60t192 -60t66 -169 q0 -110 -66 -171t-192 -61t-192 61t-66 171zM930 -90q0 -96 92 -96t92 96q0 94 -92 94t-92 -94z" />
<glyph horiz-adv-x="2054" d="M39 829v246h147v4q0 199 91 296.5t274 97.5q215 0 469 -87q94 107 295 107q133 0 271.5 -28t240.5 -62l-111 -240q-234 41 -319 41q-127 0 -127 -98v-31h684v-1024q0 -57 -0.5 -83.5t-3.5 -72t-9 -67t-17 -56.5t-28 -53t-42.5 -44.5t-59 -42.5t-78.5 -36t-101 -35.5 t-126 -31.5l-111 244q37 12 65 21.5t52 21t40.5 19t30.5 19.5t22 19.5t14.5 23t9 24.5t4.5 30t2 33.5v40.5v804h-348v-829h-336v829h-414v-829h-334v829h-147zM520 1075h414v68q-8 1 -59 10t-85.5 14.5t-80.5 11t-74 5.5q-115 0 -115 -99v-10z" />
<glyph horiz-adv-x="595" d="M-23 1278v250h261v-250h-261zM137 0v1176h322v-1176h-322zM356 1278v250h260v-250h-260z" />
<glyph horiz-adv-x="598" d="M-82 1257l221 287h316l221 -287h-230l-149 144l-150 -144h-229zM137 0v1176h322v-1176h-322z" />
<glyph horiz-adv-x="1284" d="M14 1649h273l119 -541l143 541h188l142 -543l120 543h271l-252 -861h-234l-141 531l-143 -531h-232z" />
<glyph horiz-adv-x="679" d="M39 1112q0 85 26 151.5t70.5 105.5t100 59t118.5 20q139 0 314 -82l-90 -166q-113 53 -183 53q-60 0 -91.5 -38t-31.5 -103q0 -66 31.5 -104.5t91.5 -38.5q70 0 183 53l90 -168q-182 -80 -312 -80q-64 0 -120 20t-100.5 59.5t-70.5 106t-26 152.5z" />
<glyph horiz-adv-x="1417" d="M72 588q0 172 70 308t210.5 217t331.5 81q143 0 259 -47t191 -129t115.5 -192t40.5 -238t-40.5 -238t-115.5 -192t-191 -129t-259 -47q-191 0 -331.5 81t-210.5 217t-70 308zM141 588q0 -237 143.5 -390t397.5 -153q128 0 231.5 42t171 115.5t104 172t36.5 213.5 q0 154 -62 275.5t-187 194t-294 72.5q-170 0 -294.5 -72.5t-185.5 -194t-61 -275.5zM373 586q0 174 85.5 270t213.5 96q60 0 119 -19t90 -37t75 -48l-53 -60q-36 27 -58 41.5t-71.5 32t-99.5 17.5q-95 0 -154 -80.5t-59 -212.5q0 -130 59 -209.5t154 -79.5q50 0 98.5 16.5 t73 31.5t57.5 40l53 -59q-44 -30 -74.5 -48t-90.5 -37.5t-119 -19.5q-128 0 -213.5 96t-85.5 269z" />
<glyph horiz-adv-x="2621" d="M57 879q0 145 94 230t263 85q168 0 262 -85.5t94 -229.5t-94 -229t-262 -85q-169 0 -263 84.5t-94 229.5zM283 879q0 -65 34 -98t97 -33q62 0 96.5 33t34.5 98q0 64 -35 98.5t-96 34.5q-62 0 -96.5 -34.5t-34.5 -98.5zM473 0l641 1176h238l-643 -1176h-236zM1057 295 q0 145 93.5 230t262.5 85q168 0 261 -85t93 -230q0 -144 -93 -228.5t-261 -84.5q-169 0 -262.5 84t-93.5 229zM1282 295q0 -64 34 -97.5t97 -33.5q61 0 95 33.5t34 97.5t-34 98.5t-95 34.5q-63 0 -97 -34.5t-34 -98.5zM1851 295q0 145 94 230t263 85t262.5 -85t93.5 -230 t-93.5 -229t-262.5 -84q-170 0 -263.5 84.5t-93.5 228.5zM2077 295q0 -64 34.5 -97.5t96.5 -33.5t96.5 33.5t34.5 97.5t-34.5 98.5t-96.5 34.5t-96.5 -34.5t-34.5 -98.5z" />
<glyph horiz-adv-x="1236" d="M6 0l412 596l-389 580h370l217 -400l218 400h372l-391 -582l414 -594h-385l-228 387l-227 -387h-383z" />
<glyph horiz-adv-x="1314" d="M100 739v84h50v353h546q243 0 371.5 -91t142.5 -262h50v-84h-50q-12 -172 -141 -261t-373 -89h-225v-389h-321v739h-50zM471 651h205q86 0 137.5 19t67.5 69h-410v-88zM471 823h410q-16 49 -68 67.5t-137 18.5h-205v-86z" />
<glyph horiz-adv-x="946" d="M70 229v68h34v256h400q354 0 373 -256h36v-68h-36q-22 -252 -373 -252h-162v-284h-238v536h-34zM342 170h145q127 0 146 59h-291v-59zM342 297h291q-20 61 -146 61h-145v-61z" />
<glyph horiz-adv-x="946" d="M70 1325v68h34v256h400q354 0 373 -256h36v-68h-36q-22 -252 -373 -252h-162v-285h-238v537h-34zM342 1266h145q127 0 146 59h-291v-59zM342 1393h291q-20 61 -146 61h-145v-61z" />
<glyph horiz-adv-x="888" d="M2 -307l297 434l-281 426h275l151 -289l156 289h274l-282 -424l299 -436h-285l-162 278l-161 -278h-281z" />
<glyph horiz-adv-x="823" d="M70 338h229v-64q52 38 102 58t117 20q123 0 194.5 -88t71.5 -250q0 -161 -71.5 -248.5t-194.5 -87.5q-115 0 -219 76v-311h-229v895zM299 -74q62 -67 145 -67q109 0 109 157q0 154 -109 154q-83 0 -145 -68v-176z" />
<glyph horiz-adv-x="600" d="M-53 1520h203q0 -40 38.5 -62t106.5 -22q69 0 108 22t39 62h205q0 -123 -92.5 -193t-259.5 -70q-165 0 -256.5 69.5t-91.5 193.5zM137 0v1176h322v-1176h-322z" />
<glyph horiz-adv-x="591" d="M68 1257l256 287h372l-354 -287h-274zM131 0v1176h322v-1176h-322z" />
<glyph horiz-adv-x="374" d="M74 788v238h229v-238h-229zM74 1153v238h229v-238h-229z" />
<glyph horiz-adv-x="735" d="M53 1219q0 86 26 152t71 105t100 58.5t119 19.5h22l23 95h94l-27 -107l33 -6l29 113h94l-35 -140q11 -3 92 -36l-90 -166l-47 20l-57 -237q55 18 104 40l90 -169q-128 -56 -243 -72l-25 -101h-94l22 95q-5 0 -15.5 1t-16.5 1l-23 -97h-92l29 119q-83 34 -133 113t-50 199 zM287 1219q0 -38 8 -62l45 186q-53 -38 -53 -124zM369 1079q20 -4 32 -4l70 279l-33 6z" />
<glyph horiz-adv-x="823" d="M70 539v895h229v-64q52 38 102 58t117 20q123 0 194.5 -88t71.5 -250q0 -161 -71.5 -248.5t-194.5 -87.5q-115 0 -219 76v-311h-229zM299 1022q62 -68 145 -68q109 0 109 158q0 154 -109 154q-83 0 -145 -68v-176z" />
<glyph horiz-adv-x="1171" d="M125 0v1176h321v-1176h-321zM496 -92q35 11 62 21t48.5 18.5t36.5 19t26 17.5t17.5 19.5t10.5 20.5t5.5 25t2 27t0.5 33v1067h321v-1051q0 -69 -1.5 -101t-8.5 -82t-23.5 -74t-46 -58t-76 -53.5t-113 -41.5t-157.5 -41z" />
<glyph horiz-adv-x="823" d="M41 14q0 162 71.5 250t194.5 88q116 0 219 -78v64h230v-895h-230v311q-101 -76 -219 -76q-123 0 -194.5 87.5t-71.5 248.5zM272 16q0 -157 109 -157q81 0 145 67v176q-65 68 -145 68q-109 0 -109 -154z" />
<glyph horiz-adv-x="823" d="M41 1110q0 162 71.5 250t194.5 88q116 0 219 -78v64h230v-895h-230v311q-101 -76 -219 -76q-123 0 -194.5 87.5t-71.5 248.5zM272 1112q0 -158 109 -158q80 0 145 68v176q-65 68 -145 68q-109 0 -109 -154z" />
<glyph horiz-adv-x="573" d="M125 0v1176h321v-1176h-321z" />
<glyph horiz-adv-x="991" d="M45 1057q237 137 459 137q189 0 307.5 -88t118.5 -232q0 -66 -24.5 -121t-62.5 -92t-96 -68.5t-113 -50t-126 -36.5l-14 -107h-193l-16 271q182 33 250.5 63t68.5 90q0 42 -39.5 73.5t-115.5 31.5q-120 0 -273 -86zM242 0v297h311v-297h-311z" />
<glyph horiz-adv-x="954" d="M84 788v861h238v-312h313v312h237v-861h-237v355h-313v-355h-238z" />
<glyph horiz-adv-x="993" d="M61 301q0 66 24.5 121t62.5 92.5t96 68.5t113 50t126 37l15 106h192l17 -270q-182 -33 -251 -63.5t-69 -90.5q0 -41 40 -72.5t116 -31.5q119 0 272 86l131 -215q-237 -137 -459 -137q-189 0 -307.5 87.5t-118.5 231.5zM438 879v297h312v-297h-312z" />
<glyph horiz-adv-x="714" d="M41 -88q0 60 25 107t72 78t96 50t114 35l10 80h140l12 -199q-130 -25 -179.5 -47.5t-49.5 -64.5q0 -31 28 -54.5t82 -23.5q90 0 197 66l96 -160q-179 -101 -332 -101q-137 0 -224 65t-87 169zM311 338v215h234v-215h-234z" />
<glyph horiz-adv-x="714" d="M41 1008q0 60 25 107t72 78t96 50t114 35l10 80h140l12 -199q-130 -25 -179.5 -47.5t-49.5 -64.5q0 -31 28 -54.5t82 -23.5q91 0 197 65l96 -160q-177 -100 -332 -100q-137 0 -224 65t-87 169zM311 1434v215h234v-215h-234z" />
<glyph horiz-adv-x="714" d="M33 467q177 100 332 100q137 0 224 -64.5t87 -168.5q0 -60 -25 -107t-71.5 -78t-96 -50.5t-114.5 -35.5l-11 -79h-139l-12 198q129 24 179 47.5t50 65.5q0 31 -28 54.5t-82 23.5q-90 0 -197 -66zM172 -92h234v-215h-234v215z" />
<glyph horiz-adv-x="714" d="M33 1563q177 100 332 100q137 0 224 -64.5t87 -168.5q0 -60 -25 -107t-71.5 -78t-96 -50.5t-114.5 -35.5l-11 -80h-139l-12 199q129 24 179 47.5t50 65.5q0 31 -28 54t-82 23q-91 0 -197 -65zM172 788v216h234v-216h-234z" />
<glyph horiz-adv-x="954" d="M84 -307v860h238v-311h313v311h237v-860h-237v354h-313v-354h-238z" />
<glyph horiz-adv-x="735" d="M53 123q0 86 26 152.5t71 105.5t100 58.5t119 19.5h22l23 94h94l-27 -107l33 -6l29 113h94l-35 -139q16 -5 33 -12t34 -14.5t25 -10.5l-90 -166l-47 20l-57 -237q47 15 104 41l90 -170q-128 -56 -243 -72l-25 -100h-94l22 94q-5 0 -15.5 1t-16.5 1l-23 -96h-92l29 119 q-83 34 -133 112.5t-50 198.5zM287 123q0 -38 8 -62l45 187q-53 -38 -53 -125zM369 -16q20 -4 32 -4l70 278l-33 6z" />
<glyph horiz-adv-x="1030" d="M78 590q0 117 36 207t97.5 144t138 81t164.5 27h27l30 127h127l-34 -144l45 -8l36 152h127l-45 -187q43 -15 134 -51l-121 -227q-45 18 -70 26l-78 -325q60 18 148 55l121 -227q-180 -80 -332 -103l-33 -137h-129l31 129q-31 0 -45 2l-31 -131h-129l39 162 q-116 45 -185 153t-69 275zM393 590q0 -50 17 -96l63 270q-80 -50 -80 -174zM514 397q21 -6 45 -6l92 385l-45 6z" />
<glyph horiz-adv-x="374" d="M74 57v238h229v-238h-229zM74 -70h229v-237h-229v237z" />
<glyph horiz-adv-x="888" d="M2 788l297 435l-281 426h275l151 -289l156 289h274l-282 -424l299 -437h-285l-162 279l-161 -279h-281z" />
<glyph horiz-adv-x="681" d="M39 16q0 85 26 151.5t70.5 105.5t100 59t118.5 20q139 0 314 -82l-90 -166q-115 54 -183 54q-60 0 -91.5 -38.5t-31.5 -103.5q0 -66 31.5 -104.5t91.5 -38.5q70 0 183 53l90 -168q-182 -80 -312 -80q-64 0 -120 20t-100.5 59.5t-70.5 106t-26 152.5z" />
<glyph horiz-adv-x="1030" d="M78 590q0 110 31.5 196.5t87.5 141t126 84.5t152 35v129h221v-150q130 -28 265 -88l-121 -227q-184 75 -275 75q-82 0 -127 -53t-45 -143t45 -144.5t127 -54.5q100 0 275 76l121 -227q-133 -59 -265 -90v-150h-221v129q-82 6 -152 36.5t-126 85t-87.5 141.5t-31.5 198z " />
<glyph horiz-adv-x="1388" d="M18 860v174h136v142h321v-142h438v142h322v-142h133v-174h-133v-860h-322v485h-438v-485h-321v860h-136zM475 750h438v110h-438v-110z" />
<glyph horiz-adv-x="1333" d="M125 0v1176h321v-426h439v426h321v-1176h-321v485h-439v-485h-321z" />
<glyph horiz-adv-x="927" d="M47 1217q0 218 106.5 332t282.5 114q109 0 207 -32.5t215 -92.5l-108 -174q-175 86 -283 86q-84 0 -129 -62t-45 -169q0 -111 42 -177.5t130 -66.5t180 82v57h-194v182h417v-508h-223v76q-112 -90 -235 -90q-154 0 -258.5 115.5t-104.5 327.5z" />
<glyph horiz-adv-x="1228" d="M6 1176h363l245 -451l246 451h361l-447 -711v-465h-319v461z" />
<glyph horiz-adv-x="927" d="M47 121q0 218 106.5 332t282.5 114q109 0 207 -32.5t215 -92.5l-108 -174q-175 86 -283 86q-84 0 -129 -62t-45 -169q0 -111 42 -177.5t130 -66.5t180 82v57h-194v183h417v-508h-223v76q-113 -91 -235 -91q-154 0 -258.5 115.5t-104.5 327.5z" />
<glyph d="M72 586q0 151 39.5 268t111 191t168.5 111.5t215 37.5q149 0 285.5 -44.5t294.5 -125.5l-148 -236q-236 117 -389 117q-119 0 -183.5 -85.5t-64.5 -231.5q0 -152 61 -243t183 -91q116 0 254 111v79h-272v250h573v-694h-301v109q-154 -127 -328 -127q-102 0 -191 38 t-158.5 110.5t-109.5 190t-40 265.5zM508 1278v250h260v-250h-260z" />
<glyph d="M72 586q0 151 39.5 268t111 191t168.5 111.5t215 37.5q149 0 285.5 -44.5t294.5 -125.5l-148 -236q-236 117 -389 117q-119 0 -183.5 -85.5t-64.5 -231.5q0 -152 61 -243t183 -91q116 0 254 111v79h-272v250h573v-694h-301v109q-154 -127 -328 -127q-102 0 -191 38 t-158.5 110.5t-109.5 190t-40 265.5zM537 -543l114 168h-108v262h245l15 -290l-203 -220z" />
<glyph horiz-adv-x="569" d="M70 -307v645h229v-133q7 19 22.5 41t44 48t76.5 40.5t107 11.5v-215q-46 0 -85 -11.5t-64 -29.5t-44.5 -40t-29.5 -44.5t-16.5 -40.5t-8.5 -29l-2 -12v-231h-229z" />
<glyph horiz-adv-x="1228" d="M6 1176h363l245 -451l246 451h361l-447 -711v-465h-319v461zM389 1257l256 287h373l-354 -287h-275z" />
<glyph horiz-adv-x="1228" d="M6 1176h363l245 -451l246 451h361l-447 -711v-465h-319v461zM295 1278v250h260v-250h-260zM674 1278v250h260v-250h-260z" />
<glyph d="M72 586q0 151 39.5 268t111 191t168.5 111.5t215 37.5q149 0 285.5 -44.5t294.5 -125.5l-148 -236q-236 117 -389 117q-119 0 -183.5 -85.5t-64.5 -231.5q0 -152 61 -243t183 -91q116 0 254 111v79h-272v250h573v-694h-301v109q-154 -127 -328 -127q-102 0 -191 38 t-158.5 110.5t-109.5 190t-40 265.5zM285 1520h202q0 -40 39 -62t107 -22q69 0 108 22t39 62h205q0 -123 -92.5 -193t-259.5 -70q-165 0 -256.5 69.5t-91.5 193.5z" />
<glyph horiz-adv-x="2400" d="M45 119l129 235q97 -45 223 -83t207 -38q52 0 86.5 16t34.5 46q0 15 -9 28t-27.5 23.5t-38.5 19t-49.5 16.5t-53 13.5t-56.5 13.5t-53 13q-59 15 -107 32.5t-99 47t-85.5 65t-56.5 88t-22 115.5q0 146 113 237t319 91q111 0 270 -37q-25 58 -25 127q0 140 99.5 222.5 t288.5 82.5h426v-539q214 144 407 144q328 0 328 -342v-756h-336v678q0 77 -28 118.5t-99 41.5q-68 0 -144.5 -38t-127.5 -87v-713h-336v1346h-113q-98 0 -154.5 -49.5t-56.5 -143.5q0 -87 41 -143q23 -8 76 -31l-129 -219q-84 33 -189 58.5t-176 25.5q-55 0 -85.5 -16.5 t-30.5 -45.5q0 -15 7.5 -27t24 -22t34 -17.5t46 -15t50.5 -12.5t57 -13t57 -13q61 -15 110.5 -32.5t102 -47.5t88.5 -66.5t59 -90.5t23 -118q0 -152 -118.5 -241t-330.5 -89q-151 0 -310 42.5t-261 99.5z" />
<glyph horiz-adv-x="2312" d="M45 119l129 235q97 -45 223 -83t207 -38q52 0 86.5 16t34.5 46q0 15 -9 28t-27.5 23.5t-38.5 19t-49.5 16.5t-53 13.5t-56.5 13.5t-53 13q-59 15 -107 32.5t-99 47t-85.5 65t-56.5 88t-22 115.5q0 146 113 237t319 91q111 0 270 -37q-25 58 -25 127q0 140 99.5 222.5 t288.5 82.5h426v-827l307 409h389l-363 -424l426 -651h-362l-262 416l-135 -158v-258h-336v1346h-113q-98 0 -154.5 -49.5t-56.5 -143.5q0 -87 41 -143q23 -8 76 -31l-129 -219q-84 33 -189 58.5t-176 25.5q-55 0 -85.5 -16.5t-30.5 -45.5q0 -15 7.5 -27t24 -22t34 -17.5 t46 -15t50.5 -12.5t57 -13t57 -13q61 -15 110.5 -32.5t102 -47.5t88.5 -66.5t59 -90.5t23 -118q0 -152 -118.5 -241t-330.5 -89q-151 0 -310 42.5t-261 99.5z" />
<glyph horiz-adv-x="1679" d="M45 119l129 235q97 -45 223 -83t207 -38q52 0 86.5 16t34.5 46q0 15 -9 28t-27.5 23.5t-38.5 19t-49.5 16.5t-53 13.5t-56.5 13.5t-53 13q-59 15 -107 32.5t-99 47t-85.5 65t-56.5 88t-22 115.5q0 146 113 237t319 91q111 0 270 -37q-25 58 -25 127q0 140 99.5 222.5 t288.5 82.5h428v-1493h-336v1346h-115q-98 0 -154.5 -49.5t-56.5 -143.5q0 -87 41 -143q23 -8 76 -31l-129 -219q-84 33 -189 58.5t-176 25.5q-55 0 -85.5 -16.5t-30.5 -45.5q0 -15 7.5 -27t24 -22t34 -17.5t46 -15t50.5 -12.5t57 -13t57 -13q61 -15 110.5 -32.5t102 -47.5 t88.5 -66.5t59 -90.5t23 -118q0 -152 -118.5 -241t-330.5 -89q-151 0 -310 42.5t-261 99.5z" />
<glyph horiz-adv-x="1228" d="M6 1176h363l245 -451l246 451h361l-447 -711v-465h-319v461zM217 1544h371l258 -287h-275z" />
<glyph d="M72 586q0 151 39.5 268t111 191t168.5 111.5t215 37.5q149 0 285.5 -44.5t294.5 -125.5l-148 -236q-236 117 -389 117q-119 0 -183.5 -85.5t-64.5 -231.5q0 -152 61 -243t183 -91q116 0 254 111v79h-272v250h573v-694h-301v109q-154 -127 -328 -127q-102 0 -191 38 t-158.5 110.5t-109.5 190t-40 265.5z" />
<glyph horiz-adv-x="772" d="M84 788v861h670v-199h-432v-135h342v-195h-342v-332h-238z" />
<glyph horiz-adv-x="772" d="M84 -307v860h670v-199h-432v-135h342v-194h-342v-332h-238z" />
<glyph horiz-adv-x="1085" d="M125 0v1176h922v-267h-601v-190h472v-264h-472v-455h-321z" />
<glyph horiz-adv-x="948" d="M45 1085v95h76v71h-76v95h86q30 156 129 236.5t244 80.5q71 0 147.5 -20t126.5 -41.5t131 -61.5l-108 -174q-168 84 -269 84q-106 0 -145 -104h260v-95h-280v-71h280v-95h-258q42 -98 143 -98t269 84l108 -174q-115 -60 -208.5 -91.5t-196.5 -31.5q-144 0 -242.5 79 t-128.5 232h-88z" />
<glyph horiz-adv-x="948" d="M45 -10v94h76v72h-76v94h86q30 156 129 236.5t244 80.5q71 0 147.5 -20t126.5 -41.5t131 -61.5l-108 -174q-168 84 -269 84q-106 0 -145 -104h260v-94h-280v-72h280v-94h-258q44 -99 143 -99q101 0 269 84l108 -174q-115 -60 -208.5 -91.5t-196.5 -31.5 q-144 0 -242.5 79.5t-128.5 232.5h-88z" />
<glyph horiz-adv-x="1327" d="M72 401v136h104v92h-104v135h118q40 211 177 320.5t338 109.5q139 0 266.5 -43.5t288.5 -124.5l-148 -235q-223 114 -369 114q-147 0 -206 -141h364v-135h-395v-92h395v-136h-360q58 -131 202 -131t369 115l148 -235q-156 -81 -285.5 -124.5t-269.5 -43.5 q-198 0 -333.5 106t-178.5 313h-121z" />
<glyph horiz-adv-x="391" d="M76 -451l104 144h-102v237h227l17 -268l-187 -186zM78 57v238h229v-238h-229z" />
<glyph horiz-adv-x="391" d="M76 645l104 143h-102v238h227l17 -268l-187 -187zM78 1153v238h229v-238h-229z" />
<glyph horiz-adv-x="882" d="M0 553h268l174 -326l174 326h269l-324 -518v-342h-237v342z" />
<glyph horiz-adv-x="1961" d="M66 539q0 141 40.5 250.5t110.5 175.5t157.5 99.5t186.5 33.5q93 0 199 -27q-15 44 -15 92q0 147 106.5 238.5t289.5 91.5q216 0 335 -105.5t119 -295.5v-17h291v-246h-291v-460q0 -32 7.5 -53t21.5 -30.5t27.5 -12.5t31.5 -3q46 0 158 45l117 -247q-204 -91 -363 -91 q-170 0 -251.5 97t-81.5 297v458h-148v246h148v37q0 119 -41.5 176.5t-133.5 57.5q-81 0 -135.5 -54t-54.5 -145q0 -75 39 -133l104 -43l-133 -250q-195 90 -291 90q-98 0 -153 -73.5t-55 -198.5t55 -200t153 -75q14 0 30 2t29 4t32 7t30 8t32.5 11t29.5 10.5t30.5 12 t26.5 11.5t28 12l23 10l133 -248q-282 -127 -477 -127q-100 0 -187.5 34t-158 100.5t-111 176.5t-40.5 251z" />
<glyph horiz-adv-x="731" d="M41 666v194h661v-182q-13 -15 -35 -41.5t-77.5 -106t-98 -157t-77.5 -181.5t-35 -192h-246q0 84 31 181.5t70.5 171.5t91 150t77.5 108.5t46 54.5h-408z" />
<glyph horiz-adv-x="731" d="M41 1239v195h661v-183q-13 -15 -35 -41.5t-77.5 -106t-98 -157t-77.5 -181.5t-35 -192h-246q0 84 31 181.5t70.5 171.5t91 150t77.5 108.5t46 54.5h-408z" />
<glyph horiz-adv-x="1099" d="M39 887v289h1034v-271q-11 -13 -29.5 -36.5t-72 -98t-102.5 -151.5t-108.5 -189t-102 -218.5t-72 -232t-29.5 -237.5h-362q0 104 25.5 221t63.5 217t92 206.5t100 182.5t98 152t76.5 108t45.5 58h-657z" />
<glyph horiz-adv-x="1642" d="M66 539q0 141 40.5 250.5t110.5 175.5t157.5 99.5t186.5 33.5q84 0 207 -29q-23 57 -23 119q0 139 95.5 222t275.5 83h408v-1493h-336v1346h-78q-96 0 -154.5 -50t-58.5 -141q0 -79 45 -143q39 -15 98 -41l-133 -250q-195 90 -291 90q-98 0 -153 -73.5t-55 -198.5 t55 -200t153 -75q14 0 30 2t29 4t32 7t30 8t32.5 11t29.5 10.5t30.5 12t26.5 11.5t28 12l23 10l133 -248q-282 -127 -477 -127q-100 0 -187.5 34t-158 100.5t-111 176.5t-40.5 251z" />
<glyph horiz-adv-x="2275" d="M66 539q0 141 40.5 250.5t110.5 175.5t157.5 99.5t186.5 33.5q84 0 207 -29q-23 57 -23 119q0 139 95.5 222t275.5 83h406v-827l307 409h389l-363 -424l426 -651h-362l-262 416l-135 -158v-258h-336v1346h-76q-96 0 -154.5 -50t-58.5 -141q0 -79 45 -143q39 -15 98 -41 l-133 -250q-195 90 -291 90q-98 0 -153 -73.5t-55 -198.5t55 -200t153 -75q14 0 30 2t29 4t32 7t30 8t32.5 11t29.5 10.5t30.5 12t26.5 11.5t28 12l23 10l133 -248q-282 -127 -477 -127q-100 0 -187.5 34t-158 100.5t-111 176.5t-40.5 251z" />
<glyph horiz-adv-x="1593" d="M57 1022v154h566v-144q-12 -12 -31 -34t-67.5 -88t-86 -130t-68 -150t-30.5 -159h-197q0 69 27 149.5t61.5 142t79 124t67.5 90t40 45.5h-361zM307 0l584 1176h205l-586 -1176h-203zM864 193q0 70 45.5 114.5t122.5 77.5q-117 67 -117 158q0 77 75 125.5t208 48.5 t209 -49t76 -125q0 -91 -119 -158q168 -71 168 -192q0 -95 -88.5 -150t-245.5 -55q-156 0 -245 55.5t-89 149.5zM1057 209q0 -35 39 -57.5t102 -22.5q62 0 101.5 22.5t39.5 57.5q0 36 -37.5 60t-103.5 48q-68 -24 -104.5 -48.5t-36.5 -59.5zM1098 518q0 -45 100 -76 q98 28 98 76q0 24 -27 44t-71 20t-72 -20.5t-28 -43.5z" />
<glyph horiz-adv-x="2363" d="M66 539q0 141 40.5 250.5t110.5 175.5t157.5 99.5t186.5 33.5q84 0 207 -29q-23 57 -23 119q0 139 95.5 222t275.5 83h406v-539q214 144 407 144q328 0 328 -342v-756h-336v678q0 77 -28 118.5t-99 41.5q-68 0 -144.5 -38t-127.5 -87v-713h-336v1346h-76 q-96 0 -154.5 -50t-58.5 -141q0 -79 45 -143q39 -15 98 -41l-133 -250q-195 90 -291 90q-98 0 -153 -73.5t-55 -198.5t55 -200t153 -75q14 0 30 2t29 4t32 7t30 8t32.5 11t29.5 10.5t30.5 12t26.5 11.5t28 12l23 10l133 -248q-282 -127 -477 -127q-100 0 -187.5 34 t-158 100.5t-111 176.5t-40.5 251z" />
<glyph horiz-adv-x="882" d="M0 1649h268l174 -326l174 326h269l-324 -519v-342h-237v342z" />
<glyph horiz-adv-x="706" d="M27 -236l82 146q59 -27 139.5 -49.5t130.5 -22.5q74 0 74 35q0 9 -9.5 16.5t-29 13.5t-39 10.5t-49.5 11t-50 12.5q-237 58 -237 213q0 89 72.5 145.5t205.5 56.5q168 0 336 -73l-82 -134q-153 50 -231 50q-36 0 -55 -9.5t-19 -25.5q0 -11 8.5 -18.5t27.5 -13.5t37.5 -10 t49.5 -10.5t53 -11.5q49 -12 87 -26.5t75 -39t57.5 -62.5t20.5 -87q0 -93 -75 -148t-212 -55q-95 0 -198 26.5t-170 59.5z" />
<glyph horiz-adv-x="1351" d="M27 465v246h129v465h475q322 0 484.5 -140t162.5 -448t-162.5 -448t-484.5 -140h-475v465h-129zM479 270h119q91 0 153.5 13.5t110.5 48.5t71 98t23 158t-23 158t-71 97t-110.5 47t-153.5 13h-119v-192h242v-246h-242v-195z" />
<glyph horiz-adv-x="872" d="M61 365q0 221 154.5 365t402.5 144q38 0 74 -3.5t53 -6.5l17 -4l-53 -182q-39 6 -88 6q-63 0 -118 -16.5t-103.5 -59t-73.5 -106.5q86 55 200 55q129 0 211 -73t82 -195q0 -128 -99 -215.5t-265 -87.5q-99 0 -176 31t-123.5 84.5t-70.5 120t-24 143.5zM299 326 q1 -55 25 -90.5t55.5 -47.5t69.5 -12q67 0 101 31.5t34 73.5q0 45 -36.5 73.5t-98.5 28.5q-93 0 -150 -57z" />
<glyph horiz-adv-x="872" d="M61 938q0 221 154.5 365.5t402.5 144.5q38 0 74 -3.5t53 -6.5l17 -4l-53 -183q-39 6 -88 6q-63 0 -118 -16.5t-103.5 -59t-73.5 -106.5q86 55 200 55q129 0 211 -73t82 -195q0 -128 -99 -215.5t-265 -87.5q-99 0 -176 31t-123.5 84.5t-70.5 120t-24 143.5zM299 899 q1 -42 14.5 -72.5t36 -46.5t47 -23t52.5 -7q67 0 101 31t34 73q0 45 -36.5 73.5t-98.5 28.5q-93 0 -150 -57z" />
<glyph horiz-adv-x="1312" d="M80 592q-1 194 64.5 357t181 273.5t276 172t346.5 61.5q57 0 112 -5.5t81 -10.5l26 -6l-80 -273q-61 13 -137 13q-59 0 -114.5 -10.5t-112.5 -36.5t-104 -65.5t-86.5 -101t-63.5 -139.5q132 105 326 105q205 0 335 -124t130 -323q0 -102 -39.5 -192.5t-110.5 -159.5 t-179.5 -109.5t-238.5 -40.5q-125 0 -228 34t-173 92t-118.5 137t-70.5 167.5t-22 184.5zM432 549q0 -142 73 -215.5t177 -73.5q112 0 169.5 61.5t57.5 143.5q0 88 -60 145.5t-165 57.5q-86 0 -152 -36.5t-100 -82.5z" />
<glyph horiz-adv-x="493" d="M133 -207v694h225v-694h-225zM133 680v694h225v-694h-225z" />
<glyph horiz-adv-x="1183" d="M61 0v246l615 657h-578v273h1000v-244l-615 -662h625v-270h-1047z" />
<glyph horiz-adv-x="485" d="M23 612v127h149v953h-149v127h387v-1207h-387z" />
<glyph horiz-adv-x="806" d="M84 788v861h670v-199h-432v-133h354v-195h-354v-137h440v-197h-678z" />
<glyph horiz-adv-x="892" d="M35 -152l579 1479h234l-582 -1479h-231z" />
<glyph horiz-adv-x="1132" d="M125 0v1176h922v-267h-601v-188h490v-264h-490v-193h609v-264h-6q-38 -22 -64.5 -39t-59 -43t-50 -53.5t-17.5 -54.5q0 -17 6 -29.5t17.5 -20t23 -12t29 -5.5t28 -1.5t27.5 0t21 0.5l-29 -148q-111 0 -161 10q-175 33 -175 173q0 125 201 223h-721z" />
<glyph horiz-adv-x="350" />
<glyph horiz-adv-x="350" />
<glyph horiz-adv-x="485" d="M23 -356h149v952h-149v127h387v-1206h-387v127z" />
<glyph horiz-adv-x="1361" d="M125 0v1176h328l460 -725v725h322v-1104q0 -52 -3 -86.5t-12 -72.5t-27.5 -63.5t-49 -52.5t-76.5 -47t-109.5 -39t-148.5 -37l-104 234q99 27 141.5 49t56.5 51l-457 717v-725h-321z" />
</font>
</defs>
</svg>
