<?xml version="1.0" standalone="no"?>
<!DOCTYPE svg PUBLIC "-//W3C//DTD SVG 1.1//EN" "http://www.w3.org/Graphics/SVG/1.1/DTD/svg11.dtd" >
<svg xmlns="http://www.w3.org/2000/svg">
<metadata></metadata>
<defs>
<font id="verbmedium" horiz-adv-x="1253" >
<font-face units-per-em="2048" ascent="1638" descent="-410" />
<missing-glyph horiz-adv-x="565" />
<glyph unicode="ff" horiz-adv-x="1488" d="M59 915v160h150v117q0 159 68 230t196 71q77 0 172 -24.5t162 -51.5l-76 -153q-153 47 -215 47q-45 0 -71.5 -24.5t-26.5 -86.5v-125h268v-160h-268v-915h-209v915h-150zM801 915v160h149v117q0 159 68 230t196 71q77 0 172 -24.5t162 -51.5l-75 -153q-153 47 -216 47 q-45 0 -71.5 -24.5t-26.5 -86.5v-125h283v-160h-283v-915h-209v915h-149z" />
<glyph unicode="fi" horiz-adv-x="1265" d="M59 915v160h150v117q0 301 260 301q107 0 268 -59l-55 -156q-122 33 -166 33q-45 0 -71.5 -24.5t-26.5 -86.5v-125h282v-160h-282v-915h-209v915h-150zM895 1270v217h229v-217h-229zM901 0v1075h211v-1075h-211z" />
<glyph unicode="fl" horiz-adv-x="1282" d="M59 915v160h150v117q0 301 260 301q107 0 268 -59l-55 -156q-122 33 -166 33q-45 0 -71.5 -24.5t-26.5 -86.5v-125h282v-160h-282v-915h-209v915h-150zM911 0v1493h211v-1493h-211z" />
<glyph unicode="ffi" horiz-adv-x="2007" d="M59 915v160h150v117q0 159 68 230t196 71q77 0 172 -24.5t162 -51.5l-76 -153q-153 47 -215 47q-45 0 -71.5 -24.5t-26.5 -86.5v-125h268v-160h-268v-915h-209v915h-150zM801 915v160h149v117q0 301 260 301q108 0 269 -59l-56 -156q-122 33 -166 33q-45 0 -71.5 -24.5 t-26.5 -86.5v-125h283v-160h-283v-915h-209v915h-149zM1634 1270v217h230v-217h-230zM1640 0v1075h211v-1075h-211z" />
<glyph unicode="ffl" horiz-adv-x="2023" d="M59 915v160h150v117q0 159 68 230t196 71q77 0 172 -24.5t162 -51.5l-76 -153q-153 47 -215 47q-45 0 -71.5 -24.5t-26.5 -86.5v-125h268v-160h-268v-915h-209v915h-150zM801 915v160h149v117q0 301 260 301q108 0 269 -59l-56 -156q-122 33 -166 33q-45 0 -71.5 -24.5 t-26.5 -86.5v-125h283v-160h-283v-915h-209v915h-149zM1651 0v1493h211v-1493h-211z" />
<glyph unicode="ffk" horiz-adv-x="2600" d="M59 915v160h150v117q0 159 68 230t196 71q77 0 172 -24.5t162 -51.5l-76 -153q-153 47 -215 47q-45 0 -71.5 -24.5t-26.5 -86.5v-125h268v-160h-268v-915h-209v915h-150zM801 915v160h149v117q0 301 260 301q108 0 269 -59l-56 -156q-122 33 -166 33q-45 0 -71.5 -24.5 t-26.5 -86.5v-125h283v-160h-283v-915h-209v915h-149zM1642 0v1493h211v-948l414 530h246l-363 -430l428 -645h-229l-326 494l-170 -201v-293h-211z" />
<glyph unicode="ffj" horiz-adv-x="2013" d="M59 915v160h150v117q0 159 68 230t196 71q77 0 172 -24.5t162 -51.5l-76 -153q-153 47 -215 47q-45 0 -71.5 -24.5t-26.5 -86.5v-125h268v-160h-268v-915h-209v915h-150zM801 915v160h149v117q0 301 260 301q108 0 269 -59l-56 -156q-122 33 -166 33q-45 0 -71.5 -24.5 t-26.5 -86.5v-125h283v-160h-283v-915h-209v915h-149zM1409 -287q64 21 101.5 34.5t67 32.5t42 31t20 40.5t8.5 49t1 68.5v1106h213v-1093q0 -66 -1 -96t-7.5 -76.5t-21.5 -68.5t-41.5 -53t-68.5 -50t-101.5 -40.5t-141.5 -41.5zM1640 1270v217h230v-217h-230z" />
<glyph unicode="fft" horiz-adv-x="2291" d="M59 915v160h150v117q0 159 68 230t196 71q77 0 172 -24.5t162 -51.5l-76 -153q-153 47 -215 47q-45 0 -71.5 -24.5t-26.5 -86.5v-125h268v-160h-268v-915h-209v915h-150zM801 915v160h149v117q0 159 68 230t196 71q77 0 172 -24.5t162 -51.5l-75 -153q-153 47 -216 47 q-45 0 -71.5 -24.5t-26.5 -86.5v-125h271v-160h-271v-915h-209v915h-149zM1544 915v160h150v271l209 40v-311h295v-160h-295v-643q0 -62 26.5 -86t71.5 -24q67 0 192 53l78 -158q-59 -29 -144.5 -54.5t-168.5 -25.5q-264 0 -264 302v636h-150z" />
<glyph unicode="fh" horiz-adv-x="2002" d="M59 915v160h150v117q0 301 260 301q107 0 268 -59l-55 -156q-122 33 -166 33q-45 0 -71.5 -24.5t-26.5 -86.5v-125h282v-160h-282v-915h-209v915h-150zM903 0v1493h211v-561q236 166 434 166q85 0 146.5 -25.5t97 -71.5t52 -105t16.5 -132v-764h-211v721q0 98 -38 152.5 t-132 54.5q-92 0 -195.5 -52.5t-169.5 -111.5v-764h-211z" />
<glyph unicode="fj" horiz-adv-x="1271" d="M59 915v160h150v117q0 301 260 301q107 0 268 -59l-55 -156q-122 33 -166 33q-45 0 -71.5 -24.5t-26.5 -86.5v-125h282v-160h-282v-915h-209v915h-150zM670 -287q38 12 65 21.5t51.5 20.5t41 18t30.5 19.5t21.5 19t14 23t9 25t4.5 31t2 35.5v43v1106h213v-1093 q0 -66 -1 -96t-7.5 -76.5t-21.5 -68.5t-41.5 -53t-68.5 -50t-101.5 -40.5t-141.5 -41.5zM901 1270v217h229v-217h-229z" />
<glyph unicode="fk" horiz-adv-x="1859" d="M59 915v160h150v117q0 301 260 301q107 0 268 -59l-55 -156q-122 33 -166 33q-45 0 -71.5 -24.5t-26.5 -86.5v-125h282v-160h-282v-915h-209v915h-150zM903 0v1493h211v-948l414 530h246l-363 -430l428 -645h-229l-326 494l-170 -201v-293h-211z" />
<glyph unicode="ft" horiz-adv-x="1550" d="M59 915v160h150v117q0 159 68 230t196 71q77 0 172 -24.5t162 -51.5l-76 -153q-153 47 -215 47q-45 0 -71.5 -24.5t-26.5 -86.5v-125h268v-160h-268v-915h-209v915h-150zM803 915v160h149v271l209 40v-311h295v-160h-295v-643q0 -62 26.5 -86t72.5 -24q67 0 192 53 l78 -158q-59 -29 -144.5 -54.5t-168.5 -25.5q-265 0 -265 302v636h-149z" />
<glyph unicode="ffh" horiz-adv-x="2744" d="M59 915v160h150v117q0 159 68 230t196 71q77 0 172 -24.5t162 -51.5l-76 -153q-153 47 -215 47q-45 0 -71.5 -24.5t-26.5 -86.5v-125h268v-160h-268v-915h-209v915h-150zM801 915v160h149v117q0 301 260 301q108 0 269 -59l-56 -156q-122 33 -166 33q-45 0 -71.5 -24.5 t-26.5 -86.5v-125h283v-160h-283v-915h-209v915h-149zM1642 0v1493h211v-561q236 166 435 166q85 0 146.5 -25t96.5 -72t51.5 -105t16.5 -132v-764h-211v721q0 98 -38 152.5t-132 54.5q-92 0 -195.5 -52.5t-169.5 -111.5v-764h-211z" />
<glyph unicode="ffb" horiz-adv-x="2740" d="M59 915v160h150v117q0 159 68 230t196 71q77 0 172 -24.5t162 -51.5l-76 -153q-153 47 -215 47q-45 0 -71.5 -24.5t-26.5 -86.5v-125h268v-160h-268v-915h-209v915h-150zM801 915v160h149v117q0 301 260 301q108 0 269 -59l-56 -156q-122 33 -166 33q-45 0 -71.5 -24.5 t-26.5 -86.5v-125h283v-160h-283v-915h-209v915h-149zM1642 0v1493h211v-551q177 156 373 156q185 0 299.5 -140.5t114.5 -420.5q0 -279 -114.5 -419.5t-299.5 -140.5q-199 0 -373 154v-131h-211zM1853 311q65 -72 148.5 -115.5t173.5 -43.5q123 0 186.5 100.5t63.5 284.5 q0 185 -63.5 286t-186.5 101q-90 0 -173.5 -44.5t-148.5 -117.5v-451z" />
<glyph unicode="fb" horiz-adv-x="2000" d="M59 915v160h150v117q0 301 260 301q107 0 268 -59l-55 -156q-122 33 -166 33q-45 0 -71.5 -24.5t-26.5 -86.5v-125h282v-160h-282v-915h-209v915h-150zM903 0v1493h211v-551q177 156 373 156q185 0 299.5 -140.5t114.5 -420.5q0 -279 -114.5 -419.5t-299.5 -140.5 q-199 0 -373 154v-131h-211zM1114 311q65 -72 148.5 -115.5t173.5 -43.5q123 0 186.5 100.5t63.5 284.5q0 185 -63.5 286t-186.5 101q-90 0 -173.5 -44.5t-148.5 -117.5v-451z" />
<glyph unicode=" "  horiz-adv-x="565" />
<glyph unicode="&#x09;" horiz-adv-x="565" />
<glyph unicode="&#xa0;" horiz-adv-x="565" />
<glyph unicode="!" horiz-adv-x="555" d="M150 1434h256l-64 -994h-129zM162 0v262h233v-262h-233z" />
<glyph unicode="&#x22;" horiz-adv-x="958" d="M121 1434h215l-37 -541h-141zM522 1434h215l-37 -541h-141z" />
<glyph unicode="#" horiz-adv-x="1519" d="M88 352v164h287l63 399h-264v166h289l55 353h170l-55 -353h364l56 353h170l-56 -353h265v-166h-289l-64 -399h264v-164h-288l-56 -352h-168l54 352h-365l-55 -352h-170l55 352h-262zM545 516h366l62 399h-365z" />
<glyph unicode="$" horiz-adv-x="1265" d="M86 158l100 161q75 -45 177.5 -85t199.5 -58v469l-47 17q-66 22 -113.5 41.5t-105.5 54t-94 74.5t-61 100t-25 133q0 171 123.5 276t322.5 113v186h160v-194q211 -28 412 -129l-101 -162q-142 70 -311 102v-434l31 -10q48 -16 84.5 -29.5t84 -36t82.5 -46t71.5 -57 t59.5 -71t37.5 -87t14.5 -105.5q0 -120 -62.5 -210.5t-166.5 -137.5t-236 -53v-185h-160v191q-132 17 -258 65.5t-219 106.5zM346 1077q0 -76 54 -120t163 -80v391q-95 -10 -156 -57.5t-61 -133.5zM723 166q101 8 168 59.5t67 141.5q0 79 -59 128.5t-176 94.5v-424z" />
<glyph unicode="%" horiz-adv-x="2037" d="M80 1071q0 183 101.5 284t275.5 101q176 0 278.5 -101t102.5 -284t-102.5 -283t-278.5 -100q-175 0 -276 100t-101 283zM248 1071q0 -118 55 -181t154 -63q102 0 157.5 63t55.5 181q0 119 -55.5 182.5t-157.5 63.5q-99 0 -154 -63.5t-55 -182.5zM555 0l750 1434h174 l-750 -1434h-174zM1198 360q0 184 101.5 284.5t277.5 100.5t277.5 -100.5t101.5 -284.5q0 -183 -101.5 -283t-277.5 -100t-277.5 100t-101.5 283zM1366 360q0 -118 55 -180.5t156 -62.5t156 62.5t55 180.5q0 119 -55 182.5t-156 63.5t-156 -63.5t-55 -182.5z" />
<glyph unicode="&#x26;" horiz-adv-x="1439" d="M131 354q0 71 23.5 133t70 113.5t93.5 89t114 80.5q-45 45 -74 80t-60 82t-46.5 98t-15.5 105q0 78 32.5 140.5t86.5 101t121 59t140 20.5q156 0 258.5 -85.5t102.5 -223.5q0 -63 -22 -119.5t-64.5 -106t-86 -87t-106.5 -82.5l324 -326q90 158 106 330h215 q-13 -107 -59.5 -233.5t-122.5 -235.5l285 -287h-256l-150 150q-192 -173 -448 -173q-199 0 -330 103.5t-131 273.5zM340 367q0 -37 14.5 -74t43.5 -72t82 -56.5t122 -21.5q174 0 309 138l-358 366q-103 -74 -158 -139t-55 -141zM432 1128q0 -67 40.5 -128t111.5 -132 q96 64 147 125.5t51 139.5q0 68 -42.5 115.5t-125.5 47.5q-85 0 -133.5 -49t-48.5 -119z" />
<glyph unicode="'" horiz-adv-x="493" d="M121 1434h215l-37 -541h-141z" />
<glyph unicode="(" horiz-adv-x="667" d="M137 121v1182q0 42 0.5 66t3.5 56.5t8 51.5t15 44.5t24.5 41t35.5 35t49 33.5t65 29.5t83 29.5t103 28l58 -131q-43 -14 -73 -25.5t-55 -24.5t-40.5 -22.5t-27 -25.5t-17 -27.5t-9 -34t-4 -40t-0.5 -50.5v-1249q0 -33 0.5 -50.5t4 -40t9 -34t17 -27.5t27 -25.5 t40.5 -22.5t55 -24.5t73 -25.5l-58 -131q-95 24 -160.5 46.5t-108.5 52.5t-66.5 55t-35 72t-14 82.5t-2.5 105.5z" />
<glyph unicode=")" horiz-adv-x="667" d="M86 -162q58 19 94 33t62.5 32.5t39 31.5t20 40t8.5 48t1 65v1249q0 44 -1 65t-8.5 48t-20 40t-39 31.5t-62.5 32.5t-94 33l57 131q95 -24 160 -46t108.5 -52.5t67 -55.5t35 -71.5t14 -82t2.5 -105.5v-1182q0 -70 -2.5 -106t-14 -82.5t-35 -72t-66.5 -56t-108.5 -53 t-160.5 -46.5z" />
<glyph unicode="*" horiz-adv-x="974" d="M104 926l310 110l-308 115l93 160l254 -213l-58 319h185l-56 -317l252 209l92 -160l-305 -111l305 -114l-94 -158l-248 203l54 -312h-185l58 318l-254 -209z" />
<glyph unicode="+" horiz-adv-x="1304" d="M133 600v164h436v389h166v-389h436v-164h-436v-387h-166v387h-436z" />
<glyph unicode="," horiz-adv-x="528" d="M139 -217l117 217h-104v276h227l22 -299l-194 -270z" />
<glyph unicode="-" horiz-adv-x="888" d="M141 494v178h604v-178h-604z" />
<glyph unicode="." horiz-adv-x="514" d="M139 0v276h234v-276h-234z" />
<glyph unicode="/" horiz-adv-x="942" d="M47 -184l680 1802h168l-678 -1802h-170z" />
<glyph unicode="0" horiz-adv-x="1357" d="M119 717q0 356 143 547.5t418 191.5q274 0 415.5 -191t141.5 -548t-141.5 -548.5t-415.5 -191.5q-275 0 -418 192t-143 548zM342 717q0 -275 84 -420t254 -145q336 0 336 565q0 563 -336 563q-338 0 -338 -563z" />
<glyph unicode="1" horiz-adv-x="780" d="M33 1235l360 199h203v-1434h-219v1221l-254 -134z" />
<glyph unicode="2" horiz-adv-x="1208" d="M90 0v123q0 62 13.5 118t35.5 101.5t56.5 89.5t71 79t84.5 72t91 66.5t96 64.5q1 1 2.5 1.5t2.5 1.5q161 106 216 154q111 98 111 200q0 89 -68 144t-188 55q-105 0 -206.5 -39.5t-176.5 -89.5l-102 145q245 170 508 170q211 0 333 -104t122 -273q0 -53 -14 -103.5 t-34 -89.5t-58 -81.5t-68.5 -71t-83.5 -66.5t-86 -59.5t-92 -58.5q-31 -19 -46 -29q-70 -45 -110 -75.5t-80.5 -71.5t-58 -86.5t-17.5 -100.5h750v-186h-1004z" />
<glyph unicode="3" horiz-adv-x="1218" d="M61 135l101 156q90 -52 200 -89.5t213 -37.5q136 0 224 67t88 179q0 61 -28.5 109t-73.5 78t-104.5 50t-116.5 27.5t-115 7.5h-62v188h72q92 0 172 21.5t137 73.5t57 127q0 84 -64 131t-177 47q-176 0 -365 -119l-94 141q226 164 489 164q206 0 318 -97.5t112 -240.5 q0 -106 -66 -192.5t-196 -134.5q144 -38 236 -141t92 -242q0 -83 -30 -158t-89 -137t-159.5 -99t-229.5 -37q-88 0 -177.5 17t-160.5 44.5t-119 50.5t-84 46z" />
<glyph unicode="4" horiz-adv-x="1312" d="M59 303v160l678 971h287v-945h219v-186h-219v-303h-219v303h-746zM289 489h516v756z" />
<glyph unicode="5" horiz-adv-x="1198" d="M84 133l98 164q37 -25 82 -49.5t129 -52t158 -27.5q135 0 230.5 79.5t95.5 207.5q0 120 -84 201t-230 81q-142 0 -297 -86l-121 72l78 711h819v-187h-641l-30 -373q116 46 239 46q114 0 208 -37.5t155 -101.5t94 -148t33 -178q0 -93 -33 -178t-96 -152.5t-164.5 -107.5 t-228.5 -40q-244 0 -494 156z" />
<glyph unicode="6" horiz-adv-x="1269" d="M113 580q-1 206 62 374.5t170.5 276.5t248 166.5t297.5 58.5q51 0 101 -5.5t74 -10.5l24 -6l-52 -177q-65 17 -143 17q-89 0 -171.5 -28.5t-157.5 -86t-131 -157t-81 -230.5q54 58 148 103t221 45q211 0 335 -129t124 -324q0 -99 -35.5 -187.5t-100.5 -156t-163.5 -107 t-216.5 -39.5q-111 0 -203.5 34t-156 92t-108 135.5t-65 163.5t-20.5 178zM336 559q0 -174 87.5 -286.5t238.5 -112.5q74 0 133 26.5t95 70t54.5 96t18.5 108.5q0 55 -17.5 105.5t-52 92t-92.5 66.5t-131 25q-116 0 -207 -56.5t-127 -124.5v-10z" />
<glyph unicode="7" horiz-adv-x="1046" d="M55 1247v187h957v-168q-11 -13 -30 -37.5t-73.5 -104t-104.5 -161.5t-111 -203t-104.5 -237.5t-73.5 -256t-30 -266.5h-229q0 116 26.5 244.5t65 237t95 226.5t101 197.5t100.5 165.5t77 115t45 61h-711z" />
<glyph unicode="8" horiz-adv-x="1296" d="M98 375q0 63 20 118.5t50.5 96t76.5 77t90.5 61t98.5 48.5q-53 27 -94 56.5t-78.5 69.5t-57.5 92.5t-20 113.5q0 157 126.5 252.5t336.5 95.5t337.5 -95.5t127.5 -252.5q0 -61 -20 -113.5t-57.5 -92.5t-79 -69.5t-95.5 -56.5q70 -30 124.5 -63.5t106.5 -81.5t80.5 -113 t28.5 -143q0 -185 -153 -291.5t-400 -106.5t-398 106.5t-151 291.5zM322 387q0 -107 92.5 -172t232.5 -65q141 0 234.5 65t93.5 172q0 57 -27 104.5t-77 84t-102 62.5t-122 52q-70 -26 -121.5 -52t-101 -62.5t-76 -84t-26.5 -104.5zM399 1090q0 -47 22.5 -86.5t63.5 -68 t77 -46t85 -35.5q49 18 86.5 35.5t78 46t63 68t22.5 86.5q0 81 -70 139.5t-180 58.5q-107 0 -177.5 -59t-70.5 -139z" />
<glyph unicode="9" horiz-adv-x="1269" d="M86 967q0 99 36 187t101 155.5t164 107t217 39.5q138 0 246.5 -51.5t173.5 -138t98.5 -191.5t34.5 -221q1 -206 -62 -374.5t-171 -277t-248.5 -167t-298.5 -58.5q-51 0 -101 5.5t-74 11.5l-24 6l53 176q64 -16 144 -16q88 0 170 28t157 85t131.5 156t81.5 230 q-57 -57 -150 -101t-220 -44q-140 0 -245.5 61t-159.5 163t-54 229zM307 973q0 -55 17.5 -105.5t52 -92t92.5 -66.5t131 -25q118 0 208 56.5t126 125.5v8q0 174 -87.5 287t-238.5 113q-74 0 -133 -26.5t-95 -70t-54.5 -96t-18.5 -108.5z" />
<glyph unicode=":" horiz-adv-x="526" d="M145 0v276h234v-276h-234zM145 680v276h234v-276h-234z" />
<glyph unicode=";" horiz-adv-x="559" d="M154 -217l116 217h-104v276h227l23 -299l-195 -270zM164 680v276h233v-276h-233z" />
<glyph unicode="&#x3c;" horiz-adv-x="1304" d="M104 608v152l1037 426v-191l-809 -313l809 -313v-189z" />
<glyph unicode="=" horiz-adv-x="1304" d="M133 414v166h1038v-166h-1038zM133 791v163h1038v-163h-1038z" />
<glyph unicode="&#x3e;" horiz-adv-x="1304" d="M162 182v191l809 313l-809 313v189l1036 -428v-152z" />
<glyph unicode="?" horiz-adv-x="1058" d="M66 1300q87 61 211 108.5t262 47.5q120 0 218 -40t159 -122t61 -194q0 -72 -25 -132.5t-66 -105t-101 -81t-124 -61t-141 -44.5l-12 -236h-143l-17 355q212 45 311 105t99 171q0 91 -70 145t-180 54q-158 0 -344 -117zM319 0v262h232v-262h-232z" />
<glyph unicode="@" horiz-adv-x="1972" d="M106 518q0 189 63.5 351.5t179 281t287.5 186.5t380 68t372.5 -66t271.5 -184t163 -279.5t57 -355.5q0 -120 -24.5 -222t-72 -180.5t-124.5 -123.5t-176 -45q-58 0 -104.5 16.5t-74.5 41.5t-47.5 59t-28 64.5t-11.5 62.5q-159 -146 -343 -146q-60 0 -113.5 17.5 t-97.5 52.5t-70 95t-26 138q0 77 26 137.5t71 97.5t102 55.5t123 18.5q47 0 104 -8.5t135.5 -25t85.5 -17.5v105q0 103 -41 146.5t-147 43.5q-135 0 -334 -82l-63 121q238 94 422 94q162 0 243.5 -76t81.5 -241v-395q0 -40 1 -65t5 -59.5t13 -55.5t23.5 -41.5t38.5 -30 t56 -9.5q35 0 70 14t71.5 49t64.5 86t45.5 132t17.5 180q0 167 -47.5 308t-140 249t-241 169t-339.5 61q-154 0 -285 -41t-226 -114t-162.5 -172.5t-100.5 -217.5t-33 -248q0 -166 54 -311.5t151 -251t239.5 -166.5t311.5 -61q70 0 136 9.5t110.5 22.5t78.5 26t50 22l16 10 l61 -76q-6 -4 -18.5 -11.5t-55.5 -26.5t-91.5 -33t-126.5 -26t-162 -12q-252 0 -448 116.5t-301.5 317.5t-105.5 451zM733 358q0 -90 51.5 -134t133.5 -44q149 0 296 137v197q-18 3 -74 14t-106 18t-90 7q-108 0 -159.5 -55.5t-51.5 -139.5z" />
<glyph unicode="A" horiz-adv-x="1415" d="M39 0l549 1434h239l551 -1434h-239l-115 328h-633l-115 -328h-237zM453 506h510l-256 731z" />
<glyph unicode="B" horiz-adv-x="1380" d="M180 0v1434h525q247 0 377 -91t130 -260q0 -72 -24.5 -133t-62 -98.5t-77.5 -60.5t-77 -29q38 -5 77.5 -19.5t84 -44t79 -70.5t57.5 -104.5t23 -140.5q0 -181 -124 -282t-367 -101h-621zM399 174h369q152 0 229.5 66t77.5 178q0 252 -370 252h-306v-496zM399 836h291 q139 0 222 53.5t83 161.5q0 98 -73.5 153.5t-223.5 55.5h-299v-424z" />
<glyph unicode="C" horiz-adv-x="1320" d="M113 717q0 150 29.5 273.5t82 209t125 144t156.5 85.5t180 27q78 0 155 -17t153 -50.5t132.5 -64.5t130.5 -77l-110 -160q-61 38 -102.5 61t-103 52t-120 43t-114.5 14q-166 0 -266.5 -144t-100.5 -396t100.5 -396.5t266.5 -144.5q56 0 114.5 14t120 43t103 52t102.5 61 l110 -160q-74 -46 -130.5 -77t-132.5 -64.5t-153 -50.5t-155 -17q-120 0 -222 44.5t-181.5 132t-124.5 232t-45 331.5z" />
<glyph unicode="D" horiz-adv-x="1449" d="M180 0v1434h465q337 0 514.5 -172t177.5 -545t-177.5 -545t-514.5 -172h-465zM399 188h230q250 0 366.5 124t116.5 405q0 280 -116.5 404t-366.5 124h-230v-1057z" />
<glyph unicode="E" horiz-adv-x="1230" d="M180 0v1434h940v-189h-721v-436h594v-184h-594v-437h734v-188h-953z" />
<glyph unicode="F" horiz-adv-x="1175" d="M180 0v1434h940v-189h-721v-436h576v-186h-576v-623h-219z" />
<glyph unicode="G" horiz-adv-x="1441" d="M113 717q0 187 45.5 331.5t125.5 232t182.5 131.5t223.5 44q157 0 300 -59.5t296 -159.5l-110 -162q-57 35 -83.5 50.5t-85.5 46t-99 45t-94.5 27.5t-102.5 13q-168 0 -269.5 -144t-101.5 -396q0 -253 100 -402t271 -149q176 0 389 196v254h-379v179h588v-795h-209v162 q-217 -185 -428 -185q-90 0 -171.5 27t-152.5 86t-123 144t-82 209t-30 274z" />
<glyph unicode="H" horiz-adv-x="1466" d="M180 0v1434h219v-590h668v590h221v-1434h-221v659h-668v-659h-219z" />
<glyph unicode="I" horiz-adv-x="579" d="M180 0v1434h219v-1434h-219z" />
<glyph unicode="J" horiz-adv-x="587" d="M-53 -156q37 12 64.5 21.5t52 20.5t41 18t30 19t21.5 19t14.5 22.5t9 24.5t4.5 29.5t2 33v40.5v2v1340h222v-1330q0 -66 -1.5 -96.5t-8 -76.5t-21.5 -68t-41.5 -53t-69 -50t-103 -40.5t-143.5 -41.5z" />
<glyph unicode="K" horiz-adv-x="1366" d="M180 0v1434h219v-762l631 762h268l-585 -682l637 -752h-265l-501 600l-185 -215v-385h-219z" />
<glyph unicode="L" horiz-adv-x="1140" d="M180 0v1434h219v-1246h699v-188h-918z" />
<glyph unicode="M" horiz-adv-x="1732" d="M180 0v1434h228l458 -955l457 955h229v-1434h-219v1077l-401 -837h-131l-402 835v-1075h-219z" />
<glyph unicode="N" horiz-adv-x="1499" d="M180 0v1434h226l694 -1108v1108h221v-1434h-225l-697 1108v-1108h-219z" />
<glyph unicode="O" horiz-adv-x="1525" d="M113 717q0 126 22 234.5t71.5 202.5t124 160t184.5 104t247 38q138 0 248 -38t185 -104t124.5 -160t71.5 -202.5t22 -234.5t-22 -234t-72 -202.5t-124 -161t-184.5 -104.5t-248.5 -38q-137 0 -247 38t-184.5 104.5t-124 161t-71.5 202.5t-22 234zM340 717 q0 -96 13.5 -176t44.5 -150.5t79 -119t120.5 -76t164.5 -27.5q115 0 199 41.5t132 118t70.5 172.5t22.5 217q0 120 -22.5 216t-70.5 172.5t-132 118.5t-199 42t-198.5 -42t-131.5 -118.5t-70 -172.5t-22 -216z" />
<glyph unicode="P" horiz-adv-x="1331" d="M180 0v1434h539q259 0 403 -108.5t144 -338.5q0 -446 -547 -446h-320v-541h-219zM399 725h316q327 0 327 262q0 260 -327 260h-316v-522z" />
<glyph unicode="Q" horiz-adv-x="1525" d="M113 717q0 126 22 234.5t71.5 202.5t124 160t184.5 104t247 38q138 0 248 -38t185 -104t124.5 -160t71.5 -202.5t22 -234.5q0 -127 -23.5 -237t-72 -203.5t-129 -162t-187.5 -102.5l234 -186l-148 -152l-325 303q-137 0 -247 38t-184.5 104.5t-124 161t-71.5 202.5 t-22 234zM340 717q0 -96 13.5 -176t44.5 -150.5t79 -119t120.5 -76t164.5 -27.5q115 0 199 41.5t132 118t70.5 172.5t22.5 217q0 120 -22.5 216t-70.5 172.5t-132 118.5t-199 42t-198.5 -42t-131.5 -118.5t-70 -172.5t-22 -216z" />
<glyph unicode="R" horiz-adv-x="1413" d="M180 0v1434h582q551 0 551 -422q0 -351 -381 -412l383 -600h-244l-356 590h-316v-590h-219zM399 768h353q335 0 335 244q0 243 -327 243h-361v-487z" />
<glyph unicode="S" horiz-adv-x="1255" d="M82 158l100 161q104 -61 245 -108t253 -47q115 0 194.5 52.5t79.5 150.5q0 27 -6 50t-22 43t-31 36t-45.5 33t-51 28t-63.5 27t-67 24.5t-76.5 26.5t-79.5 27q-66 22 -113.5 41.5t-105.5 54t-94 74.5t-61 100t-25 133q0 179 132.5 285t344.5 106q133 0 280 -40t260 -99 l-100 -162q-97 48 -218.5 81.5t-211.5 33.5q-109 0 -183.5 -49t-74.5 -144q0 -33 10 -60t33.5 -48.5t47.5 -37t65.5 -32t74 -27.5t87 -28.5t90.5 -30.5q48 -16 84.5 -29.5t84 -36t82.5 -46t71.5 -57t59.5 -71t37.5 -87t14.5 -105.5q0 -187 -142.5 -295.5t-357.5 -108.5 q-158 0 -321.5 54t-280.5 127z" />
<glyph unicode="T" horiz-adv-x="1183" d="M41 1245v189h1102v-189h-441v-1245h-219v1245h-442z" />
<glyph unicode="U" horiz-adv-x="1443" d="M166 543v891h219v-904q0 -65 8 -116t30.5 -98.5t59.5 -79t97.5 -50t142.5 -18.5q81 0 141 18.5t97 50t59 79t30.5 98.5t8.5 116v904h221v-891q0 -99 -16 -180t-55 -154.5t-101 -123.5t-160 -79t-225 -29q-128 0 -226 29t-160 79t-101 123.5t-54.5 154.5t-15.5 180z" />
<glyph unicode="V" horiz-adv-x="1411" d="M35 1434h252l418 -1203l419 1203h250l-549 -1434h-239z" />
<glyph unicode="W" horiz-adv-x="1955" d="M59 1434h248l277 -1158l297 1158h192l297 -1158l279 1158h247l-399 -1434h-227l-293 1120l-293 -1120h-227z" />
<glyph unicode="X" horiz-adv-x="1300" d="M33 0l489 717l-465 717h254l338 -584l340 584h254l-465 -717l490 -717h-262l-357 569l-354 -569h-262z" />
<glyph unicode="Y" horiz-adv-x="1318" d="M27 1434h247l385 -693l383 693h248l-522 -867v-567h-219v567z" />
<glyph unicode="Z" horiz-adv-x="1271" d="M74 0v172l821 1073h-776v189h1057v-172l-824 -1074h834v-188h-1112z" />
<glyph unicode="[" horiz-adv-x="710" d="M164 -295v2013h485v-137h-264v-1737h264v-139h-485z" />
<glyph unicode="\" horiz-adv-x="940" d="M45 1618h168l680 -1802h-168z" />
<glyph unicode="]" horiz-adv-x="710" d="M61 -158h265v1737h-265v139h486v-2013h-486v137z" />
<glyph unicode="^" horiz-adv-x="1298" d="M154 696l387 738h215l389 -738h-232l-264 549l-266 -549h-229z" />
<glyph unicode="_" horiz-adv-x="1447" d="M141 -162h1166v-155h-1166v155z" />
<glyph unicode="`" horiz-adv-x="452" d="M-35 1493h266l254 -272h-174z" />
<glyph unicode="a" horiz-adv-x="1196" d="M86 324q0 87 30 155t82.5 110t120.5 63.5t146 21.5q56 0 125.5 -10t155 -27t96.5 -19v109q0 108 -47 156.5t-168 48.5q-79 0 -170.5 -22t-227.5 -66l-71 151q288 103 501 103q199 0 296.5 -87.5t97.5 -283.5v-727h-211v137q-173 -160 -393 -160q-72 0 -135.5 21.5 t-115 62.5t-82 109t-30.5 154zM301 338q0 -97 55.5 -144t151.5 -47q169 0 334 144v211q-12 2 -60 11.5t-80.5 15t-79 11t-81.5 5.5q-125 0 -182.5 -56.5t-57.5 -150.5z" />
<glyph unicode="b" horiz-adv-x="1251" d="M154 0v1493h211v-551q177 156 372 156q185 0 299.5 -140.5t114.5 -420.5q0 -279 -114.5 -419.5t-299.5 -140.5q-198 0 -372 154v-131h-211zM365 311q65 -73 148 -116t173 -43q123 0 186.5 100.5t63.5 284.5q0 185 -63.5 286t-186.5 101q-89 0 -172.5 -44.5t-148.5 -117.5 v-451z" />
<glyph unicode="c" horiz-adv-x="1067" d="M98 539q0 137 39 246t105.5 176t150.5 102t178 35q62 0 126 -13.5t128.5 -40t95.5 -41.5t83 -42l-93 -158q-5 2 -29 15.5t-38.5 20.5t-42 20.5t-50 21.5t-50 17t-54 13t-51.5 4q-123 0 -202 -102.5t-79 -273.5t79 -275t202 -104q25 0 51.5 4t54 13t50 17t50 21.5t42 20.5 t38.5 20.5t29 15.5l93 -157q-253 -138 -433 -138q-94 0 -178 35.5t-150.5 103t-105.5 177t-39 246.5z" />
<glyph unicode="d" horiz-adv-x="1251" d="M100 537q0 280 114.5 420.5t299.5 140.5q201 0 373 -156v551h211v-1493h-211v131q-174 -154 -373 -154q-185 0 -299.5 140.5t-114.5 419.5zM315 537q0 -184 63.5 -284.5t186.5 -100.5q87 0 171.5 43.5t150.5 115.5v451q-67 73 -151 117.5t-171 44.5q-123 0 -186.5 -101 t-63.5 -286z" />
<glyph unicode="e" horiz-adv-x="1181" d="M96 537q0 265 140 413t372 148q228 0 350.5 -129.5t122.5 -339.5q0 -36 -3.5 -71.5t-7.5 -53.5l-3 -17h-752q10 -163 86 -254.5t199 -91.5q63 0 143.5 25.5t130.5 50t125 64.5l91 -136q-49 -28 -70.5 -40t-83.5 -41.5t-108 -44.5t-113.5 -28.5t-130.5 -13.5 q-101 0 -188.5 35t-155 103t-106 176.5t-38.5 245.5zM315 614h557v14q0 154 -66 231q-69 81 -198 81q-126 0 -202 -86.5t-91 -239.5z" />
<glyph unicode="f" horiz-adv-x="749" d="M59 915v160h150v117q0 159 68 230t196 71q77 0 172 -24.5t162 -51.5l-76 -153q-153 47 -215 47q-45 0 -71.5 -24.5t-26.5 -86.5v-125h282v-160h-282v-915h-209v915h-150z" />
<glyph unicode="g" horiz-adv-x="1251" d="M100 537q0 280 114.5 420.5t299.5 140.5q201 0 373 -156v133h211v-1118q0 -395 -428 -395q-111 0 -253 22t-267 58q28 114 43 170q273 -80 442 -80q131 0 191.5 50.5t60.5 166.5v182q-174 -154 -373 -154q-185 0 -299.5 140.5t-114.5 419.5zM315 537q0 -184 63.5 -284.5 t186.5 -100.5q87 0 171.5 43.5t150.5 115.5v451q-67 73 -151 117.5t-171 44.5q-123 0 -186.5 -101t-63.5 -286z" />
<glyph unicode="h" d="M154 0v1493h211v-561q236 166 434 166q85 0 146.5 -25t96.5 -72t51.5 -105t16.5 -132v-764h-211v721q0 98 -38 152.5t-132 54.5q-92 0 -195 -52.5t-169 -111.5v-764h-211z" />
<glyph unicode="i" horiz-adv-x="518" d="M145 1270v217h230v-217h-230zM152 0v1075h210v-1075h-210z" />
<glyph unicode="j" horiz-adv-x="524" d="M-80 -287q64 21 101.5 34.5t67 32.5t42 31t20 40.5t8.5 49t1 68.5v1106h213v-1093q0 -66 -1 -96t-7.5 -76.5t-21.5 -68.5t-41.5 -53t-68.5 -50t-101.5 -40.5t-141.5 -41.5zM152 1270v217h229v-217h-229z" />
<glyph unicode="k" horiz-adv-x="1112" d="M154 0v1493h211v-948l413 530h246l-362 -430l428 -645h-230l-325 494l-170 -201v-293h-211z" />
<glyph unicode="l" horiz-adv-x="532" d="M162 0v1493h211v-1493h-211z" />
<glyph unicode="m" horiz-adv-x="1892" d="M154 0v1075h211v-151q74 68 176.5 121t210.5 53q225 0 284 -195q32 31 71.5 61t93.5 62t118.5 52t126.5 20q160 0 231.5 -90.5t71.5 -243.5v-764h-211v721q0 96 -35.5 151.5t-126.5 55.5q-84 0 -171 -52.5t-150 -121.5v-754h-209v721q0 96 -36.5 151.5t-127.5 55.5 q-81 0 -166.5 -50.5t-150.5 -117.5v-760h-211z" />
<glyph unicode="n" d="M154 0v1075h211v-143q236 166 434 166q85 0 146.5 -25t96.5 -72t51.5 -105t16.5 -132v-764h-211v721q0 98 -38 152.5t-132 54.5q-92 0 -195 -52.5t-169 -111.5v-764h-211z" />
<glyph unicode="o" horiz-adv-x="1245" d="M100 537q0 265 135 413t388 148q251 0 386.5 -148t135.5 -413t-135.5 -412.5t-386.5 -147.5q-252 0 -387.5 148t-135.5 412zM315 537q0 -186 76 -289t232 -103t231.5 102.5t75.5 289.5t-75.5 290t-231.5 103t-232 -103t-76 -290z" />
<glyph unicode="p" horiz-adv-x="1251" d="M154 -418v1493h211v-133q172 156 372 156q185 0 299.5 -140.5t114.5 -420.5q0 -279 -114.5 -419.5t-299.5 -140.5q-198 0 -372 154v-549h-211zM365 311q65 -73 148 -116t173 -43q123 0 186.5 100.5t63.5 284.5q0 185 -63.5 286t-186.5 101q-89 0 -172.5 -44.5 t-148.5 -117.5v-451z" />
<glyph unicode="q" horiz-adv-x="1251" d="M100 537q0 280 114.5 420.5t299.5 140.5q201 0 373 -156v133h211v-1493h-211v549q-174 -154 -373 -154q-185 0 -299.5 140.5t-114.5 419.5zM315 537q0 -184 63.5 -284.5t186.5 -100.5q87 0 171.5 43.5t150.5 115.5v451q-67 73 -151 117.5t-171 44.5q-123 0 -186.5 -101 t-63.5 -286z" />
<glyph unicode="r" horiz-adv-x="815" d="M154 0v1075h211v-227q7 19 21 44t48 64t76.5 68.5t111.5 49.5q53 15 111 14q18 0 37 -1v-200q-74 0 -137 -19t-103.5 -48.5t-72 -66t-48.5 -73t-27.5 -66t-13.5 -48.5l-3 -19v-547h-211z" />
<glyph unicode="s" horiz-adv-x="1064" d="M80 111l90 155q89 -48 203.5 -84.5t201.5 -36.5q83 0 142 35t59 96q0 26 -11.5 49t-34.5 40t-48 31t-60.5 26t-64 20t-65.5 18q-18 5 -27 7q-59 16 -103 31t-96 43t-85.5 60.5t-56 82.5t-22.5 111q0 139 106.5 221t285.5 82q217 0 448 -111l-90 -145q-83 37 -179.5 63.5 t-170.5 26.5q-84 0 -136.5 -33.5t-52.5 -93.5q0 -24 8.5 -44.5t28.5 -36.5t37 -27.5t51 -23t52 -17t58 -16t52 -13.5q72 -19 126 -39t105 -49t84 -63.5t52.5 -82.5t19.5 -106q0 -149 -113.5 -229.5t-291.5 -80.5q-131 0 -266.5 40.5t-235.5 93.5z" />
<glyph unicode="t" horiz-adv-x="811" d="M61 915v160h150v271l209 40v-311h295v-160h-295v-643q0 -62 26 -86t72 -24q68 0 193 53l77 -158q-59 -29 -144.5 -54.5t-168.5 -25.5q-264 0 -264 302v636h-150z" />
<glyph unicode="u" d="M143 311v764h211v-721q0 -98 38 -152.5t134 -54.5q90 0 193 51.5t170 110.5v766h211v-1075h-211v143q-229 -166 -436 -166q-163 0 -236.5 90.5t-73.5 243.5z" />
<glyph unicode="v" horiz-adv-x="1161" d="M47 1075h229l304 -858l305 858h231l-432 -1075h-207z" />
<glyph unicode="w" horiz-adv-x="1691" d="M57 1075h226l225 -856l246 856h184l246 -856l225 856h223l-336 -1075h-202l-248 823l-248 -823h-205z" />
<glyph unicode="x" horiz-adv-x="1206" d="M33 0l442 541l-418 534h246l299 -418l299 418h248l-420 -534l445 -541h-256l-316 426l-313 -426h-256z" />
<glyph unicode="y" horiz-adv-x="1163" d="M47 1075h229l306 -825l303 825h231l-600 -1493h-229l188 422z" />
<glyph unicode="z" horiz-adv-x="1077" d="M82 0v156l635 743h-615v176h885v-155l-633 -744h633v-176h-905z" />
<glyph unicode="{" horiz-adv-x="808" d="M45 633v160q115 0 166 57.5t33 185.5l-27 191q-32 239 95 365t399 126h37v-135h-37q-73 0 -126.5 -18.5t-83.5 -50t-47.5 -73.5t-18.5 -90t3 -98l25 -178q20 -160 -39 -247t-197 -115q138 -30 197 -117.5t39 -245.5l-25 -178q-39 -330 273 -330h37v-135h-37 q-272 0 -399 126.5t-95 365.5l27 190q18 128 -33.5 186t-165.5 58z" />
<glyph unicode="|" horiz-adv-x="493" d="M166 -252v1927h162v-1927h-162z" />
<glyph unicode="}" horiz-adv-x="808" d="M61 -158h37q73 0 126.5 18.5t83.5 50t47.5 73.5t18.5 90t-3 98l-25 178q-20 160 39 247.5t197 115.5q-138 30 -197 117t-39 245l25 178q39 330 -273 330h-37v135h37q272 0 399 -126t95 -365l-27 -191q-18 -128 33 -185.5t166 -57.5v-160q-114 0 -165.5 -58t-33.5 -186 l27 -190q32 -239 -95 -365.5t-399 -126.5h-37v135z" />
<glyph unicode="~" horiz-adv-x="1312" d="M82 461q120 264 332 264q56 0 112 -15.5t102 -38t90.5 -45t94 -38t96.5 -15.5q35 0 62.5 9t62.5 41t66 88l133 -56q-117 -262 -332 -262q-67 0 -138 23.5t-122 52.5t-115.5 52.5t-119.5 23.5q-54 0 -98 -28t-91 -109z" />
<glyph unicode="&#xa1;" horiz-adv-x="555" d="M150 0l63 993h129l64 -993h-256zM160 1171v263h233v-263h-233z" />
<glyph unicode="&#xa2;" horiz-adv-x="1140" d="M115 719q0 131 35.5 237t97.5 173t140 104.5t167 42.5v158h160v-170q134 -30 327 -138l-92 -155q-9 5 -42.5 23t-58.5 31t-63 29t-71 25v-725q90 25 235 111l92 -156q-58 -32 -89.5 -49t-103 -46t-134.5 -42v-172h-160v158q-89 6 -167 44t-140 106t-97.5 174t-35.5 237z M332 719q0 -150 61 -249.5t162 -123.5v744q-101 -24 -162 -122.5t-61 -248.5z" />
<glyph unicode="&#xa3;" horiz-adv-x="1146" d="M113 0v154q9 6 25 16.5t57 47.5t73 77t60 102.5t32 126.5h-225v140h205q-16 45 -49 102.5t-60.5 100.5t-49 107t-21.5 130q0 161 110.5 256.5t300.5 95.5q72 0 141 -13.5t136.5 -41t105.5 -46.5t99 -52l-103 -148q-215 115 -346 115q-108 0 -166.5 -56.5t-58.5 -140.5 q0 -49 22 -102t50.5 -93.5t60 -99.5t45.5 -114h334v-140h-324q-11 -106 -68 -200.5t-108 -137.5h637v-186h-915z" />
<glyph unicode="&#xa5;" horiz-adv-x="1388" d="M61 1434h248l385 -693l383 693h248l-416 -691h283v-137h-367l-22 -39v-102h389v-137h-389v-328h-219v328h-389v137h389v102l-25 39h-364v137h282z" />
<glyph unicode="&#xa6;" horiz-adv-x="497" d="M168 -252v846h162v-846h-162zM168 829v846h162v-846h-162z" />
<glyph unicode="&#xa7;" horiz-adv-x="1089" d="M113 659q0 178 190 248q-149 85 -149 246q0 139 107 221t286 82q116 0 234 -32.5t210 -77.5l-88 -146q-81 37 -177.5 63.5t-172.5 26.5q-84 0 -137.5 -33.5t-53.5 -93.5q0 -24 8.5 -44.5t29 -36.5t37.5 -27.5t51.5 -23t52.5 -17t59 -16t53 -13.5q91 -24 158 -52.5 t120.5 -68t81 -93t27.5 -120.5q0 -183 -192 -250q149 -88 149 -245q0 -139 -106 -221t-285 -82q-117 0 -235.5 32.5t-210.5 77.5l88 146q202 -91 352 -91q82 0 134 33.5t52 93.5q0 19 -5 35.5t-17.5 30.5t-24 25t-33.5 21t-36 16.5t-42.5 15t-42 12t-44.5 11.5t-41 10 q-185 47 -286 128.5t-101 208.5zM315 682q0 -24 10 -45t23.5 -36.5t40 -31t46.5 -24.5t56 -21t55.5 -17.5t58.5 -15.5q20 -5 30 -8l12 -4q88 11 139.5 50.5t51.5 97.5q0 27 -11 50.5t-35.5 41.5t-47.5 31.5t-62 26.5t-64 20.5t-68 18.5q-23 6 -34 9q-2 0 -6 1t-6 1 q-88 -9 -138.5 -48t-50.5 -97z" />
<glyph unicode="&#xa8;" horiz-adv-x="485" d="M-31 1241v207h193v-207h-193zM324 1241v207h190v-207h-190z" />
<glyph unicode="&#xa9;" horiz-adv-x="1679" d="M111 717q0 156 49 290.5t140 234.5t230.5 157t311.5 57t311 -57t230 -157t139.5 -234.5t48.5 -290.5t-48.5 -290.5t-139.5 -234.5t-230 -157.5t-311 -57.5t-311.5 57.5t-230.5 157.5t-140 234.5t-49 290.5zM188 717q0 -141 43.5 -262t124.5 -210.5t205.5 -140.5 t278.5 -51q204 0 354 88.5t224.5 237t74.5 338.5q0 141 -43.5 262t-125 210t-206 140t-278.5 51t-278.5 -51t-205.5 -140t-124.5 -210t-43.5 -262zM471 715q0 212 101.5 329t254.5 117q72 0 143 -23t109 -45.5t90 -58.5l-57 -65q-44 32 -71.5 49.5t-88.5 39t-121 21.5 q-118 0 -191 -100t-73 -264q0 -163 73 -262t191 -99q46 0 88 9.5t83 31t57.5 31.5t52.5 35l57 -64q-52 -36 -90 -58.5t-109 -45.5t-143 -23q-152 0 -254 117t-102 328z" />
<glyph unicode="&#xaa;" horiz-adv-x="772" d="M55 985q0 99 68.5 154t175.5 55q63 0 231 -33v58q0 58 -29 84t-100 26q-80 0 -249 -49l-50 106q196 62 324 62q132 0 195 -55t63 -179v-426h-154v80q-107 -94 -243 -94q-98 0 -165 55.5t-67 155.5zM213 995q0 -51 32.5 -75.5t88.5 -24.5q102 0 196 78v108 q-134 25 -176 25q-73 0 -107 -30t-34 -81z" />
<glyph unicode="&#xab;" horiz-adv-x="1396" d="M70 500v133l624 448v-207l-442 -309l442 -307v-205zM653 500v133l625 448v-207l-442 -309l442 -307v-205z" />
<glyph unicode="&#xac;" horiz-adv-x="1306" d="M51 600v164h1190v-580h-180v416h-1010z" />
<glyph unicode="&#xad;" horiz-adv-x="888" d="M141 494v178h604v-178h-604z" />
<glyph unicode="&#xae;" horiz-adv-x="1019" d="M104 1065q0 178 108.5 294t297.5 116q188 0 295.5 -116t107.5 -294t-107.5 -294t-295.5 -116q-189 0 -297.5 116t-108.5 294zM178 1065q0 -152 85 -247t247 -95q161 0 245.5 95t84.5 247t-84.5 247t-245.5 95q-162 0 -247 -95t-85 -247zM358 864v412h191q64 0 101.5 -33 t37.5 -86q0 -41 -28.5 -72.5t-73.5 -42.5l96 -178h-76l-90 174h-90v-174h-68zM426 1102h121q71 0 71 55q0 57 -67 57h-125v-112z" />
<glyph unicode="&#xaf;" horiz-adv-x="608" d="M0 1272v135h608v-135h-608z" />
<glyph unicode="&#xb0;" horiz-adv-x="1026" d="M88 1087q0 143 103 246t247 103q142 0 245 -103t103 -246q0 -144 -102.5 -247t-245.5 -103q-145 0 -247.5 102.5t-102.5 247.5zM221 1087q0 -91 63 -154t154 -63q89 0 152 63t63 154q0 89 -63 152.5t-152 63.5q-90 0 -153.5 -63.5t-63.5 -152.5z" />
<glyph unicode="&#xb1;" horiz-adv-x="1304" d="M133 0v145h1038v-145h-1038zM133 614v164h430v316h168v-316h440v-164h-440v-317h-168v317h-430z" />
<glyph unicode="&#xb2;" horiz-adv-x="782" d="M57 788v80q0 51 17.5 97t40.5 78.5t67 69t75 57.5t85 55q9 5 26 16q49 30 72.5 45.5t53 40t41.5 47.5t12 49q0 46 -40.5 76.5t-111.5 30.5q-63 0 -128 -25t-111 -55l-74 104q170 109 334 109q136 0 214.5 -65.5t78.5 -167.5q0 -57 -22 -104t-71 -88.5t-83.5 -64.5 t-103.5 -62q-13 -7 -19 -11q-83 -50 -122.5 -88t-39.5 -90h463v-134h-654z" />
<glyph unicode="&#xb3;" horiz-adv-x="788" d="M39 877l74 108q138 -78 264 -78q80 0 130 35.5t50 95.5q0 42 -25.5 72t-67.5 45.5t-84.5 22t-88.5 6.5h-43v133h49q86 0 153.5 29.5t67.5 89.5q0 44 -36.5 69t-100.5 25q-107 0 -234 -72l-65 101q23 18 59.5 38.5t111 43t150.5 22.5q134 0 205.5 -59.5t71.5 -147.5 q0 -64 -41.5 -114.5t-118.5 -77.5q88 -24 143.5 -85.5t55.5 -142.5q0 -50 -18.5 -95.5t-55.5 -83.5t-101.5 -60.5t-148.5 -22.5q-180 0 -356 103z" />
<glyph unicode="&#xb4;" horiz-adv-x="452" d="M-35 1221l254 272h266l-344 -272h-176z" />
<glyph unicode="&#xb5;" horiz-adv-x="1251" d="M164 -418v1493h211v-721q0 -98 38 -152.5t134 -54.5q90 0 192.5 51.5t169.5 110.5v766h211v-1075h-211v143q-229 -166 -436 -166q-45 0 -98 11v-406h-211z" />
<glyph unicode="&#xb6;" horiz-adv-x="1355" d="M68 977q0 228 136.5 342.5t391.5 114.5h182v-1813h-186v897q-237 0 -380.5 117t-143.5 342zM985 -381v1815h186v-1815h-186z" />
<glyph unicode="&#xb7;" horiz-adv-x="518" d="M141 444v277h234v-277h-234z" />
<glyph unicode="&#xb8;" horiz-adv-x="360" d="M-12 -319l49 116q56 -26 102 -26q49 0 79 21.5t30 66.5q0 32 -15.5 68t-30.5 57l-16 20h103q3 -4 9 -10t20.5 -26.5t25.5 -41.5t20 -51t9 -59q0 -83 -60.5 -128.5t-156.5 -45.5q-89 0 -168 39z" />
<glyph unicode="&#xb9;" horiz-adv-x="518" d="M23 1524l233 125h152v-861h-162v709l-158 -78z" />
<glyph unicode="&#xba;" horiz-adv-x="800" d="M63 1110q0 160 87.5 249t250.5 89q161 0 248.5 -89t87.5 -249q0 -159 -87 -247.5t-249 -88.5q-163 0 -250.5 89t-87.5 247zM219 1110q0 -215 182 -215q181 0 181 215q0 217 -181 217q-182 0 -182 -217z" />
<glyph unicode="&#xbb;" horiz-adv-x="1396" d="M119 51v207l442 309l-442 307v205l624 -446v-133zM702 51v207l443 309l-443 307v205l625 -446v-133z" />
<glyph unicode="&#xbc;" horiz-adv-x="1712" d="M55 1309l234 125h151v-861h-161v709l-158 -78zM338 0l680 1434h170l-680 -1434h-170zM860 174v113l420 573h213v-555h137v-131h-137v-174h-160v174h-473zM1028 305h305v426z" />
<glyph unicode="&#xbd;" horiz-adv-x="1751" d="M55 1309l234 125h151v-861h-161v709l-158 -78zM338 0l680 1434h170l-680 -1434h-170zM991 0v80q0 51 17.5 97t40.5 78t67 69t74.5 57.5t85.5 54.5q117 72 148 99q56 50 57 100q0 46 -40.5 76t-111.5 30q-63 0 -128.5 -24.5t-110.5 -54.5l-74 104q169 108 334 108 q136 0 214 -65t78 -168q0 -57 -22 -104t-71 -88.5t-83.5 -64.5t-103.5 -62q-5 -3 -7 -4t-5.5 -3t-6.5 -4q-82 -49 -121.5 -87.5t-39.5 -90.5h463v-133h-654z" />
<glyph unicode="&#xbe;" horiz-adv-x="1925" d="M78 662l74 108q138 -78 264 -78q80 0 130 35.5t50 95.5q0 42 -25.5 72t-67.5 45.5t-84.5 22t-88.5 6.5h-43v133h49q86 0 153.5 29.5t67.5 89.5q0 44 -36.5 69t-100.5 25q-107 0 -234 -72l-65 100q23 19 59.5 39.5t111 43t150.5 22.5q134 0 205.5 -59.5t71.5 -147.5 q0 -64 -41.5 -114.5t-118.5 -77.5q88 -24 143.5 -85.5t55.5 -142.5q0 -50 -18.5 -95.5t-55.5 -83.5t-101.5 -60.5t-148.5 -22.5q-180 0 -356 103zM559 0l680 1434h170l-680 -1434h-170zM1079 174v113l420 573h213v-555h137v-131h-137v-174h-160v174h-473zM1247 305h305v426z " />
<glyph unicode="&#xbf;" horiz-adv-x="1052" d="M82 334q0 72 25 132.5t66 105t101 81t124 61t141 44.5l12 235h143l17 -354q-211 -45 -310.5 -105.5t-99.5 -171.5q0 -91 69.5 -144.5t180.5 -53.5q158 0 344 117l98 -148q-87 -61 -211 -108.5t-262 -47.5q-120 0 -218 40t-159 122.5t-61 194.5zM508 1171v263h231v-263 h-231z" />
<glyph unicode="&#xc0;" horiz-adv-x="1415" d="M39 0l549 1434h239l551 -1434h-239l-115 328h-633l-115 -328h-237zM365 1802h266l254 -272h-174zM453 506h510l-256 731z" />
<glyph unicode="&#xc1;" horiz-adv-x="1415" d="M39 0l549 1434h239l551 -1434h-239l-115 328h-633l-115 -328h-237zM453 506h510l-256 731zM530 1530l254 272h267l-344 -272h-177z" />
<glyph unicode="&#xc2;" horiz-adv-x="1415" d="M39 0l549 1434h239l551 -1434h-239l-115 328h-633l-115 -328h-237zM389 1530l207 272h225l209 -272h-153l-168 168l-166 -168h-154zM453 506h510l-256 731z" />
<glyph unicode="&#xc3;" horiz-adv-x="1415" d="M39 0l549 1434h239l551 -1434h-239l-115 328h-633l-115 -328h-237zM367 1597q25 48 40.5 73t41 55.5t54.5 43.5t66 13q45 0 98 -25t98.5 -49.5t72.5 -24.5q25 0 48 18.5t54 76.5l107 -47q-21 -44 -38.5 -73t-42 -57.5t-55 -42.5t-67.5 -14q-45 0 -98 24.5t-98.5 49 t-72.5 24.5q-25 0 -47.5 -18t-54.5 -76zM453 506h510l-256 731z" />
<glyph unicode="&#xc4;" horiz-adv-x="1415" d="M39 0l549 1434h239l551 -1434h-239l-115 328h-633l-115 -328h-237zM436 1554v207h193v-207h-193zM453 506h510l-256 731zM791 1554v207h190v-207h-190z" />
<glyph unicode="&#xc5;" horiz-adv-x="1415" d="M39 0l549 1434h239l551 -1434h-239l-115 328h-633l-115 -328h-237zM453 506h510l-256 731zM492 1729q0 91 64 155t155 64t155 -64t64 -155t-64 -155.5t-155 -64.5t-155 64.5t-64 155.5zM604 1729q0 -44 31.5 -75.5t75.5 -31.5t75 31.5t31 75.5t-31 75t-75 31t-75.5 -31 t-31.5 -75z" />
<glyph unicode="&#xc6;" horiz-adv-x="2113" d="M-8 0l981 1434h1028v-189h-721v-436h594v-184h-594v-437h733v-188h-952v328h-592l-217 -328h-260zM590 510h471v711z" />
<glyph unicode="&#xc7;" horiz-adv-x="1323" d="M113 717q0 150 29.5 273.5t82 209t125 144t156.5 85.5t180 27q78 0 155 -17t153 -50.5t132.5 -64.5t130.5 -77l-110 -160q-61 38 -102.5 61t-103 52t-120 43t-114.5 14q-166 0 -266.5 -144t-100.5 -396t100.5 -396.5t266.5 -144.5q56 0 114.5 14t120 43t103 52t102.5 61 l110 -160q-133 -84 -252 -137t-247 -67q65 -81 65 -166q0 -83 -60.5 -128.5t-156.5 -45.5q-89 0 -168 39l49 116q56 -26 103 -26q49 0 78.5 21.5t29.5 66.5q0 52 -43 121q-115 5 -211.5 52t-171.5 134.5t-117 228.5t-42 322z" />
<glyph unicode="&#xc8;" horiz-adv-x="1230" d="M180 0v1434h940v-189h-721v-436h594v-184h-594v-437h734v-188h-953zM313 1802h267l254 -272h-175z" />
<glyph unicode="&#xc9;" horiz-adv-x="1230" d="M180 0v1434h940v-189h-721v-436h594v-184h-594v-437h734v-188h-953zM479 1530l254 272h266l-344 -272h-176z" />
<glyph unicode="&#xca;" horiz-adv-x="1230" d="M180 0v1434h940v-189h-721v-436h594v-184h-594v-437h734v-188h-953zM336 1530l207 272h225l209 -272h-154l-168 168l-166 -168h-153z" />
<glyph unicode="&#xcb;" horiz-adv-x="1230" d="M180 0v1434h940v-189h-721v-436h594v-184h-594v-437h734v-188h-953zM383 1550v207h192v-207h-192zM737 1550v207h191v-207h-191z" />
<glyph unicode="&#xcc;" horiz-adv-x="587" d="M-47 1802h266l254 -272h-174zM186 0v1434h220v-1434h-220z" />
<glyph unicode="&#xcd;" horiz-adv-x="587" d="M115 1530l254 272h266l-344 -272h-176zM180 0v1434h219v-1434h-219z" />
<glyph unicode="&#xce;" horiz-adv-x="589" d="M-25 1530l207 272h226l208 -272h-153l-168 168l-166 -168h-154zM186 0v1434h220v-1434h-220z" />
<glyph unicode="&#xcf;" horiz-adv-x="589" d="M23 1548v207h192v-207h-192zM186 0v1434h220v-1434h-220zM377 1548v207h190v-207h-190z" />
<glyph unicode="&#xd0;" horiz-adv-x="1468" d="M45 629v176h154v629h465q337 0 514.5 -172t177.5 -545t-177.5 -545t-514.5 -172h-465v629h-154zM418 188h229q250 0 366.5 124t116.5 405q0 280 -116.5 404t-366.5 124h-229v-440h330v-176h-330v-441z" />
<glyph unicode="&#xd1;" horiz-adv-x="1499" d="M180 0v1434h226l694 -1108v1108h221v-1434h-225l-697 1108v-1108h-219zM420 1606q20 37 32.5 58.5t32.5 48.5t38.5 41.5t44 25t55.5 10.5q45 0 97.5 -24.5t98 -49t72.5 -24.5q26 0 48.5 18t53.5 76l107 -47q-21 -44 -38.5 -73t-42 -57.5t-55 -42.5t-67.5 -14 q-45 0 -97.5 25t-98 49.5t-72.5 24.5q-25 0 -48 -18.5t-55 -76.5z" />
<glyph unicode="&#xd2;" horiz-adv-x="1525" d="M113 717q0 126 22 234.5t71.5 202.5t124 160t184.5 104t247 38q138 0 248 -38t185 -104t124.5 -160t71.5 -202.5t22 -234.5t-22 -234t-72 -202.5t-124 -161t-184.5 -104.5t-248.5 -38q-137 0 -247 38t-184.5 104.5t-124 161t-71.5 202.5t-22 234zM340 717 q0 -96 13.5 -176t44.5 -150.5t79 -119t120.5 -76t164.5 -27.5q115 0 199 41.5t132 118t70.5 172.5t22.5 217q0 120 -22.5 216t-70.5 172.5t-132 118.5t-199 42t-198.5 -42t-131.5 -118.5t-70 -172.5t-22 -216zM418 1802h266l254 -272h-174z" />
<glyph unicode="&#xd3;" horiz-adv-x="1525" d="M113 717q0 126 22 234.5t71.5 202.5t124 160t184.5 104t247 38q138 0 248 -38t185 -104t124.5 -160t71.5 -202.5t22 -234.5t-22 -234t-72 -202.5t-124 -161t-184.5 -104.5t-248.5 -38q-137 0 -247 38t-184.5 104.5t-124 161t-71.5 202.5t-22 234zM340 717 q0 -96 13.5 -176t44.5 -150.5t79 -119t120.5 -76t164.5 -27.5q115 0 199 41.5t132 118t70.5 172.5t22.5 217q0 120 -22.5 216t-70.5 172.5t-132 118.5t-199 42t-198.5 -42t-131.5 -118.5t-70 -172.5t-22 -216zM584 1530l254 272h266l-344 -272h-176z" />
<glyph unicode="&#xd4;" horiz-adv-x="1525" d="M113 717q0 126 22 234.5t71.5 202.5t124 160t184.5 104t247 38q138 0 248 -38t185 -104t124.5 -160t71.5 -202.5t22 -234.5t-22 -234t-72 -202.5t-124 -161t-184.5 -104.5t-248.5 -38q-137 0 -247 38t-184.5 104.5t-124 161t-71.5 202.5t-22 234zM340 717 q0 -96 13.5 -176t44.5 -150.5t79 -119t120.5 -76t164.5 -27.5q115 0 199 41.5t132 118t70.5 172.5t22.5 217q0 120 -22.5 216t-70.5 172.5t-132 118.5t-199 42t-198.5 -42t-131.5 -118.5t-70 -172.5t-22 -216zM442 1530l207 272h225l209 -272h-153l-168 168l-166 -168h-154z " />
<glyph unicode="&#xd5;" horiz-adv-x="1525" d="M113 717q0 126 22 234.5t71.5 202.5t124 160t184.5 104t247 38q138 0 248 -38t185 -104t124.5 -160t71.5 -202.5t22 -234.5t-22 -234t-72 -202.5t-124 -161t-184.5 -104.5t-248.5 -38q-137 0 -247 38t-184.5 104.5t-124 161t-71.5 202.5t-22 234zM340 717 q0 -96 13.5 -176t44.5 -150.5t79 -119t120.5 -76t164.5 -27.5q115 0 199 41.5t132 118t70.5 172.5t22.5 217q0 120 -22.5 216t-70.5 172.5t-132 118.5t-199 42t-198.5 -42t-131.5 -118.5t-70 -172.5t-22 -216zM420 1597q25 47 41 72.5t41 55.5t54.5 43.5t66.5 13.5 q45 0 97.5 -25t98 -49.5t72.5 -24.5q25 0 48 18.5t54 76.5l107 -47q-21 -44 -38.5 -73t-42 -57.5t-55 -42.5t-67.5 -14q-45 0 -97.5 24.5t-98 49t-72.5 24.5q-25 0 -48 -18t-55 -76z" />
<glyph unicode="&#xd6;" horiz-adv-x="1525" d="M113 717q0 126 22 234.5t71.5 202.5t124 160t184.5 104t247 38q138 0 248 -38t185 -104t124.5 -160t71.5 -202.5t22 -234.5t-22 -234t-72 -202.5t-124 -161t-184.5 -104.5t-248.5 -38q-137 0 -247 38t-184.5 104.5t-124 161t-71.5 202.5t-22 234zM340 717 q0 -96 13.5 -176t44.5 -150.5t79 -119t120.5 -76t164.5 -27.5q115 0 199 41.5t132 118t70.5 172.5t22.5 217q0 120 -22.5 216t-70.5 172.5t-132 118.5t-199 42t-198.5 -42t-131.5 -118.5t-70 -172.5t-22 -216zM489 1550v207h193v-207h-193zM844 1550v207h190v-207h-190z" />
<glyph unicode="&#xd7;" horiz-adv-x="1300" d="M221 961l119 120l307 -280l305 276l123 -119l-301 -272l303 -274l-121 -117l-307 276l-303 -274l-121 119l297 270z" />
<glyph unicode="&#xd8;" horiz-adv-x="1519" d="M111 717q0 126 22 234.5t71.5 202.5t124 160t184.5 104t247 38q237 0 391 -110l68 88h167l-137 -181q162 -191 162 -536q0 -126 -22 -234t-72 -202.5t-124 -161t-184.5 -104.5t-248.5 -38q-242 0 -393 111l-66 -88h-166l135 180q-159 193 -159 537zM338 717 q0 -222 72 -355l616 818q-103 86 -266 86q-115 0 -198.5 -42t-131.5 -118.5t-70 -172.5t-22 -216zM494 254q99 -86 266 -86q115 0 199 41.5t132 118t70.5 172.5t22.5 217q0 218 -72 354z" />
<glyph unicode="&#xd9;" horiz-adv-x="1443" d="M166 543v891h219v-904q0 -65 8 -116t30.5 -98.5t59.5 -79t97.5 -50t142.5 -18.5q81 0 141 18.5t97 50t59 79t30.5 98.5t8.5 116v904h221v-891q0 -99 -16 -180t-55 -154.5t-101 -123.5t-160 -79t-225 -29q-128 0 -226 29t-160 79t-101 123.5t-54.5 154.5t-15.5 180z M379 1802h266l254 -272h-174z" />
<glyph unicode="&#xda;" horiz-adv-x="1443" d="M166 543v891h219v-904q0 -65 8 -116t30.5 -98.5t59.5 -79t97.5 -50t142.5 -18.5q81 0 141 18.5t97 50t59 79t30.5 98.5t8.5 116v904h221v-891q0 -99 -16 -180t-55 -154.5t-101 -123.5t-160 -79t-225 -29q-128 0 -226 29t-160 79t-101 123.5t-54.5 154.5t-15.5 180z M545 1530l254 272h266l-344 -272h-176z" />
<glyph unicode="&#xdb;" horiz-adv-x="1443" d="M166 543v891h219v-904q0 -65 8 -116t30.5 -98.5t59.5 -79t97.5 -50t142.5 -18.5q81 0 141 18.5t97 50t59 79t30.5 98.5t8.5 116v904h221v-891q0 -99 -16 -180t-55 -154.5t-101 -123.5t-160 -79t-225 -29q-128 0 -226 29t-160 79t-101 123.5t-54.5 154.5t-15.5 180z M403 1530l207 272h226l208 -272h-153l-168 168l-166 -168h-154z" />
<glyph unicode="&#xdc;" horiz-adv-x="1443" d="M166 543v891h219v-904q0 -65 8 -116t30.5 -98.5t59.5 -79t97.5 -50t142.5 -18.5q81 0 141 18.5t97 50t59 79t30.5 98.5t8.5 116v904h221v-891q0 -99 -16 -180t-55 -154.5t-101 -123.5t-160 -79t-225 -29q-128 0 -226 29t-160 79t-101 123.5t-54.5 154.5t-15.5 180z M449 1550v207h192v-207h-192zM803 1550v207h190v-207h-190z" />
<glyph unicode="&#xdd;" horiz-adv-x="1318" d="M27 1434h247l385 -693l383 693h248l-522 -867v-567h-219v567zM483 1530l254 272h267l-345 -272h-176z" />
<glyph unicode="&#xde;" horiz-adv-x="1351" d="M180 0v1434h219v-248h320q547 0 547 -445q0 -232 -143.5 -340t-403.5 -108h-320v-293h-219zM399 477h295q167 0 257.5 61t90.5 203t-90 201t-258 59h-295v-524z" />
<glyph unicode="&#xdf;" horiz-adv-x="1351" d="M154 0v983q0 259 127 386.5t370 127.5q227 0 357.5 -101t130.5 -257q0 -55 -16.5 -101.5t-32.5 -65.5l-17 -20q-207 -58 -207 -168q0 -25 9.5 -45.5t33 -40.5t45 -34t63 -39.5t68.5 -44.5q98 -67 149.5 -137.5t51.5 -166.5q0 -134 -98 -216.5t-254 -82.5 q-102 0 -216.5 35t-207.5 82l90 156q77 -39 167 -68.5t157 -29.5t109 33t42 91q0 50 -36 90t-117 85q-5 3 -37.5 20.5t-44 24.5t-41.5 27t-43.5 34t-35.5 38.5t-31.5 47.5t-18 54t-8.5 65q0 54 19.5 101t46 77t66.5 57t67.5 39.5t62.5 26.5q10 30 10 63q0 91 -73.5 147 t-201.5 56q-140 0 -217 -80.5t-77 -273.5v-975h-211z" />
<glyph unicode="&#xe0;" horiz-adv-x="1196" d="M86 324q0 87 30 155t82.5 110t120.5 63.5t146 21.5q56 0 125.5 -10t155 -27t96.5 -19v109q0 108 -47 156.5t-168 48.5q-79 0 -170.5 -22t-227.5 -66l-71 151q288 103 501 103q199 0 296.5 -87.5t97.5 -283.5v-727h-211v137q-173 -160 -393 -160q-72 0 -135.5 21.5 t-115 62.5t-82 109t-30.5 154zM264 1493h266l254 -272h-174zM301 338q0 -97 55.5 -144t151.5 -47q169 0 334 144v211q-12 2 -60 11.5t-80.5 15t-79 11t-81.5 5.5q-125 0 -182.5 -56.5t-57.5 -150.5z" />
<glyph unicode="&#xe1;" horiz-adv-x="1196" d="M86 324q0 87 30 155t82.5 110t120.5 63.5t146 21.5q56 0 125.5 -10t155 -27t96.5 -19v109q0 108 -47 156.5t-168 48.5q-79 0 -170.5 -22t-227.5 -66l-71 151q288 103 501 103q199 0 296.5 -87.5t97.5 -283.5v-727h-211v137q-173 -160 -393 -160q-72 0 -135.5 21.5 t-115 62.5t-82 109t-30.5 154zM301 338q0 -97 55.5 -144t151.5 -47q169 0 334 144v211q-12 2 -60 11.5t-80.5 15t-79 11t-81.5 5.5q-125 0 -182.5 -56.5t-57.5 -150.5zM430 1221l254 272h266l-344 -272h-176z" />
<glyph unicode="&#xe2;" horiz-adv-x="1196" d="M86 324q0 87 30 155t82.5 110t120.5 63.5t146 21.5q56 0 125.5 -10t155 -27t96.5 -19v109q0 108 -47 156.5t-168 48.5q-79 0 -170.5 -22t-227.5 -66l-71 151q288 103 501 103q199 0 296.5 -87.5t97.5 -283.5v-727h-211v137q-173 -160 -393 -160q-72 0 -135.5 21.5 t-115 62.5t-82 109t-30.5 154zM285 1221l207 272h225l209 -272h-154l-168 168l-166 -168h-153zM301 338q0 -97 55.5 -144t151.5 -47q169 0 334 144v211q-12 2 -60 11.5t-80.5 15t-79 11t-81.5 5.5q-125 0 -182.5 -56.5t-57.5 -150.5z" />
<glyph unicode="&#xe3;" horiz-adv-x="1196" d="M86 324q0 87 30 155t82.5 110t120.5 63.5t146 21.5q56 0 125.5 -10t155 -27t96.5 -19v109q0 108 -47 156.5t-168 48.5q-79 0 -170.5 -22t-227.5 -66l-71 151q288 103 501 103q199 0 296.5 -87.5t97.5 -283.5v-727h-211v137q-173 -160 -393 -160q-72 0 -135.5 21.5 t-115 62.5t-82 109t-30.5 154zM264 1288q25 47 41 72.5t41 55.5t54.5 43.5t66.5 13.5q45 0 97.5 -24.5t98 -49.5t72.5 -25q26 0 49 18.5t54 75.5l106 -47q-44 -91 -88.5 -138.5t-114.5 -47.5q-45 0 -97.5 24.5t-98 49t-72.5 24.5q-25 0 -47.5 -18t-54.5 -76zM301 338 q0 -97 55.5 -144t151.5 -47q169 0 334 144v211q-12 2 -60 11.5t-80.5 15t-79 11t-81.5 5.5q-125 0 -182.5 -56.5t-57.5 -150.5z" />
<glyph unicode="&#xe4;" horiz-adv-x="1196" d="M86 324q0 87 30 155t82.5 110t120.5 63.5t146 21.5q56 0 125.5 -10t155 -27t96.5 -19v109q0 108 -47 156.5t-168 48.5q-79 0 -170.5 -22t-227.5 -66l-71 151q288 103 501 103q199 0 296.5 -87.5t97.5 -283.5v-727h-211v137q-173 -160 -393 -160q-72 0 -135.5 21.5 t-115 62.5t-82 109t-30.5 154zM301 338q0 -97 55.5 -144t151.5 -47q169 0 334 144v211q-12 2 -60 11.5t-80.5 15t-79 11t-81.5 5.5q-125 0 -182.5 -56.5t-57.5 -150.5zM332 1241v207h192v-207h-192zM686 1241v207h191v-207h-191z" />
<glyph unicode="&#xe5;" horiz-adv-x="1196" d="M86 324q0 87 30 155t82.5 110t120.5 63.5t146 21.5q56 0 125.5 -10t155 -27t96.5 -19v109q0 108 -47 156.5t-168 48.5q-79 0 -170.5 -22t-227.5 -66l-71 151q288 103 501 103q199 0 296.5 -87.5t97.5 -283.5v-727h-211v137q-173 -160 -393 -160q-72 0 -135.5 21.5 t-115 62.5t-82 109t-30.5 154zM301 338q0 -97 55.5 -144t151.5 -47q169 0 334 144v211q-12 2 -60 11.5t-80.5 15t-79 11t-81.5 5.5q-125 0 -182.5 -56.5t-57.5 -150.5zM387 1419q0 91 64 155t155 64t155 -64t64 -155t-64 -155t-155 -64t-155 64t-64 155zM500 1419 q0 -44 31 -75t75 -31t75.5 31t31.5 75t-31.5 75.5t-75.5 31.5t-75 -31.5t-31 -75.5z" />
<glyph unicode="&#xe6;" horiz-adv-x="1892" d="M86 324q0 87 30 155t82.5 110t120.5 63.5t146 21.5q34 0 71.5 -4t82 -13t67 -14t72 -17.5t51.5 -13.5q8 76 31 152q-6 87 -54.5 127.5t-158.5 40.5q-79 0 -170.5 -22t-227.5 -66l-71 151q288 103 501 103q229 0 322 -115q130 115 338 115q228 0 350.5 -129.5 t122.5 -339.5q0 -36 -3.5 -71.5t-6.5 -53.5l-4 -17h-752q10 -163 86 -254.5t199 -91.5q63 0 143.5 25.5t130.5 50t125 64.5l90 -136q-49 -28 -70.5 -40t-83.5 -41.5t-108 -44.5t-113.5 -28.5t-130.5 -13.5q-126 0 -230 53.5t-169 155.5q-202 -209 -446 -209 q-72 0 -135.5 21.5t-115 62.5t-82 109t-30.5 154zM301 338q0 -97 55.5 -144t151.5 -47q167 0 334 150q-29 93 -35 195q-12 3 -57.5 15t-72 18.5t-66.5 13t-70 6.5q-125 0 -182.5 -56.5t-57.5 -150.5zM1026 614h557q3 164 -66 245t-198 81q-126 0 -202 -86.5t-91 -239.5z" />
<glyph unicode="&#xe7;" horiz-adv-x="1067" d="M98 539q0 137 39 246t105.5 176t150.5 102t178 35q62 0 126 -13.5t128.5 -40t95.5 -41.5t83 -42l-93 -158q-5 2 -29 15.5t-38.5 20.5t-42 20.5t-50 21.5t-50 17t-54 13t-51.5 4q-123 0 -202 -102.5t-79 -273.5t79 -275t202 -104q25 0 51.5 4t54 13t50 17t50 21.5t42 20.5 t38.5 20.5t29 15.5l93 -157q-218 -120 -383 -135q63 -78 63 -164q0 -83 -60.5 -128.5t-156.5 -45.5q-89 0 -168 39l49 116q56 -26 103 -26q49 0 78.5 21.5t29.5 66.5q0 51 -45 123q-85 10 -159 49.5t-132 106.5t-91.5 170.5t-33.5 230.5z" />
<glyph unicode="&#xe8;" horiz-adv-x="1181" d="M96 537q0 265 140 413t372 148q228 0 350.5 -129.5t122.5 -339.5q0 -36 -3.5 -71.5t-7.5 -53.5l-3 -17h-752q10 -163 86 -254.5t199 -91.5q63 0 143.5 25.5t130.5 50t125 64.5l91 -136q-49 -28 -70.5 -40t-83.5 -41.5t-108 -44.5t-113.5 -28.5t-130.5 -13.5 q-101 0 -188.5 35t-155 103t-106 176.5t-38.5 245.5zM268 1493h267l253 -272h-174zM315 614h557q3 164 -66 245t-198 81q-126 0 -202 -86.5t-91 -239.5z" />
<glyph unicode="&#xe9;" horiz-adv-x="1181" d="M96 537q0 265 140 413t372 148q228 0 350.5 -129.5t122.5 -339.5q0 -36 -3.5 -71.5t-7.5 -53.5l-3 -17h-752q10 -163 86 -254.5t199 -91.5q63 0 143.5 25.5t130.5 50t125 64.5l91 -136q-49 -28 -70.5 -40t-83.5 -41.5t-108 -44.5t-113.5 -28.5t-130.5 -13.5 q-101 0 -188.5 35t-155 103t-106 176.5t-38.5 245.5zM315 614h557q3 164 -66 245t-198 81q-126 0 -202 -86.5t-91 -239.5zM436 1221l254 272h266l-344 -272h-176z" />
<glyph unicode="&#xea;" horiz-adv-x="1181" d="M96 537q0 265 140 413t372 148q228 0 350.5 -129.5t122.5 -339.5q0 -36 -3.5 -71.5t-7.5 -53.5l-3 -17h-752q10 -163 86 -254.5t199 -91.5q63 0 143.5 25.5t130.5 50t125 64.5l91 -136q-49 -28 -70.5 -40t-83.5 -41.5t-108 -44.5t-113.5 -28.5t-130.5 -13.5 q-101 0 -188.5 35t-155 103t-106 176.5t-38.5 245.5zM291 1221l207 272h225l209 -272h-154l-168 168l-166 -168h-153zM315 614h557q3 164 -66 245t-198 81q-126 0 -202 -86.5t-91 -239.5z" />
<glyph unicode="&#xeb;" horiz-adv-x="1181" d="M96 537q0 265 140 413t372 148q228 0 350.5 -129.5t122.5 -339.5q0 -36 -3.5 -71.5t-7.5 -53.5l-3 -17h-752q10 -163 86 -254.5t199 -91.5q63 0 143.5 25.5t130.5 50t125 64.5l91 -136q-49 -28 -70.5 -40t-83.5 -41.5t-108 -44.5t-113.5 -28.5t-130.5 -13.5 q-101 0 -188.5 35t-155 103t-106 176.5t-38.5 245.5zM315 614h557q3 164 -66 245t-198 81q-126 0 -202 -86.5t-91 -239.5zM338 1241v207h192v-207h-192zM692 1241v207h191v-207h-191z" />
<glyph unicode="&#xec;" horiz-adv-x="524" d="M-78 1493h266l254 -272h-174zM162 0v1075h211v-1075h-211z" />
<glyph unicode="&#xed;" horiz-adv-x="526" d="M84 1221l254 272h266l-344 -272h-176zM154 0v1075h211v-1075h-211z" />
<glyph unicode="&#xee;" horiz-adv-x="530" d="M-55 1221l207 272h225l209 -272h-154l-168 168l-166 -168h-153zM160 0v1075h211v-1075h-211z" />
<glyph unicode="&#xef;" horiz-adv-x="528" d="M-10 1241v207h192v-207h-192zM158 0v1075h211v-1075h-211zM344 1241v207h191v-207h-191z" />
<glyph unicode="&#xf0;" horiz-adv-x="1265" d="M100 475q0 225 131.5 362.5t343.5 137.5q72 0 135.5 -16t103 -39t68 -46t40.5 -39l12 -16q-32 128 -113.5 237.5t-206.5 164.5l-118 -105h-197l160 144q-36 4 -60 4q-41 0 -80.5 -5t-58.5 -9l-20 -5l-33 164q77 25 196 25q108 0 218 -29l100 88h201l-162 -143 q190 -101 295.5 -303.5t105.5 -462.5q0 -160 -40.5 -279t-114 -189.5t-168.5 -104.5t-211 -34q-245 0 -386 135t-141 363zM319 475q0 -149 80 -239.5t234 -90.5q152 0 233.5 89t81.5 243q0 153 -80 241.5t-235 88.5q-154 0 -234 -92.5t-80 -239.5z" />
<glyph unicode="&#xf1;" d="M154 0v1075h211v-143q236 166 434 166q85 0 146.5 -25t96.5 -72t51.5 -105t16.5 -132v-764h-211v721q0 98 -38 152.5t-132 54.5q-92 0 -195 -52.5t-169 -111.5v-764h-211zM289 1288q25 47 41 72.5t41 55.5t54.5 43.5t66.5 13.5q45 0 97.5 -24.5t98 -49.5t72.5 -25 q26 0 48.5 18t53.5 76l107 -47q-44 -91 -88.5 -138.5t-114.5 -47.5q-45 0 -97.5 24.5t-98 49t-72.5 24.5q-25 0 -48 -18t-55 -76z" />
<glyph unicode="&#xf2;" horiz-adv-x="1245" d="M100 537q0 265 135 413t388 148q251 0 386.5 -148t135.5 -413t-135.5 -412.5t-386.5 -147.5q-252 0 -387.5 148t-135.5 412zM279 1493h266l254 -272h-174zM315 537q0 -186 76 -289t232 -103t231.5 102.5t75.5 289.5t-75.5 290t-231.5 103t-232 -103t-76 -290z" />
<glyph unicode="&#xf3;" horiz-adv-x="1245" d="M100 537q0 265 135 413t388 148q251 0 386.5 -148t135.5 -413t-135.5 -412.5t-386.5 -147.5q-252 0 -387.5 148t-135.5 412zM315 537q0 -186 76 -289t232 -103t231.5 102.5t75.5 289.5t-75.5 290t-231.5 103t-232 -103t-76 -290zM444 1221l254 272h267l-344 -272h-177z " />
<glyph unicode="&#xf4;" horiz-adv-x="1245" d="M100 537q0 265 135 413t388 148q251 0 386.5 -148t135.5 -413t-135.5 -412.5t-386.5 -147.5q-252 0 -387.5 148t-135.5 412zM303 1221l207 272h225l209 -272h-153l-168 168l-166 -168h-154zM315 537q0 -186 76 -289t232 -103t231.5 102.5t75.5 289.5t-75.5 290 t-231.5 103t-232 -103t-76 -290z" />
<glyph unicode="&#xf5;" horiz-adv-x="1245" d="M100 537q0 265 135 413t388 148q251 0 386.5 -148t135.5 -413t-135.5 -412.5t-386.5 -147.5q-252 0 -387.5 148t-135.5 412zM283 1288q25 48 40.5 73t41 55.5t54.5 43.5t66 13q36 0 77 -15.5t71.5 -34t64.5 -34t56 -15.5q26 0 48.5 18t53.5 76l107 -47 q-44 -91 -88.5 -138.5t-114.5 -47.5q-45 0 -97.5 24.5t-98 49t-72.5 24.5q-25 0 -48 -18t-55 -76zM315 537q0 -186 76 -289t232 -103t231.5 102.5t75.5 289.5t-75.5 290t-231.5 103t-232 -103t-76 -290z" />
<glyph unicode="&#xf6;" horiz-adv-x="1245" d="M100 537q0 265 135 413t388 148q251 0 386.5 -148t135.5 -413t-135.5 -412.5t-386.5 -147.5q-252 0 -387.5 148t-135.5 412zM315 537q0 -186 76 -289t232 -103t231.5 102.5t75.5 289.5t-75.5 290t-231.5 103t-232 -103t-76 -290zM350 1241v207h193v-207h-193zM705 1241 v207h190v-207h-190z" />
<glyph unicode="&#xf7;" horiz-adv-x="1304" d="M133 600v164h1038v-164h-1038zM522 317q0 56 37.5 95t91.5 39q55 0 94 -39t39 -95q0 -54 -38.5 -91.5t-94.5 -37.5q-54 0 -91.5 37.5t-37.5 91.5zM522 1047q0 54 37.5 92.5t91.5 38.5q55 0 94 -38.5t39 -92.5q0 -55 -38.5 -93.5t-94.5 -38.5q-54 0 -91.5 38.5t-37.5 93.5 z" />
<glyph unicode="&#xf8;" horiz-adv-x="1241" d="M98 537q0 265 135 413t388 148q181 0 305 -82l47 59h143l-104 -131q131 -146 131 -407q0 -265 -135.5 -412.5t-386.5 -147.5q-186 0 -310 80l-45 -57h-147l106 133q-127 145 -127 404zM313 537q0 -145 43 -238l453 571q-72 60 -188 60q-156 0 -232 -103t-76 -290z M428 205q75 -60 193 -60q156 0 231.5 102.5t75.5 289.5q0 151 -47 241z" />
<glyph unicode="&#xf9;" d="M143 311v764h211v-721q0 -98 38 -152.5t134 -54.5q90 0 193 51.5t170 110.5v766h211v-1075h-211v143q-229 -166 -436 -166q-163 0 -236.5 90.5t-73.5 243.5zM276 1493h267l254 -272h-174z" />
<glyph unicode="&#xfa;" d="M143 311v764h211v-721q0 -98 38 -152.5t134 -54.5q90 0 193 51.5t170 110.5v766h211v-1075h-211v143q-229 -166 -436 -166q-163 0 -236.5 90.5t-73.5 243.5zM444 1221l254 272h267l-344 -272h-177z" />
<glyph unicode="&#xfb;" d="M143 311v764h211v-721q0 -98 38 -152.5t134 -54.5q90 0 193 51.5t170 110.5v766h211v-1075h-211v143q-229 -166 -436 -166q-163 0 -236.5 90.5t-73.5 243.5zM301 1221l207 272h225l209 -272h-154l-167 168l-166 -168h-154z" />
<glyph unicode="&#xfc;" d="M143 311v764h211v-721q0 -98 38 -152.5t134 -54.5q90 0 193 51.5t170 110.5v766h211v-1075h-211v143q-229 -166 -436 -166q-163 0 -236.5 90.5t-73.5 243.5zM348 1241v207h193v-207h-193zM702 1241v207h191v-207h-191z" />
<glyph unicode="&#xfd;" horiz-adv-x="1163" d="M47 1075h229l306 -825l303 825h231l-600 -1493h-229l188 422zM403 1221l254 272h267l-344 -272h-177z" />
<glyph unicode="&#xfe;" horiz-adv-x="1251" d="M154 -418v1911h211v-551q172 156 372 156q185 0 299.5 -140.5t114.5 -420.5q0 -279 -114.5 -419.5t-299.5 -140.5q-198 0 -372 154v-549h-211zM365 311q65 -73 148 -116t173 -43q123 0 186.5 100.5t63.5 284.5q0 185 -63.5 286t-186.5 101q-89 0 -172.5 -44.5 t-148.5 -117.5v-451z" />
<glyph unicode="&#xff;" horiz-adv-x="1163" d="M47 1075h229l306 -825l303 825h231l-600 -1493h-229l188 422zM309 1241v207h193v-207h-193zM664 1241v207h190v-207h-190z" />
<glyph unicode="&#x100;" horiz-adv-x="1415" d="M39 0l549 1434h239l551 -1434h-239l-115 328h-633l-115 -328h-237zM403 1581v135h609v-135h-609zM453 506h510l-256 731z" />
<glyph unicode="&#x101;" horiz-adv-x="1196" d="M86 324q0 87 30 155t82.5 110t120.5 63.5t146 21.5q56 0 125.5 -10t155 -27t96.5 -19v109q0 108 -47 156.5t-168 48.5q-79 0 -170.5 -22t-227.5 -66l-71 151q288 103 501 103q199 0 296.5 -87.5t97.5 -283.5v-727h-211v137q-173 -160 -393 -160q-72 0 -135.5 21.5 t-115 62.5t-82 109t-30.5 154zM301 338q0 -97 55.5 -144t151.5 -47q169 0 334 144v211q-12 2 -60 11.5t-80.5 15t-79 11t-81.5 5.5q-125 0 -182.5 -56.5t-57.5 -150.5zM301 1272v135h608v-135h-608z" />
<glyph unicode="&#x102;" horiz-adv-x="1415" d="M39 0l549 1434h239l551 -1434h-239l-115 328h-633l-115 -328h-237zM399 1761h144q0 -102 162 -102q167 0 167 102h142q0 -107 -81.5 -169t-227.5 -62q-144 0 -225 62t-81 169zM453 506h510l-256 731z" />
<glyph unicode="&#x103;" horiz-adv-x="1196" d="M86 324q0 87 30 155t82.5 110t120.5 63.5t146 21.5q56 0 125.5 -10t155 -27t96.5 -19v109q0 108 -47 156.5t-168 48.5q-79 0 -170.5 -22t-227.5 -66l-71 151q288 103 501 103q199 0 296.5 -87.5t97.5 -283.5v-727h-211v137q-173 -160 -393 -160q-72 0 -135.5 21.5 t-115 62.5t-82 109t-30.5 154zM301 338q0 -97 55.5 -144t151.5 -47q169 0 334 144v211q-12 2 -60 11.5t-80.5 15t-79 11t-81.5 5.5q-125 0 -182.5 -56.5t-57.5 -150.5zM301 1452h143q0 -102 162 -102q168 0 168 102h141q0 -107 -81.5 -169t-227.5 -62q-144 0 -224.5 62 t-80.5 169z" />
<glyph unicode="&#x104;" horiz-adv-x="1415" d="M39 0l549 1434h239l551 -1434h-6q-27 -16 -31.5 -18.5t-31.5 -18.5t-35 -23t-29.5 -22.5t-29.5 -26.5t-20 -26t-16.5 -30t-4.5 -30q0 -18 5.5 -31t17.5 -21t22.5 -13t29.5 -6.5t28.5 -2t30.5 0t25 0.5l-22 -113q-125 0 -185 22q-106 38 -106 142q0 122 203 217h-84 l-115 328h-633l-115 -328h-237zM453 506h510l-256 731z" />
<glyph unicode="&#x105;" horiz-adv-x="1196" d="M86 324q0 87 30 155t82.5 110t120.5 63.5t146 21.5q56 0 125.5 -10t155 -27t96.5 -19v109q0 108 -47 156.5t-168 48.5q-79 0 -170.5 -22t-227.5 -66l-71 151q288 103 501 103q199 0 296.5 -87.5t97.5 -283.5v-727h-6q-34 -20 -43 -25t-41.5 -25.5t-45.5 -33t-33 -32.5 t-28 -39.5t-8 -39.5q0 -18 5.5 -31t17.5 -21t22.5 -13t30 -6.5t29 -2t30.5 0t25 0.5l-23 -113q-125 0 -185 22q-106 38 -106 142q0 122 203 217h-55v137q-173 -160 -393 -160q-72 0 -135.5 21.5t-115 62.5t-82 109t-30.5 154zM301 338q0 -97 55.5 -144t151.5 -47 q169 0 334 144v211q-12 2 -60 11.5t-80.5 15t-79 11t-81.5 5.5q-125 0 -182.5 -56.5t-57.5 -150.5z" />
<glyph unicode="&#x106;" horiz-adv-x="1320" d="M113 717q0 150 29.5 273.5t82 209t125 144t156.5 85.5t180 27q78 0 155 -17t153 -50.5t132.5 -64.5t130.5 -77l-110 -160q-61 38 -102.5 61t-103 52t-120 43t-114.5 14q-166 0 -266.5 -144t-100.5 -396t100.5 -396.5t266.5 -144.5q56 0 114.5 14t120 43t103 52t102.5 61 l110 -160q-74 -46 -130.5 -77t-132.5 -64.5t-153 -50.5t-155 -17q-120 0 -222 44.5t-181.5 132t-124.5 232t-45 331.5zM598 1530l254 272h266l-344 -272h-176z" />
<glyph unicode="&#x107;" horiz-adv-x="1067" d="M98 539q0 137 39 246t105.5 176t150.5 102t178 35q62 0 126 -13.5t128.5 -40t95.5 -41.5t83 -42l-93 -158q-5 2 -29 15.5t-38.5 20.5t-42 20.5t-50 21.5t-50 17t-54 13t-51.5 4q-123 0 -202 -102.5t-79 -273.5t79 -275t202 -104q25 0 51.5 4t54 13t50 17t50 21.5t42 20.5 t38.5 20.5t29 15.5l93 -157q-253 -138 -433 -138q-94 0 -178 35.5t-150.5 103t-105.5 177t-39 246.5zM406 1221l253 272h267l-344 -272h-176z" />
<glyph unicode="&#x10a;" horiz-adv-x="1320" d="M113 717q0 150 29.5 273.5t82 209t125 144t156.5 85.5t180 27q78 0 155 -17t153 -50.5t132.5 -64.5t130.5 -77l-110 -160q-61 38 -102.5 61t-103 52t-120 43t-114.5 14q-166 0 -266.5 -144t-100.5 -396t100.5 -396.5t266.5 -144.5q56 0 114.5 14t120 43t103 52t102.5 61 l110 -160q-74 -46 -130.5 -77t-132.5 -64.5t-153 -50.5t-155 -17q-120 0 -222 44.5t-181.5 132t-124.5 232t-45 331.5zM608 1550v207h193v-207h-193z" />
<glyph unicode="&#x10b;" horiz-adv-x="1067" d="M98 539q0 137 39 246t105.5 176t150.5 102t178 35q62 0 126 -13.5t128.5 -40t95.5 -41.5t83 -42l-93 -158q-5 2 -29 15.5t-38.5 20.5t-42 20.5t-50 21.5t-50 17t-54 13t-51.5 4q-123 0 -202 -102.5t-79 -273.5t79 -275t202 -104q25 0 51.5 4t54 13t50 17t50 21.5t42 20.5 t38.5 20.5t29 15.5l93 -157q-253 -138 -433 -138q-94 0 -178 35.5t-150.5 103t-105.5 177t-39 246.5zM485 1241v207h193v-207h-193z" />
<glyph unicode="&#x10c;" horiz-adv-x="1320" d="M113 717q0 150 29.5 273.5t82 209t125 144t156.5 85.5t180 27q78 0 155 -17t153 -50.5t132.5 -64.5t130.5 -77l-110 -160q-61 38 -102.5 61t-103 52t-120 43t-114.5 14q-166 0 -266.5 -144t-100.5 -396t100.5 -396.5t266.5 -144.5q56 0 114.5 14t120 43t103 52t102.5 61 l110 -160q-74 -46 -130.5 -77t-132.5 -64.5t-153 -50.5t-155 -17q-120 0 -222 44.5t-181.5 132t-124.5 232t-45 331.5zM401 1802h154l166 -168l168 168h153l-208 -272h-226z" />
<glyph unicode="&#x10d;" horiz-adv-x="1067" d="M98 539q0 137 39 246t105.5 176t150.5 102t178 35q62 0 126 -13.5t128.5 -40t95.5 -41.5t83 -42l-93 -158q-5 2 -29 15.5t-38.5 20.5t-42 20.5t-50 21.5t-50 17t-54 13t-51.5 4q-123 0 -202 -102.5t-79 -273.5t79 -275t202 -104q25 0 51.5 4t54 13t50 17t50 21.5t42 20.5 t38.5 20.5t29 15.5l93 -157q-253 -138 -433 -138q-94 0 -178 35.5t-150.5 103t-105.5 177t-39 246.5zM262 1493h154l166 -168l168 168h153l-209 -272h-225z" />
<glyph unicode="&#x10e;" horiz-adv-x="1449" d="M180 0v1434h465q337 0 514.5 -172t177.5 -545t-177.5 -545t-514.5 -172h-465zM399 188h230q250 0 366.5 124t116.5 405q0 280 -116.5 404t-366.5 124h-230v-1057zM436 1802h154l166 -168l168 168h153l-209 -272h-225z" />
<glyph unicode="&#x10f;" horiz-adv-x="1343" d="M100 537q0 280 114.5 420.5t299.5 140.5q201 0 373 -156v551h211v-1493h-211v131q-174 -154 -373 -154q-185 0 -299.5 140.5t-114.5 419.5zM315 537q0 -184 63.5 -284.5t186.5 -100.5q87 0 171.5 43.5t150.5 115.5v451q-67 73 -151 117.5t-171 44.5q-123 0 -186.5 -101 t-63.5 -286zM1204 1104l96 176h-83v213h184l16 -227l-157 -222z" />
<glyph unicode="&#x110;" horiz-adv-x="1468" d="M45 629v176h154v629h465q337 0 514.5 -172t177.5 -545t-177.5 -545t-514.5 -172h-465v629h-154zM418 188h229q250 0 366.5 124t116.5 405q0 280 -116.5 404t-366.5 124h-229v-440h330v-176h-330v-441z" />
<glyph unicode="&#x111;" horiz-adv-x="1255" d="M100 537q0 280 114.5 420.5t299.5 140.5q201 0 373 -156v264h-346v135h346v152h211v-152h131v-135h-131v-1206h-211v131q-174 -154 -373 -154q-185 0 -299.5 140.5t-114.5 419.5zM315 537q0 -184 63.5 -284.5t186.5 -100.5q87 0 171.5 43.5t150.5 115.5v451 q-67 73 -151 117.5t-171 44.5q-123 0 -186.5 -101t-63.5 -286z" />
<glyph unicode="&#x112;" horiz-adv-x="1230" d="M180 0v1434h940v-189h-721v-436h594v-184h-594v-437h734v-188h-953zM352 1581v135h609v-135h-609z" />
<glyph unicode="&#x113;" horiz-adv-x="1181" d="M96 537q0 265 140 413t372 148q228 0 350.5 -129.5t122.5 -339.5q0 -36 -3.5 -71.5t-7.5 -53.5l-3 -17h-752q10 -163 86 -254.5t199 -91.5q63 0 143.5 25.5t130.5 50t125 64.5l91 -136q-49 -28 -70.5 -40t-83.5 -41.5t-108 -44.5t-113.5 -28.5t-130.5 -13.5 q-101 0 -188.5 35t-155 103t-106 176.5t-38.5 245.5zM309 1272v135h609v-135h-609zM315 614h557q3 164 -66 245t-198 81q-126 0 -202 -86.5t-91 -239.5z" />
<glyph unicode="&#x116;" horiz-adv-x="1230" d="M180 0v1434h940v-189h-721v-436h594v-184h-594v-437h734v-188h-953zM559 1550v207h193v-207h-193z" />
<glyph unicode="&#x117;" horiz-adv-x="1181" d="M96 537q0 265 140 413t372 148q228 0 350.5 -129.5t122.5 -339.5q0 -36 -3.5 -71.5t-7.5 -53.5l-3 -17h-752q10 -163 86 -254.5t199 -91.5q63 0 143.5 25.5t130.5 50t125 64.5l91 -136q-49 -28 -70.5 -40t-83.5 -41.5t-108 -44.5t-113.5 -28.5t-130.5 -13.5 q-101 0 -188.5 35t-155 103t-106 176.5t-38.5 245.5zM315 614h557q3 164 -66 245t-198 81q-126 0 -202 -86.5t-91 -239.5zM514 1241v207h193v-207h-193z" />
<glyph unicode="&#x118;" horiz-adv-x="1230" d="M180 0v1434h940v-189h-721v-436h594v-184h-594v-437h734v-188h-7q-27 -16 -31.5 -18.5t-31.5 -18.5t-35 -23t-29.5 -22.5t-29.5 -26.5t-20 -26t-16.5 -30t-4.5 -30q0 -18 5.5 -31t17.5 -21t22.5 -13t29.5 -6.5t28.5 -2t30.5 0t25 0.5l-22 -113q-125 0 -185 22 q-106 38 -106 142q0 122 203 217h-797z" />
<glyph unicode="&#x119;" horiz-adv-x="1183" d="M96 537q0 265 140 413t372 148q228 0 350.5 -129.5t122.5 -339.5q0 -36 -3.5 -71.5t-7.5 -53.5l-3 -17h-752q10 -163 86 -254.5t199 -91.5q63 0 143.5 25.5t130.5 50t125 64.5l91 -136q-61 -35 -92.5 -52t-107.5 -48.5t-145 -46.5q-41 -24 -65 -39t-58.5 -42t-51.5 -55 t-17 -57q0 -18 5.5 -31t17.5 -21t22.5 -13t30 -6.5t29 -2t30.5 0t25 0.5l-23 -113q-125 0 -185 22q-106 38 -106 142q0 105 160 194q-98 5 -181 42t-146.5 104.5t-99.5 173.5t-36 240zM315 614h557q3 164 -66 245t-198 81q-126 0 -202 -86.5t-91 -239.5z" />
<glyph unicode="&#x11a;" horiz-adv-x="1230" d="M180 0v1434h940v-189h-721v-436h594v-184h-594v-437h734v-188h-953zM336 1790h153l166 -168l168 168h154l-209 -272h-225z" />
<glyph unicode="&#x11b;" horiz-adv-x="1181" d="M96 537q0 265 140 413t372 148q228 0 350.5 -129.5t122.5 -339.5q0 -36 -3.5 -71.5t-7.5 -53.5l-3 -17h-752q10 -163 86 -254.5t199 -91.5q63 0 143.5 25.5t130.5 50t125 64.5l91 -136q-49 -28 -70.5 -40t-83.5 -41.5t-108 -44.5t-113.5 -28.5t-130.5 -13.5 q-101 0 -188.5 35t-155 103t-106 176.5t-38.5 245.5zM291 1493h153l166 -168l168 168h154l-209 -272h-225zM315 614h557q3 164 -66 245t-198 81q-126 0 -202 -86.5t-91 -239.5z" />
<glyph unicode="&#x11e;" horiz-adv-x="1441" d="M113 717q0 187 45.5 331.5t125.5 232t182.5 131.5t223.5 44q157 0 300 -59.5t296 -159.5l-110 -162q-57 35 -83.5 50.5t-85.5 46t-99 45t-94.5 27.5t-102.5 13q-168 0 -269.5 -144t-101.5 -396q0 -253 100 -402t271 -149q176 0 389 196v254h-379v179h588v-795h-209v162 q-217 -185 -428 -185q-90 0 -171.5 27t-152.5 86t-123 144t-82 209t-30 274zM403 1761h144q0 -102 162 -102q168 0 168 102h141q0 -107 -81.5 -169t-227.5 -62q-144 0 -225 62t-81 169z" />
<glyph unicode="&#x11f;" horiz-adv-x="1251" d="M100 537q0 280 114.5 420.5t299.5 140.5q201 0 373 -156v133h211v-1118q0 -395 -428 -395q-111 0 -253 22t-267 58q28 114 43 170q273 -80 442 -80q131 0 191.5 50.5t60.5 166.5v182q-174 -154 -373 -154q-185 0 -299.5 140.5t-114.5 419.5zM315 537q0 -184 63.5 -284.5 t186.5 -100.5q87 0 171.5 43.5t150.5 115.5v451q-67 73 -151 117.5t-171 44.5q-123 0 -186.5 -101t-63.5 -286zM317 1452h144q0 -102 162 -102q168 0 168 102h141q0 -107 -81.5 -169t-227.5 -62q-144 0 -225 62t-81 169z" />
<glyph unicode="&#x120;" horiz-adv-x="1441" d="M113 717q0 187 45.5 331.5t125.5 232t182.5 131.5t223.5 44q157 0 300 -59.5t296 -159.5l-110 -162q-57 35 -83.5 50.5t-85.5 46t-99 45t-94.5 27.5t-102.5 13q-168 0 -269.5 -144t-101.5 -396q0 -253 100 -402t271 -149q176 0 389 196v254h-379v179h588v-795h-209v162 q-217 -185 -428 -185q-90 0 -171.5 27t-152.5 86t-123 144t-82 209t-30 274zM612 1550v207h193v-207h-193z" />
<glyph unicode="&#x121;" horiz-adv-x="1251" d="M100 537q0 280 114.5 420.5t299.5 140.5q201 0 373 -156v133h211v-1118q0 -395 -428 -395q-111 0 -253 22t-267 58q28 114 43 170q273 -80 442 -80q131 0 191.5 50.5t60.5 166.5v182q-174 -154 -373 -154q-185 0 -299.5 140.5t-114.5 419.5zM315 537q0 -184 63.5 -284.5 t186.5 -100.5q87 0 171.5 43.5t150.5 115.5v451q-67 73 -151 117.5t-171 44.5q-123 0 -186.5 -101t-63.5 -286zM526 1241v207h193v-207h-193z" />
<glyph unicode="&#x122;" horiz-adv-x="1441" d="M113 717q0 187 45.5 331.5t125.5 232t182.5 131.5t223.5 44q157 0 300 -59.5t296 -159.5l-110 -162q-57 35 -83.5 50.5t-85.5 46t-99 45t-94.5 27.5t-102.5 13q-168 0 -269.5 -144t-101.5 -396q0 -253 100 -402t271 -149q176 0 389 196v254h-379v179h588v-795h-209v162 q-217 -185 -428 -185q-90 0 -171.5 27t-152.5 86t-123 144t-82 209t-30 274zM645 -514l96 176h-84v213h185l16 -227l-158 -221z" />
<glyph unicode="&#x123;" horiz-adv-x="1251" d="M100 537q0 280 114.5 420.5t299.5 140.5q201 0 373 -156v133h211v-1118q0 -395 -428 -395q-111 0 -253 22t-267 58q28 114 43 170q273 -80 442 -80q131 0 191.5 50.5t60.5 166.5v182q-174 -154 -373 -154q-185 0 -299.5 140.5t-114.5 419.5zM315 537q0 -184 63.5 -284.5 t186.5 -100.5q87 0 171.5 43.5t150.5 115.5v451q-67 73 -151 117.5t-171 44.5q-123 0 -186.5 -101t-63.5 -286zM516 1468l158 222l55 -60l-96 -176h84v-213h-185z" />
<glyph unicode="&#x126;" horiz-adv-x="1505" d="M43 1061v135h158v238h219v-238h667v238h222v-238h151v-135h-151v-1061h-222v659h-667v-659h-219v1061h-158zM420 844h667v217h-667v-217z" />
<glyph unicode="&#x127;" horiz-adv-x="1257" d="M27 1206v135h131v152h211v-152h348v-135h-348v-274q236 166 434 166q85 0 146.5 -25t96.5 -72t51.5 -105t16.5 -132v-764h-211v721q0 98 -38 152.5t-132 54.5q-92 0 -195 -52.5t-169 -111.5v-764h-211v1206h-131z" />
<glyph unicode="&#x128;" horiz-adv-x="593" d="M-45 1597q25 47 41 72.5t41 55.5t54.5 43.5t66.5 13.5q45 0 97.5 -25t98 -49.5t72.5 -24.5q25 0 48 18.5t54 76.5l107 -47q-21 -44 -38.5 -73t-42 -57.5t-55 -42.5t-67.5 -14q-45 0 -97.5 24.5t-98 49t-72.5 24.5q-25 0 -48 -18t-55 -76zM186 0v1434h220v-1434h-220z" />
<glyph unicode="&#x129;" horiz-adv-x="532" d="M-76 1288q25 47 41 72.5t41 55.5t54.5 43.5t66.5 13.5q45 0 97.5 -24.5t98 -49.5t72.5 -25q26 0 49 18.5t54 75.5l106 -47q-44 -91 -88.5 -138.5t-114.5 -47.5q-45 0 -97.5 24.5t-98 49t-72.5 24.5q-25 0 -47.5 -18t-54.5 -76zM162 0v1075h211v-1075h-211z" />
<glyph unicode="&#x12a;" horiz-adv-x="593" d="M-8 1581v135h608v-135h-608zM188 0v1434h220v-1434h-220z" />
<glyph unicode="&#x12b;" horiz-adv-x="534" d="M-37 1272v135h608v-135h-608zM162 0v1075h211v-1075h-211z" />
<glyph unicode="&#x12c;" horiz-adv-x="591" d="M-12 1761h143q0 -102 162 -102q168 0 168 102h141q0 -107 -81.5 -169t-227.5 -62q-144 0 -224.5 62t-80.5 169zM186 0v1434h220v-1434h-220z" />
<glyph unicode="&#x12d;" horiz-adv-x="528" d="M-45 1452h143q0 -102 162 -102q168 0 168 102h141q0 -107 -81.5 -169t-227.5 -62q-144 0 -224.5 62t-80.5 169zM158 0v1075h211v-1075h-211z" />
<glyph unicode="&#x12e;" horiz-adv-x="583" d="M45 -217q0 122 203 217h-64v1434h219v-1434h-6q-27 -16 -31.5 -18.5t-31.5 -18.5t-35 -23t-29.5 -22.5t-29.5 -26.5t-20 -26t-16.5 -30t-4.5 -30q0 -18 5.5 -31t17.5 -21t22.5 -13t29.5 -6.5t28.5 -2t30.5 0t25 0.5l-22 -113q-125 0 -185 22q-106 38 -106 142z" />
<glyph unicode="&#x12f;" horiz-adv-x="524" d="M12 -217q0 122 203 217h-55v1075h211v-1075h-6q-34 -20 -43 -25t-41.5 -25.5t-45.5 -33t-33 -32.5t-28 -39.5t-8 -39.5q0 -18 5.5 -31t17.5 -21t22.5 -13t30 -6.5t29 -2t30.5 0t25 0.5l-23 -113q-125 0 -185 22q-106 38 -106 142zM152 1270v217h229v-217h-229z" />
<glyph unicode="&#x130;" horiz-adv-x="579" d="M180 0v1434h219v-1434h-219zM193 1550v207h192v-207h-192z" />
<glyph unicode="&#x131;" horiz-adv-x="518" d="M154 0v1075h211v-1075h-211z" />
<glyph unicode="&#x132;" horiz-adv-x="1173" d="M180 0v1434h219v-1434h-219zM532 -156q63 20 101.5 34.5t67 33t41.5 30.5t20.5 40t8.5 47t1 65v1340h221v-1330q0 -76 -2 -110.5t-12.5 -85t-33.5 -74.5t-66.5 -56t-109.5 -54t-163 -46z" />
<glyph unicode="&#x133;" horiz-adv-x="1044" d="M145 1270v217h230v-217h-230zM152 0v1075h210v-1075h-210zM442 -287q64 21 101.5 34.5t67 32.5t42 31t20 40.5t8.5 49t1 68.5v1106h213v-1093q0 -66 -1 -96t-7.5 -76.5t-21.5 -68.5t-41.5 -53t-68.5 -50t-101.5 -40.5t-141.5 -41.5zM674 1270v217h229v-217h-229z" />
<glyph unicode="&#x134;" horiz-adv-x="591" d="M-53 -156q37 12 64.5 21.5t52 20.5t41 18t30 19t21.5 19t14.5 22.5t9 24.5t4.5 29.5t2 33v40.5v2v1340h222v-1330q0 -66 -1.5 -96.5t-8 -76.5t-21.5 -68t-41.5 -53t-69 -50t-103 -40.5t-143.5 -41.5zM-23 1530l207 272h226l208 -272h-153l-168 168l-166 -168h-154z" />
<glyph unicode="&#x135;" horiz-adv-x="530" d="M-80 -287q64 21 101.5 34.5t67 32.5t42 31t20 40.5t8.5 49t1 68.5v1106h213v-1093q0 -66 -1 -96t-7.5 -76.5t-21.5 -68.5t-41.5 -53t-68.5 -50t-101.5 -40.5t-141.5 -41.5zM-53 1221l207 272h225l209 -272h-154l-168 168l-166 -168h-153z" />
<glyph unicode="&#x136;" horiz-adv-x="1366" d="M180 0v1434h219v-762l631 762h268l-585 -682l637 -752h-265l-501 600l-185 -215v-385h-219zM573 -514l97 176h-84v213h184l16 -227l-157 -221z" />
<glyph unicode="&#x137;" horiz-adv-x="1112" d="M154 0v1493h211v-948l413 530h246l-362 -430l428 -645h-230l-325 494l-170 -201v-293h-211zM467 -514l96 176h-84v213h185l16 -227l-158 -221z" />
<glyph unicode="&#x138;" horiz-adv-x="1112" d="M154 0v1075h211v-530l413 530h246l-362 -430l428 -645h-230l-325 494l-170 -201v-293h-211z" />
<glyph unicode="&#x139;" horiz-adv-x="1142" d="M115 1530l254 272h266l-344 -272h-176zM180 0v1434h219v-1246h699v-188h-918z" />
<glyph unicode="&#x13a;" horiz-adv-x="542" d="M92 1591l254 273h266l-344 -273h-176zM164 0v1493h211v-1493h-211z" />
<glyph unicode="&#x13b;" horiz-adv-x="1140" d="M180 0v1434h219v-1246h699v-188h-918zM528 -514l97 176h-84v213h184l16 -227l-157 -221z" />
<glyph unicode="&#x13c;" horiz-adv-x="536" d="M166 0v1493h211v-1493h-211zM168 -514l96 176h-84v213h185l16 -227l-158 -221z" />
<glyph unicode="&#x13d;" horiz-adv-x="1140" d="M180 0v1434h219v-1246h699v-188h-918zM506 1044l96 177h-84v213h184l17 -228l-158 -221z" />
<glyph unicode="&#x13e;" horiz-adv-x="616" d="M162 0v1493h211v-1493h-211zM477 1104l96 176h-84v213h185l16 -227l-158 -222z" />
<glyph unicode="&#x13f;" horiz-adv-x="1144" d="M180 0v1434h219v-1246h699v-188h-918zM784 643v207h193v-207h-193z" />
<glyph unicode="&#x140;" horiz-adv-x="647" d="M162 0v1493h211v-1493h-211zM489 643v207h193v-207h-193z" />
<glyph unicode="&#x141;" horiz-adv-x="1159" d="M51 449v202l148 82v701h219v-580l276 156v-205l-276 -154v-463h698v-188h-917v530z" />
<glyph unicode="&#x142;" horiz-adv-x="585" d="M51 510v203l137 75v705h211v-586l136 76v-205l-136 -76v-702h-211v586z" />
<glyph unicode="&#x143;" horiz-adv-x="1499" d="M180 0v1434h226l694 -1108v1108h221v-1434h-225l-697 1108v-1108h-219zM584 1530l254 272h266l-344 -272h-176z" />
<glyph unicode="&#x144;" d="M154 0v1075h211v-143q236 166 434 166q85 0 146.5 -25t96.5 -72t51.5 -105t16.5 -132v-764h-211v721q0 98 -38 152.5t-132 54.5q-92 0 -195 -52.5t-169 -111.5v-764h-211zM453 1221l254 272h266l-344 -272h-176z" />
<glyph unicode="&#x145;" horiz-adv-x="1499" d="M180 0v1434h226l694 -1108v1108h221v-1434h-225l-697 1108v-1108h-219zM659 -514l97 176h-84v213h184l16 -227l-157 -221z" />
<glyph unicode="&#x146;" d="M154 0v1075h211v-143q236 166 434 166q85 0 146.5 -25t96.5 -72t51.5 -105t16.5 -132v-764h-211v721q0 98 -38 152.5t-132 54.5q-92 0 -195 -52.5t-169 -111.5v-764h-211zM528 -514l97 176h-84v213h184l16 -227l-157 -221z" />
<glyph unicode="&#x147;" horiz-adv-x="1499" d="M180 0v1434h226l694 -1108v1108h221v-1434h-225l-697 1108v-1108h-219zM442 1802h154l166 -168l168 168h153l-209 -272h-225z" />
<glyph unicode="&#x148;" d="M154 0v1075h211v-143q236 166 434 166q85 0 146.5 -25t96.5 -72t51.5 -105t16.5 -132v-764h-211v721q0 98 -38 152.5t-132 54.5q-92 0 -195 -52.5t-169 -111.5v-764h-211zM307 1493h154l166 -168l168 168h153l-209 -272h-225z" />
<glyph unicode="&#x149;" d="M129 1229l96 176h-84v213h185l16 -227l-158 -222zM141 0v1075h211v-143q236 166 434 166q85 0 146.5 -25.5t97 -71.5t52 -105t16.5 -132v-764h-211v721q0 98 -38 152.5t-132 54.5q-92 0 -195.5 -52.5t-169.5 -111.5v-764h-211z" />
<glyph unicode="&#x14a;" horiz-adv-x="1501" d="M180 0v1434h226l694 -1108v1108h221v-1358q0 -39 -0.5 -63t-3.5 -54.5t-9 -49.5t-16 -42.5t-24.5 -39t-36 -34t-49 -31.5t-64 -28.5t-81.5 -28.5t-101 -27l-76 166q136 42 181.5 71.5t54.5 84.5l-697 1108v-1108h-219z" />
<glyph unicode="&#x14b;" d="M154 0v1075h211v-143q236 166 434 166q85 0 146.5 -25t96.5 -72t51.5 -105t16.5 -132v-782q0 -66 -1 -96t-7.5 -76.5t-21.5 -68t-41.5 -52.5t-68.5 -50t-101 -40.5t-142 -42.5l-68 157q48 16 79.5 27t59 25t43 22t28.5 25t18 27t8.5 35t3.5 41.5v53.5v752q0 98 -38 152.5 t-132 54.5q-92 0 -195 -52.5t-169 -111.5v-764h-211z" />
<glyph unicode="&#x14c;" horiz-adv-x="1525" d="M113 717q0 126 22 234.5t71.5 202.5t124 160t184.5 104t247 38q138 0 248 -38t185 -104t124.5 -160t71.5 -202.5t22 -234.5t-22 -234t-72 -202.5t-124 -161t-184.5 -104.5t-248.5 -38q-137 0 -247 38t-184.5 104.5t-124 161t-71.5 202.5t-22 234zM340 717 q0 -96 13.5 -176t44.5 -150.5t79 -119t120.5 -76t164.5 -27.5q115 0 199 41.5t132 118t70.5 172.5t22.5 217q0 120 -22.5 216t-70.5 172.5t-132 118.5t-199 42t-198.5 -42t-131.5 -118.5t-70 -172.5t-22 -216zM459 1581v135h608v-135h-608z" />
<glyph unicode="&#x14d;" horiz-adv-x="1245" d="M100 537q0 265 135 413t388 148q251 0 386.5 -148t135.5 -413t-135.5 -412.5t-386.5 -147.5q-252 0 -387.5 148t-135.5 412zM315 537q0 -186 76 -289t232 -103t231.5 102.5t75.5 289.5t-75.5 290t-231.5 103t-232 -103t-76 -290zM319 1272v135h609v-135h-609z" />
<glyph unicode="&#x14e;" horiz-adv-x="1525" d="M113 717q0 126 22 234.5t71.5 202.5t124 160t184.5 104t247 38q138 0 248 -38t185 -104t124.5 -160t71.5 -202.5t22 -234.5t-22 -234t-72 -202.5t-124 -161t-184.5 -104.5t-248.5 -38q-137 0 -247 38t-184.5 104.5t-124 161t-71.5 202.5t-22 234zM340 717 q0 -96 13.5 -176t44.5 -150.5t79 -119t120.5 -76t164.5 -27.5q115 0 199 41.5t132 118t70.5 172.5t22.5 217q0 120 -22.5 216t-70.5 172.5t-132 118.5t-199 42t-198.5 -42t-131.5 -118.5t-70 -172.5t-22 -216zM453 1761h143q0 -102 162 -102q168 0 168 102h141 q0 -107 -81.5 -169t-227.5 -62q-144 0 -224.5 62t-80.5 169z" />
<glyph unicode="&#x14f;" horiz-adv-x="1245" d="M100 537q0 265 135 413t388 148q251 0 386.5 -148t135.5 -413t-135.5 -412.5t-386.5 -147.5q-252 0 -387.5 148t-135.5 412zM315 537q0 -186 76 -289t232 -103t231.5 102.5t75.5 289.5t-75.5 290t-231.5 103t-232 -103t-76 -290zM315 1452h144q0 -102 162 -102 q167 0 167 102h142q0 -107 -81.5 -169t-227.5 -62q-144 0 -225 62t-81 169z" />
<glyph unicode="&#x150;" horiz-adv-x="1525" d="M113 717q0 126 22 234.5t71.5 202.5t124 160t184.5 104t247 38q138 0 248 -38t185 -104t124.5 -160t71.5 -202.5t22 -234.5t-22 -234t-72 -202.5t-124 -161t-184.5 -104.5t-248.5 -38q-137 0 -247 38t-184.5 104.5t-124 161t-71.5 202.5t-22 234zM340 717 q0 -96 13.5 -176t44.5 -150.5t79 -119t120.5 -76t164.5 -27.5q115 0 199 41.5t132 118t70.5 172.5t22.5 217q0 120 -22.5 216t-70.5 172.5t-132 118.5t-199 42t-198.5 -42t-131.5 -118.5t-70 -172.5t-22 -216zM498 1530l164 272h221l-252 -272h-133zM827 1530l160 272h223 l-254 -272h-129z" />
<glyph unicode="&#x151;" horiz-adv-x="1245" d="M100 537q0 265 135 413t388 148q251 0 386.5 -148t135.5 -413t-135.5 -412.5t-386.5 -147.5q-252 0 -387.5 148t-135.5 412zM315 537q0 -186 76 -289t232 -103t231.5 102.5t75.5 289.5t-75.5 290t-231.5 103t-232 -103t-76 -290zM354 1221l164 272h221l-252 -272h-133z M684 1221l160 272h223l-254 -272h-129z" />
<glyph unicode="&#x152;" horiz-adv-x="2240" d="M113 717q0 126 22 234.5t71.5 202.5t124 160t184.5 104t247 38q267 0 428 -139v117h940v-189h-721v-436h594v-184h-594v-437h733v-188h-952v117q-162 -140 -428 -140q-137 0 -247 38t-184.5 104.5t-124 161t-71.5 202.5t-22 234zM340 717q0 -96 13.5 -176t44.5 -150.5 t79 -119t120.5 -76t164.5 -27.5q115 0 199 41.5t132 118t70.5 172.5t22.5 217q0 120 -22.5 216t-70.5 172.5t-132 118.5t-199 42t-198.5 -42t-131.5 -118.5t-70 -172.5t-22 -216z" />
<glyph unicode="&#x153;" horiz-adv-x="2015" d="M100 537q0 265 135 413t388 148q279 0 417 -187q68 91 171.5 139t232.5 48q228 0 350.5 -129.5t122.5 -339.5q0 -36 -3.5 -71.5t-7.5 -53.5l-3 -17h-752q10 -163 86 -254.5t199 -91.5q63 0 143.5 25.5t130.5 50t125 64.5l90 -136q-49 -28 -70.5 -40t-83.5 -41.5 t-108 -44.5t-113.5 -28.5t-130.5 -13.5q-118 0 -216.5 46t-164.5 137q-138 -183 -415 -183q-252 0 -387.5 148t-135.5 412zM315 537q0 -186 76 -289t232 -103t231.5 102.5t75.5 289.5t-75.5 290t-231.5 103t-232 -103t-76 -290zM1151 614h557q3 164 -66 245t-198 81 q-126 0 -202 -86.5t-91 -239.5z" />
<glyph unicode="&#x154;" horiz-adv-x="1413" d="M180 0v1434h582q551 0 551 -422q0 -351 -381 -412l383 -600h-244l-356 590h-316v-590h-219zM399 768h353q335 0 335 244q0 243 -327 243h-361v-487zM569 1530l254 272h267l-345 -272h-176z" />
<glyph unicode="&#x155;" horiz-adv-x="815" d="M154 0v1075h211v-227q7 19 21 44t48 64t76.5 68.5t111.5 49t148 13.5v-200q-74 0 -137 -19t-103.5 -48.5t-72 -66t-48.5 -73t-27.5 -66t-13.5 -48.5l-3 -19v-547h-211zM285 1221l254 272h266l-344 -272h-176z" />
<glyph unicode="&#x156;" horiz-adv-x="1413" d="M180 0v1434h582q551 0 551 -422q0 -351 -381 -412l383 -600h-244l-356 590h-316v-590h-219zM399 768h353q335 0 335 244q0 243 -327 243h-361v-487zM600 -514l96 176h-84v213h185l16 -227l-158 -221z" />
<glyph unicode="&#x157;" horiz-adv-x="817" d="M156 0v1075h211v-227q7 19 21 44t48 64t76.5 68.5t111.5 49t148 13.5v-200q-74 0 -137 -19t-103.5 -48.5t-72 -66t-48.5 -73t-27.5 -66t-13.5 -48.5l-3 -19v-547h-211zM160 -514l96 176h-84v213h184l17 -227l-158 -221z" />
<glyph unicode="&#x158;" horiz-adv-x="1413" d="M180 0v1434h582q551 0 551 -422q0 -351 -381 -412l383 -600h-244l-356 590h-316v-590h-219zM399 768h353q335 0 335 244q0 243 -327 243h-361v-487zM426 1802h154l165 -168l168 168h154l-209 -272h-225z" />
<glyph unicode="&#x159;" horiz-adv-x="815" d="M141 1493h154l166 -168l168 168h153l-209 -272h-225zM154 0v1075h211v-227q7 19 21 44t48 64t76.5 68.5t111.5 49t148 13.5v-200q-74 0 -137 -19t-103.5 -48.5t-72 -66t-48.5 -73t-27.5 -66t-13.5 -48.5l-3 -19v-547h-211z" />
<glyph unicode="&#x15a;" horiz-adv-x="1255" d="M82 158l100 161q104 -61 245 -108t253 -47q115 0 194.5 52.5t79.5 150.5q0 27 -6 50t-22 43t-31 36t-45.5 33t-51 28t-63.5 27t-67 24.5t-76.5 26.5t-79.5 27q-66 22 -113.5 41.5t-105.5 54t-94 74.5t-61 100t-25 133q0 179 132.5 285t344.5 106q133 0 280 -40t260 -99 l-100 -162q-97 48 -218.5 81.5t-211.5 33.5q-109 0 -183.5 -49t-74.5 -144q0 -33 10 -60t33.5 -48.5t47.5 -37t65.5 -32t74 -27.5t87 -28.5t90.5 -30.5q48 -16 84.5 -29.5t84 -36t82.5 -46t71.5 -57t59.5 -71t37.5 -87t14.5 -105.5q0 -187 -142.5 -295.5t-357.5 -108.5 q-158 0 -321.5 54t-280.5 127zM455 1530l254 272h266l-344 -272h-176z" />
<glyph unicode="&#x15b;" horiz-adv-x="1064" d="M80 111l90 155q89 -48 203.5 -84.5t201.5 -36.5q83 0 142 35t59 96q0 26 -11.5 49t-34.5 40t-48 31t-60.5 26t-64 20t-65.5 18q-18 5 -27 7q-59 16 -103 31t-96 43t-85.5 60.5t-56 82.5t-22.5 111q0 139 106.5 221t285.5 82q217 0 448 -111l-90 -145q-83 37 -179.5 63.5 t-170.5 26.5q-84 0 -136.5 -33.5t-52.5 -93.5q0 -24 8.5 -44.5t28.5 -36.5t37 -27.5t51 -23t52 -17t58 -16t52 -13.5q72 -19 126 -39t105 -49t84 -63.5t52.5 -82.5t19.5 -106q0 -149 -113.5 -229.5t-291.5 -80.5q-131 0 -266.5 40.5t-235.5 93.5zM358 1221l254 272h267 l-344 -272h-177z" />
<glyph unicode="&#x15c;" horiz-adv-x="1255" d="M82 158l100 161q104 -61 245 -108t253 -47q115 0 194.5 52.5t79.5 150.5q0 27 -6 50t-22 43t-31 36t-45.5 33t-51 28t-63.5 27t-67 24.5t-76.5 26.5t-79.5 27q-66 22 -113.5 41.5t-105.5 54t-94 74.5t-61 100t-25 133q0 179 132.5 285t344.5 106q133 0 280 -40t260 -99 l-100 -162q-97 48 -218.5 81.5t-211.5 33.5q-109 0 -183.5 -49t-74.5 -144q0 -33 10 -60t33.5 -48.5t47.5 -37t65.5 -32t74 -27.5t87 -28.5t90.5 -30.5q48 -16 84.5 -29.5t84 -36t82.5 -46t71.5 -57t59.5 -71t37.5 -87t14.5 -105.5q0 -187 -142.5 -295.5t-357.5 -108.5 q-158 0 -321.5 54t-280.5 127zM311 1530l207 272h225l209 -272h-153l-168 168l-166 -168h-154z" />
<glyph unicode="&#x15d;" horiz-adv-x="1064" d="M80 111l90 155q89 -48 203.5 -84.5t201.5 -36.5q83 0 142 35t59 96q0 26 -11.5 49t-34.5 40t-48 31t-60.5 26t-64 20t-65.5 18q-18 5 -27 7q-59 16 -103 31t-96 43t-85.5 60.5t-56 82.5t-22.5 111q0 139 106.5 221t285.5 82q217 0 448 -111l-90 -145q-83 37 -179.5 63.5 t-170.5 26.5q-84 0 -136.5 -33.5t-52.5 -93.5q0 -24 8.5 -44.5t28.5 -36.5t37 -27.5t51 -23t52 -17t58 -16t52 -13.5q72 -19 126 -39t105 -49t84 -63.5t52.5 -82.5t19.5 -106q0 -149 -113.5 -229.5t-291.5 -80.5q-131 0 -266.5 40.5t-235.5 93.5zM215 1221l207 272h225 l209 -272h-154l-167 168l-166 -168h-154z" />
<glyph unicode="&#x15e;" horiz-adv-x="1255" d="M82 158l100 161q104 -61 245 -108t253 -47q115 0 194.5 52.5t79.5 150.5q0 27 -6 50t-22 43t-31 36t-45.5 33t-51 28t-63.5 27t-67 24.5t-76.5 26.5t-79.5 27q-66 22 -113.5 41.5t-105.5 54t-94 74.5t-61 100t-25 133q0 179 132.5 285t344.5 106q133 0 280 -40t260 -99 l-100 -162q-97 48 -218.5 81.5t-211.5 33.5q-109 0 -183.5 -49t-74.5 -144q0 -33 10 -60t33.5 -48.5t47.5 -37t65.5 -32t74 -27.5t87 -28.5t90.5 -30.5q48 -16 84.5 -29.5t84 -36t82.5 -46t71.5 -57t59.5 -71t37.5 -87t14.5 -105.5q0 -173 -121.5 -279t-312.5 -122 q63 -78 63 -164q0 -83 -60.5 -128.5t-156.5 -45.5q-89 0 -168 39l49 116q56 -26 103 -26q49 0 78.5 21.5t29.5 66.5q0 52 -43 121q-151 7 -303.5 59t-259.5 119z" />
<glyph unicode="&#x15f;" horiz-adv-x="1064" d="M80 111l90 155q89 -48 203.5 -84.5t201.5 -36.5q83 0 142 35t59 96q0 26 -11.5 49t-34.5 40t-48 31t-60.5 26t-64 20t-65.5 18q-18 5 -27 7q-59 16 -103 31t-96 43t-85.5 60.5t-56 82.5t-22.5 111q0 139 106.5 221t285.5 82q217 0 448 -111l-90 -145q-83 37 -179.5 63.5 t-170.5 26.5q-84 0 -136.5 -33.5t-52.5 -93.5q0 -24 8.5 -44.5t28.5 -36.5t37 -27.5t51 -23t52 -17t58 -16t52 -13.5q72 -19 126 -39t105 -49t84 -63.5t52.5 -82.5t19.5 -106q0 -136 -94 -214t-248 -91q64 -84 64 -166q0 -83 -60.5 -128.5t-156.5 -45.5q-89 0 -168 39 l49 116q56 -26 102 -26q49 0 79 21.5t30 66.5q0 52 -43 121q-123 5 -247 43.5t-214 87.5z" />
<glyph unicode="&#x160;" horiz-adv-x="1255" d="M82 158l100 161q104 -61 245 -108t253 -47q115 0 194.5 52.5t79.5 150.5q0 27 -6 50t-22 43t-31 36t-45.5 33t-51 28t-63.5 27t-67 24.5t-76.5 26.5t-79.5 27q-66 22 -113.5 41.5t-105.5 54t-94 74.5t-61 100t-25 133q0 179 132.5 285t344.5 106q133 0 280 -40t260 -99 l-100 -162q-97 48 -218.5 81.5t-211.5 33.5q-109 0 -183.5 -49t-74.5 -144q0 -33 10 -60t33.5 -48.5t47.5 -37t65.5 -32t74 -27.5t87 -28.5t90.5 -30.5q48 -16 84.5 -29.5t84 -36t82.5 -46t71.5 -57t59.5 -71t37.5 -87t14.5 -105.5q0 -187 -142.5 -295.5t-357.5 -108.5 q-158 0 -321.5 54t-280.5 127zM311 1802h154l166 -168l168 168h153l-209 -272h-225z" />
<glyph unicode="&#x161;" horiz-adv-x="1064" d="M80 111l90 155q89 -48 203.5 -84.5t201.5 -36.5q83 0 142 35t59 96q0 26 -11.5 49t-34.5 40t-48 31t-60.5 26t-64 20t-65.5 18q-18 5 -27 7q-59 16 -103 31t-96 43t-85.5 60.5t-56 82.5t-22.5 111q0 139 106.5 221t285.5 82q217 0 448 -111l-90 -145q-83 37 -179.5 63.5 t-170.5 26.5q-84 0 -136.5 -33.5t-52.5 -93.5q0 -24 8.5 -44.5t28.5 -36.5t37 -27.5t51 -23t52 -17t58 -16t52 -13.5q72 -19 126 -39t105 -49t84 -63.5t52.5 -82.5t19.5 -106q0 -149 -113.5 -229.5t-291.5 -80.5q-131 0 -266.5 40.5t-235.5 93.5zM217 1493h154l166 -168 l168 168h153l-209 -272h-225z" />
<glyph unicode="&#x162;" horiz-adv-x="1183" d="M41 1245v189h1102v-189h-441v-1245h-59q12 -12 27 -32.5t34 -65t19 -86.5q0 -83 -60.5 -128.5t-156.5 -45.5q-89 0 -168 39l49 116q56 -26 102 -26q49 0 79 21.5t30 66.5q0 65 -57 141h-58v1245h-442z" />
<glyph unicode="&#x163;" horiz-adv-x="811" d="M61 915v160h150v271l209 40v-311h295v-160h-295v-643q0 -62 26 -86t72 -24q68 0 193 53l77 -158q-120 -61 -264 -77q64 -79 64 -164q0 -83 -60.5 -128.5t-156.5 -45.5q-89 0 -168 39l49 116q56 -26 102 -26q49 0 79 21.5t30 66.5q0 51 -45 123q-207 29 -207 297v636h-150 z" />
<glyph unicode="&#x164;" horiz-adv-x="1183" d="M41 1245v189h1102v-189h-441v-1245h-219v1245h-442zM272 1802h154l166 -168l168 168h153l-208 -272h-226z" />
<glyph unicode="&#x165;" horiz-adv-x="811" d="M61 915v160h150v271l209 40v-311h295v-160h-295v-643q0 -62 26 -86t72 -24q68 0 193 53l77 -158q-59 -29 -144.5 -54.5t-168.5 -25.5q-264 0 -264 302v636h-150zM532 1229l97 176h-84v213h184l16 -227l-157 -222z" />
<glyph unicode="&#x166;" horiz-adv-x="1204" d="M51 1245v189h1102v-189h-440v-653h215v-133h-215v-459h-219v459h-218v133h218v653h-443z" />
<glyph unicode="&#x167;" horiz-adv-x="813" d="M63 915v160h150v271l209 40v-311h295v-160h-295v-227h231v-133h-231v-283q0 -62 26 -86t72 -24q68 0 193 53l78 -158q-58 -29 -144.5 -54.5t-169.5 -25.5q-264 0 -264 302v276h-109v133h109v227h-150z" />
<glyph unicode="&#x168;" horiz-adv-x="1443" d="M166 543v891h219v-904q0 -65 8 -116t30.5 -98.5t59.5 -79t97.5 -50t142.5 -18.5q81 0 141 18.5t97 50t59 79t30.5 98.5t8.5 116v904h221v-891q0 -99 -16 -180t-55 -154.5t-101 -123.5t-160 -79t-225 -29q-128 0 -226 29t-160 79t-101 123.5t-54.5 154.5t-15.5 180z M381 1597q25 47 41 72.5t41 55.5t54.5 43.5t66.5 13.5q45 0 97.5 -25t98 -49.5t72.5 -24.5q25 0 48 18.5t54 76.5l107 -47q-21 -44 -38.5 -73t-42 -57.5t-55 -42.5t-67.5 -14q-45 0 -97.5 24.5t-98 49t-72.5 24.5q-25 0 -48 -18t-55 -76z" />
<glyph unicode="&#x169;" d="M143 311v764h211v-721q0 -98 38 -152.5t134 -54.5q90 0 193 51.5t170 110.5v766h211v-1075h-211v143q-229 -166 -436 -166q-163 0 -236.5 90.5t-73.5 243.5zM303 1288q25 47 41 72.5t41 55.5t54.5 43.5t66.5 13.5q45 0 97.5 -24.5t98 -49.5t72.5 -25q26 0 49 18.5 t54 75.5l106 -47q-44 -91 -88.5 -138.5t-114.5 -47.5q-45 0 -97.5 24.5t-98 49t-72.5 24.5q-25 0 -47.5 -18t-54.5 -76z" />
<glyph unicode="&#x16a;" horiz-adv-x="1443" d="M166 543v891h219v-904q0 -65 8 -116t30.5 -98.5t59.5 -79t97.5 -50t142.5 -18.5q81 0 141 18.5t97 50t59 79t30.5 98.5t8.5 116v904h221v-891q0 -99 -16 -180t-55 -154.5t-101 -123.5t-160 -79t-225 -29q-128 0 -226 29t-160 79t-101 123.5t-54.5 154.5t-15.5 180z M420 1581v135h608v-135h-608z" />
<glyph unicode="&#x16b;" d="M143 311v764h211v-721q0 -98 38 -152.5t134 -54.5q90 0 193 51.5t170 110.5v766h211v-1075h-211v143q-229 -166 -436 -166q-163 0 -236.5 90.5t-73.5 243.5zM317 1272v135h609v-135h-609z" />
<glyph unicode="&#x16c;" horiz-adv-x="1443" d="M166 543v891h219v-904q0 -65 8 -116t30.5 -98.5t59.5 -79t97.5 -50t142.5 -18.5q81 0 141 18.5t97 50t59 79t30.5 98.5t8.5 116v904h221v-891q0 -99 -16 -180t-55 -154.5t-101 -123.5t-160 -79t-225 -29q-128 0 -226 29t-160 79t-101 123.5t-54.5 154.5t-15.5 180z M414 1761h143q0 -102 162 -102q168 0 168 102h141q0 -107 -81.5 -169t-227.5 -62q-144 0 -224.5 62t-80.5 169z" />
<glyph unicode="&#x16d;" d="M143 311v764h211v-721q0 -98 38 -152.5t134 -54.5q90 0 193 51.5t170 110.5v766h211v-1075h-211v143q-229 -166 -436 -166q-163 0 -236.5 90.5t-73.5 243.5zM313 1452h144q0 -102 161 -102q168 0 168 102h142q0 -107 -82 -169t-228 -62q-144 0 -224.5 62t-80.5 169z" />
<glyph unicode="&#x16e;" horiz-adv-x="1443" d="M166 543v891h219v-904q0 -65 8 -116t30.5 -98.5t59.5 -79t97.5 -50t142.5 -18.5q81 0 141 18.5t97 50t59 79t30.5 98.5t8.5 116v904h221v-891q0 -99 -16 -180t-55 -154.5t-101 -123.5t-160 -79t-225 -29q-128 0 -226 29t-160 79t-101 123.5t-54.5 154.5t-15.5 180z M506 1729q0 91 64 155t155 64t155 -64t64 -155t-64 -155.5t-155 -64.5t-155 64.5t-64 155.5zM618 1729q0 -44 31.5 -75.5t75.5 -31.5t75 31.5t31 75.5t-31 75t-75 31t-75.5 -31t-31.5 -75z" />
<glyph unicode="&#x16f;" d="M143 311v764h211v-721q0 -98 38 -152.5t134 -54.5q90 0 193 51.5t170 110.5v766h211v-1075h-211v143q-229 -166 -436 -166q-163 0 -236.5 90.5t-73.5 243.5zM403 1419q0 91 64.5 155t155.5 64t155 -64t64 -155t-64 -155t-155 -64t-155.5 64t-64.5 155zM516 1419 q0 -44 31.5 -75t75.5 -31t75 31t31 75t-31 75.5t-75 31.5t-75.5 -31.5t-31.5 -75.5z" />
<glyph unicode="&#x170;" horiz-adv-x="1443" d="M166 543v891h219v-904q0 -65 8 -116t30.5 -98.5t59.5 -79t97.5 -50t142.5 -18.5q81 0 141 18.5t97 50t59 79t30.5 98.5t8.5 116v904h221v-891q0 -99 -16 -180t-55 -154.5t-101 -123.5t-160 -79t-225 -29q-128 0 -226 29t-160 79t-101 123.5t-54.5 154.5t-15.5 180z M455 1530l163 272h222l-252 -272h-133zM784 1530l160 272h223l-254 -272h-129z" />
<glyph unicode="&#x171;" d="M143 311v764h211v-721q0 -98 38 -152.5t134 -54.5q90 0 193 51.5t170 110.5v766h211v-1075h-211v143q-229 -166 -436 -166q-163 0 -236.5 90.5t-73.5 243.5zM352 1221l164 272h221l-252 -272h-133zM682 1221l160 272h223l-254 -272h-129z" />
<glyph unicode="&#x172;" horiz-adv-x="1445" d="M166 543v891h219v-904q0 -65 8 -116t30.5 -98.5t59.5 -79t97.5 -50t142.5 -18.5q81 0 141 18.5t97 50t59 79t30.5 98.5t8.5 116v904h221v-891q0 -81 -10.5 -150t-36 -134t-65.5 -114.5t-102 -87.5t-142 -57q-42 -24 -65.5 -39.5t-60 -43t-54 -55.5t-17.5 -57 q0 -18 5.5 -31t17.5 -21t22.5 -13t30 -6.5t29 -2t30.5 0t25 0.5l-23 -113q-125 0 -185 22q-106 38 -106 142q0 105 160 194h-10q-128 0 -226 29t-160 79t-101 123.5t-54.5 154.5t-15.5 180z" />
<glyph unicode="&#x173;" d="M143 311v764h211v-721q0 -98 38 -152.5t134 -54.5q90 0 193 51.5t170 110.5v766h211v-1075h-4q-34 -20 -43 -25t-41.5 -25.5t-45.5 -33t-33 -32.5t-28 -39.5t-8 -39.5q0 -18 5.5 -31t17.5 -21t22.5 -13t30 -6.5t29 -2t30.5 0t25 0.5l-23 -113q-125 0 -185 22 q-106 38 -106 142q0 122 203 217h-57v143q-229 -166 -436 -166q-163 0 -236.5 90.5t-73.5 243.5z" />
<glyph unicode="&#x174;" horiz-adv-x="1955" d="M59 1434h248l277 -1158l297 1158h192l297 -1158l279 1158h247l-399 -1434h-227l-293 1120l-293 -1120h-227zM657 1530l207 272h226l208 -272h-153l-168 168l-166 -168h-154z" />
<glyph unicode="&#x175;" horiz-adv-x="1691" d="M57 1075h226l225 -856l246 856h184l246 -856l225 856h223l-336 -1075h-202l-248 823l-248 -823h-205zM526 1221l207 272h225l209 -272h-153l-168 168l-166 -168h-154z" />
<glyph unicode="&#x177;" horiz-adv-x="1163" d="M47 1075h229l306 -825l303 825h231l-600 -1493h-229l188 422zM262 1221l207 272h225l209 -272h-153l-168 168l-166 -168h-154z" />
<glyph unicode="&#x178;" horiz-adv-x="1318" d="M27 1434h247l385 -693l383 693h248l-522 -867v-567h-219v567zM385 1550v207h193v-207h-193zM739 1550v207h191v-207h-191z" />
<glyph unicode="&#x179;" horiz-adv-x="1271" d="M74 0v172l821 1073h-776v189h1057v-172l-824 -1074h834v-188h-1112zM471 1530l254 272h266l-344 -272h-176z" />
<glyph unicode="&#x17a;" horiz-adv-x="1077" d="M82 0v156l635 743h-615v176h885v-155l-633 -744h633v-176h-905zM356 1221l254 272h267l-345 -272h-176z" />
<glyph unicode="&#x17b;" horiz-adv-x="1271" d="M74 0v172l821 1073h-776v189h1057v-172l-824 -1074h834v-188h-1112zM551 1548v207h192v-207h-192z" />
<glyph unicode="&#x17c;" horiz-adv-x="1077" d="M82 0v156l635 743h-615v176h885v-155l-633 -744h633v-176h-905zM436 1241v207h193v-207h-193z" />
<glyph unicode="&#x17d;" horiz-adv-x="1271" d="M74 0v172l821 1073h-776v189h1057v-172l-824 -1074h834v-188h-1112zM328 1802h153l166 -168l168 168h154l-209 -272h-225z" />
<glyph unicode="&#x17e;" horiz-adv-x="1077" d="M82 0v156l635 743h-615v176h885v-155l-633 -744h633v-176h-905zM215 1493h154l166 -168l167 168h154l-209 -272h-225z" />
<glyph unicode="&#x17f;" horiz-adv-x="630" d="M59 915v160h150v117q0 301 264 301q77 0 172 -24.5t162 -51.5l-76 -153q-153 47 -215 47q-45 0 -71.5 -24.5t-26.5 -86.5v-1200h-209v915h-150z" />
<glyph unicode="&#x192;" horiz-adv-x="1138" d="M70 -418l317 1333h-149l36 160h150l31 123q39 162 109.5 228.5t209.5 66.5q27 0 56.5 -3.5t59 -9.5t55 -12.5t54 -16t44.5 -15t39.5 -14t27.5 -9.5l-104 -153q-152 52 -222 47q-91 -3 -118 -111l-29 -121h293l-35 -160h-297l-317 -1333h-211z" />
<glyph unicode="&#x1fc;" horiz-adv-x="2113" d="M-8 0l981 1434h1028v-189h-721v-436h594v-184h-594v-437h733v-188h-952v328h-592l-217 -328h-260zM590 510h471v711zM979 1530l254 272h266l-344 -272h-176z" />
<glyph unicode="&#x1fd;" horiz-adv-x="1892" d="M86 324q0 87 30 155t82.5 110t120.5 63.5t146 21.5q34 0 71.5 -4t82 -13t67 -14t72 -17.5t51.5 -13.5q8 76 31 152q-6 87 -54.5 127.5t-158.5 40.5q-79 0 -170.5 -22t-227.5 -66l-71 151q288 103 501 103q229 0 322 -115q130 115 338 115q228 0 350.5 -129.5 t122.5 -339.5q0 -36 -3.5 -71.5t-6.5 -53.5l-4 -17h-752q10 -163 86 -254.5t199 -91.5q63 0 143.5 25.5t130.5 50t125 64.5l90 -136q-49 -28 -70.5 -40t-83.5 -41.5t-108 -44.5t-113.5 -28.5t-130.5 -13.5q-126 0 -230 53.5t-169 155.5q-202 -209 -446 -209 q-72 0 -135.5 21.5t-115 62.5t-82 109t-30.5 154zM301 338q0 -97 55.5 -144t151.5 -47q167 0 334 150q-29 93 -35 195q-12 3 -57.5 15t-72 18.5t-66.5 13t-70 6.5q-125 0 -182.5 -56.5t-57.5 -150.5zM764 1221l254 272h266l-344 -272h-176zM1026 614h557q3 164 -66 245 t-198 81q-126 0 -202 -86.5t-91 -239.5z" />
<glyph unicode="&#x1fe;" horiz-adv-x="1519" d="M111 717q0 126 22 234.5t71.5 202.5t124 160t184.5 104t247 38q237 0 391 -110l68 88h167l-137 -181q162 -191 162 -536q0 -126 -22 -234t-72 -202.5t-124 -161t-184.5 -104.5t-248.5 -38q-242 0 -393 111l-66 -88h-166l135 180q-159 193 -159 537zM338 717 q0 -222 72 -355l616 818q-103 86 -266 86q-115 0 -198.5 -42t-131.5 -118.5t-70 -172.5t-22 -216zM494 254q99 -86 266 -86q115 0 199 41.5t132 118t70.5 172.5t22.5 217q0 218 -72 354zM582 1530l254 272h266l-344 -272h-176z" />
<glyph unicode="&#x1ff;" horiz-adv-x="1241" d="M98 537q0 265 135 413t388 148q181 0 305 -82l47 59h143l-104 -131q131 -146 131 -407q0 -265 -135.5 -412.5t-386.5 -147.5q-186 0 -310 80l-45 -57h-147l106 133q-127 145 -127 404zM313 537q0 -145 43 -238l453 571q-72 60 -188 60q-156 0 -232 -103t-76 -290z M428 205q75 -60 193 -60q156 0 231.5 102.5t75.5 289.5q0 151 -47 241zM436 1221l254 272h266l-344 -272h-176z" />
<glyph unicode="&#x218;" horiz-adv-x="1255" d="M82 158l100 161q104 -61 245 -108t253 -47q115 0 194.5 52.5t79.5 150.5q0 27 -6 50t-22 43t-31 36t-45.5 33t-51 28t-63.5 27t-67 24.5t-76.5 26.5t-79.5 27q-66 22 -113.5 41.5t-105.5 54t-94 74.5t-61 100t-25 133q0 179 132.5 285t344.5 106q133 0 280 -40t260 -99 l-100 -162q-97 48 -218.5 81.5t-211.5 33.5q-109 0 -183.5 -49t-74.5 -144q0 -33 10 -60t33.5 -48.5t47.5 -37t65.5 -32t74 -27.5t87 -28.5t90.5 -30.5q48 -16 84.5 -29.5t84 -36t82.5 -46t71.5 -57t59.5 -71t37.5 -87t14.5 -105.5q0 -187 -142.5 -295.5t-357.5 -108.5 q-158 0 -321.5 54t-280.5 127zM537 -514l96 176h-84v213h184l17 -227l-158 -221z" />
<glyph unicode="&#x219;" horiz-adv-x="1062" d="M80 111l90 155q89 -48 203.5 -84.5t201.5 -36.5q83 0 142 35t59 96q0 26 -11.5 49t-34.5 40t-48 31t-60.5 26t-64 20t-65.5 18q-18 5 -27 7q-59 16 -103 31t-96 43t-85.5 60.5t-56 82.5t-22.5 111q0 139 106.5 221t285.5 82q217 0 448 -111l-90 -145q-83 37 -179.5 63.5 t-170.5 26.5q-84 0 -136.5 -33.5t-52.5 -93.5q0 -24 8.5 -44.5t28.5 -36.5t37 -27.5t51 -23t52 -17t58 -16t52 -13.5q72 -19 126 -39t105 -49t84 -63.5t52.5 -82.5t19.5 -106q0 -149 -113.5 -229.5t-291.5 -80.5q-131 0 -266.5 40.5t-235.5 93.5zM426 -514l96 176h-84v213 h185l16 -227l-158 -221z" />
<glyph unicode="&#x21a;" horiz-adv-x="1183" d="M41 1245v189h1102v-189h-441v-1245h-219v1245h-442zM489 -514l97 176h-84v213h184l16 -227l-157 -221z" />
<glyph unicode="&#x21b;" horiz-adv-x="811" d="M61 915v160h150v271l209 40v-311h295v-160h-295v-643q0 -62 26 -86t72 -24q68 0 193 53l77 -158q-59 -29 -144.5 -54.5t-168.5 -25.5q-264 0 -264 302v636h-150zM266 -514l96 176h-83v213h184l16 -227l-157 -221z" />
<glyph unicode="&#x2b0;" horiz-adv-x="808" d="M96 788v895h156v-331q138 96 270 96q197 0 197 -203v-457h-156v424q0 115 -98 115q-54 0 -114 -28t-99 -62v-449h-156z" />
<glyph unicode="&#x2b2;" horiz-adv-x="352" d="M-49 629q40 12 64 20.5t42.5 20t26.5 18.5t12.5 24.5t5 29t0.5 40.5v652h156v-641q0 -72 -4 -103t-28 -69.5t-77 -60.5t-149 -44zM96 1538v143h166v-143h-166z" />
<glyph unicode="&#x2b7;" horiz-adv-x="1085" d="M37 1434h166l129 -492l145 492h133l144 -494l131 494h164l-209 -646h-150l-147 469l-148 -469h-145z" />
<glyph unicode="&#x2b8;" horiz-adv-x="753" d="M31 1434h168l180 -461l178 461h166l-375 -895h-166l115 254z" />
<glyph unicode="&#x2c6;" horiz-adv-x="567" d="M-37 1221l207 272h225l209 -272h-153l-168 168l-166 -168h-154z" />
<glyph unicode="&#x2c7;" horiz-adv-x="567" d="M-37 1493h154l166 -168l168 168h153l-209 -272h-225z" />
<glyph unicode="&#x2d8;" horiz-adv-x="552" d="M-31 1452h144q0 -102 161 -102q168 0 168 102h142q0 -107 -82 -169t-228 -62q-144 0 -224.5 62t-80.5 169z" />
<glyph unicode="&#x2d9;" horiz-adv-x="161" d="M-16 1241v207h192v-207h-192z" />
<glyph unicode="&#x2da;" horiz-adv-x="417" d="M-10 1419q0 91 64 155t155 64t155 -64t64 -155t-64 -155t-155 -64t-155 64t-64 155zM102 1419q0 -44 31.5 -75t75.5 -31t75 31t31 75t-31 75.5t-75 31.5t-75.5 -31.5t-31.5 -75.5z" />
<glyph unicode="&#x2db;" horiz-adv-x="325" d="M-31 -217q0 71 71 132.5t183 107.5l103 -21q-111 -64 -151 -101q-51 -50 -52 -96q0 -18 5.5 -31t17.5 -21t22.5 -13t30 -6.5t29 -2t30.5 0t25 0.5l-23 -113q-125 0 -185 22q-106 38 -106 142z" />
<glyph unicode="&#x2dc;" horiz-adv-x="598" d="M-41 1288q25 47 41 72.5t41 55.5t54.5 43.5t66.5 13.5q45 0 97.5 -24.5t98 -49.5t72.5 -25q26 0 48.5 18t53.5 76l107 -47q-44 -91 -88.5 -138.5t-114.5 -47.5q-45 0 -97.5 24.5t-98 49t-72.5 24.5q-25 0 -47.5 -18t-54.5 -76z" />
<glyph unicode="&#x2dd;" horiz-adv-x="643" d="M-35 1221l164 272h221l-252 -272h-133zM295 1221l160 272h223l-254 -272h-129z" />
<glyph unicode="&#x2e3;" horiz-adv-x="782" d="M23 788l276 322l-262 324h180l176 -242l174 242h181l-261 -324l275 -322h-184l-187 246l-182 -246h-186z" />
<glyph unicode="&#x3c0;" horiz-adv-x="1175" d="M63 891v184h1051v-184h-178v-891h-188v891h-318v-891h-190v891h-177z" />
<glyph unicode="&#x1e80;" horiz-adv-x="1955" d="M59 1434h248l277 -1158l297 1158h192l297 -1158l279 1158h247l-399 -1434h-227l-293 1120l-293 -1120h-227zM635 1802h266l254 -272h-174z" />
<glyph unicode="&#x1e81;" horiz-adv-x="1691" d="M57 1075h226l225 -856l246 856h184l246 -856l225 856h223l-336 -1075h-202l-248 823l-248 -823h-205zM502 1493h266l254 -272h-174z" />
<glyph unicode="&#x1e82;" horiz-adv-x="1955" d="M59 1434h248l277 -1158l297 1158h192l297 -1158l279 1158h247l-399 -1434h-227l-293 1120l-293 -1120h-227zM801 1530l254 272h266l-344 -272h-176z" />
<glyph unicode="&#x1e83;" horiz-adv-x="1691" d="M57 1075h226l225 -856l246 856h184l246 -856l225 856h223l-336 -1075h-202l-248 823l-248 -823h-205zM670 1221l254 272h266l-344 -272h-176z" />
<glyph unicode="&#x1e84;" horiz-adv-x="1955" d="M59 1434h248l277 -1158l297 1158h192l297 -1158l279 1158h247l-399 -1434h-227l-293 1120l-293 -1120h-227zM705 1550v207h192v-207h-192zM1059 1550v207h190v-207h-190z" />
<glyph unicode="&#x1e85;" horiz-adv-x="1691" d="M57 1075h226l225 -856l246 856h184l246 -856l225 856h223l-336 -1075h-202l-248 823l-248 -823h-205zM573 1241v207h193v-207h-193zM928 1241v207h190v-207h-190z" />
<glyph unicode="&#x1e9e;" horiz-adv-x="1642" d="M180 0v920q0 258 128 386t370 128h698v-150l-381 -420q148 -14 260.5 -56.5t179.5 -105t100.5 -137t33.5 -159.5q0 -83 -30 -157.5t-89 -136.5t-158 -98.5t-225 -36.5q-142 0 -274 42.5t-232 101.5l101 162q81 -49 184 -84t201 -35q142 0 218 72.5t76 171.5 q0 38 -11 73.5t-44.5 75t-87 68.5t-147 48t-215.5 19h-109v146l369 407h-404q-68 0 -119 -17t-91.5 -56.5t-61.5 -109.5t-21 -169v-893h-219z" />
<glyph unicode="&#x1ef2;" horiz-adv-x="1318" d="M27 1434h247l385 -693l383 693h248l-522 -867v-567h-219v567zM315 1802h267l254 -272h-174z" />
<glyph unicode="&#x1ef3;" horiz-adv-x="1163" d="M47 1075h229l306 -825l303 825h231l-600 -1493h-229l188 422zM238 1493h266l254 -272h-174z" />
<glyph unicode="&#x2000;" horiz-adv-x="974" />
<glyph unicode="&#x2001;" horiz-adv-x="1948" />
<glyph unicode="&#x2002;" horiz-adv-x="974" />
<glyph unicode="&#x2003;" horiz-adv-x="1948" />
<glyph unicode="&#x2004;" horiz-adv-x="649" />
<glyph unicode="&#x2005;" horiz-adv-x="487" />
<glyph unicode="&#x2006;" horiz-adv-x="324" />
<glyph unicode="&#x2007;" horiz-adv-x="324" />
<glyph unicode="&#x2008;" horiz-adv-x="243" />
<glyph unicode="&#x2009;" horiz-adv-x="389" />
<glyph unicode="&#x200a;" horiz-adv-x="108" />
<glyph unicode="&#x2010;" horiz-adv-x="888" d="M141 494v178h604v-178h-604z" />
<glyph unicode="&#x2011;" horiz-adv-x="888" d="M141 494v178h604v-178h-604z" />
<glyph unicode="&#x2012;" horiz-adv-x="888" d="M141 494v178h604v-178h-604z" />
<glyph unicode="&#x2013;" horiz-adv-x="1153" d="M143 496v176h871v-176h-871z" />
<glyph unicode="&#x2014;" horiz-adv-x="1370" d="M141 496v176h1088v-176h-1088z" />
<glyph unicode="&#x2018;" horiz-adv-x="501" d="M113 1204l194 271l68 -76l-117 -217h104v-277h-227z" />
<glyph unicode="&#x2019;" horiz-adv-x="487" d="M125 940l117 217h-105v277h228l22 -299l-194 -271z" />
<glyph unicode="&#x201a;" horiz-adv-x="528" d="M139 -217l117 217h-104v276h227l22 -299l-194 -270z" />
<glyph unicode="&#x201c;" horiz-adv-x="901" d="M113 1204l194 271l68 -76l-117 -217h104v-277h-227zM518 1204l195 271l67 -76l-116 -217h104v-277h-227z" />
<glyph unicode="&#x201d;" horiz-adv-x="892" d="M125 940l117 217h-105v277h228l22 -299l-194 -271zM528 940l117 217h-104v277h227l23 -299l-195 -271z" />
<glyph unicode="&#x201e;" horiz-adv-x="933" d="M139 -217l117 217h-104v276h227l22 -299l-194 -270zM545 -217l117 217h-105v276h227l23 -299l-195 -270z" />
<glyph unicode="&#x2020;" horiz-adv-x="1193" d="M57 793v180l457 -25v486h166v-486l457 25v-180l-457 22v-1233h-166v1233z" />
<glyph unicode="&#x2021;" horiz-adv-x="1275" d="M98 256v180l455 -24v403l-455 -22v180l455 -25v486h168v-486l457 25v-180l-457 22v-403l457 24v-180l-457 23v-697h-168v697z" />
<glyph unicode="&#x2022;" horiz-adv-x="907" d="M170 582q0 119 82.5 202.5t200.5 83.5t201 -83.5t83 -202.5q0 -118 -82.5 -200.5t-201.5 -82.5t-201 82.5t-82 200.5z" />
<glyph unicode="&#x2026;" horiz-adv-x="1404" d="M139 0v276h234v-276h-234zM584 0v276h233v-276h-233zM1030 0v276h234v-276h-234z" />
<glyph unicode="&#x202f;" horiz-adv-x="389" />
<glyph unicode="&#x2030;" horiz-adv-x="2914" d="M80 1071q0 183 101.5 284t275.5 101q176 0 278.5 -101t102.5 -284t-102.5 -283t-278.5 -100q-175 0 -276 100t-101 283zM248 1071q0 -118 55 -181t154 -63q102 0 157.5 63t55.5 181q0 119 -55.5 182.5t-157.5 63.5q-99 0 -154 -63.5t-55 -182.5zM557 0l748 1434h174 l-748 -1434h-174zM1198 360q0 184 101.5 284.5t277.5 100.5t277.5 -100.5t101.5 -284.5q0 -183 -101.5 -283t-277.5 -100t-277.5 100t-101.5 283zM1366 360q0 -118 55 -180.5t156 -62.5t156 62.5t55 180.5q0 119 -55 182.5t-156 63.5t-156 -63.5t-55 -182.5zM2079 360 q0 183 102 284t277 101q174 0 276 -101t102 -284t-101.5 -283t-276.5 -100t-277 100t-102 283zM2247 360q0 -118 55 -180.5t156 -62.5t156 62.5t55 180.5q0 119 -55 182.5t-156 63.5t-156 -63.5t-55 -182.5z" />
<glyph unicode="&#x2039;" horiz-adv-x="813" d="M70 500v133l624 448v-207l-442 -309l442 -307v-205z" />
<glyph unicode="&#x203a;" horiz-adv-x="813" d="M119 51v207l442 309l-442 307v205l624 -446v-133z" />
<glyph unicode="&#x2044;" horiz-adv-x="391" d="M-227 0l680 1434h170l-680 -1434h-170z" />
<glyph unicode="&#x205f;" horiz-adv-x="487" />
<glyph unicode="&#x2070;" horiz-adv-x="874" d="M78 1219q0 213 92 328.5t270 115.5q177 0 269 -115.5t92 -328.5q0 -214 -92.5 -329.5t-270.5 -115.5q-177 0 -268.5 115.5t-91.5 329.5zM240 1219q0 -320 198 -320q203 0 203 320q0 319 -201 319q-200 0 -200 -319z" />
<glyph unicode="&#x2074;" horiz-adv-x="856" d="M41 963v112l420 574h213v-555h137v-131h-137v-175h-160v175h-473zM209 1094h305v426z" />
<glyph unicode="&#x2075;" horiz-adv-x="776" d="M53 874l72 117q122 -80 235 -80q80 0 135.5 42t55.5 112q0 64 -49 108t-137 44q-81 0 -183 -50l-90 52l49 430h537v-133h-406l-14 -195q73 25 143 25q146 0 231 -81.5t85 -199.5q0 -121 -88 -206t-248 -85q-165 0 -328 100z" />
<glyph unicode="&#x2076;" horiz-adv-x="819" d="M70 1155q0 219 141 363.5t364 144.5q33 0 65.5 -3.5t48.5 -7.5l16 -3l-37 -125q-41 8 -90 8q-123 0 -213.5 -70t-120.5 -202q86 81 227 81q133 0 213 -76t80 -194q0 -124 -92 -210.5t-244 -86.5q-89 0 -159 30.5t-112.5 83.5t-64.5 120.5t-22 146.5zM231 1122 q3 -104 56 -160.5t137 -56.5q86 0 132 48t46 112t-44.5 110t-127.5 46q-69 0 -121.5 -30.5t-77.5 -68.5z" />
<glyph unicode="&#x2077;" horiz-adv-x="679" d="M39 1516v133h614v-123q-13 -15 -35 -43t-78.5 -113t-99.5 -168.5t-78.5 -198.5t-35.5 -215h-166q0 93 31.5 200.5t71.5 189t92 164.5t77.5 117t44.5 57h-438z" />
<glyph unicode="&#x2078;" horiz-adv-x="837" d="M63 1016q0 46 17 84t48 67t64 49t76 39q-149 75 -149 197q0 95 82.5 153t220.5 58q137 0 219 -58.5t82 -152.5q0 -122 -154 -197q93 -41 150 -97t57 -142q0 -111 -97 -176.5t-257 -65.5q-164 0 -261.5 65t-97.5 177zM225 1028q0 -59 56 -95t141 -36q83 0 136.5 36 t53.5 95q0 30 -15.5 56t-45.5 46.5t-59.5 35t-71.5 30.5q-42 -16 -72.5 -30.5t-61 -35t-46 -46.5t-15.5 -56zM274 1438q0 -80 146 -129q64 22 104.5 52t40.5 77q0 43 -40 74.5t-103 31.5q-66 0 -107 -31.5t-41 -74.5z" />
<glyph unicode="&#x2079;" horiz-adv-x="819" d="M57 1366q0 125 91 211t243 86q89 0 159 -30.5t113 -84t65 -121.5t22 -147q0 -218 -141 -362t-365 -144q-33 0 -64.5 3.5t-47.5 6.5l-15 4l39 125q37 -8 86 -8q122 0 211.5 69.5t119.5 201.5q-85 -80 -225 -80q-133 0 -212 76t-79 194zM217 1370q0 -64 45 -108.5 t129 -44.5q68 0 120.5 29t76.5 65q-3 106 -56.5 163.5t-136.5 57.5q-86 0 -132 -48.5t-46 -113.5z" />
<glyph unicode="&#x207a;" horiz-adv-x="833" d="M88 1141v116h268v228h121v-228h268v-116h-268v-230h-121v230h-268z" />
<glyph unicode="&#x207d;" horiz-adv-x="425" d="M88 883v667q0 31 0.5 47.5t3 40t7 36.5t13.5 31t22 28.5t32 23.5t45 22.5t59.5 19.5t75.5 20l43 -90q-53 -17 -80 -28.5t-41.5 -30t-17 -35.5t-2.5 -54v-729q0 -37 2.5 -54t17 -35.5t41.5 -31t80 -29.5l-43 -90q-48 11 -84 21.5t-63.5 24t-46 25t-31 30t-19 32.5t-10 40 t-4 44.5t-0.5 53.5z" />
<glyph unicode="&#x207e;" horiz-adv-x="425" d="M39 702q53 17 80 28.5t41.5 30t17 35.5t2.5 54v729q0 37 -2.5 54t-17 35.5t-41.5 31t-80 29.5l43 90q48 -11 84 -21.5t63.5 -24t46 -25t31 -30t19 -32.5t10 -40t4 -44.5t0.5 -53.5v-667q0 -31 -0.5 -47.5t-3 -40t-7 -36.5t-13.5 -31t-22 -28.5t-32 -23.5t-45 -22.5 t-59.5 -19.5t-75.5 -20z" />
<glyph unicode="&#x207f;" horiz-adv-x="808" d="M96 788v646h156v-82q138 96 270 96q197 0 197 -203v-457h-156v424q0 115 -98 115q-54 0 -114 -28t-99 -62v-449h-156z" />
<glyph unicode="&#x2080;" horiz-adv-x="874" d="M78 123q0 213 92 328.5t270 115.5q177 0 269 -115.5t92 -328.5q0 -214 -92.5 -329.5t-270.5 -115.5q-177 0 -268.5 115.5t-91.5 329.5zM240 123q0 -320 198 -320q203 0 203 320q0 319 -201 319q-200 0 -200 -319z" />
<glyph unicode="&#x2081;" horiz-adv-x="518" d="M23 428l233 125h152v-860h-162v708l-158 -77z" />
<glyph unicode="&#x2082;" horiz-adv-x="782" d="M57 -227q0 51 17.5 97t40.5 78t67 69t74.5 57.5t85.5 54.5q117 72 148 99q56 50 57 100q0 46 -40.5 76t-111.5 30q-63 0 -128 -25t-111 -55l-74 105q169 108 334 108q136 0 214.5 -65.5t78.5 -167.5q0 -57 -22 -104t-71 -88.5t-83.5 -64.5t-103.5 -62q-13 -7 -19 -11 q-83 -50 -122.5 -88t-39.5 -90h463v-133h-654v80z" />
<glyph unicode="&#x2083;" horiz-adv-x="788" d="M39 -219l74 108q136 -77 264 -77q80 0 130 35.5t50 95.5q0 42 -25.5 72t-67.5 45t-84.5 21.5t-88.5 6.5h-43v133h49q86 0 153.5 29.5t67.5 89.5q0 44 -36.5 69t-100.5 25q-107 0 -234 -72l-65 101q23 18 59.5 38.5t111 43t150.5 22.5q134 0 205.5 -59.5t71.5 -147.5 q0 -64 -41.5 -114.5t-118.5 -77.5q89 -24 144 -85t55 -142q0 -108 -81 -185.5t-243 -77.5q-180 0 -356 103z" />
<glyph unicode="&#x2084;" horiz-adv-x="856" d="M41 -20l420 573h213v-555h137v-131h-137v-174h-160v174h-473v113zM209 -2h305v426z" />
<glyph unicode="&#x2085;" horiz-adv-x="776" d="M53 -221l72 117q122 -80 235 -80q80 0 135.5 41.5t55.5 111.5q0 64 -49 108t-137 44q-83 0 -183 -49l-90 51l49 430h537v-133h-406l-14 -195q73 25 143 25q146 0 231 -81.5t85 -199.5q0 -121 -88 -206t-248 -85q-164 0 -328 101z" />
<glyph unicode="&#x2086;" horiz-adv-x="819" d="M70 59q0 219 141 363.5t364 144.5q33 0 65.5 -3.5t48.5 -7.5l16 -3l-37 -125q-41 8 -90 8q-123 0 -213.5 -70t-120.5 -202q87 82 227 82q133 0 213 -76.5t80 -194.5q0 -124 -92 -210.5t-244 -86.5q-89 0 -159 30.5t-112.5 83.5t-64.5 120.5t-22 146.5zM231 27 q3 -104 56 -160.5t137 -56.5q86 0 132 48t46 111q0 64 -44.5 110t-127.5 46q-69 0 -121.5 -30.5t-77.5 -67.5z" />
<glyph unicode="&#x2087;" horiz-adv-x="679" d="M39 420v133h614v-123q-13 -15 -35 -43t-78.5 -112.5t-99.5 -168t-78.5 -198.5t-35.5 -215h-166q0 93 31.5 200.5t71 188.5t92 164t78 117t44.5 57h-438z" />
<glyph unicode="&#x2088;" horiz-adv-x="837" d="M63 -80q0 86 56.5 142.5t148.5 97.5q-149 74 -149 196q0 95 82.5 153t220.5 58q137 0 219 -58.5t82 -152.5q0 -121 -154 -196q93 -41 150 -97.5t57 -142.5q0 -111 -97 -176.5t-257 -65.5q-164 0 -261.5 65t-97.5 177zM225 -68q0 -59 56 -95t141 -36q83 0 136.5 36 t53.5 95q0 30 -15.5 56t-45.5 46.5t-59.5 35t-71.5 30.5q-42 -16 -72.5 -30.5t-61 -35t-46 -46.5t-15.5 -56zM274 342q0 -80 146 -129q64 22 104.5 52t40.5 77q0 43 -40.5 75t-102.5 32q-66 0 -107 -32t-41 -75z" />
<glyph unicode="&#x2089;" horiz-adv-x="819" d="M57 270q0 125 91 211t243 86q89 0 159 -30.5t113 -84t65 -121.5t22 -147q0 -218 -141 -362t-365 -144q-33 0 -64.5 4t-47.5 8l-15 3l39 125q37 -8 86 -8q122 0 211.5 69t119.5 201q-85 -80 -225 -80q-133 0 -212 76t-79 194zM217 274q0 -64 45 -108.5t129 -44.5 q68 0 120.5 29t76.5 65q-3 106 -56.5 163.5t-136.5 57.5q-86 0 -132 -48.5t-46 -113.5z" />
<glyph unicode="&#x208a;" horiz-adv-x="833" d="M88 45v117h268v227h121v-227h268v-117h-268v-229h-121v229h-268z" />
<glyph unicode="&#x208d;" horiz-adv-x="425" d="M88 -213v668q0 34 0.5 52.5t4 44t10 39.5t19 32.5t31 29.5t46 24.5t63.5 24t84 21.5l43 -90q-53 -17 -80 -28.5t-41.5 -30t-17 -35.5t-2.5 -54v-729q0 -37 2.5 -54t17 -35.5t41.5 -30.5t80 -29l-43 -90q-38 9 -69 17t-55.5 18.5t-43 19t-33 21.5t-24 23t-16 27t-10 29 t-5 34t-2 37.5t-0.5 43.5z" />
<glyph unicode="&#x208e;" horiz-adv-x="425" d="M39 -393q53 17 80 28.5t41.5 29.5t17 35t2.5 54v729q0 37 -2.5 54t-17 35.5t-41.5 31t-80 29.5l43 90q38 -9 69 -17t55.5 -18.5t43 -19t33 -21.5t24 -23t16 -27t10 -29t5 -34t2 -37.5t0.5 -43.5v-668q0 -34 -0.5 -52.5t-4 -44t-10 -39.5t-19 -32.5t-31 -29.5t-46 -24.5 t-63.5 -24t-84 -21.5z" />
<glyph unicode="&#x20a1;" horiz-adv-x="1144" d="M121 719q0 137 39 246t105.5 176t150.5 102t178 35q4 0 14 -1t15 -1l36 158h111l-41 -172q25 -6 68 -21l45 193h114l-53 -232q44 -21 146 -76l-95 -155l-94 51l-153 -670q21 5 42 12t42.5 16.5t37.5 17t38.5 19.5t32 17t31 17.5t23.5 13.5l95 -156q-72 -39 -107 -57.5 t-121 -50t-159 -39.5l-37 -162h-115l37 160q-35 3 -70 12l-39 -172h-110l49 211q-117 62 -186.5 191t-69.5 317zM338 719q0 -185 88 -291l154 666q-109 -15 -175.5 -116t-66.5 -259zM520 358q35 -12 68 -18l168 727q-20 8 -66 20z" />
<glyph unicode="&#x20a4;" horiz-adv-x="1155" d="M121 0v154q7 4 18.5 12t43 34.5t59 56t57.5 75.5t47 94h-203v121h226q0 57 -25 127h-201v123h138q-3 4 -16 25.5t-16.5 28t-15 26.5t-15.5 29t-13 28t-12.5 31t-9.5 31t-8.5 34.5t-4.5 35t-2 38.5q0 160 111 256t301 96q72 0 141 -13.5t136.5 -41t105 -46t98.5 -52.5 l-103 -148q-215 115 -346 115q-108 0 -166.5 -56.5t-58.5 -140.5q0 -36 13 -75t26.5 -63.5t42.5 -70.5t41 -67h389v-123h-336q15 -66 15 -111v-16h321v-121h-346q-26 -79 -71.5 -143.5t-82.5 -96.5h637v-186h-915z" />
<glyph unicode="&#x20a7;" horiz-adv-x="1400" d="M133 934v102h64v398h538q244 0 386 -96.5t159 -301.5h55v-102h-57q-32 -393 -543 -393h-319v-541h-219v934h-64zM416 725h315q291 0 324 209h-639v-209zM416 1036h639q-30 211 -324 211h-315v-211z" />
<glyph unicode="&#x20a9;" horiz-adv-x="2105" d="M111 842v135h149l-127 457h248l108 -457h347l118 457h193l117 -457h348l110 457h248l-127 -457h152v-135h-191l-59 -217h250v-136h-289l-135 -489h-228l-292 1120l-293 -1120h-228l-135 489h-282v136h245l-61 217h-186zM522 842l51 -217h172l56 217h-279zM606 489 l51 -213l54 213h-105zM1298 842l56 -217h174l51 217h-281zM1389 489l55 -213l51 213h-106z" />
<glyph unicode="&#x20ac;" horiz-adv-x="1462" d="M96 487v125h127q-4 66 -4 105q0 61 2 92h-125v127h140q48 258 198.5 389t358.5 131q78 0 155 -17t153 -50.5t132.5 -64.5t130.5 -77l-111 -160q-61 38 -102.5 61t-103 52t-120 43t-114.5 14q-126 0 -215.5 -84t-126.5 -237h545v-127h-565q-5 -39 -5 -92q0 -23 5 -105h565 v-125h-543q38 -150 127 -230.5t213 -80.5q56 0 114.5 14t120 43t103 52t102.5 61l111 -160q-74 -46 -130.5 -77t-132.5 -64.5t-153 -50.5t-155 -17q-135 0 -245.5 53t-193.5 169.5t-116 287.5h-142z" />
<glyph unicode="&#x2116;" horiz-adv-x="2363" d="M186 0v1434h226l694 -1108v1108h221v-1434h-225l-696 1108v-1108h-220zM1458 999q0 201 103.5 308.5t298.5 107.5q193 0 296 -107.5t103 -308.5q0 -202 -102.5 -308.5t-296.5 -106.5q-195 0 -298.5 106.5t-103.5 308.5zM1534 346v131h651v-131h-651zM1651 999 q0 -134 49.5 -200t159.5 -66q108 0 157 66t49 200t-49 200.5t-157 66.5q-110 0 -159.5 -66.5t-49.5 -200.5z" />
<glyph unicode="&#x2117;" horiz-adv-x="1679" d="M111 717q0 156 49 290.5t140 234.5t230.5 157t311.5 57t311 -57t230 -157t139.5 -234.5t48.5 -290.5t-48.5 -290.5t-139.5 -234.5t-230 -157.5t-311 -57.5t-311.5 57.5t-230.5 157.5t-140 234.5t-49 290.5zM188 717q0 -141 43.5 -262t124.5 -210.5t205.5 -140.5 t278.5 -51q204 0 354 88.5t224.5 237t74.5 338.5q0 141 -43.5 262t-125 210t-206 140t-278.5 51t-278.5 -51t-205.5 -140t-124.5 -210t-43.5 -262zM616 285v862h287q299 0 299 -262q0 -264 -299 -264h-192v-336h-95zM711 702h194q92 0 146.5 44t54.5 139q0 180 -201 180 h-194v-363z" />
<glyph unicode="&#x2120;" horiz-adv-x="1325" d="M119 1030l49 70q41 -19 97 -34t100 -15q39 0 68.5 12t29.5 35q0 12 -9 21t-29 16t-38.5 12t-51 13t-54.5 14q-41 11 -69.5 23.5t-53.5 41.5t-25 68q0 60 51.5 97.5t137.5 37.5q113 0 223 -56l-49 -67q-102 39 -170 39q-38 0 -63 -11.5t-25 -33.5q0 -12 8 -20.5 t25.5 -14.5t35.5 -10.5l48 -12t53 -14.5q31 -8 54.5 -17.5t50.5 -25t41.5 -40t14.5 -54.5q0 -61 -57 -99t-145 -38q-124 0 -248 63zM639 975v459h109l161 -281l160 281h109v-459h-103v309l-133 -233h-68l-131 233v-309h-104z" />
<glyph unicode="&#x2122;" horiz-adv-x="1331" d="M129 1348v86h432v-86h-166v-373h-104v373h-162zM633 975v459h110l158 -281l162 281h108v-459h-104v307l-131 -231h-66l-135 237v-313h-102z" />
<glyph unicode="&#x2126;" horiz-adv-x="1538" d="M121 741q0 155 37.5 282.5t114 225.5t202.5 152.5t293 54.5t293.5 -54.5t203 -152.5t114.5 -225.5t38 -282.5q0 -93 -17.5 -176t-45 -143t-64.5 -109t-73.5 -79.5t-73.5 -47.5h229v-186h-506v186q151 49 238.5 187t87.5 348q0 547 -424 547t-424 -545q0 -211 88 -348.5 t238 -188.5v-186h-506v186h225q-45 23 -89 66.5t-86 110t-67.5 165.5t-25.5 213z" />
<glyph unicode="&#x2153;" horiz-adv-x="1738" d="M55 1309l234 125h151v-861h-161v709l-158 -78zM338 0l680 1434h170l-680 -1434h-170zM963 88l73 109q138 -78 264 -78q80 0 130.5 35.5t50.5 95.5q0 42 -25.5 72t-68 45t-85 21.5t-88.5 6.5h-43v133h50q86 0 153.5 29.5t67.5 89.5q0 44 -36.5 69t-100.5 25 q-109 0 -234 -71l-65 100q23 18 59.5 38.5t111 43t150.5 22.5q134 0 205.5 -59t71.5 -147q0 -64 -41.5 -115t-118.5 -78q88 -24 143 -85t55 -142q0 -108 -80.5 -185t-242.5 -77q-182 0 -356 102z" />
<glyph unicode="&#x2154;" horiz-adv-x="2004" d="M96 573v80q0 51 17.5 97t40.5 78.5t67 69t75 57.5t85 55q9 5 26 16q49 30 72.5 45.5t53 40t41.5 47.5t12 49q0 46 -40.5 76.5t-111.5 30.5q-63 0 -128 -25t-111 -55l-74 104q170 109 334 109q136 0 214.5 -65.5t78.5 -168.5q0 -46 -17.5 -87t-40.5 -70t-66.5 -62 t-72 -50.5t-81.5 -47.5l-21 -12q-83 -50 -122.5 -88t-39.5 -90h463v-134h-654zM610 0l680 1434h170l-680 -1434h-170zM1239 88l74 109q138 -78 264 -78q80 0 130 35.5t50 95.5q0 42 -25.5 72t-67.5 45t-84.5 21.5t-88.5 6.5h-43v133h49q86 0 153.5 29.5t67.5 89.5 q0 44 -36.5 69t-100.5 25q-108 0 -233 -71l-66 100q23 18 59.5 38.5t111.5 43t151 22.5q134 0 205 -59t71 -147q0 -64 -41.5 -115t-118.5 -78q89 -24 144 -85t55 -142q0 -50 -18.5 -95.5t-55.5 -83.5t-101.5 -60.5t-148.5 -22.5q-182 0 -356 102z" />
<glyph unicode="&#x2155;" horiz-adv-x="1753" d="M55 1309l234 125h151v-861h-161v709l-158 -78zM338 0l680 1434h170l-680 -1434h-170zM985 86l72 117q122 -80 235 -80q80 0 135.5 41.5t55.5 111.5q0 64 -49.5 108t-137.5 44q-82 0 -182 -49l-90 51l49 430h537v-133h-406l-14 -195q73 25 143 25q146 0 231 -81.5 t85 -199.5q0 -121 -88 -205.5t-248 -84.5q-165 0 -328 100z" />
<glyph unicode="&#x2156;" horiz-adv-x="2015" d="M96 573v80q0 51 17.5 97t40.5 78.5t67 69t75 57.5t85 55q9 5 26 16q49 30 72.5 45.5t53 40t41.5 47.5t12 49q0 46 -40.5 76.5t-111.5 30.5q-63 0 -128 -25t-111 -55l-74 104q170 109 334 109q136 0 214.5 -65.5t78.5 -168.5q0 -46 -17.5 -87t-40.5 -70t-66.5 -62 t-72 -50.5t-81.5 -47.5l-21 -12q-83 -50 -122.5 -88t-39.5 -90h463v-134h-654zM610 0l680 1434h170l-680 -1434h-170zM1255 86l72 117q122 -80 236 -80q80 0 135 41.5t55 111.5q0 64 -49 108t-137 44q-83 0 -183 -49l-90 51l49 430h537v-133h-405l-15 -195q73 25 144 25 q146 0 230.5 -81.5t84.5 -199.5q0 -121 -88 -205.5t-248 -84.5q-165 0 -328 100z" />
<glyph unicode="&#x2157;" horiz-adv-x="1968" d="M78 662l74 108q138 -78 264 -78q80 0 130 35.5t50 95.5q0 42 -25.5 72t-67.5 45.5t-84.5 22t-88.5 6.5h-43v133h49q86 0 153.5 29.5t67.5 89.5q0 44 -36.5 69t-100.5 25q-107 0 -234 -72l-65 100q23 19 59.5 39.5t111 43t150.5 22.5q134 0 205.5 -59.5t71.5 -147.5 q0 -64 -41.5 -114.5t-118.5 -77.5q88 -24 143.5 -85.5t55.5 -142.5q0 -50 -18.5 -95.5t-55.5 -83.5t-101.5 -60.5t-148.5 -22.5q-180 0 -356 103zM559 0l680 1434h170l-680 -1434h-170zM1204 86l72 117q122 -80 235 -80q80 0 135.5 41.5t55.5 111.5q0 64 -49 108t-137 44 q-83 0 -183 -49l-90 51l49 430h537v-133h-406l-14 -195q73 25 143 25q146 0 231 -81.5t85 -199.5q0 -121 -88 -205.5t-248 -84.5q-165 0 -328 100z" />
<glyph unicode="&#x2158;" horiz-adv-x="2039" d="M63 748v112l420 574h213v-555h138v-131h-138v-175h-159v175h-474zM231 879h306v426zM631 0l680 1434h170l-680 -1434h-170zM1276 86l72 117q122 -80 235 -80q80 0 135.5 41.5t55.5 111.5q0 64 -49.5 108t-137.5 44q-82 0 -182 -49l-90 51l49 430h537v-133h-406l-14 -195 q73 25 143 25q146 0 230.5 -81.5t84.5 -199.5q0 -121 -87.5 -205.5t-247.5 -84.5q-165 0 -328 100z" />
<glyph unicode="&#x2159;" horiz-adv-x="1705" d="M55 1309l234 125h151v-861h-161v709l-158 -78zM338 0l680 1434h170l-680 -1434h-170zM915 367q0 144 63 259t179 181.5t264 66.5q33 0 65 -3.5t48 -6.5l16 -4l-37 -125q-41 8 -90 8q-123 0 -213 -70t-120 -202q87 82 227 82q133 0 213 -76t80 -194q0 -124 -92 -210.5 t-244 -86.5q-175 0 -267 108.5t-92 272.5zM1077 334q3 -104 56 -160.5t137 -56.5q86 0 132 48t46 111q0 64 -44.5 110t-127.5 46q-69 0 -121.5 -30.5t-77.5 -67.5z" />
<glyph unicode="&#x215a;" horiz-adv-x="1888" d="M88 659l72 117q122 -80 235 -80q80 0 135.5 42t55.5 112q0 64 -49.5 107.5t-137.5 43.5q-82 0 -182 -49l-90 52l49 430h537v-134h-406l-14 -194q70 24 143 24q146 0 231 -81t85 -199q0 -121 -88 -206t-248 -85q-165 0 -328 100zM526 0l680 1434h170l-680 -1434h-170z M1102 367q0 144 63 259t179 181.5t264 66.5q33 0 65 -3.5t48 -6.5l16 -4l-37 -125q-41 8 -90 8q-123 0 -213.5 -70t-120.5 -202q87 82 227 82q133 0 213 -76t80 -194q0 -124 -92 -210.5t-244 -86.5q-89 0 -159 30.5t-112.5 83.5t-64.5 120.5t-22 146.5zM1264 334 q3 -104 55.5 -160.5t136.5 -56.5q86 0 132 48t46 111q0 64 -44.5 110t-127.5 46q-69 0 -121 -30t-77 -68z" />
<glyph unicode="&#x215b;" horiz-adv-x="1751" d="M55 1309l234 125h151v-861h-161v709l-158 -78zM338 0l680 1434h170l-680 -1434h-170zM952 227q0 46 17 84.5t48 67t64 49t76 39.5q-149 75 -149 197q0 94 82.5 152t220.5 58q137 0 219 -58t82 -152q0 -122 -154 -197q93 -41 150 -97.5t57 -142.5q0 -111 -97 -176 t-257 -65q-164 0 -261.5 64.5t-97.5 176.5zM1114 240q0 -59 56 -95t141 -36q83 0 136.5 36t53.5 95q0 30 -15.5 56t-45.5 46.5t-59.5 35t-71.5 30.5q-42 -16 -72.5 -30.5t-61 -35t-46 -46.5t-15.5 -56zM1163 649q0 -80 146 -129q64 22 104.5 52t40.5 77q0 43 -40.5 75 t-102.5 32q-66 0 -107 -32t-41 -75z" />
<glyph unicode="&#x215c;" horiz-adv-x="1974" d="M78 662l74 108q138 -78 264 -78q80 0 130 35.5t50 95.5q0 42 -25.5 72t-67.5 45.5t-84.5 22t-88.5 6.5h-43v133h49q86 0 153.5 29.5t67.5 89.5q0 44 -36.5 69t-100.5 25q-107 0 -234 -72l-65 100q23 19 59.5 39.5t111 43t150.5 22.5q134 0 205.5 -59.5t71.5 -147.5 q0 -64 -41.5 -114.5t-118.5 -77.5q88 -24 143.5 -85.5t55.5 -142.5q0 -50 -18.5 -95.5t-55.5 -83.5t-101.5 -60.5t-148.5 -22.5q-180 0 -356 103zM559 0l680 1434h170l-680 -1434h-170zM1176 227q0 46 17 84.5t47.5 67t63.5 49t76 39.5q-149 75 -149 197q0 94 82.5 152 t220.5 58q137 0 219 -58t82 -152q0 -122 -154 -197q93 -41 150 -97.5t57 -142.5q0 -111 -97 -176t-257 -65q-164 0 -261 64.5t-97 176.5zM1337 240q0 -59 56 -95t141 -36q83 0 136.5 36t53.5 95q0 30 -15.5 56t-45.5 46.5t-59.5 35t-71.5 30.5q-42 -16 -72.5 -30.5t-61 -35 t-46 -46.5t-15.5 -56zM1386 649q0 -80 146 -129q64 22 104.5 52t40.5 77q0 43 -40.5 75t-102.5 32q-66 0 -107 -32t-41 -75z" />
<glyph unicode="&#x215d;" horiz-adv-x="1933" d="M88 659l72 117q122 -80 235 -80q80 0 135.5 42t55.5 112q0 64 -49.5 107.5t-137.5 43.5q-82 0 -182 -49l-90 52l49 430h537v-134h-406l-14 -194q70 24 143 24q146 0 231 -81t85 -199q0 -121 -88 -206t-248 -85q-165 0 -328 100zM526 0l680 1434h170l-680 -1434h-170z M1139 227q0 46 17 84.5t47.5 67t63.5 49t76 39.5q-149 75 -149 197q0 94 82.5 152t220.5 58q137 0 219 -58t82 -152q0 -122 -153 -197q43 -19 76 -39.5t64.5 -49t48.5 -67t17 -84.5q0 -111 -97 -176t-257 -65q-164 0 -261 64.5t-97 176.5zM1300 240q0 -59 56 -95t141 -36 q83 0 137 36t54 95q0 30 -15.5 56t-46 46.5t-60 35t-71.5 30.5q-42 -16 -72.5 -30.5t-61 -35t-46 -46.5t-15.5 -56zM1350 649q0 -80 145 -129q64 22 104.5 52t40.5 77q0 43 -40.5 75t-102.5 32q-66 0 -106.5 -32t-40.5 -75z" />
<glyph unicode="&#x215e;" horiz-adv-x="1746" d="M66 1300v134h614v-123q-13 -15 -35.5 -43t-79 -113t-99.5 -168.5t-78.5 -198.5t-35.5 -215h-166q0 93 31.5 200.5t71.5 188.5t92.5 164.5t77.5 116.5t45 57h-438zM340 0l680 1434h170l-680 -1434h-170zM952 227q0 46 17 84.5t48 67t64 49t76 39.5q-149 75 -149 197 q0 94 82.5 152t220.5 58q137 0 219 -58t82 -152q0 -122 -154 -197q93 -41 150 -97.5t57 -142.5q0 -111 -97 -176t-257 -65q-164 0 -261.5 64.5t-97.5 176.5zM1114 240q0 -59 56 -95t141 -36q83 0 136.5 36t53.5 95q0 30 -15.5 56t-45.5 46.5t-59.5 35t-71.5 30.5 q-42 -16 -72.5 -30.5t-61 -35t-46 -46.5t-15.5 -56zM1163 649q0 -80 146 -129q64 22 104.5 52t40.5 77q0 43 -40.5 75t-102.5 32q-66 0 -107 -32t-41 -75z" />
<glyph unicode="&#x2202;" horiz-adv-x="1275" d="M96 475q0 225 131.5 362.5t343.5 137.5q72 0 135.5 -16t103 -39t68 -46t40.5 -39l12 -16q-16 66 -45.5 128.5t-76.5 120.5t-106 101t-138.5 69t-168.5 26q-41 0 -80.5 -5t-58.5 -9l-20 -5l-33 164q77 25 196 25q172 0 315.5 -64.5t240 -178.5t149.5 -270t53 -337 q0 -160 -40.5 -279t-114 -189.5t-168.5 -104.5t-211 -34q-245 0 -386 135t-141 363zM315 475q0 -149 80 -239.5t234 -90.5q152 0 233.5 89t81.5 243q0 153 -80 241.5t-235 88.5q-154 0 -234 -92.5t-80 -239.5z" />
<glyph unicode="&#x2206;" horiz-adv-x="1441" d="M49 0l551 1434h238l555 -1434h-1344zM317 186h803l-399 1018z" />
<glyph unicode="&#x220f;" horiz-adv-x="1439" d="M61 1247v187h1317v-187h-209v-1247h-219v1247h-458v-1247h-222v1247h-209z" />
<glyph unicode="&#x2211;" horiz-adv-x="1163" d="M94 0v129l559 588l-559 588v129h959v-187h-652l517 -530l-517 -531h652v-186h-959z" />
<glyph unicode="&#x2212;" horiz-adv-x="1304" d="M133 600v164h1038v-164h-1038z" />
<glyph unicode="&#x221a;" horiz-adv-x="1224" d="M39 696h227l228 -448l491 1186h225l-608 -1434h-201z" />
<glyph unicode="&#x221e;" horiz-adv-x="1884" d="M117 528q0 145 102 241.5t266 96.5q70 0 132.5 -18.5t123.5 -58.5t99.5 -72t101.5 -90q61 57 100 89.5t99.5 72.5t124 58.5t133.5 18.5q163 0 265.5 -96.5t102.5 -241.5t-102.5 -241.5t-265.5 -96.5q-65 0 -122.5 16t-115.5 52t-104 73t-115 99q-64 -59 -108 -95 t-102.5 -73.5t-119 -54.5t-127.5 -17q-164 0 -266 96.5t-102 241.5zM289 528q0 -76 56.5 -132t152.5 -56q48 0 91.5 14t90 46t74.5 56t80 72q-76 69 -121 104t-101 60t-112 25q-98 0 -154.5 -57t-56.5 -132zM1049 528q51 -48 80 -72t75 -56t90 -46t92 -14q96 0 153.5 56.5 t57.5 131.5t-57 132t-154 57q-81 0 -153.5 -44t-183.5 -145z" />
<glyph unicode="&#x222b;" horiz-adv-x="800" d="M29 -158h45q63 0 105.5 19.5t64.5 44t33 77.5t12.5 88.5t1.5 108.5v1110q0 241 97.5 334.5t352.5 93.5h31v-135h-47q-32 0 -58.5 -4t-46.5 -14t-36 -19.5t-27.5 -28.5t-19.5 -33t-13 -40.5t-8 -43t-4.5 -49.5t-1.5 -51v-55v-1110q0 -242 -97.5 -335t-353.5 -93h-30v135z " />
<glyph unicode="&#x2248;" horiz-adv-x="1304" d="M137 424q106 231 297 231q62 0 126.5 -21t110.5 -46.5t104.5 -46.5t109.5 -21q49 0 89 24.5t81 96.5l121 -47q-110 -232 -299 -232q-60 0 -124 21t-110.5 47t-106 47t-110.5 21q-49 0 -88 -25t-80 -98zM137 797q106 231 297 231q62 0 126.5 -21t110.5 -46.5t104.5 -46.5 t109.5 -21q49 0 89 25t81 98l121 -49q-110 -232 -299 -232q-60 0 -124 21.5t-110.5 47t-106 47t-110.5 21.5q-49 0 -88 -25.5t-80 -98.5z" />
<glyph unicode="&#x2260;" horiz-adv-x="1304" d="M133 414v166h389l90 211h-479v163h549l137 322l139 -53l-114 -269h327v-163h-399l-90 -211h489v-166h-559l-135 -318l-137 54l113 264h-320z" />
<glyph unicode="&#x2264;" horiz-adv-x="1304" d="M123 0v145h1036v-145h-1036zM125 608v137l1034 404v-191l-780 -282l780 -283v-188z" />
<glyph unicode="&#x2265;" horiz-adv-x="1304" d="M143 0v145h1037v-145h-1037zM143 205v188l777 283l-777 282v191l1035 -404v-137z" />
<glyph unicode="&#x2318;" horiz-adv-x="1630" d="M123 356q0 113 87 193t210 80h153v180h-153q-123 0 -210 80t-87 194t87 193.5t210 79.5q121 0 207 -80t86 -193v-139h202v139q0 114 85.5 193.5t207.5 79.5q123 0 208 -79.5t85 -193.5t-85 -194t-208 -80h-153v-180h153q122 0 207.5 -80t85.5 -193q0 -114 -85 -194 t-208 -80q-122 0 -207.5 80t-85.5 194v138h-202v-138q0 -114 -86.5 -194t-206.5 -80q-123 0 -210 80t-87 194zM262 356q0 -58 46 -98.5t112 -40.5q63 0 108 40.5t45 98.5v138h-153q-66 0 -112 -40.5t-46 -97.5zM262 1083q0 -58 46 -98.5t112 -40.5h153v139q0 57 -45 97.5 t-108 40.5q-66 0 -112 -40.5t-46 -97.5zM713 629h202v180h-202v-180zM1055 356q0 -59 44.5 -99t108.5 -40q63 0 108.5 40.5t45.5 98.5q0 57 -45.5 97.5t-108.5 40.5h-153v-138zM1055 944h153q63 0 108.5 40.5t45.5 98.5q0 57 -45.5 97.5t-108.5 40.5q-64 0 -108.5 -40.5 t-44.5 -97.5v-139z" />
<glyph unicode="&#x25ca;" horiz-adv-x="1146" d="M68 717l387 717h235l389 -717l-389 -717h-235zM279 717l292 -541l295 541l-295 538z" />
<glyph unicode="&#xe000;" horiz-adv-x="1075" d="M0 0v1075h1075v-1075h-1075z" />
<glyph unicode="&#xf639;" horiz-adv-x="1302" d="M90 717q0 356 143 547.5t418 191.5q274 0 415.5 -191t141.5 -548t-141.5 -548.5t-415.5 -191.5q-275 0 -418 192t-143 548zM313 717q0 -275 84 -420t254 -145q336 0 336 565q0 563 -336 563q-338 0 -338 -563z" />
<glyph unicode="&#xf63a;" horiz-adv-x="1302" d="M150 0v123q0 49 9 94.5t21 82.5t37.5 76t45.5 67t58 63t62 56t71.5 54.5t71.5 50t76 50.5q161 106 215 153q112 100 113 201q0 89 -68 144t-188 55q-105 0 -206.5 -39.5t-176.5 -89.5l-103 145q245 170 508 170q211 0 333 -104t122 -273q0 -74 -28 -142.5t-61 -114.5 t-105 -104.5t-112.5 -85.5t-130.5 -84q-29 -19 -44 -28q-56 -36 -89.5 -60t-71.5 -57.5t-58.5 -63.5t-34 -69.5t-13.5 -83.5h750v-186h-1003z" />
<glyph unicode="&#xf63b;" horiz-adv-x="1302" d="M127 135l100 156q90 -52 200.5 -89.5t213.5 -37.5q136 0 223.5 67t87.5 179q0 61 -28.5 109t-73.5 78t-104.5 50t-116.5 27.5t-115 7.5h-61v188h71q92 0 172 21.5t137.5 73.5t57.5 127q0 84 -64.5 131t-177.5 47q-175 0 -364 -119l-95 141q226 164 490 164 q206 0 318 -97.5t112 -240.5q0 -106 -66 -192.5t-196 -134.5q144 -38 236 -141t92 -242q0 -83 -30 -158t-89 -137t-159.5 -99t-229.5 -37q-88 0 -177.5 17t-160.5 44.5t-119 50.5t-84 46z" />
<glyph unicode="&#xf63c;" horiz-adv-x="1302" d="M68 303v160l677 971h279v-945h211v-186h-211v-303h-217v303h-739zM291 489h516v756z" />
<glyph unicode="&#xf63d;" horiz-adv-x="1302" d="M143 133l99 164q37 -25 82 -49.5t128.5 -52t157.5 -27.5q135 0 230.5 79.5t95.5 207.5q0 120 -83.5 201t-229.5 81q-142 0 -297 -86l-121 72l78 711h819v-187h-641l-31 -373q116 46 240 46q151 0 264 -64.5t169 -169t56 -231.5q0 -93 -33 -178t-96 -152.5t-164.5 -107.5 t-228.5 -40q-244 0 -494 156z" />
<glyph unicode="&#xf63e;" horiz-adv-x="1302" d="M117 580q-1 206 62 374.5t170.5 276.5t248 166.5t297.5 58.5q51 0 101 -5.5t74 -10.5l24 -6l-52 -177q-65 17 -143 17q-89 0 -171.5 -28.5t-157.5 -86t-131 -157t-81 -230.5q54 58 148 103t221 45q211 0 335 -129t124 -324q0 -99 -35.5 -187.5t-100.5 -156t-163.5 -107 t-216.5 -39.5q-111 0 -203.5 34t-156 92t-108 135.5t-65 163.5t-20.5 178zM340 559q0 -174 87.5 -286.5t238.5 -112.5q74 0 133 26.5t95 70t54.5 96t18.5 108.5q0 55 -17.5 105.5t-52 92t-92.5 66.5t-131 25q-116 0 -207 -56.5t-127 -124.5v-10z" />
<glyph unicode="&#xf63f;" horiz-adv-x="1302" d="M172 1247v187h956v-168q-11 -13 -30 -37.5t-73.5 -104t-104.5 -161.5t-110.5 -203t-104 -237.5t-73.5 -256t-30 -266.5h-229q0 116 26.5 244.5t65 237t95 226.5t101 197.5t100.5 165.5t77 115t45 61h-711z" />
<glyph unicode="&#xf640;" horiz-adv-x="1302" d="M100 375q0 63 20 118.5t50.5 96t76.5 77t90.5 61t98.5 48.5q-53 27 -94 56.5t-78.5 69.5t-57.5 92.5t-20 113.5q0 157 126.5 252.5t336.5 95.5t337.5 -95.5t127.5 -252.5q0 -61 -20 -113.5t-57.5 -92.5t-79 -69.5t-95.5 -56.5q70 -30 124.5 -63.5t106.5 -81.5t80.5 -113 t28.5 -143q0 -185 -153 -291.5t-400 -106.5t-398 106.5t-151 291.5zM324 387q0 -107 92.5 -172t232.5 -65q141 0 234.5 65t93.5 172q0 57 -27 104.5t-77 84t-102 62.5t-122 52q-70 -26 -121.5 -52t-101 -62.5t-76 -84t-26.5 -104.5zM401 1090q0 -47 22.5 -86.5t63.5 -68 t77 -46t85 -35.5q49 18 86.5 35.5t78 46t63 68t22.5 86.5q0 81 -70 139.5t-180 58.5q-107 0 -177.5 -59t-70.5 -139z" />
<glyph unicode="&#xf641;" horiz-adv-x="1302" d="M115 967q0 99 36 187t101 155.5t164 107t217 39.5q138 0 246.5 -51.5t173.5 -138t98.5 -191.5t34.5 -221q1 -206 -62 -374.5t-171 -277t-248.5 -167t-298.5 -58.5q-51 0 -101 5.5t-74 11.5l-24 6l53 176q63 -16 143 -16q88 0 170.5 28t157.5 85t131.5 156t81.5 230 q-57 -57 -150.5 -101t-220.5 -44q-140 0 -245 61t-159 163t-54 229zM336 973q0 -55 17.5 -105.5t52 -92t92.5 -66.5t131 -25q118 0 208 56.5t126 125.5v8q0 174 -87.5 287t-238.5 113q-74 0 -133 -26.5t-95 -70t-54.5 -96t-18.5 -108.5z" />
<glyph unicode="&#xf6c3;" horiz-adv-x="202" d="M2 -514l96 176h-84v213h185l16 -227l-158 -221z" />
<glyph unicode="&#xf6dc;" horiz-adv-x="1302" d="M121 0v186h418v1035l-328 -172l-90 147l436 238h203v-1248h420v-186h-1059z" />
<glyph unicode="&#xf6df;" horiz-adv-x="735" d="M74 123q0 156 80.5 242t201.5 92v96h115v-107q95 -21 201 -75l-66 -113q-5 2 -33.5 16.5t-53 24.5t-48.5 16v-387q45 14 135 60l66 -115q-6 -3 -29 -13.5t-38.5 -17t-39 -16t-47.5 -17t-47 -12.5v-104h-115v94q-121 8 -201.5 94t-80.5 242zM233 123q0 -79 33 -132.5 t90 -68.5v400q-57 -14 -90 -67t-33 -132z" />
<glyph unicode="&#xf6e0;" horiz-adv-x="735" d="M74 1219q0 156 80.5 241.5t201.5 91.5v97h115v-107q92 -20 201 -76l-66 -112q-5 2 -33.5 16.5t-53 24.5t-48.5 16v-387q50 15 135 59l66 -114q-6 -3 -29 -13.5t-38.5 -17t-39 -16t-47.5 -17t-47 -12.5v-105h-115v95q-121 8 -201.5 94t-80.5 242zM233 1219 q0 -79 33 -132.5t90 -68.5v399q-57 -14 -90 -66.5t-33 -131.5z" />
<glyph unicode="&#xf6e1;" horiz-adv-x="352" d="M88 -440l80 133h-74v184h164l14 -201l-137 -170z" />
<glyph unicode="&#xf6e2;" horiz-adv-x="352" d="M88 655l80 133h-74v185h164l14 -201l-137 -170z" />
<glyph unicode="&#xf6e3;" horiz-adv-x="821" d="M57 -209l74 115q113 -61 229 -84v244l-38 14q-50 16 -87 33.5t-76 46t-60 69.5t-21 93q0 106 76.5 171.5t205.5 71.5v113h113v-117q138 -20 266 -80l-71 -116q-88 42 -195 61v-231l33 -11q53 -17 91.5 -34.5t82 -47t67 -73.5t23.5 -99q0 -112 -82.5 -178t-214.5 -71v-111 h-113v115q-164 24 -303 106zM244 332q0 -38 29 -61t87 -42v203q-51 -6 -83.5 -31.5t-32.5 -68.5zM473 29v-215q58 5 94.5 31t36.5 73q0 40 -32.5 64t-98.5 47z" />
<glyph unicode="&#xf6e4;" horiz-adv-x="821" d="M57 887l74 114q108 -62 229 -86v246l-38 15q-50 16 -87 33.5t-76 45.5t-60 69t-21 93q0 106 76.5 172t205.5 72v113h113v-117q138 -20 266 -80l-71 -117q-92 43 -195 62v-232l33 -10q53 -17 91.5 -34.5t82 -47t67 -73.5t23.5 -99q0 -112 -82.5 -179t-214.5 -73v-108h-113 v114q-155 21 -303 107zM244 1427q0 -37 28.5 -60t87.5 -42v203q-51 -6 -83.5 -32t-32.5 -69zM473 907q58 6 94.5 33t36.5 74q0 38 -32.5 62.5t-98.5 47.5v-217z" />
<glyph unicode="&#xf6e7;" horiz-adv-x="342" d="M88 -123h166v-184h-166v184z" />
<glyph unicode="&#xf6e8;" horiz-adv-x="342" d="M88 788v185h166v-185h-166z" />
<glyph unicode="&#xf6e9;" horiz-adv-x="772" d="M55 985q0 99 68.5 154t175.5 55q63 0 231 -33v58q0 58 -29 84t-100 26q-80 0 -249 -49l-50 106q196 62 324 62q132 0 195 -55t63 -179v-426h-154v80q-107 -94 -243 -94q-98 0 -165 55.5t-67 155.5zM213 995q0 -51 32.5 -75.5t88.5 -24.5q102 0 196 78v108 q-134 25 -176 25q-73 0 -107 -30t-34 -81z" />
<glyph unicode="&#xf6ea;" horiz-adv-x="806" d="M96 788v895h156v-325q110 90 231 90q118 0 189 -85.5t71 -252.5q0 -164 -71.5 -250t-188.5 -86q-123 0 -231 88v-74h-156zM252 989q83 -90 190 -90q72 0 109 54.5t37 156.5q0 103 -37 158t-109 55q-107 0 -190 -90v-244z" />
<glyph unicode="&#xf6eb;" horiz-adv-x="806" d="M63 1110q0 167 72.5 252.5t190.5 85.5q121 0 231 -90v325h154v-895h-154v76q-105 -90 -231 -90q-118 0 -190.5 86t-72.5 250zM221 1110q0 -102 38 -156.5t110 -54.5q105 0 188 90v244q-83 90 -188 90q-72 0 -110 -55t-38 -158z" />
<glyph unicode="&#xf6ec;" horiz-adv-x="757" d="M61 1110q0 159 89.5 248.5t242.5 89.5q147 0 226 -78.5t79 -206.5q0 -22 -2.5 -43.5t-5.5 -31.5l-2 -11h-467q8 -89 51.5 -137.5t116.5 -48.5q94 0 250 82l63 -96q-178 -103 -325 -103q-138 0 -227 86.5t-89 249.5zM221 1163h326q-3 172 -156 172q-72 0 -115.5 -45.5 t-54.5 -126.5z" />
<glyph unicode="&#xf6ed;" horiz-adv-x="346" d="M92 1538v143h166v-143h-166zM96 788v646h156v-646h-156z" />
<glyph unicode="&#xf6ee;" horiz-adv-x="354" d="M100 788v895h156v-895h-156z" />
<glyph unicode="&#xf6ef;" horiz-adv-x="1208" d="M96 788v646h156v-86q45 39 109 69.5t131 30.5q142 0 182 -113q44 42 112 77.5t142 35.5q192 0 192 -203v-457h-153v424q0 115 -95 115q-48 0 -99 -29t-87 -67v-443h-156v424q0 54 -20 84.5t-74 30.5q-48 0 -98 -28t-86 -66v-445h-156z" />
<glyph unicode="&#xf6f0;" horiz-adv-x="800" d="M63 1110q0 160 87.5 249t250.5 89q161 0 248.5 -89t87.5 -249q0 -159 -87 -247.5t-249 -88.5q-163 0 -250.5 89t-87.5 247zM219 1110q0 -215 182 -215q181 0 181 215q0 217 -181 217q-182 0 -182 -217z" />
<glyph unicode="&#xf6f1;" horiz-adv-x="536" d="M96 788v646h156v-138q5 13 14 28.5t30.5 39t48 41.5t69.5 29t92 8v-146q-64 0 -114 -21t-75 -51t-41 -60t-20 -51l-4 -21v-304h-156z" />
<glyph unicode="&#xf6f2;" horiz-adv-x="690" d="M51 856l60 102q57 -28 130.5 -49.5t125.5 -21.5q51 0 84.5 18t33.5 53q0 13 -5.5 23.5t-17.5 19.5t-24 15t-32.5 13t-34 10.5t-38.5 10t-36 9.5q-37 9 -66.5 19t-62.5 27t-54.5 37t-36 50.5t-14.5 67.5q0 86 68.5 137t187.5 51q135 0 293 -70l-61 -94q-120 53 -221 53 q-52 0 -82.5 -18t-30.5 -51q0 -10 3.5 -18.5t10.5 -16t15 -13t21 -11t22.5 -9t26.5 -7.5t27 -6.5t28 -6.5t26 -6q117 -30 180.5 -78t63.5 -133q0 -89 -72 -139t-190 -50q-86 0 -175.5 25t-152.5 57z" />
<glyph unicode="&#xf6f3;" horiz-adv-x="534" d="M41 1319v115h94v161l156 25v-186h184v-115h-184v-346q0 -38 15 -52t42 -14q45 0 115 31l57 -115q-2 -1 -19 -7l-25.5 -9t-27 -9t-32.5 -9.5t-32.5 -7t-36 -5.5t-34.5 -2q-178 0 -178 201v344h-94z" />
<glyph unicode="&#xf8ff;" horiz-adv-x="1755" d="M146.5 560.5q-2.5 11.5 15.5 21.5l57 41q2 1 3.5 2.5l3 3l2.5 2.5t2 3l1 1q19 16 37 -12l33 -64q6 -12 13 -15.5t13.5 2t10.5 17.5l18 70q6 19 19.5 21t25.5 -13l48 -53q14 -15 23 -11.5t11 23.5l4 70q3 20 15.5 25t27.5 -7l58 -43q17 -12 25.5 -6.5t4.5 25.5l-8 69 q-3 20 8.5 28t28.5 -1l64 -29q19 -9 26.5 -1.5t1.5 26.5l-22 67q-8 19 0.5 29t27.5 4l15 -2q40 -77 70 -202.5t30 -217.5q-15 -18 -34.5 -27.5t-59.5 -9.5h-8q0 46 -33 72q18 -21 18 -55v-15q-32 3 -32 39q0 43 -28 72t-77 29q-41 0 -68.5 -32t-27.5 -79q0 -60 49.5 -96.5 t138.5 -36.5q85 0 172 42t156.5 112t125 154.5t86 175.5t30.5 169q0 59 -36.5 98t-94.5 39q-48 0 -85.5 -33.5t-37.5 -84.5q0 -106 119 -119q-29 -119 -60 -174q-12 96 -43.5 178t-75.5 129q91 -120 107 -330l-29 -41q0 156 -51 287t-131 172q-5 9 2 18.5t22 12.5l70 12 q19 3 21 13.5t-15 21.5l-59 39q-15 13 -13.5 26.5t19.5 20.5l64 29q14 4 19 10.5t0 13.5t-19 12l-64 27q-23 10 -20 29q11 6 14 16l35 62q9 19 20.5 18t16.5 -20l20 -68q6 -21 18.5 -24t26.5 14l47 53q12 15 23 12.5t12 -22.5l4 -72q1 -21 14.5 -26t28.5 8l57 43 q15 12 24 5.5t7 -26.5l-10 -70q-1 -20 10.5 -27.5t28.5 1.5l63 33q19 8 26.5 0t0.5 -29l-23 -64q-6 -20 3 -30t28 -4l70 14q20 6 26.5 -2t-4.5 -27l-37 -59q-12 -17 -5.5 -29.5t26.5 -11.5l72 4q21 0 25 -11t-9 -24l-49 -53q-14 -13 -10.5 -26.5t24.5 -16.5l70 -12 q43 -10 6 -39l-57 -39q-16 -10 -15 -24t21 -21l63 -27q12 -5 16.5 -12t0 -13.5t-16.5 -11.5l-63 -26q-20 -7 -21 -22t15 -25l57 -41q11 -7 14.5 -14.5t-2 -13.5t-18.5 -9l-70 -13q-21 -3 -24.5 -16.5t10.5 -28.5l49 -49q13 -14 9 -24.5t-25 -10.5l-72 5q-20 0 -26.5 -12 t5.5 -29l37 -62q10 -17 4 -25.5t-26 -5.5l-70 19q-18 6 -27.5 -5t-3.5 -30l23 -68q8 -19 0 -26t-27 2l-63 31q-17 9 -28.5 1t-10.5 -30l10 -68q1 -21 -7.5 -25.5t-23.5 7.5l-57 43q-15 12 -28.5 5.5t-14.5 -26.5l-4 -69q-1 -20 -12 -23t-23 11l-47 55q-13 14 -26 12t-19 -22 l-20 -68q-3 -13 -9.5 -18t-14 -1t-13.5 15l-35 61q-9 19 -22 19t-25 -19l-31 -61q-6 -11 -13.5 -15t-14 1t-9.5 18l-20 68q-6 20 -19 22t-26 -12l-47 -55q-12 -14 -22 -11t-13 23l-4 69q-2 20 -15 26.5t-30 -5.5l-54 -43q-17 -13 -26.5 -8t-5.5 26l10 68q1 22 -10.5 30 t-30.5 -1l-62 -31q-19 -9 -26.5 -2t0.5 26l22 68q8 19 -1.5 30t-28.5 5l-70 -19q-20 -3 -26.5 5.5t3.5 25.5l39 62q11 17 4.5 29t-26.5 12l-72 -5q-21 0 -25 10.5t9 24.5l51 49q13 15 9 28.5t-25 16.5l-68 13q-21 4 -23.5 15.5zM623 281q43 -27 122 -27q106 0 212.5 65 t183.5 162t125.5 212t48.5 214q0 63 -41 101q24 -38 24 -84q0 -100 -47.5 -215t-126.5 -215q-85 -105 -188.5 -168.5t-212.5 -63.5q-57 0 -100 19z" />
<glyph unicode="&#xfb06;" horiz-adv-x="1869" d="M80 111l90 155q89 -48 203.5 -84.5t201.5 -36.5q83 0 142 35t59 96q0 26 -11.5 49t-34.5 40t-48 31t-60.5 26t-64 20t-65.5 18q-18 5 -27 7q-59 16 -103 31t-96 43t-85.5 60.5t-56 82.5t-22.5 111q0 139 106.5 221t285.5 82q103 0 227 -31q-16 50 -16 109q0 145 99.5 231 t270.5 86q197 0 301.5 -101.5t104.5 -279.5v-37h297v-160h-297v-643q0 -62 26.5 -86t71.5 -24q70 0 195 53l75 -158q-59 -29 -144.5 -54.5t-168.5 -25.5q-264 0 -264 302v636h-150v160h150v58q0 253 -223 253q-106 0 -169 -61.5t-63 -165.5q0 -79 27 -131l98 -41l-90 -145 q-83 37 -179.5 63.5t-170.5 26.5q-84 0 -136.5 -33.5t-52.5 -93.5q0 -24 8.5 -44.5t28.5 -36.5t37 -27.5t51 -23t52 -17t58 -16t52 -13.5q72 -19 126 -39t105 -49t84 -63.5t52.5 -82.5t19.5 -106q0 -149 -113.5 -229.5t-291.5 -80.5q-131 0 -266.5 40.5t-235.5 93.5z" />
<glyph horiz-adv-x="856" d="M74 1151q0 125 91 211t243 86q89 0 159 -30.5t112.5 -84t64.5 -121.5t22 -147q0 -218 -141 -362t-365 -144q-33 0 -64.5 3.5t-47.5 7.5l-15 3l39 125q37 -8 86 -8q122 0 212 69.5t120 201.5q-85 -80 -225 -80q-133 0 -212 76t-79 194zM233 1155q0 -64 45.5 -109 t129.5 -45q68 0 120 29t76 66q-3 107 -56 164t-136 57q-86 0 -132.5 -48.5t-46.5 -113.5z" />
<glyph horiz-adv-x="1302" d="M53 1432q0 110 64 170.5t178 60.5q115 0 180.5 -61t65.5 -170t-65.5 -169.5t-180.5 -60.5q-114 0 -178 60t-64 170zM174 1432q0 -66 31 -100t90 -34q60 0 92.5 34t32.5 100t-32.5 100.5t-92.5 34.5q-59 0 -90 -34.5t-31 -100.5zM346 774l477 875h127l-479 -875h-125z M762 1006q0 109 64.5 169t179.5 60q114 0 177.5 -59.5t63.5 -169.5q0 -112 -63 -172t-178 -60t-179.5 60t-64.5 172zM883 1006q0 -66 32 -101t91 -35q60 0 91 35t31 101q0 133 -122 133q-59 0 -91 -34t-32 -99z" />
<glyph horiz-adv-x="2480" d="M59 915v160h150v96q0 302 303 302q103 0 228 -23.5t214 -50.5q75 94 244 94q154 0 385 -59v59h211v-948l414 530h246l-363 -430l428 -645h-229l-326 494l-170 -201v-293h-211v1260q-281 51 -352 51q-53 0 -89 -26t-36 -85v-125h280v-160h-280v-915h-211v915h-477v-915 h-209v915h-150zM418 1075h477v117q0 33 2 49q-266 49 -352 49q-55 0 -91 -25.5t-36 -84.5v-105z" />
<glyph horiz-adv-x="1908" d="M59 915v160h150v96q0 302 303 302q103 0 228 -23.5t214 -50.5q75 94 244 94q154 0 385 -59v59h211v-1493h-211v1260q-281 51 -352 51q-53 0 -89 -26t-36 -85v-125h280v-160h-280v-915h-211v915h-477v-915h-209v915h-150zM418 1075h477v117q0 33 2 49q-266 49 -352 49 q-55 0 -91 -25.5t-36 -84.5v-105z" />
<glyph horiz-adv-x="2138" d="M59 915v160h150v96q0 302 303 302q169 0 432 -70q67 90 213 90q77 0 172 -24.5t162 -51.5l-74 -153q-161 47 -215 47q-45 0 -71.5 -24.5t-26.5 -86.5v-125h457v271l208 40v-311h295v-160h-295v-643q0 -62 26.5 -86t72.5 -24q60 0 192 53l76 -158q-58 -29 -144 -54.5 t-167 -25.5q-128 0 -196 71.5t-68 230.5v636h-457v-915h-211v915h-475v-915h-209v915h-150zM418 1075h475v117q0 33 2 49q-266 49 -350 49q-55 0 -91 -25.5t-36 -84.5v-105z" />
<glyph horiz-adv-x="1972" d="M59 915v160h150v117q0 301 303 301q149 0 385 -59v59h211v-559q233 164 434 164q309 0 309 -334v-764h-211v721q0 98 -38 152.5t-132 54.5q-91 0 -192.5 -51t-169.5 -111v-766h-211v1260q-281 51 -352 51q-54 0 -90.5 -26t-36.5 -85v-125h282v-160h-282v-915h-209v915 h-150z" />
<glyph horiz-adv-x="1863" d="M59 915v160h150v96q0 302 303 302q103 0 229 -23.5t215 -50.5q75 94 250 94q106 0 233 -25t214 -51l-76 -153q-12 2 -65 11.5t-95 16.5t-94.5 13t-83.5 6q-57 0 -95 -26t-38 -85v-125h631v-1075h-211v915h-420v-915h-211v915h-477v-915h-209v915h-150zM418 1075h477v117 q0 33 2 49q-266 49 -352 49q-55 0 -91 -25.5t-36 -84.5v-105z" />
<glyph horiz-adv-x="1200" d="M59 915v160h150v117q0 301 311 301q106 0 233 -25t214 -51l-76 -153q-12 2 -65 11.5t-95 16.5t-94.5 13t-83.5 6q-58 0 -96.5 -26t-38.5 -85v-125h633v-1075h-211v915h-422v-915h-209v915h-150z" />
<glyph horiz-adv-x="1200" d="M59 915v160h150v117q0 301 311 301q106 0 233 -25t214 -51l-76 -153q-12 2 -65 11.5t-95 16.5t-94.5 13t-83.5 6q-58 0 -96.5 -26t-38.5 -85v-125h633v-1093q0 -76 -1.5 -110.5t-12.5 -85t-33.5 -74.5t-65 -56t-107.5 -54t-161 -46l-70 157q64 21 101.5 34.5t67 32.5 t42 31t20 40.5t8.5 49t1 68.5v946h-422v-915h-209v915h-150z" />
<glyph horiz-adv-x="1830" d="M59 915v160h150v117q0 301 303 301q149 0 385 -59v59h211v-948l414 530h245l-362 -430l428 -645h-229l-326 494l-170 -201v-293h-211v1260q-281 51 -352 51q-54 0 -90.5 -26t-36.5 -85v-125h282v-160h-282v-915h-209v915h-150z" />
<glyph horiz-adv-x="2637" d="M59 915v160h150v96q0 302 303 302q103 0 228 -23.5t214 -50.5q75 94 244 94q154 0 385 -59v59h211v-559q233 164 434 164q309 0 309 -334v-764h-210v721q0 98 -38 152.5t-132 54.5q-91 0 -193 -51.5t-170 -110.5v-766h-211v1260q-281 51 -352 51q-53 0 -89 -26t-36 -85 v-125h280v-160h-280v-915h-211v915h-477v-915h-209v915h-150zM418 1075h477v117q0 33 2 49q-266 49 -352 49q-55 0 -91 -25.5t-36 -84.5v-105z" />
<glyph horiz-adv-x="1247" d="M59 915v160h150v117q0 301 303 301q149 0 385 -59v59h211v-1493h-211v1260q-281 51 -352 51q-54 0 -90.5 -26t-36.5 -85v-125h282v-160h-282v-915h-209v915h-150z" />
<glyph horiz-adv-x="1474" d="M59 915v160h150v117q0 159 68 230t196 71q77 0 172 -24.5t162 -51.5l-76 -153q-153 47 -215 47q-45 0 -71.5 -24.5t-26.5 -86.5v-125h454v271l211 40v-311h297v-160h-297v-643q0 -110 99 -110q61 0 194 53l76 -158q-58 -28 -145 -54t-168 -26q-267 0 -267 302v636h-454 v-915h-209v915h-150z" />
<glyph horiz-adv-x="493" d="M41 223v115h92v51q0 199 180 199q93 0 219 -47l-55 -111q-111 29 -129 29q-28 0 -42.5 -14t-14.5 -52v-55h172v-115h-172v-530h-158v530h-92z" />
<glyph horiz-adv-x="1288" d="M154 455v721h204v-734q0 -51 7 -90.5t26 -77t50 -62t83 -39.5t121 -15q84 0 142 21.5t88 62t42.5 88.5t12.5 112v734h205v-721q0 -83 -13.5 -151t-48 -129.5t-89 -102.5t-140.5 -65.5t-199 -24.5q-114 0 -200.5 24.5t-141 65.5t-88.5 102.5t-47.5 129.5t-13.5 151z M467 1272l254 272h266l-344 -272h-176z" />
<glyph horiz-adv-x="817" d="M72 86l71 117q122 -80 236 -80q80 0 135 41.5t55 111.5q0 64 -49 108t-137 44q-82 0 -182 -49l-90 51l49 430h536v-133h-405l-15 -195q73 25 144 25q146 0 230.5 -81.5t84.5 -199.5q0 -121 -88 -205.5t-248 -84.5q-164 0 -327 100z" />
<glyph horiz-adv-x="817" d="M72 659l71 117q122 -80 236 -80q79 0 134.5 42t55.5 112q0 64 -49 107.5t-137 43.5q-82 0 -182 -49l-90 52l49 430h536v-134h-405l-15 -194q70 24 144 24q146 0 230.5 -81t84.5 -199q0 -121 -88 -206t-248 -85q-164 0 -327 100z" />
<glyph horiz-adv-x="1183" d="M76 -125l98 164q37 -25 82 -49.5t129 -52t158 -27.5q135 0 230 79.5t95 207.5q0 120 -83.5 201t-229.5 81q-142 0 -297 -86l-121 72l78 711h819v-187h-641l-31 -373q116 46 240 46q114 0 208 -37.5t155 -101.5t94 -148t33 -178q0 -93 -33 -178t-96.5 -152.5t-165 -107.5 t-228.5 -40q-243 0 -493 156z" />
<glyph horiz-adv-x="2635" d="M59 915v160h150v96q0 302 303 302q103 0 228 -23.5t214 -50.5q75 94 244 94q154 0 385 -59v59h211v-551q172 156 371 156q187 0 301 -140t114 -421q0 -279 -114 -419.5t-301 -140.5q-199 0 -371 152v-129h-211v1260q-281 51 -352 51q-53 0 -89 -26t-36 -85v-125h280v-160 h-280v-915h-211v915h-477v-915h-209v915h-150zM418 1075h477v117q0 33 2 49q-266 49 -352 49q-55 0 -91 -25.5t-36 -84.5v-105zM1794 309q66 -71 150.5 -114t171.5 -43q122 0 185.5 100.5t63.5 284.5q0 185 -63.5 286t-185.5 101q-87 0 -171.5 -44t-150.5 -116v-455z" />
<glyph horiz-adv-x="1701" d="M88 541l62 94q33 -22 89 -44t113 -22q71 0 120.5 35t49.5 92q0 54 -43.5 89.5t-122.5 35.5q-75 0 -159 -41l-74 43l43 353h461v-109h-355l-14 -162q61 23 127 23q128 0 200 -67t72 -165t-75 -167.5t-213 -69.5q-137 0 -281 82zM467 0l592 1176h141l-594 -1176h-139z M995 186q0 127 181 197q-132 66 -132 162q0 77 71.5 124.5t189.5 47.5t189 -47.5t71 -124.5q0 -101 -133 -162q182 -71 182 -197q0 -91 -85 -144.5t-224 -53.5q-138 0 -224 53.5t-86 144.5zM1133 195q0 -48 49 -77.5t123 -29.5t123 29.5t49 77.5t-47.5 80.5t-126.5 60.5 q-79 -28 -124.5 -60.5t-45.5 -80.5zM1174 528q0 -63 129 -104q37 12 60.5 22t47 32.5t23.5 49.5q0 37 -36.5 65t-92.5 28q-58 0 -94.5 -28t-36.5 -65z" />
<glyph horiz-adv-x="1654" d="M88 541l62 94q33 -22 89 -44t113 -22q71 0 120.5 35t49.5 92q0 54 -43.5 89.5t-122.5 35.5q-75 0 -159 -41l-74 43l43 353h461v-109h-355l-14 -162q61 23 127 23q128 0 200 -67t72 -165t-75 -167.5t-213 -69.5q-137 0 -281 82zM467 0l592 1176h141l-594 -1176h-139z M963 301q0 179 122 297.5t314 118.5q29 0 57 -3t42 -6l13 -3l-30 -101q-37 8 -80 8q-107 0 -186.5 -58t-104.5 -167q76 66 199 66q115 0 183.5 -63t68.5 -159q0 -102 -78.5 -172.5t-210.5 -70.5q-77 0 -137 25t-97 68.5t-56 99.5t-19 120zM1098 272q3 -85 50 -131.5 t122 -46.5q76 0 118 40.5t42 92.5t-40.5 89.5t-115.5 37.5q-63 0 -109 -25t-67 -57z" />
<glyph horiz-adv-x="1415" d="M59 915v160h150v96q0 302 303 302q183 0 434 -72q66 92 213 92q77 0 172 -24.5t162 -51.5l-76 -153q-153 47 -215 47q-45 0 -70.5 -24t-25.5 -87v-125h280v-160h-280v-915h-211v915h-477v-915h-209v915h-150zM418 1075h477v117q0 33 2 49q-266 49 -352 49 q-55 0 -91 -25.5t-36 -84.5v-105z" />
<glyph horiz-adv-x="1288" d="M154 455v721h204v-734q0 -51 7 -90.5t26 -77t50 -62t83 -39.5t121 -15q84 0 142 21.5t88 62t42.5 88.5t12.5 112v734h205v-721q0 -83 -13.5 -151t-48 -129.5t-89 -102.5t-140.5 -65.5t-199 -24.5q-114 0 -200.5 24.5t-141 65.5t-88.5 102.5t-47.5 129.5t-13.5 151z" />
<glyph horiz-adv-x="763" d="M29 1513v136h708v-136h-274v-725h-160v725h-274z" />
<glyph horiz-adv-x="890" d="M55 174v113l420 573h213v-555h137v-131h-137v-174h-160v174h-473zM223 305h305v426z" />
<glyph horiz-adv-x="890" d="M55 748v112l420 574h213v-555h137v-131h-137v-175h-160v175h-473zM223 879h305v426z" />
<glyph horiz-adv-x="1302" d="M55 45v160l678 971h287v-945h219v-186h-219v-303h-219v303h-746zM285 231h516v756z" />
<glyph horiz-adv-x="1488" d="M59 915v160h150v117q0 159 68 230t196 71q77 0 172 -24.5t162 -51.5l-76 -153q-153 47 -215 47q-45 0 -71.5 -24.5t-26.5 -86.5v-125h268v-160h-268v-915h-209v915h-150zM801 915v160h149v117q0 301 260 301q108 0 269 -59l-56 -156q-122 33 -166 33q-45 0 -71.5 -24.5 t-26.5 -86.5v-125h283v-160h-283v-915h-209v915h-149z" />
<glyph horiz-adv-x="1789" d="M70 612v93l368 471h174v-457h119v-107h-119v-141h-131v141h-411zM211 719h270v356zM559 0l590 1176h143l-592 -1176h-141zM1118 70l60 94q32 -21 87.5 -42.5t114.5 -21.5q72 0 121 34.5t49 92.5q0 52 -44 88.5t-122 36.5q-84 0 -159 -43l-74 43l41 353h463v-107h-352 l-17 -164q61 23 127 23q128 0 200.5 -67t72.5 -163q0 -99 -75.5 -169t-213.5 -70q-130 0 -279 82z" />
<glyph horiz-adv-x="1970" d="M59 915v160h150v117q0 301 303 301q149 0 385 -59v59h211v-551q172 156 371 156q187 0 301 -140t114 -421q0 -279 -114 -419.5t-301 -140.5q-199 0 -371 152v-129h-211v1260q-281 51 -352 51q-54 0 -90.5 -26t-36.5 -85v-125h282v-160h-282v-915h-209v915h-150zM1108 309 q66 -71 150.5 -114t171.5 -43q122 0 185.5 100.5t63.5 284.5q0 185 -63.5 286t-185.5 101q-87 0 -171.5 -44t-150.5 -116v-455z" />
<glyph horiz-adv-x="749" d="M59 915v160h150v117q0 301 260 301q107 0 268 -59l-55 -156q-122 33 -166 33q-45 0 -71.5 -24.5t-26.5 -86.5v-125h282v-160h-282v-915h-209v915h-150z" />
<glyph horiz-adv-x="1239" d="M100 252v133h127v1049h940v-189h-721v-436h576v-186h-576v-238h369v-133h-369v-252h-219v252h-127z" />
<glyph horiz-adv-x="1112" d="M96 197v120h109v859h831v-172h-626v-332h499v-170h-499v-185h323v-120h-323v-197h-205v197h-109z" />
<glyph horiz-adv-x="804" d="M66 -74h81v627h611v-135h-449v-230h357v-131h-357v-131h232v-92h-232v-141h-162v141h-81v92z" />
<glyph horiz-adv-x="804" d="M66 930v92h79v627h611v-136h-449v-229h357v-131h-357v-131h234v-92h-234v-142h-162v142h-79z" />
<glyph horiz-adv-x="493" d="M41 1319v115h92v51q0 198 180 198q93 0 219 -47l-55 -110q-107 28 -129 28q-28 0 -42.5 -13.5t-14.5 -51.5v-55h172v-115h-172v-531h-158v531h-92z" />
<glyph horiz-adv-x="763" d="M29 418v135h708v-135h-274v-725h-160v725h-274z" />
<glyph horiz-adv-x="1210" d="M164 0v1176h205v-199h274q228 0 353.5 -90t125.5 -279q0 -190 -125.5 -281t-353.5 -91h-274v-236h-205zM369 406h247q143 0 220 46t77 156q0 109 -76 153t-221 44h-247v-399z" />
<glyph horiz-adv-x="1056" d="M45 1001v175h967v-175h-379v-1001h-49q12 -12 27 -32.5t34 -65t19 -86.5q0 -83 -61 -128.5t-157 -45.5q-88 0 -167 39l49 116q56 -26 102 -26q49 0 79 21.5t30 66.5q0 64 -58 141h-55v1001h-381z" />
<glyph horiz-adv-x="1056" d="M45 1001v175h967v-175h-379v-1001h-207v1001h-381zM207 1544h153l166 -168l168 168h154l-209 -272h-225z" />
<glyph horiz-adv-x="1075" d="M53 1001v175h967v-175h-379v-509h182v-123h-182v-369h-207v369h-182v123h182v509h-381z" />
<glyph horiz-adv-x="868" d="M96 274q0 318 320 318q150 0 231.5 -64.5t81.5 -160.5q0 -34 -10.5 -62.5t-20.5 -40.5l-10 -12q-123 -30 -123 -92q0 -17 12 -32t26 -24.5t46.5 -29t52.5 -33.5q59 -40 89 -80.5t30 -95.5q0 -83 -62.5 -135t-160.5 -52q-126 0 -266 74l55 101q123 -58 193 -58 q37 0 61.5 18.5t24.5 51.5q0 27 -19.5 46t-64.5 42q-3 2 -20 10t-24 12t-23.5 13.5t-24.5 16.5t-22 19t-21 23.5t-14.5 26.5t-11 32.5t-3.5 36.5q0 41 16 74.5t42.5 54.5t50 33.5t48.5 20.5q7 17 7 32q0 51 -42 82t-118 31q-82 0 -126 -46.5t-44 -158.5v-573h-156v581z" />
<glyph horiz-adv-x="868" d="M96 788v582q0 318 320 318q150 0 231.5 -65t81.5 -161q0 -34 -10.5 -62.5t-20.5 -39.5l-10 -12q-123 -30 -123 -93q0 -17 12 -32t26 -24t46 -28.5t53 -33.5q59 -40 89 -80.5t30 -95.5q0 -83 -62.5 -135t-160.5 -52q-126 0 -266 74l55 100q121 -57 193 -57q37 0 61.5 18.5 t24.5 51.5q0 27 -19.5 46t-64.5 42q-3 2 -20 10t-24 12t-23.5 13.5t-24.5 16.5t-22 19t-21 23.5t-14.5 26.5t-11 32.5t-3.5 36.5q0 41 16 74.5t43 54.5t49.5 33t48.5 20q7 17 7 33q0 51 -42 82t-118 31q-82 0 -126 -46.5t-44 -158.5v-574h-156z" />
<glyph horiz-adv-x="806" d="M63 14q0 167 72.5 252.5t190.5 85.5q123 0 231 -92v78h154v-660q0 -129 -70.5 -188t-208.5 -59q-159 0 -338 49q4 14 15 56.5t18 64.5q169 -52 276 -52q81 0 117.5 29t36.5 94v97q-106 -91 -231 -91q-118 0 -190.5 86t-72.5 250zM221 14q0 -102 38 -156.5t110 -54.5 q104 0 188 91v243q-83 90 -188 90q-72 0 -110 -55t-38 -158z" />
<glyph horiz-adv-x="1056" d="M45 1001v175h967v-175h-379v-1001h-207v1001h-381z" />
<glyph horiz-adv-x="813" d="M53 887l74 114q69 -37 157 -65.5t156 -28.5t114 27.5t46 79.5q0 21 -11.5 39t-27.5 30t-47 25.5t-56 21.5t-69 22t-72 24q-50 16 -87 33.5t-75.5 45.5t-59.5 69t-21 93q0 112 84 179t223 67q87 0 183 -25t171 -61l-71 -117q-61 28 -139 49t-134 21q-64 0 -107.5 -25.5 t-43.5 -77.5q0 -20 10 -36.5t24.5 -27.5t43 -22.5t51.5 -19t64 -20t69 -21.5q53 -17 91.5 -34.5t82 -47t67 -73.5t23.5 -99q0 -116 -89.5 -184t-230.5 -68q-104 0 -209 34t-184 79z" />
<glyph horiz-adv-x="1288" d="M154 455v721h204v-734q0 -51 7 -90.5t26 -77t50 -62t83 -39.5t121 -15q84 0 142 21.5t88 62t42.5 88.5t12.5 112v734h205v-721q0 -83 -13.5 -151t-48 -129.5t-89 -102.5t-140.5 -65.5t-199 -24.5q-114 0 -200.5 24.5t-141 65.5t-88.5 102.5t-47.5 129.5t-13.5 151z M336 1503h143q0 -102 162 -102q168 0 168 102h141q0 -107 -81.5 -169t-227.5 -62q-144 0 -224.5 62t-80.5 169z" />
<glyph horiz-adv-x="806" d="M63 1110q0 167 72.5 252.5t190.5 85.5q123 0 231 -92v78h154v-660q0 -129 -71 -188.5t-208 -59.5q-159 0 -338 49q4 14 15 56.5t18 64.5q166 -51 276 -51q81 0 117.5 29t36.5 94v96q-105 -90 -231 -90q-118 0 -190.5 86t-72.5 250zM221 1110q0 -102 38 -156.5t110 -54.5 q105 0 188 90v244q-83 90 -188 90q-72 0 -110 -55t-38 -158z" />
<glyph horiz-adv-x="813" d="M53 -209l74 115q69 -37 157 -65.5t156 -28.5t114 27t46 79q0 21 -11.5 39t-27.5 30t-47 25.5t-56 21.5t-69 22t-72 24q-50 16 -87 33.5t-75.5 46t-59.5 69.5t-21 93q0 112 84 178.5t223 66.5q87 0 183 -25t171 -61l-71 -116q-60 28 -138.5 48.5t-134.5 20.5 q-65 0 -108 -25t-43 -77q0 -20 10 -37t24.5 -28t43 -22.5t51.5 -18.5t64.5 -20t68.5 -22q53 -17 91.5 -34.5t82 -47t67 -73.5t23.5 -99q0 -116 -89.5 -184t-230.5 -68q-104 0 -209 34t-184 79z" />
<glyph horiz-adv-x="1126" d="M82 133l94 148q94 -51 216 -90t220 -39q93 0 160.5 39.5t67.5 113.5q0 26 -10 48t-32.5 40.5t-45 32t-63 29t-70 25.5t-82 27t-84.5 28q-58 19 -98.5 35t-90.5 45t-80.5 61.5t-51.5 81.5t-21 108q0 150 115 239t304 89q118 0 248 -33.5t232 -83.5l-95 -149 q-88 39 -193 66.5t-187 27.5q-89 0 -150 -36.5t-61 -108.5q0 -29 14.5 -52.5t35 -39.5t59 -31.5t71 -25.5t86 -26.5t90.5 -29.5q42 -14 72.5 -25.5t72.5 -30.5t71.5 -38t61 -46.5t51 -58t32 -70.5t12.5 -86q0 -103 -58.5 -180t-157.5 -116t-225 -39q-138 0 -281 45t-249 106 zM475 -514l96 176h-84v213h185l16 -227l-158 -221z" />
<glyph horiz-adv-x="368" d="M90 1649h189l-48 -590h-94zM104 788v173h164v-173h-164z" />
<glyph horiz-adv-x="368" d="M90 553h189l-48 -590h-94zM104 -135h164v-172h-164v172z" />
<glyph horiz-adv-x="1126" d="M82 133l94 148q94 -51 216 -90t220 -39q93 0 160.5 39.5t67.5 113.5q0 26 -10 48t-32.5 40.5t-45 32t-63 29t-70 25.5t-82 27t-84.5 28q-58 19 -98.5 35t-90.5 45t-80.5 61.5t-51.5 81.5t-21 108q0 150 115 239t304 89q118 0 248 -33.5t232 -83.5l-95 -149 q-88 39 -193 66.5t-187 27.5q-89 0 -150 -36.5t-61 -108.5q0 -29 14.5 -52.5t35 -39.5t59 -31.5t71 -25.5t86 -26.5t90.5 -29.5q42 -14 72.5 -25.5t72.5 -30.5t71.5 -38t61 -46.5t51 -58t32 -70.5t12.5 -86q0 -103 -58.5 -180t-157.5 -116t-225 -39q-138 0 -281 45t-249 106 zM248 1272l207 272h225l209 -272h-154l-168 168l-166 -168h-153z" />
<glyph horiz-adv-x="1126" d="M82 133l94 148q94 -51 216 -90t220 -39q93 0 160.5 39.5t67.5 113.5q0 26 -10 48t-32.5 40.5t-45 32t-63 29t-70 25.5t-82 27t-84.5 28q-58 19 -98.5 35t-90.5 45t-80.5 61.5t-51.5 81.5t-21 108q0 150 115 239t304 89q118 0 248 -33.5t232 -83.5l-95 -149 q-88 39 -193 66.5t-187 27.5q-89 0 -150 -36.5t-61 -108.5q0 -29 14.5 -52.5t35 -39.5t59 -31.5t71 -25.5t86 -26.5t90.5 -29.5q42 -14 72.5 -25.5t72.5 -30.5t71.5 -38t61 -46.5t51 -58t32 -70.5t12.5 -86q0 -143 -106 -231t-277 -102q67 -83 67 -168q0 -83 -60.5 -128.5 t-156.5 -45.5q-89 0 -168 39l49 116q56 -26 103 -26q49 0 78.5 21.5t29.5 66.5q0 53 -45 125q-130 7 -260.5 50t-224.5 99z" />
<glyph horiz-adv-x="808" d="M96 -307v895h156v-332q138 96 270 96q197 0 197 -202v-457h-156v424q0 114 -98 114q-54 0 -114 -28t-99 -62v-448h-156z" />
<glyph horiz-adv-x="1126" d="M82 133l94 148q94 -51 216 -90t220 -39q93 0 160.5 39.5t67.5 113.5q0 26 -10 48t-32.5 40.5t-45 32t-63 29t-70 25.5t-82 27t-84.5 28q-58 19 -98.5 35t-90.5 45t-80.5 61.5t-51.5 81.5t-21 108q0 150 115 239t304 89q118 0 248 -33.5t232 -83.5l-95 -149 q-88 39 -193 66.5t-187 27.5q-89 0 -150 -36.5t-61 -108.5q0 -29 14.5 -52.5t35 -39.5t59 -31.5t71 -25.5t86 -26.5t90.5 -29.5q42 -14 72.5 -25.5t72.5 -30.5t71.5 -38t61 -46.5t51 -58t32 -70.5t12.5 -86q0 -103 -58.5 -180t-157.5 -116t-225 -39q-138 0 -281 45t-249 106 zM248 1544h153l166 -168l168 168h154l-209 -272h-225z" />
<glyph horiz-adv-x="368" d="M90 788l47 590h94l48 -590h-189zM100 1477v172h164v-172h-164z" />
<glyph horiz-adv-x="1126" d="M82 133l94 148q94 -51 216 -90t220 -39q93 0 160.5 39.5t67.5 113.5q0 26 -10 48t-32.5 40.5t-45 32t-63 29t-70 25.5t-82 27t-84.5 28q-58 19 -98.5 35t-90.5 45t-80.5 61.5t-51.5 81.5t-21 108q0 150 115 239t304 89q118 0 248 -33.5t232 -83.5l-95 -149 q-88 39 -193 66.5t-187 27.5q-89 0 -150 -36.5t-61 -108.5q0 -29 14.5 -52.5t35 -39.5t59 -31.5t71 -25.5t86 -26.5t90.5 -29.5q42 -14 72.5 -25.5t72.5 -30.5t71.5 -38t61 -46.5t51 -58t32 -70.5t12.5 -86q0 -103 -58.5 -180t-157.5 -116t-225 -39q-138 0 -281 45t-249 106 zM391 1272l254 272h266l-344 -272h-176z" />
<glyph horiz-adv-x="1126" d="M82 133l94 148q94 -51 216 -90t220 -39q93 0 160.5 39.5t67.5 113.5q0 26 -10 48t-32.5 40.5t-45 32t-63 29t-70 25.5t-82 27t-84.5 28q-58 19 -98.5 35t-90.5 45t-80.5 61.5t-51.5 81.5t-21 108q0 150 115 239t304 89q118 0 248 -33.5t232 -83.5l-95 -149 q-88 39 -193 66.5t-187 27.5q-89 0 -150 -36.5t-61 -108.5q0 -29 14.5 -52.5t35 -39.5t59 -31.5t71 -25.5t86 -26.5t90.5 -29.5q42 -14 72.5 -25.5t72.5 -30.5t71.5 -38t61 -46.5t51 -58t32 -70.5t12.5 -86q0 -103 -58.5 -180t-157.5 -116t-225 -39q-138 0 -281 45t-249 106 z" />
<glyph horiz-adv-x="909" d="M113 788v861h381q350 0 350 -260q0 -208 -230 -248l232 -353h-174l-219 345h-181v-345h-159zM272 1257h211q199 0 199 132q0 135 -195 135h-215v-267z" />
<glyph horiz-adv-x="909" d="M113 -307v860h381q350 0 350 -260q0 -208 -230 -248l232 -352h-174l-219 344h-181v-344h-159zM272 162h211q199 0 199 131q0 135 -195 135h-215v-266z" />
<glyph horiz-adv-x="1263" d="M164 0v1176h516q481 0 481 -351q0 -287 -323 -340l325 -485h-225l-303 475h-266v-475h-205zM369 639h301q135 0 208.5 42.5t73.5 143.5q0 187 -276 187h-307v-373zM518 -514l96 176h-84v213h185l16 -227l-158 -221z" />
<glyph horiz-adv-x="1263" d="M164 0v1176h516q481 0 481 -351q0 -287 -323 -340l325 -485h-225l-303 475h-266v-475h-205zM344 1544h154l166 -168l167 168h154l-209 -272h-225zM369 639h301q135 0 208.5 42.5t73.5 143.5q0 187 -276 187h-307v-373z" />
<glyph horiz-adv-x="1263" d="M164 0v1176h516q481 0 481 -351q0 -287 -323 -340l325 -485h-225l-303 475h-266v-475h-205zM369 639h301q135 0 208.5 42.5t73.5 143.5q0 187 -276 187h-307v-373zM485 1272l254 272h267l-344 -272h-177z" />
<glyph horiz-adv-x="346" d="M92 442v144h166v-144h-166zM96 -307v645h156v-645h-156z" />
<glyph horiz-adv-x="1263" d="M164 0v1176h516q481 0 481 -351q0 -287 -323 -340l325 -485h-225l-303 475h-266v-475h-205zM369 639h301q135 0 208.5 42.5t73.5 143.5q0 187 -276 187h-307v-373z" />
<glyph horiz-adv-x="983" d="M74 1219q0 95 23.5 173.5t71.5 140t130.5 96t192.5 34.5t192 -34.5t130 -96t71.5 -140t23.5 -173.5q0 -152 -59.5 -262.5t-183.5 -155.5l141 -107l-105 -108l-210 188q-110 0 -192.5 34.5t-130.5 96.5t-71.5 140.5t-23.5 173.5zM238 1219q0 -142 60 -225t194 -83 q133 0 193 83.5t60 224.5t-60 224t-193 83q-254 0 -254 -307z" />
<glyph horiz-adv-x="368" d="M92 -307l47 590h94l48 -590h-189zM102 381v172h164v-172h-164z" />
<glyph horiz-adv-x="530" d="M145 0l60 809h119l59 -809h-238zM158 946v230h213v-230h-213z" />
<glyph horiz-adv-x="983" d="M74 123q0 95 23.5 173.5t71.5 140t130.5 96t192.5 34.5t192 -34.5t130 -96t71.5 -140t23.5 -173.5q0 -152 -59.5 -262.5t-183.5 -155.5l141 -106l-105 -109l-210 188q-110 0 -192.5 34.5t-130.5 96.5t-71.5 140.5t-23.5 173.5zM238 123q0 -307 254 -307q133 0 193 83 t60 224t-60 224t-193 83q-254 0 -254 -307z" />
<glyph horiz-adv-x="1288" d="M154 455v721h204v-734q0 -51 7 -90.5t26 -77t50 -62t83 -39.5t121 -15q84 0 142 21.5t88 62t42.5 88.5t12.5 112v734h205v-721q0 -83 -13.5 -151t-48 -129.5t-89 -102.5t-140.5 -65.5t-199 -24.5q-114 0 -200.5 24.5t-141 65.5t-88.5 102.5t-47.5 129.5t-13.5 151z M324 1272l206 272h226l209 -272h-154l-168 168l-166 -168h-153z" />
<glyph horiz-adv-x="1355" d="M106 588q0 103 19.5 192t63 166t109 131.5t162.5 85.5t218 31t217 -31t161.5 -85.5t108.5 -131.5t62.5 -166t19.5 -192q0 -137 -34 -248t-113 -198t-197 -128l199 -147l-139 -141l-287 256q-150 1 -262 48t-178 131t-98 191t-32 236zM317 588q0 -94 19 -169.5 t60.5 -135.5t112.5 -92.5t169 -32.5t168.5 32.5t111.5 92.5t59.5 135t18.5 170t-18.5 170t-59.5 135t-111.5 92.5t-168.5 32.5t-169 -32.5t-112.5 -92.5t-60.5 -135.5t-19 -169.5z" />
<glyph horiz-adv-x="858" d="M113 788v861h354q169 0 259.5 -68t90.5 -207q0 -270 -350 -270h-193v-316h-161zM274 1233h187q192 0 192 141q0 142 -192 142h-187v-283z" />
<glyph horiz-adv-x="858" d="M113 -307v860h354q169 0 259.5 -67.5t90.5 -206.5q0 -271 -350 -271h-193v-315h-161zM274 137h187q192 0 192 142q0 141 -192 141h-187v-283z" />
<glyph horiz-adv-x="352" d="M-49 -467q40 12 64 20.5t42.5 20.5t26.5 19t12.5 24.5t5 29t0.5 40.5v651h156v-641q0 -72 -4 -103t-28 -69.5t-77 -60.5t-149 -44zM96 442v144h166v-144h-166z" />
<glyph horiz-adv-x="530" d="M145 1176h238l-59 -809h-119zM158 0v229h213v-229h-213z" />
<glyph horiz-adv-x="1189" d="M164 0v1176h479q228 0 353.5 -91t125.5 -280q0 -190 -125.5 -280.5t-353.5 -90.5h-274v-434h-205zM369 604h268q276 0 276 201q0 199 -276 199h-268v-400z" />
<glyph horiz-adv-x="1353" d="M106 588q0 103 19.5 192t63 166t109 131.5t162.5 85.5t218 31t217 -31t161.5 -85.5t108.5 -131.5t62.5 -166t19.5 -192t-19.5 -191.5t-62.5 -166t-108 -132t-161.5 -85.5t-217.5 -31t-218 31t-162.5 85.5t-109 132t-63 166t-19.5 191.5zM317 588q0 -94 19 -169.5 t60.5 -135.5t112.5 -92.5t169 -32.5t168.5 32.5t111.5 92.5t59.5 135t18.5 170t-18.5 170t-59.5 135t-111.5 92.5t-168.5 32.5t-169 -32.5t-112.5 -92.5t-60.5 -135.5t-19 -169.5zM336 1339q25 47 41 72.5t41 55.5t54.5 43.5t66.5 13.5q45 0 97.5 -25t98 -49.5t72.5 -24.5 q25 0 48 18.5t54 76.5l107 -47q-21 -44 -38.5 -73t-42 -57.5t-55 -42.5t-67.5 -14q-45 0 -97.5 24.5t-98 49t-72.5 24.5q-25 0 -48 -18t-55 -76z" />
<glyph horiz-adv-x="983" d="M74 1219q0 95 23.5 173.5t72 140t130.5 96t192 34.5t192 -34.5t131 -96t72.5 -140t23.5 -173.5t-23.5 -173.5t-72.5 -140.5t-131 -96.5t-192 -34.5t-192 34.5t-130.5 96.5t-72 140.5t-23.5 173.5zM238 1219q0 -142 60 -225t194 -83q253 0 253 308q0 307 -253 307 q-254 0 -254 -307z" />
<glyph horiz-adv-x="727" d="M98 -307v895h154v-549l244 299h178l-230 -256l269 -389h-166l-195 284l-100 -114v-170h-154z" />
<glyph horiz-adv-x="727" d="M98 788v895h154v-548l244 299h178l-230 -256l269 -390h-166l-195 283l-100 -113v-170h-154z" />
<glyph horiz-adv-x="1349" d="M106 588q0 103 19.5 192t63 166t109 131.5t162.5 85.5t218 31q204 0 340 -90l57 72h152l-121 -148q141 -160 141 -440q0 -103 -19.5 -191.5t-62.5 -166t-108 -132t-161.5 -85.5t-217.5 -31q-206 0 -342 90l-57 -72h-152l119 147q-140 159 -140 441zM317 588 q0 -174 60 -277l520 643q-86 64 -219 64q-98 0 -169 -32.5t-112.5 -92.5t-60.5 -135.5t-19 -169.5zM457 221q81 -63 221 -63q98 0 168.5 32.5t111.5 92.5t59.5 135t18.5 170q0 171 -61 276zM500 1272l254 272h266l-344 -272h-176z" />
<glyph horiz-adv-x="1288" d="M154 455v721h204v-734q0 -51 7 -90.5t26 -77t50 -62t83 -39.5t121 -15q84 0 142 21.5t88 62t42.5 88.5t12.5 112v734h205v-721q0 -83 -13.5 -151t-48 -129.5t-89 -102.5t-140.5 -65.5t-199 -24.5q-114 0 -200.5 24.5t-141 65.5t-88.5 102.5t-47.5 129.5t-13.5 151z M371 1292v207h192v-207h-192zM725 1292v207h190v-207h-190z" />
<glyph horiz-adv-x="1353" d="M106 588q0 103 19.5 192t63 166t109 131.5t162.5 85.5t218 31t217 -31t161.5 -85.5t108.5 -131.5t62.5 -166t19.5 -192t-19.5 -191.5t-62.5 -166t-108 -132t-161.5 -85.5t-217.5 -31t-218 31t-162.5 85.5t-109 132t-63 166t-19.5 191.5zM317 588q0 -94 19 -169.5 t60.5 -135.5t112.5 -92.5t169 -32.5t168.5 32.5t111.5 92.5t59.5 135t18.5 170t-18.5 170t-59.5 135t-111.5 92.5t-168.5 32.5t-169 -32.5t-112.5 -92.5t-60.5 -135.5t-19 -169.5zM371 1323v135h608v-135h-608z" />
<glyph horiz-adv-x="983" d="M74 123q0 95 23.5 173.5t72 140t130.5 96t192 34.5t192 -34.5t131 -96t72.5 -140t23.5 -173.5t-23.5 -173.5t-72.5 -140.5t-131 -96.5t-192 -34.5t-192 34.5t-130.5 96.5t-72 140.5t-23.5 173.5zM238 123q0 -307 254 -307q253 0 253 307t-253 307q-254 0 -254 -307z" />
<glyph horiz-adv-x="1353" d="M106 588q0 103 19.5 192t63 166t109 131.5t162.5 85.5t218 31t217 -31t161.5 -85.5t108.5 -131.5t62.5 -166t19.5 -192t-19.5 -191.5t-62.5 -166t-108 -132t-161.5 -85.5t-217.5 -31t-218 31t-162.5 85.5t-109 132t-63 166t-19.5 191.5zM317 588q0 -94 19 -169.5 t60.5 -135.5t112.5 -92.5t169 -32.5t168.5 32.5t111.5 92.5t59.5 135t18.5 170t-18.5 170t-59.5 135t-111.5 92.5t-168.5 32.5t-169 -32.5t-112.5 -92.5t-60.5 -135.5t-19 -169.5zM410 1272l163 272h222l-252 -272h-133zM739 1272l160 272h223l-254 -272h-129z" />
<glyph horiz-adv-x="1353" d="M106 588q0 103 19.5 192t63 166t109 131.5t162.5 85.5t218 31t217 -31t161.5 -85.5t108.5 -131.5t62.5 -166t19.5 -192t-19.5 -191.5t-62.5 -166t-108 -132t-161.5 -85.5t-217.5 -31t-218 31t-162.5 85.5t-109 132t-63 166t-19.5 191.5zM317 588q0 -94 19 -169.5 t60.5 -135.5t112.5 -92.5t169 -32.5t168.5 32.5t111.5 92.5t59.5 135t18.5 170t-18.5 170t-59.5 135t-111.5 92.5t-168.5 32.5t-169 -32.5t-112.5 -92.5t-60.5 -135.5t-19 -169.5zM334 1544h266l254 -272h-174z" />
<glyph horiz-adv-x="1288" d="M154 455v721h204v-734q0 -51 7 -90.5t26 -77t50 -62t83 -39.5t121 -15q84 0 142 21.5t88 62t42.5 88.5t12.5 112v734h205v-721q0 -83 -13.5 -151t-48 -129.5t-89 -102.5t-140.5 -65.5t-199 -24.5q-114 0 -200.5 24.5t-141 65.5t-88.5 102.5t-47.5 129.5t-13.5 151z M301 1544h266l254 -272h-174z" />
<glyph horiz-adv-x="354" d="M100 -307v895h156v-895h-156z" />
<glyph horiz-adv-x="1288" d="M154 455v721h204v-734q0 -51 7 -90.5t26 -77t50 -62t83 -39.5t121 -15q84 0 142 21.5t88 62t42.5 88.5t12.5 112v734h205v-721q0 -83 -13.5 -151t-48 -129.5t-89 -102.5t-140.5 -65.5t-199 -24.5q-114 0 -200.5 24.5t-141 65.5t-88.5 102.5t-47.5 129.5t-13.5 151z M375 1272l164 272h221l-252 -272h-133zM705 1272l159 272h223l-253 -272h-129z" />
<glyph horiz-adv-x="1038" d="M117 0v141q6 3 16 9t38.5 27t52.5 44t50.5 59t40.5 74h-178v105h195q-3 45 -23 94h-172v104h111q-32 51 -46.5 75t-31 73.5t-16.5 97.5q0 134 98.5 212.5t265.5 78.5q64 0 125.5 -11.5t120 -35t93 -40t85.5 -44.5l-92 -135q-186 94 -301 94q-90 0 -139.5 -42t-49.5 -106 q0 -28 11 -58.5t21.5 -49.5t35.5 -56t35 -53h340v-104h-291q14 -51 14 -90v-4h277v-105h-297q-22 -59 -60 -107t-71 -75h549v-172h-807z" />
<glyph horiz-adv-x="747" d="M78 -199q12 6 30.5 17.5t58 51t56.5 83.5h-133v78h146q-2 31 -17 67h-129v78h82q-21 31 -33 52t-22.5 55t-10.5 69q0 98 72 156.5t195 58.5q48 0 93 -8.5t89.5 -27t67.5 -29.5t63 -33l-72 -104q-131 69 -217 69q-61 0 -95 -29.5t-34 -74.5q0 -19 8 -41.5t14.5 -34.5 t25.5 -41.5t24 -36.5h248v-78h-211q10 -33 10 -65v-2h201v-78h-215q-16 -42 -43 -77.5t-47 -49.5h389v-133h-594v108z" />
<glyph horiz-adv-x="747" d="M78 788v109q12 6 30.5 17.5t58 51t56.5 83.5h-133v77h146q-3 32 -17 68h-129v78h82q-21 31 -33 52t-22.5 55t-10.5 69q0 98 72 156.5t195 58.5q48 0 93 -8.5t89.5 -27t67.5 -29.5t63 -33l-72 -105q-133 70 -217 70q-61 0 -95 -30t-34 -75q0 -19 8 -41t14.5 -34.5 t25.5 -40.5t24 -37h248v-78h-211q10 -33 10 -66v-2h201v-77h-215q-16 -42 -43 -77.5t-47 -49.5h389v-134h-594z" />
<glyph horiz-adv-x="1353" d="M106 588q0 103 19.5 192t63 166t109 131.5t162.5 85.5t218 31t217 -31t161.5 -85.5t108.5 -131.5t62.5 -166t19.5 -192t-19.5 -191.5t-62.5 -166t-108 -132t-161.5 -85.5t-217.5 -31t-218 31t-162.5 85.5t-109 132t-63 166t-19.5 191.5zM317 588q0 -94 19 -169.5 t60.5 -135.5t112.5 -92.5t169 -32.5t168.5 32.5t111.5 92.5t59.5 135t18.5 170t-18.5 170t-59.5 135t-111.5 92.5t-168.5 32.5t-169 -32.5t-112.5 -92.5t-60.5 -135.5t-19 -169.5zM403 1292v207h193v-207h-193zM758 1292v207h190v-207h-190z" />
<glyph horiz-adv-x="1353" d="M106 588q0 103 19.5 192t63 166t109 131.5t162.5 85.5t218 31t217 -31t161.5 -85.5t108.5 -131.5t62.5 -166t19.5 -192t-19.5 -191.5t-62.5 -166t-108 -132t-161.5 -85.5t-217.5 -31t-218 31t-162.5 85.5t-109 132t-63 166t-19.5 191.5zM317 588q0 -94 19 -169.5 t60.5 -135.5t112.5 -92.5t169 -32.5t168.5 32.5t111.5 92.5t59.5 135t18.5 170t-18.5 170t-59.5 135t-111.5 92.5t-168.5 32.5t-169 -32.5t-112.5 -92.5t-60.5 -135.5t-19 -169.5zM356 1272l207 272h225l209 -272h-153l-168 168l-166 -168h-154z" />
<glyph horiz-adv-x="929" d="M104 31v522h162v-537q0 -95 42.5 -147.5t158.5 -52.5q59 0 99.5 15t61.5 44t29.5 62.5t8.5 78.5v537h161v-522q0 -79 -16.5 -139t-56 -110.5t-112 -77t-175.5 -26.5q-105 0 -178 26.5t-112.5 77t-56 110.5t-16.5 139z" />
<glyph horiz-adv-x="1353" d="M106 588q0 103 19.5 192t63 166t109 131.5t162.5 85.5t218 31t217 -31t161.5 -85.5t108.5 -131.5t62.5 -166t19.5 -192t-19.5 -191.5t-62.5 -166t-108 -132t-161.5 -85.5t-217.5 -31t-218 31t-162.5 85.5t-109 132t-63 166t-19.5 191.5zM317 588q0 -94 19 -169.5 t60.5 -135.5t112.5 -92.5t169 -32.5t168.5 32.5t111.5 92.5t59.5 135t18.5 170t-18.5 170t-59.5 135t-111.5 92.5t-168.5 32.5t-169 -32.5t-112.5 -92.5t-60.5 -135.5t-19 -169.5zM369 1503h143q0 -102 162 -102q168 0 168 102h141q0 -107 -81.5 -169t-227.5 -62 q-144 0 -224.5 62t-80.5 169z" />
<glyph horiz-adv-x="1288" d="M154 455v721h204v-734q0 -51 7 -90.5t26 -77t50 -62t83 -39.5t121 -15q84 0 142 21.5t88 62t42.5 88.5t12.5 112v734h205v-721q0 -83 -13.5 -151t-48 -129.5t-89 -102.5t-140.5 -65.5t-199 -24.5q-114 0 -200.5 24.5t-141 65.5t-88.5 102.5t-47.5 129.5t-13.5 151z M340 1323v135h608v-135h-608z" />
<glyph horiz-adv-x="1353" d="M106 588q0 103 19.5 192t63 166t109 131.5t162.5 85.5t218 31t217 -31t161.5 -85.5t108.5 -131.5t62.5 -166t19.5 -192t-19.5 -191.5t-62.5 -166t-108 -132t-161.5 -85.5t-217.5 -31t-218 31t-162.5 85.5t-109 132t-63 166t-19.5 191.5zM317 588q0 -94 19 -169.5 t60.5 -135.5t112.5 -92.5t169 -32.5t168.5 32.5t111.5 92.5t59.5 135t18.5 170t-18.5 170t-59.5 135t-111.5 92.5t-168.5 32.5t-169 -32.5t-112.5 -92.5t-60.5 -135.5t-19 -169.5zM500 1272l254 272h266l-344 -272h-176z" />
<glyph horiz-adv-x="1982" d="M106 588q0 103 19.5 192t63 166t109 131.5t162.5 85.5t218 31q223 0 362 -104v86h832v-172h-627v-330h516v-172h-516v-330h637v-172h-842v86q-139 -104 -362 -104q-121 0 -218 31t-162.5 85.5t-109 132t-63 166t-19.5 191.5zM317 588q0 -94 19 -169.5t60.5 -135.5 t112.5 -92.5t169 -32.5t168.5 32.5t111.5 92.5t59.5 135t18.5 170t-18.5 170t-59.5 135t-111.5 92.5t-168.5 32.5t-169 -32.5t-112.5 -92.5t-60.5 -135.5t-19 -169.5z" />
<glyph horiz-adv-x="1208" d="M96 -307v645h156v-86q45 39 109 69.5t131 30.5q143 0 182 -112q43 41 111.5 76.5t142.5 35.5q192 0 192 -202v-457h-153v424q0 114 -95 114q-48 0 -99 -29t-87 -67v-442h-156v424q0 54 -20 84t-74 30q-48 0 -98 -28t-86 -66v-444h-156z" />
<glyph horiz-adv-x="1290" d="M154 455v721h204v-734q0 -51 7 -90.5t26 -77t50 -62t83 -39.5t121 -15q84 0 142 21.5t88 62t42.5 88.5t12.5 112v734h205v-721q0 -180 -71 -298t-241 -157q-27 -16 -31.5 -18.5t-31.5 -18.5t-35 -23t-29.5 -22.5t-29.5 -26.5t-20 -26t-16.5 -30t-4.5 -30q0 -18 5.5 -31 t17.5 -21t22.5 -13t29.5 -6.5t28.5 -2t30.5 0t25 0.5l-22 -113q-125 0 -185 22q-106 38 -106 142q0 109 166 199q-112 1 -197 26t-138.5 66.5t-87.5 102.5t-47 128t-13 150z" />
<glyph horiz-adv-x="757" d="M61 14q0 159 89.5 248.5t242.5 89.5q148 0 226.5 -78t78.5 -206q0 -22 -2.5 -43.5t-5.5 -32.5l-2 -10h-467q8 -89 51.5 -138t116.5 -49q94 0 250 82l63 -96q-178 -103 -325 -103q-138 0 -227 86.5t-89 249.5zM221 68h326q-3 172 -156 172q-72 0 -115.5 -45.5 t-54.5 -126.5z" />
<glyph horiz-adv-x="1353" d="M106 588q0 103 19.5 192t63 166t109 131.5t162.5 85.5t218 31t217 -31t161.5 -85.5t108.5 -131.5t62.5 -166t19.5 -192t-19.5 -191.5t-62.5 -166t-108 -132t-161.5 -85.5t-217.5 -31t-218 31t-162.5 85.5t-109 132t-63 166t-19.5 191.5zM317 588q0 -94 19 -169.5 t60.5 -135.5t112.5 -92.5t169 -32.5t168.5 32.5t111.5 92.5t59.5 135t18.5 170t-18.5 170t-59.5 135t-111.5 92.5t-168.5 32.5t-169 -32.5t-112.5 -92.5t-60.5 -135.5t-19 -169.5z" />
<glyph horiz-adv-x="1335" d="M164 0v1176h213l588 -893v893h204v-1176h-211l-589 895v-895h-205zM336 1339q25 47 41 72.5t41 55.5t54.5 43.5t66.5 13.5q45 0 97.5 -25t98 -49.5t72.5 -24.5q25 0 48 18.5t54 76.5l107 -47q-21 -44 -38.5 -73t-42 -57.5t-55 -42.5t-67.5 -14q-45 0 -97.5 24.5t-98 49 t-72.5 24.5q-25 0 -48 -18t-55 -76z" />
<glyph horiz-adv-x="962" d="M113 788v861h163l414 -631v631h164v-861h-168l-412 631v-631h-161z" />
<glyph horiz-adv-x="962" d="M113 -307v860h163l414 -631v631h164v-860h-168l-412 631v-631h-161z" />
<glyph horiz-adv-x="1335" d="M164 0v1176h213l588 -893v893h204v-1176h-211l-589 895v-895h-205zM567 -514l97 176h-84v213h184l16 -227l-157 -221z" />
<glyph horiz-adv-x="1335" d="M164 0v1176h213l588 -893v893h204v-1176h-211l-589 895v-895h-205zM356 1544h154l166 -168l168 168h153l-209 -272h-225z" />
<glyph horiz-adv-x="1335" d="M164 0v1176h213l588 -893v893h204v-1176h-211l-589 895v-895h-205zM492 1272l253 272h267l-344 -272h-176z" />
<glyph horiz-adv-x="1335" d="M164 0v1176h213l588 -893v893h204v-1176h-211l-589 895v-895h-205z" />
<glyph horiz-adv-x="856" d="M74 578q0 125 91 210.5t243 85.5q89 0 159 -30.5t112.5 -84t64.5 -121t22 -146.5q0 -218 -141 -362t-365 -144q-33 0 -64.5 3.5t-47.5 6.5l-15 4l39 125q37 -8 86 -8q122 0 212 69t120 201q-85 -80 -225 -80q-132 0 -211.5 76.5t-79.5 194.5zM233 582q0 -64 45.5 -109 t129.5 -45q68 0 120 28.5t76 65.5q-3 107 -56 164t-136 57q-86 0 -132.5 -48t-46.5 -113z" />
<glyph horiz-adv-x="1296" d="M98 375q0 63 20 118.5t50.5 96t76.5 77t90.5 61t98.5 48.5q-53 27 -94 56.5t-78.5 69.5t-57.5 92.5t-20 113.5q0 157 126.5 252.5t336.5 95.5t337.5 -95.5t127.5 -252.5q0 -61 -20 -113.5t-57.5 -92.5t-79 -69.5t-95.5 -56.5q70 -30 124.5 -63.5t106.5 -81.5t80.5 -113 t28.5 -143q0 -185 -153 -291.5t-400 -106.5t-398 106.5t-151 291.5zM322 387q0 -107 92.5 -172t232.5 -65q141 0 234.5 65t93.5 172q0 57 -27 104.5t-77 84t-102 62.5t-122 52q-70 -26 -121.5 -52t-101 -62.5t-76 -84t-26.5 -104.5zM399 1090q0 -47 22.5 -86.5t63.5 -68 t77 -46t85 -35.5q49 18 86.5 35.5t78 46t63 68t22.5 86.5q0 81 -70 139.5t-180 58.5q-107 0 -177.5 -59t-70.5 -139z" />
<glyph horiz-adv-x="1251" d="M82 705q0 99 36 187t101 155.5t164 107t217 39.5q138 0 246.5 -51.5t173.5 -138t98.5 -191.5t34.5 -221q1 -206 -62 -374.5t-171 -277t-248.5 -167t-298.5 -58.5q-51 0 -101 6t-74 11l-24 6l53 176q64 -16 144 -16q88 0 170 28t157 85t131.5 156t81.5 230 q-57 -57 -150 -101t-220 -44q-140 0 -245.5 61t-159.5 163t-54 229zM303 711q0 -55 17.5 -105.5t52 -92t92.5 -66.5t131 -25q118 0 208 56.5t126 125.5v8q0 174 -87.5 287t-238.5 113q-74 0 -133 -26.5t-95 -70t-54.5 -96t-18.5 -108.5z" />
<glyph horiz-adv-x="872" d="M80 801q0 46 17 84t48 67t64 49t76 39q-150 75 -150 197q0 95 82.5 153t220.5 58q137 0 219 -58.5t82 -152.5q0 -122 -153 -197q93 -41 150 -97t57 -142q0 -111 -97.5 -176.5t-257.5 -65.5q-164 0 -261 65t-97 177zM242 813q0 -59 55.5 -95t140.5 -36q83 0 137 36t54 95 q0 30 -15.5 56t-46 46.5t-60 35t-71.5 30.5q-90 -34 -142 -72.5t-52 -95.5zM291 1223q0 -80 145 -129q64 22 105 52t41 77q0 43 -40.5 74.5t-103.5 31.5q-66 0 -106.5 -31.5t-40.5 -74.5z" />
<glyph horiz-adv-x="872" d="M80 227q0 46 17 84.5t48 67t64 49t76 39.5q-150 75 -150 197q0 94 82.5 152t220.5 58q137 0 219 -58t82 -152q0 -122 -153 -197q93 -41 150 -97.5t57 -142.5q0 -111 -97.5 -176t-257.5 -65q-164 0 -261 64.5t-97 176.5zM242 240q0 -59 55.5 -95t140.5 -36q83 0 137 36 t54 95q0 30 -15.5 56t-46 46.5t-60 35t-71.5 30.5q-90 -34 -142 -72.5t-52 -95.5zM291 649q0 -80 145 -129q64 22 105 52t41 77q0 43 -41 75t-103 32q-66 0 -106.5 -32t-40.5 -75z" />
<glyph horiz-adv-x="1288" d="M154 455v721h204v-734q0 -51 7 -90.5t26 -77t50 -62t83 -39.5t121 -15q84 0 142 21.5t88 62t42.5 88.5t12.5 112v734h205v-721q0 -83 -13.5 -151t-48 -129.5t-89 -102.5t-140.5 -65.5t-199 -24.5q-114 0 -200.5 24.5t-141 65.5t-88.5 102.5t-47.5 129.5t-13.5 151z M424 1470q0 91 64 155.5t155 64.5t155 -64.5t64 -155.5t-64 -155t-155 -64t-155 64t-64 155zM537 1470q0 -44 31 -75t75 -31t75.5 31t31.5 75t-31.5 75.5t-75.5 31.5t-75 -31.5t-31 -75.5z" />
<glyph horiz-adv-x="808" d="M96 -307v645h156v-82q138 96 270 96q197 0 197 -202v-457h-156v424q0 114 -98 114q-54 0 -114 -28t-99 -62v-448h-156z" />
<glyph horiz-adv-x="929" d="M104 1126v523h162v-537q0 -46 8 -79t29 -62.5t62 -44.5t102 -15q59 0 99.5 15t61.5 44.5t29.5 63t8.5 78.5v537h161v-523q0 -79 -16.5 -139t-56 -110t-112 -76.5t-175.5 -26.5q-105 0 -178 26.5t-112.5 76.5t-56 110t-16.5 139z" />
<glyph horiz-adv-x="1288" d="M154 455v721h204v-734q0 -51 7 -90.5t26 -77t50 -62t83 -39.5t121 -15q84 0 142 21.5t88 62t42.5 88.5t12.5 112v734h205v-721q0 -83 -13.5 -151t-48 -129.5t-89 -102.5t-140.5 -65.5t-199 -24.5q-114 0 -200.5 24.5t-141 65.5t-88.5 102.5t-47.5 129.5t-13.5 151z M303 1339q25 47 41 72.5t41 55.5t54.5 43.5t66.5 13.5q45 0 97.5 -25t98 -49.5t72.5 -24.5q26 0 49 18.5t54 76.5l106 -47q-21 -44 -38.5 -73t-42 -57.5t-55 -42.5t-67.5 -14q-45 0 -97.5 24.5t-98 49t-72.5 24.5q-25 0 -47.5 -18t-54.5 -76z" />
<glyph horiz-adv-x="1107" d="M113 788v861h166l276 -549l279 549h163v-861h-159v615l-236 -471h-94l-234 467v-611h-161z" />
<glyph horiz-adv-x="1107" d="M113 -307v860h166l276 -549l279 549h163v-860h-159v614l-236 -471h-94l-234 467v-610h-161z" />
<glyph horiz-adv-x="1355" d="M92 281v151h250l51 309h-223v152h248l47 283h158l-48 -283h308l47 283h155l-47 -283h226v-152h-250l-51 -309h225v-151h-252l-45 -281h-156l45 281h-307l-45 -281h-158l45 281h-223zM500 432h307l51 309h-307z" />
<glyph horiz-adv-x="968" d="M57 12h181l34 221h-159v117h180l33 203h120l-32 -203h215l33 203h118l-32 -203h159v-117h-180l-35 -221h162v-116h-180l-33 -203h-121l33 203h-213l-33 -203h-123l33 203h-160v116zM358 12h215l35 221h-215z" />
<glyph horiz-adv-x="968" d="M57 991v117h181l34 221h-159v117h180l33 203h120l-32 -203h215l33 203h118l-32 -203h159v-117h-180l-35 -221h162v-117h-180l-33 -203h-121l33 203h-213l-33 -203h-123l33 203h-160zM358 1108h215l35 221h-215z" />
<glyph horiz-adv-x="1536" d="M164 0v1176h213l391 -766l391 766h211v-1176h-205v868l-340 -671h-114l-342 675v-872h-205z" />
<glyph horiz-adv-x="737" d="M113 788v861h161v-725h435v-136h-596z" />
<glyph horiz-adv-x="1038" d="M53 356v185l129 67v568h205v-459l242 129v-184l-242 -130v-358h606v-174h-811v424z" />
<glyph horiz-adv-x="737" d="M113 -307v860h161v-725h435v-135h-596z" />
<glyph horiz-adv-x="1024" d="M164 0v1176h205v-1002h606v-174h-811zM686 518v207h193v-207h-193z" />
<glyph horiz-adv-x="1019" d="M164 0v1176h205v-1002h606v-174h-811zM457 -514l96 176h-84v213h184l17 -227l-158 -221z" />
<glyph horiz-adv-x="1271" d="M47 1176h236l352 -971l354 971h236l-477 -1176h-226z" />
<glyph horiz-adv-x="1019" d="M164 0v1176h205v-1002h606v-174h-811zM446 786l97 177h-84v213h184l16 -228l-157 -221z" />
<glyph horiz-adv-x="1021" d="M92 1272l254 272h266l-344 -272h-176zM166 0v1176h205v-1002h606v-174h-811z" />
<glyph horiz-adv-x="800" d="M63 14q0 160 87.5 249t250.5 89q161 0 248.5 -89t87.5 -249q0 -159 -87 -247.5t-249 -88.5q-163 0 -250.5 89t-87.5 247zM219 14q0 -215 182 -215q181 0 181 215q0 217 -181 217q-182 0 -182 -217z" />
<glyph horiz-adv-x="1019" d="M164 0v1176h205v-1002h606v-174h-811z" />
<glyph horiz-adv-x="886" d="M113 788v861h161v-437l379 437h193l-367 -408l395 -453h-190l-301 349l-109 -123v-226h-161z" />
<glyph horiz-adv-x="557" d="M37 735l233 125h152v-860h-162v709l-158 -78z" />
<glyph horiz-adv-x="557" d="M37 1309l233 125h152v-861h-162v709l-158 -78z" />
<glyph horiz-adv-x="772" d="M39 977l360 199h205v-1176h-221v963l-254 -134z" />
<glyph horiz-adv-x="909" d="M23 553h184l248 -700l247 700h185l-342 -860h-178z" />
<glyph horiz-adv-x="909" d="M23 1649h184l248 -701l247 701h185l-342 -861h-178z" />
<glyph horiz-adv-x="1542" d="M59 1073l201 103h123v-705h-131v582l-137 -66zM299 0l594 1176h141l-592 -1176h-143zM831 186q0 127 181 197q-135 66 -135 162q0 77 72 124.5t190 47.5q119 0 189.5 -47.5t70.5 -124.5q0 -101 -133 -162q180 -70 180 -197q0 -91 -84.5 -144.5t-222.5 -53.5t-223 53.5 t-85 144.5zM965 195q0 -48 50 -77.5t124 -29.5q75 0 124.5 29t49.5 78q0 48 -48 80.5t-128 60.5q-79 -29 -125.5 -61.5t-46.5 -79.5zM1008 528q0 -27 21.5 -49t46 -33t61.5 -22q131 41 131 104q0 37 -36.5 65t-92.5 28q-57 0 -94 -28t-37 -65z" />
<glyph horiz-adv-x="1536" d="M59 1073l201 103h123v-705h-131v582l-137 -66zM299 0l594 1176h141l-592 -1176h-143zM860 70l62 94q32 -21 87.5 -42.5t112.5 -21.5q73 0 122.5 34.5t49.5 92.5q0 52 -44 88.5t-122 36.5q-86 0 -161 -43l-72 43l41 353h463v-107h-355l-14 -162q65 21 127 21 q127 0 200 -67t73 -163q0 -99 -75.5 -169t-213.5 -70q-132 0 -281 82z" />
<glyph horiz-adv-x="886" d="M113 -307v860h161v-436l379 436h193l-367 -408l395 -452h-190l-301 348l-109 -121v-227h-161z" />
<glyph horiz-adv-x="1536" d="M59 1073l201 103h123v-705h-131v582l-137 -66zM299 0l594 1176h141l-592 -1176h-143zM868 0v66q0 42 15.5 80t35 64t58 56.5t64 46.5t73.5 45q106 62 133 85q45 38 45 79q0 37 -35.5 61.5t-97.5 24.5q-57 0 -115.5 -20t-95.5 -45l-59 86q141 88 287 88q117 0 184 -53.5 t67 -137.5q0 -20 -4.5 -39.5t-10 -34.5t-19.5 -32.5t-22.5 -28.5t-29.5 -27t-30.5 -24t-36 -23.5t-35 -20.5t-38.5 -21.5t-36 -20.5q-73 -39 -107 -70.5t-34 -74.5h406v-109h-562z" />
<glyph horiz-adv-x="1738" d="M66 1176h231l235 -934l252 934h172l252 -934l236 934h231l-346 -1176h-209l-250 907l-247 -907h-211z" />
<glyph horiz-adv-x="1222" d="M164 0v1176h205v-613l536 613h250l-506 -558l549 -618h-246l-426 483l-157 -174v-309h-205zM506 -514l96 176h-84v213h184l17 -227l-158 -221z" />
<glyph horiz-adv-x="1499" d="M59 1073l201 103h123v-705h-131v582l-137 -66zM299 0l594 1176h141l-592 -1176h-143zM752 143v93l366 469h176v-455h121v-107h-121v-143h-133v143h-409zM895 250h266v350z" />
<glyph horiz-adv-x="1495" d="M59 1073l201 103h123v-705h-131v582l-137 -66zM299 0l594 1176h141l-592 -1176h-143zM801 301q0 179 120.5 297.5t311.5 118.5q29 0 57.5 -3t41.5 -6l14 -3l-31 -101q-37 8 -80 8q-108 0 -187 -58t-106 -169q78 68 199 68q116 0 185 -63t69 -159q0 -102 -78.5 -172.5 t-210.5 -70.5q-150 0 -227.5 89t-77.5 224zM932 274q3 -85 50.5 -132.5t121.5 -47.5q76 0 118 40.5t42 92.5t-40.5 89.5t-113.5 37.5q-61 0 -109 -25t-69 -55z" />
<glyph horiz-adv-x="1222" d="M164 0v1176h205v-613l536 613h250l-506 -558l549 -618h-246l-426 483l-157 -174v-309h-205z" />
<glyph horiz-adv-x="1738" d="M66 1176h231l235 -934l252 934h172l252 -934l236 934h231l-346 -1176h-209l-250 907l-247 -907h-211zM692 1272l254 272h266l-344 -272h-176z" />
<glyph horiz-adv-x="1525" d="M59 1073l201 103h123v-705h-131v582l-137 -66zM299 0l594 1176h141l-592 -1176h-143zM844 70l59 90q118 -64 230 -64q71 0 116 29.5t45 79.5q0 34 -22 58.5t-59 37t-75 18t-79 5.5h-35v110h43q49 0 90.5 8t73 30.5t31.5 57.5q0 37 -33 57.5t-92 20.5q-97 0 -203 -59 l-53 82q21 16 51.5 32.5t94 35t128.5 18.5q114 0 176 -48.5t62 -119.5q0 -112 -142 -160q78 -19 127 -69t49 -117q0 -89 -70 -152t-210 -63q-150 0 -303 82z" />
<glyph horiz-adv-x="391" d="M-31 702q39 12 64 21t43 20.5t26.5 18.5t13 23.5t5 28t0.5 38.5v797h160v-791q0 -33 -0.5 -48.5t-2.5 -41t-7 -38t-13.5 -31t-22 -29t-32.5 -24t-45.5 -23t-60.5 -19.5t-77 -20z" />
<glyph horiz-adv-x="391" d="M-31 -393q47 15 74.5 26.5t44.5 21t23.5 26.5t8 30t1.5 45v797h160v-791q0 -33 -0.5 -48.5t-2.5 -41t-7 -38t-13.5 -31t-22 -29t-32.5 -24t-45.5 -23t-60.5 -19.5t-77 -20z" />
<glyph horiz-adv-x="548" d="M-47 1272l207 272h225l209 -272h-154l-168 168l-166 -168h-153zM-37 -121q41 13 69 22.5t51.5 21t37.5 18t25 20.5t15.5 22t7 27.5t3 32t0.5 41.5v1092h205v-1084q0 -66 -1.5 -95t-11 -73t-30.5 -65t-59.5 -48.5t-97.5 -46t-146 -38.5z" />
<glyph horiz-adv-x="544" d="M-35 -121q41 13 69 22.5t51.5 21t37.5 18t25 20.5t15.5 22t7 27.5t3 32t0.5 41.5v1092h205v-1084q0 -66 -1.5 -95t-11 -73t-30.5 -65t-59.5 -48.5t-97.5 -46t-146 -38.5z" />
<glyph horiz-adv-x="1161" d="M98 133l95 148q152 -85 323 -119v356l-47 17q-58 19 -98.5 35t-90.5 45t-80.5 61.5t-51.5 81.5t-21 108q0 143 106 230.5t283 95.5v154h148v-160q194 -27 362 -109l-94 -149q-123 57 -268 82v-328l32 -10q42 -14 72.5 -25.5t72.5 -30.5t71.5 -38t61 -46.5t51 -58 t32 -70.5t12.5 -86q0 -147 -113.5 -236t-291.5 -97v-152h-148v158q-227 32 -418 143zM340 877q0 -55 43.5 -87.5t132.5 -62.5v293q-77 -6 -126.5 -42.5t-49.5 -100.5zM664 152q82 8 137 46.5t55 106.5q0 57 -48.5 94t-143.5 70v-317z" />
<glyph horiz-adv-x="550" d="M-68 1339q25 47 41 72.5t41 55.5t54.5 43.5t66.5 13.5q45 0 97.5 -25t98 -49.5t72.5 -24.5q26 0 49 18.5t54 76.5l106 -47q-44 -92 -88.5 -139.5t-113.5 -47.5q-45 0 -98 24.5t-98.5 49t-72.5 24.5q-25 0 -47.5 -18t-54.5 -76zM172 0v1176h205v-1176h-205z" />
<glyph horiz-adv-x="385" d="M113 788v861h161v-861h-161z" />
<glyph horiz-adv-x="544" d="M18 -217q0 122 203 217h-49v1176h205v-1176h-6q-34 -20 -43 -25t-41.5 -25.5t-45.5 -33t-33 -32.5t-28 -39.5t-8 -39.5q0 -18 5.5 -31t17.5 -21t22.5 -13t30 -6.5t29 -2t30.5 0t25 0.5l-23 -113q-125 0 -185 22q-106 38 -106 142z" />
<glyph horiz-adv-x="1216" d="M68 791q0 194 120.5 289.5t343.5 95.5h168v-1487h-172v719q-208 0 -334 97t-126 286zM877 -313v1489h172v-1489h-172z" />
<glyph horiz-adv-x="550" d="M-31 1323v135h609v-135h-609zM172 0v1176h205v-1176h-205z" />
<glyph horiz-adv-x="614" d="M143 119v930q0 37 0.5 57.5t3 50t7 45.5t13.5 38.5t21.5 35.5t31.5 30.5t44 29t58.5 25t74.5 25t92 23.5l54 -117q-49 -16 -80.5 -27.5t-54.5 -26.5t-34 -26.5t-17.5 -33.5t-7.5 -39.5t-1 -53.5v-1003q0 -35 1 -53t7.5 -39.5t17.5 -33t34 -26t54.5 -26.5t80.5 -27 l-54 -117q-51 12 -92 23.5t-74.5 25t-58.5 25t-44 29t-31.5 30.5t-21.5 35.5t-13.5 38.5t-7 45t-3 49.5t-0.5 57.5z" />
<glyph horiz-adv-x="1738" d="M66 1176h231l235 -934l252 934h172l252 -934l236 934h231l-346 -1176h-209l-250 907l-247 -907h-211zM551 1272l207 272h225l209 -272h-154l-168 168l-165 -168h-154z" />
<glyph horiz-adv-x="806" d="M63 14q0 167 72.5 252.5t190.5 85.5q121 0 231 -90v326h154v-895h-154v76q-106 -91 -231 -91q-118 0 -190.5 86t-72.5 250zM221 14q0 -102 38 -156.5t110 -54.5q104 0 188 91v243q-83 90 -188 90q-72 0 -110 -55t-38 -158z" />
<glyph horiz-adv-x="385" d="M113 -307v860h161v-860h-161z" />
<glyph horiz-adv-x="614" d="M72 -123q49 16 80.5 27.5t54 26.5t33.5 26t17.5 33.5t7.5 40t1 53.5v1003q0 36 -1 53t-7 39t-17.5 33.5t-34 26t-54 26.5t-80.5 27l53 117q51 -12 92 -23.5t74.5 -25t58.5 -25t44 -28.5t31.5 -30.5t21.5 -35.5t13.5 -38t7 -45t3 -49.5t0.5 -57.5v-930q0 -37 -0.5 -57.5 t-3 -50t-7 -45.5t-13.5 -39t-21.5 -36t-31.5 -30.5t-44 -29t-58.5 -25t-74.5 -25t-92 -23.5z" />
<glyph horiz-adv-x="1738" d="M66 1176h231l235 -934l252 934h172l252 -934l236 934h231l-346 -1176h-209l-250 907l-247 -907h-211zM598 1292v207h193v-207h-193zM952 1292v207h191v-207h-191z" />
<glyph horiz-adv-x="1738" d="M66 1176h231l235 -934l252 934h172l252 -934l236 934h231l-346 -1176h-209l-250 907l-247 -907h-211zM526 1544h267l254 -272h-175z" />
<glyph horiz-adv-x="1255" d="M39 553h182l160 -662l180 662h135l176 -662l162 662h183l-252 -860h-162l-176 645l-174 -645h-164z" />
<glyph horiz-adv-x="544" d="M-70 1544h267l254 -272h-175zM172 0v1176h205v-1176h-205z" />
<glyph horiz-adv-x="1800" d="M78 879q0 150 89.5 232.5t244.5 82.5q153 0 242 -82.5t89 -232.5q0 -149 -89 -231.5t-242 -82.5q-154 0 -244 82.5t-90 231.5zM233 879q0 -91 47.5 -140t131.5 -49q83 0 130.5 49t47.5 140q0 90 -47.5 140t-130.5 50q-84 0 -131.5 -50t-47.5 -140zM494 0l649 1176h162 l-650 -1176h-161zM1055 295q0 150 89.5 232.5t244.5 82.5q153 0 242 -82.5t89 -232.5q0 -149 -89 -231t-242 -82q-154 0 -244 82t-90 231zM1210 295q0 -90 47 -138t132 -48q83 0 129.5 48t46.5 138q0 91 -46.5 140.5t-129.5 49.5q-85 0 -132 -49t-47 -141z" />
<glyph horiz-adv-x="1302" d="M53 336q0 110 64 170.5t178 60.5q115 0 180.5 -61t65.5 -170t-65.5 -169.5t-180.5 -60.5q-114 0 -178 60t-64 170zM174 336q0 -133 121 -133q61 0 93 34t32 99q0 66 -32.5 100.5t-92.5 34.5q-59 0 -90 -34.5t-31 -100.5zM346 -322l477 875h127l-479 -875h-125zM762 -90 q0 109 64.5 169t179.5 60q114 0 177.5 -59.5t63.5 -169.5q0 -112 -63 -172t-178 -60t-179.5 60t-64.5 172zM883 -90q0 -66 32 -100.5t91 -34.5q122 0 122 135q0 133 -122 133q-59 0 -91 -34t-32 -99z" />
<glyph horiz-adv-x="1863" d="M59 915v160h150v96q0 302 303 302q103 0 229 -23.5t215 -50.5q75 94 250 94q106 0 233 -25t214 -51l-76 -153q-12 2 -65 11.5t-95 16.5t-94.5 13t-83.5 6q-57 0 -95 -26t-38 -85v-125h631v-1093q0 -76 -1.5 -110.5t-12.5 -85t-33.5 -74.5t-65 -56t-107.5 -54t-161 -46 l-70 157q64 21 101.5 34.5t67 32.5t42 31t20 40.5t8.5 49t1 68.5v946h-420v-915h-211v915h-477v-915h-209v915h-150zM418 1075h477v117q0 33 2 49q-266 49 -352 49q-55 0 -91 -25.5t-36 -84.5v-105z" />
<glyph horiz-adv-x="544" d="M-2 1292v207h192v-207h-192zM168 0v1176h205v-1176h-205zM352 1292v207h191v-207h-191z" />
<glyph horiz-adv-x="546" d="M-47 1272l207 272h225l209 -272h-154l-168 168l-166 -168h-153zM170 0v1176h205v-1176h-205z" />
<glyph horiz-adv-x="1255" d="M39 1649h182l160 -662l180 662h135l176 -662l162 662h183l-252 -861h-162l-176 646l-174 -646h-164z" />
<glyph horiz-adv-x="690" d="M63 1112q0 161 88 248.5t214 87.5q53 0 118 -18.5t93 -31.5t79 -38l-67 -113l-37 18.5t-54 25.5t-52.5 17t-59.5 9q-72 0 -118 -56.5t-46 -148.5q0 -94 45.5 -150.5t118.5 -56.5q72 0 203 70l67 -113q-51 -25 -79 -38t-93 -31.5t-118 -18.5q-60 0 -113.5 21t-96 61.5 t-67.5 106.5t-25 149z" />
<glyph horiz-adv-x="1482" d="M104 588q0 128 41 238t117.5 192t193.5 129t261 47q143 0 259 -47t191 -129t115.5 -192t40.5 -238t-40.5 -238t-115.5 -192t-191 -129t-259 -47q-144 0 -261 47t-193.5 129t-117.5 192t-41 238zM174 588q0 -237 143.5 -390t397.5 -153q169 0 293.5 72.5t186.5 194.5 t62 276t-62 275.5t-186.5 194t-293.5 72.5q-170 0 -294.5 -72.5t-185.5 -194t-61 -275.5zM406 586q0 174 85.5 270t213.5 96q60 0 119 -19t90 -37t75 -48l-53 -60q-36 27 -58 41.5t-71.5 32t-99.5 17.5q-95 0 -154 -80.5t-59 -212.5q0 -130 59 -209.5t154 -79.5 q50 0 98.5 16.5t73 31.5t57.5 40l53 -59q-44 -30 -74.5 -48t-90.5 -37.5t-119 -19.5q-128 0 -213.5 96t-85.5 269z" />
<glyph horiz-adv-x="2568" d="M78 879q0 150 89.5 232.5t244.5 82.5q153 0 242 -82.5t89 -232.5q0 -149 -89 -231.5t-242 -82.5q-154 0 -244 82.5t-90 231.5zM233 879q0 -91 47.5 -140t131.5 -49q83 0 130.5 49t47.5 140q0 90 -47.5 140t-130.5 50q-84 0 -131.5 -50t-47.5 -140zM494 0l649 1176h162 l-650 -1176h-161zM1055 295q0 150 89.5 232.5t244.5 82.5q153 0 242 -82.5t89 -232.5q0 -149 -89 -231t-242 -82q-154 0 -244 82t-90 231zM1210 295q0 -90 47 -138t132 -48q83 0 129.5 48t46.5 138q0 91 -46.5 140.5t-129.5 49.5q-85 0 -132 -49t-47 -141zM1823 295 q0 150 90 232.5t246 82.5q154 0 242.5 -82.5t88.5 -232.5q0 -149 -88.5 -231t-242.5 -82q-156 0 -246 82t-90 231zM1980 295q0 -90 47 -138t132 -48q84 0 130 48t46 138q0 92 -46 141t-130 49q-85 0 -132 -49t-47 -141z" />
<glyph horiz-adv-x="1165" d="M37 0l422 590l-400 586h236l285 -474l286 474h240l-404 -586l426 -590h-245l-301 459l-301 -459h-244z" />
<glyph horiz-adv-x="1251" d="M127 766v74h51v336h479q217 0 341.5 -82t136.5 -254h49v-74h-49q-13 -169 -138 -250.5t-340 -81.5h-274v-434h-205v766h-51zM383 604h268q249 0 273 162h-541v-162zM383 840h543q-24 164 -275 164h-268v-164z" />
<glyph horiz-adv-x="909" d="M86 248v61h39v244h354q159 0 249 -60.5t99 -183.5h37v-61h-37q-17 -240 -348 -240h-192v-315h-162v555h-39zM287 137h186q173 0 191 111h-377v-111zM287 309h377q-18 111 -191 111h-186v-111z" />
<glyph horiz-adv-x="909" d="M86 1343v62h39v244h354q159 0 249 -60.5t99 -183.5h37v-62h-37q-17 -239 -348 -239h-192v-316h-162v555h-39zM287 1233h186q173 0 191 110h-377v-110zM287 1405h377q-18 111 -191 111h-186v-111z" />
<glyph horiz-adv-x="845" d="M23 -307l305 430l-289 430h184l199 -338l203 338h184l-291 -430l307 -430h-192l-209 330l-211 -330h-190z" />
<glyph horiz-adv-x="806" d="M96 338h156v-76q110 90 231 90q118 0 189 -85.5t71 -252.5q0 -164 -71.5 -250t-188.5 -86q-122 0 -231 89v-324h-156v895zM252 -106q84 -91 190 -91q72 0 109 54.5t37 156.5q0 103 -37 158t-109 55q-107 0 -190 -90v-243z" />
<glyph horiz-adv-x="548" d="M-35 1503h144q0 -102 161 -102q168 0 168 102h142q0 -107 -82 -169t-228 -62q-144 0 -224.5 62t-80.5 169zM170 0v1176h205v-1176h-205z" />
<glyph horiz-adv-x="544" d="M92 1272l254 272h266l-344 -272h-176zM168 0v1176h205v-1176h-205z" />
<glyph horiz-adv-x="352" d="M92 788v185h166v-185h-166zM92 1186v184h166v-184h-166z" />
<glyph horiz-adv-x="735" d="M78 1219q0 162 87.5 248.5t213.5 86.5h14l23 95h80l-27 -105q19 -3 41 -10l29 115h75l-34 -140q25 -9 96 -43l-68 -112q-26 15 -59 28l-88 -360q21 5 45 14t36.5 15t38 18.5t27.5 13.5l68 -114q-2 -1 -17 -8t-20 -9.5t-20.5 -9.5t-23.5 -10t-24 -9.5t-27 -10t-27 -8.5 t-29.5 -8t-29 -6t-30.5 -5l-22 -97h-78l22 95l-41 6l-24 -101h-76l31 127q-74 37 -118 114.5t-44 189.5zM236 1219q0 -94 40 -146l84 344q-57 -14 -90.5 -66.5t-33.5 -131.5zM342 1024q12 -6 41 -10l96 395q-22 7 -41 10z" />
<glyph horiz-adv-x="806" d="M96 539v895h156v-76q110 90 231 90q118 0 189 -85.5t71 -252.5q0 -164 -71.5 -250t-188.5 -86q-123 0 -231 88v-323h-156zM252 989q83 -90 190 -90q72 0 109 54.5t37 156.5q0 103 -37 158t-109 55q-107 0 -190 -90v-244z" />
<glyph horiz-adv-x="1083" d="M164 0v1176h205v-1176h-205zM481 -121q41 13 69 22.5t51.5 21t37.5 18t25 20.5t15.5 22t7 27.5t3 32t0.5 41.5v1092h205v-1084q0 -66 -1.5 -95t-11 -73t-30.5 -65t-59.5 -48.5t-97.5 -46t-146 -38.5z" />
<glyph horiz-adv-x="806" d="M63 14q0 167 72.5 252.5t190.5 85.5q123 0 231 -92v78h154v-895h-154v326q-106 -91 -231 -91q-118 0 -190.5 86t-72.5 250zM221 14q0 -102 38 -156.5t110 -54.5q104 0 188 91v243q-83 90 -188 90q-72 0 -110 -55t-38 -158z" />
<glyph horiz-adv-x="806" d="M63 1110q0 167 72.5 252.5t190.5 85.5q123 0 231 -92v78h154v-895h-154v325q-105 -90 -231 -90q-118 0 -190.5 86t-72.5 250zM221 1110q0 -102 38 -156.5t110 -54.5q105 0 188 90v244q-83 90 -188 90q-72 0 -110 -55t-38 -158z" />
<glyph horiz-adv-x="534" d="M164 0v1176h205v-1176h-205z" />
<glyph horiz-adv-x="944" d="M59 1065q211 129 418 129q107 0 194 -34t140 -102.5t53 -160.5q0 -60 -22 -111t-58 -87t-89 -66.5t-107.5 -50.5t-122.5 -37l-12 -178h-134l-14 286q91 18 151 36t108 43t70.5 58t22.5 78q0 69 -58 111.5t-150 42.5q-131 0 -299 -94zM279 0v229h215v-229h-215z" />
<glyph horiz-adv-x="942" d="M113 788v861h161v-342h396v342h161v-861h-161v386h-396v-386h-161z" />
<glyph horiz-adv-x="946" d="M80 279q0 60 22 111t58 87t89 66.5t107.5 50.5t122.5 37l13 178h133l14 -287q-91 -18 -151 -36t-108 -43t-70.5 -58t-22.5 -78q0 -69 58 -111t151 -42q131 0 299 94l90 -137q-211 -129 -418 -129q-107 0 -194 34t-140 102.5t-53 160.5zM451 946v230h215v-230h-215z" />
<glyph horiz-adv-x="686" d="M55 -102q0 56 23.5 99.5t66.5 73.5t91.5 50t111.5 35l8 127h101l12 -209q-133 -27 -192.5 -60t-59.5 -94q0 -48 40 -78t105 -30q97 0 213 69l70 -106q-158 -97 -305 -97q-121 0 -203 59.5t-82 160.5zM324 381v172h168v-172h-168z" />
<glyph horiz-adv-x="686" d="M55 993q0 56 23.5 99.5t66.5 73.5t91.5 50t111.5 35l8 127h101l12 -209q-133 -27 -192.5 -59.5t-59.5 -93.5q0 -48 40 -78.5t105 -30.5q95 0 213 70l70 -107q-156 -96 -305 -96q-122 0 -203.5 59t-81.5 160zM324 1477v172h168v-172h-168z" />
<glyph horiz-adv-x="688" d="M45 471q156 96 305 96q122 0 203.5 -59t81.5 -160q0 -56 -23.5 -99.5t-66.5 -73.5t-91.5 -50t-111.5 -35l-8 -127h-101l-12 209q133 27 192.5 60t59.5 94q0 48 -40 78t-105 30q-97 0 -213 -69zM199 -135h168v-172h-168v172z" />
<glyph horiz-adv-x="688" d="M45 1567q156 96 305 96q122 0 203.5 -59t81.5 -160q0 -56 -23.5 -99.5t-66.5 -73.5t-91.5 -50t-111.5 -35l-8 -127h-101l-12 209q133 27 192.5 59.5t59.5 93.5q0 48 -40 78.5t-105 30.5q-95 0 -213 -70zM199 788v173h168v-173h-168z" />
<glyph horiz-adv-x="942" d="M113 -307v860h161v-342h396v342h161v-860h-161v385h-396v-385h-161z" />
<glyph horiz-adv-x="735" d="M78 123q0 162 87.5 249t213.5 87h14l23 94h80l-27 -104q14 -2 41 -11l29 115h75l-34 -139q25 -9 96 -43l-68 -113q-32 18 -59 29l-88 -361q21 5 44.5 14t38 15.5t37 18.5t27.5 14l68 -115q-2 -1 -17 -8t-20 -9.5t-20.5 -9.5t-23.5 -10t-24 -9.5t-27 -10t-27 -8.5 t-29.5 -8t-29 -6t-30.5 -5l-22 -96h-78l22 94l-41 6l-24 -100h-76l31 127q-74 37 -118 114t-44 189zM236 123q0 -94 40 -146l84 345q-57 -14 -90.5 -67t-33.5 -132zM342 -72q12 -6 41 -10l96 395q-27 9 -41 11z" />
<glyph horiz-adv-x="1021" d="M109 590q0 113 34 202.5t92 144.5t131.5 83.5t155.5 28.5h21l30 127h103l-35 -142q37 -7 59 -14l37 156h101l-45 -189q42 -16 131 -59l-84 -146q-7 3 -37.5 18t-50.5 23l-123 -516q82 20 211 88l84 -145q-196 -101 -338 -117l-31 -133h-102l30 129q-24 3 -57 10l-33 -139 h-100l41 170q-103 50 -164 157t-61 263zM309 590q0 -139 72 -221l121 508q-87 -17 -140 -94t-53 -193zM467 309q27 -9 57 -12l138 563l-58 14z" />
<glyph horiz-adv-x="352" d="M92 90v184h166v-184h-166zM92 -123h166v-184h-166v184z" />
<glyph horiz-adv-x="845" d="M23 788l305 431l-289 430h184l199 -338l203 338h184l-291 -430l307 -431h-192l-209 330l-211 -330h-190z" />
<glyph horiz-adv-x="692" d="M63 16q0 161 88 248.5t214 87.5q53 0 118 -18.5t93 -31.5t79 -38l-67 -112q-6 3 -29.5 14.5t-40 19t-40.5 16.5t-47.5 14t-45.5 5q-72 0 -118 -56.5t-46 -148.5q0 -94 45.5 -150t118.5 -56q74 0 203 69l67 -112q-54 -27 -80 -39t-91.5 -31t-118.5 -19q-60 0 -113.5 21 t-96 61.5t-67.5 106.5t-25 149z" />
<glyph horiz-adv-x="1024" d="M109 590q0 108 31 194.5t85 141.5t122 85.5t147 35.5v129h145v-140q116 -25 285 -108l-84 -146q-8 4 -49.5 24.5t-78.5 35.5t-73 24v-557q75 22 201 86l84 -145q-163 -83 -285 -109v-141h-145v129q-78 5 -146.5 36t-122.5 86.5t-85 142.5t-31 196zM309 590 q0 -115 50.5 -191.5t134.5 -95.5v571q-84 -21 -134.5 -96.5t-50.5 -187.5z" />
<glyph horiz-adv-x="1339" d="M45 868v121h133v187h205v-187h567v187h205v-187h135v-121h-135v-868h-205v530h-567v-530h-205v868h-133zM383 702h567v166h-567v-166z" />
<glyph horiz-adv-x="1306" d="M164 0v1176h205v-474h567v474h205v-1176h-205v530h-567v-530h-205z" />
<glyph horiz-adv-x="923" d="M74 1219q0 219 102.5 331.5t265.5 112.5q101 0 191 -34.5t194 -96.5l-77 -117q-60 33 -95 51t-92 36t-104 18q-100 0 -159.5 -80.5t-59.5 -220.5q0 -141 58 -224.5t161 -83.5q101 0 229 105v131h-227v127h381v-486h-154v91q-133 -105 -262 -105q-71 0 -133.5 27 t-112 80.5t-78 140t-28.5 197.5z" />
<glyph horiz-adv-x="1183" d="M35 1176h231l324 -555l328 555h229l-453 -709v-467h-205v463z" />
<glyph horiz-adv-x="923" d="M74 123q0 219 102.5 331.5t265.5 112.5q101 0 191 -34.5t194 -96.5l-77 -117q-60 33 -95 51t-92 36t-104 18q-100 0 -159.5 -80.5t-59.5 -220.5q0 -141 58 -224t161 -83t229 104v131h-227v127h381v-485h-154v90q-133 -105 -262 -105q-71 0 -133.5 27t-112 80.5t-78 140 t-28.5 197.5z" />
<glyph horiz-adv-x="1277" d="M104 588q0 152 39.5 270t109.5 190.5t160 109t197 36.5q139 0 265.5 -49t259.5 -131l-103 -150q-77 44 -126.5 69.5t-128.5 51t-144 25.5q-146 0 -231 -112.5t-85 -309.5q0 -198 83.5 -314t230.5 -116q149 0 327 149v189h-319v163h514v-659h-195v129q-176 -147 -366 -147 q-99 0 -185 36.5t-154.5 108t-108.5 190.5t-40 271zM532 1292v207h193v-207h-193z" />
<glyph horiz-adv-x="1277" d="M104 588q0 152 39.5 270t109.5 190.5t160 109t197 36.5q139 0 265.5 -49t259.5 -131l-103 -150q-77 44 -126.5 69.5t-128.5 51t-144 25.5q-146 0 -231 -112.5t-85 -309.5q0 -198 83.5 -314t230.5 -116q149 0 327 149v189h-319v163h514v-659h-195v129q-176 -147 -366 -147 q-99 0 -185 36.5t-154.5 108t-108.5 190.5t-40 271zM555 -514l96 176h-84v213h185l16 -227l-158 -221z" />
<glyph horiz-adv-x="536" d="M96 -307v645h156v-137q7 17 21.5 38t43.5 49.5t79 45t110 12.5v-145q-47 0 -86 -11.5t-64.5 -29.5t-45.5 -40t-30.5 -43.5t-17 -39.5t-8.5 -29l-2 -12v-303h-156z" />
<glyph horiz-adv-x="1183" d="M35 1176h231l324 -555l328 555h229l-453 -709v-467h-205v463zM416 1272l254 272h266l-344 -272h-176z" />
<glyph horiz-adv-x="1183" d="M35 1176h231l324 -555l328 555h229l-453 -709v-467h-205v463zM319 1292v207h193v-207h-193zM674 1292v207h190v-207h-190z" />
<glyph horiz-adv-x="1277" d="M104 588q0 152 39.5 270t109.5 190.5t160 109t197 36.5q139 0 265.5 -49t259.5 -131l-103 -150q-77 44 -126.5 69.5t-128.5 51t-144 25.5q-146 0 -231 -112.5t-85 -309.5q0 -198 83.5 -314t230.5 -116q149 0 327 149v189h-319v163h514v-659h-195v129q-176 -147 -366 -147 q-99 0 -185 36.5t-154.5 108t-108.5 190.5t-40 271zM322 1503h143q0 -102 162 -102q168 0 168 102h141q0 -107 -81.5 -169t-227.5 -62q-144 0 -224.5 62t-80.5 169z" />
<glyph horiz-adv-x="2318" d="M80 111l90 155q89 -48 203.5 -84.5t201.5 -36.5q83 0 142 35t59 96q0 26 -11.5 49t-34.5 40t-48 31t-60.5 26t-64 20t-65.5 18q-18 5 -27 7q-59 16 -103 31t-96 43t-85.5 60.5t-56 82.5t-22.5 111q0 139 106.5 221t285.5 82q111 0 233 -33q-22 55 -22 121 q0 142 93.5 224.5t262.5 82.5h369v-561q236 166 434 166q85 0 146.5 -25t96.5 -72t51.5 -105t16.5 -132v-764h-211v721q0 98 -38 152.5t-132 54.5q-92 0 -195 -52.5t-169 -111.5v-764h-211v1386h-166q-110 0 -173 -59.5t-63 -163.5q0 -81 39 -139l86 -37l-90 -145 q-83 37 -179.5 63.5t-170.5 26.5q-84 0 -136.5 -33.5t-52.5 -93.5q0 -24 8.5 -44.5t28.5 -36.5t37 -27.5t51 -23t52 -17t58 -16t52 -13.5q72 -19 126 -39t105 -49t84 -63.5t52.5 -82.5t19.5 -106q0 -149 -113.5 -229.5t-291.5 -80.5q-131 0 -266.5 40.5t-235.5 93.5z" />
<glyph horiz-adv-x="2177" d="M80 111l90 155q89 -48 203.5 -84.5t201.5 -36.5q83 0 142 35t59 96q0 26 -11.5 49t-34.5 40t-48 31t-60.5 26t-64 20t-65.5 18q-18 5 -27 7q-59 16 -103 31t-96 43t-85.5 60.5t-56 82.5t-22.5 111q0 139 106.5 221t285.5 82q111 0 233 -33q-22 55 -22 121 q0 142 93.5 224.5t262.5 82.5h369v-948l413 530h246l-363 -430l428 -645h-229l-326 494l-169 -201v-293h-211v1386h-166q-110 0 -173 -59.5t-63 -163.5q0 -81 39 -139l86 -37l-90 -145q-83 37 -179.5 63.5t-170.5 26.5q-84 0 -136.5 -33.5t-52.5 -93.5q0 -24 8.5 -44.5 t28.5 -36.5t37 -27.5t51 -23t52 -17t58 -16t52 -13.5q72 -19 126 -39t105 -49t84 -63.5t52.5 -82.5t19.5 -106q0 -149 -113.5 -229.5t-291.5 -80.5q-131 0 -266.5 40.5t-235.5 93.5z" />
</font>
</defs>
</svg>
