<?xml version="1.0" standalone="no"?>
<!DOCTYPE svg PUBLIC "-//W3C//DTD SVG 1.1//EN" "http://www.w3.org/Graphics/SVG/1.1/DTD/svg11.dtd" >
<svg xmlns="http://www.w3.org/2000/svg">
<metadata></metadata>
<defs>
<font id="verbultra_italic" horiz-adv-x="1314" >
<font-face units-per-em="2048" ascent="1638" descent="-410" />
<missing-glyph horiz-adv-x="573" />
<glyph unicode="ff" horiz-adv-x="1722" d="M-199 -174q67 21 107 36t74 35t50.5 35.5t31 46.5t21.5 59t17 81l117 653h-143l53 303h143q19 106 48.5 181t77 129.5t117 81t163.5 26.5q208 0 436 -129l-158 -234q-119 37 -176 37q-11 0 -20 -2t-23.5 -9.5t-25.5 -27.5t-17 -51v-2h209l-53 -303h-211l-111 -618 q-39 -209 -67 -285q-48 -134 -154 -207q-128 -90 -418 -149zM647 -174q67 21 107 36t74 35t50.5 35.5t31 46.5t21.5 59t17 81l117 653h-143l53 303h143q19 106 48.5 181t77 129.5t117 81t163.5 26.5q208 0 436 -129l-178 -234q-103 37 -156 37q-11 0 -20 -2t-23.5 -9.5 t-25.5 -27.5t-17 -51v-2h240l-54 -303h-241l-111 -618q-39 -209 -67 -285q-48 -134 -154 -207q-128 -90 -418 -149z" />
<glyph unicode="fi" horiz-adv-x="1499" d="M-199 -174q67 21 107 36t74 35t50.5 35.5t31 46.5t21.5 59t17 81l117 653h-143l51 303h145q19 106 48.5 181t77 129.5t117 81t163.5 26.5q85 0 181.5 -32.5t170.5 -71.5l-133 -246q-74 24 -117 24q-11 0 -20 -2t-23.5 -9.5t-25.5 -27.5t-17 -51v-2h240l-53 -303h-242 l-111 -618q-39 -209 -67 -285q-48 -134 -154 -207q-128 -90 -418 -149zM854 0l190 1075h420l-190 -1075h-420zM1057 1174l55 313h430l-55 -313h-430z" />
<glyph unicode="fl" horiz-adv-x="1499" d="M-199 -174q67 21 107 36t74 35t50.5 35.5t31 46.5t21.5 59t17 81l117 653h-143l51 303h145q19 106 48.5 181t77 129.5t117 81t163.5 26.5q85 0 181.5 -32.5t170.5 -71.5l-133 -246q-74 24 -117 24q-11 0 -20 -2t-23.5 -9.5t-25.5 -27.5t-17 -51v-2h240l-53 -303h-242 l-111 -618q-39 -209 -67 -285q-48 -134 -154 -207q-128 -90 -418 -149zM854 0l264 1493h420l-264 -1493h-420z" />
<glyph unicode="ffi" horiz-adv-x="2344" d="M-199 -174q67 21 107 36t74 35t50.5 35.5t31 46.5t21.5 59t17 81l117 653h-143l53 303h143q19 106 48.5 181t77 129.5t117 81t163.5 26.5q208 0 436 -129l-158 -234q-119 37 -176 37q-11 0 -20 -2t-23.5 -9.5t-25.5 -27.5t-17 -51v-2h209l-53 -303h-211l-111 -618 q-39 -209 -67 -285q-48 -134 -154 -207q-128 -90 -418 -149zM647 -174q67 21 107 36t74 35t50.5 35.5t31 46.5t21.5 59t17 81l117 653h-143l51 303h145q19 106 48.5 181t77 129.5t117 81t163.5 26.5q85 0 181.5 -32.5t170.5 -71.5l-133 -246q-74 24 -117 24q-11 0 -20 -2 t-23.5 -9.5t-25.5 -27.5t-17 -51v-2h240l-54 -303h-241l-111 -618q-39 -209 -67 -285q-48 -134 -154 -207q-128 -90 -418 -149zM1700 0l190 1075h420l-190 -1075h-420zM1903 1174l55 313h430l-55 -313h-430z" />
<glyph unicode="ffl" horiz-adv-x="2344" d="M-199 -174q67 21 107 36t74 35t50.5 35.5t31 46.5t21.5 59t17 81l117 653h-143l53 303h143q19 106 48.5 181t77 129.5t117 81t163.5 26.5q208 0 436 -129l-158 -234q-119 37 -176 37q-11 0 -20 -2t-23.5 -9.5t-25.5 -27.5t-17 -51v-2h209l-53 -303h-211l-111 -618 q-39 -209 -67 -285q-48 -134 -154 -207q-128 -90 -418 -149zM647 -174q67 21 107 36t74 35t50.5 35.5t31 46.5t21.5 59t17 81l117 653h-143l51 303h145q19 106 48.5 181t77 129.5t117 81t163.5 26.5q85 0 181.5 -32.5t170.5 -71.5l-133 -246q-74 24 -117 24q-11 0 -20 -2 t-23.5 -9.5t-25.5 -27.5t-17 -51v-2h240l-54 -303h-241l-111 -618q-39 -209 -67 -285q-48 -134 -154 -207q-128 -90 -418 -149zM1700 0l264 1493h420l-264 -1493h-420z" />
<glyph unicode="ffb" horiz-adv-x="3047" d="M-199 -174q67 21 107 36t74 35t50.5 35.5t31 46.5t21.5 59t17 81l117 653h-143l53 303h143q19 106 48.5 181t77 129.5t117 81t163.5 26.5q208 0 436 -129l-158 -234q-119 37 -176 37q-11 0 -20 -2t-23.5 -9.5t-25.5 -27.5t-17 -51v-2h209l-53 -303h-211l-111 -618 q-39 -209 -67 -285q-48 -134 -154 -207q-128 -90 -418 -149zM647 -174q67 21 107 36t74 35t50.5 35.5t31 46.5t21.5 59t17 81l117 653h-143l51 303h145q19 106 48.5 181t77 129.5t117 81t163.5 26.5q85 0 181.5 -32.5t170.5 -71.5l-133 -246q-74 24 -117 24q-11 0 -20 -2 t-23.5 -9.5t-25.5 -27.5t-17 -51v-2h240l-54 -303h-241l-111 -618q-39 -209 -67 -285q-48 -134 -154 -207q-128 -90 -418 -149zM1700 0l264 1493h420l-92 -516q187 121 356 121q54 0 102.5 -13t93.5 -44t77 -78t51.5 -119t19.5 -162q0 -316 -146 -510.5t-380 -194.5 q-58 0 -108.5 10.5t-94 32t-67 36.5t-60.5 42l-16 -98h-420zM2189 401q79 -90 170 -90q95 0 150 93.5t55 230.5q0 63 -27.5 97t-80.5 34q-56 0 -109 -29.5t-113 -81.5z" />
<glyph unicode="ffh" horiz-adv-x="3035" d="M-199 -174q67 21 107 36t74 35t50.5 35.5t31 46.5t21.5 59t17 81l117 653h-143l53 303h143q19 106 48.5 181t77 129.5t117 81t163.5 26.5q208 0 436 -129l-158 -234q-119 37 -176 37q-11 0 -20 -2t-23.5 -9.5t-25.5 -27.5t-17 -51v-2h209l-53 -303h-211l-111 -618 q-39 -209 -67 -285q-48 -134 -154 -207q-128 -90 -418 -149zM647 -174q67 21 107 36t74 35t50.5 35.5t31 46.5t21.5 59t17 81l117 653h-143l51 303h145q19 106 48.5 181t77 129.5t117 81t163.5 26.5q85 0 181.5 -32.5t170.5 -71.5l-133 -246q-74 24 -117 24q-11 0 -20 -2 t-23.5 -9.5t-25.5 -27.5t-17 -51v-2h240l-54 -303h-241l-111 -618q-39 -209 -67 -285q-48 -134 -154 -207q-128 -90 -418 -149zM1700 0l264 1493h420l-92 -520q195 125 368 125q186 0 263 -107t43 -297l-123 -694h-422l116 649q12 63 -1.5 95t-65.5 32t-114.5 -27.5 t-117.5 -72.5l-118 -676h-420z" />
<glyph unicode="fb" horiz-adv-x="2201" d="M-199 -174q67 21 107 36t74 35t50.5 35.5t31 46.5t21.5 59t17 81l117 653h-143l51 303h145q19 106 48.5 181t77 129.5t117 81t163.5 26.5q85 0 181.5 -32.5t170.5 -71.5l-133 -246q-74 24 -117 24q-11 0 -20 -2t-23.5 -9.5t-25.5 -27.5t-17 -51v-2h240l-53 -303h-242 l-111 -618q-39 -209 -67 -285q-48 -134 -154 -207q-128 -90 -418 -149zM854 0l264 1493h420l-92 -516q187 121 356 121q54 0 102.5 -13t93.5 -44t77 -78t51.5 -119t19.5 -162q0 -316 -146 -510.5t-380 -194.5q-58 0 -108.5 10.5t-94 32t-67 36.5t-60.5 42l-16 -98h-420z M1343 401q79 -90 170 -90q95 0 150 93.5t55 230.5q0 63 -27.5 97t-80.5 34q-56 0 -108.5 -29.5t-112.5 -81.5z" />
<glyph unicode="ffj" horiz-adv-x="2355" d="M-199 -174q67 21 107 36t74 35t50.5 35.5t31 46.5t21.5 59t17 81l117 653h-143l53 303h143q19 106 48.5 181t77 129.5t117 81t163.5 26.5q208 0 436 -129l-158 -234q-119 37 -176 37q-11 0 -20 -2t-23.5 -9.5t-25.5 -27.5t-17 -51v-2h209l-53 -303h-211l-111 -618 q-39 -209 -67 -285q-48 -134 -154 -207q-128 -90 -418 -149zM647 -174q67 21 107 36t74 35t50.5 35.5t31 46.5t21.5 59t17 81l117 653h-143l51 303h145q19 106 48.5 181t77 129.5t117 81t163.5 26.5q85 0 181.5 -32.5t170.5 -71.5l-133 -246q-74 24 -117 24q-11 0 -20 -2 t-23.5 -9.5t-25.5 -27.5t-17 -51v-2h240l-54 -303h-241l-111 -618q-39 -209 -67 -285q-48 -134 -154 -207q-128 -90 -418 -149zM1452 -174q66 21 106.5 35.5t73.5 31.5t49 29.5t28.5 35.5t17.5 42.5t12 56.5l180 1018h420l-174 -981q-32 -182 -59 -251q-47 -122 -158 -192 q-129 -81 -408 -138zM1931 1174l56 313h430l-56 -313h-430z" />
<glyph unicode="ffk" horiz-adv-x="2985" d="M-199 -174q67 21 107 36t74 35t50.5 35.5t31 46.5t21.5 59t17 81l117 653h-143l53 303h143q19 106 48.5 181t77 129.5t117 81t163.5 26.5q208 0 436 -129l-158 -234q-119 37 -176 37q-11 0 -20 -2t-23.5 -9.5t-25.5 -27.5t-17 -51v-2h209l-53 -303h-211l-111 -618 q-39 -209 -67 -285q-48 -134 -154 -207q-128 -90 -418 -149zM647 -174q67 21 107 36t74 35t50.5 35.5t31 46.5t21.5 59t17 81l117 653h-143l51 303h145q19 106 48.5 181t77 129.5t117 81t163.5 26.5q85 0 181.5 -32.5t170.5 -71.5l-133 -246q-74 24 -117 24q-11 0 -20 -2 t-23.5 -9.5t-25.5 -27.5t-17 -51v-2h240l-54 -303h-241l-111 -618q-39 -209 -67 -285q-48 -134 -154 -207q-128 -90 -418 -149zM1700 0l264 1493h420l-123 -696l248 278h520l-453 -438l322 -637h-426l-174 367l-137 -131l-41 -236h-420z" />
<glyph unicode="fft" horiz-adv-x="2635" d="M-199 -174q67 21 107 36t74 35t50.5 35.5t31 46.5t21.5 59t17 81l117 653h-143l53 303h143q19 106 48.5 181t77 129.5t117 81t163.5 26.5q208 0 436 -129l-158 -234q-119 37 -176 37q-11 0 -20 -2t-23.5 -9.5t-25.5 -27.5t-17 -51v-2h209l-53 -303h-211l-111 -618 q-39 -209 -67 -285q-48 -134 -154 -207q-128 -90 -418 -149zM647 -174q67 21 107 36t74 35t50.5 35.5t31 46.5t21.5 59t17 81l117 653h-143l53 303h143q19 106 48.5 181t77 129.5t117 81t163.5 26.5q208 0 436 -129l-178 -234q-103 37 -156 37q-11 0 -20 -2t-23.5 -9.5 t-25.5 -27.5t-17 -51v-2h195l-54 -303h-196l-111 -618q-39 -209 -67 -285q-48 -134 -154 -207q-128 -90 -418 -149zM1755 772l53 303h140l49 271l426 40l-56 -311h285l-53 -303h-287l-59 -340q-9 -55 7 -72.5t46 -17.5q54 0 141 35l101 -322q-231 -78 -404 -78 q-193 0 -269.5 129t-35.5 361l53 305h-137z" />
<glyph unicode="fh" horiz-adv-x="2191" d="M-199 -174q67 21 107 36t74 35t50.5 35.5t31 46.5t21.5 59t17 81l117 653h-143l51 303h145q19 106 48.5 181t77 129.5t117 81t163.5 26.5q85 0 181.5 -32.5t170.5 -71.5l-133 -246q-74 24 -117 24q-11 0 -20 -2t-23.5 -9.5t-25.5 -27.5t-17 -51v-2h240l-53 -303h-242 l-111 -618q-39 -209 -67 -285q-48 -134 -154 -207q-128 -90 -418 -149zM854 0l264 1493h420l-92 -520q195 125 369 125q185 0 262 -107t43 -297l-123 -694h-422l117 649q12 63 -2 95t-66 32q-51 0 -113.5 -27.5t-117.5 -72.5l-119 -676h-420z" />
<glyph unicode="fj" horiz-adv-x="1509" d="M-199 -174q67 21 107 36t74 35t50.5 35.5t31 46.5t21.5 59t17 81l117 653h-143l51 303h145q19 106 48.5 181t77 129.5t117 81t163.5 26.5q85 0 181.5 -32.5t170.5 -71.5l-133 -246q-74 24 -117 24q-11 0 -20 -2t-23.5 -9.5t-25.5 -27.5t-17 -51v-2h240l-53 -303h-242 l-111 -618q-39 -209 -67 -285q-48 -134 -154 -207q-128 -90 -418 -149zM606 -174q66 21 106.5 35.5t73.5 31.5t49 29.5t28.5 35.5t17.5 42.5t12 56.5l180 1018h420l-174 -981q-32 -182 -59 -251q-47 -122 -158 -192q-129 -81 -408 -138zM1085 1174l56 313h430l-55 -313h-431 z" />
<glyph unicode="fk" horiz-adv-x="2140" d="M-199 -174q67 21 107 36t74 35t50.5 35.5t31 46.5t21.5 59t17 81l117 653h-143l51 303h145q19 106 48.5 181t77 129.5t117 81t163.5 26.5q85 0 181.5 -32.5t170.5 -71.5l-133 -246q-74 24 -117 24q-11 0 -20 -2t-23.5 -9.5t-25.5 -27.5t-17 -51v-2h240l-53 -303h-242 l-111 -618q-39 -209 -67 -285q-48 -134 -154 -207q-128 -90 -418 -149zM854 0l264 1493h420l-123 -696l248 278h520l-452 -438l321 -637h-426l-174 367l-137 -131l-41 -236h-420z" />
<glyph unicode="ft" horiz-adv-x="1789" d="M-199 -174q67 21 107 36t74 35t50.5 35.5t31 46.5t21.5 59t17 81l117 653h-143l53 303h143q19 106 48.5 181t77 129.5t117 81t163.5 26.5q208 0 436 -129l-178 -234q-103 37 -156 37q-11 0 -20 -2t-23.5 -9.5t-25.5 -27.5t-17 -51v-2h209l-53 -303h-211l-111 -618 q-39 -209 -67 -285q-48 -134 -154 -207q-128 -90 -418 -149zM909 772l54 303h139l49 271l426 40l-55 -311h284l-53 -303h-287l-59 -340q-9 -55 7 -72.5t46 -17.5q54 0 142 35l100 -322q-231 -78 -404 -78q-193 0 -269.5 129t-35.5 361l54 305h-138z" />
<glyph unicode=" "  horiz-adv-x="573" />
<glyph unicode="&#x09;" horiz-adv-x="573" />
<glyph unicode="&#xa0;" horiz-adv-x="573" />
<glyph unicode="!" horiz-adv-x="641" d="M-6 0l67 387h410l-68 -387h-409zM162 498l35 936h512l-297 -936h-250z" />
<glyph unicode="&#x22;" horiz-adv-x="974" d="M152 846l36 588h387l-167 -588h-256zM623 846l36 588h388l-168 -588h-256z" />
<glyph unicode="#" horiz-adv-x="1468" d="M0 281l55 309h238l84 254h-195l56 311h239l92 279h322l-92 -279h202l93 279h321l-92 -279h195l-56 -311h-239l-84 -254h196l-55 -309h-242l-92 -281h-319l90 281h-203l-90 -281h-322l91 281h-193zM614 590h203l84 254h-203z" />
<glyph unicode="$" horiz-adv-x="1406" d="M-16 221l225 291q122 -69 261 -122.5t235 -53.5q64 0 103.5 19t39.5 51t-39.5 54.5t-93.5 35.5t-136.5 36.5t-142.5 51.5q-284 131 -284 399q0 93 35.5 176t104 149t178 105.5t247.5 42.5l33 184h297l-39 -219q192 -46 422 -176l-226 -289q-91 53 -219 97.5t-217 44.5 q-62 0 -102.5 -18t-40.5 -54q0 -41 50.5 -62t163 -50t195.5 -66q287 -129 287 -391q0 -94 -36.5 -178t-105 -150.5t-178.5 -107t-247 -44.5l-33 -182h-297l37 213q-265 62 -477 213z" />
<glyph unicode="%" horiz-adv-x="2082" d="M125 1012q0 86 29 164.5t84 141.5t144 100.5t200 37.5q183 0 292 -88t109 -235q0 -86 -29 -164.5t-84 -142t-144 -101t-200 -37.5q-183 0 -292 88.5t-109 235.5zM418 0l979 1434h317l-981 -1434h-315zM430 1044q0 -118 109 -118q47 0 80.5 33t46 71t12.5 70 q0 119 -109 119q-47 0 -80.5 -33.5t-46 -71.5t-12.5 -70zM1151 301q0 86 29 164.5t84 141.5t144 100.5t200 37.5q183 0 292 -88t109 -235q0 -86 -29 -164.5t-84 -142t-144 -101t-200 -37.5q-183 0 -292 88.5t-109 235.5zM1456 334q0 -119 109 -119q47 0 80.5 33t46 71 t12.5 70q0 119 -109 119q-47 0 -80.5 -33t-46 -71t-12.5 -70z" />
<glyph unicode="&#x26;" horiz-adv-x="1527" d="M35 358q0 72 28 136t80 115.5t109 91t133 79.5q-60 75 -91.5 143t-31.5 144q0 164 137.5 276.5t362.5 112.5q108 0 196.5 -28.5t144 -76t85 -107.5t29.5 -126q0 -63 -27.5 -121t-80 -110t-107 -93t-130.5 -87l121 -138q62 83 103 187h417q-31 -105 -103 -229.5 t-177 -233.5l254 -293h-436l-78 90q-199 -113 -432 -113q-230 0 -368 106.5t-138 274.5zM444 369q0 -39 33.5 -62.5t89.5 -23.5q86 0 189 61l-166 195q-146 -97 -146 -170zM635 1051q0 -52 51 -123q73 41 111.5 78.5t38.5 80.5q0 28 -19 54t-63 26q-53 0 -86 -37t-33 -79z " />
<glyph unicode="'" horiz-adv-x="503" d="M152 846l36 588h387l-167 -588h-256z" />
<glyph unicode="(" horiz-adv-x="788" d="M0 41.5q-3 30.5 0.5 74.5t9 82.5t15.5 92.5l149 844q15 83 25 129t28 104.5t37 89t52 69.5t74 61t101.5 47.5t135.5 44.5t176 38l69 -235q-75 -26 -117.5 -46t-68 -48t-35.5 -56t-20 -80l-193 -1081q-12 -64 -10 -109t31.5 -78.5t95.5 -64.5l-104 -213q-72 16 -130.5 33 t-104 37t-80.5 40.5t-59.5 47t-41 51.5t-24.5 60t-11 65.5z" />
<glyph unicode=")" horiz-adv-x="786" d="M-68 -57q76 26 118 46t68 48t36 55.5t20 79.5l193 1081q12 64 10 109t-31.5 78.5t-95.5 64.5l104 213q72 -16 130.5 -32.5t104 -37t80.5 -40.5t59.5 -47t41 -51.5t24.5 -59.5t11 -65.5t-0.5 -74.5t-9 -82.5t-15.5 -92.5l-149 -844q-20 -111 -33.5 -167.5t-42.5 -125.5 t-66 -102.5t-104 -73t-158 -64.5t-225 -51z" />
<glyph unicode="*" horiz-adv-x="1038" d="M127 1032l340 -6l-322 115l220 262l165 -301l-63 338l332 -60l-174 -295l256 226l116 -320l-321 2l301 -110l-219 -262l-160 280l59 -319l-333 57l174 297l-256 -223z" />
<glyph unicode="+" horiz-adv-x="1280" d="M92 528l55 310h375l62 348h315l-61 -348h376l-55 -310h-377l-61 -348h-315l61 348h-375z" />
<glyph unicode="," horiz-adv-x="612" d="M-68 -244l226 244h-183l76 428h414l-64 -485l-387 -322z" />
<glyph unicode="-" horiz-adv-x="1015" d="M49 418l57 330h713l-57 -330h-713z" />
<glyph unicode="." horiz-adv-x="604" d="M-27 0l76 428h414l-76 -428h-414z" />
<glyph unicode="/" horiz-adv-x="1054" d="M-98 -184l962 1802h322l-963 -1802h-321z" />
<glyph unicode="0" horiz-adv-x="1445" d="M66 616q0 57 7.5 121.5t28 148t53.5 160.5t89 153t127.5 132t176.5 90.5t230 34.5q141 0 251.5 -36.5t181 -97t116.5 -145t65 -173.5t19 -189q0 -57 -7.5 -121.5t-28.5 -148t-53.5 -160.5t-89 -153t-128 -132t-176.5 -90.5t-230 -34.5q-140 0 -250.5 36.5t-181 97.5 t-116.5 145t-65 173t-19 189zM500 578q1 -46 5 -81t16.5 -72.5t33 -61t57 -39t86.5 -15.5q63 0 114 47.5t80 115.5t48.5 147.5t26.5 139t6 95.5q-1 59 -8 101t-26.5 83t-61 62.5t-103.5 21.5q-63 0 -114 -47.5t-80 -115t-48.5 -147t-26 -139t-5.5 -95.5z" />
<glyph unicode="1" horiz-adv-x="958" d="M72 1190l471 244h415l-253 -1434h-429l179 1010l-252 -119z" />
<glyph unicode="2" horiz-adv-x="1318" d="M-63 0l28 170q11 68 36 130.5t54.5 111t74.5 96t84 81t96 71.5t97.5 61.5t100.5 56.5q47 26 100.5 54.5t85.5 45t67 35.5t53.5 32t35 28t23 29t6.5 30q-2 29 -35.5 47.5t-95.5 18.5q-150 0 -398 -135l-155 299q314 194 618 194q127 0 226 -33t159 -90t90.5 -128.5 t30.5 -151.5q0 -62 -19 -119t-47 -101.5t-75.5 -89.5t-88.5 -75.5t-104.5 -66t-104 -55.5t-104.5 -50q-141 -65 -183.5 -90t-49.5 -48h645l-64 -358h-1187z" />
<glyph unicode="3" horiz-adv-x="1318" d="M-63 225l213 264q252 -149 438 -149q94 0 143 30t49 79q0 17 -4.5 31.5t-15 25.5t-20.5 19.5t-29.5 14.5t-33.5 10.5t-40.5 7t-42 4.5t-47.5 2.5t-47 0.5h-49h-62l64 359h67h9h48t49 1.5t51.5 4t46 7.5t42.5 13t32 18.5t23.5 26.5t7.5 35q0 68 -108 68q-80 0 -190 -37.5 t-203 -83.5l-138 293q296 186 621 186q121 0 213.5 -27t147.5 -74.5t82.5 -107.5t27.5 -131q0 -118 -71.5 -201.5t-198.5 -144.5q97 -39 154 -126.5t57 -205.5q0 -60 -16.5 -119.5t-58.5 -122.5t-106 -110.5t-168 -78t-235 -30.5q-377 0 -702 248z" />
<glyph unicode="4" horiz-adv-x="1472" d="M-43 236l53 296l766 902h582l-150 -840h213l-63 -358h-213l-41 -236h-436l41 236h-752zM483 594h289l80 444z" />
<glyph unicode="5" horiz-adv-x="1306" d="M-49 225l239 269q193 -146 361 -146q98 0 163.5 39t65.5 105q0 56 -44 90t-132 34q-63 0 -117.5 -18.5t-130.5 -58.5l-237 161l203 734h1009l-63 -359h-631l-27 -121q75 11 127 11q122 0 217.5 -36.5t154 -100t88.5 -143.5t30 -171q0 -103 -40.5 -198t-116.5 -171.5 t-198.5 -122t-273.5 -45.5q-92 0 -182 18.5t-157 44.5t-131.5 62.5t-103 64.5t-73.5 58z" />
<glyph unicode="6" horiz-adv-x="1363" d="M59 557q0 187 74.5 352.5t205.5 286t322 190.5t414 70q89 0 164 -11t105 -23l30 -11l-153 -315q-57 10 -131 10q-369 0 -510 -236q107 62 262 62q206 0 333.5 -117t127.5 -315q0 -105 -41 -199.5t-116.5 -166.5t-193 -114.5t-260.5 -42.5q-150 0 -272 46t-200 126 t-119.5 184.5t-41.5 223.5zM498 522q0 -87 48.5 -140.5t135.5 -53.5q91 0 137.5 47.5t46.5 103.5q0 135 -176 135q-108 0 -192 -79v-13z" />
<glyph unicode="7" horiz-adv-x="1136" d="M33 0q18 99 61.5 210t97.5 207.5t121.5 196t125 173.5t115.5 142t87 99t45 47h-582l64 359h1073l-59 -338q-12 -13 -34 -35.5t-85.5 -94.5t-123 -145.5t-135 -180t-134.5 -206.5t-108 -216.5t-68 -217.5h-461z" />
<glyph unicode="8" horiz-adv-x="1394" d="M6 377q0 269 373 424q-152 120 -152 278q0 166 148.5 271.5t423.5 105.5q260 0 401 -95.5t141 -250.5q0 -198 -262 -342q232 -130 232 -348q0 -200 -178.5 -321.5t-503.5 -121.5q-302 0 -462.5 106.5t-160.5 293.5zM451 426q0 -54 48 -89.5t138 -35.5q101 0 166 43.5 t65 104.5q0 93 -155 174q-58 -20 -98.5 -37t-81 -41t-61.5 -54t-21 -65zM645 1030q0 -59 96 -108q82 27 125 57t43 78q0 35 -29 61.5t-85 26.5q-66 0 -108 -36.5t-42 -78.5z" />
<glyph unicode="9" horiz-adv-x="1363" d="M16 23l154 315q57 -10 131 -10q370 0 510 235q-105 -61 -262 -61q-206 0 -333.5 117t-127.5 315q0 105 40.5 199t116 166.5t193 114.5t260.5 42q150 0 272 -46t200 -125.5t119.5 -184t41.5 -223.5q0 -187 -74.5 -353t-205.5 -286.5t-322 -190.5t-414 -70q-89 0 -164 11.5 t-105 23.5zM524 954q0 -135 176 -135q106 0 193 78v14q0 87 -48.5 141t-135.5 54q-91 0 -138 -48t-47 -104z" />
<glyph unicode=":" horiz-adv-x="630" d="M-12 0l75 428h414l-76 -428h-413zM92 592l76 428h414l-76 -428h-414z" />
<glyph unicode=";" horiz-adv-x="638" d="M-53 -244l225 244h-182l76 428h413l-63 -485l-387 -322zM94 592l76 428h414l-76 -428h-414z" />
<glyph unicode="&#x3c;" horiz-adv-x="1277" d="M66 545l49 278l1136 408l-63 -359l-645 -208l569 -211l-55 -318z" />
<glyph unicode="=" horiz-adv-x="1277" d="M55 328l56 309h1065l-56 -309h-1065zM127 735l55 309h1065l-55 -309h-1065z" />
<glyph unicode="&#x3e;" horiz-adv-x="1275" d="M49 135l64 359l645 208l-570 211l56 318l991 -410l-49 -278z" />
<glyph unicode="?" horiz-adv-x="1167" d="M133 0l68 387h413l-67 -387h-414zM147 1311q278 145 539 145q225 0 350 -107t125 -276q0 -86 -31.5 -158t-84 -122.5t-127.5 -89.5t-153.5 -62.5t-170.5 -38.5l-41 -104h-252l35 333q210 32 298.5 71.5t88.5 101.5q0 39 -31.5 66.5t-101.5 27.5q-121 0 -307 -99z" />
<glyph unicode="@" horiz-adv-x="1916" d="M37 399q0 211 76 395.5t213 319.5t339 213t443 78q169 0 304.5 -42t222 -109.5t144 -157.5t81 -182t22.5 -187q-1 -51 -7.5 -110.5t-23 -139.5t-42 -154t-68 -148t-96.5 -128.5t-132.5 -88.5t-171.5 -34q-69 0 -121 18t-81.5 44.5t-48 62.5t-24 66t-5.5 61 q-63 -57 -149 -94t-181 -37q-134 0 -214.5 82.5t-80.5 214.5q0 152 110 238t279 86q33 0 69 -3t75.5 -9t63 -10t63 -12t43.5 -9l10 63q13 75 -15.5 105t-107.5 30q-153 0 -360 -76l-68 209q268 90 485 90q221 0 304 -95t47 -294l-48 -262q-8 -42 -12.5 -70.5t-8.5 -59 t-4.5 -51t1.5 -40.5t8 -32t16 -22t24.5 -14t33.5 -4q84 0 157 95.5t112.5 239.5t39.5 292q2 70 -12.5 140t-58.5 147t-113.5 134.5t-188.5 95.5t-272 38q-176 0 -328.5 -46.5t-264 -129.5t-191 -194.5t-119 -244t-39.5 -276.5q0 -292 163.5 -463.5t458.5 -171.5 q102 0 200 20.5t145 41.5l47 20l63 -100q-8 -4 -22.5 -11t-63 -25.5t-99 -32t-127 -25t-151.5 -11.5q-228 0 -397.5 98t-257.5 270.5t-88 397.5zM743 379q0 -55 31 -83t84 -28q50 0 112.5 24.5t121.5 74.5q22 111 22 114q-142 29 -205 29q-83 0 -124.5 -35t-41.5 -96z" />
<glyph unicode="A" horiz-adv-x="1490" d="M-117 0l772 1434h482l266 -1434h-463l-22 217h-433l-98 -217h-504zM639 555h242l-45 434z" />
<glyph unicode="B" horiz-adv-x="1447" d="M0 0l254 1434h631q252 0 393 -88t141 -246q0 -70 -31 -132t-78 -102.5t-98 -66t-96 -31.5q38 -7 79.5 -28.5t83.5 -59.5t69.5 -101.5t27.5 -140.5q0 -215 -145.5 -326.5t-415.5 -111.5h-815zM494 330h200q125 0 189.5 36t64.5 123q0 54 -47.5 81.5t-157.5 27.5h-202z M596 903h176q203 0 203 121q0 80 -164 80h-180z" />
<glyph unicode="C" horiz-adv-x="1361" d="M63 551q0 213 54 385t150 285.5t228.5 174t290.5 60.5q96 0 185.5 -17.5t183 -57t146 -66.5t151.5 -82l-229 -309q-132 72 -217 105.5t-166 33.5q-82 0 -146.5 -41.5t-103 -110.5t-58.5 -151t-20 -170q0 -107 37.5 -164t128.5 -57q139 0 420 131l180 -344 q-191 -88 -362 -133.5t-347 -45.5q-237 0 -371.5 147t-134.5 427z" />
<glyph unicode="D" horiz-adv-x="1525" d="M0 0l254 1434h512q164 0 291 -32.5t207 -86.5t131.5 -131.5t71.5 -160.5t20 -181q0 -36 -3 -76t-13 -101t-26.5 -119.5t-47 -126.5t-70.5 -126t-101 -113.5t-135 -94t-175.5 -62t-219.5 -23.5h-696zM502 367h129q72 0 133 18t103 47t74.5 69.5t52 83t32 89t17 85 t4.5 75.5q0 125 -79 179t-249 54h-94z" />
<glyph unicode="E" horiz-adv-x="1296" d="M0 0l254 1434h1100l-66 -367h-663l-31 -170h539l-64 -358h-537l-30 -172h669l-65 -367h-1106z" />
<glyph unicode="F" horiz-adv-x="1241" d="M0 0l254 1434h1100l-66 -367h-663l-31 -172h520l-63 -358h-521l-94 -537h-436z" />
<glyph unicode="G" horiz-adv-x="1474" d="M66 551q0 213 55 385.5t152.5 285.5t232 173.5t293.5 60.5q82 0 164.5 -14.5t143.5 -32t141.5 -53.5t123 -58t123.5 -65l-229 -309q-136 71 -229.5 105t-184.5 34q-84 0 -150.5 -41.5t-106.5 -110.5t-60.5 -151t-20.5 -170q0 -43 4 -75.5t15.5 -65.5t31 -54.5t53 -35 t78.5 -13.5q70 0 147.5 40.5t133.5 88.5l8 47h-285l60 338h682l-152 -860h-397l20 117q-178 -140 -362 -140q-218 0 -351.5 148.5t-133.5 425.5z" />
<glyph unicode="H" horiz-adv-x="1525" d="M0 0l254 1434h436l-90 -502h422l90 502h436l-254 -1434h-436l100 573h-421l-101 -573h-436z" />
<glyph unicode="I" horiz-adv-x="688" d="M0 0l254 1434h436l-254 -1434h-436z" />
<glyph unicode="J" horiz-adv-x="698" d="M-231 -82q119 35 173 62.5t74 60t33 100.5l230 1293h438l-225 -1268q-32 -181 -57 -248q-45 -122 -154 -192q-129 -85 -416 -144z" />
<glyph unicode="K" horiz-adv-x="1501" d="M0 0l254 1434h436l-86 -488l469 488h580l-692 -656l444 -778h-479l-267 494l-163 -156l-60 -338h-436z" />
<glyph unicode="L" horiz-adv-x="1208" d="M0 0l254 1434h436l-190 -1076h639l-64 -358h-1075z" />
<glyph unicode="M" horiz-adv-x="1777" d="M0 0l254 1434h442l185 -707l481 707h442l-254 -1434h-436l127 715l-319 -475h-224l-131 499l-131 -739h-436z" />
<glyph unicode="N" horiz-adv-x="1558" d="M0 0l254 1434h440l312 -787l139 787h436l-254 -1434h-440l-312 788l-139 -788h-436z" />
<glyph unicode="O" horiz-adv-x="1609" d="M63 625q0 58 8 123t31 148t58.5 159t96 150.5t138 129t190 88t246.5 33.5q357 0 553.5 -167.5t196.5 -481.5q0 -58 -8 -123t-31 -148t-58.5 -159t-96 -151t-138 -129.5t-190 -88t-246.5 -33.5q-357 0 -553.5 168t-196.5 482zM514 639q0 -151 70.5 -223t212.5 -72 q74 0 133.5 31.5t95.5 79t60.5 109.5t34 119t9.5 110q0 151 -70 222.5t-212 71.5q-74 0 -133.5 -31t-96 -79t-61 -109.5t-34 -118.5t-9.5 -110z" />
<glyph unicode="P" horiz-adv-x="1419" d="M0 0l254 1434h584q616 0 616 -443q0 -51 -11.5 -105.5t-37 -116.5t-71.5 -116t-108 -98t-154.5 -70t-203.5 -26h-350l-82 -459h-436zM580 813h202q116 0 170 46t54 118q0 56 -46.5 77t-130.5 21h-202z" />
<glyph unicode="Q" horiz-adv-x="1609" d="M63 625q0 58 8 123t31 148t58.5 159t96 150.5t138 129t190 88t246.5 33.5q357 0 553.5 -167.5t196.5 -481.5q0 -63 -9.5 -134t-37 -162.5t-70 -172t-116.5 -157.5t-168 -126l180 -166l-307 -268l-303 356q-328 15 -507.5 181.5t-179.5 466.5zM514 639q0 -151 70.5 -223 t212.5 -72q74 0 133.5 31.5t95.5 79t60.5 109.5t34 119t9.5 110q0 151 -70 222.5t-212 71.5q-74 0 -133.5 -31t-96 -79t-61 -109.5t-34 -118.5t-9.5 -110z" />
<glyph unicode="R" horiz-adv-x="1486" d="M0 0l254 1434h653q596 0 596 -420q0 -52 -12 -108.5t-43.5 -119.5t-78 -116t-122 -95t-170.5 -59l246 -516h-453l-211 504h-131l-92 -504h-436zM586 840h250q106 0 162.5 42.5t56.5 118.5q0 41 -28 63.5t-65 28t-96 5.5h-235z" />
<glyph unicode="S" horiz-adv-x="1359" d="M-39 221l225 291q122 -69 261 -122.5t235 -53.5q64 0 103.5 19t39.5 51q0 26 -23.5 45t-67.5 32.5t-92.5 25.5t-113 32t-114.5 43q-285 132 -285 399q0 95 37 179t108 150.5t184.5 105t256.5 38.5q324 0 692 -211l-225 -289q-91 52 -219.5 97t-217.5 45q-62 0 -102.5 -18 t-40.5 -54q0 -41 51 -62t163.5 -50t195.5 -66q286 -129 286 -391q0 -96 -38 -181.5t-110.5 -152.5t-188 -106.5t-259.5 -39.5q-205 0 -401.5 71.5t-339.5 172.5z" />
<glyph unicode="T" horiz-adv-x="1253" d="M98 1067l66 367h1214l-65 -367h-389l-189 -1067h-436l188 1067h-389z" />
<glyph unicode="U" horiz-adv-x="1501" d="M90 528q5 75 21 166l131 740h436l-150 -844q-7 -47 -7 -86q-1 -20 1 -38q6 -54 50.5 -86t129.5 -32q65 0 112 17.5t75 53t43.5 75t25.5 96.5l150 844h436l-153 -863q-15 -88 -37 -158.5t-57.5 -140.5t-88 -121.5t-123.5 -92t-170 -61t-221 -20.5q-124 0 -222 19t-165 53 t-113 85t-70 109.5t-32 134.5q-4 45 -4 90q0 30 2 60z" />
<glyph unicode="V" horiz-adv-x="1488" d="M127 1434h491l95 -879l393 879h541l-768 -1434h-484z" />
<glyph unicode="W" horiz-adv-x="2027" d="M141 1434h490l16 -760l320 760h354l53 -758l281 758h522l-649 -1434h-420l-61 803l-340 -803h-420z" />
<glyph unicode="X" horiz-adv-x="1423" d="M-131 0l590 727l-314 707h480l131 -424l274 424h535l-566 -705l338 -729h-487l-145 416l-283 -416h-553z" />
<glyph unicode="Y" horiz-adv-x="1400" d="M119 1434h463l153 -482l322 482h508l-656 -865l-100 -569h-436l100 569z" />
<glyph unicode="Z" horiz-adv-x="1343" d="M-57 0l53 332l766 735h-584l60 367h1177l-53 -330l-768 -737h639l-59 -367h-1231z" />
<glyph unicode="[" horiz-adv-x="800" d="M-63 -293l356 2011h661l-41 -231h-223l-276 -1548h225l-41 -232h-661z" />
<glyph unicode="\" horiz-adv-x="1042" d="M213 1618h287l362 -1802h-287z" />
<glyph unicode="]" horiz-adv-x="798" d="M-139 -293l41 232h223l276 1548h-225l41 231h662l-357 -2011h-661z" />
<glyph unicode="^" horiz-adv-x="1275" d="M47 627l514 807h430l240 -807h-432l-76 354l-199 -354h-477z" />
<glyph unicode="_" horiz-adv-x="1464" d="M-96 -418l51 293h1280l-51 -293h-1280z" />
<glyph unicode="`" horiz-adv-x="534" d="M199 1493h422l206 -297h-321z" />
<glyph unicode="a" horiz-adv-x="1329" d="M23 393q0 316 146.5 510.5t381.5 194.5q58 0 108.5 -11t93.5 -33t66.5 -37t59.5 -42l18 100h420l-191 -1075h-419l16 98q-180 -121 -361 -121q-67 0 -125 22t-107.5 68.5t-78 130t-28.5 195.5zM453 440q0 -62 27 -96.5t77 -34.5q55 0 107 28.5t116 80.5l45 254 q-81 92 -168 92q-96 0 -150 -93.5t-54 -230.5z" />
<glyph unicode="b" horiz-adv-x="1325" d="M-23 0l265 1493h420l-93 -516q187 121 357 121q54 0 102.5 -13t93.5 -44t77 -78t51.5 -119t19.5 -162q0 -315 -146.5 -510t-380.5 -195q-58 0 -108.5 10.5t-94 32.5t-66.5 36.5t-60 41.5l-17 -98h-420zM467 401q79 -90 170 -90q95 0 150 93.5t55 230.5q0 62 -28 96.5 t-81 34.5q-56 0 -108.5 -29.5t-112.5 -81.5z" />
<glyph unicode="c" horiz-adv-x="1099" d="M20 430q0 135 31.5 247.5t85 189t125.5 129.5t151.5 77.5t164.5 24.5q38 0 75 -2.5t74 -10t64 -13t64.5 -18.5t56 -19t57.5 -23.5t49 -22t50 -24t44 -21.5l-182 -291q-55 27 -86.5 41t-83 30.5t-86.5 16.5q-53 0 -97 -27.5t-70 -70t-40 -88.5t-14 -88q0 -61 32 -97 t99 -36q85 0 274 82l131 -320q-309 -119 -504 -119q-100 0 -183 26.5t-147 80t-99.5 142t-35.5 204.5z" />
<glyph unicode="d" horiz-adv-x="1333" d="M23 393q0 316 146.5 510.5t381.5 194.5q75 0 144 -22.5t102.5 -43.5t81.5 -57l92 518h420l-265 -1493h-419l16 98q-180 -121 -361 -121q-67 0 -125 22t-107.5 68.5t-78 130t-28.5 195.5zM453 440q0 -62 27 -96.5t77 -34.5q55 0 107 28.5t116 80.5l45 254q-81 92 -168 92 q-96 0 -150 -93.5t-54 -230.5z" />
<glyph unicode="e" horiz-adv-x="1185" d="M18 440q0 140 44 260t127 208.5t209.5 139t283.5 50.5q216 0 348.5 -89.5t132.5 -244.5q0 -68 -19 -121.5t-50 -89.5t-80.5 -62.5t-98.5 -41t-118 -22.5t-125.5 -10.5t-132.5 -2.5h-97q0 -61 30 -96t108 -35q143 0 391 108l119 -285q-58 -24 -133.5 -48.5t-212 -52.5 t-250.5 -28q-476 0 -476 463zM479 625h72q98 0 156.5 27t58.5 79q0 33 -25.5 54.5t-68.5 21.5q-129 0 -193 -182z" />
<glyph unicode="f" horiz-adv-x="876" d="M-199 -174q67 21 107 36t74 35t50.5 35.5t31 46.5t21.5 59t17 81l117 653h-143l53 303h143q19 106 48.5 181t77 129.5t117 81t163.5 26.5q208 0 436 -129l-178 -234q-103 37 -156 37q-11 0 -20 -2t-23.5 -9.5t-25.5 -27.5t-17 -51v-2h240l-53 -303h-242l-111 -618 q-39 -209 -67 -285q-48 -134 -154 -207q-128 -90 -418 -149z" />
<glyph unicode="g" horiz-adv-x="1329" d="M-72 -344l129 315q104 -34 227.5 -59t215.5 -25q107 0 150.5 34.5t56.5 109.5l10 63q-185 -117 -355 -117q-67 0 -125 22t-107.5 68.5t-78 130t-28.5 195.5q0 316 146.5 510.5t381.5 194.5q57 0 106.5 -10.5t91.5 -31t66.5 -36.5t58.5 -41l17 96h420l-181 -1022 q-25 -147 -69.5 -242t-117.5 -150.5t-166 -77t-230 -21.5q-298 0 -619 94zM451 440q0 -62 27.5 -96.5t78.5 -34.5q54 0 105 27t112 76l47 264q-78 88 -166 88q-93 0 -148.5 -94t-55.5 -230z" />
<glyph unicode="h" d="M-23 0l265 1493h420l-93 -520q195 125 369 125q185 0 262 -107q53 -74 54 -188q0 -50 -11 -109l-123 -694h-422l117 649q6 30 6 52q1 26 -7 43q-14 32 -66 32t-114.5 -27.5t-117.5 -72.5l-119 -676h-420z" />
<glyph unicode="i" horiz-adv-x="622" d="M-23 0l191 1075h420l-191 -1075h-420zM180 1174l56 313h430l-56 -313h-430z" />
<glyph unicode="j" horiz-adv-x="632" d="M-270 -174q66 21 106.5 35.5t73.5 31.5t48.5 29.5t28.5 35.5t17.5 42.5t11.5 56.5l181 1018h419l-174 -981q-32 -182 -58 -250q-47 -122 -158 -192q-128 -82 -408 -139zM209 1174l55 313h430l-55 -313h-430z" />
<glyph unicode="k" horiz-adv-x="1263" d="M-23 0l265 1493h420l-123 -696l247 278h521l-453 -438l322 -637h-426l-175 367l-137 -131l-41 -236h-420z" />
<glyph unicode="l" horiz-adv-x="622" d="M-23 0l265 1493h420l-265 -1493h-420z" />
<glyph unicode="m" horiz-adv-x="1923" d="M-23 0l191 1075h420l-21 -112q71 57 158.5 96t173.5 39q238 0 289 -178q65 67 172.5 122.5t208.5 55.5q182 0 255 -101q50 -70 50 -181q0 -50 -10 -109l-125 -707h-420l115 649q9 34 9 59q-1 18 -5 33q-10 35 -62 35q-43 0 -95 -28.5t-95 -69.5l-119 -678h-420l115 649 q9 35 9 62q1 17 -3 30q-10 35 -61 35q-43 0 -95 -28t-94 -68l-121 -680h-420z" />
<glyph unicode="n" d="M-23 0l191 1075h420l-19 -102q195 125 369 125q185 0 262 -107q53 -74 54 -188q0 -50 -11 -109l-123 -694h-420l115 649q6 30 6 52q1 26 -7 43q-14 32 -66 32t-114.5 -27.5t-117.5 -72.5l-119 -676h-420z" />
<glyph unicode="o" horiz-adv-x="1298" d="M18 483q0 125 38.5 234t113 195t196.5 136t277 50q280 0 442 -132.5t162 -373.5q0 -125 -38 -234t-112.5 -195t-196.5 -136t-277 -50q-281 0 -443 132.5t-162 373.5zM440 479q0 -184 172 -184q70 0 120 46t71.5 112.5t21.5 142.5q0 184 -172 184q-70 0 -120 -46 t-71.5 -112.5t-21.5 -142.5z" />
<glyph unicode="p" horiz-adv-x="1327" d="M-94 -418l264 1493h420l-19 -98q187 121 357 121q54 0 102.5 -13t93.5 -44t77 -78t51.5 -119t19.5 -162q0 -315 -146.5 -510t-380.5 -195q-58 0 -108.5 10.5t-94 32.5t-66.5 36.5t-60 41.5l-90 -516h-420zM471 401q79 -90 168 -90q95 0 150 93.5t55 230.5q0 62 -28 96.5 t-81 34.5q-94 0 -219 -109z" />
<glyph unicode="q" horiz-adv-x="1329" d="M23 393q0 316 146.5 510.5t381.5 194.5q58 0 108.5 -11t93.5 -33t66.5 -37t59.5 -42l18 100h420l-264 -1493h-420l90 516q-180 -121 -361 -121q-67 0 -125 22t-107.5 68.5t-78 130t-28.5 195.5zM453 440q0 -62 27 -96.5t77 -34.5q55 0 107 28.5t116 80.5l45 254 q-81 92 -168 92q-96 0 -150 -93.5t-54 -230.5z" />
<glyph unicode="r" horiz-adv-x="935" d="M-23 0l191 1075h420l-39 -219q15 27 35.5 54t60 63t85 61.5t112.5 41.5q51 12 106 12q17 0 35 -1l-65 -393q-72 0 -137 -21.5t-110.5 -56t-84 -76t-62.5 -82.5t-40.5 -75.5t-23.5 -56.5l-7 -21l-56 -305h-420z" />
<glyph unicode="s" horiz-adv-x="1130" d="M-55 160l168 248q97 -53 223 -96.5t209 -43.5q34 0 55 8t26 15.5t5 13.5q0 12 -11.5 21.5t-35.5 17t-49.5 13.5t-66.5 15.5t-73 18.5q-67 19 -120 43.5t-104 63t-79.5 97t-28.5 132.5q0 75 30.5 141t88.5 118t152.5 82t212.5 30q149 0 303.5 -44t261.5 -102l-168 -239 q-82 37 -185 67.5t-175 30.5q-48 0 -70 -12.5t-22 -28.5q0 -12 10 -21t33 -16.5t47.5 -13t67 -15.5t77.5 -20q52 -15 92 -30.5t88.5 -44t80.5 -62.5t53.5 -86t21.5 -115q0 -162 -132.5 -265.5t-373.5 -103.5q-174 0 -335.5 53.5t-276.5 129.5z" />
<glyph unicode="t" horiz-adv-x="933" d="M53 772l53 303h140l49 271l426 40l-55 -311h284l-53 -303h-287l-59 -340q-3 -20 -3 -35q0 -27 10 -37q16 -18 46 -18q54 0 141 35l101 -322q-231 -78 -404 -78q-194 0 -270 129q-50 84 -49 212q0 68 14 149l53 305h-137z" />
<glyph unicode="u" d="M35 381l123 694h420l-115 -649q-7 -28 -7 -51t7 -41q14 -35 67 -35q51 0 114 28t114 72l121 676h419l-190 -1075h-420l19 100q-197 -123 -369 -123q-184 1 -260 107q-53 74 -53 189q0 50 10 108z" />
<glyph unicode="v" horiz-adv-x="1234" d="M70 1075h434l67 -602l281 602h467l-608 -1075h-414z" />
<glyph unicode="w" horiz-adv-x="1748" d="M80 1075h432l12 -588l262 588h336l47 -567l209 567h457l-514 -1075h-389l-64 555l-264 -555h-389z" />
<glyph unicode="x" horiz-adv-x="1282" d="M-131 0l498 535l-283 540h438l123 -284l217 284h504l-477 -536l311 -539h-448l-129 289l-222 -289h-532z" />
<glyph unicode="y" horiz-adv-x="1230" d="M-14 -170q23 8 74 25.5t71 25.5t54 23.5t58 33.5t48 42l-225 1095h434l71 -575l277 575h467l-592 -1075q-79 -142 -129 -205q-140 -178 -383 -250q-63 -19 -135 -32z" />
<glyph unicode="z" horiz-adv-x="1220" d="M-59 0l47 283l544 450h-438l58 342h1081l-47 -282l-545 -451h459l-58 -342h-1101z" />
<glyph unicode="{" horiz-adv-x="829" d="M-6 600l39 225q67 0 113 16.5t69.5 47.5t33.5 65.5t13 81.5l10 211q6 131 49.5 224t123 146.5t181.5 77t238 23.5h117l-39 -223h-37q-178 0 -190 -205l-8 -174q-5 -109 -31.5 -185t-77 -122t-113.5 -69.5t-153 -34.5q164 -35 223 -137t-2 -294l-25 -79 q-14 -43 -19.5 -84.5t-0.5 -84.5t35 -69.5t84 -26.5h37l-39 -223h-35q-93 0 -177 18t-157.5 56.5t-119 97.5t-60.5 142t18 190l53 178q14 46 16 81t-11.5 66t-53 47.5t-104.5 16.5z" />
<glyph unicode="|" horiz-adv-x="524" d="M-53 -252l340 1927h301l-340 -1927h-301z" />
<glyph unicode="}" horiz-adv-x="827" d="M-127 -293l39 223h37q178 0 190 205l8 174q5 109 31.5 185.5t77 122.5t113.5 69.5t153 34.5q-165 35 -223.5 136.5t2.5 293.5l25 80q14 43 19.5 84.5t0.5 84t-35 69t-84 26.5h-37l39 223h35q93 0 177 -18t157.5 -56.5t119 -97.5t60.5 -142t-18 -190l-53 -178 q-14 -46 -16 -81t11.5 -66t53 -47.5t104.5 -16.5l-39 -225q-67 0 -113 -16.5t-69.5 -47.5t-33.5 -65.5t-13 -81.5l-10 -211q-6 -131 -49.5 -224t-123 -146.5t-181.5 -77t-238 -23.5h-117z" />
<glyph unicode="~" horiz-adv-x="1275" d="M-39 426q47 89 89.5 151.5t96 117t117 81.5t137.5 27q69 0 140.5 -24.5t121.5 -53.5t110.5 -53.5t109.5 -24.5q44 0 84 28.5t100 115.5l231 -101q-47 -89 -89.5 -151.5t-96 -117t-117 -81.5t-137.5 -27q-69 0 -140.5 24.5t-121 53.5t-110.5 53.5t-111 24.5q-43 0 -82 -28 t-100 -115z" />
<glyph unicode="&#xa1;" horiz-adv-x="641" d="M-59 0l297 936h249l-34 -936h-512zM178 1047l68 387h409l-67 -387h-410z" />
<glyph unicode="&#xa2;" horiz-adv-x="1169" d="M82 610q0 135 31.5 247.5t85 189t125.5 129.5t151 77.5t164 24.5h18l29 156h297l-39 -213q95 -33 258 -117l-182 -283q-181 101 -285 101q-69 0 -121.5 -47.5t-76 -109t-23.5 -118.5q0 -61 32 -97t99 -36q107 0 303 78l131 -311q-193 -72 -319 -99l-31 -182h-297l29 162 q-174 23 -276.5 134t-102.5 314z" />
<glyph unicode="&#xa3;" horiz-adv-x="1243" d="M-29 0l52 289q9 1 24.5 4t56.5 17.5t75.5 34.5t69 59t48.5 88h-217l41 235h155q-1 4 -16 45t-18.5 51.5t-14.5 47t-14.5 57.5t-7.5 54t-4 65q0 191 124 300t351 109q102 0 197.5 -22.5t176 -63.5t131.5 -74t111 -79l-213 -250q-183 131 -317 131q-64 0 -97.5 -27 t-33.5 -74q0 -45 36.5 -134t47.5 -136h327l-41 -235h-303q-38 -90 -118 -134h524l-64 -358h-1069z" />
<glyph unicode="&#xa5;" horiz-adv-x="1538" d="M135 250l41 233h342l14 78h-342l41 234h211l-262 639h463l154 -482l321 482h508l-485 -639h209l-41 -234h-340l-15 -78h340l-41 -233h-340l-43 -250h-436l43 250h-342z" />
<glyph unicode="&#xa6;" horiz-adv-x="530" d="M-49 -252l149 846h301l-149 -846h-301zM141 829l150 846h301l-150 -846h-301z" />
<glyph unicode="&#xa7;" horiz-adv-x="1232" d="M6 -2l168 240q85 -38 188.5 -68.5t174.5 -30.5q48 0 69 12.5t21 28.5q0 12 -10 21t-32.5 16.5t-47 13t-67 15.5t-77.5 20q-52 15 -92.5 30.5t-89 44t-80.5 62.5t-54 86t-22 115q0 89 53.5 161t155.5 116q-80 80 -80 204q0 75 30 141t88 118t152.5 82t213.5 30 q149 0 304.5 -43.5t260.5 -101.5l-170 -240q-76 36 -181.5 67t-176.5 31q-48 0 -69.5 -12.5t-21.5 -28.5q0 -12 10 -21t32.5 -16.5t47 -13t67 -15.5t77.5 -20q52 -15 92 -30.5t88 -43.5t79.5 -62t53 -86t21.5 -115q0 -89 -53.5 -161t-155.5 -116q82 -82 82 -205 q0 -75 -30.5 -141t-88.5 -117.5t-151.5 -81.5t-211.5 -30q-150 0 -305 43.5t-262 101.5zM463 664q0 -10 5.5 -18.5t18 -15.5t24.5 -13t35 -12.5t38.5 -10.5t45 -11.5t46.5 -11.5q26 5 46 14t29.5 17.5t15 18.5t6.5 15t1 9q0 9 -5 17.5t-17.5 15.5t-24.5 12t-34.5 11.5 t-38 10.5t-45 11.5t-46.5 11.5q-27 -5 -47 -13.5t-30 -16.5t-15.5 -17.5t-6.5 -14.5t-1 -9z" />
<glyph unicode="&#xa8;" horiz-adv-x="550" d="M113 1217l53 296h319l-53 -296h-319zM528 1217l54 296h319l-53 -296h-320z" />
<glyph unicode="&#xa9;" horiz-adv-x="1667" d="M78 641q0 131 32.5 251.5t98 223t158 178.5t219 119t274.5 43q206 0 360.5 -84.5t235 -234.5t80.5 -344q0 -131 -32.5 -251.5t-98.5 -223.5t-158 -179t-219.5 -119t-275.5 -43q-309 0 -491.5 184t-182.5 480zM158 643q0 -171 70 -303t208 -208.5t324 -76.5 q160 0 293 58.5t220 159t135 234t48 284.5q0 127 -41 235t-117 186t-190 122t-254 44q-160 0 -293 -58.5t-220 -159t-135 -233.5t-48 -284zM428 618q-5 126 27 230.5t90 172t134.5 104t162.5 36.5q54 0 104.5 -12.5t94 -37t69 -42t59.5 -45.5l-65 -68q-27 23 -46.5 37 t-55 35t-76.5 32t-86 11q-135 0 -225 -126.5t-83 -317.5q5 -126 53 -195.5t140 -69.5q145 0 305 111l53 -76q-53 -35 -95 -58t-115 -46t-144 -23q-126 0 -210.5 91.5t-90.5 256.5z" />
<glyph unicode="&#xaa;" horiz-adv-x="892" d="M123 1034q0 185 91.5 299.5t238.5 114.5q47 0 90.5 -13t64 -24.5t51.5 -32.5l11 56h278l-114 -646h-279l8 50q-113 -64 -221 -64q-44 0 -81.5 13.5t-69.5 42.5t-50 81.5t-18 122.5zM408 1059q0 -66 61 -66q55 0 133 58l23 131q-47 47 -97 47q-56 0 -88 -49t-32 -121z" />
<glyph unicode="&#xab;" horiz-adv-x="1388" d="M10 416l43 248l688 413l-73 -413l-287 -156l231 -154l-61 -354zM664 416l43 248l688 413l-74 -413l-287 -156l232 -154l-62 -354z" />
<glyph unicode="&#xac;" horiz-adv-x="1275" d="M2 528l55 310h1219l-117 -654h-328l62 344h-891z" />
<glyph unicode="&#xad;" horiz-adv-x="1015" d="M49 418l57 330h713l-57 -330h-713z" />
<glyph unicode="&#xae;" horiz-adv-x="976" d="M137 1024q0 91 29 172t82.5 143.5t137 99t185.5 36.5q171 0 272 -102t101 -267q0 -122 -48.5 -223t-148.5 -164.5t-235 -63.5q-173 0 -274 102t-101 267zM207 1026q0 -134 82.5 -218.5t226.5 -84.5q165 0 264 109.5t99 271.5q0 133 -84.5 218t-229.5 85 q-165 0 -261.5 -109t-96.5 -272zM356 864l72 412h182q57 0 91 -30.5t34 -76.5q0 -50 -35 -85t-92 -44l68 -176h-70l-63 174h-88l-31 -174h-68zM465 1102h106q46 0 71.5 19t25.5 48q0 45 -60 45h-123z" />
<glyph unicode="&#xaf;" horiz-adv-x="667" d="M227 1247l41 234h656l-41 -234h-656z" />
<glyph unicode="&#xb0;" horiz-adv-x="874" d="M109 1055q0 158 112.5 270.5t270.5 112.5t270 -112.5t112 -270.5t-112 -270.5t-270 -112.5t-270.5 112.5t-112.5 270.5zM342 1055q0 -61 44 -105.5t106 -44.5q61 0 105 44t44 106q0 61 -43.5 105t-105.5 44t-106 -44t-44 -105z" />
<glyph unicode="&#xb1;" horiz-adv-x="1277" d="M-4 0l47 260h1065l-47 -260h-1065zM100 590l56 309h372l43 238h318l-43 -238h375l-56 -309h-374l-41 -238h-318l41 238h-373z" />
<glyph unicode="&#xb2;" horiz-adv-x="835" d="M68 788l18 107q10 57 36 108t57 86t77 70t81.5 56t86.5 47q42 22 85.5 43t66.5 32t43.5 21.5t28 18.5t7.5 18q-3 32 -73 32q-94 0 -252 -81l-107 196q40 23 67 36t83.5 37t119.5 36t128 12q159 0 242 -74t83 -178q0 -42 -14 -80.5t-41.5 -69.5t-57.5 -56.5t-72.5 -49 t-74.5 -39t-76 -33.5q-118 -50 -145 -59h403l-41 -236h-759z" />
<glyph unicode="&#xb3;" horiz-adv-x="837" d="M68 932l139 172q96 -53 157.5 -72.5t124.5 -19.5q109 0 109 47q0 13 -6.5 23t-22 16t-29.5 9.5t-42 4.5t-44.5 1.5t-51.5 0.5h-11h-37l41 236h39q126 0 159 9q38 10 38 34q0 34 -60 34q-100 0 -256 -73l-94 192q192 117 400 117q152 0 227.5 -59.5t75.5 -151.5 q0 -125 -164 -203q60 -25 95.5 -76.5t35.5 -117.5q0 -37 -10 -73.5t-36.5 -75t-66.5 -67t-106 -47t-148 -18.5q-238 0 -456 158z" />
<glyph unicode="&#xb4;" horiz-adv-x="536" d="M123 1196l309 297h463l-412 -297h-360z" />
<glyph unicode="&#xb5;" horiz-adv-x="1327" d="M-82 -418l264 1493h420l-115 -649q-12 -63 1.5 -95t66.5 -32q51 0 113.5 27.5t113.5 72.5l121 676h420l-190 -1075h-420l18 100q-169 -107 -323 -120l-70 -398h-420z" />
<glyph unicode="&#xb6;" horiz-adv-x="1628" d="M92 807q0 129 38.5 235.5t103.5 178t152 120.5t182 71t196 22h383l-322 -1813h-344l131 737q-108 0 -199.5 25.5t-164.5 77t-114.5 140t-41.5 206.5zM944 -379l322 1813h346l-320 -1813h-348z" />
<glyph unicode="&#xb7;" horiz-adv-x="608" d="M41 371l76 428h413l-75 -428h-414z" />
<glyph unicode="&#xb8;" horiz-adv-x="393" d="M-90 -348l108 192q43 -22 91 -22q94 0 94 74q0 23 -8.5 50t-17.5 42l-9 16h178q5 -8 13.5 -23t22 -58.5t13.5 -84.5q0 -61 -23.5 -108t-63.5 -74t-88.5 -40t-104.5 -13q-127 0 -205 49z" />
<glyph unicode="&#xb9;" horiz-adv-x="612" d="M145 1497l301 152h275l-152 -861h-282l104 584l-155 -69z" />
<glyph unicode="&#xba;" horiz-adv-x="851" d="M117 1085q0 73 24 137t70.5 115.5t123.5 81t175 29.5q181 0 285 -81.5t104 -229.5q0 -73 -23.5 -137t-70 -115.5t-123.5 -81t-176 -29.5q-179 0 -284 82t-105 229zM406 1085q0 -49 18.5 -75.5t71.5 -26.5q31 0 54.5 17t35.5 42.5t18 49.5t6 45q0 49 -18.5 75.5 t-71.5 26.5q-31 0 -54.5 -17t-35.5 -42.5t-18 -49.5t-6 -45z" />
<glyph unicode="&#xbb;" horiz-adv-x="1384" d="M-23 0l74 414l287 155l-232 154l62 354l541 -415l-43 -248zM631 0l74 414l286 155l-231 154l61 354l541 -415l-43 -248z" />
<glyph unicode="&#xbc;" horiz-adv-x="1978" d="M156 1282l301 152h274l-151 -861h-283l104 584l-155 -70zM303 0l891 1434h330l-891 -1434h-330zM913 133l35 195l473 532h383l-88 -491h133l-37 -236h-137l-22 -133h-287l23 133h-476zM1268 369h162l43 241z" />
<glyph unicode="&#xbd;" horiz-adv-x="1992" d="M156 1282l301 152h274l-151 -861h-283l104 584l-155 -70zM303 0l891 1434h330l-891 -1434h-330zM1030 0l19 106q8 48 26.5 90.5t46 77.5t56 62.5t67.5 54t69.5 44t71.5 38.5q42 22 85.5 43t67 32t43.5 21.5t28 18.5t8 18q-3 33 -74 33q-92 0 -252 -82l-106 197 q40 22 67 35.5t83 37t119 35.5t128 12q159 0 242.5 -74t83.5 -177q0 -42 -14 -80.5t-41.5 -69.5t-57.5 -56.5t-72.5 -49t-74.5 -39t-76 -33.5q-114 -48 -146 -59h404l-41 -236h-760z" />
<glyph unicode="&#xbe;" horiz-adv-x="2134" d="M61 717l140 172q96 -53 157.5 -72.5t124.5 -19.5q109 0 109 47q0 13 -6.5 23t-22 16t-29.5 9.5t-42 4.5t-44.5 1.5t-51.5 0.5h-11h-37l41 236h39q126 0 159 9q38 10 38 34q0 34 -60 34q-100 0 -256 -73l-94 192q192 117 399 117q152 0 228 -59.5t76 -151.5 q0 -125 -164 -203q60 -25 95.5 -76.5t35.5 -117.5q0 -37 -10 -73.5t-36.5 -75t-66.5 -67t-106 -47t-148 -18.5q-239 0 -457 158zM477 0l891 1434h330l-891 -1434h-330zM1092 133l34 195l473 532h383l-88 -491h134l-37 -236h-138l-22 -133h-287l23 133h-475zM1446 369h162 l43 241z" />
<glyph unicode="&#xbf;" horiz-adv-x="1163" d="M16 360q0 86 32 158t84.5 122.5t127.5 89.5t153.5 62.5t170.5 38.5l41 105h252l-35 -334q-211 -32 -299 -71.5t-88 -100.5q0 -39 31.5 -66.5t101.5 -27.5q123 0 307 98l135 -311q-280 -146 -538 -146q-225 0 -350.5 107t-125.5 276zM563 1047l68 387h413l-67 -387h-414z " />
<glyph unicode="&#xc0;" horiz-adv-x="1490" d="M-117 0l772 1434h482l266 -1434h-463l-22 217h-433l-98 -217h-504zM528 1802h422l207 -297h-321zM639 555h242l-45 434z" />
<glyph unicode="&#xc1;" horiz-adv-x="1488" d="M-117 0l772 1434h482l266 -1434h-463l-22 217h-433l-98 -217h-504zM639 555h242l-45 434zM666 1505l309 297h463l-412 -297h-360z" />
<glyph unicode="&#xc2;" horiz-adv-x="1490" d="M-117 0l772 1434h482l266 -1434h-463l-22 217h-433l-98 -217h-504zM496 1505l278 297h379l174 -297h-262l-113 129l-159 -129h-297zM639 555h242l-45 434z" />
<glyph unicode="&#xc3;" horiz-adv-x="1490" d="M-117 0l772 1434h482l266 -1434h-463l-22 217h-433l-98 -217h-504zM506 1612q77 111 113 148q81 81 180 81q48 0 103.5 -24t102 -48t74.5 -24q52 0 127 98l162 -108q-76 -110 -111 -147q-81 -83 -182 -83q-38 0 -81 15t-74 33.5t-65.5 33.5t-57.5 15q-53 0 -129 -99z M639 555h242l-45 434z" />
<glyph unicode="&#xc4;" horiz-adv-x="1490" d="M-117 0l772 1434h482l266 -1434h-463l-22 217h-433l-98 -217h-504zM545 1526l53 297h320l-54 -297h-319zM639 555h242l-45 434zM961 1526l53 297h319l-53 -297h-319z" />
<glyph unicode="&#xc5;" horiz-adv-x="1490" d="M-117 0l772 1434h482l266 -1434h-463l-22 217h-433l-98 -217h-504zM639 555h242l-45 434zM707 1731q0 101 72 173t173 72t173.5 -72t72.5 -173t-72.5 -173.5t-173.5 -72.5t-173 72.5t-72 173.5zM893 1731q0 -25 17 -42.5t42 -17.5t42.5 17.5t17.5 42.5t-17.5 42t-42.5 17 t-42 -17t-17 -42z" />
<glyph unicode="&#xc6;" horiz-adv-x="2281" d="M-195 0l1205 1434h1329l-66 -367h-663l-31 -170h539l-64 -358h-536l-31 -172h670l-66 -367h-1106l39 217h-492l-172 -217h-555zM811 567h274l78 445z" />
<glyph unicode="&#xc7;" horiz-adv-x="1361" d="M63 551q0 213 54 385t150 285.5t228.5 174t290.5 60.5q96 0 185.5 -17.5t183 -57t146 -66.5t151.5 -82l-229 -309q-132 72 -217 105.5t-166 33.5q-82 0 -146.5 -41.5t-103 -110.5t-58.5 -151t-20 -170q0 -107 37.5 -164t128.5 -57q139 0 420 131l180 -344 q-320 -148 -582 -172q37 -71 37 -146q0 -61 -23.5 -108t-63.5 -74t-88.5 -40t-104.5 -13q-127 0 -205 49l108 192q43 -22 90 -22q95 0 95 74q0 31 -23 84q-214 15 -334.5 160.5t-120.5 410.5z" />
<glyph unicode="&#xc8;" horiz-adv-x="1296" d="M0 0l254 1434h1100l-66 -367h-663l-31 -170h539l-64 -358h-537l-30 -172h669l-65 -367h-1106zM440 1802h422l207 -297h-321z" />
<glyph unicode="&#xc9;" horiz-adv-x="1296" d="M0 0l254 1434h1100l-66 -367h-663l-31 -170h539l-64 -358h-537l-30 -172h669l-65 -367h-1106zM559 1505l309 297h463l-411 -297h-361z" />
<glyph unicode="&#xca;" horiz-adv-x="1296" d="M0 0l254 1434h1100l-66 -367h-663l-31 -170h539l-64 -358h-537l-30 -172h669l-65 -367h-1106zM406 1505l278 297h379l174 -297h-262l-113 129l-160 -129h-296z" />
<glyph unicode="&#xcb;" horiz-adv-x="1296" d="M0 0l254 1434h1100l-66 -367h-663l-31 -170h539l-64 -358h-537l-30 -172h669l-65 -367h-1106zM457 1526l53 297h319l-53 -297h-319zM872 1526l54 297h319l-53 -297h-320z" />
<glyph unicode="&#xcc;" horiz-adv-x="690" d="M0 0l254 1434h436l-254 -1434h-436zM104 1802h422l207 -297h-321z" />
<glyph unicode="&#xcd;" horiz-adv-x="700" d="M0 0l254 1434h436l-254 -1434h-436zM221 1505l309 297h463l-411 -297h-361z" />
<glyph unicode="&#xce;" horiz-adv-x="696" d="M0 0l254 1434h436l-254 -1434h-436zM68 1505l278 297h379l174 -297h-262l-113 129l-159 -129h-297z" />
<glyph unicode="&#xcf;" horiz-adv-x="696" d="M0 0l254 1434h436l-254 -1434h-436zM121 1526l53 297h320l-54 -297h-319zM537 1526l53 297h319l-53 -297h-319z" />
<glyph unicode="&#xd0;" horiz-adv-x="1570" d="M-4 553l59 330h146l98 551h512q164 0 291 -32.5t207 -86.5t131.5 -131.5t71.5 -160.5t20 -181q0 -36 -3 -76t-13 -101t-26.5 -119.5t-47 -126.5t-70.5 -126t-101 -113.5t-135 -94t-175.5 -62t-219.5 -23.5h-696l98 553h-147zM547 367h129q72 0 133 18t103 47t74.5 69.5 t52 83t32 89t17 85t4.5 75.5q0 125 -79 179t-249 54h-94l-33 -184h248l-58 -330h-247z" />
<glyph unicode="&#xd1;" horiz-adv-x="1558" d="M0 0l254 1434h440l312 -787l139 787h436l-254 -1434h-440l-312 788l-139 -788h-436zM539 1612q4 5 11 16q25 37 38.5 55.5t38 48.5t43.5 45.5t45 32.5t54.5 24t61.5 7q48 0 103.5 -24t102.5 -48t75 -24q52 0 127 98l162 -108q-76 -110 -111 -147q-81 -83 -182 -83 q-48 0 -103 24t-101.5 48.5t-74.5 24.5q-53 0 -129 -99z" />
<glyph unicode="&#xd2;" horiz-adv-x="1609" d="M63 625q0 58 8 123t31 148t58.5 159t96 150.5t138 129t190 88t246.5 33.5q357 0 553.5 -167.5t196.5 -481.5q0 -58 -8 -123t-31 -148t-58.5 -159t-96 -151t-138 -129.5t-190 -88t-246.5 -33.5q-357 0 -553.5 168t-196.5 482zM514 639q0 -151 70.5 -223t212.5 -72 q74 0 133.5 31.5t95.5 79t60.5 109.5t34 119t9.5 110q0 151 -70 222.5t-212 71.5q-74 0 -133.5 -31t-96 -79t-61 -109.5t-34 -118.5t-9.5 -110zM582 1802h422l206 -297h-321z" />
<glyph unicode="&#xd3;" horiz-adv-x="1609" d="M63 625q0 58 8 123t31 148t58.5 159t96 150.5t138 129t190 88t246.5 33.5q357 0 553.5 -167.5t196.5 -481.5q0 -58 -8 -123t-31 -148t-58.5 -159t-96 -151t-138 -129.5t-190 -88t-246.5 -33.5q-357 0 -553.5 168t-196.5 482zM514 639q0 -151 70.5 -223t212.5 -72 q74 0 133.5 31.5t95.5 79t60.5 109.5t34 119t9.5 110q0 151 -70 222.5t-212 71.5q-74 0 -133.5 -31t-96 -79t-61 -109.5t-34 -118.5t-9.5 -110zM698 1505l310 297h462l-411 -297h-361z" />
<glyph unicode="&#xd4;" horiz-adv-x="1609" d="M63 625q0 58 8 123t31 148t58.5 159t96 150.5t138 129t190 88t246.5 33.5q357 0 553.5 -167.5t196.5 -481.5q0 -58 -8 -123t-31 -148t-58.5 -159t-96 -151t-138 -129.5t-190 -88t-246.5 -33.5q-357 0 -553.5 168t-196.5 482zM514 639q0 -151 70.5 -223t212.5 -72 q74 0 133.5 31.5t95.5 79t60.5 109.5t34 119t9.5 110q0 151 -70 222.5t-212 71.5q-74 0 -133.5 -31t-96 -79t-61 -109.5t-34 -118.5t-9.5 -110zM549 1505l278 297h379l174 -297h-262l-112 129l-160 -129h-297z" />
<glyph unicode="&#xd5;" horiz-adv-x="1609" d="M63 625q0 58 8 123t31 148t58.5 159t96 150.5t138 129t190 88t246.5 33.5q357 0 553.5 -167.5t196.5 -481.5q0 -58 -8 -123t-31 -148t-58.5 -159t-96 -151t-138 -129.5t-190 -88t-246.5 -33.5q-357 0 -553.5 168t-196.5 482zM514 639q0 -151 70.5 -223t212.5 -72 q74 0 133.5 31.5t95.5 79t60.5 109.5t34 119t9.5 110q0 151 -70 222.5t-212 71.5q-74 0 -133.5 -31t-96 -79t-61 -109.5t-34 -118.5t-9.5 -110zM559 1612q77 111 113 148q81 81 180 81q48 0 103.5 -24t102.5 -48t75 -24q52 0 127 98l161 -108q-76 -110 -111 -147 q-81 -83 -182 -83q-38 0 -81 15t-74 33.5t-65.5 33.5t-57.5 15q-53 0 -129 -99z" />
<glyph unicode="&#xd6;" horiz-adv-x="1609" d="M63 625q0 58 8 123t31 148t58.5 159t96 150.5t138 129t190 88t246.5 33.5q357 0 553.5 -167.5t196.5 -481.5q0 -58 -8 -123t-31 -148t-58.5 -159t-96 -151t-138 -129.5t-190 -88t-246.5 -33.5q-357 0 -553.5 168t-196.5 482zM514 639q0 -151 70.5 -223t212.5 -72 q74 0 133.5 31.5t95.5 79t60.5 109.5t34 119t9.5 110q0 151 -70 222.5t-212 71.5q-74 0 -133.5 -31t-96 -79t-61 -109.5t-34 -118.5t-9.5 -110zM598 1526l53 297h320l-53 -297h-320zM1014 1526l53 297h319l-53 -297h-319z" />
<glyph unicode="&#xd7;" horiz-adv-x="1282" d="M109 459l307 248l-207 233l250 211l211 -238l313 252l207 -241l-307 -248l209 -236l-250 -211l-215 240l-312 -252z" />
<glyph unicode="&#xd8;" horiz-adv-x="1609" d="M-23 0l211 217q-125 159 -125 408q0 58 8 123t31 148t58.5 159t96 150.5t138 129t190 88t246.5 33.5q280 0 463 -106l82 84h291l-213 -220q127 -161 127 -407q0 -58 -8 -123t-31 -148t-58.5 -159t-96 -151t-138 -129.5t-190 -88t-246.5 -33.5q-283 0 -465 105l-80 -80 h-291zM514 639q0 -43 6 -84l486 500q-66 32 -158 32q-74 0 -133.5 -31t-96 -79t-61 -109.5t-34 -118.5t-9.5 -110zM637 377q59 -33 160 -33q74 0 133.5 31.5t95.5 79t60.5 109.5t34 119t9.5 110q0 43 -6 84z" />
<glyph unicode="&#xd9;" horiz-adv-x="1501" d="M90 528q5 75 21 166l131 740h436l-150 -844q-11 -70 -5.5 -123.5t50 -86t129.5 -32.5q65 0 112 17.5t75 53t43.5 75t25.5 96.5l150 844h436l-153 -863q-15 -88 -37 -158.5t-57.5 -140.5t-88 -121.5t-123.5 -92t-170 -61t-221 -20.5q-124 0 -222 19t-165 53t-113 85 t-70 109.5t-31.5 134t-2.5 150.5zM526 1802h422l207 -297h-321z" />
<glyph unicode="&#xda;" horiz-adv-x="1501" d="M90 528q5 75 21 166l131 740h436l-150 -844q-11 -70 -5.5 -123.5t50 -86t129.5 -32.5q65 0 112 17.5t75 53t43.5 75t25.5 96.5l150 844h436l-153 -863q-15 -88 -37 -158.5t-57.5 -140.5t-88 -121.5t-123.5 -92t-170 -61t-221 -20.5q-124 0 -222 19t-165 53t-113 85 t-70 109.5t-31.5 134t-2.5 150.5zM641 1505l309 297h463l-412 -297h-360z" />
<glyph unicode="&#xdb;" horiz-adv-x="1501" d="M90 528q5 75 21 166l131 740h436l-150 -844q-11 -70 -5.5 -123.5t50 -86t129.5 -32.5q65 0 112 17.5t75 53t43.5 75t25.5 96.5l150 844h436l-153 -863q-15 -88 -37 -158.5t-57.5 -140.5t-88 -121.5t-123.5 -92t-170 -61t-221 -20.5q-124 0 -222 19t-165 53t-113 85 t-70 109.5t-31.5 134t-2.5 150.5zM492 1505l278 297h379l174 -297h-262l-113 129l-160 -129h-296z" />
<glyph unicode="&#xdc;" horiz-adv-x="1501" d="M90 528q5 75 21 166l131 740h436l-150 -844q-11 -70 -5.5 -123.5t50 -86t129.5 -32.5q65 0 112 17.5t75 53t43.5 75t25.5 96.5l150 844h436l-153 -863q-15 -88 -37 -158.5t-57.5 -140.5t-88 -121.5t-123.5 -92t-170 -61t-221 -20.5q-124 0 -222 19t-165 53t-113 85 t-70 109.5t-31.5 134t-2.5 150.5zM543 1526l53 297h319l-53 -297h-319zM958 1526l54 297h319l-53 -297h-320z" />
<glyph unicode="&#xdd;" horiz-adv-x="1400" d="M119 1434h463l153 -482l322 482h508l-656 -865l-100 -569h-436l100 569zM590 1505l309 297h463l-412 -297h-360z" />
<glyph unicode="&#xde;" horiz-adv-x="1431" d="M0 0l254 1434h436l-37 -205h148q618 0 618 -443q0 -62 -16 -128.5t-58 -140.5t-105 -131t-168 -94.5t-236 -37.5h-355l-45 -254h-436zM545 608h205q115 0 168 46t53 118q0 56 -46 77t-132 21h-203z" />
<glyph unicode="&#xdf;" horiz-adv-x="1529" d="M-18 0l163 920q18 99 46.5 178.5t82 156.5t128.5 128t189.5 82.5t260.5 31.5q130 0 234.5 -24t171 -63t111 -91.5t63 -105.5t18.5 -109q0 -46 -13 -89.5t-32 -71.5t-37.5 -49.5t-31.5 -31.5l-13 -10q-43 -7 -84.5 -19.5t-77 -36.5t-35.5 -51q0 -22 23.5 -41.5t55.5 -34 t77 -40.5t76 -54q108 -97 108 -227q0 -157 -133 -264t-344 -107q-240 0 -485 140l168 248q53 -28 134.5 -53t143.5 -25q45 0 65.5 12.5t20.5 28.5q0 31 -61 53q-2 1 -24 9.5t-33.5 14t-36.5 18t-40.5 25t-38 31t-36.5 39.5t-28 47t-20.5 58.5t-6.5 68.5q0 68 26.5 124.5 t75.5 99t103.5 73t125.5 58.5q2 6 2 20q0 47 -46.5 80t-149.5 33q-125 0 -192.5 -67t-96.5 -228l-160 -885h-417z" />
<glyph unicode="&#xe0;" horiz-adv-x="1329" d="M23 393q0 316 146.5 510.5t381.5 194.5q58 0 108.5 -11t93.5 -33t66.5 -37t59.5 -42l18 100h420l-191 -1075h-419l16 98q-180 -121 -361 -121q-67 0 -125 22t-107.5 68.5t-78 130t-28.5 195.5zM371 1493h422l206 -297h-321zM453 440q0 -62 27 -96.5t77 -34.5 q55 0 107 28.5t116 80.5l45 254q-81 92 -168 92q-96 0 -150 -93.5t-54 -230.5z" />
<glyph unicode="&#xe1;" horiz-adv-x="1329" d="M23 393q0 316 146.5 510.5t381.5 194.5q58 0 108.5 -11t93.5 -33t66.5 -37t59.5 -42l18 100h420l-191 -1075h-419l16 98q-180 -121 -361 -121q-67 0 -125 22t-107.5 68.5t-78 130t-28.5 195.5zM453 440q0 -62 27 -96.5t77 -34.5q55 0 107 28.5t116 80.5l45 254 q-81 92 -168 92q-96 0 -150 -93.5t-54 -230.5zM485 1196l310 297h462l-411 -297h-361z" />
<glyph unicode="&#xe2;" horiz-adv-x="1329" d="M23 393q0 316 146.5 510.5t381.5 194.5q58 0 108.5 -11t93.5 -33t66.5 -37t59.5 -42l18 100h420l-191 -1075h-419l16 98q-180 -121 -361 -121q-67 0 -125 22t-107.5 68.5t-78 130t-28.5 195.5zM338 1196l278 297h379l174 -297h-262l-112 129l-160 -129h-297zM453 440 q0 -62 27 -96.5t77 -34.5q55 0 107 28.5t116 80.5l45 254q-81 92 -168 92q-96 0 -150 -93.5t-54 -230.5z" />
<glyph unicode="&#xe3;" horiz-adv-x="1329" d="M23 393q0 316 146.5 510.5t381.5 194.5q58 0 108.5 -11t93.5 -33t66.5 -37t59.5 -42l18 100h420l-191 -1075h-419l16 98q-180 -121 -361 -121q-67 0 -125 22t-107.5 68.5t-78 130t-28.5 195.5zM354 1303q77 111 113 148q81 81 180 81q48 0 103.5 -24t102.5 -48t75 -24 q52 0 127 98l162 -109q-77 -111 -113 -148q-80 -81 -180 -81q-48 0 -103 24t-101.5 48t-74.5 24q-54 0 -129 -98zM453 440q0 -62 27 -96.5t77 -34.5q55 0 107 28.5t116 80.5l45 254q-81 92 -168 92q-96 0 -150 -93.5t-54 -230.5z" />
<glyph unicode="&#xe4;" horiz-adv-x="1329" d="M23 393q0 316 146.5 510.5t381.5 194.5q58 0 108.5 -11t93.5 -33t66.5 -37t59.5 -42l18 100h420l-191 -1075h-419l16 98q-180 -121 -361 -121q-67 0 -125 22t-107.5 68.5t-78 130t-28.5 195.5zM403 1217l54 296h319l-53 -296h-320zM453 440q0 -62 27 -96.5t77 -34.5 q55 0 107 28.5t116 80.5l45 254q-81 92 -168 92q-96 0 -150 -93.5t-54 -230.5zM819 1217l53 296h320l-53 -296h-320z" />
<glyph unicode="&#xe5;" horiz-adv-x="1329" d="M23 393q0 316 146.5 510.5t381.5 194.5q58 0 108.5 -11t93.5 -33t66.5 -37t59.5 -42l18 100h420l-191 -1075h-419l16 98q-180 -121 -361 -121q-67 0 -125 22t-107.5 68.5t-78 130t-28.5 195.5zM453 440q0 -62 27 -96.5t77 -34.5q55 0 107 28.5t116 80.5l45 254 q-81 92 -168 92q-96 0 -150 -93.5t-54 -230.5zM553 1421q0 101 72.5 173.5t173.5 72.5t173 -72.5t72 -173.5t-72 -173t-173 -72t-173.5 72t-72.5 173zM739 1421q0 -25 17.5 -42t42.5 -17t42 17t17 42t-17 42.5t-42 17.5t-42.5 -17.5t-17.5 -42.5z" />
<glyph unicode="&#xe6;" horiz-adv-x="1966" d="M23 393q0 316 146.5 510.5t381.5 194.5q58 0 108.5 -11t93.5 -33t66.5 -37t59.5 -42l18 100h371q97 23 194 23q216 0 349 -90t133 -244q0 -68 -19 -121.5t-50 -89.5t-80.5 -62.5t-99 -41t-118.5 -22.5t-125.5 -10.5t-132.5 -2.5h-96q0 -62 29.5 -96.5t107.5 -34.5 q143 0 391 108l119 -285q-58 -24 -133.5 -48.5t-212 -52.5t-250.5 -28q-99 0 -189 23h-378l16 98q-180 -121 -361 -121q-67 0 -125 22t-107.5 68.5t-78 130t-28.5 195.5zM453 440q0 -62 27 -96.5t77 -34.5q55 0 107 28.5t116 80.5l45 254q-81 92 -168 92q-96 0 -150 -93.5 t-54 -230.5zM1260 625h71q98 0 156.5 27t58.5 79q0 33 -25.5 54.5t-68.5 21.5q-128 0 -192 -182z" />
<glyph unicode="&#xe7;" horiz-adv-x="1107" d="M20 430q0 135 31.5 247.5t85 189t125.5 129.5t151.5 77.5t164.5 24.5q38 0 75 -2.5t74 -10t64 -13t64.5 -18.5t56 -19t57.5 -23.5t49 -22t50 -24t44 -21.5l-182 -291q-55 27 -86.5 41t-83 30.5t-86.5 16.5q-53 0 -97 -27.5t-70 -70t-40 -88.5t-14 -88q0 -61 32 -97 t99 -36q85 0 274 82l131 -320q-266 -103 -448 -116q34 -70 34 -142q0 -61 -23.5 -108t-63.5 -74t-88.5 -40t-104.5 -13q-127 0 -205 49l109 192q43 -22 90 -22q94 0 94 74q0 40 -27 94q-156 31 -246 140.5t-90 299.5z" />
<glyph unicode="&#xe8;" horiz-adv-x="1185" d="M18 440q0 140 44 260t127 208.5t209.5 139t283.5 50.5q216 0 348.5 -89.5t132.5 -244.5q0 -68 -19 -121.5t-50 -89.5t-80.5 -62.5t-98.5 -41t-118 -22.5t-125.5 -10.5t-132.5 -2.5h-97q0 -61 30 -96t108 -35q143 0 391 108l119 -285q-58 -24 -133.5 -48.5t-212 -52.5 t-250.5 -28q-476 0 -476 463zM350 1493h422l207 -297h-322zM479 625h72q98 0 156.5 27t58.5 79q0 33 -25.5 54.5t-68.5 21.5q-129 0 -193 -182z" />
<glyph unicode="&#xe9;" horiz-adv-x="1185" d="M18 440q0 140 44 260t127 208.5t209.5 139t283.5 50.5q216 0 348.5 -89.5t132.5 -244.5q0 -68 -19 -121.5t-50 -89.5t-80.5 -62.5t-98.5 -41t-118 -22.5t-125.5 -10.5t-132.5 -2.5h-97q0 -61 30 -96t108 -35q143 0 391 108l119 -285q-58 -24 -133.5 -48.5t-212 -52.5 t-250.5 -28q-476 0 -476 463zM469 1196l309 297h463l-412 -297h-360zM479 625h72q98 0 156.5 27t58.5 79q0 33 -25.5 54.5t-68.5 21.5q-129 0 -193 -182z" />
<glyph unicode="&#xea;" horiz-adv-x="1185" d="M18 440q0 140 44 260t127 208.5t209.5 139t283.5 50.5q216 0 348.5 -89.5t132.5 -244.5q0 -68 -19 -121.5t-50 -89.5t-80.5 -62.5t-98.5 -41t-118 -22.5t-125.5 -10.5t-132.5 -2.5h-97q0 -61 30 -96t108 -35q143 0 391 108l119 -285q-58 -24 -133.5 -48.5t-212 -52.5 t-250.5 -28q-476 0 -476 463zM315 1196l279 297h379l174 -297h-262l-113 129l-160 -129h-297zM479 625h72q98 0 156.5 27t58.5 79q0 33 -25.5 54.5t-68.5 21.5q-129 0 -193 -182z" />
<glyph unicode="&#xeb;" horiz-adv-x="1185" d="M18 440q0 140 44 260t127 208.5t209.5 139t283.5 50.5q216 0 348.5 -89.5t132.5 -244.5q0 -68 -19 -121.5t-50 -89.5t-80.5 -62.5t-98.5 -41t-118 -22.5t-125.5 -10.5t-132.5 -2.5h-97q0 -61 30 -96t108 -35q143 0 391 108l119 -285q-58 -24 -133.5 -48.5t-212 -52.5 t-250.5 -28q-476 0 -476 463zM369 1217l53 296h319l-53 -296h-319zM479 625h72q98 0 156.5 27t58.5 79q0 33 -25.5 54.5t-68.5 21.5q-129 0 -193 -182zM784 1217l54 296h319l-53 -296h-320z" />
<glyph unicode="&#xec;" horiz-adv-x="620" d="M-23 0l191 1075h420l-191 -1075h-420zM16 1493h422l207 -297h-321z" />
<glyph unicode="&#xed;" horiz-adv-x="630" d="M-23 0l191 1075h420l-191 -1075h-420zM133 1196l309 297h463l-411 -297h-361z" />
<glyph unicode="&#xee;" horiz-adv-x="628" d="M-23 0l191 1075h420l-191 -1075h-420zM-18 1196l278 297h379l174 -297h-262l-113 129l-159 -129h-297z" />
<glyph unicode="&#xef;" horiz-adv-x="626" d="M-23 0l191 1075h420l-191 -1075h-420zM33 1217l53 296h320l-54 -296h-319zM449 1217l53 296h319l-53 -296h-319z" />
<glyph unicode="&#xf0;" horiz-adv-x="1349" d="M16 459q0 148 73.5 267t196 184t267.5 65q75 0 140.5 -19t105 -46t68.5 -54t41 -46l12 -19q-24 209 -201 278l-57 -65h-320l90 102q-36 -2 -72.5 -5.5t-55.5 -6.5l-19 -2l10 319q92 23 225 23q88 0 185 -17l67 76h318l-142 -162q173 -98 264 -271t91 -384 q0 -151 -47.5 -278.5t-135.5 -221t-223 -146.5t-301 -53q-271 0 -425.5 131t-154.5 351zM457 449q0 -68 39.5 -111t130.5 -43q115 0 170 59t55 146q0 70 -40 113.5t-132 43.5q-111 0 -167 -60t-56 -148z" />
<glyph unicode="&#xf1;" d="M-23 0l191 1075h420l-19 -102q195 125 369 125q185 0 262 -107t43 -297l-123 -694h-420l115 649q12 63 -1.5 95t-65.5 32t-114.5 -27.5t-117.5 -72.5l-119 -676h-420zM356 1303q77 111 113 148q81 81 180 81q48 0 103.5 -24t102.5 -48t75 -24q52 0 127 98l162 -109 q-77 -111 -113 -148q-80 -81 -180 -81q-48 0 -103 24t-101.5 48t-74.5 24q-54 0 -129 -98z" />
<glyph unicode="&#xf2;" horiz-adv-x="1298" d="M18 483q0 125 38.5 234t113 195t196.5 136t277 50q280 0 442 -132.5t162 -373.5q0 -125 -38 -234t-112.5 -195t-196.5 -136t-277 -50q-281 0 -443 132.5t-162 373.5zM367 1493h421l207 -297h-321zM440 479q0 -184 172 -184q70 0 120 46t71.5 112.5t21.5 142.5 q0 184 -172 184q-70 0 -120 -46t-71.5 -112.5t-21.5 -142.5z" />
<glyph unicode="&#xf3;" horiz-adv-x="1298" d="M18 483q0 125 38.5 234t113 195t196.5 136t277 50q280 0 442 -132.5t162 -373.5q0 -125 -38 -234t-112.5 -195t-196.5 -136t-277 -50q-281 0 -443 132.5t-162 373.5zM440 479q0 -184 172 -184q70 0 120 46t71.5 112.5t21.5 142.5q0 184 -172 184q-70 0 -120 -46 t-71.5 -112.5t-21.5 -142.5zM485 1196l310 297h462l-411 -297h-361z" />
<glyph unicode="&#xf4;" horiz-adv-x="1298" d="M18 483q0 125 38.5 234t113 195t196.5 136t277 50q280 0 442 -132.5t162 -373.5q0 -125 -38 -234t-112.5 -195t-196.5 -136t-277 -50q-281 0 -443 132.5t-162 373.5zM332 1196l278 297h379l174 -297h-262l-113 129l-159 -129h-297zM440 479q0 -184 172 -184q70 0 120 46 t71.5 112.5t21.5 142.5q0 184 -172 184q-70 0 -120 -46t-71.5 -112.5t-21.5 -142.5z" />
<glyph unicode="&#xf5;" horiz-adv-x="1298" d="M18 483q0 125 38.5 234t113 195t196.5 136t277 50q280 0 442 -132.5t162 -373.5q0 -125 -38 -234t-112.5 -195t-196.5 -136t-277 -50q-281 0 -443 132.5t-162 373.5zM346 1303q77 111 113 148q81 81 180 81q48 0 103.5 -24t102.5 -48t75 -24q52 0 127 98l161 -109 q-77 -111 -113 -148q-80 -81 -180 -81q-48 0 -103 24t-101 48t-74 24q-54 0 -129 -98zM440 479q0 -184 172 -184q70 0 120 46t71.5 112.5t21.5 142.5q0 184 -172 184q-70 0 -120 -46t-71.5 -112.5t-21.5 -142.5z" />
<glyph unicode="&#xf6;" horiz-adv-x="1298" d="M18 483q0 125 38.5 234t113 195t196.5 136t277 50q280 0 442 -132.5t162 -373.5q0 -125 -38 -234t-112.5 -195t-196.5 -136t-277 -50q-281 0 -443 132.5t-162 373.5zM387 1217l53 296h320l-53 -296h-320zM440 479q0 -184 172 -184q70 0 120 46t71.5 112.5t21.5 142.5 q0 184 -172 184q-70 0 -120 -46t-71.5 -112.5t-21.5 -142.5zM803 1217l53 296h320l-54 -296h-319z" />
<glyph unicode="&#xf7;" horiz-adv-x="1280" d="M92 528l55 310h1067l-55 -310h-1067zM399 285q0 75 54 128.5t129 53.5t128.5 -53.5t53.5 -128.5t-53.5 -129t-128.5 -54t-129 54t-54 129zM541 1083q0 75 53.5 129t128.5 54t128.5 -54t53.5 -129t-53.5 -128.5t-128.5 -53.5t-128.5 53.5t-53.5 128.5z" />
<glyph unicode="&#xf8;" horiz-adv-x="1298" d="M-49 0l170 166q-105 124 -105 317q0 125 38.5 234t113 195t196.5 136t277 50q215 0 363 -80l57 57h227l-160 -155q117 -126 117 -328q0 -125 -38 -234t-112.5 -195t-196.5 -136t-277 -50q-223 0 -373 84l-64 -61h-233zM438 471l301 291q-37 18 -88 18q-70 0 -120 -46 t-71.5 -112.5t-21.5 -142.5v-8zM510 317q42 -22 100 -22q70 0 120 46t71.5 112.5t21.5 142.5q0 17 -2 25z" />
<glyph unicode="&#xf9;" d="M35 381l123 694h420l-115 -649q-14 -57 0 -92t67 -35q51 0 114 28t114 72l121 676h419l-190 -1075h-420l19 100q-197 -123 -369 -123q-185 0 -260.5 106.5t-42.5 297.5zM367 1493h421l207 -297h-321z" />
<glyph unicode="&#xfa;" d="M35 381l123 694h420l-115 -649q-14 -57 0 -92t67 -35q51 0 114 28t114 72l121 676h419l-190 -1075h-420l19 100q-197 -123 -369 -123q-185 0 -260.5 106.5t-42.5 297.5zM485 1196l310 297h462l-411 -297h-361z" />
<glyph unicode="&#xfb;" d="M35 381l123 694h420l-115 -649q-14 -57 0 -92t67 -35q51 0 114 28t114 72l121 676h419l-190 -1075h-420l19 100q-197 -123 -369 -123q-185 0 -260.5 106.5t-42.5 297.5zM332 1196l278 297h379l174 -297h-262l-113 129l-159 -129h-297z" />
<glyph unicode="&#xfc;" d="M35 381l123 694h420l-115 -649q-14 -57 0 -92t67 -35q51 0 114 28t114 72l121 676h419l-190 -1075h-420l19 100q-197 -123 -369 -123q-185 0 -260.5 106.5t-42.5 297.5zM387 1217l53 296h320l-53 -296h-320zM803 1217l53 296h320l-54 -296h-319z" />
<glyph unicode="&#xfd;" horiz-adv-x="1230" d="M-14 -170q23 8 74 25.5t71 25.5t54 23.5t58 33.5t48 42l-225 1095h434l71 -575l277 575h467l-592 -1075q-79 -142 -129 -205q-140 -178 -383 -250q-63 -19 -135 -32zM446 1196l310 297h463l-412 -297h-361z" />
<glyph unicode="&#xfe;" horiz-adv-x="1327" d="M-94 -418l338 1911h420l-93 -516q187 121 357 121q54 0 102.5 -13t93.5 -44t77 -78t51.5 -119t19.5 -162q0 -315 -146.5 -510t-380.5 -195q-58 0 -108.5 10.5t-94 32.5t-66.5 36.5t-60 41.5l-90 -516h-420zM469 401q79 -90 170 -90q95 0 150 93.5t55 230.5q0 62 -28 96.5 t-81 34.5q-56 0 -108.5 -29.5t-112.5 -81.5z" />
<glyph unicode="&#xff;" horiz-adv-x="1230" d="M-14 -170q23 8 74 25.5t71 25.5t54 23.5t58 33.5t48 42l-225 1095h434l71 -575l277 575h467l-592 -1075q-79 -142 -129 -205q-140 -178 -383 -250q-63 -19 -135 -32zM346 1217l53 296h320l-53 -296h-320zM762 1217l53 296h320l-54 -296h-319z" />
<glyph unicode="&#x100;" horiz-adv-x="1490" d="M-117 0l772 1434h482l266 -1434h-463l-22 217h-433l-98 -217h-504zM588 1556l41 234h655l-41 -234h-655zM639 555h242l-45 434z" />
<glyph unicode="&#x101;" horiz-adv-x="1329" d="M23 393q0 316 146.5 510.5t381.5 194.5q58 0 108.5 -11t93.5 -33t66.5 -37t59.5 -42l18 100h420l-191 -1075h-419l16 98q-180 -121 -361 -121q-67 0 -125 22t-107.5 68.5t-78 130t-28.5 195.5zM430 1247l41 234h655l-41 -234h-655zM453 440q0 -62 27 -96.5t77 -34.5 q55 0 107 28.5t116 80.5l45 254q-81 92 -168 92q-96 0 -150 -93.5t-54 -230.5z" />
<glyph unicode="&#x102;" horiz-adv-x="1490" d="M-117 0l772 1434h482l266 -1434h-463l-22 217h-433l-98 -217h-504zM582 1788h243q-5 -30 23 -50t78 -20q69 0 114 20t50 50h245q-22 -133 -129.5 -208t-281.5 -75q-181 0 -271 79t-71 204zM639 555h242l-45 434z" />
<glyph unicode="&#x103;" horiz-adv-x="1329" d="M23 393q0 316 146.5 510.5t381.5 194.5q58 0 108.5 -11t93.5 -33t66.5 -37t59.5 -42l18 100h420l-191 -1075h-419l16 98q-180 -121 -361 -121q-67 0 -125 22t-107.5 68.5t-78 130t-28.5 195.5zM422 1479h244q-5 -30 22.5 -50t77.5 -20q69 0 114 20t50 50h246 q-22 -133 -130 -208t-282 -75q-181 0 -271 79t-71 204zM453 440q0 -62 27 -96.5t77 -34.5q55 0 107 28.5t116 80.5l45 254q-81 92 -168 92q-96 0 -150 -93.5t-54 -230.5z" />
<glyph unicode="&#x104;" horiz-adv-x="1490" d="M-117 0l772 1434h482l266 -1434h-6q-217 -111 -217 -199q0 -19 10 -30.5t30 -16t33.5 -5.5t39 0t26.5 1l-66 -170q-2 0 -25.5 -0.5t-39.5 0t-46 2t-52 6.5t-49.5 13t-47 22t-37.5 32.5t-27 46t-9 60.5q0 136 235 238h-215l-22 217h-433l-98 -217h-504zM639 555h242 l-45 434z" />
<glyph unicode="&#x105;" horiz-adv-x="1329" d="M23 393q0 316 146.5 510.5t381.5 194.5q58 0 108.5 -11t93.5 -33t66.5 -37t59.5 -42l18 100h420l-191 -1075h-6q-217 -111 -217 -199q0 -19 10 -30.5t30 -16t33.5 -5.5t39 0t26.5 1l-65 -170q-2 0 -26 -0.5t-40 0t-45.5 2t-51.5 6.5t-50 13t-47.5 22t-37.5 32.5t-27 46 t-9 60.5q0 135 236 238h-172l16 98q-180 -121 -361 -121q-67 0 -125 22t-107.5 68.5t-78 130t-28.5 195.5zM453 440q0 -62 27 -96.5t77 -34.5q55 0 107 28.5t116 80.5l45 254q-81 92 -168 92q-96 0 -150 -93.5t-54 -230.5z" />
<glyph unicode="&#x106;" horiz-adv-x="1363" d="M63 551q0 213 54 385t150 285.5t228.5 174t290.5 60.5q96 0 185.5 -17.5t183 -57t146 -66.5t151.5 -82l-229 -309q-132 72 -217 105.5t-166 33.5q-82 0 -146.5 -41.5t-103 -110.5t-58.5 -151t-20 -170q0 -107 37.5 -164t128.5 -57q139 0 420 131l180 -344 q-191 -88 -362 -133.5t-347 -45.5q-237 0 -371.5 147t-134.5 427zM688 1505l309 297h463l-411 -297h-361z" />
<glyph unicode="&#x107;" horiz-adv-x="1087" d="M20 430q0 135 31.5 247.5t85 189t125.5 129.5t151.5 77.5t164.5 24.5q38 0 75 -2.5t74 -10t64 -13t64.5 -18.5t56 -19t57.5 -23.5t49 -22t50 -24t44 -21.5l-182 -291q-55 27 -86.5 41t-83 30.5t-86.5 16.5q-53 0 -97 -27.5t-70 -70t-40 -88.5t-14 -88q0 -61 32 -97 t99 -36q85 0 274 82l131 -320q-309 -119 -504 -119q-100 0 -183 26.5t-147 80t-99.5 142t-35.5 204.5zM424 1196l309 297h463l-412 -297h-360z" />
<glyph unicode="&#x10a;" horiz-adv-x="1361" d="M63 551q0 213 54 385t150 285.5t228.5 174t290.5 60.5q96 0 185.5 -17.5t183 -57t146 -66.5t151.5 -82l-229 -309q-132 72 -217 105.5t-166 33.5q-82 0 -146.5 -41.5t-103 -110.5t-58.5 -151t-20 -170q0 -107 37.5 -164t128.5 -57q139 0 420 131l180 -344 q-191 -88 -362 -133.5t-347 -45.5q-237 0 -371.5 147t-134.5 427zM727 1526l51 297h320l-51 -297h-320z" />
<glyph unicode="&#x10b;" horiz-adv-x="1089" d="M20 430q0 135 31.5 247.5t85 189t125.5 129.5t151.5 77.5t164.5 24.5q38 0 75 -2.5t74 -10t64 -13t64.5 -18.5t56 -19t57.5 -23.5t49 -22t50 -24t44 -21.5l-182 -291q-55 27 -86.5 41t-83 30.5t-86.5 16.5q-53 0 -97 -27.5t-70 -70t-40 -88.5t-14 -88q0 -61 32 -97 t99 -36q85 0 274 82l131 -320q-309 -119 -504 -119q-100 0 -183 26.5t-147 80t-99.5 142t-35.5 204.5zM530 1217l52 296h319l-51 -296h-320z" />
<glyph unicode="&#x10c;" horiz-adv-x="1361" d="M63 551q0 213 54 385t150 285.5t228.5 174t290.5 60.5q96 0 185.5 -17.5t183 -57t146 -66.5t151.5 -82l-229 -309q-132 72 -217 105.5t-166 33.5q-82 0 -146.5 -41.5t-103 -110.5t-58.5 -151t-20 -170q0 -107 37.5 -164t128.5 -57q139 0 420 131l180 -344 q-191 -88 -362 -133.5t-347 -45.5q-237 0 -371.5 147t-134.5 427zM522 1802h262l113 -129l160 129h297l-279 -297h-379z" />
<glyph unicode="&#x10d;" horiz-adv-x="1087" d="M20 430q0 135 31.5 247.5t85 189t125.5 129.5t151.5 77.5t164.5 24.5q38 0 75 -2.5t74 -10t64 -13t64.5 -18.5t56 -19t57.5 -23.5t49 -22t50 -24t44 -21.5l-182 -291q-55 27 -86.5 41t-83 30.5t-86.5 16.5q-53 0 -97 -27.5t-70 -70t-40 -88.5t-14 -88q0 -61 32 -97 t99 -36q85 0 274 82l131 -320q-309 -119 -504 -119q-100 0 -183 26.5t-147 80t-99.5 142t-35.5 204.5zM324 1493h262l112 -129l160 129h297l-278 -297h-379z" />
<glyph unicode="&#x10e;" horiz-adv-x="1525" d="M0 0l254 1434h512q164 0 291 -32.5t207 -86.5t131.5 -131.5t71.5 -160.5t20 -181q0 -36 -3 -76t-13 -101t-26.5 -119.5t-47 -126.5t-70.5 -126t-101 -113.5t-135 -94t-175.5 -62t-219.5 -23.5h-696zM502 367h129q72 0 133 18t103 47t74.5 69.5t52 83t32 89t17 85 t4.5 75.5q0 125 -79 179t-249 54h-94zM571 1802h263l112 -129l160 129h297l-279 -297h-379z" />
<glyph unicode="&#x10f;" horiz-adv-x="1525" d="M23 393q0 316 146.5 510.5t381.5 194.5q75 0 144 -22.5t102.5 -43.5t81.5 -57l92 518h420l-265 -1493h-419l16 98q-180 -121 -361 -121q-67 0 -125 22t-107.5 68.5t-78 130t-28.5 195.5zM453 440q0 -62 27 -96.5t77 -34.5q55 0 107 28.5t116 80.5l45 254q-81 92 -168 92 q-96 0 -150 -93.5t-54 -230.5zM1401 1034l155 166h-124l51 293h284l-43 -332l-266 -219z" />
<glyph unicode="&#x110;" horiz-adv-x="1568" d="M-4 553l57 330h148l98 551h512q164 0 291 -32.5t207 -86.5t131.5 -131.5t71.5 -160.5t20 -181q0 -36 -3 -76t-13 -101t-26.5 -119.5t-47 -126.5t-70.5 -126t-101 -113.5t-135 -94t-175.5 -62t-219.5 -23.5h-696l98 553h-147zM547 367h129q72 0 133 18t103 47t74.5 69.5 t52 83t32 89t17 85t4.5 75.5q0 125 -79 179t-249 54h-94l-33 -184h254l-60 -330h-251z" />
<glyph unicode="&#x111;" horiz-adv-x="1337" d="M23 393q0 316 146.5 510.5t381.5 194.5q75 0 144 -22.5t102.5 -43.5t81.5 -57l32 182h-344l37 234h348l19 102h420l-19 -102h113l-39 -234h-115l-205 -1157h-419l16 98q-180 -121 -361 -121q-67 0 -125 22t-107.5 68.5t-78 130t-28.5 195.5zM453 440q0 -62 27 -96.5 t77 -34.5q55 0 107 28.5t116 80.5l45 254q-81 92 -168 92q-96 0 -150 -93.5t-54 -230.5z" />
<glyph unicode="&#x112;" horiz-adv-x="1296" d="M0 0l254 1434h1100l-66 -367h-663l-31 -170h539l-64 -358h-537l-30 -172h669l-65 -367h-1106zM500 1556l41 234h655l-41 -234h-655z" />
<glyph unicode="&#x113;" horiz-adv-x="1185" d="M18 440q0 140 44 260t127 208.5t209.5 139t283.5 50.5q216 0 348.5 -89.5t132.5 -244.5q0 -68 -19 -121.5t-50 -89.5t-80.5 -62.5t-98.5 -41t-118 -22.5t-125.5 -10.5t-132.5 -2.5h-97q0 -61 30 -96t108 -35q143 0 391 108l119 -285q-58 -24 -133.5 -48.5t-212 -52.5 t-250.5 -28q-476 0 -476 463zM408 1247l41 234h655l-41 -234h-655zM479 625h72q98 0 156.5 27t58.5 79q0 33 -25.5 54.5t-68.5 21.5q-129 0 -193 -182z" />
<glyph unicode="&#x116;" horiz-adv-x="1296" d="M0 0l254 1434h1100l-66 -367h-663l-31 -170h539l-64 -358h-537l-30 -172h669l-65 -367h-1106zM666 1526l51 297h319l-51 -297h-319z" />
<glyph unicode="&#x117;" horiz-adv-x="1185" d="M18 440q0 140 44 260t127 208.5t209.5 139t283.5 50.5q216 0 348.5 -89.5t132.5 -244.5q0 -68 -19 -121.5t-50 -89.5t-80.5 -62.5t-98.5 -41t-118 -22.5t-125.5 -10.5t-132.5 -2.5h-97q0 -61 30 -96t108 -35q143 0 391 108l119 -285q-58 -24 -133.5 -48.5t-212 -52.5 t-250.5 -28q-476 0 -476 463zM479 625h72q98 0 156.5 27t58.5 79q0 33 -25.5 54.5t-68.5 21.5q-129 0 -193 -182zM573 1217l52 296h319l-51 -296h-320z" />
<glyph unicode="&#x118;" horiz-adv-x="1296" d="M0 0l254 1434h1100l-66 -367h-663l-31 -170h539l-64 -358h-537l-30 -172h669l-65 -367h-2q-221 -113 -221 -199q0 -19 10 -30.5t30 -16t33.5 -5.5t39 0t26.5 1l-66 -170q-2 0 -25.5 -0.5t-39.5 0t-46 2t-52 6.5t-49.5 13t-47 22t-37.5 32.5t-27 46t-9 60.5q0 136 235 238 h-858z" />
<glyph unicode="&#x119;" horiz-adv-x="1187" d="M18 440q0 140 44 260t127 208.5t209.5 139t283.5 50.5q216 0 348.5 -89.5t132.5 -244.5q0 -68 -19 -121.5t-50 -89.5t-80.5 -62.5t-98.5 -41t-118 -22.5t-125.5 -10.5t-132.5 -2.5h-97q0 -61 30 -96t108 -35q143 0 391 108l119 -285q-174 -73 -388 -108 q-208 -109 -208 -197q0 -19 10 -30.5t30 -16t33.5 -5.5t39 0t26.5 1l-66 -170q-2 0 -26 -0.5t-40 0t-45.5 2t-51.5 6.5t-50 13t-47.5 22t-37.5 32.5t-27 46t-9 60.5q0 126 193 218q-408 30 -408 460zM479 625h72q98 0 156.5 27t58.5 79q0 33 -25.5 54.5t-68.5 21.5 q-129 0 -193 -182z" />
<glyph unicode="&#x11a;" horiz-adv-x="1296" d="M0 0l254 1434h1100l-66 -367h-663l-31 -170h539l-64 -358h-537l-30 -172h669l-65 -367h-1106zM459 1802h262l113 -129l159 129h297l-278 -297h-379z" />
<glyph unicode="&#x11b;" horiz-adv-x="1185" d="M18 440q0 140 44 260t127 208.5t209.5 139t283.5 50.5q216 0 348.5 -89.5t132.5 -244.5q0 -68 -19 -121.5t-50 -89.5t-80.5 -62.5t-98.5 -41t-118 -22.5t-125.5 -10.5t-132.5 -2.5h-97q0 -61 30 -96t108 -35q143 0 391 108l119 -285q-58 -24 -133.5 -48.5t-212 -52.5 t-250.5 -28q-476 0 -476 463zM369 1493h262l112 -129l160 129h297l-278 -297h-379zM479 625h72q98 0 156.5 27t58.5 79q0 33 -25.5 54.5t-68.5 21.5q-129 0 -193 -182z" />
<glyph unicode="&#x11e;" horiz-adv-x="1474" d="M66 551q0 213 55 385.5t152.5 285.5t232 173.5t293.5 60.5q82 0 164.5 -14.5t143.5 -32t141.5 -53.5t123 -58t123.5 -65l-229 -309q-136 71 -229.5 105t-184.5 34q-84 0 -150.5 -41.5t-106.5 -110.5t-60.5 -151t-20.5 -170q0 -43 4 -75.5t15.5 -65.5t31 -54.5t53 -35 t78.5 -13.5q70 0 147.5 40.5t133.5 88.5l8 47h-285l60 338h682l-152 -860h-397l20 117q-178 -140 -362 -140q-218 0 -351.5 148.5t-133.5 425.5zM563 1788h244q-5 -30 22.5 -50t77.5 -20q69 0 114 20t50 50h246q-22 -133 -130 -208t-282 -75q-181 0 -271 79t-71 204z" />
<glyph unicode="&#x11f;" horiz-adv-x="1329" d="M-72 -344l129 315q104 -34 227.5 -59t215.5 -25q107 0 150.5 34.5t56.5 109.5l10 63q-185 -117 -355 -117q-67 0 -125 22t-107.5 68.5t-78 130t-28.5 195.5q0 316 146.5 510.5t381.5 194.5q57 0 106.5 -10.5t91.5 -31t66.5 -36.5t58.5 -41l17 96h420l-181 -1022 q-25 -147 -69.5 -242t-117.5 -150.5t-166 -77t-230 -21.5q-298 0 -619 94zM440 1479h244q-5 -30 22.5 -50t77.5 -20q69 0 114 20t50 50h246q-22 -133 -130 -208t-282 -75q-181 0 -271 79t-71 204zM451 440q0 -62 27.5 -96.5t78.5 -34.5q54 0 105 27t112 76l47 264 q-78 88 -166 88q-93 0 -148.5 -94t-55.5 -230z" />
<glyph unicode="&#x120;" horiz-adv-x="1474" d="M66 551q0 213 55 385.5t152.5 285.5t232 173.5t293.5 60.5q82 0 164.5 -14.5t143.5 -32t141.5 -53.5t123 -58t123.5 -65l-229 -309q-136 71 -229.5 105t-184.5 34q-84 0 -150.5 -41.5t-106.5 -110.5t-60.5 -151t-20.5 -170q0 -43 4 -75.5t15.5 -65.5t31 -54.5t53 -35 t78.5 -13.5q70 0 147.5 40.5t133.5 88.5l8 47h-285l60 338h682l-152 -860h-397l20 117q-178 -140 -362 -140q-218 0 -351.5 148.5t-133.5 425.5zM733 1526l51 297h320l-51 -297h-320z" />
<glyph unicode="&#x121;" horiz-adv-x="1329" d="M-72 -344l129 315q104 -34 227.5 -59t215.5 -25q107 0 150.5 34.5t56.5 109.5l10 63q-185 -117 -355 -117q-67 0 -125 22t-107.5 68.5t-78 130t-28.5 195.5q0 316 146.5 510.5t381.5 194.5q57 0 106.5 -10.5t91.5 -31t66.5 -36.5t58.5 -41l17 96h420l-181 -1022 q-25 -147 -69.5 -242t-117.5 -150.5t-166 -77t-230 -21.5q-298 0 -619 94zM451 440q0 -62 27.5 -96.5t78.5 -34.5q54 0 105 27t112 76l47 264q-78 88 -166 88q-93 0 -148.5 -94t-55.5 -230zM608 1217l51 296h320l-51 -296h-320z" />
<glyph unicode="&#x122;" horiz-adv-x="1474" d="M66 551q0 213 55 385.5t152.5 285.5t232 173.5t293.5 60.5q82 0 164.5 -14.5t143.5 -32t141.5 -53.5t123 -58t123.5 -65l-229 -309q-136 71 -229.5 105t-184.5 34q-84 0 -150.5 -41.5t-106.5 -110.5t-60.5 -151t-20.5 -170q0 -43 4 -75.5t15.5 -65.5t31 -54.5t53 -35 t78.5 -13.5q70 0 147.5 40.5t133.5 88.5l8 47h-285l60 338h682l-152 -860h-397l20 117q-178 -140 -362 -140q-218 0 -351.5 148.5t-133.5 425.5zM414 -563l155 166h-125l52 293h284l-43 -332l-266 -219z" />
<glyph unicode="&#x123;" horiz-adv-x="1329" d="M-72 -344l129 315q104 -34 227.5 -59t215.5 -25q107 0 150.5 34.5t56.5 109.5l10 63q-185 -117 -355 -117q-67 0 -125 22t-107.5 68.5t-78 130t-28.5 195.5q0 316 146.5 510.5t381.5 194.5q57 0 106.5 -10.5t91.5 -31t66.5 -36.5t58.5 -41l17 96h420l-181 -1022 q-25 -147 -69.5 -242t-117.5 -150.5t-166 -77t-230 -21.5q-298 0 -619 94zM451 440q0 -62 27.5 -96.5t78.5 -34.5q54 0 105 27t112 76l47 264q-78 88 -166 88q-93 0 -148.5 -94t-55.5 -230zM647 1217l43 331l266 219l58 -92l-156 -166h125l-51 -292h-285z" />
<glyph unicode="&#x126;" horiz-adv-x="1593" d="M29 0l184 1047h-150l41 233h150l29 154h436l-29 -154h422l29 154h436l-29 -154h154l-41 -233h-154l-184 -1047h-436l100 573h-422l-100 -573h-436zM629 932h422l20 115h-422z" />
<glyph unicode="&#x127;" d="M-23 0l205 1157h-114l41 234h114l19 102h420l-19 -102h344l-41 -234h-344l-33 -184q195 125 369 125q185 0 262 -107t43 -297l-123 -694h-422l117 649q12 63 -1.5 95t-65.5 32t-114.5 -27.5t-117.5 -72.5l-119 -676h-420z" />
<glyph unicode="&#x128;" horiz-adv-x="698" d="M0 0l254 1434h436l-254 -1434h-436zM84 1612q77 111 113 148q80 81 180 81q48 0 103.5 -24t102 -48t74.5 -24q52 0 127 98l162 -108q-76 -110 -111 -147q-81 -83 -182 -83q-38 0 -81 15t-74 33.5t-65.5 33.5t-57.5 15q-53 0 -129 -99z" />
<glyph unicode="&#x129;" horiz-adv-x="628" d="M-23 0l191 1075h420l-191 -1075h-420zM-2 1303q77 111 113 148q80 81 180 81q48 0 103.5 -24t102 -48t74.5 -24q52 0 127 98l162 -109q-77 -111 -113 -148q-81 -81 -180 -81q-48 0 -103 24t-101 48t-74 24q-54 0 -129 -98z" />
<glyph unicode="&#x12a;" horiz-adv-x="694" d="M0 0l254 1434h436l-254 -1434h-436zM164 1556l41 234h655l-41 -234h-655z" />
<glyph unicode="&#x12b;" horiz-adv-x="626" d="M-23 0l191 1075h420l-191 -1075h-420zM76 1247l41 234h655l-41 -234h-655z" />
<glyph unicode="&#x12c;" horiz-adv-x="696" d="M0 0l254 1434h436l-254 -1434h-436zM158 1788h243q-5 -30 23 -50t78 -20q69 0 114 20t50 50h245q-22 -133 -129.5 -208t-281.5 -75q-181 0 -271 79t-71 204z" />
<glyph unicode="&#x12d;" horiz-adv-x="628" d="M-23 0l191 1075h420l-191 -1075h-420zM70 1479h243q-5 -30 23 -50t78 -20q69 0 114 20t50 50h245q-22 -133 -129.5 -208t-281.5 -75q-181 0 -271 79t-71 204z" />
<glyph unicode="&#x12e;" horiz-adv-x="688" d="M-31 -238q0 135 236 238h-187l254 1434h437l-254 -1434h-9q-217 -111 -217 -199q0 -19 10 -30.5t30.5 -16t34 -5.5t39 0t26.5 1l-66 -170q-2 0 -26 -0.5t-40 0t-45.5 2t-51.5 6.5t-50 13t-47.5 22t-37.5 32.5t-27 46t-9 60.5z" />
<glyph unicode="&#x12f;" horiz-adv-x="624" d="M-68 -238q0 135 236 238h-170l190 1075h420l-190 -1075h-8q-217 -111 -217 -199q0 -19 10 -30.5t30 -16t33.5 -5.5t39 0t26.5 1l-66 -170q-2 0 -26 -0.5t-40 0t-45.5 2t-51.5 6.5t-50 13t-47.5 22t-37.5 32.5t-27 46t-9 60.5zM201 1174l55 313h430l-55 -313h-430z" />
<glyph unicode="&#x130;" horiz-adv-x="688" d="M0 0l254 1434h436l-254 -1434h-436zM328 1526l51 297h319l-51 -297h-319z" />
<glyph unicode="&#x131;" horiz-adv-x="620" d="M-23 0l191 1075h420l-191 -1075h-420z" />
<glyph unicode="&#x132;" horiz-adv-x="1380" d="M0 0l254 1434h436l-254 -1434h-436zM432 -82q91 27 139.5 45.5t79.5 45t42 53.5t20 79l229 1293h438l-225 -1268q-32 -181 -57 -248q-45 -122 -154 -192q-129 -85 -416 -144z" />
<glyph unicode="&#x133;" horiz-adv-x="1249" d="M-23 0l191 1075h420l-191 -1075h-420zM180 1174l56 313h430l-56 -313h-430zM324 -174q66 21 106.5 35.5t73.5 31.5t48.5 29.5t28.5 35.5t17.5 42.5t11.5 56.5l181 1018h419l-174 -981q-32 -182 -58 -250q-47 -122 -158 -192q-128 -82 -408 -139zM803 1174l55 313h430 l-55 -313h-430z" />
<glyph unicode="&#x134;" horiz-adv-x="706" d="M-231 -82q119 35 173 62.5t74 60t33 100.5l230 1293h438l-225 -1268q-32 -181 -57 -248q-45 -122 -154 -192q-129 -85 -416 -144zM96 1505l279 297h379l174 -297h-262l-113 129l-160 -129h-297z" />
<glyph unicode="&#x135;" horiz-adv-x="638" d="M-270 -174q66 21 106.5 35.5t73 32t48 29.5t28 35t17 42t11.5 57l183 1018h419l-176 -981q-32 -181 -57 -249q-46 -122 -155 -192q-128 -82 -410 -140zM10 1196l279 297h379l174 -297h-262l-113 129l-160 -129h-297z" />
<glyph unicode="&#x136;" horiz-adv-x="1501" d="M0 0l254 1434h436l-86 -488l469 488h580l-692 -656l444 -778h-479l-267 494l-163 -156l-60 -338h-436zM383 -563l156 166h-125l51 293h285l-43 -332l-267 -219z" />
<glyph unicode="&#x137;" horiz-adv-x="1263" d="M-23 0l265 1493h420l-123 -696l247 278h521l-453 -438l322 -637h-426l-175 367l-137 -131l-41 -236h-420zM279 -563l155 166h-125l51 293h285l-43 -332l-266 -219z" />
<glyph unicode="&#x138;" horiz-adv-x="1263" d="M-23 0l191 1075h420l-49 -278l247 278h521l-453 -438l322 -637h-426l-175 367l-137 -131l-41 -236h-420z" />
<glyph unicode="&#x139;" horiz-adv-x="1208" d="M0 0l254 1434h436l-190 -1076h639l-64 -358h-1075zM221 1505l309 297h463l-411 -297h-361z" />
<glyph unicode="&#x13a;" horiz-adv-x="634" d="M-23 0l265 1493h420l-265 -1493h-420zM197 1565l309 297h463l-412 -297h-360z" />
<glyph unicode="&#x13b;" horiz-adv-x="1208" d="M0 0l254 1434h436l-190 -1076h639l-64 -358h-1075zM287 -563l155 166h-125l52 293h284l-43 -332l-266 -219z" />
<glyph unicode="&#x13c;" horiz-adv-x="622" d="M-88 -563l156 166h-125l51 293h285l-43 -332l-267 -219zM-23 0l265 1493h420l-265 -1493h-420z" />
<glyph unicode="&#x13d;" horiz-adv-x="1208" d="M0 0l254 1434h436l-190 -1076h639l-64 -358h-1075zM700 975l156 166h-125l51 293h285l-43 -332l-266 -219z" />
<glyph unicode="&#x13e;" horiz-adv-x="817" d="M-23 0l265 1493h420l-265 -1493h-420zM672 1034l155 166h-125l52 293h284l-43 -332l-266 -219z" />
<glyph unicode="&#x13f;" horiz-adv-x="1208" d="M0 0l254 1434h436l-190 -1076h639l-64 -358h-1075zM784 614l52 297h319l-51 -297h-320z" />
<glyph unicode="&#x140;" horiz-adv-x="929" d="M-23 0l265 1493h420l-265 -1493h-420zM590 614l51 297h320l-52 -297h-319z" />
<glyph unicode="&#x141;" horiz-adv-x="1245" d="M-33 342l62 375l147 76l115 641h436l-70 -396l285 148l-63 -377l-289 -147l-53 -304h639l-64 -358h-1075l74 416z" />
<glyph unicode="&#x142;" horiz-adv-x="710" d="M-25 373l62 375l129 67l121 678h420l-78 -438l123 63l-60 -377l-131 -67l-119 -674h-419l75 436z" />
<glyph unicode="&#x143;" horiz-adv-x="1558" d="M0 0l254 1434h440l312 -787l139 787h436l-254 -1434h-440l-312 788l-139 -788h-436zM678 1505l309 297h463l-412 -297h-360z" />
<glyph unicode="&#x144;" d="M-23 0l191 1075h420l-19 -102q195 125 369 125q185 0 262 -107t43 -297l-123 -694h-420l115 649q12 63 -1.5 95t-65.5 32t-114.5 -27.5t-117.5 -72.5l-119 -676h-420zM496 1196l309 297h463l-412 -297h-360z" />
<glyph unicode="&#x145;" horiz-adv-x="1558" d="M0 0l254 1434h440l312 -787l139 787h436l-254 -1434h-440l-312 788l-139 -788h-436zM442 -563l156 166h-125l51 293h285l-43 -332l-266 -219z" />
<glyph unicode="&#x146;" d="M-23 0l191 1075h420l-19 -102q195 125 369 125q185 0 262 -107t43 -297l-123 -694h-420l115 649q12 63 -1.5 95t-65.5 32t-114.5 -27.5t-117.5 -72.5l-119 -676h-420zM313 -563l156 166h-125l51 293h285l-43 -332l-266 -219z" />
<glyph unicode="&#x147;" horiz-adv-x="1558" d="M0 0l254 1434h440l312 -787l139 787h436l-254 -1434h-440l-312 788l-139 -788h-436zM578 1802h262l112 -129l160 129h297l-279 -297h-378z" />
<glyph unicode="&#x148;" d="M-23 0l191 1075h420l-19 -102q195 125 369 125q185 0 262 -107t43 -297l-123 -694h-420l115 649q12 63 -1.5 95t-65.5 32t-114.5 -27.5t-117.5 -72.5l-119 -676h-420zM395 1493h262l113 -129l160 129h297l-279 -297h-379z" />
<glyph unicode="&#x149;" d="M-23 0l191 1075h420l-19 -102q195 125 369 125q185 0 262 -107t43 -297l-123 -694h-420l115 649q12 63 -1.5 95t-65.5 32t-114.5 -27.5t-117.5 -72.5l-119 -676h-420zM195 1217l155 165h-125l51 293h285l-43 -332l-266 -219z" />
<glyph unicode="&#x14a;" horiz-adv-x="1558" d="M0 0l254 1434h440l312 -787l139 787h436l-238 -1342q-11 -59 -21 -97.5t-26 -83.5t-37 -75t-53 -63t-74.5 -57t-100.5 -49t-132.5 -45.5t-169.5 -39.5l-98 336q112 32 164.5 56.5t78.5 56.5l-299 757l-139 -788h-436z" />
<glyph unicode="&#x14b;" d="M-23 0l191 1075h420l-19 -102q195 125 369 125q186 0 262.5 -107.5t42.5 -298.5l-106 -598q-13 -76 -20.5 -114.5t-24 -96.5t-35 -87t-50.5 -71t-74 -66t-102.5 -53t-139 -50.5t-179.5 -42.5l-90 313q99 32 148 51t81 46.5t41 53.5t19 80l104 592q12 63 -1.5 95t-65.5 32 t-114.5 -27.5t-117.5 -72.5l-119 -676h-420z" />
<glyph unicode="&#x14c;" horiz-adv-x="1609" d="M63 625q0 58 8 123t31 148t58.5 159t96 150.5t138 129t190 88t246.5 33.5q357 0 553.5 -167.5t196.5 -481.5q0 -58 -8 -123t-31 -148t-58.5 -159t-96 -151t-138 -129.5t-190 -88t-246.5 -33.5q-357 0 -553.5 168t-196.5 482zM514 639q0 -151 70.5 -223t212.5 -72 q74 0 133.5 31.5t95.5 79t60.5 109.5t34 119t9.5 110q0 151 -70 222.5t-212 71.5q-74 0 -133.5 -31t-96 -79t-61 -109.5t-34 -118.5t-9.5 -110zM643 1556l41 234h655l-41 -234h-655z" />
<glyph unicode="&#x14d;" horiz-adv-x="1298" d="M18 483q0 125 38.5 234t113 195t196.5 136t277 50q280 0 442 -132.5t162 -373.5q0 -125 -38 -234t-112.5 -195t-196.5 -136t-277 -50q-281 0 -443 132.5t-162 373.5zM428 1247l41 234h655l-41 -234h-655zM440 479q0 -184 172 -184q70 0 120 46t71.5 112.5t21.5 142.5 q0 184 -172 184q-70 0 -120 -46t-71.5 -112.5t-21.5 -142.5z" />
<glyph unicode="&#x14e;" horiz-adv-x="1609" d="M63 625q0 58 8 123t31 148t58.5 159t96 150.5t138 129t190 88t246.5 33.5q357 0 553.5 -167.5t196.5 -481.5q0 -58 -8 -123t-31 -148t-58.5 -159t-96 -151t-138 -129.5t-190 -88t-246.5 -33.5q-357 0 -553.5 168t-196.5 482zM514 639q0 -151 70.5 -223t212.5 -72 q74 0 133.5 31.5t95.5 79t60.5 109.5t34 119t9.5 110q0 151 -70 222.5t-212 71.5q-74 0 -133.5 -31t-96 -79t-61 -109.5t-34 -118.5t-9.5 -110zM635 1788h244q-5 -30 22.5 -50t77.5 -20q69 0 114 20t50 50h246q-22 -133 -130 -208t-282 -75q-181 0 -271 79t-71 204z" />
<glyph unicode="&#x14f;" horiz-adv-x="1298" d="M18 483q0 125 38.5 234t113 195t196.5 136t277 50q280 0 442 -132.5t162 -373.5q0 -125 -38 -234t-112.5 -195t-196.5 -136t-277 -50q-281 0 -443 132.5t-162 373.5zM424 1479h244q-5 -30 22.5 -50t77.5 -20q69 0 114 20t50 50h246q-22 -133 -130 -208t-282 -75 q-181 0 -271 79t-71 204zM440 479q0 -184 172 -184q70 0 120 46t71.5 112.5t21.5 142.5q0 184 -172 184q-70 0 -120 -46t-71.5 -112.5t-21.5 -142.5z" />
<glyph unicode="&#x150;" horiz-adv-x="1609" d="M63 625q0 58 8 123t31 148t58.5 159t96 150.5t138 129t190 88t246.5 33.5q357 0 553.5 -167.5t196.5 -481.5q0 -58 -8 -123t-31 -148t-58.5 -159t-96 -151t-138 -129.5t-190 -88t-246.5 -33.5q-357 0 -553.5 168t-196.5 482zM514 639q0 -151 70.5 -223t212.5 -72 q74 0 133.5 31.5t95.5 79t60.5 109.5t34 119t9.5 110q0 151 -70 222.5t-212 71.5q-74 0 -133.5 -31t-96 -79t-61 -109.5t-34 -118.5t-9.5 -110zM602 1505l219 297h348l-321 -297h-246zM1012 1505l221 297h346l-324 -297h-243z" />
<glyph unicode="&#x151;" horiz-adv-x="1300" d="M18 483q0 125 38.5 234t113 195t196.5 136t277 50q280 0 442 -132.5t162 -373.5q0 -125 -38 -234t-112.5 -195t-196.5 -136t-277 -50q-281 0 -443 132.5t-162 373.5zM391 1196l219 297h348l-321 -297h-246zM440 479q0 -184 172 -184q70 0 120 46t71.5 112.5t21.5 142.5 q0 184 -172 184q-70 0 -120 -46t-71.5 -112.5t-21.5 -142.5zM801 1196l221 297h346l-324 -297h-243z" />
<glyph unicode="&#x152;" horiz-adv-x="2314" d="M63 625q0 58 8 123t31 148t58.5 159t96 150.5t138 129t190 88t246.5 33.5q255 0 429 -86l12 64h1100l-66 -367h-664l-30 -170h538l-63 -358h-537l-30 -172h669l-65 -367h-1096q-103 -25 -215 -25q-357 0 -553.5 168t-196.5 482zM514 639q0 -151 70.5 -223t212.5 -72 q74 0 133.5 31.5t95.5 79t60.5 109.5t34 119t9.5 110q0 151 -70 222.5t-212 71.5q-74 0 -133.5 -31t-96 -79t-61 -109.5t-34 -118.5t-9.5 -110z" />
<glyph unicode="&#x153;" horiz-adv-x="1986" d="M18 483q0 125 38.5 234t113 195t196.5 136t277 50q269 0 426 -121q169 121 414 121q216 0 348.5 -89.5t132.5 -244.5q0 -68 -19 -121.5t-50 -89.5t-80.5 -62.5t-99 -41t-118.5 -22.5t-125.5 -10.5t-132.5 -2.5h-96q0 -62 29.5 -96.5t107.5 -34.5q144 0 392 108l118 -285 q-58 -24 -133.5 -48.5t-212 -52.5t-250.5 -28q-206 0 -323 84q-146 -84 -348 -84q-281 0 -443 132.5t-162 373.5zM440 479q0 -184 172 -184q70 0 120 46t71.5 112.5t21.5 142.5q0 184 -172 184q-70 0 -120 -46t-71.5 -112.5t-21.5 -142.5zM1280 625h72q98 0 156.5 27 t58.5 79q0 33 -25.5 54.5t-68.5 21.5q-129 0 -193 -182z" />
<glyph unicode="&#x154;" horiz-adv-x="1486" d="M0 0l254 1434h653q596 0 596 -420q0 -52 -12 -108.5t-43.5 -119.5t-78 -116t-122 -95t-170.5 -59l246 -516h-453l-211 504h-131l-92 -504h-436zM586 840h250q106 0 162.5 42.5t56.5 118.5q0 41 -28 63.5t-65 28t-96 5.5h-235zM664 1505l309 297h463l-412 -297h-360z" />
<glyph unicode="&#x155;" horiz-adv-x="940" d="M-23 0l191 1075h420l-39 -219q15 27 35.5 54t60 63t85 61.5t112.5 41.5t141 11l-65 -393q-72 0 -137 -21.5t-110.5 -56t-84 -76t-62.5 -82.5t-40.5 -75.5t-23.5 -56.5l-7 -21l-56 -305h-420zM332 1196l309 297h463l-412 -297h-360z" />
<glyph unicode="&#x156;" horiz-adv-x="1486" d="M0 0l254 1434h653q596 0 596 -420q0 -52 -12 -108.5t-43.5 -119.5t-78 -116t-122 -95t-170.5 -59l246 -516h-453l-211 504h-131l-92 -504h-436zM381 -563l156 166h-125l51 293h285l-43 -332l-267 -219zM586 840h250q106 0 162.5 42.5t56.5 118.5q0 41 -28 63.5t-65 28 t-96 5.5h-235z" />
<glyph unicode="&#x157;" horiz-adv-x="935" d="M-45 -563l156 166h-125l51 293h285l-43 -332l-267 -219zM-18 0l190 1075h420l-39 -219q15 27 35.5 54t60 63t85 61.5t112.5 41.5t141 11l-65 -393q-72 0 -137 -21.5t-110.5 -56t-84 -76t-62.5 -82.5t-40.5 -75.5t-23.5 -56.5l-7 -21l-56 -305h-419z" />
<glyph unicode="&#x158;" horiz-adv-x="1486" d="M0 0l254 1434h653q596 0 596 -420q0 -52 -12 -108.5t-43.5 -119.5t-78 -116t-122 -95t-170.5 -59l246 -516h-453l-211 504h-131l-92 -504h-436zM565 1802h262l113 -129l160 129h297l-279 -297h-379zM586 840h250q106 0 162.5 42.5t56.5 118.5q0 41 -28 63.5t-65 28 t-96 5.5h-235z" />
<glyph unicode="&#x159;" horiz-adv-x="937" d="M-23 0l191 1075h420l-39 -219q15 27 35.5 54t60 63t85 61.5t112.5 41.5t141 11l-65 -393q-72 0 -137 -21.5t-110.5 -56t-84 -76t-62.5 -82.5t-40.5 -75.5t-23.5 -56.5l-7 -21l-56 -305h-420zM233 1493h263l112 -129l160 129h297l-279 -297h-378z" />
<glyph unicode="&#x15a;" horiz-adv-x="1359" d="M-39 221l225 291q122 -69 261 -122.5t235 -53.5q64 0 103.5 19t39.5 51q0 26 -23.5 45t-67.5 32.5t-92.5 25.5t-113 32t-114.5 43q-285 132 -285 399q0 95 37 179t108 150.5t184.5 105t256.5 38.5q324 0 692 -211l-225 -289q-91 52 -219.5 97t-217.5 45q-62 0 -102.5 -18 t-40.5 -54q0 -41 51 -62t163.5 -50t195.5 -66q286 -129 286 -391q0 -96 -38 -181.5t-110.5 -152.5t-188 -106.5t-259.5 -39.5q-205 0 -401.5 71.5t-339.5 172.5zM573 1505l310 297h463l-412 -297h-361z" />
<glyph unicode="&#x15b;" horiz-adv-x="1130" d="M-55 160l168 248q97 -53 223 -96.5t209 -43.5q34 0 55 8t26 15.5t5 13.5q0 12 -11.5 21.5t-35.5 17t-49.5 13.5t-66.5 15.5t-73 18.5q-67 19 -120 43.5t-104 63t-79.5 97t-28.5 132.5q0 75 30.5 141t88.5 118t152.5 82t212.5 30q149 0 303.5 -44t261.5 -102l-168 -239 q-82 37 -185 67.5t-175 30.5q-48 0 -70 -12.5t-22 -28.5q0 -12 10 -21t33 -16.5t47.5 -13t67 -15.5t77.5 -20q52 -15 92 -30.5t88.5 -44t80.5 -62.5t53.5 -86t21.5 -115q0 -162 -132.5 -265.5t-373.5 -103.5q-174 0 -335.5 53.5t-276.5 129.5zM412 1196l309 297h463 l-412 -297h-360z" />
<glyph unicode="&#x15c;" horiz-adv-x="1359" d="M-39 221l225 291q122 -69 261 -122.5t235 -53.5q64 0 103.5 19t39.5 51q0 26 -23.5 45t-67.5 32.5t-92.5 25.5t-113 32t-114.5 43q-285 132 -285 399q0 95 37 179t108 150.5t184.5 105t256.5 38.5q324 0 692 -211l-225 -289q-91 52 -219.5 97t-217.5 45q-62 0 -102.5 -18 t-40.5 -54q0 -41 51 -62t163.5 -50t195.5 -66q286 -129 286 -391q0 -96 -38 -181.5t-110.5 -152.5t-188 -106.5t-259.5 -39.5q-205 0 -401.5 71.5t-339.5 172.5zM422 1505l278 297h379l174 -297h-262l-112 129l-160 -129h-297z" />
<glyph unicode="&#x15d;" horiz-adv-x="1130" d="M-55 160l168 248q97 -53 223 -96.5t209 -43.5q34 0 55 8t26 15.5t5 13.5q0 12 -11.5 21.5t-35.5 17t-49.5 13.5t-66.5 15.5t-73 18.5q-67 19 -120 43.5t-104 63t-79.5 97t-28.5 132.5q0 75 30.5 141t88.5 118t152.5 82t212.5 30q149 0 303.5 -44t261.5 -102l-168 -239 q-82 37 -185 67.5t-175 30.5q-48 0 -70 -12.5t-22 -28.5q0 -12 10 -21t33 -16.5t47.5 -13t67 -15.5t77.5 -20q52 -15 92 -30.5t88.5 -44t80.5 -62.5t53.5 -86t21.5 -115q0 -162 -132.5 -265.5t-373.5 -103.5q-174 0 -335.5 53.5t-276.5 129.5zM264 1196l279 297h379 l174 -297h-262l-113 129l-160 -129h-297z" />
<glyph unicode="&#x15e;" horiz-adv-x="1359" d="M-39 221l225 291q122 -69 261 -122.5t235 -53.5q64 0 103.5 19t39.5 51q0 26 -23.5 45t-67.5 32.5t-92.5 25.5t-113 32t-114.5 43q-285 132 -285 399q0 95 37 179t108 150.5t184.5 105t256.5 38.5q324 0 692 -211l-225 -289q-91 52 -219.5 97t-217.5 45q-62 0 -102.5 -18 t-40.5 -54q0 -41 51 -62t163.5 -50t195.5 -66q286 -129 286 -391q0 -94 -35.5 -177t-103.5 -149.5t-177 -107.5t-245 -46q35 -73 35 -139q0 -61 -23.5 -108t-63.5 -74t-88.5 -40t-104.5 -13q-127 0 -205 49l108 192q43 -22 90 -22q95 0 95 74q0 38 -27 92q-169 23 -324 87.5 t-268 145.5z" />
<glyph unicode="&#x15f;" horiz-adv-x="1130" d="M-55 160l168 248q97 -53 223 -96.5t209 -43.5q34 0 55 8t26 15.5t5 13.5q0 12 -11.5 21.5t-35.5 17t-49.5 13.5t-66.5 15.5t-73 18.5q-67 19 -120 43.5t-104 63t-79.5 97t-28.5 132.5q0 75 30.5 141t88.5 118t152.5 82t212.5 30q149 0 303.5 -44t261.5 -102l-168 -239 q-82 37 -185 67.5t-175 30.5q-48 0 -70 -12.5t-22 -28.5q0 -12 10 -21t33 -16.5t47.5 -13t67 -15.5t77.5 -20q52 -15 92 -30.5t88.5 -44t80.5 -62.5t53.5 -86t21.5 -115q0 -145 -109 -244.5t-309 -119.5q37 -71 37 -144q0 -61 -23.5 -108t-64 -74t-89 -40t-104.5 -13 q-126 0 -204 49l108 192q43 -22 90 -22q94 0 94 74q0 42 -22 86q-150 13 -287 63t-235 115z" />
<glyph unicode="&#x160;" horiz-adv-x="1359" d="M-39 221l225 291q122 -69 261 -122.5t235 -53.5q64 0 103.5 19t39.5 51q0 26 -23.5 45t-67.5 32.5t-92.5 25.5t-113 32t-114.5 43q-285 132 -285 399q0 95 37 179t108 150.5t184.5 105t256.5 38.5q324 0 692 -211l-225 -289q-91 52 -219.5 97t-217.5 45q-62 0 -102.5 -18 t-40.5 -54q0 -41 51 -62t163.5 -50t195.5 -66q286 -129 286 -391q0 -96 -38 -181.5t-110.5 -152.5t-188 -106.5t-259.5 -39.5q-205 0 -401.5 71.5t-339.5 172.5zM475 1802h262l113 -129l160 129h297l-279 -297h-379z" />
<glyph unicode="&#x161;" horiz-adv-x="1130" d="M-55 160l168 248q97 -53 223 -96.5t209 -43.5q34 0 55 8t26 15.5t5 13.5q0 12 -11.5 21.5t-35.5 17t-49.5 13.5t-66.5 15.5t-73 18.5q-67 19 -120 43.5t-104 63t-79.5 97t-28.5 132.5q0 75 30.5 141t88.5 118t152.5 82t212.5 30q149 0 303.5 -44t261.5 -102l-168 -239 q-82 37 -185 67.5t-175 30.5q-48 0 -70 -12.5t-22 -28.5q0 -12 10 -21t33 -16.5t47.5 -13t67 -15.5t77.5 -20q52 -15 92 -30.5t88.5 -44t80.5 -62.5t53.5 -86t21.5 -115q0 -162 -132.5 -265.5t-373.5 -103.5q-174 0 -335.5 53.5t-276.5 129.5zM313 1493h262l113 -129 l160 129h297l-279 -297h-379z" />
<glyph unicode="&#x162;" horiz-adv-x="1253" d="M98 1067l66 367h1214l-65 -367h-389l-189 -1067h-131q8 -11 17 -30t19.5 -57t10.5 -75q0 -61 -23.5 -108t-63.5 -74t-88.5 -40t-104.5 -13q-127 0 -205 49l108 192q43 -22 91 -22q94 0 94 74q0 28 -11.5 58.5t-21.5 45.5h-127l188 1067h-389z" />
<glyph unicode="&#x163;" horiz-adv-x="935" d="M53 772l53 303h140l49 271l426 40l-55 -311h284l-53 -303h-287l-59 -340q-9 -55 7 -72.5t46 -17.5q54 0 141 35l101 -322q-182 -61 -334 -73q35 -72 35 -144q0 -61 -23.5 -108t-64 -74t-89 -40t-104.5 -13q-127 0 -205 49l109 192q43 -22 90 -22q94 0 94 74q0 46 -28 96 q-129 36 -176 159t-13 316l53 305h-137z" />
<glyph unicode="&#x164;" horiz-adv-x="1253" d="M98 1067l66 367h1214l-65 -367h-389l-189 -1067h-436l188 1067h-389zM416 1802h262l113 -129l159 129h297l-278 -297h-379z" />
<glyph unicode="&#x165;" horiz-adv-x="942" d="M53 772l53 303h140l49 271l426 40l-55 -311h284l-53 -303h-287l-59 -340q-9 -55 7 -72.5t46 -17.5q54 0 141 35l101 -322q-231 -78 -404 -78q-193 0 -269.5 129t-35.5 361l53 305h-137zM776 1217l156 165h-125l51 293h285l-43 -332l-266 -219z" />
<glyph unicode="&#x166;" horiz-adv-x="1269" d="M106 1067l66 367h1214l-65 -367h-389l-76 -430h166l-41 -234h-166l-72 -403h-436l72 403h-166l41 234h166l76 430h-390z" />
<glyph unicode="&#x167;" horiz-adv-x="933" d="M39 471l41 234h94l12 67h-137l53 303h140l49 271l426 40l-55 -311h284l-53 -303h-287l-12 -67h225l-41 -234h-225l-6 -39q-9 -55 7 -72.5t46 -17.5q54 0 141 35l101 -322q-231 -78 -404 -78q-193 0 -269.5 129t-35.5 361v4h-94z" />
<glyph unicode="&#x168;" horiz-adv-x="1501" d="M90 528q5 75 21 166l131 740h436l-150 -844q-11 -70 -5.5 -123.5t50 -86t129.5 -32.5q65 0 112 17.5t75 53t43.5 75t25.5 96.5l150 844h436l-153 -863q-15 -88 -37 -158.5t-57.5 -140.5t-88 -121.5t-123.5 -92t-170 -61t-221 -20.5q-124 0 -222 19t-165 53t-113 85 t-70 109.5t-31.5 134t-2.5 150.5zM502 1612q77 111 113 148q81 81 180 81q48 0 103.5 -24t102 -48t74.5 -24q52 0 127 98l162 -108q-76 -110 -111 -147q-81 -83 -182 -83q-38 0 -81 15t-74 33.5t-65.5 33.5t-57.5 15q-53 0 -129 -99z" />
<glyph unicode="&#x169;" d="M35 381l123 694h420l-115 -649q-14 -57 0 -92t67 -35q51 0 114 28t114 72l121 676h419l-190 -1075h-420l19 100q-197 -123 -369 -123q-185 0 -260.5 106.5t-42.5 297.5zM369 1303q77 111 113 148q81 81 180 81q48 0 103.5 -24t102 -48t74.5 -24q52 0 127 98l162 -109 q-77 -111 -113 -148q-80 -81 -180 -81q-48 0 -103 24t-101.5 48t-74.5 24q-54 0 -129 -98z" />
<glyph unicode="&#x16a;" horiz-adv-x="1501" d="M90 528q5 75 21 166l131 740h436l-150 -844q-11 -70 -5.5 -123.5t50 -86t129.5 -32.5q65 0 112 17.5t75 53t43.5 75t25.5 96.5l150 844h436l-153 -863q-15 -88 -37 -158.5t-57.5 -140.5t-88 -121.5t-123.5 -92t-170 -61t-221 -20.5q-124 0 -222 19t-165 53t-113 85 t-70 109.5t-31.5 134t-2.5 150.5zM586 1556l41 234h655l-41 -234h-655z" />
<glyph unicode="&#x16b;" d="M35 381l123 694h420l-115 -649q-14 -57 0 -92t67 -35q51 0 114 28t114 72l121 676h419l-190 -1075h-420l19 100q-197 -123 -369 -123q-185 0 -260.5 106.5t-42.5 297.5zM428 1247l41 234h655l-41 -234h-655z" />
<glyph unicode="&#x16c;" horiz-adv-x="1501" d="M90 528q5 75 21 166l131 740h436l-150 -844q-11 -70 -5.5 -123.5t50 -86t129.5 -32.5q65 0 112 17.5t75 53t43.5 75t25.5 96.5l150 844h436l-153 -863q-15 -88 -37 -158.5t-57.5 -140.5t-88 -121.5t-123.5 -92t-170 -61t-221 -20.5q-124 0 -222 19t-165 53t-113 85 t-70 109.5t-31.5 134t-2.5 150.5zM580 1788h243q-5 -30 23 -50t78 -20q69 0 113.5 20t49.5 50h246q-22 -133 -129.5 -208t-281.5 -75q-181 0 -271 79t-71 204z" />
<glyph unicode="&#x16d;" d="M35 381l123 694h420l-115 -649q-14 -57 0 -92t67 -35q51 0 114 28t114 72l121 676h419l-190 -1075h-420l19 100q-197 -123 -369 -123q-185 0 -260.5 106.5t-42.5 297.5zM422 1479h244q-5 -30 22.5 -50t77.5 -20q69 0 114 20t50 50h246q-22 -133 -130 -208t-282 -75 q-181 0 -271 79t-71 204z" />
<glyph unicode="&#x16e;" horiz-adv-x="1501" d="M90 528q5 75 21 166l131 740h436l-150 -844q-11 -70 -5.5 -123.5t50 -86t129.5 -32.5q65 0 112 17.5t75 53t43.5 75t25.5 96.5l150 844h436l-153 -863q-15 -88 -37 -158.5t-57.5 -140.5t-88 -121.5t-123.5 -92t-170 -61t-221 -20.5q-124 0 -222 19t-165 53t-113 85 t-70 109.5t-31.5 134t-2.5 150.5zM705 1731q0 101 72 173t173 72t173.5 -72t72.5 -173t-72.5 -173.5t-173.5 -72.5t-173 72.5t-72 173.5zM891 1731q0 -25 17 -42.5t42 -17.5t42.5 17.5t17.5 42.5t-17.5 42t-42.5 17t-42 -17t-17 -42z" />
<glyph unicode="&#x16f;" d="M35 381l123 694h420l-115 -649q-14 -57 0 -92t67 -35q51 0 114 28t114 72l121 676h419l-190 -1075h-420l19 100q-197 -123 -369 -123q-185 0 -260.5 106.5t-42.5 297.5zM547 1421q0 101 72.5 173.5t173.5 72.5t173 -72.5t72 -173.5t-72 -173t-173 -72t-173.5 72 t-72.5 173zM733 1421q0 -25 17.5 -42t42.5 -17t42 17t17 42t-17 42.5t-42 17.5t-42.5 -17.5t-17.5 -42.5z" />
<glyph unicode="&#x170;" horiz-adv-x="1501" d="M90 528q5 75 21 166l131 740h436l-150 -844q-11 -70 -5.5 -123.5t50 -86t129.5 -32.5q65 0 112 17.5t75 53t43.5 75t25.5 96.5l150 844h436l-153 -863q-15 -88 -37 -158.5t-57.5 -140.5t-88 -121.5t-123.5 -92t-170 -61t-221 -20.5q-124 0 -222 19t-165 53t-113 85 t-70 109.5t-31.5 134t-2.5 150.5zM549 1505l219 297h348l-321 -297h-246zM958 1505l222 297h346l-324 -297h-244z" />
<glyph unicode="&#x171;" horiz-adv-x="1316" d="M35 381l123 694h420l-115 -649q-14 -57 0 -92t67 -35q51 0 114 28t114 72l121 676h419l-190 -1075h-420l19 100q-197 -123 -369 -123q-185 0 -260.5 106.5t-42.5 297.5zM389 1196l219 297h348l-321 -297h-246zM799 1196l221 297h346l-324 -297h-243z" />
<glyph unicode="&#x172;" horiz-adv-x="1501" d="M90.5 534q5.5 73 20.5 160l131 740h436l-150 -844q-11 -70 -5.5 -123.5t50 -86t129.5 -32.5q65 0 112 17.5t75 53t43.5 75t25.5 96.5l150 844h436l-153 -863q-15 -87 -36 -157.5t-58 -140t-86.5 -121t-123.5 -92t-167 -60.5q-218 -111 -218 -199q0 -19 10 -30.5t30.5 -16 t34 -5.5t39 0t26.5 1l-66 -170q-2 0 -26 -0.5t-40 0t-45.5 2t-51.5 6.5t-50 13t-47.5 22t-37.5 32.5t-27 46t-9 60.5q0 123 191 218q-113 4 -201 26t-148.5 56.5t-101.5 86t-62.5 109t-28 130.5t-1 146z" />
<glyph unicode="&#x173;" d="M35 381l123 694h420l-115 -649q-14 -57 0 -92t67 -35q51 0 114 28t114 72l121 676h419l-190 -1075h-6q-217 -111 -217 -199q0 -19 10 -30.5t30 -16t33.5 -5.5t39 0t26.5 1l-66 -170q-2 0 -25.5 -0.5t-39.5 0t-46 2t-52 6.5t-49.5 13t-47 22t-37.5 32.5t-27 46t-9 60.5 q0 136 235 238h-172l19 100q-197 -123 -369 -123q-185 0 -260.5 106.5t-42.5 297.5z" />
<glyph unicode="&#x174;" horiz-adv-x="2027" d="M141 1434h490l16 -760l320 760h354l53 -758l281 758h522l-649 -1434h-420l-61 803l-340 -803h-420zM758 1505l278 297h379l174 -297h-262l-113 129l-159 -129h-297z" />
<glyph unicode="&#x175;" horiz-adv-x="1748" d="M80 1075h432l12 -588l262 588h336l47 -567l209 567h457l-514 -1075h-389l-64 555l-264 -555h-389zM563 1196l279 297h379l174 -297h-262l-113 129l-160 -129h-297z" />
<glyph unicode="&#x177;" horiz-adv-x="1230" d="M-14 -170q23 8 74 25.5t71 25.5t54 23.5t58 33.5t48 42l-225 1095h434l71 -575l277 575h467l-592 -1075q-79 -142 -129 -205q-140 -178 -383 -250q-63 -19 -135 -32zM295 1196l278 297h379l174 -297h-262l-112 129l-160 -129h-297z" />
<glyph unicode="&#x178;" horiz-adv-x="1400" d="M119 1434h463l153 -482l322 482h508l-656 -865l-100 -569h-436l100 569zM489 1526l54 297h319l-53 -297h-320zM905 1526l53 297h320l-53 -297h-320z" />
<glyph unicode="&#x179;" horiz-adv-x="1343" d="M-57 0l53 332l766 735h-584l60 367h1177l-53 -330l-768 -737h639l-59 -367h-1231zM575 1505l310 297h463l-412 -297h-361z" />
<glyph unicode="&#x17a;" horiz-adv-x="1220" d="M-59 0l47 283l544 450h-438l58 342h1081l-47 -282l-545 -451h459l-58 -342h-1101zM442 1196l310 297h462l-411 -297h-361z" />
<glyph unicode="&#x17b;" horiz-adv-x="1343" d="M-57 0l53 332l766 735h-584l60 367h1177l-53 -330l-768 -737h639l-59 -367h-1231zM682 1526l51 297h320l-52 -297h-319z" />
<glyph unicode="&#x17c;" horiz-adv-x="1220" d="M-59 0l47 283l544 450h-438l58 342h1081l-47 -282l-545 -451h459l-58 -342h-1101zM549 1217l51 296h320l-52 -296h-319z" />
<glyph unicode="&#x17d;" horiz-adv-x="1343" d="M-57 0l53 332l766 735h-584l60 367h1177l-53 -330l-768 -737h639l-59 -367h-1231zM475 1802h262l113 -129l160 129h297l-279 -297h-379z" />
<glyph unicode="&#x17e;" horiz-adv-x="1220" d="M-59 0l47 283l544 450h-438l58 342h1081l-47 -282l-545 -451h459l-58 -342h-1101zM342 1493h262l113 -129l160 129h297l-279 -297h-379z" />
<glyph unicode="&#x17f;" horiz-adv-x="761" d="M-197 -166q67 21 107 36t74 35t50.5 35.5t31 46.5t21.5 59t17 81l115 645h-143l51 303h145q19 106 48.5 181t77 129.5t117 81t163.5 26.5q208 0 436 -129l-184 -266q-103 37 -156 37q-69 0 -86 -91l-158 -882q-39 -209 -67 -285q-48 -134 -154 -207q-128 -90 -418 -149z " />
<glyph unicode="&#x192;" d="M-129 -418l483 1190h-137l115 303h145q35 85 65.5 144t72.5 114.5t90 88t114 52t148 19.5q193 0 442 -127l-225 -242q-4 1 -19 7t-21 8l-21 7t-23 7t-21.5 5t-23.5 3.5t-21.5 0t-21.5 -2.5q-61 -12 -97 -84h269l-117 -303h-276l-492 -1190h-428z" />
<glyph unicode="&#x1fc;" horiz-adv-x="2281" d="M-195 0l1205 1434h1329l-66 -367h-663l-31 -170h539l-64 -358h-536l-31 -172h670l-66 -367h-1106l39 217h-492l-172 -217h-555zM811 567h274l78 445zM1106 1505l309 297h463l-412 -297h-360z" />
<glyph unicode="&#x1fd;" horiz-adv-x="1966" d="M23 393q0 316 146.5 510.5t381.5 194.5q58 0 108.5 -11t93.5 -33t66.5 -37t59.5 -42l18 100h371q97 23 194 23q216 0 349 -90t133 -244q0 -68 -19 -121.5t-50 -89.5t-80.5 -62.5t-99 -41t-118.5 -22.5t-125.5 -10.5t-132.5 -2.5h-96q0 -62 29.5 -96.5t107.5 -34.5 q143 0 391 108l119 -285q-58 -24 -133.5 -48.5t-212 -52.5t-250.5 -28q-99 0 -189 23h-378l16 98q-180 -121 -361 -121q-67 0 -125 22t-107.5 68.5t-78 130t-28.5 195.5zM453 440q0 -62 27 -96.5t77 -34.5q55 0 107 28.5t116 80.5l45 254q-81 92 -168 92q-96 0 -150 -93.5 t-54 -230.5zM795 1196l309 297h463l-412 -297h-360zM1260 625h71q98 0 156.5 27t58.5 79q0 33 -25.5 54.5t-68.5 21.5q-128 0 -192 -182z" />
<glyph unicode="&#x1fe;" horiz-adv-x="1609" d="M-23 0l209 215q-127 161 -127 410q0 58 8 123t31 148t58.5 159t96 150.5t138 129t190 88t246.5 33.5q284 0 467 -106l82 84h291l-215 -222q125 -159 125 -405q0 -58 -8 -123t-31 -148t-58.5 -159t-96 -151t-138 -129.5t-190 -88t-246.5 -33.5q-281 0 -463 105l-78 -80 h-291zM510 639q0 -47 6 -88l490 502q-64 34 -162 34q-74 0 -133.5 -31t-96 -79t-61 -109.5t-34 -118.5t-9.5 -110zM635 375q64 -31 158 -31q74 0 133.5 31.5t95.5 79t60.5 109.5t34 119t9.5 110q0 41 -6 79zM698 1505l310 297h462l-411 -297h-361z" />
<glyph unicode="&#x1ff;" horiz-adv-x="1298" d="M-49 0l170 166q-105 124 -105 317q0 125 38.5 234t113 195t196.5 136t277 50q215 0 363 -80l57 57h227l-160 -155q117 -126 117 -328q0 -125 -38 -234t-112.5 -195t-196.5 -136t-277 -50q-223 0 -373 84l-64 -61h-233zM438 471l301 291q-37 18 -88 18q-70 0 -120 -46 t-71.5 -112.5t-21.5 -142.5v-8zM463 1196l309 297h463l-412 -297h-360zM510 317q42 -22 100 -22q70 0 120 46t71.5 112.5t21.5 142.5q0 17 -2 25z" />
<glyph unicode="&#x218;" horiz-adv-x="1359" d="M-39 221l225 291q122 -69 261 -122.5t235 -53.5q64 0 103.5 19t39.5 51q0 26 -23.5 45t-67.5 32.5t-92.5 25.5t-113 32t-114.5 43q-285 132 -285 399q0 95 37 179t108 150.5t184.5 105t256.5 38.5q324 0 692 -211l-225 -289q-91 52 -219.5 97t-217.5 45q-62 0 -102.5 -18 t-40.5 -54q0 -41 51 -62t163.5 -50t195.5 -66q286 -129 286 -391q0 -96 -38 -181.5t-110.5 -152.5t-188 -106.5t-259.5 -39.5q-205 0 -401.5 71.5t-339.5 172.5zM338 -563l156 166h-125l51 293h285l-43 -332l-267 -219z" />
<glyph unicode="&#x219;" horiz-adv-x="1130" d="M-55 160l168 248q97 -53 223 -96.5t209 -43.5q34 0 55 8t26 15.5t5 13.5q0 12 -11.5 21.5t-35.5 17t-49.5 13.5t-66.5 15.5t-73 18.5q-67 19 -120 43.5t-104 63t-79.5 97t-28.5 132.5q0 75 30.5 141t88.5 118t152.5 82t212.5 30q149 0 303.5 -44t261.5 -102l-168 -239 q-82 37 -185 67.5t-175 30.5q-48 0 -70 -12.5t-22 -28.5q0 -12 10 -21t33 -16.5t47.5 -13t67 -15.5t77.5 -20q52 -15 92 -30.5t88.5 -44t80.5 -62.5t53.5 -86t21.5 -115q0 -162 -132.5 -265.5t-373.5 -103.5q-174 0 -335.5 53.5t-276.5 129.5zM213 -563l156 166h-125l51 293 h285l-43 -332l-267 -219z" />
<glyph unicode="&#x21a;" horiz-adv-x="1253" d="M98 1067l66 367h1214l-65 -367h-389l-189 -1067h-436l188 1067h-389zM279 -563l155 166h-125l51 293h285l-43 -332l-266 -219z" />
<glyph unicode="&#x21b;" horiz-adv-x="931" d="M45 772l53 303h140l49 271l426 40l-56 -311h285l-53 -303h-287l-59 -340q-9 -55 7 -72.5t46 -17.5q54 0 141 35l101 -322q-231 -78 -404 -78q-193 0 -269.5 129t-35.5 361l53 305h-137zM51 -563l156 166h-125l51 293h285l-43 -332l-266 -219z" />
<glyph unicode="&#x2b0;" horiz-adv-x="837" d="M98 788l158 895h279l-56 -307q114 72 228 72q119 0 168 -65t28 -183l-74 -412h-278l67 381q8 31 1 49.5t-37 18.5q-75 0 -136 -55l-69 -394h-279z" />
<glyph unicode="&#x2b2;" horiz-adv-x="403" d="M-70 696q81 25 114.5 42t45 35.5t19.5 60.5l106 600h279l-101 -576q-22 -129 -45 -177q-39 -82 -142 -128q-78 -35 -214 -61zM221 1481l35 200h287l-37 -200h-285z" />
<glyph unicode="&#x2b7;" horiz-adv-x="1114" d="M152 1434h286l8 -334l152 334h221l29 -324l121 324h301l-320 -646h-256l-39 318l-157 -318h-256z" />
<glyph unicode="&#x2b8;" horiz-adv-x="790" d="M102 698q20 7 54.5 18t51.5 17.5t40 19t41 29.5l-148 652h289l41 -328l162 328h311l-369 -646q-27 -48 -41.5 -71t-51.5 -67t-74.5 -69t-101 -51t-140.5 -38z" />
<glyph unicode="&#x2c6;" horiz-adv-x="645" d="M113 1196l278 297h379l174 -297h-262l-113 129l-159 -129h-297z" />
<glyph unicode="&#x2c7;" horiz-adv-x="649" d="M168 1493h262l113 -129l159 129h297l-278 -297h-379z" />
<glyph unicode="&#x2d8;" horiz-adv-x="608" d="M184 1479h244q-5 -30 22.5 -50t77.5 -20q69 0 114 20t50 50h246q-22 -133 -130 -208t-282 -75q-181 0 -271 79t-71 204z" />
<glyph unicode="&#x2d9;" horiz-adv-x="243" d="M168 1217l51 296h320l-52 -296h-319z" />
<glyph unicode="&#x2da;" horiz-adv-x="466" d="M100 1421q0 101 72.5 173.5t173.5 72.5t173.5 -72.5t72.5 -173.5t-72.5 -173t-173.5 -72t-173.5 72t-72.5 173zM287 1421q0 -25 17 -42t42 -17t42.5 17t17.5 42t-17.5 42.5t-42.5 17.5t-42 -17.5t-17 -42.5z" />
<glyph unicode="&#x2db;" horiz-adv-x="360" d="M-121 -238q0 152 293 261l188 -21q-221 -113 -221 -201q0 -19 10 -30.5t30.5 -16t34 -5.5t39 0t26.5 1l-66 -170q-2 0 -26 -0.5t-40 0t-45.5 2t-51.5 6.5t-50 13t-47.5 22t-37.5 32.5t-27 46t-9 60.5z" />
<glyph unicode="&#x2dc;" horiz-adv-x="647" d="M127 1303q77 111 113 148q80 81 180 81q48 0 103.5 -24t102 -48t74.5 -24q52 0 127 98l162 -109q-77 -111 -113 -148q-81 -81 -180 -81q-48 0 -103 24t-101 48t-74 24q-54 0 -129 -98z" />
<glyph unicode="&#x2dd;" horiz-adv-x="759" d="M123 1196l219 297h348l-321 -297h-246zM532 1196l222 297h346l-324 -297h-244z" />
<glyph unicode="&#x2e3;" horiz-adv-x="825" d="M25 788l309 320l-180 326h297l67 -160l125 160h334l-297 -324l194 -322h-292l-78 164l-127 -164h-352z" />
<glyph unicode="&#x3c0;" horiz-adv-x="1216" d="M45 729l61 346h1166l-62 -346h-168l-129 -729h-356l129 729h-125l-129 -729h-356l129 729h-160z" />
<glyph unicode="&#x1e80;" horiz-adv-x="2027" d="M141 1434h490l16 -760l320 760h354l53 -758l281 758h522l-649 -1434h-420l-61 803l-340 -803h-420zM788 1802h422l207 -297h-321z" />
<glyph unicode="&#x1e81;" horiz-adv-x="1748" d="M80 1075h432l12 -588l262 588h336l47 -567l209 567h457l-514 -1075h-389l-64 555l-264 -555h-389zM598 1493h422l207 -297h-322z" />
<glyph unicode="&#x1e82;" horiz-adv-x="2027" d="M141 1434h490l16 -760l320 760h354l53 -758l281 758h522l-649 -1434h-420l-61 803l-340 -803h-420zM907 1505l310 297h462l-411 -297h-361z" />
<glyph unicode="&#x1e83;" horiz-adv-x="1748" d="M80 1075h432l12 -588l262 588h336l47 -567l209 567h457l-514 -1075h-389l-64 555l-264 -555h-389zM715 1196l309 297h463l-412 -297h-360z" />
<glyph unicode="&#x1e84;" horiz-adv-x="2027" d="M141 1434h490l16 -760l320 760h354l53 -758l281 758h522l-649 -1434h-420l-61 803l-340 -803h-420zM807 1526l53 297h320l-54 -297h-319zM1223 1526l53 297h319l-53 -297h-319z" />
<glyph unicode="&#x1e85;" horiz-adv-x="1748" d="M80 1075h432l12 -588l262 588h336l47 -567l209 567h457l-514 -1075h-389l-64 555l-264 -555h-389zM614 1217l54 296h319l-53 -296h-320zM1030 1217l53 296h320l-53 -296h-320z" />
<glyph unicode="&#x1e9e;" horiz-adv-x="1736" d="M0 0l152 850q14 82 35 149t56.5 136.5t88.5 121t125 93t173.5 63t227.5 21.5h815l-45 -283l-289 -274q160 -53 248 -154.5t88 -251.5q0 -99 -39.5 -187.5t-114 -157.5t-191.5 -109t-261 -40q-285 0 -524 158l223 291q170 -90 279 -90q73 0 125.5 31t52.5 88 q0 129 -342 129h-109l43 266l227 217h-182q-125 0 -191.5 -66.5t-95.5 -228.5l-139 -772h-436z" />
<glyph unicode="&#x1ef2;" horiz-adv-x="1400" d="M119 1434h463l153 -482l322 482h508l-656 -865l-100 -569h-436l100 569zM471 1802h422l207 -297h-322z" />
<glyph unicode="&#x1ef3;" horiz-adv-x="1230" d="M-14 -170q23 8 74 25.5t71 25.5t54 23.5t58 33.5t48 42l-225 1095h434l71 -575l277 575h467l-592 -1075q-79 -142 -129 -205q-140 -178 -383 -250q-63 -19 -135 -32zM330 1493h422l206 -297h-321z" />
<glyph unicode="&#x2000;" horiz-adv-x="988" />
<glyph unicode="&#x2001;" horiz-adv-x="1976" />
<glyph unicode="&#x2002;" horiz-adv-x="988" />
<glyph unicode="&#x2003;" horiz-adv-x="1976" />
<glyph unicode="&#x2004;" horiz-adv-x="658" />
<glyph unicode="&#x2005;" horiz-adv-x="494" />
<glyph unicode="&#x2006;" horiz-adv-x="329" />
<glyph unicode="&#x2007;" horiz-adv-x="329" />
<glyph unicode="&#x2008;" horiz-adv-x="247" />
<glyph unicode="&#x2009;" horiz-adv-x="395" />
<glyph unicode="&#x200a;" horiz-adv-x="109" />
<glyph unicode="&#x2010;" horiz-adv-x="1015" d="M49 418l57 330h713l-57 -330h-713z" />
<glyph unicode="&#x2011;" horiz-adv-x="1015" d="M49 418l57 330h713l-57 -330h-713z" />
<glyph unicode="&#x2012;" horiz-adv-x="1015" d="M49 418l57 330h713l-57 -330h-713z" />
<glyph unicode="&#x2013;" horiz-adv-x="1255" d="M49 420l57 325h973l-57 -325h-973z" />
<glyph unicode="&#x2014;" horiz-adv-x="1468" d="M49 420l57 325h1192l-57 -325h-1192z" />
<glyph unicode="&#x2018;" horiz-adv-x="595" d="M86 668l64 485l387 322l81 -136l-225 -243h182l-75 -428h-414z" />
<glyph unicode="&#x2019;" horiz-adv-x="569" d="M94 762l225 244h-182l76 428h414l-64 -486l-387 -321z" />
<glyph unicode="&#x201a;" horiz-adv-x="612" d="M-68 -244l226 244h-183l76 428h414l-64 -485l-387 -322z" />
<glyph unicode="&#x201c;" horiz-adv-x="1146" d="M86 668l64 485l387 322l81 -136l-225 -243h182l-75 -428h-414zM627 668l63 485l387 322l82 -136l-225 -243h182l-76 -428h-413z" />
<glyph unicode="&#x201d;" horiz-adv-x="1120" d="M94 762l225 244h-182l76 428h414l-64 -486l-387 -321zM637 762l225 244h-182l76 428h413l-63 -486l-387 -321z" />
<glyph unicode="&#x201e;" horiz-adv-x="1163" d="M-68 -244l226 244h-183l76 428h414l-64 -485l-387 -322zM475 -244l225 244h-182l76 428h414l-64 -485l-387 -322z" />
<glyph unicode="&#x2020;" horiz-adv-x="1275" d="M68 719l57 328l428 -37l76 424h311l-76 -424l441 37l-58 -328l-428 37l-207 -1174h-311l207 1174z" />
<glyph unicode="&#x2021;" horiz-adv-x="1294" d="M-20 182l57 328l428 -37l49 283l-440 -37l59 328l426 -37l76 424h311l-76 -424l441 37l-58 -328l-428 37l-49 -283l441 37l-60 -328l-426 37l-113 -637h-311l113 637z" />
<glyph unicode="&#x2022;" horiz-adv-x="1028" d="M113 584q0 160 111.5 272.5t271.5 112.5t272.5 -112.5t112.5 -272.5t-112.5 -271.5t-272.5 -111.5t-271.5 111.5t-111.5 271.5z" />
<glyph unicode="&#x2026;" horiz-adv-x="1773" d="M-27 0l76 428h414l-76 -428h-414zM551 0l76 428h413l-75 -428h-414zM1126 0l76 428h414l-76 -428h-414z" />
<glyph unicode="&#x202f;" horiz-adv-x="395" />
<glyph unicode="&#x2030;" horiz-adv-x="2994" d="M125 1012q0 86 29 164.5t84 141.5t144 100.5t200 37.5q183 0 292 -88t109 -235q0 -86 -29 -164.5t-84 -142t-144 -101t-200 -37.5q-183 0 -292 88.5t-109 235.5zM418 0l979 1434h317l-981 -1434h-315zM430 1044q0 -118 109 -118q47 0 80.5 33t46 71t12.5 70 q0 119 -109 119q-47 0 -80.5 -33.5t-46 -71.5t-12.5 -70zM1151 301q0 86 29 164.5t84 141.5t144 100.5t200 37.5q183 0 292 -88t109 -235q0 -86 -29 -164.5t-84 -142t-144 -101t-200 -37.5q-183 0 -292 88.5t-109 235.5zM1456 334q0 -119 109 -119q47 0 80.5 33t46 71 t12.5 70q0 119 -109 119q-47 0 -80.5 -33t-46 -71t-12.5 -70zM2075 301q0 86 28.5 164.5t83.5 141.5t144 100.5t200 37.5q183 0 292.5 -88.5t109.5 -234.5q0 -86 -29 -164.5t-84 -142t-144 -101t-200 -37.5q-183 0 -292 88.5t-109 235.5zM2380 334q0 -119 108 -119 q36 0 64.5 19t44 47.5t23.5 56.5t8 51q0 119 -109 119q-47 0 -80.5 -33t-46 -71t-12.5 -70z" />
<glyph unicode="&#x2039;" horiz-adv-x="743" d="M10 416l43 248l688 413l-73 -413l-287 -156l231 -154l-61 -354z" />
<glyph unicode="&#x203a;" horiz-adv-x="739" d="M-23 0l74 414l287 155l-232 154l62 354l541 -415l-43 -248z" />
<glyph unicode="&#x2044;" horiz-adv-x="509" d="M-326 0l891 1434h330l-891 -1434h-330z" />
<glyph unicode="&#x205f;" horiz-adv-x="494" />
<glyph unicode="&#x2070;" horiz-adv-x="915" d="M150 1165q0 32 4.5 69t17.5 86.5t33.5 95.5t56 92t81 79.5t112.5 54.5t147 21q90 0 161 -22.5t116.5 -59.5t75 -88.5t41.5 -106.5t12 -116q0 -32 -4.5 -69t-18 -86.5t-34 -95t-56 -91t-81 -79t-112.5 -54.5t-147 -21q-90 0 -160.5 22t-115.5 59t-75 88.5t-42 106 t-12 115.5zM434 1141q1 -34 5.5 -57.5t16.5 -46t37 -34.5t62 -12q47 0 82 40t51 96.5t23.5 100t7.5 68.5q-1 34 -5 57t-16 45.5t-36.5 34t-61.5 11.5q-38 0 -69 -27.5t-48 -65.5t-29 -83t-16 -77t-4 -50z" />
<glyph unicode="&#x2074;" horiz-adv-x="935" d="M82 922l35 194l473 533h383l-88 -492h133l-37 -235h-137l-23 -134h-286l22 134h-475zM436 1157h162l43 242z" />
<glyph unicode="&#x2075;" horiz-adv-x="837" d="M78 932l155 176q39 -28 65.5 -44.5t73.5 -31t99 -14.5q127 0 127 67q0 60 -98 60q-85 0 -160 -45l-158 106l125 443h647l-41 -236h-397l-10 -47q34 6 74 6q152 0 232.5 -79.5t80.5 -194.5q0 -62 -25 -119t-72.5 -103.5t-124 -74t-171.5 -27.5q-233 0 -422 158z" />
<glyph unicode="&#x2076;" horiz-adv-x="870" d="M141 1133q0 111 46.5 208.5t129 168.5t203 112t262.5 41q57 0 105.5 -7.5t68.5 -14.5l19 -7l-96 -207q-37 7 -84 7q-228 0 -310 -115q68 31 156 31q131 0 213 -71.5t82 -193.5q0 -133 -102.5 -222t-282.5 -89q-192 0 -301 102.5t-109 256.5zM430 1106q2 -48 30.5 -75 t80.5 -27q56 0 82 20.5t26 50.5q0 66 -106 66q-63 0 -113 -35z" />
<glyph unicode="&#x2077;" horiz-adv-x="720" d="M127 788q48 255 399 625h-356l41 236h680l-41 -234q-15 -14 -39.5 -39t-90 -99.5t-118.5 -146.5t-104 -167.5t-66 -174.5h-305z" />
<glyph unicode="&#x2078;" horiz-adv-x="884" d="M111 1018q0 159 229 254q-94 75 -94 166q0 99 93.5 162t270.5 63q168 0 258 -59t90 -152q0 -112 -155 -201q143 -77 143 -209q0 -122 -112 -195t-320 -73q-196 0 -299.5 66t-103.5 178zM403 1049q0 -62 117 -62q60 0 96.5 18.5t36.5 53.5q0 53 -92 96q-55 -18 -81.5 -28 t-51.5 -31t-25 -47zM524 1405q0 -37 49 -57q51 11 78 25t27 40q0 45 -72 45q-37 0 -59.5 -15t-22.5 -38z" />
<glyph unicode="&#x2079;" horiz-adv-x="866" d="M121 803l96 207q37 -6 84 -6q227 0 309 112q-63 -29 -155 -29q-131 0 -213 71.5t-82 193.5q0 133 102.5 222t282.5 89q192 0 300.5 -102t108.5 -256q0 -149 -79 -269.5t-226.5 -191t-335.5 -70.5q-57 0 -105 7t-68 15zM446 1362q0 -66 107 -66q64 0 113 35 q-2 48 -30.5 75.5t-80.5 27.5q-56 0 -82.5 -21t-26.5 -51z" />
<glyph unicode="&#x207a;" horiz-adv-x="808" d="M164 1098l35 202h231l37 203h209l-37 -203h233l-34 -202h-234l-35 -205h-209l35 205h-231z" />
<glyph unicode="&#x207d;" horiz-adv-x="505" d="M113 810.5q-6 70.5 14 172.5l82 467q8 43 13 67t13.5 56.5t16.5 50t21.5 41.5t28 36.5t36.5 29.5t48.5 27t61.5 22t76.5 21t93.5 18l46 -152q-89 -30 -116 -55t-36 -80l-111 -631q-14 -54 -0.5 -88.5t70.5 -62.5l-65 -138q-151 32 -219 80t-74 118.5z" />
<glyph unicode="&#x207e;" horiz-adv-x="499" d="M66 764q89 30 115.5 54.5t35.5 80.5l111 631q14 54 0.5 88.5t-70.5 62.5l66 138q151 -32 219 -80t73.5 -118.5t-14.5 -172.5l-82 -467q-8 -43 -13 -67t-13.5 -56.5t-16.5 -50t-21.5 -41.5t-28 -36.5t-36.5 -29.5t-48.5 -27t-61.5 -22t-76.5 -21t-93.5 -18z" />
<glyph unicode="&#x207f;" horiz-adv-x="837" d="M98 788l113 646h278l-10 -60q112 74 228 74q119 0 168 -65t28 -183l-72 -412h-278l68 381q13 68 -39 68q-75 0 -138 -57l-67 -392h-279z" />
<glyph unicode="&#x2080;" horiz-adv-x="915" d="M37 70q0 32 4.5 69t17.5 86.5t33.5 95.5t56 91.5t81 79t112.5 54.5t147 21q90 0 161 -22.5t116.5 -59.5t75 -88.5t41.5 -106.5t12 -116q0 -32 -4.5 -69t-18 -86.5t-34 -95t-56 -91t-81 -79t-112.5 -54.5t-147 -21q-90 0 -160.5 22.5t-115.5 59.5t-75 88.5t-42 106 t-12 115.5zM322 45q1 -34 5.5 -57t16 -46t36.5 -34.5t62 -11.5q47 0 82 40t51 96.5t23.5 100t7.5 68.5q-1 34 -5 56.5t-16 45.5t-36.5 34t-61.5 11q-47 0 -82 -39.5t-51.5 -95.5t-24 -99.5t-7.5 -68.5z" />
<glyph unicode="&#x2081;" horiz-adv-x="604" d="M35 401l301 152h274l-151 -860h-283l105 583l-156 -69z" />
<glyph unicode="&#x2082;" horiz-adv-x="845" d="M-41 -307l18 106q10 57 36 108t57 86t77 70t81.5 56t86.5 47q42 22 85.5 43t67 32t43.5 21.5t28 18.5t8 18q-3 33 -74 33q-92 0 -252 -82l-106 196q41 23 67 36t83 37t119.5 36t127.5 12q159 0 242.5 -74.5t83.5 -177.5q0 -51 -22 -96.5t-53 -77t-81 -63t-88 -49.5 t-92 -41q-125 -53 -146 -60h404l-41 -235h-760z" />
<glyph unicode="&#x2083;" horiz-adv-x="841" d="M-41 -164l139 172q96 -53 158 -72.5t125 -19.5q108 0 108 47q0 13 -6.5 23t-22 16t-29 9.5t-41.5 4.5t-45 1.5t-51 0.5h-11h-37l41 236h39q126 0 159 9q37 10 37 34q0 35 -59 35q-98 0 -256 -74l-94 193q191 116 399 116q152 0 227.5 -59.5t75.5 -151.5q0 -124 -164 -202 q60 -25 95.5 -77t35.5 -118q0 -37 -10 -73.5t-36.5 -75t-66.5 -67t-105.5 -47t-147.5 -18.5q-239 0 -457 158z" />
<glyph unicode="&#x2084;" horiz-adv-x="935" d="M-29 -174l35 194l473 533h383l-88 -492h133l-37 -235h-137l-22 -133h-287l22 133h-475zM326 61h161l43 242z" />
<glyph unicode="&#x2085;" horiz-adv-x="837" d="M-33 -164l156 176q39 -29 65.5 -45t73 -30.5t98.5 -14.5q127 0 127 68q0 59 -98 59q-85 0 -160 -45l-157 107l125 442h647l-41 -236h-397l-11 -47q35 6 74 6q152 0 232.5 -79.5t80.5 -194.5q0 -62 -25 -119t-72.5 -103.5t-124 -74t-171.5 -27.5q-233 0 -422 158z" />
<glyph unicode="&#x2086;" horiz-adv-x="870" d="M31 37q0 111 46.5 208.5t129 168.5t203 112t262.5 41q57 0 105 -7t67 -14l20 -7l-96 -207q-37 6 -84 6q-227 0 -309 -115q68 31 155 31q131 0 213 -71t82 -193q0 -133 -103 -222.5t-282 -89.5q-192 0 -300.5 102t-108.5 257zM319 10q2 -48 30.5 -75t80.5 -27 q56 0 82.5 21t26.5 51q0 65 -107 65q-63 0 -113 -35z" />
<glyph unicode="&#x2087;" horiz-adv-x="720" d="M16 -307q47 252 400 624h-357l41 236h680l-41 -234q-15 -14 -39.5 -39t-90 -99t-118.5 -146t-103.5 -167.5t-65.5 -174.5h-306z" />
<glyph unicode="&#x2088;" horiz-adv-x="884" d="M0 -78q0 159 229 254q-94 75 -94 166q0 99 94 162t271 63q168 0 258 -59t90 -152q0 -111 -156 -200q144 -77 144 -209q0 -122 -112.5 -195.5t-320.5 -73.5q-196 0 -299.5 66t-103.5 178zM293 -47q0 -62 117 -62q60 0 96.5 18.5t36.5 53.5q0 53 -92 96q-55 -18 -81.5 -28 t-51.5 -31t-25 -47zM414 309q0 -37 49 -57q50 11 77 25t27 40q0 45 -71 45q-37 0 -59.5 -15t-22.5 -38z" />
<glyph unicode="&#x2089;" horiz-adv-x="866" d="M10 -293l96 207q37 -6 84 -6q228 0 310 112q-61 -28 -156 -28q-131 0 -213 71t-82 193q0 133 102.5 222t282.5 89q193 0 301.5 -102t108.5 -256q0 -149 -79 -269.5t-226.5 -191t-335.5 -70.5q-57 0 -105.5 7t-67.5 15zM336 266q0 -65 106 -65q64 0 113 35q-2 48 -30.5 75 t-80.5 27q-55 0 -81.5 -21t-26.5 -51z" />
<glyph unicode="&#x208a;" horiz-adv-x="808" d="M53 2l35 203h231l37 203h209l-37 -203h234l-35 -203h-233l-35 -205h-209l35 205h-232z" />
<glyph unicode="&#x208d;" horiz-adv-x="505" d="M2 -285.5q-6 70.5 14 172.5l82 467q10 53 16.5 82t18 67t24 57t34 44t48.5 38.5t66.5 30t88 27.5t114.5 23l45 -152q-89 -30 -116 -55t-36 -80l-110 -631q-14 -54 -0.5 -88.5t69.5 -62.5l-65 -137q-151 32 -219 79.5t-74 118z" />
<glyph unicode="&#x208e;" horiz-adv-x="499" d="M-45 -332q89 30 115.5 54.5t35.5 80.5l111 631q14 54 0.5 89t-70.5 63l66 137q151 -32 219 -80t74 -118.5t-14 -172.5l-82 -467q-8 -42 -13 -66.5t-13.5 -57t-16.5 -50t-21.5 -41t-28.5 -36.5t-37 -29.5t-48 -26.5t-61.5 -22t-77 -21t-93.5 -18z" />
<glyph unicode="&#x20a1;" horiz-adv-x="1175" d="M88 610q0 135 31.5 247.5t85 189t125.5 129.5t151 77.5t164 24.5q49 0 98 -6l66 162h162l-80 -195l39 -10l84 205h162l-107 -260l139 -70l-182 -283q-181 101 -285 101q-69 0 -121.5 -47.5t-76 -109t-23.5 -118.5q0 -61 32 -97t99 -36q107 0 303 78l131 -311 q-263 -97 -423 -117l-66 -164h-162l64 160q-15 0 -43 4l-66 -164h-162l84 207q-223 104 -223 403z" />
<glyph unicode="&#x20a4;" horiz-adv-x="1253" d="M-23 0l52 289q7 1 19 3t46.5 12.5t64.5 25.5t65 43t57 63h-203l33 189h198q-2 21 -14 61h-174l35 191h75q-24 87 -24 170q0 191 124 300t351 109q102 0 197.5 -22.5t176 -63.5t131.5 -74t111 -79l-213 -250q-183 131 -317 131q-64 0 -97.5 -27t-33.5 -74q0 -41 31 -120 h405l-33 -191h-311q4 -36 4 -59v-2h295l-33 -189h-321q-42 -54 -88 -78h524l-63 -358h-1070z" />
<glyph unicode="&#x20a7;" horiz-adv-x="1529" d="M33 0l153 868h-53l27 152h53l74 414h583q598 0 617 -414h53l-27 -152h-43q-14 -60 -39.5 -114.5t-72 -109.5t-107.5 -95t-151.5 -65t-198.5 -25h-350l-82 -459h-436zM612 813h203q125 0 180 55h-372zM649 1020h379q-29 55 -166 55h-203z" />
<glyph unicode="&#x20a9;" horiz-adv-x="2185" d="M29 492l41 233h204l-12 113h-172l41 233h109l-37 363h489l8 -363h174l154 363h354l25 -363h174l135 363h522l-165 -363h112l-41 -233h-176l-51 -113h207l-41 -233h-273l-221 -492h-420l-61 803l-340 -803h-420l-51 492h-268zM705 838l4 -164l67 164h-71zM1423 838 l13 -162l59 162h-72z" />
<glyph unicode="&#x20ac;" horiz-adv-x="1511" d="M33 475l35 207h112l6 59h-104l35 207h114q79 244 254.5 376t411.5 132q96 0 185.5 -17.5t183 -57t146 -66.5t151.5 -82l-230 -309q-132 72 -217 105.5t-166 33.5q-138 0 -225 -115h354l-37 -207h-405q-4 -21 -8 -59h401l-37 -207h-356q32 -106 151 -106q139 0 420 131 l181 -344q-191 -88 -362 -133.5t-347 -45.5q-221 0 -353.5 126.5t-150.5 371.5h-143z" />
<glyph unicode="&#x2116;" horiz-adv-x="2588" d="M14 0l254 1434h441l311 -787l139 787h436l-254 -1434h-440l-311 788l-139 -788h-437zM1583 242l39 233h776l-39 -233h-776zM1604 909q0 97 33.5 186.5t96.5 162t166 116t230 43.5q204 0 333.5 -101t129.5 -267q0 -97 -33.5 -186.5t-96.5 -162t-166 -116t-231 -43.5 q-205 0 -333.5 101t-128.5 267zM1962 946q0 -123 119 -123q41 0 72.5 20.5t47.5 52t23.5 61.5t7.5 55q0 123 -116 123q-41 0 -73 -21t-48.5 -52t-24.5 -61t-8 -55z" />
<glyph unicode="&#x2117;" horiz-adv-x="1667" d="M78 641q0 131 32.5 251.5t98 223t158 178.5t219 119t274.5 43q206 0 360.5 -84.5t235 -234.5t80.5 -344q0 -131 -32.5 -251.5t-98.5 -223.5t-158 -179t-219.5 -119t-275.5 -43q-309 0 -491.5 184t-182.5 480zM158 643q0 -171 70 -303t208 -208.5t324 -76.5 q160 0 293 58.5t220 159t135 234t48 284.5q0 127 -41 235t-117 186t-190 122t-254 44q-160 0 -293 -58.5t-220 -159t-135 -233.5t-48 -284zM506 285l151 862h285q117 0 185.5 -56.5t68.5 -168.5q0 -148 -95 -224.5t-253 -76.5h-184l-58 -336h-100zM680 709h186 q97 0 163.5 57t66.5 156q0 139 -168 139h-187z" />
<glyph unicode="&#x2120;" horiz-adv-x="1257" d="M135 1038l82 99q97 -52 186 -52q24 0 42 5.5t18 15.5q0 11 -21 16t-63.5 13.5t-75.5 21.5q-113 42 -113 137q0 64 57 106t156 42q124 0 254 -64l-82 -98q-88 43 -157 43q-51 0 -51 -23q0 -11 16 -15.5t56.5 -13t76.5 -22.5q117 -41 119 -137q0 -62 -59.5 -103.5 t-165.5 -41.5q-148 0 -275 71zM664 975l79 459h154l86 -234l180 234h154l-80 -459h-147l40 242l-122 -166h-90l-64 172l-43 -248h-147z" />
<glyph unicode="&#x2122;" horiz-adv-x="1265" d="M223 1313l23 121h448l-20 -121h-152l-59 -338h-148l60 338h-152zM662 975l79 459h154l86 -234l178 234h154l-80 -459h-148l41 242l-122 -166h-89l-63 172l-43 -248h-147z" />
<glyph unicode="&#x2126;" horiz-adv-x="1622" d="M0 0l63 358h197q-75 48 -125.5 136t-50.5 215q0 116 32 224t99 203.5t162 166.5t230.5 112t295.5 41q327 0 505.5 -158.5t178.5 -447.5q0 -183 -92 -317t-221 -175h182l-63 -358h-648l66 373q99 15 175.5 88t114.5 172.5t38 206.5q0 126 -56 185.5t-176 59.5 q-78 0 -141.5 -26.5t-104.5 -71t-70.5 -96.5t-44.5 -110t-21.5 -104t-6.5 -85q0 -88 42.5 -142t150.5 -77l-66 -373h-645z" />
<glyph unicode="&#x2153;" horiz-adv-x="1972" d="M156 1282l301 152h274l-151 -861h-283l104 584l-155 -70zM301 0l891 1434h330l-891 -1434h-330zM1012 143l139 172q96 -53 158 -72.5t125 -19.5q108 0 108 47q0 20 -14.5 32t-48.5 17t-60 6t-78 1h-3.5h-2.5h-37l41 235h39q126 0 159 9q37 11 38 34q0 35 -59 35 q-98 0 -256 -74l-95 193q191 116 400 116q152 0 227.5 -59t75.5 -151q0 -125 -164 -203q60 -25 95.5 -77t35.5 -118q0 -47 -18 -93t-57 -89.5t-114.5 -70.5t-177.5 -27q-240 0 -456 157z" />
<glyph unicode="&#x2154;" horiz-adv-x="2181" d="M55 573l19 107q10 57 36 108t57 86t77 70t81.5 56t86.5 47q42 22 85.5 43t66.5 32t43.5 21.5t28 18.5t7.5 18q-3 32 -74 32q-92 0 -252 -82l-106 197q41 23 67 36t83 37t119.5 36t127.5 12q159 0 242.5 -74.5t83.5 -177.5q0 -42 -14 -80.5t-41.5 -69.5t-57.5 -56.5 t-72.5 -49t-74.5 -39t-76 -33.5q-118 -50 -145 -59h403l-41 -236h-760zM535 0l890 1434h330l-891 -1434h-329zM1243 143l139 172q96 -53 158 -72.5t125 -19.5q109 0 109 47q0 20 -14.5 32t-48.5 17t-60 6t-78 1h-3.5h-2.5h-37l41 235h39q126 0 159 9q36 11 37 34 q0 35 -59 35q-98 0 -256 -74l-94 193q191 116 399 116q152 0 227.5 -59t75.5 -151q0 -125 -164 -203q60 -25 95.5 -77t35.5 -118q0 -37 -10 -73.5t-36.5 -74.5t-66.5 -66.5t-105.5 -47t-147.5 -18.5q-241 0 -457 157z" />
<glyph unicode="&#x2155;" horiz-adv-x="1996" d="M156 1282l301 152h274l-151 -861h-283l104 584l-155 -70zM301 0l891 1434h330l-891 -1434h-330zM1038 143l156 176q39 -28 65.5 -44.5t73.5 -31t99 -14.5q127 0 127 68q0 59 -99 59q-85 0 -160 -45l-157 107l125 442h647l-41 -235h-397l-11 -47q34 6 74 6 q152 0 232.5 -80t80.5 -195q0 -62 -25 -119t-72.5 -103t-124 -73.5t-171.5 -27.5q-234 0 -422 157z" />
<glyph unicode="&#x2156;" horiz-adv-x="2189" d="M55 573l19 107q10 57 36 108t57 86t77 70t81.5 56t86.5 47q42 22 85.5 43t66.5 32t43.5 21.5t28 18.5t7.5 18q-3 32 -74 32q-92 0 -252 -82l-106 197q41 23 67 36t83 37t119.5 36t127.5 12q159 0 242.5 -74.5t83.5 -177.5q0 -42 -14 -80.5t-41.5 -69.5t-57.5 -56.5 t-72.5 -49t-74.5 -39t-76 -33.5q-118 -50 -145 -59h403l-41 -236h-760zM535 0l890 1434h330l-891 -1434h-329zM1264 143l155 176q39 -28 65.5 -44.5t73.5 -31t99 -14.5q127 0 127 68q0 59 -98 59q-85 0 -160 -45l-158 107l125 442h647l-41 -235h-397l-10 -47q34 6 73 6 q152 0 233 -80t81 -195q0 -62 -25 -119t-72.5 -103t-124 -73.5t-171.5 -27.5q-234 0 -422 157z" />
<glyph unicode="&#x2157;" horiz-adv-x="2152" d="M61 717l140 172q96 -53 157.5 -72.5t124.5 -19.5q109 0 109 47q0 13 -6.5 23t-22 16t-29.5 9.5t-42 4.5t-44.5 1.5t-51.5 0.5h-11h-37l41 236h39q126 0 159 9q38 10 38 34q0 34 -60 34q-100 0 -256 -73l-94 192q192 117 399 117q152 0 228 -59.5t76 -151.5 q0 -125 -164 -203q60 -25 95.5 -76.5t35.5 -117.5q0 -37 -10 -73.5t-36.5 -75t-66.5 -67t-106 -47t-148 -18.5q-239 0 -457 158zM479 0l891 1434h330l-891 -1434h-330zM1214 143l156 176q39 -28 65.5 -44.5t73.5 -31t99 -14.5q127 0 127 68q0 59 -99 59q-84 0 -159 -45 l-158 107l125 442h647l-41 -235h-397l-11 -47q34 6 74 6q152 0 233 -80t81 -195q0 -62 -25.5 -119t-73 -103t-124 -73.5t-171.5 -27.5q-234 0 -422 157z" />
<glyph unicode="&#x2158;" horiz-adv-x="2256" d="M68 707l34 194l473 533h383l-88 -492h134l-37 -235h-138l-22 -134h-287l23 134h-475zM422 942h162l43 242zM582 0l891 1434h329l-891 -1434h-329zM1315 143l155 176q39 -28 65.5 -44.5t73.5 -31t99 -14.5q127 0 127 68q0 59 -98 59q-85 0 -160 -45l-158 107l125 442h647 l-41 -235h-397l-10 -47q35 6 74 6q152 0 232.5 -80t80.5 -195q0 -62 -25 -119t-72.5 -103t-124 -73.5t-171.5 -27.5q-234 0 -422 157z" />
<glyph unicode="&#x2159;" horiz-adv-x="1964" d="M156 1282l301 152h274l-151 -861h-283l104 584l-155 -70zM301 0l891 1434h330l-891 -1434h-330zM1032 344q0 111 46.5 208.5t129 168.5t203 112t262.5 41q57 0 105.5 -7t67.5 -14l20 -7l-97 -207q-36 6 -83 6q-228 0 -310 -115q68 31 156 31q131 0 213 -71t82 -193 q0 -133 -102.5 -222t-282.5 -89q-193 0 -301.5 102t-108.5 256zM1321 317q2 -48 30.5 -75t80.5 -27q55 0 81.5 21t26.5 51q0 65 -106 65q-63 0 -113 -35z" />
<glyph unicode="&#x215a;" horiz-adv-x="2091" d="M63 717l156 176q39 -28 65.5 -44.5t73.5 -31t99 -14.5q127 0 127 67q0 60 -99 60q-84 0 -159 -45l-158 106l125 443h647l-41 -236h-397l-10 -47q34 6 73 6q152 0 233 -79.5t81 -194.5q0 -62 -25.5 -119t-73 -103.5t-124 -74t-171.5 -27.5q-233 0 -422 158zM451 0 l890 1434h330l-891 -1434h-329zM1176 344q0 111 46.5 208.5t129 168.5t203 112t262.5 41q57 0 105 -7t68 -14l19 -7l-96 -207q-37 6 -84 6q-227 0 -309 -115q68 31 155 31q131 0 213 -71t82 -193q0 -133 -102.5 -222t-282.5 -89q-192 0 -300.5 102t-108.5 256zM1464 317 q2 -48 30.5 -75t80.5 -27q55 0 81.5 21t26.5 51q0 65 -106 65q-63 0 -113 -35z" />
<glyph unicode="&#x215b;" horiz-adv-x="1990" d="M156 1282l301 152h274l-151 -861h-283l104 584l-155 -70zM301 0l891 1434h330l-891 -1434h-330zM1020 229q0 159 229 254q-94 75 -94 166q0 99 94 162t271 63q169 0 258.5 -58.5t89.5 -151.5q0 -112 -156 -201q143 -77 143 -209q0 -122 -112 -195t-320 -73 q-196 0 -299.5 65.5t-103.5 177.5zM1313 260q0 -61 117 -61q60 0 96.5 18t36.5 53q0 53 -93 97q-40 -13 -61.5 -21t-47 -21.5t-37 -29t-11.5 -35.5zM1434 616q0 -37 49 -57q50 11 77 25.5t27 40.5q0 45 -71 45q-36 0 -59 -15.5t-23 -38.5z" />
<glyph unicode="&#x215c;" horiz-adv-x="2134" d="M61 717l140 172q96 -53 157.5 -72.5t124.5 -19.5q109 0 109 47q0 13 -6.5 23t-22 16t-29.5 9.5t-42 4.5t-44.5 1.5t-51.5 0.5h-11h-37l41 236h39q126 0 159 9q38 10 38 34q0 34 -60 34q-100 0 -256 -73l-94 192q192 117 399 117q152 0 228 -59.5t76 -151.5 q0 -125 -164 -203q60 -25 95.5 -76.5t35.5 -117.5q0 -37 -10 -73.5t-36.5 -75t-66.5 -67t-106 -47t-148 -18.5q-239 0 -457 158zM479 0l891 1434h330l-891 -1434h-330zM1186 229q0 159 229 254q-94 75 -94 166q0 99 94 162t271 63q169 0 258.5 -58.5t89.5 -151.5 q0 -112 -156 -201q143 -77 143 -209q0 -122 -112 -195t-320 -73q-196 0 -299.5 65.5t-103.5 177.5zM1479 260q0 -61 116 -61q60 0 97 18t37 53q0 53 -93 97q-40 -13 -61.5 -21t-47 -21.5t-37 -29t-11.5 -35.5zM1599 616q0 -36 50 -57q50 11 77 25.5t27 40.5q0 45 -72 45 q-36 0 -59 -15.5t-23 -38.5z" />
<glyph unicode="&#x215d;" horiz-adv-x="2127" d="M63 717l156 176q39 -28 65.5 -44.5t73.5 -31t99 -14.5q127 0 127 67q0 60 -99 60q-84 0 -159 -45l-158 106l125 443h647l-41 -236h-397l-10 -47q34 6 73 6q152 0 233 -79.5t81 -194.5q0 -62 -25.5 -119t-73 -103.5t-124 -74t-171.5 -27.5q-233 0 -422 158zM451 0 l890 1434h330l-891 -1434h-329zM1176 229q0 159 229 254q-94 75 -94 166q0 99 93.5 162t270.5 63q169 0 258.5 -58.5t89.5 -151.5q0 -112 -155 -201q143 -77 143 -209q0 -122 -112 -195t-320 -73q-196 0 -299.5 65.5t-103.5 177.5zM1468 260q0 -61 117 -61q60 0 96.5 18 t36.5 53q0 54 -92 97q-40 -13 -61.5 -21t-47.5 -21.5t-37.5 -29t-11.5 -35.5zM1589 616q0 -37 49 -57q50 11 77.5 25.5t27.5 40.5q0 45 -72 45q-36 0 -59 -15.5t-23 -38.5z" />
<glyph unicode="&#x215e;" horiz-adv-x="1931" d="M113 573q48 255 399 625h-356l41 236h680l-41 -234q-15 -14 -39.5 -39t-90 -99.5t-118.5 -146.5t-104 -167.5t-66 -174.5h-305zM244 0l891 1434h329l-891 -1434h-329zM969 229q0 159 229 254q-94 75 -94 166q0 99 93.5 162t270.5 63q169 0 259 -58.5t90 -151.5 q0 -112 -156 -201q143 -77 143 -209q0 -122 -112 -195t-320 -73q-196 0 -299.5 65.5t-103.5 177.5zM1262 260q0 -61 116 -61q60 0 96.5 18t36.5 53q0 54 -92 97q-40 -13 -61.5 -21t-47 -21.5t-37 -29t-11.5 -35.5zM1382 616q0 -36 50 -57q50 11 77 25.5t27 40.5q0 45 -72 45 q-36 0 -59 -15.5t-23 -38.5z" />
<glyph unicode="&#x2202;" horiz-adv-x="1396" d="M33 459q0 148 73 267t195.5 184t267.5 65q75 0 140.5 -19t105 -46t68.5 -54t41 -46l12 -19q-19 158 -123.5 237.5t-306.5 79.5q-45 0 -96.5 -4t-79.5 -8l-29 -4l10 319q93 23 226 23q152 0 280.5 -39.5t220 -109.5t155.5 -165.5t95 -207.5t31 -236q0 -151 -47.5 -278.5 t-135.5 -221t-223 -146.5t-301 -53q-271 0 -425 130.5t-154 351.5zM473 449q0 -68 39.5 -111t130.5 -43q115 0 170 59t55 146q0 70 -40 113.5t-132 43.5q-111 0 -167 -60t-56 -148z" />
<glyph unicode="&#x2206;" horiz-adv-x="1607" d="M-66 0l787 1434h453l280 -1434h-1520zM514 358h518l-139 643z" />
<glyph unicode="&#x220f;" horiz-adv-x="1536" d="M100 0l193 1087h-166l61 347h1426l-62 -347h-168l-192 -1087h-436l192 1087h-219l-192 -1087h-437z" />
<glyph unicode="&#x2211;" horiz-adv-x="1302" d="M-51 0l31 168l620 549l-428 551l31 166h1149l-64 -359h-526l293 -358l-387 -359h493l-63 -358h-1149z" />
<glyph unicode="&#x2212;" horiz-adv-x="1280" d="M90 528l55 310h1067l-55 -310h-1067z" />
<glyph unicode="&#x221a;" horiz-adv-x="1415" d="M-4 696h426l92 -340l612 1078h453l-838 -1434h-516z" />
<glyph unicode="&#x221e;" horiz-adv-x="1855" d="M59 506q0 174 115 293t297 119q75 0 139.5 -17.5t122.5 -55t98.5 -72.5t98.5 -93q68 55 103 82t89 63t93 52.5t90 28.5t104 12q172 0 272.5 -101.5t100.5 -267.5q0 -175 -116.5 -292.5t-305.5 -117.5q-71 0 -133.5 17.5t-119.5 54.5t-99 73t-99 93q-82 -67 -128 -101 t-108 -71t-119.5 -51.5t-123.5 -14.5q-171 0 -271 101t-100 266zM356 516q0 -61 37 -87t94 -26q53 0 107 27.5t154 101.5q-83 73 -134 97t-94 24q-70 0 -117 -35t-47 -102zM1094 522q76 -66 129 -92.5t102 -26.5q69 0 113.5 37.5t44.5 100.5q0 112 -129 112q-54 0 -108 -28 t-152 -103z" />
<glyph unicode="&#x222b;" horiz-adv-x="829" d="M-147 -293l36 223h39q49 0 84.5 23.5t55 65.5t30 79t19.5 82q1 9 2 13l188 1058q31 183 95.5 283.5t175 142t296.5 41.5h140l-37 -223h-39q-41 0 -74 -18.5t-53 -44t-35.5 -65t-22.5 -68t-14 -66.5l-186 -1059q-23 -138 -62 -226t-106.5 -143t-160 -76.5t-232.5 -21.5 h-139z" />
<glyph unicode="&#x2248;" horiz-adv-x="1277" d="M70 406q80 151 163.5 230t200.5 79q57 0 116.5 -20t101 -43.5t91.5 -43.5t91 -20q37 0 70 23t83 94l191 -82q-80 -151 -164 -230.5t-201 -79.5q-57 0 -116.5 20t-101 43.5t-91 43.5t-90.5 20q-37 0 -69.5 -22.5t-84.5 -93.5zM139 807q79 150 163.5 229.5t201.5 79.5 q57 0 116.5 -20t100.5 -43.5t91 -43.5t91 -20q36 0 69 23t85 94l190 -82q-39 -73 -75 -124.5t-80.5 -96t-97 -66.5t-113.5 -22q-57 0 -116.5 20t-100.5 43.5t-91.5 43.5t-91.5 20q-35 0 -67 -22.5t-84 -94.5z" />
<glyph unicode="&#x2260;" horiz-adv-x="1277" d="M55 328l56 309h350l57 98h-391l55 309h512l150 259l258 -103l-90 -156h235l-55 -309h-358l-56 -98h398l-56 -309h-520l-149 -260l-258 102l90 158h-228z" />
<glyph unicode="&#x2264;" horiz-adv-x="1275" d="M-18 0l45 260h1067l-45 -260h-1067zM96 647l41 236l1129 348l-64 -359l-485 -122l440 -127l-57 -324z" />
<glyph unicode="&#x2265;" horiz-adv-x="1275" d="M14 0l47 260h1063l-45 -260h-1065zM68 299l61 358l481 121l-434 127l55 326l1004 -348l-41 -236z" />
<glyph unicode="&#x2318;" horiz-adv-x="1497" d="M33 383q0 123 94 210t227 87h146l16 74h-39q-133 0 -227 89.5t-94 215.5q0 123 92 210t221 87q125 0 220 -84.5t95 -208.5q0 -17 -4 -47.5t-4 -44.5h92l23 129q19 103 101 179.5t202 76.5q43 0 76 -8q107 -25 178.5 -108t71.5 -189q0 -123 -92.5 -210t-225.5 -87h-147 l-17 -74h41q132 0 226 -89.5t94 -215.5q0 -123 -91.5 -209t-222.5 -86q-126 0 -219.5 83t-93.5 210q0 16 3 46t3 44h-90l-22 -127q-20 -111 -107 -183.5t-203 -72.5q-134 0 -228.5 88t-94.5 215zM254 379q0 -34 29 -58t69 -24q38 0 63.5 24.5t30.5 51.5l19 90h-115 q-40 0 -68 -24.5t-28 -59.5zM377 1055q0 -34 28.5 -59t69.5 -25h76l12 51q7 42 -14 79.5t-76 37.5q-41 0 -68.5 -24.5t-27.5 -59.5zM725 680h92l12 74h-90zM991 412q-8 -40 13 -77.5t77 -37.5q40 0 69.5 24t29.5 58q0 35 -29.5 59.5t-69.5 24.5h-77zM1092 971h112 q39 0 67.5 25t28.5 59q0 35 -29 59.5t-69 24.5t-65 -26.5t-29 -51.5z" />
<glyph unicode="&#x25ca;" horiz-adv-x="1261" d="M63 717l502 717h416l248 -717l-502 -717h-416zM451 655l100 -309l293 432l-103 307z" />
<glyph unicode="&#xe000;" horiz-adv-x="1075" d="M0 0v1075h1075v-1075h-1075z" />
<glyph unicode="&#xf6c3;" horiz-adv-x="346" d="M-88 -563l156 166h-125l51 293h285l-43 -332l-267 -219z" />
<glyph unicode="&#xf6df;" horiz-adv-x="745" d="M45 80q0 170 100 274.5t254 104.5h13l18 92h195l-25 -131q52 -18 156 -66l-119 -186q-101 55 -182 55q-61 0 -95 -33t-34 -86q0 -84 82 -84q80 0 188 41l88 -204q-134 -44 -192 -56l-19 -110h-194l16 96q-115 10 -182.5 79.5t-67.5 213.5z" />
<glyph unicode="&#xf6e0;" horiz-adv-x="745" d="M156 1178q0 170 100 274t254 104h12l19 93h194l-24 -131q48 -16 155 -66l-118 -186q-101 55 -183 55q-61 0 -95 -33t-34 -86q0 -84 82 -84q81 0 189 41l88 -205q-124 -40 -193 -55l-18 -111h-195l17 97q-115 10 -182.5 79.5t-67.5 213.5z" />
<glyph unicode="&#xf6e1;" horiz-adv-x="382" d="M-41 -457l145 150h-120l49 274h266l-33 -313l-254 -199z" />
<glyph unicode="&#xf6e2;" horiz-adv-x="382" d="M70 639l145 149h-121l49 275h267l-33 -313l-254 -199z" />
<glyph unicode="&#xf6e3;" horiz-adv-x="905" d="M-10 -168l147 188q77 -42 165.5 -74t154.5 -32q33 0 54 8t21 21q0 19 -38 30t-108 26.5t-116 35.5q-75 32 -126.5 93.5t-51.5 150.5q0 116 91.5 200t262.5 88l21 111h199l-25 -135q117 -29 270 -109l-147 -188q-67 33 -149 59.5t-140 26.5q-72 0 -72 -31 q0 -19 35.5 -29.5t106 -25.5t123.5 -39q176 -82 176 -238q0 -116 -93.5 -200.5t-263.5 -90.5l-18 -108h-197l23 131q-166 39 -305 131z" />
<glyph unicode="&#xf6e4;" horiz-adv-x="905" d="M100 928l148 188q77 -42 165.5 -74t153.5 -32q76 0 76 28q0 19 -38 30t-108 26.5t-116 35.5q-75 32 -126.5 93.5t-51.5 150.5q0 116 91.5 200.5t262.5 88.5l21 111h198l-24 -136q128 -31 270 -108l-148 -189q-67 33 -148.5 59.5t-139.5 26.5q-72 0 -72 -30 q0 -19 35.5 -29.5t105.5 -25.5t123 -39q176 -82 176 -238q0 -55 -22.5 -105.5t-65 -91.5t-112 -66.5t-156.5 -27.5l-18 -108h-197l23 129q-172 41 -306 133z" />
<glyph unicode="&#xf6e7;" horiz-adv-x="376" d="M-16 -307l49 274h266l-49 -274h-266z" />
<glyph unicode="&#xf6e8;" horiz-adv-x="376" d="M94 788l49 275h267l-50 -275h-266z" />
<glyph unicode="&#xf6e9;" horiz-adv-x="843" d="M121 1034q0 185 91.5 299.5t238.5 114.5q47 0 90.5 -13t64 -24.5t51.5 -32.5l11 56h278l-115 -646h-278l8 50q-113 -64 -221 -64q-44 0 -81.5 13.5t-69.5 42.5t-50 81.5t-18 122.5zM406 1059q0 -66 61 -66q55 0 133 58l23 131q-47 47 -97 47q-56 0 -88 -49t-32 -121z" />
<glyph unicode="&#xf6ea;" horiz-adv-x="845" d="M98 788l158 895h279l-56 -305q111 70 223 70q42 0 79.5 -13.5t70 -42.5t51.5 -81.5t19 -122.5q0 -185 -91.5 -299.5t-238.5 -114.5q-111 0 -207 68l-8 -54h-279zM420 1040q47 -47 98 -47q55 0 87 48.5t32 119.5q0 37 -14.5 52.5t-44.5 15.5q-63 0 -136 -62z" />
<glyph unicode="&#xf6eb;" horiz-adv-x="851" d="M121 1034q0 185 91.5 299.5t238.5 114.5q47 0 90.5 -13t64 -24.5t51.5 -32.5l54 305h278l-158 -895h-278l8 50q-113 -64 -221 -64q-44 0 -81.5 13.5t-69.5 42.5t-50 81.5t-18 122.5zM406 1059q0 -66 61 -66q57 0 131 58l25 131q-47 47 -97 47q-56 0 -88 -49t-32 -121z " />
<glyph unicode="&#xf6ec;" horiz-adv-x="753" d="M117 1057q0 172 110.5 281.5t309.5 109.5q140 0 224.5 -55.5t84.5 -163.5q0 -45 -16 -79.5t-47.5 -55.5t-65 -34t-83.5 -19t-86.5 -7.5t-88.5 -1.5h-70q8 -33 30 -45t58 -12q104 0 246 61l80 -186q-223 -76 -381 -76q-305 0 -305 283zM395 1167h70q59 0 89 11.5t30 42.5 q0 36 -60 36q-98 0 -129 -90z" />
<glyph unicode="&#xf6ed;" horiz-adv-x="397" d="M98 788l113 646h278l-112 -646h-279zM217 1481l35 200h285l-35 -200h-285z" />
<glyph unicode="&#xf6ee;" horiz-adv-x="399" d="M98 788l158 895h279l-158 -895h-279z" />
<glyph unicode="&#xf6ef;" horiz-adv-x="1230" d="M98 788l115 646h279l-13 -64q102 78 205 78q145 0 184 -105q40 40 107 72.5t129 32.5q115 0 162.5 -62t27.5 -178l-73 -420h-279l68 381q13 68 -31 68q-52 0 -111 -51l-69 -398h-279l68 381q13 68 -31 68q-52 0 -111 -51l-69 -398h-279z" />
<glyph unicode="&#xf6f0;" horiz-adv-x="782" d="M117 1085q0 73 24 137t70.5 115.5t123.5 81t175 29.5q181 0 285 -81.5t104 -229.5q0 -73 -23.5 -137t-70 -115.5t-123.5 -81t-176 -29.5q-179 0 -284 82t-105 229zM406 1085q0 -49 18.5 -75.5t71.5 -26.5q31 0 54.5 17t35.5 42.5t18 49.5t6 45q0 49 -18.5 75.5 t-71.5 26.5q-31 0 -54.5 -17t-35.5 -42.5t-18 -49.5t-6 -45z" />
<glyph unicode="&#xf6f1;" horiz-adv-x="602" d="M98 788l115 646h279l-23 -131q13 22 32 43.5t51.5 46.5t81 39t105.5 10l-39 -260q-62 0 -115.5 -24.5t-85 -59t-54 -69t-31.5 -59.5l-8 -24l-29 -158h-279z" />
<glyph unicode="&#xf6f2;" horiz-adv-x="724" d="M78 889l108 162q65 -34 144 -60t141 -26q37 0 37 10q0 11 -16.5 17t-60 12.5t-71.5 13.5q-210 54 -210 205q0 95 78.5 160t226.5 65q95 0 194.5 -27t171.5 -63l-110 -158q-52 23 -120.5 41.5t-117.5 18.5q-41 0 -41 -13q0 -10 14 -15t56.5 -13t75.5 -17q32 -8 56.5 -17 t55.5 -26t51.5 -37.5t35 -53t14.5 -71.5q0 -97 -82.5 -160t-235.5 -63q-112 0 -216.5 33.5t-178.5 81.5z" />
<glyph unicode="&#xf6f3;" horiz-adv-x="589" d="M137 1235l35 199h80l29 161l282 25l-33 -186h185l-35 -199h-184l-29 -168q-9 -53 31 -53q36 0 88 18l69 -209q-149 -49 -260 -49q-128 0 -180 83.5t-25 229.5l27 148h-80z" />
<glyph unicode="&#xf8ff;" horiz-adv-x="1841" d="M146.5 560.5q-2.5 11.5 15.5 21.5l57 41q2 1 3.5 2.5l3 3l2.5 2.5t2 3l1 1q19 16 37 -12l33 -64q6 -12 13 -15.5t13.5 2t10.5 17.5l18 70q6 19 19.5 21t25.5 -13l48 -53q14 -15 23 -11.5t11 23.5l4 70q3 20 15.5 25t27.5 -7l58 -43q17 -12 25.5 -6.5t4.5 25.5l-8 69 q-3 20 8.5 28t28.5 -1l64 -29q19 -9 26.5 -1.5t1.5 26.5l-22 67q-8 19 0.5 29t27.5 4l15 -2q40 -77 70 -202.5t30 -217.5q-15 -18 -34.5 -27.5t-59.5 -9.5h-8q0 46 -33 72q18 -21 18 -55v-15q-32 3 -32 39q0 43 -28 72t-77 29q-41 0 -68.5 -32t-27.5 -79q0 -60 49.5 -96.5 t138.5 -36.5q85 0 172 42t156.5 112t125 154.5t86 175.5t30.5 169q0 59 -36.5 98t-94.5 39q-48 0 -85.5 -33.5t-37.5 -84.5q0 -106 119 -119q-29 -119 -60 -174q-12 96 -43.5 178t-75.5 129q91 -120 107 -330l-29 -41q0 156 -51 287t-131 172q-5 9 2 18.5t22 12.5l70 12 q19 3 21 13.5t-15 21.5l-59 39q-15 13 -13.5 26.5t19.5 20.5l64 29q14 4 19 10.5t0 13.5t-19 12l-64 27q-23 10 -20 29q11 6 14 16l35 62q9 19 20.5 18t16.5 -20l20 -68q6 -21 18.5 -24t26.5 14l47 53q12 15 23 12.5t12 -22.5l4 -72q1 -21 14.5 -26t28.5 8l57 43 q15 12 24 5.5t7 -26.5l-10 -70q-1 -20 10.5 -27.5t28.5 1.5l63 33q19 8 26.5 0t0.5 -29l-23 -64q-6 -20 3 -30t28 -4l70 14q20 6 26.5 -2t-4.5 -27l-37 -59q-12 -17 -5.5 -29.5t26.5 -11.5l72 4q21 0 25 -11t-9 -24l-49 -53q-14 -13 -10.5 -26.5t24.5 -16.5l70 -12 q43 -10 6 -39l-57 -39q-16 -10 -15 -24t21 -21l63 -27q12 -5 16.5 -12t0 -13.5t-16.5 -11.5l-63 -26q-20 -7 -21 -22t15 -25l57 -41q11 -7 14.5 -14.5t-2 -13.5t-18.5 -9l-70 -13q-21 -3 -24.5 -16.5t10.5 -28.5l49 -49q13 -14 9 -24.5t-25 -10.5l-72 5q-20 0 -26.5 -12 t5.5 -29l37 -62q10 -17 4 -25.5t-26 -5.5l-70 19q-18 6 -27.5 -5t-3.5 -30l23 -68q8 -19 0 -26t-27 2l-63 31q-17 9 -28.5 1t-10.5 -30l10 -68q1 -21 -7.5 -25.5t-23.5 7.5l-57 43q-15 12 -28.5 5.5t-14.5 -26.5l-4 -69q-1 -20 -12 -23t-23 11l-47 55q-13 14 -26 12t-19 -22 l-20 -68q-3 -13 -9.5 -18t-14 -1t-13.5 15l-35 61q-9 19 -22 19t-25 -19l-31 -61q-6 -11 -13.5 -15t-14 1t-9.5 18l-20 68q-6 20 -19 22t-26 -12l-47 -55q-12 -14 -22 -11t-13 23l-4 69q-2 20 -15 26.5t-30 -5.5l-54 -43q-17 -13 -26.5 -8t-5.5 26l10 68q1 22 -10.5 30 t-30.5 -1l-62 -31q-19 -9 -26.5 -2t0.5 26l22 68q8 19 -1.5 30t-28.5 5l-70 -19q-20 -3 -26.5 5.5t3.5 25.5l39 62q11 17 4.5 29t-26.5 12l-72 -5q-21 0 -25 10.5t9 24.5l51 49q13 15 9 28.5t-25 16.5l-68 13q-21 4 -23.5 15.5zM623 281q43 -27 122 -27q106 0 212.5 65 t183.5 162t125.5 212t48.5 214q0 63 -41 101q24 -38 24 -84q0 -100 -47.5 -215t-126.5 -215q-85 -105 -188.5 -168.5t-212.5 -63.5q-57 0 -100 19z" />
<glyph unicode="&#xfb06;" horiz-adv-x="2064" d="M-55 160l168 248q97 -53 223 -96.5t209 -43.5q34 0 55 8t26 15.5t5 13.5q0 12 -11.5 21.5t-35.5 17t-49.5 13.5t-66.5 15.5t-73 18.5q-67 19 -120 43.5t-104 63t-79.5 97t-28.5 132.5q0 75 30.5 141t88.5 118t152.5 82t212.5 30q136 0 278 -37q-6 30 -6 67q0 74 31 139 t91 116t156.5 80.5t217.5 29.5q159 0 275 -47t173 -142.5t33 -226.5v-2h285l-49 -303h-291l-62 -340q-9 -55 8 -72.5t48 -17.5q43 0 141 35l100 -322q-231 -78 -403 -78q-194 0 -270 128.5t-35 361.5l53 305h-137l49 303h143l4 25q21 115 -10 167t-129 52 q-103 0 -174.5 -58.5t-71.5 -158.5q0 -56 23 -107q48 -19 94 -43l-168 -239q-82 37 -185 67.5t-175 30.5q-48 0 -70 -12.5t-22 -28.5q0 -12 10 -21t33 -16.5t47.5 -13t67 -15.5t77.5 -20q52 -15 92 -30.5t88.5 -44t80.5 -62.5t53.5 -86t21.5 -115q0 -162 -132.5 -265.5 t-373.5 -103.5q-174 0 -335.5 53.5t-276.5 129.5z" />
<glyph horiz-adv-x="890" d="M84 588l96 207q37 -7 84 -7q227 0 309 113q-63 -29 -155 -29q-131 0 -213 71.5t-82 193.5q0 133 102.5 222t282.5 89q193 0 301.5 -102t108.5 -256q0 -149 -79.5 -269.5t-227 -191t-335.5 -70.5q-57 0 -105 7.5t-67 14.5zM410 1147q0 -66 106 -66q64 0 113 35 q-2 48 -30.5 75.5t-80.5 27.5q-55 0 -81.5 -21t-26.5 -51z" />
<glyph horiz-adv-x="1267" d="M-123 0l504 600l-277 576h435l112 -334l221 334h490l-481 -576l295 -600h-447l-119 326l-227 -326h-506z" />
<glyph horiz-adv-x="1722" d="M-199 -174q67 21 107 36t74 35t50.5 35.5t31 46.5t21.5 59t17 81l117 653h-143l53 303h143q19 106 48.5 181t77 129.5t117 81t163.5 26.5q208 0 436 -129l-158 -234q-119 37 -176 37q-11 0 -20 -2t-23.5 -9.5t-25.5 -27.5t-17 -51v-2h209l-53 -303h-211l-111 -618 q-39 -209 -67 -285q-48 -134 -154 -207q-128 -90 -418 -149zM647 -174q67 21 107 36t74 35t50.5 35.5t31 46.5t21.5 59t17 81l117 653h-143l51 303h145q19 106 48.5 181t77 129.5t117 81t163.5 26.5q85 0 181.5 -32.5t170.5 -71.5l-133 -246q-74 24 -117 24q-11 0 -20 -2 t-23.5 -9.5t-25.5 -27.5t-17 -51v-2h240l-54 -303h-241l-111 -618q-39 -209 -67 -285q-48 -134 -154 -207q-128 -90 -418 -149z" />
<glyph horiz-adv-x="1660" d="M-199 -174q67 21 107 36t73 35t49 35t30 47t20 59t16 81l121 653h-141l51 303h145q22 100 54 171.5t81 123.5t119 77.5t164 25.5q211 0 477 -105q101 125 297 125q209 0 437 -129l-181 -234q-92 37 -153 37q-18 0 -31 -3t-31.5 -25t-25.5 -62v-2h239l-53 -303h-244 l-112 -618q-39 -209 -66 -284q-48 -134 -152 -208q-127 -90 -417 -149l-86 313q66 21 106 36t73 35t49 35t30.5 46.5t20.5 59t16 81.5l116 653h-362l-113 -618q-39 -209 -65 -283q-47 -133 -150 -207q-127 -91 -420 -151zM694 1075h361l12 55q-167 37 -272 37 q-85 0 -101 -90v-2z" />
<glyph horiz-adv-x="2996" d="M-199 -174q67 21 107 36t73 35t49 35t30 47t20 59t16 81l121 653h-141l51 303h145q22 100 54 171.5t81 123.5t119 77.5t164 25.5q217 0 481 -107q103 127 306 127q192 0 421 -84l15 84h420l-92 -516q187 121 358 121q67 0 125.5 -22t108.5 -68.5t79 -130t29 -195.5 q0 -316 -146 -510.5t-380 -194.5q-58 0 -108.5 10.5t-94 32t-67 36.5t-60.5 42l-17 -98h-419l200 1133q-153 34 -272 34q-86 0 -102 -90v-2h241l-51 -303h-248l-112 -618q-39 -209 -66 -284q-48 -134 -152 -208q-127 -90 -417 -149l-88 313q66 21 106 36t73 35t48.5 35 t30 47t21 59t16.5 81l120 653h-360l-113 -618q-39 -209 -65 -283q-47 -133 -150 -207q-127 -91 -420 -151zM694 1075h359l12 58q-153 34 -270 34q-85 0 -101 -90v-2zM2138 401q79 -90 168 -90q96 0 151.5 93.5t55.5 230.5q0 62 -29.5 96.5t-81.5 34.5q-56 0 -107 -29 t-112 -82z" />
<glyph horiz-adv-x="2985" d="M-199 -174q67 21 107 36t73 35t49 35t30 47t20 59t16 81l121 653h-141l51 303h145q22 100 54 171.5t81 123.5t119 77.5t164 25.5q217 0 481 -107q103 127 306 127q192 0 421 -84l15 84h420l-92 -520q195 125 368 125q185 0 262 -107t43 -297l-123 -694h-421l116 649 q14 57 0 92t-67 35q-52 0 -115.5 -27.5t-116.5 -72.5l-119 -676h-419l200 1133q-153 34 -272 34q-86 0 -102 -90v-2h241l-51 -303h-248l-112 -618q-39 -209 -66 -284q-48 -134 -152 -208q-127 -90 -417 -149l-88 313q66 21 106 36t73 35t48.5 35t30 47t21 59t16.5 81 l120 653h-360l-113 -618q-39 -209 -65 -283q-47 -133 -150 -207q-127 -91 -420 -151zM694 1075h359l12 58q-153 34 -270 34q-85 0 -101 -90v-2z" />
<glyph horiz-adv-x="2222" d="M-199 -174q67 21 107 36t73 35t49 35t30 47t20 59t16 81l121 653h-141l51 303h145q22 100 54 171.5t81 123.5t119 77.5t164 25.5q217 0 486 -109q111 129 321 129q140 0 306.5 -40.5t283.5 -88.5l-154 -234q-65 13 -166.5 25t-169.5 12q-106 0 -122 -90v-2h712 l-190 -1075h-420l137 772h-297l-112 -618q-39 -209 -66 -284q-48 -134 -152 -208q-127 -90 -417 -149l-88 313q66 21 106 36t73 35t48.5 35t30 47t21 59t16.5 81l120 653h-360l-113 -618q-39 -209 -65 -283q-47 -133 -150 -207q-127 -91 -420 -151zM694 1075h359l12 58 q-153 34 -270 34q-85 0 -101 -90v-2z" />
<glyph horiz-adv-x="2203" d="M-199 -174q67 21 107 36t73 35t49 35t30 47t20 59t16 81l121 653h-141l51 303h145q22 100 54 171.5t81 123.5t119 77.5t164 25.5q217 0 486 -109q111 129 321 129q140 0 306.5 -40.5t283.5 -88.5l-154 -234q-65 13 -166.5 25t-169.5 12q-106 0 -122 -90v-2h712l-176 -981 q-32 -181 -57 -249q-46 -122 -155 -192q-127 -82 -408 -140l-91 313q66 21 106.5 35.5t73 31.5t48.5 29.5t28.5 35.5t17 42t11.5 57l127 715h-295l-112 -618q-39 -209 -66 -284q-48 -134 -152 -208q-127 -90 -417 -149l-88 313q66 21 106 36t73 35t48.5 35t30 47t21 59 t16.5 81l120 653h-360l-113 -618q-39 -209 -65 -283q-47 -133 -150 -207q-127 -91 -420 -151zM694 1075h359l12 58q-153 34 -270 34q-85 0 -101 -90v-2z" />
<glyph horiz-adv-x="2934" d="M-199 -174q67 21 107 36t73 35t49 35t30 47t20 59t16 81l121 653h-141l51 303h145q22 100 54 171.5t81 123.5t119 77.5t164 25.5q217 0 481 -107q103 127 306 127q192 0 421 -84l15 84h420l-123 -696l248 278h520l-453 -438l322 -637h-426l-174 367l-138 -131l-41 -236 h-419l200 1133q-153 34 -272 34q-86 0 -102 -90v-2h241l-51 -303h-248l-112 -618q-39 -209 -66 -284q-48 -134 -152 -208q-127 -90 -417 -149l-88 313q66 21 106 36t73 35t48.5 35t30 47t21 59t16.5 81l120 653h-360l-113 -618q-39 -209 -65 -283q-47 -133 -150 -207 q-127 -91 -420 -151zM694 1075h359l12 58q-153 34 -270 34q-85 0 -101 -90v-2z" />
<glyph horiz-adv-x="876" d="M-199 -174q67 21 107 36t74 35t50.5 35.5t31 46.5t21.5 59t17 81l117 653h-143l51 303h145q19 106 48.5 181t77 129.5t117 81t163.5 26.5q85 0 181.5 -32.5t170.5 -71.5l-133 -246q-74 24 -117 24q-11 0 -20 -2t-23.5 -9.5t-25.5 -27.5t-17 -51v-2h240l-53 -303h-242 l-111 -618q-39 -209 -67 -285q-48 -134 -154 -207q-128 -90 -418 -149z" />
<glyph horiz-adv-x="2293" d="M-199 -174q67 21 107 36t73 35t49 35t30 47t20 59t16 81l121 653h-141l51 303h145q22 100 54 171.5t81 123.5t119 77.5t164 25.5q217 0 481 -107q103 127 306 127q192 0 421 -84l15 84h420l-265 -1493h-419l200 1133q-153 34 -272 34q-86 0 -102 -90v-2h241l-51 -303 h-248l-112 -618q-39 -209 -66 -284q-48 -134 -152 -208q-127 -90 -417 -149l-88 313q66 21 106 36t73 35t48.5 35t30 47t21 59t16.5 81l120 653h-360l-113 -618q-39 -209 -65 -283q-47 -133 -150 -207q-127 -91 -420 -151zM694 1075h359l12 58q-153 34 -270 34 q-85 0 -101 -90v-2z" />
<glyph horiz-adv-x="2557" d="M-199 -174q67 21 107 36t73 35t49 35t30 47t20 59t16 81l121 653h-141l51 303h145q22 100 54 171.5t81 123.5t119 77.5t164 25.5q216 0 475 -105q96 125 293 125q208 0 436 -129l-180 -234q-93 37 -155 37q-17 0 -30 -3t-31 -25t-25 -62v-2h397l49 271l426 40l-57 -311 h286l-49 -303h-291l-61 -340q-9 -55 7.5 -72.5t47.5 -17.5q50 0 142 35l100 -322q-231 -78 -402 -78q-194 0 -271 129t-36 361l54 305h-400l-112 -618q-39 -209 -66 -284q-48 -134 -152 -208q-127 -90 -417 -149l-86 313q66 21 106 36t73 35t49 35t30.5 46.5t20.5 59 t16 81.5l120 653h-360l-113 -618q-39 -209 -65 -283q-47 -133 -150 -207q-127 -91 -420 -151zM694 1075h359l12 58q-153 34 -270 34q-85 0 -101 -90v-2z" />
<glyph horiz-adv-x="2201" d="M-199 -174q67 21 107 36t73 35t49 35t30 47t20 59t16 81l121 653h-141l51 303h145q43 215 138 316.5t282 101.5q193 0 422 -84l14 84h420l-92 -522q192 127 371 127q185 0 262 -107t43 -297l-123 -694h-422l117 649q12 63 -2.5 95t-67.5 32q-51 0 -113.5 -27.5 t-117.5 -72.5l-119 -676h-420l201 1133q-160 34 -270 34q-85 0 -101 -90v-2h240l-53 -303h-244l-113 -618q-39 -209 -65 -283q-47 -133 -150 -207q-127 -91 -420 -151z" />
<glyph horiz-adv-x="1323" d="M56.5 453q4.5 64 17.5 141l102 582h397l-120 -680q-15 -85 15 -131t132 -46q101 0 148.5 46.5t62.5 130.5l121 680h397l-123 -697q-16 -89 -39.5 -157.5t-69 -135t-109.5 -109.5t-163.5 -69t-228.5 -26q-111 0 -198 16.5t-147 45t-100.5 72.5t-62 94t-29 114.5t-3 128.5z M438 1528h244q-5 -30 22.5 -50t77.5 -20q69 0 114 20t50 50h246q-22 -133 -130 -208t-282 -75q-181 0 -271 79t-71 204z" />
<glyph horiz-adv-x="1441" d="M-199 -174q67 21 107 36t73 35t49 35t30 47t20 59t16 81l121 653h-141l51 303h145q45 214 145.5 316t295.5 102q142 0 306.5 -40.5t285.5 -88.5l-156 -234q-63 13 -164 25t-170 12q-101 0 -117 -90v-2h709l-193 -1075h-417l137 772h-293l-117 -618q-39 -209 -65 -283 q-47 -133 -150 -207q-127 -91 -420 -151z" />
<glyph horiz-adv-x="1421" d="M-199 -174q67 21 107 36t73 35t49 35t30 47t20 59t16 81l121 653h-141l51 303h145q45 214 145.5 316t295.5 102q142 0 306.5 -40.5t285.5 -88.5l-156 -234q-63 13 -164 25t-170 12q-101 0 -117 -90v-2h707l-176 -981q-32 -181 -58 -249q-46 -122 -155 -192 q-128 -83 -408 -140l-90 313q66 21 106.5 35.5t73 31.5t48.5 29.5t28.5 35.5t17 42t11.5 57l127 715h-289l-117 -618q-39 -209 -65 -283q-47 -133 -150 -207q-127 -91 -420 -151z" />
<glyph horiz-adv-x="2150" d="M-199 -174q66 21 106 35.5t73.5 35t49 35.5t30 47t20.5 58.5t16 81.5l121 653h-141l51 303h145q43 215 138 316.5t282 101.5q193 0 422 -84l14 84h420l-123 -696l248 278h520l-452 -438l321 -637h-426l-174 367l-137 -131l-41 -236h-420l201 1133q-160 34 -270 34 q-85 0 -101 -90v-2h240l-53 -303h-244l-113 -618q-39 -209 -65 -283q-47 -133 -150 -207q-127 -91 -420 -151z" />
<glyph horiz-adv-x="411" d="M111 788l39 246h272l-39 -246h-272zM215 1094l12 555h340l-186 -555h-166z" />
<glyph horiz-adv-x="1509" d="M-199 -174q66 21 106 35.5t73.5 35t49 35.5t30 47t20.5 58.5t16 81.5l121 653h-141l51 303h145q43 215 138 316.5t282 101.5q193 0 422 -84l14 84h420l-264 -1493h-420l201 1133q-160 34 -270 34q-85 0 -101 -90v-2h240l-53 -303h-244l-113 -618q-39 -209 -65 -283 q-47 -133 -150 -207q-127 -91 -420 -151z" />
<glyph horiz-adv-x="1779" d="M-199 -174q66 21 106 35.5t73.5 35t49 35.5t30 47t20.5 58.5t16 81.5l121 653h-141l51 303h145q19 106 48.5 181t77 129.5t117 81t163.5 26.5q208 0 436 -129l-178 -234q-103 37 -156 37q-11 0 -20 -2t-23.5 -9.5t-25.5 -27.5t-17 -51v-2h398l49 271l426 40l-58 -311h287 l-49 -303h-291l-61 -340q-9 -55 7.5 -72.5t47.5 -17.5q46 0 143 35l97 -322q-231 -78 -402 -78q-194 0 -270 128.5t-35 361.5l53 305h-399l-113 -618q-39 -209 -65 -283q-47 -133 -150 -207q-127 -91 -420 -151z" />
<glyph horiz-adv-x="559" d="M-133 -393q62 19 92.5 31t52 32.5t28.5 41.5t15 67l64 360h-86l33 199h88q26 128 85.5 189t176.5 61q135 0 282 -82l-116 -141q-63 22 -93 22q-47 0 -57 -49h150l-29 -199h-156l-59 -338q-28 -145 -50 -196q-38 -87 -132 -135q-79 -40 -228 -70z" />
<glyph horiz-adv-x="1323" d="M56.5 453q4.5 64 17.5 141l102 582h397l-120 -680q-15 -85 15 -131t132 -46q101 0 148.5 46.5t62.5 130.5l121 680h397l-123 -697q-16 -89 -39.5 -157.5t-69 -135t-109.5 -109.5t-163.5 -69t-228.5 -26q-111 0 -198 16.5t-147 45t-100.5 72.5t-62 94t-29 114.5t-3 128.5z M500 1245l309 297h463l-412 -297h-360z" />
<glyph horiz-adv-x="866" d="M-57 143l155 176q39 -28 65.5 -44.5t73.5 -31t99 -14.5q127 0 127 68q0 59 -98 59q-85 0 -160 -45l-158 107l125 442h647l-41 -235h-397l-10 -47q34 6 73 6q152 0 233 -80t81 -195q0 -62 -25 -119t-72.5 -103t-124 -73.5t-171.5 -27.5q-234 0 -422 157z" />
<glyph horiz-adv-x="864" d="M41 717l156 176q39 -29 65.5 -45t73 -30.5t98.5 -14.5q127 0 127 67q0 60 -98 60q-85 0 -160 -45l-158 106l125 443h648l-41 -236h-398l-10 -47q34 6 74 6q152 0 232.5 -79.5t80.5 -194.5q0 -62 -25 -119t-72.5 -103.5t-124 -74t-171.5 -27.5q-233 0 -422 158z" />
<glyph horiz-adv-x="1294" d="M-100 -33l239 269q193 -146 361 -146q98 0 163.5 38.5t65.5 104.5q0 56 -44 90.5t-132 34.5q-63 0 -117.5 -18.5t-130.5 -58.5l-237 161l202 734h1010l-63 -359h-631l-27 -121q75 11 127 11q122 0 217.5 -36.5t154 -100t88.5 -143.5t30 -171q0 -103 -40.5 -198 t-116.5 -171.5t-198.5 -122t-273.5 -45.5q-92 0 -182 18.5t-157 44.5t-131.5 62.5t-103 64.5t-73.5 58z" />
<glyph horiz-adv-x="1462" d="M154 225l239 269q193 -146 361 -146q98 0 163.5 39t65.5 105q0 56 -44 90t-132 34q-63 0 -117.5 -18.5t-130.5 -58.5l-237 161l202 734h1010l-64 -359h-630l-27 -121q75 11 127 11q122 0 217.5 -36.5t154 -100t88.5 -143.5t30 -171q0 -103 -40.5 -198t-116.5 -171.5 t-198.5 -122t-273.5 -45.5q-92 0 -182 18.5t-157 44.5t-131.5 62.5t-103 64.5t-73.5 58z" />
<glyph horiz-adv-x="411" d="M0 -307l39 246h272l-39 -246h-272zM104 -2l13 555h340l-187 -555h-166z" />
<glyph horiz-adv-x="1810" d="M37 584l121 137q101 -72 204 -72q127 0 127 64q0 55 -96 55q-78 0 -141 -37l-127 82l104 363h543l-27 -185h-352l-12 -51q34 6 72 6q131 0 200.5 -65t69.5 -160q0 -107 -89 -184.5t-245 -77.5q-190 0 -352 125zM375 0l780 1176h246l-785 -1176h-241zM987 188 q0 130 199 207q-86 65 -86 140q0 79 80.5 130.5t226.5 51.5q141 0 218 -48.5t77 -125.5q0 -91 -139 -164q125 -70 125 -174q0 -97 -95.5 -157t-265.5 -60q-164 0 -252 53.5t-88 146.5zM1214 211q0 -55 113 -55q59 0 96 16t37 47q0 47 -92 86q-40 -12 -59 -18.5t-45.5 -18.5 t-38 -25.5t-11.5 -31.5zM1317 508q0 -35 55 -53q30 8 41.5 11t31 10.5t27 16t7.5 19.5q0 45 -74 45q-41 0 -64.5 -13.5t-23.5 -35.5z" />
<glyph horiz-adv-x="413" d="M74 788l186 555h166l-12 -555h-340zM219 1403l39 246h272l-38 -246h-273z" />
<glyph horiz-adv-x="1775" d="M37 584l121 137q101 -72 204 -72q127 0 127 64q0 55 -96 55q-78 0 -141 -37l-127 82l104 363h543l-27 -185h-352l-12 -51q34 6 72 6q131 0 200.5 -65t69.5 -160q0 -107 -89 -184.5t-245 -77.5q-190 0 -352 125zM373 0l780 1176h244l-785 -1176h-239zM983 283 q0 186 151.5 310t389.5 124q46 0 86 -5.5t56 -11.5l17 -6l-73 -162q-33 7 -74 7q-208 0 -285 -109q68 29 148 29q115 0 184.5 -58.5t69.5 -158.5q0 -108 -87 -181t-239 -73q-163 0 -253.5 84t-90.5 211zM1208 260q2 -40 31 -66t78 -26q54 0 82 20t28 48q0 61 -102 61 q-64 0 -117 -37z" />
<glyph horiz-adv-x="413" d="M-37 -307l187 555h165l-12 -555h-340zM109 307l38 246h273l-39 -246h-272z" />
<glyph horiz-adv-x="1323" d="M56.5 453q4.5 64 17.5 141l102 582h397l-120 -680q-15 -85 15 -131t132 -46q101 0 148.5 46.5t62.5 130.5l121 680h397l-123 -697q-16 -89 -39.5 -157.5t-69 -135t-109.5 -109.5t-163.5 -69t-228.5 -26q-111 0 -198 16.5t-147 45t-100.5 72.5t-62 94t-29 114.5t-3 128.5z " />
<glyph horiz-adv-x="796" d="M164 1409l43 240h772l-43 -240h-238l-108 -621h-289l109 621h-246z" />
<glyph horiz-adv-x="962" d="M-61 133l34 195l473 532h383l-88 -491h133l-36 -236h-138l-22 -133h-287l23 133h-475zM293 369h162l43 241z" />
<glyph horiz-adv-x="960" d="M39 707l35 194l473 533h383l-88 -492h133l-37 -235h-137l-23 -134h-286l22 134h-475zM393 942h162l43 242z" />
<glyph horiz-adv-x="1462" d="M-92 -23l53 297l766 902h582l-150 -840h213l-63 -359h-213l-41 -235h-437l41 235h-751zM434 336h289l80 444z" />
<glyph horiz-adv-x="1462" d="M98 236l54 296l766 902h552l-149 -840h190l-63 -358h-191l-40 -236h-426l40 236h-733zM623 594h272l74 418z" />
<glyph horiz-adv-x="1914" d="M41 584l22 151l418 441h303l-73 -410h114l-26 -182h-119l-21 -113h-227l19 113h-410zM324 766h159l39 221zM477 0l787 1176h241l-784 -1176h-244zM1100 115l123 137q99 -74 202 -74q55 0 91 16t36 50q0 29 -23 42t-73 13q-71 0 -141 -39l-125 84l104 361h541l-27 -183 h-352l-12 -53q34 6 74 6q130 0 199 -64.5t69 -158.5q0 -108 -88.5 -186t-245.5 -78q-188 0 -352 127z" />
<glyph horiz-adv-x="602" d="M-57 0l256 756h227l-14 -756h-469zM141 834l54 342h376l-53 -342h-377z" />
<glyph horiz-adv-x="1323" d="M56.5 453q4.5 64 17.5 141l102 582h397l-120 -680q-15 -85 15 -131t132 -46q101 0 148.5 46.5t62.5 130.5l121 680h397l-123 -697q-16 -89 -39.5 -157.5t-69 -135t-109.5 -109.5t-163.5 -69t-228.5 -26q-111 0 -198 16.5t-147 45t-100.5 72.5t-62 94t-29 114.5t-3 128.5z M346 1245l279 297h379l174 -297h-263l-112 129l-160 -129h-297z" />
<glyph horiz-adv-x="598" d="M-6 0l53 342h377l-53 -342h-377zM139 420l15 756h469l-256 -756h-228z" />
<glyph horiz-adv-x="1372" d="M-18 172l41 234h145l182 1028h1100l-66 -367h-663l-31 -172h520l-63 -358h-520l-25 -131h367l-41 -234h-367l-29 -172h-436l31 172h-145z" />
<glyph horiz-adv-x="1224" d="M-29 125l37 211h129l150 840h968l-59 -336h-571l-17 -90h447l-58 -326h-446l-16 -88h315l-37 -211h-315l-23 -125h-397l22 125h-129z" />
<glyph horiz-adv-x="880" d="M-10 -213l26 152h95l108 614h703l-41 -240h-414l-14 -73h319l-41 -236h-319l-13 -65h228l-27 -152h-227l-17 -94h-288l16 94h-94z" />
<glyph horiz-adv-x="880" d="M100 883l27 151h94l109 615h702l-41 -240h-413l-15 -74h320l-41 -235h-320l-12 -66h227l-26 -151h-228l-16 -95h-289l17 95h-95z" />
<glyph horiz-adv-x="559" d="M-23 702q82 25 116 43.5t48 44t25 84.5l63 361h-86l33 199h88q26 127 85.5 188t176.5 61q138 0 283 -81l-117 -142q-66 23 -92 23q-47 0 -57 -49h149l-28 -199h-156l-59 -338q-28 -145 -50 -196q-38 -87 -132 -135q-79 -40 -228 -70z" />
<glyph horiz-adv-x="796" d="M53 313l43 240h772l-43 -240h-237l-109 -620h-289l109 620h-246z" />
<glyph horiz-adv-x="1275" d="M-10 0l209 1176h397l-29 -160h119q549 0 549 -377q0 -46 -13 -98.5t-48.5 -114.5t-89 -110.5t-145 -81.5t-206.5 -33h-309l-37 -201h-397zM481 524h166q92 0 135 32t43 73q0 35 -38 47t-109 12h-168z" />
<glyph horiz-adv-x="1101" d="M53 840l60 336h1069l-60 -336h-329l-150 -840h-113q8 -11 17.5 -30t20 -57t10.5 -75q0 -61 -23.5 -108t-64 -74t-89 -40t-104.5 -13q-127 0 -205 49l109 192q43 -22 90 -22q94 0 94 74q0 28 -11.5 58.5t-21.5 45.5h-106l149 840h-342z" />
<glyph horiz-adv-x="1101" d="M53 840l60 336h1069l-60 -336h-329l-150 -840h-397l149 840h-342zM291 1542h262l113 -129l159 129h297l-278 -297h-379z" />
<glyph horiz-adv-x="1114" d="M57 840l60 336h1069l-60 -336h-329l-56 -310h140l-37 -211h-139l-58 -319h-397l57 319h-143l37 211h143l55 310h-342z" />
<glyph horiz-adv-x="983" d="M-12 -307l96 543q14 76 40.5 135t76.5 111.5t135 81t201 28.5q104 0 183 -23.5t121.5 -61.5t62.5 -79t20 -84t-20 -80.5t-40 -53.5l-20 -17q-2 0 -12.5 -1.5t-16 -2t-17 -2.5t-19 -4t-17.5 -5t-16.5 -7t-12.5 -8.5t-9 -10.5t-3 -13q0 -18 21 -29.5t60.5 -29t67.5 -41.5 q68 -57 68 -137q0 -92 -84.5 -158t-220.5 -66q-150 0 -309 86l112 164q110 -47 180 -47q39 0 39 13q0 9 -34 18q-17 5 -32.5 10.5t-43 20.5t-47 34t-34.5 51.5t-15 71.5q0 77 53 128t155 91v9q0 55 -116 55q-86 0 -126 -37.5t-57 -132.5l-92 -520h-278z" />
<glyph horiz-adv-x="983" d="M98 788l97 543q11 60 28.5 109t52 96.5t82.5 79.5t121.5 52t167.5 20q104 0 183 -23.5t121.5 -61.5t62.5 -79t20 -84q0 -27 -8 -52.5t-20 -42.5t-24 -30.5t-20 -20.5l-8 -6l-16 -2q-16 -2 -22.5 -3t-22 -4t-24 -6.5t-19 -9t-15 -12.5t-4.5 -16q0 -18 21 -29.5t61 -29 t68 -41.5q68 -57 68 -138q0 -91 -85 -157t-221 -66q-150 0 -309 86l113 164q110 -47 180 -47q39 0 39 12q0 10 -35 19q-17 5 -32.5 10.5t-43 20.5t-47 34t-34.5 51.5t-15 71.5q0 77 53.5 128t155.5 91v8q0 56 -117 56q-85 0 -125 -37.5t-57 -132.5l-92 -521h-279z" />
<glyph horiz-adv-x="847" d="M-43 -528l82 206q185 -34 280 -34q65 0 93.5 18t36.5 59l4 23q-109 -66 -224 -66q-92 0 -154.5 62.5t-62.5 198.5q0 185 92 299t238 114q48 0 91 -12.5t64.5 -24.5t49.5 -32l10 55h279l-107 -602q-21 -121 -67.5 -188t-118 -92t-189.5 -25q-213 0 -397 41zM295 -37 q0 -36 15.5 -50.5t47.5 -14.5q57 0 131 55l23 133q-44 47 -94 47q-57 0 -90 -49t-33 -121z" />
<glyph horiz-adv-x="1101" d="M53 840l60 336h1069l-60 -336h-329l-150 -840h-397l149 840h-342z" />
<glyph horiz-adv-x="874" d="M84 928l147 188q77 -42 165.5 -74t154.5 -32q76 0 76 28q0 19 -38 30t-108 26.5t-116 35.5q-75 32 -127 93.5t-52 150.5q0 120 96.5 204.5t274.5 84.5q198 0 449 -133l-148 -189q-67 33 -149 59.5t-140 26.5q-71 0 -71 -30q0 -19 35.5 -29.5t105.5 -25.5t123 -39 q176 -82 176 -238q0 -119 -98 -205t-277 -86q-131 0 -258 45t-221 109z" />
<glyph horiz-adv-x="1323" d="M56.5 453q4.5 64 17.5 141l102 582h397l-120 -680q-15 -85 15 -131t132 -46q101 0 148.5 46.5t62.5 130.5l121 680h397l-123 -697q-16 -89 -39.5 -157.5t-69 -135t-109.5 -109.5t-163.5 -69t-228.5 -26q-111 0 -198 16.5t-147 45t-100.5 72.5t-62 94t-29 114.5t-3 128.5z M399 1266l54 297h319l-53 -297h-320zM815 1266l53 297h320l-53 -297h-320z" />
<glyph horiz-adv-x="847" d="M68 567l82 207q190 -35 280 -35q65 0 93 18.5t36 59.5l4 23q-109 -66 -223 -66q-92 0 -154.5 62t-62.5 198q0 185 92 299.5t238 114.5q48 0 91 -13t63.5 -25t49.5 -32l11 56h278l-106 -603q-21 -121 -67.5 -188t-118 -92t-189.5 -25q-213 0 -397 41zM406 1059 q0 -36 15.5 -51t47.5 -15q56 0 131 56l23 133q-44 47 -95 47q-56 0 -89 -49t-33 -121z" />
<glyph horiz-adv-x="874" d="M-27 -168l148 188q77 -42 165.5 -74t153.5 -32q33 0 54.5 8t21.5 21q0 19 -38 30t-108 26.5t-116 35.5q-75 32 -126.5 93.5t-51.5 150.5q0 120 96 204t274 84q198 0 449 -133l-147 -188q-67 33 -149 59.5t-140 26.5q-72 0 -72 -31q0 -19 35.5 -29.5t105.5 -25.5t123 -39 q176 -82 176 -238q0 -120 -98 -205.5t-276 -85.5q-131 0 -258.5 45t-221.5 109z" />
<glyph horiz-adv-x="1206" d="M-45 190l205 265q285 -148 442 -148q103 0 103 35q0 25 -51 39.5t-148 36.5t-166 53q-242 110 -242 322q0 79 32.5 149.5t94.5 127.5t162.5 90.5t226.5 33.5q288 0 619 -182l-205 -264q-231 118 -395 118q-101 0 -101 -35q0 -25 49 -39.5t146 -36.5t168 -53 q244 -108 244 -319q0 -77 -33.5 -147.5t-96.5 -128t-166 -91.5t-231 -34q-182 0 -354.5 60.5t-302.5 147.5zM268 -563l156 166h-125l51 293h285l-43 -332l-266 -219z" />
<glyph horiz-adv-x="1323" d="M56.5 453q4.5 64 17.5 141l102 582h397l-120 -680q-15 -85 15 -131t132 -46q101 0 148.5 46.5t62.5 130.5l121 680h397l-123 -697q-16 -89 -39.5 -157.5t-69 -135t-109.5 -109.5t-163.5 -69t-228.5 -26q-111 0 -198 16.5t-147 45t-100.5 72.5t-62 94t-29 114.5t-3 128.5z M381 1542h422l207 -297h-322z" />
<glyph horiz-adv-x="1325" d="M56.5 453q4.5 64 17.5 141l102 582h397l-120 -680q-15 -85 15 -131t132 -46q101 0 148.5 46.5t62.5 130.5l121 680h397l-123 -697q-16 -89 -39.5 -157.5t-69 -135t-109.5 -109.5t-163.5 -69t-228.5 -26q-111 0 -198 16.5t-147 45t-100.5 72.5t-62 94t-29 114.5t-3 128.5z M403 1245l220 297h348l-322 -297h-246zM813 1245l221 297h346l-323 -297h-244z" />
<glyph horiz-adv-x="1206" d="M-45 190l205 265q285 -148 442 -148q103 0 103 35q0 25 -51 39.5t-148 36.5t-166 53q-242 110 -242 322q0 79 32.5 149.5t94.5 127.5t162.5 90.5t226.5 33.5q288 0 619 -182l-205 -264q-231 118 -395 118q-101 0 -101 -35q0 -25 49 -39.5t146 -36.5t168 -53 q244 -108 244 -319q0 -77 -33.5 -147.5t-96.5 -128t-166 -91.5t-231 -34q-182 0 -354.5 60.5t-302.5 147.5zM309 1245l279 297h379l174 -297h-262l-113 129l-160 -129h-297z" />
<glyph horiz-adv-x="1206" d="M-45 190l205 265q285 -148 442 -148q103 0 103 35q0 25 -51 39.5t-148 36.5t-166 53q-242 110 -242 322q0 79 32.5 149.5t94.5 127.5t162.5 90.5t226.5 33.5q288 0 619 -182l-205 -264q-231 118 -395 118q-101 0 -101 -35q0 -25 49 -39.5t146 -36.5t168 -53 q244 -108 244 -319q0 -73 -29.5 -140.5t-86 -123.5t-148 -92t-205.5 -43q37 -77 37 -146q0 -61 -23.5 -108t-64 -74t-89 -40t-104.5 -13q-127 0 -205 49l109 192q43 -22 90 -22q94 0 94 74q0 40 -27 94q-150 19 -288.5 74t-243.5 126z" />
<glyph horiz-adv-x="837" d="M-12 -307l157 895h279l-55 -307q112 71 227 71q119 0 168.5 -65t28.5 -183l-74 -411h-279l68 381q8 31 0.5 49t-37.5 18q-74 0 -135 -55l-70 -393h-278z" />
<glyph horiz-adv-x="1206" d="M-45 190l205 265q285 -148 442 -148q103 0 103 35q0 25 -51 39.5t-148 36.5t-166 53q-242 110 -242 322q0 79 32.5 149.5t94.5 127.5t162.5 90.5t226.5 33.5q288 0 619 -182l-205 -264q-231 118 -395 118q-101 0 -101 -35q0 -25 49 -39.5t146 -36.5t168 -53 q244 -108 244 -319q0 -77 -33.5 -147.5t-96.5 -128t-166 -91.5t-231 -34q-182 0 -354.5 60.5t-302.5 147.5zM358 1542h263l112 -129l160 129h297l-279 -297h-379z" />
<glyph horiz-adv-x="958" d="M46 22.5q3 46.5 13 102.5l76 428h289l-88 -500q-12 -64 9 -97.5t95 -33.5t107 33.5t45 97.5l88 500h289l-90 -512q-11 -65 -28.5 -115.5t-50.5 -98.5t-79.5 -79.5t-118.5 -50.5t-164 -19q-80 0 -143 12t-106.5 33.5t-73 53.5t-45.5 68.5t-21.5 83.5t-2.5 93.5z" />
<glyph horiz-adv-x="1206" d="M-45 190l205 265q285 -148 442 -148q103 0 103 35q0 25 -51 39.5t-148 36.5t-166 53q-242 110 -242 322q0 79 32.5 149.5t94.5 127.5t162.5 90.5t226.5 33.5q288 0 619 -182l-205 -264q-231 118 -395 118q-101 0 -101 -35q0 -25 49 -39.5t146 -36.5t168 -53 q244 -108 244 -319q0 -77 -33.5 -147.5t-96.5 -128t-166 -91.5t-231 -34q-182 0 -354.5 60.5t-302.5 147.5zM461 1245l309 297h463l-412 -297h-360z" />
<glyph horiz-adv-x="1206" d="M-45 190l205 265q285 -148 442 -148q103 0 103 35q0 25 -51 39.5t-148 36.5t-166 53q-242 110 -242 322q0 79 32.5 149.5t94.5 127.5t162.5 90.5t226.5 33.5q288 0 619 -182l-205 -264q-231 118 -395 118q-101 0 -101 -35q0 -25 49 -39.5t146 -36.5t168 -53 q244 -108 244 -319q0 -77 -33.5 -147.5t-96.5 -128t-166 -91.5t-231 -34q-182 0 -354.5 60.5t-302.5 147.5z" />
<glyph horiz-adv-x="958" d="M115 788l151 861h418q196 0 289.5 -71.5t93.5 -197.5q0 -45 -14.5 -89.5t-44.5 -86.5t-82 -73t-119 -44l151 -299h-296l-132 293h-75l-52 -293h-288zM494 1300h149q63 0 96 21t33 57q0 33 -25.5 42.5t-84.5 9.5h-146z" />
<glyph horiz-adv-x="958" d="M4 -307l152 860h417q196 0 289.5 -71t93.5 -197q0 -98 -65 -183t-195 -108l152 -301h-297l-131 293h-76l-51 -293h-289zM383 205h149q63 0 96.5 21t33.5 57q0 33 -25.5 42t-85.5 9h-145z" />
<glyph horiz-adv-x="1323" d="M-10 0l209 1176h575q533 0 533 -357q0 -39 -9.5 -83t-35.5 -96.5t-65 -97t-103.5 -81.5t-145.5 -53l211 -408h-416l-178 397h-106l-72 -397h-397zM303 -563l156 166h-125l51 293h285l-43 -332l-267 -219zM512 702h207q85 0 130.5 29t45.5 78q0 21 -11.5 34t-37 18.5 t-47.5 7t-60 1.5h-196z" />
<glyph horiz-adv-x="1323" d="M-10 0l209 1176h575q533 0 533 -357q0 -39 -9.5 -83t-35.5 -96.5t-65 -97t-103.5 -81.5t-145.5 -53l211 -408h-416l-178 397h-106l-72 -397h-397zM428 1542h262l113 -129l160 129h297l-279 -297h-379zM512 702h207q85 0 130.5 29t45.5 78q0 21 -11.5 34t-37 18.5t-47.5 7 t-60 1.5h-196z" />
<glyph horiz-adv-x="1323" d="M-10 0l209 1176h575q533 0 533 -357q0 -39 -9.5 -83t-35.5 -96.5t-65 -97t-103.5 -81.5t-145.5 -53l211 -408h-416l-178 397h-106l-72 -397h-397zM512 702h207q85 0 130.5 29t45.5 78q0 21 -11.5 34t-37 18.5t-47.5 7t-60 1.5h-196zM528 1245l310 297h462l-411 -297h-361 z" />
<glyph horiz-adv-x="397" d="M-12 -307l112 645h279l-113 -645h-278zM106 385l35 201h285l-35 -201h-285z" />
<glyph horiz-adv-x="1323" d="M-10 0l209 1176h575q533 0 533 -357q0 -39 -9.5 -83t-35.5 -96.5t-65 -97t-103.5 -81.5t-145.5 -53l211 -408h-416l-178 397h-106l-72 -397h-397zM512 702h207q85 0 130.5 29t45.5 78q0 21 -11.5 34t-37 18.5t-47.5 7t-60 1.5h-196z" />
<glyph horiz-adv-x="1019" d="M145 1169q0 32 4.5 70t18 87t35.5 94.5t60.5 90.5t87 78t120.5 53.5t158 20.5q227 0 354.5 -101.5t128.5 -293.5q1 -45 -9 -98.5t-34 -118.5t-75 -125t-122 -97l111 -98l-199 -176l-198 219q-208 9 -324 110t-117 285zM442 1178q0 -88 42.5 -125t129.5 -37 q56 0 97.5 24.5t62.5 63.5t31 77.5t10 75.5q0 88 -42.5 125t-129.5 37q-56 0 -97.5 -24.5t-62.5 -63.5t-31 -77.5t-10 -75.5z" />
<glyph horiz-adv-x="1323" d="M56.5 453q4.5 64 17.5 141l102 582h397l-120 -680q-15 -85 15 -131t132 -46q101 0 148.5 46.5t62.5 130.5l121 680h397l-123 -697q-16 -89 -39.5 -157.5t-69 -135t-109.5 -109.5t-163.5 -69t-228.5 -26q-111 0 -198 16.5t-147 45t-100.5 72.5t-62 94t-29 114.5t-3 128.5z M444 1296l41 234h656l-41 -234h-656z" />
<glyph horiz-adv-x="1327" d="M56.5 460q4.5 61 17.5 134l102 582h397l-120 -680q-15 -85 15 -131t132 -46q101 0 148.5 46.5t62.5 130.5l121 680h397l-123 -697q-17 -94 -43 -165.5t-73 -138t-123 -111t-181 -64.5q-213 -111 -213 -199q0 -19 10 -30.5t30.5 -16t34 -5.5t39 0t26.5 1l-66 -170 q-2 0 -26 -0.5t-40 0t-45.5 2t-51.5 6.5t-50 13t-47.5 22t-37.5 32.5t-27 46t-9 60.5q0 129 201 222q-95 6 -169.5 26t-126 50t-86 74t-52 93t-23 110.5t-1 122.5z" />
<glyph horiz-adv-x="1019" d="M35 74q0 33 4.5 70.5t18 86.5t35.5 94t60 90t87 78t120.5 53.5t157.5 20.5q227 0 354.5 -101.5t128.5 -293.5q1 -35 -4.5 -75t-21.5 -93t-41 -100.5t-70 -93.5t-102 -76l110 -99l-198 -176l-199 219q-208 9 -323.5 110.5t-116.5 285.5zM332 82q0 -88 42.5 -125t129.5 -37 q56 0 97.5 25t62.5 64t31 77.5t10 75.5q0 88 -43 125t-130 37q-45 0 -81 -17t-58 -42.5t-36 -59.5t-19.5 -64t-5.5 -59z" />
<glyph horiz-adv-x="753" d="M6 -39q0 172 110.5 281.5t309.5 109.5q140 0 224.5 -55.5t84.5 -163.5q0 -45 -16 -79.5t-47.5 -55t-65 -34t-83.5 -19t-86 -7t-89 -1.5h-69q15 -58 88 -58q101 0 245 62l80 -187q-223 -76 -381 -76q-305 0 -305 283zM285 72h69q59 0 89 11t30 42q0 37 -59 37 q-98 0 -129 -90z" />
<glyph horiz-adv-x="1419" d="M35 524q0 45 6.5 95.5t26 117.5t49.5 128.5t82.5 122.5t119.5 105.5t165.5 72.5t215.5 28q318 0 494 -140t176 -405q0 -47 -7.5 -101.5t-30 -126t-57 -135.5t-94.5 -127t-137 -104l152 -131l-276 -246l-273 304q-291 12 -451.5 150.5t-160.5 391.5zM446 537 q0 -120 59.5 -171t180.5 -51q61 0 110 22.5t78.5 57t49 79t27 85t7.5 78.5q0 120 -59 170.5t-180 50.5q-61 0 -110 -22.5t-78.5 -56.5t-49.5 -78.5t-27.5 -85t-7.5 -78.5z" />
<glyph horiz-adv-x="911" d="M115 788l151 861h387q196 0 290.5 -71.5t94.5 -197.5q0 -57 -20.5 -112t-61.5 -104t-113 -79t-165 -30h-227l-48 -267h-288zM492 1286h120q62 0 95.5 20t33.5 56q0 33 -25 42t-85 9h-117z" />
<glyph horiz-adv-x="911" d="M4 -307l152 860h387q196 0 290.5 -71t94.5 -197q0 -57 -20.5 -112t-61.5 -104t-113.5 -79.5t-165.5 -30.5h-227l-47 -266h-289zM381 190h121q62 0 95.5 20t33.5 56q0 33 -25.5 42t-85.5 9h-117z" />
<glyph horiz-adv-x="403" d="M-180 -399q81 25 114 42t44.5 35t19.5 60l106 600h279l-100 -576q-11 -64 -18 -94t-24 -74.5t-41.5 -66.5t-66.5 -49.5t-103.5 -46t-148.5 -35.5zM111 385l34 201h287l-37 -201h-284z" />
<glyph horiz-adv-x="1462" d="M150 377q0 78 29.5 145t83.5 118.5t116.5 89.5t142.5 71q-151 119 -151 278q0 166 148 271.5t423 105.5q260 0 401.5 -95.5t141.5 -250.5q0 -198 -262 -342q231 -129 231 -348q0 -200 -178.5 -321.5t-503.5 -121.5q-302 0 -462 106.5t-160 293.5zM594 426q0 -54 48 -89.5 t138 -35.5q101 0 166.5 43.5t65.5 104.5q0 92 -156 174q-58 -20 -98.5 -37t-81 -41t-61.5 -54t-21 -65zM788 1030q0 -59 97 -108q82 27 125 57t43 78q0 35 -29.5 61.5t-85.5 26.5q-66 0 -108 -36.5t-42 -78.5z" />
<glyph horiz-adv-x="1259" d="M-10 0l209 1176h512q553 0 553 -377q0 -46 -13 -98.5t-48.5 -114.5t-89 -111t-145.5 -82t-208 -33h-309l-64 -360h-397zM508 684h168q92 0 134 31.5t42 72.5q0 35 -37.5 47.5t-107.5 12.5h-170z" />
<glyph horiz-adv-x="1415" d="M35 524q0 45 6.5 95.5t26 117.5t49.5 128.5t82.5 122.5t119.5 105.5t165.5 72.5t215.5 28q318 0 494 -140t176 -405q0 -45 -6.5 -95.5t-26 -117t-49.5 -128t-82.5 -122.5t-119.5 -106t-165.5 -72.5t-215.5 -27.5q-318 0 -494 139.5t-176 404.5zM418 1352q77 111 113 148 q81 81 180 81q48 0 103.5 -24t102 -48t74.5 -24q52 0 127 98l162 -108q-76 -110 -111 -147q-81 -83 -182 -83q-48 0 -103 24t-101 48t-74 24q-54 0 -129 -98zM446 537q0 -120 59.5 -171t180.5 -51q61 0 110 22.5t78.5 57t49 79t27 85t7.5 78.5q0 120 -59 170.5t-180 50.5 q-61 0 -110 -22.5t-78.5 -56.5t-49.5 -78.5t-27.5 -85t-7.5 -78.5z" />
<glyph horiz-adv-x="1019" d="M145 1169q0 32 4.5 70t18 87t35.5 94.5t60.5 90.5t87 78t120.5 53.5t158 20.5q227 0 354.5 -101.5t128.5 -293.5q0 -33 -4.5 -70.5t-18 -86.5t-35.5 -94.5t-60 -90.5t-87 -78t-120.5 -53.5t-157.5 -20.5q-228 0 -355.5 101.5t-128.5 293.5zM442 1178q0 -88 42.5 -125 t129.5 -37q56 0 97.5 24.5t62.5 63.5t31 77.5t10 75.5q0 88 -42.5 125t-129.5 37q-56 0 -97.5 -24.5t-62.5 -63.5t-31 -77.5t-10 -75.5z" />
<glyph horiz-adv-x="811" d="M-12 -307l157 895h277l-72 -402l142 152h342l-281 -262l205 -383h-281l-108 213l-82 -76l-23 -137h-276z" />
<glyph horiz-adv-x="811" d="M98 788l158 895h276l-71 -401l141 152h342l-280 -263l204 -383h-280l-109 211l-82 -75l-22 -136h-277z" />
<glyph horiz-adv-x="1415" d="M-33 0l180 176q-116 134 -116 348q0 45 6.5 95.5t26 117.5t49.5 128.5t82.5 122.5t119.5 105.5t165.5 72.5t215.5 28q248 0 412 -86l70 68h262l-189 -183q115 -137 115 -344q0 -44 -6.5 -95t-26 -117.5t-50 -128t-83 -122.5t-119.5 -106t-165.5 -72.5t-215.5 -27.5 q-246 0 -407 81l-64 -61h-262zM442 537q0 -35 7 -70l385 375q-53 16 -119 16q-61 0 -110 -22.5t-78.5 -56.5t-49.5 -78.5t-27.5 -85t-7.5 -78.5zM555 1245l309 297h463l-412 -297h-360zM569 330q46 -15 113 -15q61 0 110 22.5t78.5 57t49 79t27 85t7.5 78.5q0 34 -6 61z" />
<glyph horiz-adv-x="1394" d="M6 377q0 269 373 424q-152 120 -152 278q0 166 148.5 271.5t423.5 105.5q260 0 401 -95.5t141 -250.5q0 -198 -262 -342q232 -130 232 -348q0 -200 -178.5 -321.5t-503.5 -121.5q-302 0 -462.5 106.5t-160.5 293.5zM451 426q0 -54 48 -89.5t138 -35.5q101 0 166 43.5 t65 104.5q0 93 -155 174q-58 -20 -98.5 -37t-81 -41t-61.5 -54t-21 -65zM645 1030q0 -59 96 -108q82 27 125 57t43 78q0 35 -29 61.5t-85 26.5q-66 0 -108 -36.5t-42 -78.5z" />
<glyph horiz-adv-x="1415" d="M35 524q0 45 6.5 95.5t26 117.5t49.5 128.5t82.5 122.5t119.5 105.5t165.5 72.5t215.5 28q318 0 494 -140t176 -405q0 -45 -6.5 -95.5t-26 -117t-49.5 -128t-82.5 -122.5t-119.5 -106t-165.5 -72.5t-215.5 -27.5q-318 0 -494 139.5t-176 404.5zM446 537q0 -120 59.5 -171 t180.5 -51q61 0 110 22.5t78.5 57t49 79t27 85t7.5 78.5q0 120 -59 170.5t-180 50.5q-61 0 -110 -22.5t-78.5 -56.5t-49.5 -78.5t-27.5 -85t-7.5 -78.5zM498 1296l41 234h655l-41 -234h-655z" />
<glyph horiz-adv-x="1019" d="M35 74q0 33 4.5 70.5t18 86.5t35.5 94t60 90t87 78t120.5 53.5t157.5 20.5q227 0 354.5 -101.5t128.5 -293.5q0 -33 -4.5 -70.5t-18 -86.5t-35.5 -94.5t-60 -90.5t-87 -78t-120.5 -53.5t-157.5 -20.5q-227 0 -354.5 101.5t-128.5 294.5zM332 82q0 -88 42.5 -125 t129.5 -37q56 0 97.5 25t62.5 64t31 77.5t10 75.5q0 88 -43 125t-130 37q-45 0 -81 -17t-58 -42.5t-36 -59.5t-19.5 -64t-5.5 -59z" />
<glyph horiz-adv-x="1415" d="M35 524q0 45 6.5 95.5t26 117.5t49.5 128.5t82.5 122.5t119.5 105.5t165.5 72.5t215.5 28q318 0 494 -140t176 -405q0 -45 -6.5 -95.5t-26 -117t-49.5 -128t-82.5 -122.5t-119.5 -106t-165.5 -72.5t-215.5 -27.5q-318 0 -494 139.5t-176 404.5zM446 537q0 -120 59.5 -171 t180.5 -51q61 0 110 22.5t78.5 57t49 79t27 85t7.5 78.5q0 120 -59 170.5t-180 50.5q-61 0 -110 -22.5t-78.5 -56.5t-49.5 -78.5t-27.5 -85t-7.5 -78.5zM463 1245l219 297h348l-321 -297h-246zM872 1245l222 297h346l-324 -297h-244z" />
<glyph horiz-adv-x="1415" d="M35 524q0 45 6.5 95.5t26 117.5t49.5 128.5t82.5 122.5t119.5 105.5t165.5 72.5t215.5 28q318 0 494 -140t176 -405q0 -45 -6.5 -95.5t-26 -117t-49.5 -128t-82.5 -122.5t-119.5 -106t-165.5 -72.5t-215.5 -27.5q-318 0 -494 139.5t-176 404.5zM440 1542h422l207 -297 h-321zM446 537q0 -120 59.5 -171t180.5 -51q61 0 110 22.5t78.5 57t49 79t27 85t7.5 78.5q0 120 -59 170.5t-180 50.5q-61 0 -110 -22.5t-78.5 -56.5t-49.5 -78.5t-27.5 -85t-7.5 -78.5z" />
<glyph horiz-adv-x="917" d="M76 803q0 159 229 254q-94 75 -94 166q0 99 93.5 162t270.5 63q168 0 258.5 -59t90.5 -152q0 -112 -156 -201q143 -77 143 -209q0 -122 -112 -195t-320 -73q-196 0 -299.5 66t-103.5 178zM369 834q0 -62 116 -62q60 0 96.5 18.5t36.5 53.5q0 53 -92 96q-32 -10 -49 -16 t-41.5 -17t-36.5 -20t-21 -23t-9 -30zM489 1190q0 -36 50 -57q50 11 77 25t27 40q0 45 -72 45q-37 0 -59.5 -15t-22.5 -38z" />
<glyph horiz-adv-x="399" d="M-12 -307l157 895h279l-158 -895h-278z" />
<glyph horiz-adv-x="915" d="M-29 229q0 159 230 254q-95 76 -95 166q0 99 94 162t271 63q169 0 258.5 -58.5t89.5 -151.5q0 -112 -155 -201q143 -77 143 -209q0 -122 -112 -195t-320 -73q-196 0 -300 65.5t-104 177.5zM264 260q0 -61 117 -61q60 0 96.5 18t36.5 53q0 54 -92 97q-40 -13 -61.5 -21 t-47.5 -21.5t-37.5 -29t-11.5 -35.5zM385 616q0 -37 49 -57q50 11 77.5 25.5t27.5 40.5q0 45 -72 45q-36 0 -59 -15.5t-23 -38.5z" />
<glyph horiz-adv-x="1120" d="M-25 0l48 262q7 0 18 1t41.5 7.5t57.5 17t56 32.5t46 51h-183l29 155h166q-1 7 -6 21t-6 18h-148l29 158h63q-20 68 -20 137q0 156 108.5 245t305.5 89q281 0 546 -209l-190 -227q-154 108 -274 108q-101 0 -101 -57q0 -31 25 -86h348l-29 -158h-264l4 -39h254l-29 -155 h-280q-28 -28 -62 -43h449l-57 -328h-945z" />
<glyph horiz-adv-x="802" d="M-14 -307l32 188q5 0 13.5 1t32 6t43.5 13.5t42 26t33 41.5h-135l19 105h122l-10 35h-106l18 106h51q-16 50 -16 107q0 116 77.5 180.5t219.5 64.5q66 0 128 -14t114.5 -40.5t84.5 -46.5t72 -50l-139 -164q-112 80 -197 80q-73 0 -73 -45q0 -22 26 -72h242l-18 -106h-179 q6 -18 6 -35h166l-18 -105h-195q-25 -25 -57 -41h324l-41 -235h-682z" />
<glyph horiz-adv-x="802" d="M96 788l33 189q5 0 13.5 1t32 6t43.5 13.5t42 26t33 41.5h-135l18 104h123l-10 35h-107l19 107h51q-16 50 -16 106q0 116 77 181t219 65q87 0 172 -28.5t128.5 -55.5t99.5 -68l-139 -163q-111 79 -197 79q-74 0 -74 -45q0 -19 27 -71h242l-19 -107h-178q6 -18 6 -35h166 l-18 -104h-195q-25 -25 -57 -41h323l-41 -236h-682z" />
<glyph horiz-adv-x="1415" d="M35 524q0 45 6.5 95.5t26 117.5t49.5 128.5t82.5 122.5t119.5 105.5t165.5 72.5t215.5 28q318 0 494 -140t176 -405q0 -45 -6.5 -95.5t-26 -117t-49.5 -128t-82.5 -122.5t-119.5 -106t-165.5 -72.5t-215.5 -27.5q-318 0 -494 139.5t-176 404.5zM446 537q0 -120 59.5 -171 t180.5 -51q61 0 110 22.5t78.5 57t49 79t27 85t7.5 78.5q0 120 -59 170.5t-180 50.5q-61 0 -110 -22.5t-78.5 -56.5t-49.5 -78.5t-27.5 -85t-7.5 -78.5zM455 1266l53 297h319l-53 -297h-319zM870 1266l54 297h319l-53 -297h-320z" />
<glyph horiz-adv-x="1415" d="M35 524q0 45 6.5 95.5t26 117.5t49.5 128.5t82.5 122.5t119.5 105.5t165.5 72.5t215.5 28q318 0 494 -140t176 -405q0 -45 -6.5 -95.5t-26 -117t-49.5 -128t-82.5 -122.5t-119.5 -106t-165.5 -72.5t-215.5 -27.5q-318 0 -494 139.5t-176 404.5zM406 1245l278 297h379 l174 -297h-262l-113 129l-160 -129h-296zM446 537q0 -120 59.5 -171t180.5 -51q61 0 110 22.5t78.5 57t49 79t27 85t7.5 78.5q0 120 -59 170.5t-180 50.5q-61 0 -110 -22.5t-78.5 -56.5t-49.5 -78.5t-27.5 -85t-7.5 -78.5z" />
<glyph horiz-adv-x="1323" d="M56.5 453q4.5 64 17.5 141l102 582h397l-120 -680q-15 -85 15 -131t132 -46q101 0 148.5 46.5t62.5 130.5l121 680h397l-123 -697q-16 -89 -39.5 -157.5t-69 -135t-109.5 -109.5t-163.5 -69t-228.5 -26q-111 0 -198 16.5t-147 45t-100.5 72.5t-62 94t-29 114.5t-3 128.5z M549 1470q0 101 72.5 173.5t173.5 72.5t173 -72.5t72 -173.5t-72 -173t-173 -72t-173.5 72t-72.5 173zM735 1470q0 -25 17.5 -42t42.5 -17t42 17t17 42t-17 42.5t-42 17.5t-42.5 -17.5t-17.5 -42.5z" />
<glyph horiz-adv-x="1415" d="M35 524q0 45 6.5 95.5t26 117.5t49.5 128.5t82.5 122.5t119.5 105.5t165.5 72.5t215.5 28q318 0 494 -140t176 -405q0 -45 -6.5 -95.5t-26 -117t-49.5 -128t-82.5 -122.5t-119.5 -106t-165.5 -72.5t-215.5 -27.5q-318 0 -494 139.5t-176 404.5zM446 537q0 -120 59.5 -171 t180.5 -51q61 0 110 22.5t78.5 57t49 79t27 85t7.5 78.5q0 120 -59 170.5t-180 50.5q-61 0 -110 -22.5t-78.5 -56.5t-49.5 -78.5t-27.5 -85t-7.5 -78.5zM494 1528h243q-5 -30 23 -50t78 -20q69 0 113.5 20t49.5 50h246q-22 -133 -129.5 -208t-281.5 -75q-181 0 -271 79 t-71 204z" />
<glyph horiz-adv-x="958" d="M157 1118.5q3 46.5 13 102.5l76 428h289l-89 -500q-12 -64 9.5 -97.5t95.5 -33.5t106.5 33.5t44.5 97.5l89 500h288l-90 -512q-11 -65 -28.5 -115.5t-50.5 -98.5t-79 -79.5t-118 -50.5t-164 -19q-80 0 -143 12t-106.5 33.5t-73 53.5t-45.5 68.5t-21.5 83.5t-2.5 93.5z " />
<glyph horiz-adv-x="1415" d="M35 524q0 45 6.5 95.5t26 117.5t49.5 128.5t82.5 122.5t119.5 105.5t165.5 72.5t215.5 28q318 0 494 -140t176 -405q0 -45 -6.5 -95.5t-26 -117t-49.5 -128t-82.5 -122.5t-119.5 -106t-165.5 -72.5t-215.5 -27.5q-318 0 -494 139.5t-176 404.5zM446 537q0 -120 59.5 -171 t180.5 -51q61 0 110 22.5t78.5 57t49 79t27 85t7.5 78.5q0 120 -59 170.5t-180 50.5q-61 0 -110 -22.5t-78.5 -56.5t-49.5 -78.5t-27.5 -85t-7.5 -78.5zM557 1245l309 297h463l-411 -297h-361z" />
<glyph horiz-adv-x="1994" d="M35 524q0 45 6.5 95.5t26 117.5t49.5 128.5t82.5 122.5t119.5 105.5t165.5 72.5t215.5 28q214 0 367 -66l8 48h969l-59 -336h-572l-16 -88h461l-58 -326h-461l-16 -90h573l-59 -336h-944q-95 -20 -188 -20q-318 0 -494 139.5t-176 404.5zM446 537q0 -120 59.5 -171 t180.5 -51q61 0 110 22.5t78.5 57t49 79t27 85t7.5 78.5q0 120 -59 170.5t-180 50.5q-61 0 -110 -22.5t-78.5 -56.5t-49.5 -78.5t-27.5 -85t-7.5 -78.5z" />
<glyph horiz-adv-x="1230" d="M-12 -307l114 645h279l-12 -64q102 78 204 78q147 0 185 -104q40 40 106 72t129 32q115 0 163 -61.5t28 -177.5l-74 -420h-279l68 381q13 67 -31 67q-51 0 -110 -51l-70 -397h-278l67 381q13 67 -31 67q-51 0 -110 -51l-70 -397h-278z" />
<glyph horiz-adv-x="1323" d="M56.5 453q4.5 64 17.5 141l102 582h397l-120 -680q-15 -85 15 -131t132 -46q101 0 148.5 46.5t62.5 130.5l121 680h397l-123 -697q-16 -89 -39.5 -157.5t-69 -135t-109.5 -109.5t-163.5 -69t-228.5 -26q-111 0 -198 16.5t-147 45t-100.5 72.5t-62 94t-29 114.5t-3 128.5z M362 1352q77 111 113 148q81 81 180 81q48 0 103.5 -24t102.5 -48t75 -24q52 0 127 98l162 -108q-76 -110 -111 -147q-81 -83 -182 -83q-48 0 -103 24t-101.5 48t-74.5 24q-54 0 -129 -98z" />
<glyph horiz-adv-x="1325" d="M88 1176h451l79 -684l314 684h498l-656 -1176h-444z" />
<glyph horiz-adv-x="1419" d="M35 524q0 45 6.5 95.5t26 117.5t49.5 128.5t82.5 122.5t119.5 105.5t165.5 72.5t215.5 28q318 0 494 -140t176 -405q0 -45 -6.5 -95.5t-26 -117t-49.5 -128t-82.5 -122.5t-119.5 -106t-165.5 -72.5t-215.5 -27.5q-318 0 -494 139.5t-176 404.5zM446 537q0 -120 59.5 -171 t180.5 -51q61 0 110 22.5t78.5 57t49 79t27 85t7.5 78.5q0 120 -59 170.5t-180 50.5q-61 0 -110 -22.5t-78.5 -56.5t-49.5 -78.5t-27.5 -85t-7.5 -78.5z" />
<glyph horiz-adv-x="1378" d="M-10 0l209 1176h401l262 -623l111 623h397l-209 -1176h-399l-264 627l-111 -627h-397zM406 1352q4 5 11 16q25 37 38.5 55.5t38 48.5t43.5 45.5t45 32.5t54.5 24t61.5 7q48 0 103.5 -24t102.5 -48t75 -24q52 0 127 98l162 -108q-76 -110 -111 -147q-81 -83 -182 -83 q-48 0 -103 24t-101.5 48t-74.5 24q-54 0 -129 -98z" />
<glyph horiz-adv-x="1001" d="M115 788l151 861h291l186 -447l80 447h289l-151 -861h-293l-187 447l-78 -447h-288z" />
<glyph horiz-adv-x="1001" d="M4 -307l152 860h290l187 -447l80 447h288l-151 -860h-293l-186 446l-78 -446h-289z" />
<glyph horiz-adv-x="1378" d="M-10 0l209 1176h401l262 -623l111 623h397l-209 -1176h-399l-264 627l-111 -627h-397zM336 -563l156 166h-125l51 293h284l-43 -332l-266 -219z" />
<glyph horiz-adv-x="1378" d="M-10 0l209 1176h401l262 -623l111 623h397l-209 -1176h-399l-264 627l-111 -627h-397zM442 1542h263l112 -129l160 129h297l-279 -297h-379z" />
<glyph horiz-adv-x="1378" d="M-10 0l209 1176h401l262 -623l111 623h397l-209 -1176h-399l-264 627l-111 -627h-397zM639 1245l309 297h463l-412 -297h-360z" />
<glyph horiz-adv-x="1378" d="M-10 0l209 1176h401l262 -623l111 623h397l-209 -1176h-399l-264 627l-111 -627h-397z" />
<glyph horiz-adv-x="890" d="M-18 14l96 207q37 -6 84 -6q227 0 309 113q-63 -29 -156 -29q-131 0 -213 71t-82 193q0 133 103 222t283 89q192 0 300.5 -102t108.5 -256q0 -111 -46.5 -208.5t-129 -168.5t-203 -112t-262.5 -41q-57 0 -105 7t-67 14zM307 573q0 -65 107 -65q63 0 112 35q-2 48 -30 75 t-80 27q-56 0 -82.5 -21t-26.5 -51z" />
<glyph horiz-adv-x="946" d="M70 553h329l60 -492l223 492h358l-477 -860h-317z" />
<glyph horiz-adv-x="1345" d="M-41 -240l154 316q57 -10 131 -10q370 0 510 235q-105 -61 -262 -61q-206 0 -333.5 117t-127.5 315q0 105 40.5 199t116 166.5t193 114.5t260.5 42q150 0 272 -46t200 -126t119.5 -184.5t41.5 -223.5q0 -187 -74.5 -352.5t-205.5 -286t-322 -190.5t-414 -70 q-89 0 -164 11.5t-105 22.5zM467 692q0 -135 176 -135q106 0 193 78v14q0 87 -49 141t-136 54q-91 0 -137.5 -48t-46.5 -104z" />
<glyph horiz-adv-x="1462" d="M193 23l153 315q57 -10 131 -10q370 0 510 235q-105 -61 -262 -61q-206 0 -333.5 117t-127.5 315q0 105 40.5 199t116 166.5t193 114.5t260.5 42q150 0 272 -46t200 -125.5t119.5 -184t41.5 -223.5q0 -188 -74 -353t-205.5 -286t-322 -191t-413.5 -70q-89 0 -164 11.5 t-105 23.5zM700 954q0 -135 177 -135q105 0 192 78v14q0 87 -48.5 141t-135.5 54q-91 0 -138 -48t-47 -104z" />
<glyph horiz-adv-x="946" d="M182 1649h330l59 -492l224 492h358l-477 -861h-318z" />
<glyph horiz-adv-x="1792" d="M100 1176h449l18 -605l267 605h315l43 -586l221 586h479l-553 -1176h-383l-51 649l-287 -649h-376z" />
<glyph horiz-adv-x="837" d="M-12 -307l112 645h279l-10 -59q110 73 227 73q119 0 168.5 -65t28.5 -183l-72 -411h-279l68 381q13 67 -39 67q-74 0 -137 -57l-68 -391h-278z" />
<glyph horiz-adv-x="1792" d="M100 1176h449l18 -605l267 605h315l43 -586l221 586h479l-553 -1176h-383l-51 649l-287 -649h-376zM745 1245l310 297h463l-412 -297h-361z" />
<glyph horiz-adv-x="1241" d="M-23 190l205 265q285 -148 443 -148q102 0 102 35q0 25 -51 39.5t-148 36.5t-166 53q-241 110 -241 322q0 76 30.5 145.5t89.5 125.5t155 91t216 39l27 152h270l-32 -183q183 -44 378 -151l-204 -264q-88 45 -196.5 81.5t-199.5 36.5q-100 0 -100 -35q0 -25 49 -39.5 t146 -36.5t168 -53q243 -107 243 -319q0 -158 -129 -275t-364 -126l-25 -150h-272l30 176q-233 53 -424 182z" />
<glyph horiz-adv-x="1140" d="M115 788l151 861h293l117 -408l287 408h292l-151 -861h-289l72 404l-180 -260h-144l-84 285l-76 -429h-288z" />
<glyph horiz-adv-x="1140" d="M4 -307l152 860h293l116 -408l287 408h293l-152 -860h-288l71 403l-180 -260h-143l-84 285l-76 -428h-289z" />
<glyph horiz-adv-x="1286" d="M-14 217l49 281h205l61 180h-162l49 283h207l72 215h293l-72 -215h160l72 215h294l-71 -215h162l-52 -283h-204l-62 -180h162l-49 -281h-207l-72 -217h-293l72 217h-162l-71 -217h-293l71 217h-159zM532 498h162l60 180h-160z" />
<glyph horiz-adv-x="942" d="M0 -147l37 202h147l45 135h-116l37 205h147l53 158h211l-53 -158h117l53 158h211l-53 -158h118l-36 -205h-150l-45 -135h121l-35 -202h-152l-53 -160h-213l53 160h-116l-54 -160h-211l54 160h-117zM395 55h117l45 135h-117z" />
<glyph horiz-adv-x="942" d="M111 948l36 203h148l45 135h-117l37 205h148l53 158h211l-54 -158h117l53 158h211l-53 -158h119l-37 -205h-149l-45 -135h120l-34 -203h-152l-53 -160h-213l53 160h-117l-53 -160h-211l53 160h-116zM506 1151h117l45 135h-117z" />
<glyph horiz-adv-x="1568" d="M-10 0l209 1176h403l164 -551l391 551h408l-209 -1176h-398l101 571l-258 -374h-183l-122 413l-109 -610h-397z" />
<glyph horiz-adv-x="768" d="M115 788l151 861h289l-111 -625h396l-41 -236h-684z" />
<glyph horiz-adv-x="1103" d="M-45 260l55 340l125 62l92 514h398l-54 -297l252 127l-55 -342l-258 -129l-37 -207h551l-59 -328h-947l56 319z" />
<glyph horiz-adv-x="768" d="M4 -307l152 860h288l-110 -625h395l-41 -235h-684z" />
<glyph horiz-adv-x="1075" d="M-10 0l209 1176h397l-152 -848h551l-59 -328h-946zM664 489l51 297h319l-51 -297h-319z" />
<glyph horiz-adv-x="1069" d="M-10 0l209 1176h397l-152 -848h551l-59 -328h-946zM223 -563l156 166h-125l51 293h285l-43 -332l-266 -219z" />
<glyph horiz-adv-x="1792" d="M100 1176h449l18 -605l267 605h315l43 -586l221 586h479l-553 -1176h-383l-51 649l-287 -649h-376zM596 1245l278 297h379l174 -297h-262l-112 129l-160 -129h-297z" />
<glyph horiz-adv-x="1071" d="M-10 0l209 1176h397l-152 -848h551l-59 -328h-946zM596 717l156 166h-125l51 293h285l-43 -332l-267 -219z" />
<glyph horiz-adv-x="1064" d="M-10 0l209 1176h397l-152 -848h551l-59 -328h-946zM141 1245l310 297h462l-411 -297h-361z" />
<glyph horiz-adv-x="823" d="M8 -10q0 73 24 137t70.5 115t123.5 80.5t175 29.5q181 0 285.5 -81.5t104.5 -229.5q0 -73 -24 -137t-70.5 -115.5t-123.5 -81t-176 -29.5q-179 0 -284 82t-105 230zM297 -10q0 -49 19 -76t71 -27q40 0 68 29.5t37.5 62.5t9.5 62q0 49 -18.5 75.5t-71.5 26.5 q-31 0 -55 -16.5t-36 -42t-18 -49.5t-6 -45z" />
<glyph horiz-adv-x="1069" d="M-10 0l209 1176h397l-152 -848h551l-59 -328h-946z" />
<glyph horiz-adv-x="964" d="M115 788l151 861h287l-49 -281l278 281h381l-430 -394l281 -467h-316l-161 287l-101 -92l-35 -195h-286z" />
<glyph horiz-adv-x="638" d="M-2 709l301 151h274l-151 -860h-283l105 584l-156 -70z" />
<glyph horiz-adv-x="647" d="M102 1282l301 152h275l-152 -861h-282l104 584l-155 -70z" />
<glyph horiz-adv-x="954" d="M33 932l471 244h416l-209 -1176h-437l134 748l-244 -115z" />
<glyph horiz-adv-x="1462" d="M119 0l59 358h424l119 652l-262 -119l-131 299l479 244h418l-191 -1076h418l-59 -358h-1274z" />
<glyph horiz-adv-x="851" d="M10 -61q0 185 91.5 299t238.5 114q47 0 90.5 -12.5t65.5 -24.5t51 -32l53 305h279l-158 -895h-279l9 49q-113 -64 -222 -64q-44 0 -81.5 14t-69.5 43t-50 81.5t-18 122.5zM295 -37q0 -35 15 -50t46 -15q58 0 131 57l25 131q-47 47 -96 47q-56 0 -88.5 -49t-32.5 -121z " />
<glyph horiz-adv-x="1685" d="M115 1055l252 121h215l-123 -705h-228l95 490l-138 -60zM231 0l785 1176h244l-783 -1176h-246zM846 188q0 130 198 207q-86 63 -86 140q0 79 81 130.5t227 51.5q142 0 218.5 -48.5t76.5 -125.5q0 -92 -140 -164q127 -69 127 -174q0 -97 -95 -157t-269 -60q-162 0 -250 54 t-88 146zM1075 211q0 -55 111 -55q60 0 96.5 16t36.5 47q0 47 -92 86q-40 -12 -58 -18t-45 -18.5t-38 -26.5t-11 -31zM1178 508q0 -35 51 -53q29 7 42 11t32 11t26.5 15.5t7.5 19.5q0 45 -71 45q-41 0 -64.5 -13.5t-23.5 -35.5z" />
<glyph horiz-adv-x="1687" d="M115 1055l252 121h215l-123 -705h-228l95 490l-138 -60zM236 0l784 1176h244l-783 -1176h-245zM860 115l123 137q31 -22 54.5 -35.5t64 -26t84.5 -12.5q55 0 91 16t36 50q0 55 -94 55q-78 0 -144 -39l-125 84l105 361h540l-26 -183h-352l-13 -53q35 6 74 6 q129 0 198.5 -65t69.5 -158q0 -108 -88 -186t-246 -78q-188 0 -352 127z" />
<glyph horiz-adv-x="964" d="M4 -307l152 860h286l-49 -281l279 281h381l-430 -393l280 -467h-315l-162 289l-100 -93l-35 -196h-287z" />
<glyph horiz-adv-x="1687" d="M115 1055l252 121h215l-123 -705h-228l95 490l-138 -60zM236 0l784 1176h244l-783 -1176h-245zM858 0l14 84q10 58 38 105.5t73.5 84.5t83.5 59.5t96 51.5q35 18 73 36t58.5 27t39 19t25.5 18t7 17q0 30 -74 30q-85 0 -219 -65l-86 154q177 96 332 96q135 0 205.5 -60.5 t70.5 -144.5q0 -41 -19 -78t-45.5 -63t-70 -52.5t-76.5 -41.5t-81 -35q-126 -51 -131 -55l-3 -3h359l-29 -184h-641z" />
<glyph horiz-adv-x="1792" d="M100 1176h449l18 -605l267 605h315l43 -586l221 586h479l-553 -1176h-383l-51 649l-287 -649h-376zM643 1266l53 297h320l-53 -297h-320zM1059 1266l53 297h320l-54 -297h-319z" />
<glyph horiz-adv-x="1337" d="M-10 0l209 1176h399l-68 -379l381 379h531l-594 -539l387 -637h-438l-224 389l-137 -125l-47 -264h-399zM301 -563l156 166h-125l51 293h285l-43 -332l-267 -219z" />
<glyph horiz-adv-x="1665" d="M115 1055l252 121h215l-123 -705h-228l95 490l-138 -60zM236 0l784 1176h244l-783 -1176h-245zM758 113l20 151l420 441h301l-72 -408h111l-25 -184h-118l-19 -113h-229l18 113h-407zM1038 297h160l39 217z" />
<glyph horiz-adv-x="1660" d="M115 1055l252 121h215l-123 -705h-228l95 490l-138 -60zM238 0l784 1176h244l-783 -1176h-245zM852 283q0 186 151.5 310t389.5 124q46 0 86 -5.5t57 -11.5l16 -6l-73 -162q-33 7 -74 7q-208 0 -285 -109q68 29 148 29q115 0 184.5 -58.5t69.5 -158.5q0 -108 -87 -181 t-239 -73q-163 0 -253.5 84t-90.5 211zM1077 260q2 -40 31 -66t78 -26q54 0 82 20t28 48q0 61 -102 61q-64 0 -117 -37z" />
<glyph horiz-adv-x="1337" d="M-10 0l209 1176h399l-68 -379l381 379h531l-594 -539l387 -637h-438l-224 389l-137 -125l-47 -264h-399z" />
<glyph horiz-adv-x="1792" d="M100 1176h449l18 -605l267 605h315l43 -586l221 586h479l-553 -1176h-383l-51 649l-287 -649h-376zM629 1542h422l206 -297h-321z" />
<glyph horiz-adv-x="1673" d="M115 1055l252 121h215l-123 -705h-228l95 490l-138 -60zM236 0l784 1176h244l-783 -1176h-245zM840 115l108 133q78 -41 131.5 -57.5t110.5 -16.5q113 0 113 47q0 18 -13.5 29t-45 15.5t-56 5.5t-72.5 1h-31l27 185h37q40 0 65 1t54.5 5t44 13t14.5 24q0 32 -63 32 q-72 0 -220 -59l-73 150q29 19 66 36.5t112.5 37.5t150.5 20q129 0 194 -48.5t65 -123.5q0 -106 -148 -166q56 -20 88.5 -64.5t32.5 -99.5q0 -38 -16 -75.5t-50 -73t-98 -57t-149 -21.5q-195 0 -379 127z" />
<glyph horiz-adv-x="448" d="M-43 748q108 29 139.5 52t40.5 79l135 770h289l-133 -754q-22 -129 -45 -177q-39 -83 -143 -130q-79 -35 -215 -62z" />
<glyph horiz-adv-x="448" d="M-154 -348q108 29 140 52t41 79l135 770h289l-134 -754q-22 -129 -45 -177q-39 -83 -143 -129q-79 -35 -215 -62z" />
<glyph horiz-adv-x="638" d="M-211 -55q79 22 121.5 37t70 36.5t37.5 43.5t17 63l186 1051h397l-182 -1029q-28 -162 -51 -221q-42 -109 -147 -171q-116 -69 -357 -115zM14 1245l279 297h379l174 -297h-262l-113 129l-160 -129h-297z" />
<glyph horiz-adv-x="630" d="M-211 -55q79 22 121.5 37t70 36.5t37.5 43.5t17 63l186 1051h397l-182 -1029q-28 -162 -51 -221q-42 -109 -147 -171q-116 -69 -357 -115z" />
<glyph horiz-adv-x="1292" d="M78 553h323l13 -434l190 434h234l32 -424l160 424h346l-403 -860h-277l-37 461l-202 -461h-279z" />
<glyph horiz-adv-x="632" d="M-10 0l209 1176h397l-209 -1176h-397zM2 1352q77 111 113 148q80 81 180 81q48 0 103.5 -24t102 -48t74.5 -24q52 0 127 98l162 -108q-76 -110 -111 -147q-81 -83 -182 -83q-48 0 -103 24t-101 48t-74 24q-54 0 -129 -98z" />
<glyph horiz-adv-x="442" d="M115 788l151 861h289l-152 -861h-288z" />
<glyph horiz-adv-x="624" d="M-76 -238q0 135 236 238h-150l209 1176h397l-208 -1176h-7q-217 -111 -217 -199q0 -19 10 -30.5t30.5 -16t34 -5.5t39 0t26.5 1l-66 -170q-2 0 -26 -0.5t-40 0t-45.5 2t-51.5 6.5t-50 13t-47.5 22t-37.5 32.5t-27 46t-9 60.5z" />
<glyph horiz-adv-x="1454" d="M59 649q0 111 34 201t90.5 149.5t133 100t159 58.5t171.5 18h348l-264 -1487h-315l102 573q-95 0 -175 21.5t-145 65.5t-102 120.5t-37 179.5zM827 -313l265 1489h315l-264 -1489h-316z" />
<glyph horiz-adv-x="628" d="M-10 0l209 1176h397l-209 -1176h-397zM82 1296l41 234h655l-41 -234h-655z" />
<glyph horiz-adv-x="737" d="M6.5 83q-0.5 81 18.5 187l110 629q19 98 31.5 148t38.5 110.5t59.5 89.5t93.5 63t141 55.5t201 43.5l68 -211q-86 -29 -127.5 -52.5t-59.5 -52t-28 -81.5l-152 -854q-15 -81 5 -126t102 -81l-96 -191q-158 32 -247.5 77t-123.5 105t-34.5 141z" />
<glyph horiz-adv-x="1292" d="M188 1649h324l12 -435l191 435h233l33 -424l160 424h346l-404 -861h-276l-37 461l-203 -461h-278z" />
<glyph horiz-adv-x="704" d="M119 1069q0 170 100 274.5t254 104.5q135 0 340 -105l-119 -186q-93 55 -166 55q-60 0 -94.5 -33t-34.5 -85q0 -84 82 -84q72 0 172 41l88 -205q-203 -72 -327 -72q-64 0 -115 15t-92.5 48t-64.5 92t-23 140z" />
<glyph horiz-adv-x="442" d="M4 -307l152 860h288l-151 -860h-289z" />
<glyph horiz-adv-x="739" d="M-59 -29q86 29 127.5 53t59.5 52.5t28 81.5l151 854q15 81 -5 126t-101 81l96 190q158 -32 247.5 -77t123.5 -105t34.5 -141t-18.5 -187l-111 -629q-19 -98 -31.5 -148t-38.5 -110.5t-59.5 -89.5t-93.5 -63t-141 -55.5t-201 -43.5z" />
<glyph horiz-adv-x="1454" d="M49 535q0 133 45 251t128 209.5t212.5 145t288.5 53.5q273 0 432.5 -152.5t159.5 -400.5q0 -132 -45 -250.5t-127.5 -210t-212 -145t-287.5 -53.5q-273 0 -433.5 152.5t-160.5 400.5zM119 535q0 -217 141.5 -353.5t386.5 -136.5q111 0 207.5 30.5t168 85.5t122.5 129.5 t76.5 163.5t25.5 187q0 217 -141.5 353t-386.5 136q-139 0 -253.5 -47t-189.5 -128t-116 -189t-41 -231zM356 508q-7 104 19.5 189.5t76 140t116 84.5t141.5 30q48 0 92 -10.5t82 -30.5t60 -34.5t52 -36.5l-57 -56q-36 28 -57 42.5t-71.5 33.5t-102.5 19 q-117 0 -194.5 -104.5t-68.5 -260.5q13 -217 170 -217q126 0 265 90l49 -61q-52 -31 -85 -48.5t-98 -37t-127 -19.5q-110 0 -184 76t-78 211z" />
<glyph horiz-adv-x="2211" d="M-199 -174q66 21 106 35.5t73.5 35t49 35.5t30 47t20.5 58.5t16 81.5l121 653h-141l51 303h145q43 215 138 316.5t282 101.5q193 0 422 -84l14 84h420l-92 -518q179 123 359 123q67 0 125.5 -22t108.5 -68.5t79 -130t29 -195.5q0 -208 -66 -369t-185.5 -248.5 t-273.5 -87.5q-76 0 -145.5 22t-103.5 42.5t-83 56.5l-16 -98h-420l201 1133q-160 34 -270 34q-85 0 -101 -90v-2h240l-53 -303h-244l-113 -618q-39 -209 -65 -283q-47 -133 -150 -207q-127 -91 -420 -151zM1356 403q75 -92 170 -92q94 0 148.5 93t54.5 229q0 63 -28.5 98 t-80.5 35q-54 0 -106.5 -29.5t-112.5 -81.5z" />
<glyph horiz-adv-x="913" d="M-86 -307l367 438l-199 422h319l78 -240l158 240h352l-348 -420l213 -440h-324l-86 239l-165 -239h-365z" />
<glyph horiz-adv-x="622" d="M-10 0l209 1176h397l-209 -1176h-397zM20 1542h422l207 -297h-321z" />
<glyph horiz-adv-x="1832" d="M88 834q0 69 24.5 132t72 114.5t125.5 82.5t175 31q161 0 259 -73.5t98 -194.5q0 -69 -25 -132.5t-72.5 -115t-125 -82.5t-175.5 -31q-161 0 -258.5 73.5t-97.5 195.5zM352 0l838 1176h289l-840 -1176h-287zM365 862q0 -84 88 -84q29 0 52 14t35 35t17.5 39t5.5 31 q0 82 -86 82q-39 0 -66.5 -24.5t-36.5 -49.5t-9 -43zM991 250q0 69 25 132.5t72.5 115t125 82t175.5 30.5q161 0 258.5 -73.5t97.5 -194.5q0 -69 -24.5 -132t-72 -114.5t-125.5 -82.5t-175 -31q-161 0 -259 73.5t-98 194.5zM1268 279q0 -82 88 -82q38 0 65 24.5t36 49 t9 42.5q0 84 -86 84q-56 0 -84 -42t-28 -76z" />
<glyph horiz-adv-x="1323" d="M74 301q0 68 30.5 127t98.5 99t162 40q115 0 184 -53t69 -141q0 -69 -30.5 -128.5t-97.5 -99t-160 -39.5q-117 0 -186.5 53.5t-69.5 141.5zM252 -322l618 875h207l-616 -875h-209zM272 322q0 -62 64 -62q41 0 62.5 32t21.5 58q0 62 -64 62q-41 0 -62.5 -31.5t-21.5 -58.5 zM723 -127q0 109 75 187.5t214 78.5q117 0 186.5 -53t69.5 -141q0 -68 -30.5 -127.5t-98.5 -99.5t-162 -40q-115 0 -184.5 53.5t-69.5 141.5zM922 -104q0 -62 63 -62q41 0 62.5 31.5t21.5 58.5q0 62 -65 62q-40 0 -61 -32t-21 -58z" />
<glyph horiz-adv-x="1323" d="M184 1397q0 68 30.5 127t98.5 99t162 40q115 0 184.5 -53.5t69.5 -141.5q0 -69 -30.5 -128t-98 -98.5t-160.5 -39.5q-117 0 -186.5 53.5t-69.5 141.5zM362 774l619 875h207l-617 -875h-209zM383 1417q0 -61 63 -61q41 0 62.5 32t21.5 58q0 61 -63 61q-41 0 -62.5 -31.5 t-21.5 -58.5zM834 969q0 109 74.5 187.5t213.5 78.5q117 0 186.5 -53.5t69.5 -141.5q0 -68 -30.5 -127t-98.5 -99t-162 -40q-115 0 -184 53.5t-69 141.5zM1032 991q0 -61 64 -61q41 0 62.5 31.5t21.5 58.5q0 61 -66 61q-40 0 -61 -32t-21 -58z" />
<glyph horiz-adv-x="628" d="M-10 0l209 1176h397l-209 -1176h-397zM43 1266l53 297h320l-54 -297h-319zM459 1266l53 297h319l-53 -297h-319z" />
<glyph horiz-adv-x="630" d="M-10 1245l278 297h379l174 -297h-262l-113 129l-159 -129h-297zM-6 0l209 1176h397l-209 -1176h-397z" />
<glyph horiz-adv-x="399" d="M104 788l50 275h266l-49 -275h-267zM166 1133l49 274h266l-49 -274h-266z" />
<glyph horiz-adv-x="749" d="M160 1176q0 170 100 274t254 104q21 0 57 -4l43 99h105l-51 -119l24 -6l51 125h105l-66 -158l88 -41l-118 -186q-101 55 -183 55q-61 0 -95 -33t-34 -86q0 -84 82 -84q81 0 189 41l88 -205q-143 -52 -269 -67l-38 -97h-107l39 93q-8 2 -27 2l-39 -95h-104l49 119 q-143 65 -143 269z" />
<glyph horiz-adv-x="749" d="M49 80q0 170 100 274.5t254 104.5q22 0 58 -4l43 98h104l-51 -119l25 -6l51 125h104l-65 -158l88 -41l-119 -186q-101 55 -182 55q-61 0 -95 -33t-34 -86q0 -84 82 -84q80 0 188 41l88 -204q-147 -54 -268 -68l-39 -96h-107l39 92q-8 2 -26 2l-39 -94h-105l50 119 q-144 65 -144 268z" />
<glyph horiz-adv-x="2627" d="M88 834q0 69 24.5 132t72 114.5t125.5 82.5t175 31q161 0 259 -73.5t98 -194.5q0 -69 -25 -132.5t-72.5 -115t-125 -82.5t-175.5 -31q-161 0 -258.5 73.5t-97.5 195.5zM352 0l838 1176h289l-840 -1176h-287zM365 862q0 -84 88 -84q29 0 52 14t35 35t17.5 39t5.5 31 q0 82 -86 82q-39 0 -66.5 -24.5t-36.5 -49.5t-9 -43zM991 250q0 69 25 132.5t72.5 115t125 82t175.5 30.5q161 0 258.5 -73.5t97.5 -194.5q0 -69 -24.5 -132t-72 -114.5t-125.5 -82.5t-175 -31q-161 0 -259 73.5t-98 194.5zM1268 279q0 -82 88 -82q38 0 65 24.5t36 49 t9 42.5q0 84 -86 84q-56 0 -84 -42t-28 -76zM1798 250q0 69 25 132.5t73 115t126 82t176 30.5q161 0 257.5 -73t96.5 -195q0 -68 -25 -131.5t-72.5 -115t-125.5 -82.5t-175 -31q-161 0 -258.5 73.5t-97.5 194.5zM2077 279q0 -82 86 -82q39 0 66.5 24.5t36.5 49t9 42.5 q0 84 -88 84q-38 0 -65 -24.5t-36 -49.5t-9 -44z" />
<glyph horiz-adv-x="1036" d="M59 508q0 137 41 243.5t110.5 170t153.5 95.5t177 32q35 0 86 -7l57 134h145l-67 -160l33 -8l71 168h146l-92 -215q25 -10 66 -30.5t52 -25.5l-161 -258q-144 76 -244 76q-43 0 -79 -20.5t-56.5 -51t-31.5 -61t-11 -53.5q0 -82 104 -82q47 0 121.5 15.5t138.5 39.5 l121 -285q-215 -73 -367 -90l-55 -135h-145l53 131q-5 0 -16.5 1t-16.5 1l-55 -133h-145l69 168q-203 84 -203 340z" />
<glyph horiz-adv-x="1359" d="M18 0l127 723h-45l17 88h45l65 365h512q543 0 553 -365h43l-16 -88h-35q-10 -49 -30 -95.5t-59.5 -96.5t-92.5 -87t-134.5 -60.5t-179.5 -23.5h-309l-63 -360h-398zM537 684h168q97 0 143 39h-305zM559 811h315q-19 37 -139 37h-170z" />
<glyph horiz-adv-x="978" d="M20 -307l93 526h-31l12 70h31l47 264h387q195 0 289 -70t96 -194h31l-12 -70h-27q-15 -69 -53.5 -125t-116 -95.5t-182.5 -39.5h-228l-47 -266h-289zM397 190h121q75 0 107 29h-224zM414 289h227q-8 17 -32.5 22.5t-71.5 5.5h-117z" />
<glyph horiz-adv-x="978" d="M131 788l92 527h-30l12 69h31l47 265h387q195 0 289 -70.5t96 -194.5h30l-12 -69h-26q-11 -51 -36.5 -95.5t-67 -82.5t-105.5 -60t-144 -22h-227l-47 -267h-289zM508 1286h121q74 0 106 29h-223zM524 1384h228q-14 29 -105 29h-117z" />
<glyph horiz-adv-x="399" d="M-4 -307l49 274h266l-49 -274h-266zM55 37l49 274h267l-49 -274h-267z" />
<glyph horiz-adv-x="845" d="M-57 -557l157 895h279l-10 -57q105 71 223 71q42 0 79.5 -13.5t69.5 -42.5t51 -81.5t19 -122.5q0 -185 -91.5 -299.5t-238.5 -114.5q-48 0 -91.5 12.5t-65 24t-50.5 31.5l-53 -303h-278zM309 -55q44 -47 99 -47t86.5 48.5t31.5 119.5q0 37 -16 52t-47 15q-60 0 -131 -59z " />
<glyph horiz-adv-x="630" d="M-10 0l209 1176h397l-209 -1176h-397zM74 1528h243q-5 -30 23 -50t78 -20q69 0 114 20t50 50h245q-22 -133 -129.5 -208t-281.5 -75q-181 0 -271 79t-71 204z" />
<glyph horiz-adv-x="632" d="M-10 0l209 1176h397l-209 -1176h-397zM137 1245l309 297h463l-411 -297h-361z" />
<glyph horiz-adv-x="913" d="M25 788l366 439l-198 422h319l78 -240l158 240h352l-348 -420l213 -441h-324l-86 240l-166 -240h-364z" />
<glyph horiz-adv-x="704" d="M8 -27q0 170 100 274.5t254 104.5q137 0 340 -104l-118 -187q-95 56 -166 56q-60 0 -94.5 -33.5t-34.5 -85.5q0 -84 82 -84q72 0 172 41l88 -205q-203 -72 -328 -72q-64 0 -115 15t-92.5 48t-64.5 92t-23 140z" />
<glyph horiz-adv-x="845" d="M53 539l158 895h278l-10 -58q107 72 223 72q42 0 79.5 -13.5t70 -42.5t51.5 -81.5t19 -122.5q0 -185 -91.5 -299.5t-238.5 -114.5q-48 0 -91.5 12.5t-65 24t-50.5 31.5l-53 -303h-279zM420 1040q44 -47 98 -47q55 0 87 48.5t32 119.5q0 68 -64 68q-59 0 -131 -60z" />
</font>
</defs>
</svg>
